# Blender 3.3.1
# www.blender.org
mtllib apartments9.mtl
o apartments9
v -2.489432 -1.774413 -0.000000
v 2.489432 -1.774413 -0.000000
v -2.489432 1.774413 0.000000
v 2.489432 1.774413 0.000000
v -2.193275 -1.774413 -0.000000
v -2.193275 1.774413 0.000000
v -2.193275 1.603654 0.000000
v -1.710706 -1.774413 -0.000000
v -1.710706 1.774413 0.000000
v -1.710706 1.603654 0.000000
v -1.391972 -1.774413 -0.000000
v -1.391972 1.774413 0.000000
v -1.391972 1.603654 0.000000
v -1.153484 -1.774413 -0.000000
v -1.153484 1.774413 0.000000
v -1.153484 1.603654 0.000000
v -0.941825 -1.774413 -0.000000
v -0.941825 1.774413 0.000000
v -0.941825 1.603654 0.000000
v -0.570106 -1.774413 -0.000000
v -0.570106 1.774413 0.000000
v -0.570106 1.603654 0.000000
v -0.367329 -1.774413 -0.000000
v -0.367329 1.774413 0.000000
v -0.367329 1.603654 0.000000
v 0.103828 -1.774413 -0.000000
v 0.103827 1.774413 0.000000
v 0.103827 1.603654 0.000000
v 0.303622 -1.774413 -0.000000
v 0.303622 1.774413 0.000000
v 0.303622 1.603654 0.000000
v 0.529945 -1.774413 -0.000000
v 0.529945 1.774413 0.000000
v 0.529945 1.603654 0.000000
v 0.735424 -1.774413 -0.000000
v 0.735423 1.774413 0.000000
v 0.735423 1.603654 0.000000
v 1.078469 -1.774413 -0.000000
v 1.078469 1.774413 0.000000
v 1.078469 1.603654 0.000000
v 1.283863 -1.774413 -0.000000
v 1.283863 1.774413 0.000000
v 1.283863 1.603654 0.000000
v 1.671793 -1.774413 -0.000000
v 1.671793 1.774413 0.000000
v 1.671793 1.603654 0.000000
v 1.879316 -1.774413 -0.000000
v 1.879316 1.774413 0.000000
v 1.879316 1.603654 0.000000
v 2.346241 -1.774413 -0.000000
v 2.346241 1.774413 0.000000
v 2.346241 1.603654 0.000000
v -2.193275 1.392897 0.000000
v -1.710706 1.392897 0.000000
v -1.391972 1.392897 0.000000
v -1.153484 1.392897 0.000000
v -0.941825 1.392897 0.000000
v -0.570106 1.392897 0.000000
v -0.367329 1.392897 0.000000
v 0.103827 1.392897 0.000000
v 0.303622 1.392897 0.000000
v 0.529945 1.392897 0.000000
v 0.735423 1.392897 0.000000
v 1.078469 1.392897 0.000000
v 1.283863 1.392897 0.000000
v 1.671793 1.392897 0.000000
v 1.879316 1.392897 0.000000
v 2.346241 1.392897 0.000000
v -2.193275 1.085460 0.000000
v -1.710706 1.085460 0.000000
v -1.391972 1.085460 0.000000
v -1.153484 1.085460 0.000000
v -0.941825 1.085460 0.000000
v -0.570106 1.085460 0.000000
v -0.367329 1.085460 0.000000
v 0.103827 1.085460 0.000000
v 0.303622 1.085460 0.000000
v 0.529945 1.085460 0.000000
v 0.735423 1.085460 0.000000
v 1.078469 1.085460 0.000000
v 1.283863 1.085460 0.000000
v 1.671793 1.085460 0.000000
v 1.879316 1.085460 0.000000
v 2.346241 1.085460 0.000000
v -2.193275 0.892419 0.000000
v -1.710706 0.892419 0.000000
v -1.391972 0.892419 0.000000
v -1.153484 0.892419 0.000000
v -0.941825 0.892419 0.000000
v -0.570106 0.892419 0.000000
v -0.367329 0.892419 0.000000
v 0.103827 0.892419 0.000000
v 0.303622 0.892419 0.000000
v 0.529945 0.892419 0.000000
v 0.735423 0.892419 0.000000
v 1.078469 0.892419 0.000000
v 1.283863 0.892419 0.000000
v 1.671793 0.892419 0.000000
v 1.879316 0.892419 0.000000
v 2.346241 0.892419 0.000000
v -2.193275 0.595707 0.000000
v -1.710706 0.595707 0.000000
v -1.391972 0.595707 0.000000
v -1.153484 0.595707 0.000000
v -0.941825 0.595707 0.000000
v -0.570106 0.595707 0.000000
v -0.367329 0.595707 0.000000
v 0.103827 0.595707 0.000000
v 0.303622 0.595707 0.000000
v 0.529945 0.595707 0.000000
v 0.735423 0.595707 0.000000
v 1.078469 0.595707 0.000000
v 1.283863 0.595707 0.000000
v 1.671793 0.595707 0.000000
v 1.879316 0.595707 0.000000
v 2.346241 0.595707 0.000000
v -2.193275 0.393903 0.000000
v -1.710706 0.393903 0.000000
v -1.391972 0.393903 0.000000
v -1.153484 0.393903 0.000000
v -0.941825 0.393903 0.000000
v -0.570106 0.393903 0.000000
v -0.367329 0.393903 0.000000
v 0.103827 0.393903 0.000000
v 0.303622 0.393903 0.000000
v 0.529945 0.393903 0.000000
v 0.735423 0.393903 0.000000
v 1.078469 0.393903 0.000000
v 1.283863 0.393903 0.000000
v 1.671793 0.393903 0.000000
v 1.879316 0.393903 0.000000
v 2.346241 0.393903 0.000000
v -2.193275 0.099632 0.000000
v -1.710706 0.099632 0.000000
v -1.391972 0.099632 0.000000
v -1.153484 0.099632 0.000000
v -0.941825 0.099632 0.000000
v -0.570106 0.099632 0.000000
v -0.367329 0.099632 0.000000
v 0.103827 0.099632 0.000000
v 0.303622 0.099632 0.000000
v 0.529945 0.099632 0.000000
v 0.735423 0.099632 0.000000
v 1.078469 0.099632 0.000000
v 1.283863 0.099632 0.000000
v 1.671793 0.099632 0.000000
v 1.879316 0.099632 0.000000
v 2.346241 0.099632 0.000000
v -2.193275 -0.106307 -0.000000
v -1.710706 -0.106307 -0.000000
v -1.391972 -0.106307 -0.000000
v -1.153484 -0.106307 -0.000000
v -0.941825 -0.106307 -0.000000
v -0.570106 -0.106307 -0.000000
v -0.367329 -0.106307 -0.000000
v 0.103827 -0.106307 -0.000000
v 0.303622 -0.106307 -0.000000
v 0.529945 -0.106307 -0.000000
v 0.735423 -0.106307 -0.000000
v 1.078469 -0.106307 -0.000000
v 1.283863 -0.106307 -0.000000
v 1.671793 -0.106307 -0.000000
v 1.879316 -0.106307 -0.000000
v 2.346241 -0.106307 -0.000000
v -2.193275 -0.389098 -0.000000
v -1.710706 -0.389098 -0.000000
v -1.391972 -0.389098 -0.000000
v -1.153484 -0.389098 -0.000000
v -0.941825 -0.389098 -0.000000
v -0.570106 -0.389098 -0.000000
v -0.367329 -0.389098 -0.000000
v 0.103827 -0.389098 -0.000000
v 0.303622 -0.389098 -0.000000
v 0.529945 -0.389098 -0.000000
v 0.735423 -0.389098 -0.000000
v 1.078469 -0.389098 -0.000000
v 1.283863 -0.389098 -0.000000
v 1.671793 -0.389098 -0.000000
v 1.879316 -0.389098 -0.000000
v 2.346241 -0.389098 -0.000000
v -2.193275 -0.600843 -0.000000
v -1.710706 -0.600843 -0.000000
v -1.391972 -0.600843 -0.000000
v -1.153484 -0.600843 -0.000000
v -0.941825 -0.600843 -0.000000
v -0.570106 -0.600843 -0.000000
v -0.367329 -0.600843 -0.000000
v 0.103827 -0.600843 -0.000000
v 0.303622 -0.600843 -0.000000
v 0.529945 -0.600843 -0.000000
v 0.735423 -0.600843 -0.000000
v 1.078469 -0.600843 -0.000000
v 1.283863 -0.600843 -0.000000
v 1.671793 -0.600843 -0.000000
v 1.879316 -0.600843 -0.000000
v 2.346241 -0.600843 -0.000000
v -2.193275 -0.883502 -0.000000
v -1.710706 -0.883502 -0.000000
v -1.391972 -0.883502 -0.000000
v -1.153484 -0.883502 -0.000000
v -0.941825 -0.883502 -0.000000
v -0.570106 -0.883502 -0.000000
v -0.367329 -0.883502 -0.000000
v 0.103827 -0.883502 -0.000000
v 0.303622 -0.883502 -0.000000
v 0.529945 -0.883502 -0.000000
v 0.735423 -0.883502 -0.000000
v 1.078469 -0.883502 -0.000000
v 1.283863 -0.883502 -0.000000
v 1.671793 -0.883502 -0.000000
v 1.879316 -0.883502 -0.000000
v 2.346241 -0.883502 -0.000000
v -2.193275 -1.088267 -0.000000
v -1.710706 -1.088267 -0.000000
v -1.391972 -1.088267 -0.000000
v -1.153484 -1.088267 -0.000000
v -0.941825 -1.088267 -0.000000
v -0.570106 -1.088267 -0.000000
v -0.367329 -1.088267 -0.000000
v 0.103828 -1.088267 -0.000000
v 0.303622 -1.088267 -0.000000
v 0.529945 -1.088267 -0.000000
v 0.735423 -1.088267 -0.000000
v 1.078469 -1.088267 -0.000000
v 1.283863 -1.088267 -0.000000
v 1.671793 -1.088267 -0.000000
v 1.879316 -1.088267 -0.000000
v 2.346241 -1.088267 -0.000000
v -2.193275 -1.377735 -0.000000
v -1.710706 -1.377735 -0.000000
v -1.391972 -1.377735 -0.000000
v -1.153484 -1.377735 -0.000000
v -0.941825 -1.377735 -0.000000
v -0.570106 -1.377735 -0.000000
v -0.367329 -1.377735 -0.000000
v 0.103828 -1.377735 -0.000000
v 0.303622 -1.377735 -0.000000
v 0.529945 -1.377735 -0.000000
v 0.735424 -1.377735 -0.000000
v 1.078469 -1.377735 -0.000000
v 1.283863 -1.377735 -0.000000
v 1.671793 -1.377735 -0.000000
v 1.879316 -1.377735 -0.000000
v 2.346241 -1.377735 -0.000000
v -2.193275 -1.583286 -0.000000
v -1.710706 -1.583286 -0.000000
v -1.391972 -1.583286 -0.000000
v -1.153484 -1.583286 -0.000000
v -0.941825 -1.583286 -0.000000
v -0.570106 -1.583286 -0.000000
v -0.367329 -1.583286 -0.000000
v 0.103828 -1.583286 -0.000000
v 0.303622 -1.583286 -0.000000
v 0.529945 -1.583286 -0.000000
v 0.735424 -1.583286 -0.000000
v 1.078469 -1.583286 -0.000000
v 1.283863 -1.583286 -0.000000
v 1.671793 -1.583286 -0.000000
v 1.879316 -1.583286 -0.000000
v 2.346241 -1.583286 -0.000000
v -1.710706 1.603654 -0.022325
v -2.193275 1.603654 -0.022325
v -2.193275 1.392897 -0.022325
v -1.710706 1.392897 -0.022325
v -1.153484 1.603654 -0.022325
v -1.391972 1.603654 -0.022325
v -1.391972 1.392897 -0.022325
v -1.153484 1.392897 -0.022325
v -0.570106 1.603654 -0.022325
v -0.941825 1.603654 -0.022325
v -0.941825 1.392897 -0.022325
v -0.570106 1.392897 -0.022325
v 0.103827 1.603654 -0.022325
v -0.367329 1.603654 -0.022325
v -0.367329 1.392897 -0.022325
v 0.103827 1.392897 -0.022325
v 0.529945 1.603654 -0.022325
v 0.303622 1.603654 -0.022325
v 0.303622 1.392897 -0.022325
v 0.529945 1.392897 -0.022325
v 1.078469 1.603654 -0.022325
v 0.735423 1.603654 -0.022325
v 0.735423 1.392897 -0.022325
v 1.078469 1.392897 -0.022325
v 1.671793 1.603654 -0.022325
v 1.283863 1.603654 -0.022325
v 1.283863 1.392897 -0.022325
v 1.671793 1.392897 -0.022325
v 2.346241 1.603654 -0.022325
v 1.879316 1.603654 -0.022325
v 1.879316 1.392897 -0.022325
v 2.346241 1.392897 -0.022325
v -2.193275 0.892419 -0.022325
v -2.193275 1.085460 -0.022325
v -1.710706 0.892419 -0.022325
v -1.710706 1.085460 -0.022325
v -1.391972 0.892419 -0.022325
v -1.391972 1.085460 -0.022325
v -1.153484 0.892419 -0.022325
v -1.153484 1.085460 -0.022325
v -0.941825 0.892419 -0.022325
v -0.941825 1.085460 -0.022325
v -0.570106 0.892419 -0.022325
v -0.570106 1.085460 -0.022325
v -0.367329 0.892419 -0.022325
v -0.367329 1.085460 -0.022325
v 0.103827 0.892419 -0.022325
v 0.103827 1.085460 -0.022325
v 0.303622 0.892419 -0.022325
v 0.303622 1.085460 -0.022325
v 0.529945 0.892419 -0.022325
v 0.529945 1.085460 -0.022325
v 0.735423 0.892419 -0.022325
v 0.735423 1.085460 -0.022325
v 1.078469 0.892419 -0.022325
v 1.078469 1.085460 -0.022325
v 1.283863 0.892419 -0.022325
v 1.283863 1.085460 -0.022325
v 1.671793 0.892419 -0.022325
v 1.671793 1.085460 -0.022325
v 1.879316 0.892419 -0.022325
v 1.879316 1.085460 -0.022325
v 2.346241 0.892419 -0.022325
v 2.346241 1.085460 -0.022325
v -2.193275 0.393903 -0.022325
v -2.193275 0.595707 -0.022325
v -1.710706 0.393903 -0.022325
v -1.710706 0.595707 -0.022325
v -1.391972 0.393903 -0.022325
v -1.391972 0.595707 -0.022325
v -1.153484 0.393903 -0.022325
v -1.153484 0.595707 -0.022325
v -0.941825 0.393903 -0.022325
v -0.941825 0.595707 -0.022325
v -0.570106 0.393903 -0.022325
v -0.570106 0.595707 -0.022325
v -0.367329 0.393903 -0.022325
v -0.367329 0.595707 -0.022325
v 0.103827 0.393903 -0.022325
v 0.103827 0.595707 -0.022325
v 0.303622 0.393903 -0.022325
v 0.303622 0.595707 -0.022325
v 0.529945 0.393903 -0.022325
v 0.529945 0.595707 -0.022325
v 0.735423 0.393903 -0.022325
v 0.735423 0.595707 -0.022325
v 1.078469 0.393903 -0.022325
v 1.078469 0.595707 -0.022325
v 1.283863 0.393903 -0.022325
v 1.283863 0.595707 -0.022325
v 1.671793 0.393903 -0.022325
v 1.671793 0.595707 -0.022325
v 1.879316 0.393903 -0.022325
v 1.879316 0.595707 -0.022325
v 2.346241 0.393903 -0.022325
v 2.346241 0.595707 -0.022325
v -2.193275 -0.106307 -0.022325
v -2.193275 0.099632 -0.022325
v -1.710706 -0.106307 -0.022325
v -1.710706 0.099632 -0.022325
v -1.391972 -0.106307 -0.022325
v -1.391972 0.099632 -0.022325
v -1.153484 -0.106307 -0.022325
v -1.153484 0.099632 -0.022325
v -0.941825 -0.106307 -0.022325
v -0.941825 0.099632 -0.022325
v -0.570106 -0.106307 -0.022325
v -0.570106 0.099632 -0.022325
v -0.367329 -0.106307 -0.022325
v -0.367329 0.099632 -0.022325
v 0.103827 -0.106307 -0.022325
v 0.103827 0.099632 -0.022325
v 0.303622 -0.106307 -0.022325
v 0.303622 0.099632 -0.022325
v 0.529945 -0.106307 -0.022325
v 0.529945 0.099632 -0.022325
v 0.735423 -0.106307 -0.022325
v 0.735423 0.099632 -0.022325
v 1.078469 -0.106307 -0.022325
v 1.078469 0.099632 -0.022325
v 1.283863 -0.106307 -0.022325
v 1.283863 0.099632 -0.022325
v 1.671793 -0.106307 -0.022325
v 1.671793 0.099632 -0.022325
v 1.879316 -0.106307 -0.022325
v 1.879316 0.099632 -0.022325
v 2.346241 -0.106307 -0.022325
v 2.346241 0.099632 -0.022325
v -2.193275 -0.600843 -0.022325
v -2.193275 -0.389098 -0.022325
v -1.710706 -0.600843 -0.022325
v -1.710706 -0.389098 -0.022325
v -1.391972 -0.600843 -0.022325
v -1.391972 -0.389098 -0.022325
v -1.153484 -0.600843 -0.022325
v -1.153484 -0.389098 -0.022325
v -0.941825 -0.600843 -0.022325
v -0.941825 -0.389098 -0.022325
v -0.570106 -0.600843 -0.022325
v -0.570106 -0.389098 -0.022325
v -0.367329 -0.600843 -0.022325
v -0.367329 -0.389098 -0.022325
v 0.103827 -0.600843 -0.022325
v 0.103827 -0.389098 -0.022325
v 0.303622 -0.600843 -0.022325
v 0.303622 -0.389098 -0.022325
v 0.529945 -0.600843 -0.022325
v 0.529945 -0.389098 -0.022325
v 0.735423 -0.600843 -0.022325
v 0.735423 -0.389098 -0.022325
v 1.078469 -0.600843 -0.022325
v 1.078469 -0.389098 -0.022325
v 1.283863 -0.600843 -0.022325
v 1.283863 -0.389098 -0.022325
v 1.671793 -0.600843 -0.022325
v 1.671793 -0.389098 -0.022325
v 1.879316 -0.600843 -0.022325
v 1.879316 -0.389098 -0.022325
v 2.346241 -0.600843 -0.022325
v 2.346241 -0.389098 -0.022325
v -2.193275 -1.088267 -0.022325
v -2.193275 -0.883502 -0.022325
v -1.710706 -1.088267 -0.022325
v -1.710706 -0.883502 -0.022325
v -1.391972 -1.088267 -0.022325
v -1.391972 -0.883502 -0.022325
v -1.153484 -1.088267 -0.022325
v -1.153484 -0.883502 -0.022325
v -0.941825 -1.088267 -0.022325
v -0.941825 -0.883502 -0.022325
v -0.570106 -1.088267 -0.022325
v -0.570106 -0.883502 -0.022325
v -0.367329 -1.088267 -0.022325
v -0.367329 -0.883502 -0.022325
v 0.103828 -1.088267 -0.022325
v 0.103827 -0.883502 -0.022325
v 0.303622 -1.088267 -0.022325
v 0.303622 -0.883502 -0.022325
v 0.529945 -1.088267 -0.022325
v 0.529945 -0.883502 -0.022325
v 0.735423 -1.088267 -0.022325
v 0.735423 -0.883502 -0.022325
v 1.078469 -1.088267 -0.022325
v 1.078469 -0.883502 -0.022325
v 1.283863 -1.088267 -0.022325
v 1.283863 -0.883502 -0.022325
v 1.671793 -1.088267 -0.022325
v 1.671793 -0.883502 -0.022325
v 1.879316 -1.088267 -0.022325
v 1.879316 -0.883502 -0.022325
v 2.346241 -1.088267 -0.022325
v 2.346241 -0.883502 -0.022325
v -2.193275 -1.583286 -0.022325
v -2.193275 -1.377735 -0.022325
v -1.710706 -1.583286 -0.022325
v -1.710706 -1.377735 -0.022325
v -1.391972 -1.583286 -0.022325
v -1.391972 -1.377735 -0.022325
v -1.153484 -1.583286 -0.022325
v -1.153484 -1.377735 -0.022325
v -0.941825 -1.583286 -0.022325
v -0.941825 -1.377735 -0.022325
v -0.570106 -1.583286 -0.022325
v -0.570106 -1.377735 -0.022325
v -0.367329 -1.583286 -0.022325
v -0.367329 -1.377735 -0.022325
v 0.103828 -1.583286 -0.022325
v 0.103828 -1.377735 -0.022325
v 0.303622 -1.583286 -0.022325
v 0.303622 -1.377735 -0.022325
v 0.529945 -1.583286 -0.022325
v 0.529945 -1.377735 -0.022325
v 0.735424 -1.583286 -0.022325
v 0.735424 -1.377735 -0.022325
v 1.078469 -1.583286 -0.022325
v 1.078469 -1.377735 -0.022325
v 1.283863 -1.583286 -0.022325
v 1.283863 -1.377735 -0.022325
v 1.671793 -1.583286 -0.022325
v 1.671793 -1.377735 -0.022325
v 1.879316 -1.583286 -0.022325
v 1.879316 -1.377735 -0.022325
v 2.346241 -1.583286 -0.022325
v 2.346241 -1.377735 -0.022325
v -2.209113 1.379523 -0.024228
v -2.209113 1.379523 0.009485
v -2.209113 1.396583 -0.024228
v -2.209113 1.396583 0.009485
v -1.694821 1.379523 -0.024228
v -1.694821 1.379523 0.009485
v -1.694821 1.396583 -0.024228
v -1.694821 1.396583 0.009485
v -2.209113 0.881686 -0.024228
v -2.209113 0.881686 0.009485
v -2.209113 0.898746 -0.024228
v -2.209113 0.898746 0.009485
v -1.694821 0.881686 -0.024228
v -1.694821 0.881686 0.009485
v -1.694821 0.898746 -0.024228
v -1.694821 0.898746 0.009485
v -2.209113 0.379001 -0.024228
v -2.209113 0.379001 0.009485
v -2.209113 0.396061 -0.024228
v -2.209113 0.396061 0.009485
v -1.694821 0.379001 -0.024228
v -1.694821 0.379001 0.009485
v -1.694821 0.396061 -0.024228
v -1.694821 0.396061 0.009485
v -2.209113 -0.118836 -0.024228
v -2.209113 -0.118836 0.009485
v -2.209113 -0.101776 -0.024228
v -2.209113 -0.101776 0.009485
v -1.694821 -0.118836 -0.024228
v -1.694821 -0.118836 0.009485
v -1.694821 -0.101776 -0.024228
v -1.694821 -0.101776 0.009485
v -2.209113 -0.610476 -0.024228
v -2.209113 -0.610476 0.009485
v -2.209113 -0.593416 -0.024228
v -2.209113 -0.593416 0.009485
v -1.694821 -0.610476 -0.024228
v -1.694821 -0.610476 0.009485
v -1.694821 -0.593416 -0.024228
v -1.694821 -0.593416 0.009485
v -2.209113 -1.108313 -0.024228
v -2.209113 -1.108313 0.009485
v -2.209113 -1.091253 -0.024228
v -2.209113 -1.091253 0.009485
v -1.694821 -1.108313 -0.024228
v -1.694821 -1.108313 0.009485
v -1.694821 -1.091253 -0.024228
v -1.694821 -1.091253 0.009485
v -2.209113 -1.590816 -0.024228
v -2.209113 -1.590816 0.009485
v -2.209113 -1.573756 -0.024228
v -2.209113 -1.573756 0.009485
v -1.694821 -1.590816 -0.024228
v -1.694821 -1.590816 0.009485
v -1.694821 -1.573756 -0.024228
v -1.694821 -1.573756 0.009485
v -0.369079 1.379523 -0.024228
v -0.369079 1.379523 0.009485
v -0.369079 1.396583 -0.024228
v -0.369079 1.396583 0.009485
v 0.109806 1.379523 -0.024228
v 0.109806 1.379523 0.009485
v 0.109806 1.396583 -0.024228
v 0.109806 1.396583 0.009485
v -0.369079 0.881686 -0.024228
v -0.369079 0.881686 0.009485
v -0.369079 0.898746 -0.024228
v -0.369079 0.898746 0.009485
v 0.109806 0.881686 -0.024228
v 0.109806 0.881686 0.009485
v 0.109806 0.898746 -0.024228
v 0.109806 0.898746 0.009485
v -0.369079 0.379001 -0.024228
v -0.369079 0.379001 0.009485
v -0.369079 0.396061 -0.024228
v -0.369079 0.396061 0.009485
v 0.109806 0.379001 -0.024228
v 0.109806 0.379001 0.009485
v 0.109806 0.396061 -0.024228
v 0.109806 0.396061 0.009485
v -0.369079 -0.118836 -0.024228
v -0.369079 -0.118836 0.009485
v -0.369079 -0.101776 -0.024228
v -0.369079 -0.101776 0.009485
v 0.109806 -0.118836 -0.024228
v 0.109806 -0.118836 0.009485
v 0.109806 -0.101776 -0.024228
v 0.109806 -0.101776 0.009485
v -0.369079 -0.610476 -0.024228
v -0.369079 -0.610476 0.009485
v -0.369079 -0.593416 -0.024228
v -0.369079 -0.593416 0.009485
v 0.109806 -0.610476 -0.024228
v 0.109806 -0.610476 0.009485
v 0.109806 -0.593416 -0.024228
v 0.109806 -0.593416 0.009485
v -0.369079 -1.108313 -0.024228
v -0.369079 -1.108313 0.009485
v -0.369079 -1.091253 -0.024228
v -0.369079 -1.091253 0.009485
v 0.109806 -1.108313 -0.024228
v 0.109806 -1.108313 0.009485
v 0.109806 -1.091253 -0.024228
v 0.109806 -1.091253 0.009485
v -0.369079 -1.590816 -0.024228
v -0.369079 -1.590816 0.009485
v -0.369079 -1.573756 -0.024228
v -0.369079 -1.573756 0.009485
v 0.109806 -1.590816 -0.024228
v 0.109806 -1.590816 0.009485
v 0.109806 -1.573756 -0.024228
v 0.109806 -1.573756 0.009485
v 0.724096 1.379523 -0.024228
v 0.724096 1.379523 0.009485
v 0.724096 1.396583 -0.024228
v 0.724096 1.396583 0.009485
v 1.100312 1.379523 -0.024228
v 1.100312 1.379523 0.009485
v 1.100312 1.396583 -0.024228
v 1.100312 1.396583 0.009485
v 0.724096 0.881686 -0.024228
v 0.724096 0.881686 0.009485
v 0.724096 0.898746 -0.024228
v 0.724096 0.898746 0.009485
v 1.100312 0.881686 -0.024228
v 1.100312 0.881686 0.009485
v 1.100312 0.898746 -0.024228
v 1.100312 0.898746 0.009485
v 0.724096 0.379001 -0.024228
v 0.724096 0.379001 0.009485
v 0.724096 0.396061 -0.024228
v 0.724096 0.396061 0.009485
v 1.100312 0.379001 -0.024228
v 1.100312 0.379001 0.009485
v 1.100312 0.396061 -0.024228
v 1.100312 0.396061 0.009485
v 0.724096 -0.118836 -0.024228
v 0.724096 -0.118836 0.009485
v 0.724096 -0.101776 -0.024228
v 0.724096 -0.101776 0.009485
v 1.100312 -0.118836 -0.024228
v 1.100312 -0.118836 0.009485
v 1.100312 -0.101776 -0.024228
v 1.100312 -0.101776 0.009485
v 0.724096 -0.610476 -0.024228
v 0.724096 -0.610476 0.009485
v 0.724096 -0.593416 -0.024228
v 0.724096 -0.593416 0.009485
v 1.100312 -0.610476 -0.024228
v 1.100312 -0.610476 0.009485
v 1.100312 -0.593416 -0.024228
v 1.100312 -0.593416 0.009485
v 0.724096 -1.108313 -0.024228
v 0.724096 -1.108313 0.009485
v 0.724096 -1.091253 -0.024228
v 0.724096 -1.091253 0.009485
v 1.100312 -1.108313 -0.024228
v 1.100312 -1.108313 0.009485
v 1.100312 -1.091253 -0.024228
v 1.100312 -1.091253 0.009485
v 0.724096 -1.590816 -0.024228
v 0.724096 -1.590816 0.009485
v 0.724096 -1.573756 -0.024228
v 0.724096 -1.573756 0.009485
v 1.100312 -1.590816 -0.024228
v 1.100312 -1.590816 0.009485
v 1.100312 -1.573756 -0.024228
v 1.100312 -1.573756 0.009485
v 1.271797 1.379523 -0.024228
v 1.271797 1.379523 0.009485
v 1.271797 1.396583 -0.024228
v 1.271797 1.396583 0.009485
v 1.689706 1.379523 -0.024228
v 1.689706 1.379523 0.009485
v 1.689706 1.396583 -0.024228
v 1.689706 1.396583 0.009485
v 1.271797 0.881686 -0.024228
v 1.271797 0.881686 0.009485
v 1.271797 0.898746 -0.024228
v 1.271797 0.898746 0.009485
v 1.689706 0.881686 -0.024228
v 1.689706 0.881686 0.009485
v 1.689706 0.898746 -0.024228
v 1.689706 0.898746 0.009485
v 1.271797 0.379001 -0.024228
v 1.271797 0.379001 0.009485
v 1.271797 0.396061 -0.024228
v 1.271797 0.396061 0.009485
v 1.689706 0.379001 -0.024228
v 1.689706 0.379001 0.009485
v 1.689706 0.396061 -0.024228
v 1.689706 0.396061 0.009485
v 1.271797 -0.118836 -0.024228
v 1.271797 -0.118836 0.009485
v 1.271797 -0.101776 -0.024228
v 1.271797 -0.101776 0.009485
v 1.689706 -0.118836 -0.024228
v 1.689706 -0.118836 0.009485
v 1.689706 -0.101776 -0.024228
v 1.689706 -0.101776 0.009485
v 1.271797 -0.610476 -0.024228
v 1.271797 -0.610476 0.009485
v 1.271797 -0.593416 -0.024228
v 1.271797 -0.593416 0.009485
v 1.689706 -0.610476 -0.024228
v 1.689706 -0.610476 0.009485
v 1.689706 -0.593416 -0.024228
v 1.689706 -0.593416 0.009485
v 1.271797 -1.108313 -0.024228
v 1.271797 -1.108313 0.009485
v 1.271797 -1.091253 -0.024228
v 1.271797 -1.091253 0.009485
v 1.689706 -1.108313 -0.024228
v 1.689706 -1.108313 0.009485
v 1.689706 -1.091253 -0.024228
v 1.689706 -1.091253 0.009485
v 1.271797 -1.590816 -0.024228
v 1.271797 -1.590816 0.009485
v 1.271797 -1.573756 -0.024228
v 1.271797 -1.573756 0.009485
v 1.689706 -1.590816 -0.024228
v 1.689706 -1.590816 0.009485
v 1.689706 -1.573756 -0.024228
v 1.689706 -1.573756 0.009485
v 1.858612 1.379523 -0.024228
v 1.858612 1.379523 0.009485
v 1.858612 1.396583 -0.024228
v 1.858612 1.396583 0.009485
v 2.365006 1.379523 -0.024228
v 2.365006 1.379523 0.009485
v 2.365006 1.396583 -0.024228
v 2.365006 1.396583 0.009485
v 1.858612 0.881686 -0.024228
v 1.858612 0.881686 0.009485
v 1.858612 0.898746 -0.024228
v 1.858612 0.898746 0.009485
v 2.365006 0.881686 -0.024228
v 2.365006 0.881686 0.009485
v 2.365006 0.898746 -0.024228
v 2.365006 0.898746 0.009485
v 1.858612 0.379001 -0.024228
v 1.858612 0.379001 0.009485
v 1.858612 0.396061 -0.024228
v 1.858612 0.396061 0.009485
v 2.365006 0.379001 -0.024228
v 2.365006 0.379001 0.009485
v 2.365006 0.396061 -0.024228
v 2.365006 0.396061 0.009485
v 1.858612 -0.118836 -0.024228
v 1.858612 -0.118836 0.009485
v 1.858612 -0.101776 -0.024228
v 1.858612 -0.101776 0.009485
v 2.365006 -0.118836 -0.024228
v 2.365006 -0.118836 0.009485
v 2.365006 -0.101776 -0.024228
v 2.365006 -0.101776 0.009485
v 1.858612 -0.610476 -0.024228
v 1.858612 -0.610476 0.009485
v 1.858612 -0.593416 -0.024228
v 1.858612 -0.593416 0.009485
v 2.365006 -0.610476 -0.024228
v 2.365006 -0.610476 0.009485
v 2.365006 -0.593416 -0.024228
v 2.365006 -0.593416 0.009485
v 1.858612 -1.108313 -0.024228
v 1.858612 -1.108313 0.009485
v 1.858612 -1.091253 -0.024228
v 1.858612 -1.091253 0.009485
v 2.365006 -1.108313 -0.024228
v 2.365006 -1.108313 0.009485
v 2.365006 -1.091253 -0.024228
v 2.365006 -1.091253 0.009485
v 1.858612 -1.590816 -0.024228
v 1.858612 -1.590816 0.009485
v 1.858612 -1.573756 -0.024228
v 1.858612 -1.573756 0.009485
v 2.365006 -1.590816 -0.024228
v 2.365006 -1.590816 0.009485
v 2.365006 -1.573756 -0.024228
v 2.365006 -1.573756 0.009485
v 0.295318 1.393878 -0.024228
v 0.295318 1.393878 0.009485
v 0.295318 1.410939 -0.024228
v 0.295318 1.410939 0.009485
v 0.542852 1.393878 -0.024228
v 0.542852 1.393878 0.009485
v 0.542852 1.410939 -0.024228
v 0.542852 1.410939 0.009485
v 0.295318 0.896041 -0.024228
v 0.295318 0.896041 0.009485
v 0.295318 0.913102 -0.024228
v 0.295318 0.913102 0.009485
v 0.542852 0.896041 -0.024228
v 0.542852 0.896041 0.009485
v 0.542852 0.913102 -0.024228
v 0.542852 0.913102 0.009485
v 0.295318 0.393356 -0.024228
v 0.295318 0.393356 0.009485
v 0.295318 0.410416 -0.024228
v 0.295318 0.410416 0.009485
v 0.542852 0.393356 -0.024228
v 0.542852 0.393356 0.009485
v 0.542852 0.410416 -0.024228
v 0.542852 0.410416 0.009485
v 0.295318 -0.104481 -0.024228
v 0.295318 -0.104481 0.009485
v 0.295318 -0.087421 -0.024228
v 0.295318 -0.087421 0.009485
v 0.542852 -0.104481 -0.024228
v 0.542852 -0.104481 0.009485
v 0.542852 -0.087421 -0.024228
v 0.542852 -0.087421 0.009485
v 0.295318 -0.596121 -0.024228
v 0.295318 -0.596121 0.009485
v 0.295318 -0.579060 -0.024228
v 0.295318 -0.579060 0.009485
v 0.542852 -0.596121 -0.024228
v 0.542852 -0.596121 0.009485
v 0.542852 -0.579060 -0.024228
v 0.542852 -0.579060 0.009485
v 0.295318 -1.093958 -0.024228
v 0.295318 -1.093958 0.009485
v 0.295318 -1.076897 -0.024228
v 0.295318 -1.076897 0.009485
v 0.542852 -1.093958 -0.024228
v 0.542852 -1.093958 0.009485
v 0.542852 -1.076897 -0.024228
v 0.542852 -1.076897 0.009485
v 0.295318 -1.576461 -0.024228
v 0.295318 -1.576461 0.009485
v 0.295318 -1.559401 -0.024228
v 0.295318 -1.559401 0.009485
v 0.542852 -1.576461 -0.024228
v 0.542852 -1.576461 0.009485
v 0.542852 -1.559401 -0.024228
v 0.542852 -1.559401 0.009485
v -1.390990 1.393878 -0.024228
v -1.390990 1.393878 0.009485
v -1.390990 1.410939 -0.024228
v -1.390990 1.410939 0.009485
v -1.143457 1.393878 -0.024228
v -1.143457 1.393878 0.009485
v -1.143457 1.410939 -0.024228
v -1.143457 1.410939 0.009485
v -1.390990 0.896041 -0.024228
v -1.390990 0.896041 0.009485
v -1.390990 0.913102 -0.024228
v -1.390990 0.913102 0.009485
v -1.143457 0.896041 -0.024228
v -1.143457 0.896041 0.009485
v -1.143457 0.913102 -0.024228
v -1.143457 0.913102 0.009485
v -1.390990 0.393356 -0.024228
v -1.390990 0.393356 0.009485
v -1.390990 0.410416 -0.024228
v -1.390990 0.410416 0.009485
v -1.143457 0.393356 -0.024228
v -1.143457 0.393356 0.009485
v -1.143457 0.410416 -0.024228
v -1.143457 0.410416 0.009485
v -1.390990 -0.104481 -0.024228
v -1.390990 -0.104481 0.009485
v -1.390990 -0.087421 -0.024228
v -1.390990 -0.087421 0.009485
v -1.143457 -0.104481 -0.024228
v -1.143457 -0.104481 0.009485
v -1.143457 -0.087421 -0.024228
v -1.143457 -0.087421 0.009485
v -1.390990 -0.596121 -0.024228
v -1.390990 -0.596121 0.009485
v -1.390990 -0.579060 -0.024228
v -1.390990 -0.579060 0.009485
v -1.143457 -0.596121 -0.024228
v -1.143457 -0.596121 0.009485
v -1.143457 -0.579060 -0.024228
v -1.143457 -0.579060 0.009485
v -1.390990 -1.093958 -0.024228
v -1.390990 -1.093958 0.009485
v -1.390990 -1.076897 -0.024228
v -1.390990 -1.076897 0.009485
v -1.143457 -1.093958 -0.024228
v -1.143457 -1.093958 0.009485
v -1.143457 -1.076897 -0.024228
v -1.143457 -1.076897 0.009485
v -1.390990 -1.576461 -0.024228
v -1.390990 -1.576461 0.009485
v -1.390990 -1.559401 -0.024228
v -1.390990 -1.559401 0.009485
v -1.143457 -1.576461 -0.024228
v -1.143457 -1.576461 0.009485
v -1.143457 -1.559401 -0.024228
v -1.143457 -1.559401 0.009485
vn -0.0000 1.0000 -0.0000
vn -0.0000 -0.0000 1.0000
vn -0.0000 -1.0000 -0.0000
vn 1.0000 -0.0000 -0.0000
vn -1.0000 -0.0000 -0.0000
vt 0.000000 0.000000
vt 1.000000 0.000000
vt 0.000000 1.000000
vt 1.000000 1.000000
vt 0.059483 0.000000
vt 0.059483 1.000000
vt 0.059483 0.951883
vt 0.156406 0.000000
vt 0.156406 1.000000
vt 0.156406 0.951883
vt 0.220424 0.000000
vt 0.220424 1.000000
vt 0.220424 0.951883
vt 0.268324 0.000000
vt 0.268324 1.000000
vt 0.268324 0.951883
vt 0.310835 0.000000
vt 0.310835 1.000000
vt 0.310835 0.951883
vt 0.385495 0.000000
vt 0.385495 1.000000
vt 0.385495 0.951883
vt 0.426222 0.000000
vt 0.426222 1.000000
vt 0.426222 0.951883
vt 0.520854 0.000000
vt 0.520854 1.000000
vt 0.520854 0.951883
vt 0.560982 0.000000
vt 0.560982 1.000000
vt 0.560982 0.951883
vt 0.606439 0.000000
vt 0.606439 1.000000
vt 0.606439 0.951883
vt 0.647709 0.000000
vt 0.647709 1.000000
vt 0.647709 0.951883
vt 0.716609 0.000000
vt 0.716609 1.000000
vt 0.716609 0.951883
vt 0.757863 0.000000
vt 0.757863 1.000000
vt 0.757863 0.951883
vt 0.835778 0.000000
vt 0.835778 1.000000
vt 0.835778 0.951883
vt 0.877459 0.000000
vt 0.877459 1.000000
vt 0.877459 0.951883
vt 0.971240 0.000000
vt 0.971240 1.000000
vt 0.971240 0.951883
vt 0.059483 0.892495
vt 0.156406 0.892495
vt 0.220424 0.892495
vt 0.268324 0.892495
vt 0.310835 0.892495
vt 0.385495 0.892495
vt 0.426222 0.892495
vt 0.520854 0.892495
vt 0.560982 0.892495
vt 0.606439 0.892495
vt 0.647709 0.892495
vt 0.716609 0.892495
vt 0.757863 0.892495
vt 0.835778 0.892495
vt 0.877459 0.892495
vt 0.971240 0.892495
vt 0.059483 0.805865
vt 0.156406 0.805865
vt 0.220424 0.805865
vt 0.268324 0.805865
vt 0.310835 0.805865
vt 0.385495 0.805865
vt 0.426222 0.805865
vt 0.520854 0.805865
vt 0.560982 0.805865
vt 0.606439 0.805865
vt 0.647709 0.805865
vt 0.716609 0.805865
vt 0.757863 0.805865
vt 0.835778 0.805865
vt 0.877459 0.805865
vt 0.971240 0.805865
vt 0.059483 0.751469
vt 0.156406 0.751469
vt 0.220424 0.751469
vt 0.268324 0.751469
vt 0.310835 0.751469
vt 0.385495 0.751469
vt 0.426222 0.751469
vt 0.520854 0.751469
vt 0.560982 0.751469
vt 0.606439 0.751469
vt 0.647709 0.751469
vt 0.716609 0.751469
vt 0.757863 0.751469
vt 0.835778 0.751469
vt 0.877459 0.751469
vt 0.971240 0.751469
vt 0.059483 0.667860
vt 0.156406 0.667860
vt 0.220424 0.667860
vt 0.268324 0.667860
vt 0.310835 0.667860
vt 0.385495 0.667860
vt 0.426222 0.667860
vt 0.520854 0.667860
vt 0.560982 0.667860
vt 0.606439 0.667860
vt 0.647709 0.667860
vt 0.716609 0.667860
vt 0.757863 0.667860
vt 0.835778 0.667860
vt 0.877459 0.667860
vt 0.971240 0.667860
vt 0.059483 0.610995
vt 0.156406 0.610995
vt 0.220424 0.610995
vt 0.268324 0.610995
vt 0.310835 0.610995
vt 0.385495 0.610995
vt 0.426222 0.610995
vt 0.520854 0.610995
vt 0.560982 0.610995
vt 0.606439 0.610995
vt 0.647709 0.610995
vt 0.716609 0.610995
vt 0.757863 0.610995
vt 0.835778 0.610995
vt 0.877459 0.610995
vt 0.971240 0.610995
vt 0.059483 0.528075
vt 0.156406 0.528075
vt 0.220424 0.528075
vt 0.268324 0.528075
vt 0.310835 0.528075
vt 0.385495 0.528075
vt 0.426222 0.528075
vt 0.520854 0.528075
vt 0.560982 0.528075
vt 0.606439 0.528075
vt 0.647709 0.528075
vt 0.716609 0.528075
vt 0.757863 0.528075
vt 0.835778 0.528075
vt 0.877459 0.528075
vt 0.971240 0.528075
vt 0.059483 0.470044
vt 0.156406 0.470044
vt 0.220424 0.470044
vt 0.268324 0.470044
vt 0.310835 0.470044
vt 0.385495 0.470044
vt 0.426222 0.470044
vt 0.520854 0.470044
vt 0.560982 0.470044
vt 0.606439 0.470044
vt 0.647709 0.470044
vt 0.716609 0.470044
vt 0.757863 0.470044
vt 0.835778 0.470044
vt 0.877459 0.470044
vt 0.971240 0.470044
vt 0.059483 0.390359
vt 0.156406 0.390359
vt 0.220424 0.390359
vt 0.268324 0.390359
vt 0.310835 0.390359
vt 0.385495 0.390359
vt 0.426222 0.390359
vt 0.520854 0.390359
vt 0.560982 0.390359
vt 0.606439 0.390359
vt 0.647709 0.390359
vt 0.716609 0.390359
vt 0.757863 0.390359
vt 0.835778 0.390359
vt 0.877459 0.390359
vt 0.971240 0.390359
vt 0.059483 0.330692
vt 0.156406 0.330692
vt 0.220424 0.330692
vt 0.268324 0.330692
vt 0.310835 0.330692
vt 0.385495 0.330692
vt 0.426222 0.330692
vt 0.520854 0.330692
vt 0.560982 0.330692
vt 0.606439 0.330692
vt 0.647709 0.330692
vt 0.716609 0.330692
vt 0.757863 0.330692
vt 0.835778 0.330692
vt 0.877459 0.330692
vt 0.971240 0.330692
vt 0.059483 0.251044
vt 0.156406 0.251044
vt 0.220424 0.251044
vt 0.268324 0.251044
vt 0.310835 0.251044
vt 0.385495 0.251044
vt 0.426222 0.251044
vt 0.520854 0.251044
vt 0.560982 0.251044
vt 0.606439 0.251044
vt 0.647709 0.251044
vt 0.716609 0.251044
vt 0.757863 0.251044
vt 0.835778 0.251044
vt 0.877459 0.251044
vt 0.971240 0.251044
vt 0.059483 0.193344
vt 0.156406 0.193344
vt 0.220424 0.193344
vt 0.268324 0.193344
vt 0.310835 0.193344
vt 0.385495 0.193344
vt 0.426222 0.193344
vt 0.520854 0.193344
vt 0.560982 0.193344
vt 0.606439 0.193344
vt 0.647709 0.193344
vt 0.716609 0.193344
vt 0.757863 0.193344
vt 0.835778 0.193344
vt 0.877459 0.193344
vt 0.971240 0.193344
vt 0.059483 0.111777
vt 0.156406 0.111777
vt 0.220424 0.111777
vt 0.268324 0.111777
vt 0.310835 0.111777
vt 0.385495 0.111777
vt 0.426222 0.111777
vt 0.520854 0.111777
vt 0.560982 0.111777
vt 0.606439 0.111777
vt 0.647709 0.111777
vt 0.716609 0.111777
vt 0.757863 0.111777
vt 0.835778 0.111777
vt 0.877459 0.111777
vt 0.971240 0.111777
vt 0.059483 0.053856
vt 0.156406 0.053856
vt 0.220424 0.053856
vt 0.268324 0.053856
vt 0.310835 0.053856
vt 0.385495 0.053856
vt 0.426222 0.053856
vt 0.520854 0.053856
vt 0.560982 0.053856
vt 0.606439 0.053856
vt 0.647709 0.053856
vt 0.716609 0.053856
vt 0.757863 0.053856
vt 0.835778 0.053856
vt 0.877459 0.053856
vt 0.971240 0.053856
vt 0.156406 0.951883
vt 0.059483 0.951883
vt 0.059483 0.892495
vt 0.156406 0.892495
vt 0.268324 0.951883
vt 0.220424 0.951883
vt 0.220424 0.892495
vt 0.268324 0.892495
vt 0.385495 0.951883
vt 0.310835 0.951883
vt 0.310835 0.892495
vt 0.385495 0.892495
vt 0.520854 0.951883
vt 0.426222 0.951883
vt 0.426222 0.892495
vt 0.520854 0.892495
vt 0.606439 0.951883
vt 0.560982 0.951883
vt 0.560982 0.892495
vt 0.606439 0.892495
vt 0.716609 0.951883
vt 0.647709 0.951883
vt 0.647709 0.892495
vt 0.716609 0.892495
vt 0.835778 0.951883
vt 0.757863 0.951883
vt 0.757863 0.892495
vt 0.835778 0.892495
vt 0.971240 0.951883
vt 0.877459 0.951883
vt 0.877459 0.892495
vt 0.971240 0.892495
vt 0.059483 0.751469
vt 0.059483 0.805865
vt 0.156406 0.751469
vt 0.156406 0.805865
vt 0.220424 0.751469
vt 0.220424 0.805865
vt 0.268324 0.751469
vt 0.268324 0.805865
vt 0.310835 0.751469
vt 0.310835 0.805865
vt 0.385495 0.751469
vt 0.385495 0.805865
vt 0.426222 0.751469
vt 0.426222 0.805865
vt 0.520854 0.751469
vt 0.520854 0.805865
vt 0.560982 0.751469
vt 0.560982 0.805865
vt 0.606439 0.751469
vt 0.606439 0.805865
vt 0.647709 0.751469
vt 0.647709 0.805865
vt 0.716609 0.751469
vt 0.716609 0.805865
vt 0.757863 0.751469
vt 0.757863 0.805865
vt 0.835778 0.751469
vt 0.835778 0.805865
vt 0.877459 0.751469
vt 0.877459 0.805865
vt 0.971240 0.751469
vt 0.971240 0.805865
vt 0.059483 0.610995
vt 0.059483 0.667860
vt 0.156406 0.610995
vt 0.156406 0.667860
vt 0.220424 0.610995
vt 0.220424 0.667860
vt 0.268324 0.610995
vt 0.268324 0.667860
vt 0.310835 0.610995
vt 0.310835 0.667860
vt 0.385495 0.610995
vt 0.385495 0.667860
vt 0.426222 0.610995
vt 0.426222 0.667860
vt 0.520854 0.610995
vt 0.520854 0.667860
vt 0.560982 0.610995
vt 0.560982 0.667860
vt 0.606439 0.610995
vt 0.606439 0.667860
vt 0.647709 0.610995
vt 0.647709 0.667860
vt 0.716609 0.610995
vt 0.716609 0.667860
vt 0.757863 0.610995
vt 0.757863 0.667860
vt 0.835778 0.610995
vt 0.835778 0.667860
vt 0.877459 0.610995
vt 0.877459 0.667860
vt 0.971240 0.610995
vt 0.971240 0.667860
vt 0.059483 0.470044
vt 0.059483 0.528075
vt 0.156406 0.470044
vt 0.156406 0.528075
vt 0.220424 0.470044
vt 0.220424 0.528075
vt 0.268324 0.470044
vt 0.268324 0.528075
vt 0.310835 0.470044
vt 0.310835 0.528075
vt 0.385495 0.470044
vt 0.385495 0.528075
vt 0.426222 0.470044
vt 0.426222 0.528075
vt 0.520854 0.470044
vt 0.520854 0.528075
vt 0.560982 0.470044
vt 0.560982 0.528075
vt 0.606439 0.470044
vt 0.606439 0.528075
vt 0.647709 0.470044
vt 0.647709 0.528075
vt 0.716609 0.470044
vt 0.716609 0.528075
vt 0.757863 0.470044
vt 0.757863 0.528075
vt 0.835778 0.470044
vt 0.835778 0.528075
vt 0.877459 0.470044
vt 0.877459 0.528075
vt 0.971240 0.470044
vt 0.971240 0.528075
vt 0.059483 0.330692
vt 0.059483 0.390359
vt 0.156406 0.330692
vt 0.156406 0.390359
vt 0.220424 0.330692
vt 0.220424 0.390359
vt 0.268324 0.330692
vt 0.268324 0.390359
vt 0.310835 0.330692
vt 0.310835 0.390359
vt 0.385495 0.330692
vt 0.385495 0.390359
vt 0.426222 0.330692
vt 0.426222 0.390359
vt 0.520854 0.330692
vt 0.520854 0.390359
vt 0.560982 0.330692
vt 0.560982 0.390359
vt 0.606439 0.330692
vt 0.606439 0.390359
vt 0.647709 0.330692
vt 0.647709 0.390359
vt 0.716609 0.330692
vt 0.716609 0.390359
vt 0.757863 0.330692
vt 0.757863 0.390359
vt 0.835778 0.330692
vt 0.835778 0.390359
vt 0.877459 0.330692
vt 0.877459 0.390359
vt 0.971240 0.330692
vt 0.971240 0.390359
vt 0.059483 0.193344
vt 0.059483 0.251044
vt 0.156406 0.193344
vt 0.156406 0.251044
vt 0.220424 0.193344
vt 0.220424 0.251044
vt 0.268324 0.193344
vt 0.268324 0.251044
vt 0.310835 0.193344
vt 0.310835 0.251044
vt 0.385495 0.193344
vt 0.385495 0.251044
vt 0.426222 0.193344
vt 0.426222 0.251044
vt 0.520854 0.193344
vt 0.520854 0.251044
vt 0.560982 0.193344
vt 0.560982 0.251044
vt 0.606439 0.193344
vt 0.606439 0.251044
vt 0.647709 0.193344
vt 0.647709 0.251044
vt 0.716609 0.193344
vt 0.716609 0.251044
vt 0.757863 0.193344
vt 0.757863 0.251044
vt 0.835778 0.193344
vt 0.835778 0.251044
vt 0.877459 0.193344
vt 0.877459 0.251044
vt 0.971240 0.193344
vt 0.971240 0.251044
vt 0.059483 0.053856
vt 0.059483 0.111777
vt 0.156406 0.053856
vt 0.156406 0.111777
vt 0.220424 0.053856
vt 0.220424 0.111777
vt 0.268324 0.053856
vt 0.268324 0.111777
vt 0.310835 0.053856
vt 0.310835 0.111777
vt 0.385495 0.053856
vt 0.385495 0.111777
vt 0.426222 0.053856
vt 0.426222 0.111777
vt 0.520854 0.053856
vt 0.520854 0.111777
vt 0.560982 0.053856
vt 0.560982 0.111777
vt 0.606439 0.053856
vt 0.606439 0.111777
vt 0.647709 0.053856
vt 0.647709 0.111777
vt 0.716609 0.053856
vt 0.716609 0.111777
vt 0.757863 0.053856
vt 0.757863 0.111777
vt 0.835778 0.053856
vt 0.835778 0.111777
vt 0.877459 0.053856
vt 0.877459 0.111777
vt 0.971240 0.053856
vt 0.971240 0.111777
vt 0.056302 0.888727
vt 0.056302 0.888727
vt 0.056302 0.893534
vt 0.056302 0.893534
vt 0.159597 0.888727
vt 0.159597 0.888727
vt 0.159597 0.893534
vt 0.159597 0.893534
vt 0.056302 0.748444
vt 0.056302 0.748444
vt 0.056302 0.753252
vt 0.056302 0.753252
vt 0.159597 0.748444
vt 0.159597 0.748444
vt 0.159597 0.753252
vt 0.159597 0.753252
vt 0.056302 0.606796
vt 0.056302 0.606796
vt 0.056302 0.611603
vt 0.056302 0.611603
vt 0.159597 0.606796
vt 0.159597 0.606796
vt 0.159597 0.611603
vt 0.159597 0.611603
vt 0.056302 0.466514
vt 0.056302 0.466514
vt 0.056302 0.471321
vt 0.056302 0.471321
vt 0.159597 0.466514
vt 0.159597 0.466514
vt 0.159597 0.471321
vt 0.159597 0.471321
vt 0.056302 0.327978
vt 0.056302 0.327978
vt 0.056302 0.332785
vt 0.056302 0.332785
vt 0.159597 0.327978
vt 0.159597 0.327978
vt 0.159597 0.332785
vt 0.159597 0.332785
vt 0.056302 0.187696
vt 0.056302 0.187696
vt 0.056302 0.192503
vt 0.056302 0.192503
vt 0.159597 0.187696
vt 0.159597 0.187696
vt 0.159597 0.192503
vt 0.159597 0.192503
vt 0.056302 0.051734
vt 0.056302 0.051734
vt 0.056302 0.056542
vt 0.056302 0.056542
vt 0.159597 0.051734
vt 0.159597 0.051734
vt 0.159597 0.056542
vt 0.159597 0.056542
vt 0.425871 0.888727
vt 0.425871 0.888727
vt 0.425871 0.893534
vt 0.425871 0.893534
vt 0.522054 0.888727
vt 0.522054 0.888727
vt 0.522054 0.893534
vt 0.522054 0.893534
vt 0.425871 0.748444
vt 0.425871 0.748444
vt 0.425871 0.753252
vt 0.425871 0.753252
vt 0.522054 0.748444
vt 0.522054 0.748444
vt 0.522054 0.753252
vt 0.522054 0.753252
vt 0.425871 0.606796
vt 0.425871 0.606796
vt 0.425871 0.611603
vt 0.425871 0.611603
vt 0.522054 0.606796
vt 0.522054 0.606796
vt 0.522054 0.611603
vt 0.522054 0.611603
vt 0.425871 0.466514
vt 0.425871 0.466514
vt 0.425871 0.471321
vt 0.425871 0.471321
vt 0.522054 0.466514
vt 0.522054 0.466514
vt 0.522054 0.471321
vt 0.522054 0.471321
vt 0.425871 0.327978
vt 0.425871 0.327978
vt 0.425871 0.332785
vt 0.425871 0.332785
vt 0.522054 0.327978
vt 0.522054 0.327978
vt 0.522054 0.332785
vt 0.522054 0.332785
vt 0.425871 0.187696
vt 0.425871 0.187696
vt 0.425871 0.192503
vt 0.425871 0.192503
vt 0.522054 0.187696
vt 0.522054 0.187696
vt 0.522054 0.192503
vt 0.522054 0.192503
vt 0.425871 0.051734
vt 0.425871 0.051734
vt 0.425871 0.056542
vt 0.425871 0.056542
vt 0.522054 0.051734
vt 0.522054 0.051734
vt 0.522054 0.056542
vt 0.522054 0.056542
vt 0.645434 0.888727
vt 0.645434 0.888727
vt 0.645434 0.893534
vt 0.645434 0.893534
vt 0.720996 0.888727
vt 0.720996 0.888727
vt 0.720996 0.893534
vt 0.720996 0.893534
vt 0.645434 0.748444
vt 0.645434 0.748444
vt 0.645434 0.753252
vt 0.645434 0.753252
vt 0.720996 0.748444
vt 0.720996 0.748444
vt 0.720996 0.753252
vt 0.720996 0.753252
vt 0.645434 0.606796
vt 0.645434 0.606796
vt 0.645434 0.611603
vt 0.645434 0.611603
vt 0.720996 0.606796
vt 0.720996 0.606796
vt 0.720996 0.611603
vt 0.720996 0.611603
vt 0.645434 0.466514
vt 0.645434 0.466514
vt 0.645434 0.471321
vt 0.645434 0.471321
vt 0.720996 0.466514
vt 0.720996 0.466514
vt 0.720996 0.471321
vt 0.720996 0.471321
vt 0.645434 0.327978
vt 0.645434 0.327978
vt 0.645434 0.332785
vt 0.645434 0.332785
vt 0.720996 0.327978
vt 0.720996 0.327978
vt 0.720996 0.332785
vt 0.720996 0.332785
vt 0.645434 0.187696
vt 0.645434 0.187696
vt 0.645434 0.192503
vt 0.645434 0.192503
vt 0.720996 0.187696
vt 0.720996 0.187696
vt 0.720996 0.192503
vt 0.720996 0.192503
vt 0.645434 0.051734
vt 0.645434 0.051734
vt 0.645434 0.056542
vt 0.645434 0.056542
vt 0.720996 0.051734
vt 0.720996 0.051734
vt 0.720996 0.056542
vt 0.720996 0.056542
vt 0.755439 0.888727
vt 0.755439 0.888727
vt 0.755439 0.893534
vt 0.755439 0.893534
vt 0.839376 0.888727
vt 0.839376 0.888727
vt 0.839376 0.893534
vt 0.839376 0.893534
vt 0.755439 0.748444
vt 0.755439 0.748444
vt 0.755439 0.753252
vt 0.755439 0.753252
vt 0.839376 0.748444
vt 0.839376 0.748444
vt 0.839376 0.753252
vt 0.839376 0.753252
vt 0.755439 0.606796
vt 0.755439 0.606796
vt 0.755439 0.611603
vt 0.755439 0.611603
vt 0.839376 0.606796
vt 0.839376 0.606796
vt 0.839376 0.611603
vt 0.839376 0.611603
vt 0.755439 0.466514
vt 0.755439 0.466514
vt 0.755439 0.471321
vt 0.755439 0.471321
vt 0.839376 0.466514
vt 0.839376 0.466514
vt 0.839376 0.471321
vt 0.839376 0.471321
vt 0.755439 0.327978
vt 0.755439 0.327978
vt 0.755439 0.332785
vt 0.755439 0.332785
vt 0.839376 0.327978
vt 0.839376 0.327978
vt 0.839376 0.332785
vt 0.839376 0.332785
vt 0.755439 0.187696
vt 0.755439 0.187696
vt 0.755439 0.192503
vt 0.755439 0.192503
vt 0.839376 0.187696
vt 0.839376 0.187696
vt 0.839376 0.192503
vt 0.839376 0.192503
vt 0.755439 0.051734
vt 0.755439 0.051734
vt 0.755439 0.056542
vt 0.755439 0.056542
vt 0.839376 0.051734
vt 0.839376 0.051734
vt 0.839376 0.056542
vt 0.839376 0.056542
vt 0.873300 0.888727
vt 0.873300 0.888727
vt 0.873300 0.893534
vt 0.873300 0.893534
vt 0.975009 0.888727
vt 0.975009 0.888727
vt 0.975009 0.893534
vt 0.975009 0.893534
vt 0.873300 0.748444
vt 0.873300 0.748444
vt 0.873300 0.753252
vt 0.873300 0.753252
vt 0.975009 0.748444
vt 0.975009 0.748444
vt 0.975009 0.753252
vt 0.975009 0.753252
vt 0.873300 0.606796
vt 0.873300 0.606796
vt 0.873300 0.611603
vt 0.873300 0.611603
vt 0.975009 0.606796
vt 0.975009 0.606796
vt 0.975009 0.611603
vt 0.975009 0.611603
vt 0.873300 0.466514
vt 0.873300 0.466514
vt 0.873300 0.471321
vt 0.873300 0.471321
vt 0.975009 0.466514
vt 0.975009 0.466514
vt 0.975009 0.471321
vt 0.975009 0.471321
vt 0.873300 0.327978
vt 0.873300 0.327978
vt 0.873300 0.332785
vt 0.873300 0.332785
vt 0.975009 0.327978
vt 0.975009 0.327978
vt 0.975009 0.332785
vt 0.975009 0.332785
vt 0.873300 0.187696
vt 0.873300 0.187696
vt 0.873300 0.192503
vt 0.873300 0.192503
vt 0.975009 0.187696
vt 0.975009 0.187696
vt 0.975009 0.192503
vt 0.975009 0.192503
vt 0.873300 0.051734
vt 0.873300 0.051734
vt 0.873300 0.056542
vt 0.873300 0.056542
vt 0.975009 0.051734
vt 0.975009 0.051734
vt 0.975009 0.056542
vt 0.975009 0.056542
vt 0.559314 0.892771
vt 0.559314 0.892771
vt 0.559314 0.897579
vt 0.559314 0.897579
vt 0.609031 0.892771
vt 0.609031 0.892771
vt 0.609031 0.897579
vt 0.609031 0.897579
vt 0.559314 0.752489
vt 0.559314 0.752489
vt 0.559314 0.757297
vt 0.559314 0.757297
vt 0.609031 0.752489
vt 0.609031 0.752489
vt 0.609031 0.757297
vt 0.609031 0.757297
vt 0.559314 0.610841
vt 0.559314 0.610841
vt 0.559314 0.615648
vt 0.559314 0.615648
vt 0.609031 0.610841
vt 0.609031 0.610841
vt 0.609031 0.615648
vt 0.609031 0.615648
vt 0.559314 0.470559
vt 0.559314 0.470559
vt 0.559314 0.475366
vt 0.559314 0.475366
vt 0.609031 0.470559
vt 0.609031 0.470559
vt 0.609031 0.475366
vt 0.609031 0.475366
vt 0.559314 0.332023
vt 0.559314 0.332023
vt 0.559314 0.336830
vt 0.559314 0.336830
vt 0.609031 0.332023
vt 0.609031 0.332023
vt 0.609031 0.336830
vt 0.609031 0.336830
vt 0.559314 0.191741
vt 0.559314 0.191741
vt 0.559314 0.196548
vt 0.559314 0.196548
vt 0.609031 0.191741
vt 0.609031 0.191741
vt 0.609031 0.196548
vt 0.609031 0.196548
vt 0.559314 0.055779
vt 0.559314 0.055779
vt 0.559314 0.060587
vt 0.559314 0.060587
vt 0.609031 0.055779
vt 0.609031 0.055779
vt 0.609031 0.060587
vt 0.609031 0.060587
vt 0.220621 0.892771
vt 0.220621 0.892771
vt 0.220621 0.897579
vt 0.220621 0.897579
vt 0.270338 0.892771
vt 0.270338 0.892771
vt 0.270338 0.897579
vt 0.270338 0.897579
vt 0.220621 0.752489
vt 0.220621 0.752489
vt 0.220621 0.757297
vt 0.220621 0.757297
vt 0.270338 0.752489
vt 0.270338 0.752489
vt 0.270338 0.757297
vt 0.270338 0.757297
vt 0.220621 0.610841
vt 0.220621 0.610841
vt 0.220621 0.615648
vt 0.220621 0.615648
vt 0.270338 0.610841
vt 0.270338 0.610841
vt 0.270338 0.615648
vt 0.270338 0.615648
vt 0.220621 0.470559
vt 0.220621 0.470559
vt 0.220621 0.475366
vt 0.220621 0.475366
vt 0.270338 0.470559
vt 0.270338 0.470559
vt 0.270338 0.475366
vt 0.270338 0.475366
vt 0.220621 0.332023
vt 0.220621 0.332023
vt 0.220621 0.336830
vt 0.220621 0.336830
vt 0.270338 0.332023
vt 0.270338 0.332023
vt 0.270338 0.336830
vt 0.270338 0.336830
vt 0.220621 0.191741
vt 0.220621 0.191741
vt 0.220621 0.196548
vt 0.220621 0.196548
vt 0.270338 0.191741
vt 0.270338 0.191741
vt 0.270338 0.196548
vt 0.270338 0.196548
vt 0.220621 0.055779
vt 0.220621 0.055779
vt 0.220621 0.060587
vt 0.220621 0.060587
vt 0.270338 0.055779
vt 0.270338 0.055779
vt 0.270338 0.060587
vt 0.270338 0.060587
s 0
usemtl apartments9
f 185/185/1 186/186/1 399/399/1 397/397/1
f 7/7/2 10/10/2 9/9/2 6/6/2
f 54/54/2 55/55/2 13/13/2 10/10/2
f 10/10/2 13/13/2 12/12/2 9/9/2
f 142/142/3 141/141/3 374/374/3 376/376/3
f 13/13/2 16/16/2 15/15/2 12/12/2
f 56/56/2 57/57/2 19/19/2 16/16/2
f 16/16/2 19/19/2 18/18/2 15/15/2
f 236/236/3 235/235/3 466/466/3 468/468/3
f 19/19/2 22/22/2 21/21/2 18/18/2
f 58/58/2 59/59/2 25/25/2 22/22/2
f 22/22/2 25/25/2 24/24/2 21/21/2
f 89/89/1 90/90/1 303/303/1 301/301/1
f 25/25/2 28/28/2 27/27/2 24/24/2
f 60/60/2 61/61/2 31/31/2 28/28/2
f 28/28/2 31/31/2 30/30/2 27/27/2
f 187/187/1 188/188/1 403/403/1 401/401/1
f 31/31/2 34/34/2 33/33/2 30/30/2
f 62/62/2 63/63/2 37/37/2 34/34/2
f 34/34/2 37/37/2 36/36/2 33/33/2
f 49/49/4 67/67/4 291/291/4 290/290/4
f 37/37/2 40/40/2 39/39/2 36/36/2
f 64/64/2 65/65/2 43/43/2 40/40/2
f 40/40/2 43/43/2 42/42/2 39/39/2
f 140/140/3 139/139/3 370/370/3 372/372/3
f 43/43/2 46/46/2 45/45/2 42/42/2
f 66/66/2 67/67/2 49/49/2 46/46/2
f 46/46/2 49/49/2 48/48/2 45/45/2
f 234/234/3 233/233/3 462/462/3 464/464/3
f 49/49/2 52/52/2 51/51/2 48/48/2
f 83/83/2 84/84/2 68/68/2 67/67/2
f 82/82/2 83/83/2 67/67/2 66/66/2
f 81/81/2 82/82/2 66/66/2 65/65/2
f 80/80/2 81/81/2 65/65/2 64/64/2
f 79/79/2 80/80/2 64/64/2 63/63/2
f 78/78/2 79/79/2 63/63/2 62/62/2
f 77/77/2 78/78/2 62/62/2 61/61/2
f 76/76/2 77/77/2 61/61/2 60/60/2
f 75/75/2 76/76/2 60/60/2 59/59/2
f 74/74/2 75/75/2 59/59/2 58/58/2
f 73/73/2 74/74/2 58/58/2 57/57/2
f 72/72/2 73/73/2 57/57/2 56/56/2
f 71/71/2 72/72/2 56/56/2 55/55/2
f 70/70/2 71/71/2 55/55/2 54/54/2
f 69/69/2 70/70/2 54/54/2 53/53/2
f 52/52/3 49/49/3 290/290/3 289/289/3
f 86/86/2 87/87/2 71/71/2 70/70/2
f 91/91/1 92/92/1 307/307/1 305/305/1
f 88/88/2 89/89/2 73/73/2 72/72/2
f 189/189/1 190/190/1 407/407/1 405/405/1
f 90/90/2 91/91/2 75/75/2 74/74/2
f 138/138/3 137/137/3 366/366/3 368/368/3
f 92/92/2 93/93/2 77/77/2 76/76/2
f 232/232/3 231/231/3 458/458/3 460/460/3
f 94/94/2 95/95/2 79/79/2 78/78/2
f 93/93/1 94/94/1 311/311/1 309/309/1
f 96/96/2 97/97/2 81/81/2 80/80/2
f 191/191/1 192/192/1 411/411/1 409/409/1
f 98/98/2 99/99/2 83/83/2 82/82/2
f 136/136/3 135/135/3 362/362/3 364/364/3
f 115/115/2 116/116/2 100/100/2 99/99/2
f 114/114/2 115/115/2 99/99/2 98/98/2
f 113/113/2 114/114/2 98/98/2 97/97/2
f 112/112/2 113/113/2 97/97/2 96/96/2
f 111/111/2 112/112/2 96/96/2 95/95/2
f 110/110/2 111/111/2 95/95/2 94/94/2
f 109/109/2 110/110/2 94/94/2 93/93/2
f 108/108/2 109/109/2 93/93/2 92/92/2
f 107/107/2 108/108/2 92/92/2 91/91/2
f 106/106/2 107/107/2 91/91/2 90/90/2
f 105/105/2 106/106/2 90/90/2 89/89/2
f 104/104/2 105/105/2 89/89/2 88/88/2
f 103/103/2 104/104/2 88/88/2 87/87/2
f 102/102/2 103/103/2 87/87/2 86/86/2
f 101/101/2 102/102/2 86/86/2 85/85/2
f 230/230/3 229/229/3 454/454/3 456/456/3
f 118/118/2 119/119/2 103/103/2 102/102/2
f 66/66/5 46/46/5 285/285/5 288/288/5
f 120/120/2 121/121/2 105/105/2 104/104/2
f 95/95/1 96/96/1 315/315/1 313/313/1
f 122/122/2 123/123/2 107/107/2 106/106/2
f 193/193/1 194/194/1 415/415/1 413/413/1
f 124/124/2 125/125/2 109/109/2 108/108/2
f 134/134/3 133/133/3 358/358/3 360/360/3
f 126/126/2 127/127/2 111/111/2 110/110/2
f 128/128/2 129/129/2 113/113/2 112/112/2
f 195/195/1 196/196/1 419/419/1 417/417/1
f 130/130/2 131/131/2 115/115/2 114/114/2
f 260/260/5 244/244/5 484/484/5 483/483/5
f 147/147/2 148/148/2 132/132/2 131/131/2
f 146/146/2 147/147/2 131/131/2 130/130/2
f 145/145/2 146/146/2 130/130/2 129/129/2
f 144/144/2 145/145/2 129/129/2 128/128/2
f 143/143/2 144/144/2 128/128/2 127/127/2
f 142/142/2 143/143/2 127/127/2 126/126/2
f 141/141/2 142/142/2 126/126/2 125/125/2
f 140/140/2 141/141/2 125/125/2 124/124/2
f 139/139/2 140/140/2 124/124/2 123/123/2
f 138/138/2 139/139/2 123/123/2 122/122/2
f 137/137/2 138/138/2 122/122/2 121/121/2
f 136/136/2 137/137/2 121/121/2 120/120/2
f 135/135/2 136/136/2 120/120/2 119/119/2
f 134/134/2 135/135/2 119/119/2 118/118/2
f 133/133/2 134/134/2 118/118/2 117/117/2
f 243/243/4 259/259/4 481/481/4 482/482/4
f 150/150/2 151/151/2 135/135/2 134/134/2
f 99/99/1 100/100/1 323/323/1 321/321/1
f 152/152/2 153/153/2 137/137/2 136/136/2
f 164/164/5 148/148/5 388/388/5 387/387/5
f 154/154/2 155/155/2 139/139/2 138/138/2
f 258/258/5 242/242/5 480/480/5 479/479/5
f 156/156/2 157/157/2 141/141/2 140/140/2
f 43/43/4 65/65/4 287/287/4 286/286/4
f 158/158/2 159/159/2 143/143/2 142/142/2
f 147/147/4 163/163/4 385/385/4 386/386/4
f 160/160/2 161/161/2 145/145/2 144/144/2
f 241/241/4 257/257/4 477/477/4 478/478/4
f 162/162/2 163/163/2 147/147/2 146/146/2
f 46/46/3 43/43/3 286/286/3 285/285/3
f 179/179/2 180/180/2 164/164/2 163/163/2
f 178/178/2 179/179/2 163/163/2 162/162/2
f 177/177/2 178/178/2 162/162/2 161/161/2
f 176/176/2 177/177/2 161/161/2 160/160/2
f 175/175/2 176/176/2 160/160/2 159/159/2
f 174/174/2 175/175/2 159/159/2 158/158/2
f 173/173/2 174/174/2 158/158/2 157/157/2
f 172/172/2 173/173/2 157/157/2 156/156/2
f 171/171/2 172/172/2 156/156/2 155/155/2
f 170/170/2 171/171/2 155/155/2 154/154/2
f 169/169/2 170/170/2 154/154/2 153/153/2
f 168/168/2 169/169/2 153/153/2 152/152/2
f 167/167/2 168/168/2 152/152/2 151/151/2
f 166/166/2 167/167/2 151/151/2 150/150/2
f 165/165/2 166/166/2 150/150/2 149/149/2
f 162/162/5 146/146/5 384/384/5 383/383/5
f 182/182/2 183/183/2 167/167/2 166/166/2
f 256/256/5 240/240/5 476/476/5 475/475/5
f 184/184/2 185/185/2 169/169/2 168/168/2
f 145/145/4 161/161/4 381/381/4 382/382/4
f 186/186/2 187/187/2 171/171/2 170/170/2
f 239/239/4 255/255/4 473/473/4 474/474/4
f 188/188/2 189/189/2 173/173/2 172/172/2
f 160/160/5 144/144/5 380/380/5 379/379/5
f 190/190/2 191/191/2 175/175/2 174/174/2
f 254/254/5 238/238/5 472/472/5 471/471/5
f 192/192/2 193/193/2 177/177/2 176/176/2
f 143/143/4 159/159/4 377/377/4 378/378/4
f 194/194/2 195/195/2 179/179/2 178/178/2
f 237/237/4 253/253/4 469/469/4 470/470/4
f 211/211/2 212/212/2 196/196/2 195/195/2
f 210/210/2 211/211/2 195/195/2 194/194/2
f 209/209/2 210/210/2 194/194/2 193/193/2
f 208/208/2 209/209/2 193/193/2 192/192/2
f 207/207/2 208/208/2 192/192/2 191/191/2
f 206/206/2 207/207/2 191/191/2 190/190/2
f 205/205/2 206/206/2 190/190/2 189/189/2
f 204/204/2 205/205/2 189/189/2 188/188/2
f 203/203/2 204/204/2 188/188/2 187/187/2
f 202/202/2 203/203/2 187/187/2 186/186/2
f 201/201/2 202/202/2 186/186/2 185/185/2
f 200/200/2 201/201/2 185/185/2 184/184/2
f 199/199/2 200/200/2 184/184/2 183/183/2
f 198/198/2 199/199/2 183/183/2 182/182/2
f 197/197/2 198/198/2 182/182/2 181/181/2
f 64/64/5 40/40/5 281/281/5 284/284/5
f 214/214/2 215/215/2 199/199/2 198/198/2
f 158/158/5 142/142/5 376/376/5 375/375/5
f 216/216/2 217/217/2 201/201/2 200/200/2
f 252/252/5 236/236/5 468/468/5 467/467/5
f 218/218/2 219/219/2 203/203/2 202/202/2
f 141/141/4 157/157/4 373/373/4 374/374/4
f 220/220/2 221/221/2 205/205/2 204/204/2
f 235/235/4 251/251/4 465/465/4 466/466/4
f 222/222/2 223/223/2 207/207/2 206/206/2
f 156/156/5 140/140/5 372/372/5 371/371/5
f 224/224/2 225/225/2 209/209/2 208/208/2
f 250/250/5 234/234/5 464/464/5 463/463/5
f 226/226/2 227/227/2 211/211/2 210/210/2
f 139/139/4 155/155/4 369/369/4 370/370/4
f 243/243/2 244/244/2 228/228/2 227/227/2
f 242/242/2 243/243/2 227/227/2 226/226/2
f 241/241/2 242/242/2 226/226/2 225/225/2
f 240/240/2 241/241/2 225/225/2 224/224/2
f 239/239/2 240/240/2 224/224/2 223/223/2
f 238/238/2 239/239/2 223/223/2 222/222/2
f 237/237/2 238/238/2 222/222/2 221/221/2
f 236/236/2 237/237/2 221/221/2 220/220/2
f 235/235/2 236/236/2 220/220/2 219/219/2
f 234/234/2 235/235/2 219/219/2 218/218/2
f 233/233/2 234/234/2 218/218/2 217/217/2
f 232/232/2 233/233/2 217/217/2 216/216/2
f 231/231/2 232/232/2 216/216/2 215/215/2
f 230/230/2 231/231/2 215/215/2 214/214/2
f 229/229/2 230/230/2 214/214/2 213/213/2
f 4/4/2 51/51/2 52/52/2 68/68/2 84/84/2 100/100/2 116/116/2 132/132/2 148/148/2 164/164/2 180/180/2 196/196/2 212/212/2 228/228/2 244/244/2 260/260/2 50/50/2 2/2/2
f 7/7/2 6/6/2 3/3/2 1/1/2 5/5/2 245/245/2 229/229/2 213/213/2 197/197/2 181/181/2 165/165/2 149/149/2 133/133/2 117/117/2 101/101/2 85/85/2 69/69/2 53/53/2
f 233/233/4 249/249/4 461/461/4 462/462/4
f 246/246/2 247/247/2 231/231/2 230/230/2
f 154/154/5 138/138/5 368/368/5 367/367/5
f 248/248/2 249/249/2 233/233/2 232/232/2
f 248/248/5 232/232/5 460/460/5 459/459/5
f 250/250/2 251/251/2 235/235/2 234/234/2
f 37/37/4 63/63/4 283/283/4 282/282/4
f 252/252/2 253/253/2 237/237/2 236/236/2
f 137/137/4 153/153/4 365/365/4 366/366/4
f 254/254/2 255/255/2 239/239/2 238/238/2
f 231/231/4 247/247/4 457/457/4 458/458/4
f 256/256/2 257/257/2 241/241/2 240/240/2
f 40/40/3 37/37/3 282/282/3 281/281/3
f 258/258/2 259/259/2 243/243/2 242/242/2
f 152/152/5 136/136/5 364/364/5 363/363/5
f 47/47/2 50/50/2 260/260/2 259/259/2
f 44/44/2 47/47/2 259/259/2 258/258/2
f 41/41/2 44/44/2 258/258/2 257/257/2
f 38/38/2 41/41/2 257/257/2 256/256/2
f 35/35/2 38/38/2 256/256/2 255/255/2
f 32/32/2 35/35/2 255/255/2 254/254/2
f 29/29/2 32/32/2 254/254/2 253/253/2
f 26/26/2 29/29/2 253/253/2 252/252/2
f 23/23/2 26/26/2 252/252/2 251/251/2
f 20/20/2 23/23/2 251/251/2 250/250/2
f 17/17/2 20/20/2 250/250/2 249/249/2
f 14/14/2 17/17/2 249/249/2 248/248/2
f 11/11/2 14/14/2 248/248/2 247/247/2
f 8/8/2 11/11/2 247/247/2 246/246/2
f 5/5/2 8/8/2 246/246/2 245/245/2
f 87/87/1 88/88/1 299/299/1 297/297/1
f 238/238/3 237/237/3 470/470/3 472/472/3
f 144/144/3 143/143/3 378/378/3 380/380/3
f 183/183/1 184/184/1 395/395/1 393/393/1
f 85/85/1 86/86/1 295/295/1 293/293/1
f 68/68/5 52/52/5 289/289/5 292/292/5
f 240/240/3 239/239/3 474/474/3 476/476/3
f 146/146/3 145/145/3 382/382/3 384/384/3
f 181/181/1 182/182/1 391/391/1 389/389/1
f 242/242/3 241/241/3 478/478/3 480/480/3
f 148/148/3 147/147/3 386/386/3 388/388/3
f 244/244/3 243/243/3 482/482/3 484/484/3
f 101/101/4 117/117/4 325/325/4 326/326/4
f 118/118/5 102/102/5 328/328/5 327/327/5
f 197/197/4 213/213/4 421/421/4 422/422/4
f 103/103/4 119/119/4 329/329/4 330/330/4
f 214/214/5 198/198/5 424/424/5 423/423/5
f 120/120/5 104/104/5 332/332/5 331/331/5
f 199/199/4 215/215/4 425/425/4 426/426/4
f 105/105/4 121/121/4 333/333/4 334/334/4
f 216/216/5 200/200/5 428/428/5 427/427/5
f 122/122/5 106/106/5 336/336/5 335/335/5
f 201/201/4 217/217/4 429/429/4 430/430/4
f 107/107/4 123/123/4 337/337/4 338/338/4
f 218/218/5 202/202/5 432/432/5 431/431/5
f 124/124/5 108/108/5 340/340/5 339/339/5
f 203/203/4 219/219/4 433/433/4 434/434/4
f 109/109/4 125/125/4 341/341/4 342/342/4
f 220/220/5 204/204/5 436/436/5 435/435/5
f 126/126/5 110/110/5 344/344/5 343/343/5
f 205/205/4 221/221/4 437/437/4 438/438/4
f 111/111/4 127/127/4 345/345/4 346/346/4
f 222/222/5 206/206/5 440/440/5 439/439/5
f 128/128/5 112/112/5 348/348/5 347/347/5
f 207/207/4 223/223/4 441/441/4 442/442/4
f 113/113/4 129/129/4 349/349/4 350/350/4
f 224/224/5 208/208/5 444/444/5 443/443/5
f 130/130/5 114/114/5 352/352/5 351/351/5
f 209/209/4 225/225/4 445/445/4 446/446/4
f 115/115/4 131/131/4 353/353/4 354/354/4
f 226/226/5 210/210/5 448/448/5 447/447/5
f 132/132/5 116/116/5 356/356/5 355/355/5
f 67/67/1 68/68/1 292/292/1 291/291/1
f 211/211/4 227/227/4 449/449/4 450/450/4
f 228/228/5 212/212/5 452/452/5 451/451/5
f 163/163/1 164/164/1 387/387/1 385/385/1
f 65/65/1 66/66/1 288/288/1 287/287/1
f 102/102/3 101/101/3 326/326/3 328/328/3
f 259/259/1 260/260/1 483/483/1 481/481/1
f 161/161/1 162/162/1 383/383/1 381/381/1
f 63/63/1 64/64/1 284/284/1 283/283/1
f 198/198/3 197/197/3 422/422/3 424/424/3
f 104/104/3 103/103/3 330/330/3 332/332/3
f 257/257/1 258/258/1 479/479/1 477/477/1
f 159/159/1 160/160/1 379/379/1 377/377/1
f 61/61/1 62/62/1 280/280/1 279/279/1
f 200/200/3 199/199/3 426/426/3 428/428/3
f 106/106/3 105/105/3 334/334/3 336/336/3
f 255/255/1 256/256/1 475/475/1 473/473/1
f 157/157/1 158/158/1 375/375/1 373/373/1
f 59/59/1 60/60/1 276/276/1 275/275/1
f 10/10/3 7/7/3 262/262/3 261/261/3
f 202/202/3 201/201/3 430/430/3 432/432/3
f 108/108/3 107/107/3 338/338/3 340/340/3
f 253/253/1 254/254/1 471/471/1 469/469/1
f 7/7/4 53/53/4 263/263/4 262/262/4
f 155/155/1 156/156/1 371/371/1 369/369/1
f 57/57/1 58/58/1 272/272/1 271/271/1
f 204/204/3 203/203/3 434/434/3 436/436/3
f 110/110/3 109/109/3 342/342/3 344/344/3
f 251/251/1 252/252/1 467/467/1 465/465/1
f 153/153/1 154/154/1 367/367/1 365/365/1
f 55/55/1 56/56/1 268/268/1 267/267/1
f 206/206/3 205/205/3 438/438/3 440/440/3
f 112/112/3 111/111/3 346/346/3 348/348/3
f 249/249/1 250/250/1 463/463/1 461/461/1
f 151/151/1 152/152/1 363/363/1 361/361/1
f 53/53/1 54/54/1 264/264/1 263/263/1
f 54/54/5 10/10/5 261/261/5 264/264/5
f 208/208/3 207/207/3 442/442/3 444/444/3
f 114/114/3 113/113/3 350/350/3 352/352/3
f 247/247/1 248/248/1 459/459/1 457/457/1
f 149/149/1 150/150/1 359/359/1 357/357/1
f 210/210/3 209/209/3 446/446/3 448/448/3
f 116/116/3 115/115/3 354/354/3 356/356/3
f 245/245/1 246/246/1 455/455/1 453/453/1
f 16/16/3 13/13/3 266/266/3 265/265/3
f 212/212/3 211/211/3 450/450/3 452/452/3
f 69/69/4 85/85/4 293/293/4 294/294/4
f 13/13/4 55/55/4 267/267/4 266/266/4
f 86/86/5 70/70/5 296/296/5 295/295/5
f 165/165/4 181/181/4 389/389/4 390/390/4
f 71/71/4 87/87/4 297/297/4 298/298/4
f 182/182/5 166/166/5 392/392/5 391/391/5
f 88/88/5 72/72/5 300/300/5 299/299/5
f 167/167/4 183/183/4 393/393/4 394/394/4
f 73/73/4 89/89/4 301/301/4 302/302/4
f 184/184/5 168/168/5 396/396/5 395/395/5
f 90/90/5 74/74/5 304/304/5 303/303/5
f 56/56/5 16/16/5 265/265/5 268/268/5
f 169/169/4 185/185/4 397/397/4 398/398/4
f 75/75/4 91/91/4 305/305/4 306/306/4
f 186/186/5 170/170/5 400/400/5 399/399/5
f 92/92/5 76/76/5 308/308/5 307/307/5
f 171/171/4 187/187/4 401/401/4 402/402/4
f 77/77/4 93/93/4 309/309/4 310/310/4
f 188/188/5 172/172/5 404/404/5 403/403/5
f 94/94/5 78/78/5 312/312/5 311/311/5
f 22/22/3 19/19/3 270/270/3 269/269/3
f 173/173/4 189/189/4 405/405/4 406/406/4
f 79/79/4 95/95/4 313/313/4 314/314/4
f 19/19/4 57/57/4 271/271/4 270/270/4
f 190/190/5 174/174/5 408/408/5 407/407/5
f 96/96/5 80/80/5 316/316/5 315/315/5
f 175/175/4 191/191/4 409/409/4 410/410/4
f 81/81/4 97/97/4 317/317/4 318/318/4
f 192/192/5 176/176/5 412/412/5 411/411/5
f 98/98/5 82/82/5 320/320/5 319/319/5
f 177/177/4 193/193/4 413/413/4 414/414/4
f 83/83/4 99/99/4 321/321/4 322/322/4
f 194/194/5 178/178/5 416/416/5 415/415/5
f 100/100/5 84/84/5 324/324/5 323/323/5
f 58/58/5 22/22/5 269/269/5 272/272/5
f 179/179/4 195/195/4 417/417/4 418/418/4
f 196/196/5 180/180/5 420/420/5 419/419/5
f 131/131/1 132/132/1 355/355/1 353/353/1
f 70/70/3 69/69/3 294/294/3 296/296/3
f 227/227/1 228/228/1 451/451/1 449/449/1
f 129/129/1 130/130/1 351/351/1 349/349/1
f 28/28/3 25/25/3 274/274/3 273/273/3
f 166/166/3 165/165/3 390/390/3 392/392/3
f 72/72/3 71/71/3 298/298/3 300/300/3
f 25/25/4 59/59/4 275/275/4 274/274/4
f 225/225/1 226/226/1 447/447/1 445/445/1
f 127/127/1 128/128/1 347/347/1 345/345/1
f 168/168/3 167/167/3 394/394/3 396/396/3
f 74/74/3 73/73/3 302/302/3 304/304/3
f 223/223/1 224/224/1 443/443/1 441/441/1
f 125/125/1 126/126/1 343/343/1 341/341/1
f 170/170/3 169/169/3 398/398/3 400/400/3
f 76/76/3 75/75/3 306/306/3 308/308/3
f 221/221/1 222/222/1 439/439/1 437/437/1
f 123/123/1 124/124/1 339/339/1 337/337/1
f 60/60/5 28/28/5 273/273/5 276/276/5
f 172/172/3 171/171/3 402/402/3 404/404/3
f 78/78/3 77/77/3 310/310/3 312/312/3
f 219/219/1 220/220/1 435/435/1 433/433/1
f 121/121/1 122/122/1 335/335/1 333/333/1
f 174/174/3 173/173/3 406/406/3 408/408/3
f 80/80/3 79/79/3 314/314/3 316/316/3
f 217/217/1 218/218/1 431/431/1 429/429/1
f 119/119/1 120/120/1 331/331/1 329/329/1
f 34/34/3 31/31/3 278/278/3 277/277/3
f 176/176/3 175/175/3 410/410/3 412/412/3
f 82/82/3 81/81/3 318/318/3 320/320/3
f 31/31/4 61/61/4 279/279/4 278/278/4
f 215/215/1 216/216/1 427/427/1 425/425/1
f 117/117/1 118/118/1 327/327/1 325/325/1
f 178/178/3 177/177/3 414/414/3 416/416/3
f 84/84/3 83/83/3 322/322/3 324/324/3
f 213/213/1 214/214/1 423/423/1 421/421/1
f 180/180/3 179/179/3 418/418/3 420/420/3
f 62/62/5 34/34/5 277/277/5 280/280/5
f 133/133/4 149/149/4 357/357/4 358/358/4
f 150/150/5 134/134/5 360/360/5 359/359/5
f 229/229/4 245/245/4 453/453/4 454/454/4
f 135/135/4 151/151/4 361/361/4 362/362/4
f 246/246/5 230/230/5 456/456/5 455/455/5
f 485/485/5 486/486/5 488/488/5 487/487/5
f 487/487/1 488/488/1 492/492/1 491/491/1
f 491/491/4 492/492/4 490/490/4 489/489/4
f 489/489/3 490/490/3 486/486/3 485/485/3
f 493/493/5 494/494/5 496/496/5 495/495/5
f 492/492/2 488/488/2 486/486/2 490/490/2
f 495/495/1 496/496/1 500/500/1 499/499/1
f 499/499/4 500/500/4 498/498/4 497/497/4
f 497/497/3 498/498/3 494/494/3 493/493/3
f 500/500/2 496/496/2 494/494/2 498/498/2
f 501/501/5 502/502/5 504/504/5 503/503/5
f 503/503/1 504/504/1 508/508/1 507/507/1
f 507/507/4 508/508/4 506/506/4 505/505/4
f 505/505/3 506/506/3 502/502/3 501/501/3
f 509/509/5 510/510/5 512/512/5 511/511/5
f 508/508/2 504/504/2 502/502/2 506/506/2
f 511/511/1 512/512/1 516/516/1 515/515/1
f 515/515/4 516/516/4 514/514/4 513/513/4
f 513/513/3 514/514/3 510/510/3 509/509/3
f 516/516/2 512/512/2 510/510/2 514/514/2
f 517/517/5 518/518/5 520/520/5 519/519/5
f 519/519/1 520/520/1 524/524/1 523/523/1
f 523/523/4 524/524/4 522/522/4 521/521/4
f 521/521/3 522/522/3 518/518/3 517/517/3
f 525/525/5 526/526/5 528/528/5 527/527/5
f 524/524/2 520/520/2 518/518/2 522/522/2
f 527/527/1 528/528/1 532/532/1 531/531/1
f 531/531/4 532/532/4 530/530/4 529/529/4
f 529/529/3 530/530/3 526/526/3 525/525/3
f 532/532/2 528/528/2 526/526/2 530/530/2
f 533/533/5 534/534/5 536/536/5 535/535/5
f 535/535/1 536/536/1 540/540/1 539/539/1
f 539/539/4 540/540/4 538/538/4 537/537/4
f 537/537/3 538/538/3 534/534/3 533/533/3
f 540/540/2 536/536/2 534/534/2 538/538/2
f 541/541/5 542/542/5 544/544/5 543/543/5
f 543/543/1 544/544/1 548/548/1 547/547/1
f 547/547/4 548/548/4 546/546/4 545/545/4
f 545/545/3 546/546/3 542/542/3 541/541/3
f 549/549/5 550/550/5 552/552/5 551/551/5
f 548/548/2 544/544/2 542/542/2 546/546/2
f 551/551/1 552/552/1 556/556/1 555/555/1
f 555/555/4 556/556/4 554/554/4 553/553/4
f 553/553/3 554/554/3 550/550/3 549/549/3
f 556/556/2 552/552/2 550/550/2 554/554/2
f 557/557/5 558/558/5 560/560/5 559/559/5
f 559/559/1 560/560/1 564/564/1 563/563/1
f 563/563/4 564/564/4 562/562/4 561/561/4
f 561/561/3 562/562/3 558/558/3 557/557/3
f 565/565/5 566/566/5 568/568/5 567/567/5
f 564/564/2 560/560/2 558/558/2 562/562/2
f 567/567/1 568/568/1 572/572/1 571/571/1
f 571/571/4 572/572/4 570/570/4 569/569/4
f 569/569/3 570/570/3 566/566/3 565/565/3
f 572/572/2 568/568/2 566/566/2 570/570/2
f 573/573/5 574/574/5 576/576/5 575/575/5
f 575/575/1 576/576/1 580/580/1 579/579/1
f 579/579/4 580/580/4 578/578/4 577/577/4
f 577/577/3 578/578/3 574/574/3 573/573/3
f 581/581/5 582/582/5 584/584/5 583/583/5
f 580/580/2 576/576/2 574/574/2 578/578/2
f 583/583/1 584/584/1 588/588/1 587/587/1
f 587/587/4 588/588/4 586/586/4 585/585/4
f 585/585/3 586/586/3 582/582/3 581/581/3
f 588/588/2 584/584/2 582/582/2 586/586/2
f 589/589/5 590/590/5 592/592/5 591/591/5
f 591/591/1 592/592/1 596/596/1 595/595/1
f 595/595/4 596/596/4 594/594/4 593/593/4
f 593/593/3 594/594/3 590/590/3 589/589/3
f 596/596/2 592/592/2 590/590/2 594/594/2
f 597/597/5 598/598/5 600/600/5 599/599/5
f 599/599/1 600/600/1 604/604/1 603/603/1
f 603/603/4 604/604/4 602/602/4 601/601/4
f 601/601/3 602/602/3 598/598/3 597/597/3
f 605/605/5 606/606/5 608/608/5 607/607/5
f 604/604/2 600/600/2 598/598/2 602/602/2
f 607/607/1 608/608/1 612/612/1 611/611/1
f 611/611/4 612/612/4 610/610/4 609/609/4
f 609/609/3 610/610/3 606/606/3 605/605/3
f 612/612/2 608/608/2 606/606/2 610/610/2
f 613/613/5 614/614/5 616/616/5 615/615/5
f 615/615/1 616/616/1 620/620/1 619/619/1
f 619/619/4 620/620/4 618/618/4 617/617/4
f 617/617/3 618/618/3 614/614/3 613/613/3
f 621/621/5 622/622/5 624/624/5 623/623/5
f 620/620/2 616/616/2 614/614/2 618/618/2
f 623/623/1 624/624/1 628/628/1 627/627/1
f 627/627/4 628/628/4 626/626/4 625/625/4
f 625/625/3 626/626/3 622/622/3 621/621/3
f 628/628/2 624/624/2 622/622/2 626/626/2
f 629/629/5 630/630/5 632/632/5 631/631/5
f 631/631/1 632/632/1 636/636/1 635/635/1
f 635/635/4 636/636/4 634/634/4 633/633/4
f 633/633/3 634/634/3 630/630/3 629/629/3
f 637/637/5 638/638/5 640/640/5 639/639/5
f 636/636/2 632/632/2 630/630/2 634/634/2
f 639/639/1 640/640/1 644/644/1 643/643/1
f 643/643/4 644/644/4 642/642/4 641/641/4
f 641/641/3 642/642/3 638/638/3 637/637/3
f 644/644/2 640/640/2 638/638/2 642/642/2
f 645/645/5 646/646/5 648/648/5 647/647/5
f 647/647/1 648/648/1 652/652/1 651/651/1
f 651/651/4 652/652/4 650/650/4 649/649/4
f 649/649/3 650/650/3 646/646/3 645/645/3
f 652/652/2 648/648/2 646/646/2 650/650/2
f 653/653/5 654/654/5 656/656/5 655/655/5
f 655/655/1 656/656/1 660/660/1 659/659/1
f 659/659/4 660/660/4 658/658/4 657/657/4
f 657/657/3 658/658/3 654/654/3 653/653/3
f 661/661/5 662/662/5 664/664/5 663/663/5
f 660/660/2 656/656/2 654/654/2 658/658/2
f 663/663/1 664/664/1 668/668/1 667/667/1
f 667/667/4 668/668/4 666/666/4 665/665/4
f 665/665/3 666/666/3 662/662/3 661/661/3
f 668/668/2 664/664/2 662/662/2 666/666/2
f 669/669/5 670/670/5 672/672/5 671/671/5
f 671/671/1 672/672/1 676/676/1 675/675/1
f 675/675/4 676/676/4 674/674/4 673/673/4
f 673/673/3 674/674/3 670/670/3 669/669/3
f 677/677/5 678/678/5 680/680/5 679/679/5
f 676/676/2 672/672/2 670/670/2 674/674/2
f 679/679/1 680/680/1 684/684/1 683/683/1
f 683/683/4 684/684/4 682/682/4 681/681/4
f 681/681/3 682/682/3 678/678/3 677/677/3
f 684/684/2 680/680/2 678/678/2 682/682/2
f 685/685/5 686/686/5 688/688/5 687/687/5
f 687/687/1 688/688/1 692/692/1 691/691/1
f 691/691/4 692/692/4 690/690/4 689/689/4
f 689/689/3 690/690/3 686/686/3 685/685/3
f 693/693/5 694/694/5 696/696/5 695/695/5
f 692/692/2 688/688/2 686/686/2 690/690/2
f 695/695/1 696/696/1 700/700/1 699/699/1
f 699/699/4 700/700/4 698/698/4 697/697/4
f 697/697/3 698/698/3 694/694/3 693/693/3
f 700/700/2 696/696/2 694/694/2 698/698/2
f 701/701/5 702/702/5 704/704/5 703/703/5
f 703/703/1 704/704/1 708/708/1 707/707/1
f 707/707/4 708/708/4 706/706/4 705/705/4
f 705/705/3 706/706/3 702/702/3 701/701/3
f 708/708/2 704/704/2 702/702/2 706/706/2
f 709/709/5 710/710/5 712/712/5 711/711/5
f 711/711/1 712/712/1 716/716/1 715/715/1
f 715/715/4 716/716/4 714/714/4 713/713/4
f 713/713/3 714/714/3 710/710/3 709/709/3
f 717/717/5 718/718/5 720/720/5 719/719/5
f 716/716/2 712/712/2 710/710/2 714/714/2
f 719/719/1 720/720/1 724/724/1 723/723/1
f 723/723/4 724/724/4 722/722/4 721/721/4
f 721/721/3 722/722/3 718/718/3 717/717/3
f 724/724/2 720/720/2 718/718/2 722/722/2
f 725/725/5 726/726/5 728/728/5 727/727/5
f 727/727/1 728/728/1 732/732/1 731/731/1
f 731/731/4 732/732/4 730/730/4 729/729/4
f 729/729/3 730/730/3 726/726/3 725/725/3
f 733/733/5 734/734/5 736/736/5 735/735/5
f 732/732/2 728/728/2 726/726/2 730/730/2
f 735/735/1 736/736/1 740/740/1 739/739/1
f 739/739/4 740/740/4 738/738/4 737/737/4
f 737/737/3 738/738/3 734/734/3 733/733/3
f 740/740/2 736/736/2 734/734/2 738/738/2
f 741/741/5 742/742/5 744/744/5 743/743/5
f 743/743/1 744/744/1 748/748/1 747/747/1
f 747/747/4 748/748/4 746/746/4 745/745/4
f 745/745/3 746/746/3 742/742/3 741/741/3
f 749/749/5 750/750/5 752/752/5 751/751/5
f 748/748/2 744/744/2 742/742/2 746/746/2
f 751/751/1 752/752/1 756/756/1 755/755/1
f 755/755/4 756/756/4 754/754/4 753/753/4
f 753/753/3 754/754/3 750/750/3 749/749/3
f 756/756/2 752/752/2 750/750/2 754/754/2
f 757/757/5 758/758/5 760/760/5 759/759/5
f 759/759/1 760/760/1 764/764/1 763/763/1
f 763/763/4 764/764/4 762/762/4 761/761/4
f 761/761/3 762/762/3 758/758/3 757/757/3
f 764/764/2 760/760/2 758/758/2 762/762/2
f 765/765/5 766/766/5 768/768/5 767/767/5
f 767/767/1 768/768/1 772/772/1 771/771/1
f 771/771/4 772/772/4 770/770/4 769/769/4
f 769/769/3 770/770/3 766/766/3 765/765/3
f 773/773/5 774/774/5 776/776/5 775/775/5
f 772/772/2 768/768/2 766/766/2 770/770/2
f 775/775/1 776/776/1 780/780/1 779/779/1
f 779/779/4 780/780/4 778/778/4 777/777/4
f 777/777/3 778/778/3 774/774/3 773/773/3
f 780/780/2 776/776/2 774/774/2 778/778/2
f 781/781/5 782/782/5 784/784/5 783/783/5
f 783/783/1 784/784/1 788/788/1 787/787/1
f 787/787/4 788/788/4 786/786/4 785/785/4
f 785/785/3 786/786/3 782/782/3 781/781/3
f 789/789/5 790/790/5 792/792/5 791/791/5
f 788/788/2 784/784/2 782/782/2 786/786/2
f 791/791/1 792/792/1 796/796/1 795/795/1
f 795/795/4 796/796/4 794/794/4 793/793/4
f 793/793/3 794/794/3 790/790/3 789/789/3
f 796/796/2 792/792/2 790/790/2 794/794/2
f 797/797/5 798/798/5 800/800/5 799/799/5
f 799/799/1 800/800/1 804/804/1 803/803/1
f 803/803/4 804/804/4 802/802/4 801/801/4
f 801/801/3 802/802/3 798/798/3 797/797/3
f 805/805/5 806/806/5 808/808/5 807/807/5
f 804/804/2 800/800/2 798/798/2 802/802/2
f 807/807/1 808/808/1 812/812/1 811/811/1
f 811/811/4 812/812/4 810/810/4 809/809/4
f 809/809/3 810/810/3 806/806/3 805/805/3
f 812/812/2 808/808/2 806/806/2 810/810/2
f 813/813/5 814/814/5 816/816/5 815/815/5
f 815/815/1 816/816/1 820/820/1 819/819/1
f 819/819/4 820/820/4 818/818/4 817/817/4
f 817/817/3 818/818/3 814/814/3 813/813/3
f 820/820/2 816/816/2 814/814/2 818/818/2
f 821/821/5 822/822/5 824/824/5 823/823/5
f 823/823/1 824/824/1 828/828/1 827/827/1
f 827/827/4 828/828/4 826/826/4 825/825/4
f 825/825/3 826/826/3 822/822/3 821/821/3
f 829/829/5 830/830/5 832/832/5 831/831/5
f 828/828/2 824/824/2 822/822/2 826/826/2
f 831/831/1 832/832/1 836/836/1 835/835/1
f 835/835/4 836/836/4 834/834/4 833/833/4
f 833/833/3 834/834/3 830/830/3 829/829/3
f 836/836/2 832/832/2 830/830/2 834/834/2
f 837/837/5 838/838/5 840/840/5 839/839/5
f 839/839/1 840/840/1 844/844/1 843/843/1
f 843/843/4 844/844/4 842/842/4 841/841/4
f 841/841/3 842/842/3 838/838/3 837/837/3
f 845/845/5 846/846/5 848/848/5 847/847/5
f 844/844/2 840/840/2 838/838/2 842/842/2
f 847/847/1 848/848/1 852/852/1 851/851/1
f 851/851/4 852/852/4 850/850/4 849/849/4
f 849/849/3 850/850/3 846/846/3 845/845/3
f 852/852/2 848/848/2 846/846/2 850/850/2
f 853/853/5 854/854/5 856/856/5 855/855/5
f 855/855/1 856/856/1 860/860/1 859/859/1
f 859/859/4 860/860/4 858/858/4 857/857/4
f 857/857/3 858/858/3 854/854/3 853/853/3
f 861/861/5 862/862/5 864/864/5 863/863/5
f 860/860/2 856/856/2 854/854/2 858/858/2
f 863/863/1 864/864/1 868/868/1 867/867/1
f 867/867/4 868/868/4 866/866/4 865/865/4
f 865/865/3 866/866/3 862/862/3 861/861/3
f 868/868/2 864/864/2 862/862/2 866/866/2
f 869/869/5 870/870/5 872/872/5 871/871/5
f 871/871/1 872/872/1 876/876/1 875/875/1
f 875/875/4 876/876/4 874/874/4 873/873/4
f 873/873/3 874/874/3 870/870/3 869/869/3
f 876/876/2 872/872/2 870/870/2 874/874/2
usemtl apartments9_GLASS
f 97/97/1 98/98/1 319/319/1 317/317/1
f 263/263/2 264/264/2 261/261/2 262/262/2
f 267/267/2 268/268/2 265/265/2 266/266/2
f 271/271/2 272/272/2 269/269/2 270/270/2
f 275/275/2 276/276/2 273/273/2 274/274/2
f 279/279/2 280/280/2 277/277/2 278/278/2
f 283/283/2 284/284/2 281/281/2 282/282/2
f 287/287/2 288/288/2 285/285/2 286/286/2
f 291/291/2 292/292/2 289/289/2 290/290/2
f 293/293/2 295/295/2 296/296/2 294/294/2
f 297/297/2 299/299/2 300/300/2 298/298/2
f 301/301/2 303/303/2 304/304/2 302/302/2
f 305/305/2 307/307/2 308/308/2 306/306/2
f 309/309/2 311/311/2 312/312/2 310/310/2
f 313/313/2 315/315/2 316/316/2 314/314/2
f 317/317/2 319/319/2 320/320/2 318/318/2
f 321/321/2 323/323/2 324/324/2 322/322/2
f 325/325/2 327/327/2 328/328/2 326/326/2
f 329/329/2 331/331/2 332/332/2 330/330/2
f 333/333/2 335/335/2 336/336/2 334/334/2
f 337/337/2 339/339/2 340/340/2 338/338/2
f 341/341/2 343/343/2 344/344/2 342/342/2
f 345/345/2 347/347/2 348/348/2 346/346/2
f 349/349/2 351/351/2 352/352/2 350/350/2
f 353/353/2 355/355/2 356/356/2 354/354/2
f 357/357/2 359/359/2 360/360/2 358/358/2
f 361/361/2 363/363/2 364/364/2 362/362/2
f 365/365/2 367/367/2 368/368/2 366/366/2
f 369/369/2 371/371/2 372/372/2 370/370/2
f 373/373/2 375/375/2 376/376/2 374/374/2
f 377/377/2 379/379/2 380/380/2 378/378/2
f 381/381/2 383/383/2 384/384/2 382/382/2
f 385/385/2 387/387/2 388/388/2 386/386/2
f 389/389/2 391/391/2 392/392/2 390/390/2
f 393/393/2 395/395/2 396/396/2 394/394/2
f 397/397/2 399/399/2 400/400/2 398/398/2
f 401/401/2 403/403/2 404/404/2 402/402/2
f 405/405/2 407/407/2 408/408/2 406/406/2
f 409/409/2 411/411/2 412/412/2 410/410/2
f 413/413/2 415/415/2 416/416/2 414/414/2
f 417/417/2 419/419/2 420/420/2 418/418/2
f 421/421/2 423/423/2 424/424/2 422/422/2
f 425/425/2 427/427/2 428/428/2 426/426/2
f 429/429/2 431/431/2 432/432/2 430/430/2
f 433/433/2 435/435/2 436/436/2 434/434/2
f 437/437/2 439/439/2 440/440/2 438/438/2
f 441/441/2 443/443/2 444/444/2 442/442/2
f 445/445/2 447/447/2 448/448/2 446/446/2
f 449/449/2 451/451/2 452/452/2 450/450/2
f 453/453/2 455/455/2 456/456/2 454/454/2
f 457/457/2 459/459/2 460/460/2 458/458/2
f 461/461/2 463/463/2 464/464/2 462/462/2
f 465/465/2 467/467/2 468/468/2 466/466/2
f 469/469/2 471/471/2 472/472/2 470/470/2
f 473/473/2 475/475/2 476/476/2 474/474/2
f 477/477/2 479/479/2 480/480/2 478/478/2
f 481/481/2 483/483/2 484/484/2 482/482/2
