# Blender 3.3.1
# www.blender.org
mtllib apartment_block7.mtl
o apartment_block7
v -2.499647 -1.327363 -0.000000
v -2.499647 1.335119 0.000000
v -0.332728 -1.327296 -0.000000
v -0.332728 1.327537 0.000000
v 0.293784 -1.327296 -0.000000
v 0.293784 1.327537 0.000000
v 1.815389 -1.327522 -0.000000
v 1.815389 1.327300 0.000000
v -1.821973 1.326737 0.000000
v -1.821973 -1.327296 -0.000000
v -2.402796 1.326737 0.000000
v -2.402796 -1.327296 -0.000000
v 1.815201 0.968945 0.000000
v 0.293784 0.968945 0.000000
v 0.293784 1.254007 0.000000
v 1.815201 1.254007 0.000000
v 0.601194 0.968945 0.000000
v 0.601194 1.254007 0.000000
v 0.293784 0.595847 0.000000
v -0.332728 0.595846 0.000000
v 1.815201 0.595847 0.000000
v -1.821973 0.595846 0.000000
v -0.332728 0.301306 0.000000
v 0.293784 0.301306 0.000000
v -1.821973 0.301306 0.000000
v 1.815201 0.301306 0.000000
v -0.332728 -0.062804 -0.000000
v 1.815201 -0.062804 -0.000000
v -1.821973 -0.062803 -0.000000
v 0.293784 -0.062804 -0.000000
v -0.332728 -0.355205 -0.000000
v 0.293784 -0.355205 -0.000000
v -1.821973 -0.355205 -0.000000
v 1.815201 -0.355205 -0.000000
v -0.332728 -0.728537 -0.000000
v 1.815201 -0.730951 -0.000000
v -1.821973 -0.728537 -0.000000
v 0.293784 -0.730951 -0.000000
v -0.332728 -1.017796 -0.000000
v 0.293784 -1.017796 -0.000000
v -1.821973 -1.017796 -0.000000
v 1.815201 -1.017796 -0.000000
v 0.601194 0.595847 0.000000
v 0.601194 0.301306 0.000000
v 0.601194 -0.062804 -0.000000
v 0.601194 -0.355205 -0.000000
v 0.601194 -0.730951 -0.000000
v 0.601194 -1.017796 -0.000000
v 0.888997 0.968945 0.000000
v 0.888997 0.595847 0.000000
v 0.888997 1.254007 0.000000
v 0.888997 0.301306 0.000000
v 0.888997 -0.062804 -0.000000
v 0.888997 -0.355205 -0.000000
v 0.888997 -0.730951 -0.000000
v 0.888997 -1.017796 -0.000000
v 1.190794 1.254007 0.000000
v 1.190794 0.968945 0.000000
v 1.190794 0.595847 0.000000
v 1.190794 0.301306 0.000000
v 1.190794 -0.062804 -0.000000
v 1.190794 -0.355205 -0.000000
v 1.190794 -0.730951 -0.000000
v 1.190794 -1.017796 -0.000000
v 1.487387 1.254007 0.000000
v 1.487387 0.968945 0.000000
v 1.487387 0.595847 0.000000
v 1.487387 0.301306 0.000000
v 1.487387 -0.062804 -0.000000
v 1.487387 -0.355205 -0.000000
v 1.487387 -0.730951 -0.000000
v 1.487387 -1.017796 -0.000000
v -0.624329 0.595846 0.000000
v -0.624329 0.301306 0.000000
v -0.624329 -0.062804 -0.000000
v -0.624329 -0.355205 -0.000000
v -0.624329 -0.728537 -0.000000
v -0.624329 -1.017796 -0.000000
v -0.905514 0.595846 0.000000
v -0.905514 0.301306 0.000000
v -0.905514 -0.062804 -0.000000
v -0.905514 -0.355205 -0.000000
v -0.905514 -0.728537 -0.000000
v -0.905514 -1.017796 -0.000000
v -1.233565 0.595846 0.000000
v -1.233565 0.301306 0.000000
v -1.233565 -0.062804 -0.000000
v -1.233565 -0.355205 -0.000000
v -1.233565 -0.728537 -0.000000
v -1.233565 -1.017796 -0.000000
v -1.506754 0.595846 0.000000
v -1.506754 0.301306 0.000000
v -1.506754 -0.062804 -0.000000
v -1.506754 -0.355205 -0.000000
v -1.506754 -0.728537 -0.000000
v -1.506754 -1.017796 -0.000000
v -0.905514 0.985112 0.000000
v -1.506754 0.985112 0.000000
v -0.624329 0.985112 0.000000
v -0.332728 0.985112 0.000000
v -1.233565 0.985112 0.000000
v -1.821973 0.985112 0.000000
v -0.905514 1.259429 0.000000
v -1.506754 1.259429 0.000000
v -0.332728 1.259429 0.000000
v -1.233565 1.259429 0.000000
v -1.821973 1.259429 0.000000
v -0.624329 1.259429 0.000000
v 0.293784 1.327537 -0.499748
v -0.332728 1.327537 -0.499748
v 0.297144 0.699314 -0.016888
v -0.332728 -1.327296 -0.499748
v 0.293784 -1.327296 -0.499748
v -0.336940 1.287030 -0.633707
v -0.336940 1.287030 -0.004520
v -0.336940 1.325901 -0.004520
v 0.297144 0.699314 -0.646075
v 0.297144 0.628255 -0.016888
v 0.297144 0.628255 -0.646075
v 0.296893 1.287030 -0.633707
v -0.337191 0.699314 -0.016888
v 0.296893 1.287030 -0.004520
v -0.337191 0.699314 -0.646075
v -0.337191 0.628255 -0.016888
v 0.296893 1.325901 -0.004520
v -0.337191 0.628255 -0.646075
v 0.297144 0.978547 -0.003969
v -0.337191 0.978547 -0.003969
v 0.297144 0.962453 -0.003969
v -0.337191 0.962453 -0.003969
v 0.297144 0.978547 -0.016888
v -0.337191 0.978547 -0.016888
v -0.337191 0.962453 -0.016888
v 0.297144 0.962453 -0.016888
v 0.297144 0.033036 -0.016888
v 0.297144 0.033036 -0.646075
v 0.297144 -0.038023 -0.016888
v 0.297144 -0.038023 -0.646075
v -0.337191 0.033036 -0.016888
v -0.337191 0.033036 -0.646075
v -0.337191 -0.038023 -0.016888
v -0.337191 -0.038023 -0.646075
v 0.297144 0.312269 -0.003969
v -0.337191 0.312269 -0.003969
v 0.297144 0.296175 -0.003969
v -0.337191 0.296175 -0.003969
v 0.297144 0.312269 -0.016888
v -0.337191 0.312269 -0.016888
v -0.337191 0.296175 -0.016888
v 0.297144 0.296175 -0.016888
v 0.297144 -0.627717 -0.016888
v 0.297144 -0.627717 -0.646075
v 0.297144 -0.698776 -0.016888
v 0.297144 -0.698776 -0.646075
v -0.337191 -0.627717 -0.016888
v -0.337191 -0.627717 -0.646075
v -0.337191 -0.698776 -0.016888
v -0.337191 -0.698776 -0.646075
v 0.297144 -0.348484 -0.003969
v -0.337191 -0.348484 -0.003969
v 0.297144 -0.364578 -0.003969
v -0.337191 -0.364578 -0.003969
v 0.297144 -0.348484 -0.016888
v -0.337191 -0.348484 -0.016888
v -0.337191 -0.364578 -0.016888
v 0.297144 -0.364578 -0.016888
v 0.297144 -1.291001 -0.016888
v 0.297144 -1.291001 -0.646075
v 0.297144 -1.327983 -0.016888
v -0.337191 -1.291001 -0.016888
v -0.337191 -1.291001 -0.646075
v -0.337191 -1.327983 -0.016888
v 0.297144 -1.011768 -0.003969
v -0.337191 -1.011768 -0.003969
v 0.297144 -1.027862 -0.003969
v -0.337191 -1.027862 -0.003969
v 0.297144 -1.011768 -0.016888
v -0.337191 -1.011768 -0.016888
v -0.337191 -1.027862 -0.016888
v 0.297144 -1.027862 -0.016888
v 0.000000 1.304133 -0.196208
v 0.000000 -1.304133 -0.196208
v 0.021819 1.304133 -0.199663
v 0.021819 -1.304133 -0.199663
v 0.041502 1.304133 -0.209692
v 0.041502 -1.304133 -0.209693
v 0.057123 1.304133 -0.225313
v 0.057123 -1.304133 -0.225313
v 0.067152 1.304133 -0.244996
v 0.067152 -1.304133 -0.244997
v 0.070608 1.304133 -0.266815
v 0.070608 -1.304133 -0.266816
v 0.067152 1.304133 -0.288635
v 0.067152 -1.304133 -0.288635
v 0.057123 1.304133 -0.308318
v 0.057123 -1.304133 -0.308318
v 0.041502 1.304133 -0.323939
v 0.041502 -1.304133 -0.323939
v 0.021819 1.304133 -0.333968
v 0.021819 -1.304133 -0.333968
v 0.000000 1.304133 -0.337423
v 0.000000 -1.304133 -0.337424
v -0.021819 1.304133 -0.333968
v -0.021819 -1.304133 -0.333968
v -0.041502 1.304133 -0.323939
v -0.041502 -1.304133 -0.323939
v -0.057123 1.304133 -0.308318
v -0.057123 -1.304133 -0.308318
v -0.067152 1.304133 -0.288635
v -0.067152 -1.304133 -0.288635
v -0.070608 1.304133 -0.266815
v -0.070608 -1.304133 -0.266816
v -0.067152 1.304133 -0.244996
v -0.067152 -1.304133 -0.244997
v -0.057123 1.304133 -0.225313
v -0.057123 -1.304133 -0.225313
v -0.041502 1.304133 -0.209692
v -0.041502 -1.304133 -0.209693
v -0.021819 1.304133 -0.199663
v -0.021819 -1.304133 -0.199663
v -1.821973 1.266997 0.000000
v -2.402796 1.266997 0.000000
v -1.821973 1.105251 0.000000
v -2.402796 1.105251 0.000000
v -2.402796 1.069232 0.000000
v -1.821973 1.069232 0.000000
v -1.821973 0.905072 0.000000
v -2.402796 0.905072 0.000000
v -1.821973 0.703493 0.000000
v -2.402796 0.703493 0.000000
v -2.232343 1.266997 0.000000
v -2.232343 1.105251 0.000000
v -2.200155 1.105251 0.000000
v -2.200155 1.266997 0.000000
v -2.032173 1.266997 0.000000
v -2.032173 1.105251 0.000000
v -1.993949 1.266997 0.000000
v -1.993949 1.105251 0.000000
v -1.998839 1.069232 0.000000
v -1.998839 0.905072 0.000000
v -2.032508 1.069232 0.000000
v -2.032508 0.905072 0.000000
v -2.200156 1.069232 0.000000
v -2.200156 0.905072 0.000000
v -2.232846 1.069232 0.000000
v -2.232846 0.905072 0.000000
v -1.821973 0.870369 0.000000
v -2.402796 0.870369 0.000000
v -2.229972 0.703493 0.000000
v -2.229972 0.870369 0.000000
v -2.199237 0.703493 0.000000
v -2.199237 0.870369 0.000000
v -2.032987 0.703493 0.000000
v -2.032987 0.870369 0.000000
v -2.000854 0.703493 0.000000
v -2.000854 0.870369 0.000000
v -1.821973 0.600108 0.000000
v -2.402796 0.600109 0.000000
v -2.402796 0.434138 0.000000
v -1.821973 0.434138 0.000000
v -1.821973 0.401949 0.000000
v -2.402796 0.401949 0.000000
v -2.402796 0.236901 0.000000
v -1.821973 0.236901 0.000000
v -2.402796 0.202952 0.000000
v -1.821973 0.202952 0.000000
v -1.821973 0.037819 0.000000
v -2.402796 0.037820 0.000000
v -2.229254 0.600109 0.000000
v -2.229254 0.434138 0.000000
v -2.200755 0.600109 0.000000
v -2.200755 0.434138 0.000000
v -2.031431 0.600109 0.000000
v -2.031431 0.434138 0.000000
v -1.999578 0.600109 0.000000
v -1.999578 0.434138 0.000000
v -2.229423 0.401949 0.000000
v -2.229423 0.236901 0.000000
v -2.203437 0.401949 0.000000
v -2.203437 0.236901 0.000000
v -2.030761 0.401949 0.000000
v -2.030761 0.236901 0.000000
v -1.996393 0.401949 0.000000
v -1.996393 0.236901 0.000000
v -2.227111 0.202952 0.000000
v -2.227111 0.037819 0.000000
v -2.194922 0.202952 0.000000
v -2.194922 0.037819 0.000000
v -2.030963 0.202952 0.000000
v -2.030963 0.037819 0.000000
v -1.996763 0.202952 0.000000
v -1.996763 0.037819 0.000000
v -2.402796 -0.058261 -0.000000
v -1.821973 -0.058261 -0.000000
v -1.821973 -0.234975 -0.000000
v -2.402796 -0.234975 -0.000000
v -1.821973 -0.430518 -0.000000
v -2.402796 -0.430519 -0.000000
v -1.821973 -0.262496 -0.000000
v -2.402796 -0.262496 -0.000000
v -1.821973 -0.459488 -0.000000
v -2.402796 -0.459488 -0.000000
v -2.402796 -0.625483 -0.000000
v -1.821973 -0.625483 -0.000000
v -2.230579 -0.058261 -0.000000
v -2.230579 -0.234975 -0.000000
v -2.201609 -0.058261 -0.000000
v -2.201609 -0.234975 -0.000000
v -2.036242 -0.058261 -0.000000
v -2.036242 -0.234975 -0.000000
v -2.001238 -0.058261 -0.000000
v -2.001238 -0.234975 -0.000000
v -2.230579 -0.430519 -0.000000
v -2.230579 -0.262496 -0.000000
v -2.201609 -0.430519 -0.000000
v -2.201609 -0.262496 -0.000000
v -2.028195 -0.430519 -0.000000
v -2.028195 -0.262496 -0.000000
v -2.002210 -0.430519 -0.000000
v -2.002210 -0.262496 -0.000000
v -2.226019 -0.459488 -0.000000
v -2.226019 -0.625483 -0.000000
v -2.200873 -0.459488 -0.000000
v -2.200873 -0.625483 -0.000000
v -2.029872 -0.459488 -0.000000
v -2.029872 -0.625483 -0.000000
v -2.002210 -0.459488 -0.000000
v -2.002210 -0.625483 -0.000000
v -2.402796 -0.726742 -0.000000
v -1.821973 -0.726742 -0.000000
v -1.821973 -0.889103 -0.000000
v -2.402796 -0.889103 -0.000000
v -2.402796 -0.923090 -0.000000
v -1.821973 -0.923090 -0.000000
v -1.821973 -1.086044 -0.000000
v -2.402796 -1.086044 -0.000000
v -1.821973 -1.119841 -0.000000
v -2.402796 -1.119841 -0.000000
v -1.821973 -1.284002 -0.000000
v -2.402796 -1.284002 -0.000000
v -2.234712 -0.726742 -0.000000
v -2.234712 -0.889103 -0.000000
v -2.203328 -0.726742 -0.000000
v -2.203328 -0.889103 -0.000000
v -2.029511 -0.726742 -0.000000
v -2.029511 -0.889103 -0.000000
v -2.001749 -0.726742 -0.000000
v -2.001749 -0.889103 -0.000000
v -2.235919 -0.923090 -0.000000
v -2.235919 -1.086044 -0.000000
v -2.200914 -0.923090 -0.000000
v -2.200914 -1.086044 -0.000000
v -2.030719 -0.923090 -0.000000
v -2.030719 -1.086044 -0.000000
v -1.998128 -0.923090 -0.000000
v -1.998128 -1.086044 -0.000000
v -2.236885 -1.119841 -0.000000
v -2.236885 -1.284002 -0.000000
v -2.202121 -1.119841 -0.000000
v -2.202121 -1.284002 -0.000000
v -2.031322 -1.119841 -0.000000
v -2.031322 -1.284002 -0.000000
v -1.999133 -1.119841 -0.000000
v -1.999133 -1.284002 -0.000000
v 2.500004 -1.328183 -0.000000
v 2.500004 1.327824 0.000000
v 2.396400 1.327862 0.000000
v 2.396400 -1.327749 -0.000000
v 1.815578 0.584721 0.000000
v 1.815578 0.290181 0.000000
v 1.815578 -0.073929 -0.000000
v 1.815578 -0.366330 -0.000000
v 1.815578 -0.739662 -0.000000
v 1.815578 -1.028921 -0.000000
v 1.815578 0.973986 0.000000
v 1.815578 1.248303 0.000000
v 1.815578 1.255872 0.000000
v 2.396400 1.255872 0.000000
v 1.815578 1.094126 0.000000
v 2.396400 1.094126 0.000000
v 2.396400 1.058107 0.000000
v 1.815578 1.058107 0.000000
v 1.815578 0.893947 0.000000
v 2.396400 0.893947 0.000000
v 1.815578 0.692368 0.000000
v 2.396400 0.692368 0.000000
v 2.225948 1.255872 0.000000
v 2.225948 1.094126 0.000000
v 2.193760 1.094126 0.000000
v 2.193760 1.255872 0.000000
v 2.025778 1.255872 0.000000
v 2.025778 1.094126 0.000000
v 1.987554 1.255872 0.000000
v 1.987554 1.094126 0.000000
v 1.992444 1.058107 0.000000
v 1.992444 0.893947 0.000000
v 2.026113 1.058107 0.000000
v 2.026113 0.893947 0.000000
v 2.193761 1.058107 0.000000
v 2.193761 0.893947 0.000000
v 2.226451 1.058107 0.000000
v 2.226451 0.893947 0.000000
v 1.815578 0.859244 0.000000
v 2.396400 0.859244 0.000000
v 2.223577 0.692368 0.000000
v 2.223577 0.859244 0.000000
v 2.192842 0.692368 0.000000
v 2.192842 0.859244 0.000000
v 2.026592 0.692368 0.000000
v 2.026592 0.859244 0.000000
v 1.994459 0.692368 0.000000
v 1.994459 0.859244 0.000000
v 1.815578 0.588983 0.000000
v 2.396400 0.588983 0.000000
v 2.396400 0.423012 0.000000
v 1.815578 0.423012 0.000000
v 1.815578 0.390824 0.000000
v 2.396400 0.390824 0.000000
v 2.396400 0.225775 0.000000
v 1.815578 0.225775 0.000000
v 2.396400 0.191826 0.000000
v 1.815578 0.191827 0.000000
v 1.815578 0.026694 0.000000
v 2.396400 0.026694 0.000000
v 2.222859 0.588983 0.000000
v 2.222859 0.423012 0.000000
v 2.194360 0.588983 0.000000
v 2.194360 0.423012 0.000000
v 2.025036 0.588983 0.000000
v 2.025036 0.423012 0.000000
v 1.993183 0.588983 0.000000
v 1.993183 0.423012 0.000000
v 2.223027 0.390824 0.000000
v 2.223027 0.225775 0.000000
v 2.197042 0.390824 0.000000
v 2.197042 0.225775 0.000000
v 2.024365 0.390824 0.000000
v 2.024366 0.225775 0.000000
v 1.989998 0.390824 0.000000
v 1.989998 0.225775 0.000000
v 2.220716 0.191826 0.000000
v 2.220716 0.026694 0.000000
v 2.188527 0.191827 0.000000
v 2.188527 0.026694 0.000000
v 2.024568 0.191827 0.000000
v 2.024568 0.026694 0.000000
v 1.990368 0.191827 0.000000
v 1.990368 0.026694 0.000000
v 2.396400 -0.069386 -0.000000
v 1.815578 -0.069386 -0.000000
v 1.815578 -0.246100 -0.000000
v 2.396400 -0.246100 -0.000000
v 1.815578 -0.441644 -0.000000
v 2.396400 -0.441644 -0.000000
v 1.815578 -0.273621 -0.000000
v 2.396400 -0.273621 -0.000000
v 1.815578 -0.470613 -0.000000
v 2.396400 -0.470613 -0.000000
v 2.396400 -0.636608 -0.000000
v 1.815578 -0.636608 -0.000000
v 2.224184 -0.069386 -0.000000
v 2.224184 -0.246100 -0.000000
v 2.195214 -0.069386 -0.000000
v 2.195214 -0.246100 -0.000000
v 2.029847 -0.069386 -0.000000
v 2.029847 -0.246100 -0.000000
v 1.994843 -0.069386 -0.000000
v 1.994843 -0.246100 -0.000000
v 2.224184 -0.441644 -0.000000
v 2.224184 -0.273621 -0.000000
v 2.195214 -0.441644 -0.000000
v 2.195214 -0.273621 -0.000000
v 2.021800 -0.441644 -0.000000
v 2.021800 -0.273621 -0.000000
v 1.995815 -0.441644 -0.000000
v 1.995815 -0.273621 -0.000000
v 2.219624 -0.470613 -0.000000
v 2.219624 -0.636608 -0.000000
v 2.194478 -0.470613 -0.000000
v 2.194478 -0.636608 -0.000000
v 2.023477 -0.470613 -0.000000
v 2.023477 -0.636608 -0.000000
v 1.995815 -0.470613 -0.000000
v 1.995815 -0.636608 -0.000000
v 2.396400 -0.737867 -0.000000
v 1.815578 -0.737867 -0.000000
v 1.815578 -0.900228 -0.000000
v 2.396400 -0.900228 -0.000000
v 2.396400 -0.934216 -0.000000
v 1.815578 -0.934216 -0.000000
v 1.815578 -1.097169 -0.000000
v 2.396400 -1.097169 -0.000000
v 1.815578 -1.130967 -0.000000
v 2.396400 -1.130967 -0.000000
v 1.815578 -1.295127 -0.000000
v 2.396400 -1.295127 -0.000000
v 2.228317 -0.737867 -0.000000
v 2.228317 -0.900228 -0.000000
v 2.196933 -0.737867 -0.000000
v 2.196933 -0.900228 -0.000000
v 2.023116 -0.737867 -0.000000
v 2.023116 -0.900228 -0.000000
v 1.995354 -0.737867 -0.000000
v 1.995354 -0.900228 -0.000000
v 2.229523 -0.934216 -0.000000
v 2.229523 -1.097169 -0.000000
v 2.194519 -0.934216 -0.000000
v 2.194519 -1.097169 -0.000000
v 2.024323 -0.934216 -0.000000
v 2.024324 -1.097169 -0.000000
v 1.991733 -0.934216 -0.000000
v 1.991733 -1.097169 -0.000000
v 2.230489 -1.130967 -0.000000
v 2.230489 -1.295127 -0.000000
v 2.195726 -1.130967 -0.000000
v 2.195726 -1.295127 -0.000000
v 2.024927 -1.130967 -0.000000
v 2.024927 -1.295127 -0.000000
v 1.992738 -1.130967 -0.000000
v 1.992738 -1.295127 -0.000000
v 0.293784 0.701812 -0.499748
v -0.332728 0.701818 -0.499748
v -0.332728 0.036272 -0.499748
v 0.293784 0.036273 -0.499748
v 0.293784 -0.618601 -0.499748
v -0.332728 -0.618599 -0.499748
v -0.332728 -1.281871 -0.499748
v 0.293784 -1.281872 -0.499748
v -0.332728 -0.703258 -0.499748
v 0.293784 -0.703260 -0.499748
v 0.293784 -0.043809 -0.499748
v -0.332728 -0.043815 -0.499748
v -0.332728 0.623180 -0.499748
v 0.293784 0.623179 -0.499748
v 0.293784 1.278494 -0.499748
v -0.332728 1.278493 -0.499748
v 0.293784 1.307121 -0.499748
v -0.332728 1.307120 -0.499748
vn -0.0000 -0.0000 1.0000
vn -0.7071 -0.0000 0.7071
vn 0.7071 -0.0000 0.7071
vn -0.0000 -1.0000 -0.0000
vn -0.0000 -0.7071 0.7071
vn 0.5774 0.5774 0.5774
vn 0.8944 -0.0000 0.4472
vn 0.8944 -0.0000 0.4473
vn 0.7071 -0.7071 -0.0000
vn 0.5774 -0.5774 0.5772
vn -0.5774 -0.5774 0.5773
vn -0.5773 0.5773 0.5774
vn -0.7071 0.7071 -0.0000
vn -0.5774 -0.5774 0.5774
vn -0.5774 0.5774 0.5774
vn -0.0000 1.0000 -0.0000
vn -0.0000 0.4472 0.8944
vn -0.7071 -0.7071 -0.0000
vn -0.8944 -0.0000 0.4472
vn 0.5774 -0.5774 0.5774
vn 0.7071 0.7071 -0.0000
vn 0.3090 -0.0000 0.9511
vn 0.5878 -0.0000 0.8090
vn 0.8090 -0.0000 0.5878
vn 0.9511 -0.0000 0.3090
vn 1.0000 -0.0000 -0.0000
vn 0.9511 -0.0000 -0.3090
vn 0.8090 -0.0000 -0.5878
vn 0.5878 -0.0000 -0.8090
vn 0.3090 -0.0000 -0.9511
vn -0.0000 -0.0000 -1.0000
vn -0.3090 -0.0000 -0.9511
vn -0.5878 -0.0000 -0.8090
vn -0.8090 -0.0000 -0.5878
vn -0.9511 -0.0000 -0.3090
vn -1.0000 -0.0000 -0.0000
vn -0.9511 -0.0000 0.3090
vn -0.8090 -0.0000 0.5878
vn -0.5878 -0.0000 0.8090
vn -0.3090 -0.0000 0.9511
vt 0.000000 0.000308
vt 0.000000 1.000000
vt 0.400774 -0.018041
vt 0.433414 0.000333
vt 0.408872 1.013894
vt 0.433414 0.997153
vt 0.581796 -0.010906
vt 0.558725 0.000333
vt 0.560109 0.997153
vt 0.558725 0.997153
vt 0.583953 0.995297
vt 0.863068 0.000248
vt 0.863068 0.997064
vt 0.135544 0.996853
vt 0.135544 0.000333
vt 0.019372 0.996853
vt 0.019372 0.000333
vt 0.863030 0.862511
vt 0.560109 0.862511
vt 0.583662 0.859387
vt 0.560109 0.969544
vt 0.583894 0.967428
vt 0.863030 0.969545
vt 0.620212 0.862511
vt 0.620212 0.969544
vt 0.558725 0.722423
vt 0.583359 0.717980
vt 0.433414 0.722422
vt 0.406775 0.746605
vt 0.863030 0.722423
vt 0.135544 0.722422
vt 0.405903 0.635520
vt 0.433414 0.611830
vt 0.558725 0.611830
vt 0.583119 0.606347
vt 0.135544 0.611830
vt 0.863030 0.611830
vt 0.404803 0.495307
vt 0.433414 0.475117
vt 0.863030 0.475117
vt 0.135544 0.475117
vt 0.558725 0.475117
vt 0.582824 0.468346
vt 0.403900 0.380323
vt 0.433414 0.365328
vt 0.558725 0.365328
vt 0.582586 0.357524
vt 0.135544 0.365328
vt 0.863030 0.365328
vt 0.402723 0.230322
vt 0.433414 0.225151
vt 0.863030 0.224245
vt 0.135544 0.225151
vt 0.558725 0.224245
vt 0.582281 0.215113
vt 0.401791 0.111563
vt 0.433414 0.116542
vt 0.558725 0.116542
vt 0.582047 0.106397
vt 0.135544 0.116542
vt 0.863030 0.116542
vt 0.620212 0.722423
vt 0.620212 0.611830
vt 0.620212 0.475117
vt 0.620212 0.365328
vt 0.620212 0.224245
vt 0.620212 0.116542
vt 0.677776 0.862511
vt 0.677776 0.722423
vt 0.677776 0.969544
vt 0.677776 0.611830
vt 0.677776 0.475117
vt 0.677776 0.365328
vt 0.677776 0.224245
vt 0.677776 0.116542
vt 0.738140 0.969545
vt 0.738140 0.862511
vt 0.738140 0.722423
vt 0.738140 0.611830
vt 0.738140 0.475117
vt 0.738140 0.365328
vt 0.738140 0.224245
vt 0.738140 0.116542
vt 0.797463 0.969545
vt 0.797463 0.862511
vt 0.797463 0.722423
vt 0.797463 0.611830
vt 0.797463 0.475117
vt 0.797463 0.365328
vt 0.797463 0.224245
vt 0.797463 0.116542
vt 0.375090 0.722422
vt 0.375090 0.611830
vt 0.375090 0.475117
vt 0.375090 0.365328
vt 0.375090 0.225151
vt 0.375090 0.116542
vt 0.318849 0.722422
vt 0.318849 0.611830
vt 0.318849 0.475117
vt 0.318849 0.365328
vt 0.318849 0.225151
vt 0.318849 0.116542
vt 0.253234 0.722422
vt 0.253234 0.611830
vt 0.253234 0.475117
vt 0.253234 0.365328
vt 0.253234 0.225151
vt 0.253234 0.116542
vt 0.198592 0.722422
vt 0.198592 0.611830
vt 0.198592 0.475117
vt 0.198592 0.365328
vt 0.198592 0.225151
vt 0.198592 0.116542
vt 0.318849 0.868581
vt 0.198592 0.868581
vt 0.375090 0.868581
vt 0.407903 0.890311
vt 0.433414 0.868581
vt 0.253234 0.868581
vt 0.135544 0.868581
vt 0.318849 0.971580
vt 0.198592 0.971580
vt 0.408681 0.989520
vt 0.433414 0.971580
vt 0.253234 0.971580
vt 0.135544 0.971580
vt 0.375090 0.971580
vt 0.558725 0.997153
vt 0.567850 0.996527
vt 0.430489 1.010685
vt 0.433414 0.997153
vt 0.559397 0.761272
vt 0.425325 -0.016184
vt 0.433414 0.000333
vt 0.565972 -0.012060
vt 0.558725 0.000333
vt 0.557797 0.128486
vt 0.557797 0.233866
vt 0.432572 0.989239
vt 0.432572 0.999457
vt 0.559397 0.761272
vt 0.432521 0.122915
vt 0.559397 0.734591
vt 0.432521 0.232753
vt 0.436059 0.128486
vt 0.432521 0.761272
vt 0.436059 0.233866
vt 0.559347 0.989239
vt 0.432521 0.761272
vt 0.559397 0.122915
vt 0.432521 0.734591
vt 0.559347 0.999457
vt 0.559397 0.232753
vt 0.559397 0.866963
vt 0.559397 0.866116
vt 0.432521 0.866963
vt 0.432521 0.866116
vt 0.559397 0.863822
vt 0.559397 0.860073
vt 0.432521 0.860073
vt 0.432521 0.863822
vt 0.559397 0.866116
vt 0.432521 0.866116
vt 0.432521 0.863822
vt 0.432521 0.860073
vt 0.559397 0.863822
vt 0.559397 0.860073
vt 0.559397 0.511102
vt 0.559397 0.763859
vt 0.559397 0.511102
vt 0.436009 0.236668
vt 0.559397 0.484421
vt 0.436009 0.122289
vt 0.432521 0.511102
vt 0.432521 0.763859
vt 0.432521 0.511102
vt 0.559397 0.236668
vt 0.432521 0.484421
vt 0.559397 0.122289
vt 0.559397 0.868704
vt 0.559397 0.615946
vt 0.432521 0.868704
vt 0.432521 0.615946
vt 0.559397 0.862661
vt 0.559397 0.609904
vt 0.432521 0.862661
vt 0.432521 0.609904
vt 0.559397 0.615946
vt 0.432521 0.615946
vt 0.432521 0.609904
vt 0.432521 0.862661
vt 0.559397 0.609904
vt 0.559397 0.862661
vt 0.559397 0.263007
vt 0.559397 0.763811
vt 0.559397 0.263007
vt 0.432521 0.236326
vt 0.559397 0.236326
vt 0.432521 0.123253
vt 0.432521 0.263007
vt 0.432521 0.763811
vt 0.432521 0.263007
vt 0.559397 0.236326
vt 0.432521 0.236326
vt 0.559397 0.123253
vt 0.559397 0.868656
vt 0.559397 0.367851
vt 0.432521 0.868656
vt 0.432521 0.367851
vt 0.559397 0.862613
vt 0.559397 0.361808
vt 0.432521 0.862613
vt 0.432521 0.361808
vt 0.559397 0.367851
vt 0.432521 0.367851
vt 0.432521 0.361808
vt 0.432521 0.862613
vt 0.559397 0.361808
vt 0.559397 0.862613
vt 0.559397 0.013961
vt 0.559397 0.764518
vt 0.559397 0.013961
vt 0.559397 0.000075
vt 0.432521 0.013961
vt 0.432521 0.764518
vt 0.432521 0.013961
vt 0.432521 0.000075
vt 0.559397 0.869363
vt 0.559397 0.118806
vt 0.432521 0.869363
vt 0.432521 0.118806
vt 0.559397 0.863320
vt 0.559397 0.112763
vt 0.432521 0.863320
vt 0.432521 0.112763
vt 0.559397 0.118806
vt 0.432521 0.118806
vt 0.432521 0.112763
vt 0.432521 0.863320
vt 0.559397 0.112763
vt 0.559397 0.863320
vt 0.499964 0.444441
vt 0.499964 0.270399
vt 0.504328 0.444441
vt 0.504328 0.270399
vt 0.508265 0.444441
vt 0.508265 0.270399
vt 0.511390 0.444441
vt 0.511390 0.270399
vt 0.513396 0.444441
vt 0.513396 0.270399
vt 0.514087 0.444441
vt 0.514087 0.270399
vt 0.513396 0.444441
vt 0.513396 0.270399
vt 0.511390 0.444441
vt 0.511390 0.270399
vt 0.508265 0.444441
vt 0.508265 0.270399
vt 0.504328 0.444441
vt 0.504328 0.270399
vt 0.499964 0.444441
vt 0.499964 0.270399
vt 0.495600 0.444441
vt 0.495600 0.270399
vt 0.491663 0.444441
vt 0.491663 0.270399
vt 0.488539 0.444441
vt 0.488539 0.270399
vt 0.486533 0.444441
vt 0.486533 0.270399
vt 0.485842 0.444441
vt 0.485842 0.270399
vt 0.486533 0.444441
vt 0.486533 0.270399
vt 0.488539 0.444441
vt 0.488539 0.270399
vt 0.491663 0.444441
vt 0.491663 0.270399
vt 0.495600 0.444441
vt 0.495600 0.270399
vt 0.135544 0.974422
vt 0.019372 0.974422
vt 0.135544 0.913691
vt 0.019372 0.913691
vt 0.019372 0.900167
vt 0.135544 0.900167
vt 0.135544 0.838529
vt 0.019372 0.838529
vt 0.135544 0.762841
vt 0.019372 0.762841
vt 0.053464 0.974422
vt 0.053464 0.913691
vt 0.059902 0.913691
vt 0.059902 0.974422
vt 0.093501 0.974422
vt 0.093501 0.913691
vt 0.101147 0.974422
vt 0.101147 0.913691
vt 0.100169 0.900167
vt 0.100169 0.838529
vt 0.093434 0.900167
vt 0.093434 0.838529
vt 0.059902 0.900167
vt 0.059902 0.838529
vt 0.053364 0.900167
vt 0.053364 0.838529
vt 0.135544 0.825499
vt 0.019372 0.825499
vt 0.053939 0.762841
vt 0.053939 0.825499
vt 0.060086 0.762841
vt 0.060086 0.825499
vt 0.093339 0.762841
vt 0.093339 0.825499
vt 0.099766 0.762841
vt 0.099766 0.825499
vt 0.135544 0.724023
vt 0.019372 0.724023
vt 0.019372 0.661705
vt 0.135544 0.661705
vt 0.135544 0.649619
vt 0.019372 0.649619
vt 0.019372 0.587648
vt 0.135544 0.587648
vt 0.019372 0.574901
vt 0.135544 0.574901
vt 0.135544 0.512898
vt 0.019372 0.512898
vt 0.054082 0.724023
vt 0.054082 0.661705
vt 0.059783 0.724023
vt 0.059783 0.661705
vt 0.093650 0.724023
vt 0.093650 0.661705
vt 0.100021 0.724023
vt 0.100021 0.661705
vt 0.054049 0.649619
vt 0.054049 0.587648
vt 0.059246 0.649619
vt 0.059246 0.587648
vt 0.093784 0.649619
vt 0.093784 0.587648
vt 0.100658 0.649619
vt 0.100658 0.587648
vt 0.054511 0.574901
vt 0.054511 0.512898
vt 0.060949 0.574901
vt 0.060949 0.512898
vt 0.093743 0.574901
vt 0.093743 0.512898
vt 0.100584 0.574901
vt 0.100584 0.512898
vt 0.019372 0.476823
vt 0.135544 0.476823
vt 0.135544 0.410471
vt 0.019372 0.410471
vt 0.135544 0.337049
vt 0.019372 0.337049
vt 0.135544 0.400138
vt 0.019372 0.400138
vt 0.135544 0.326172
vt 0.019372 0.326172
vt 0.019372 0.263845
vt 0.135544 0.263845
vt 0.053817 0.476823
vt 0.053817 0.410471
vt 0.059612 0.476823
vt 0.059612 0.410471
vt 0.092687 0.476823
vt 0.092687 0.410471
vt 0.099689 0.476823
vt 0.099689 0.410471
vt 0.053817 0.337049
vt 0.053817 0.400138
vt 0.059612 0.337049
vt 0.059612 0.400138
vt 0.094297 0.337049
vt 0.094297 0.400138
vt 0.099494 0.337049
vt 0.099494 0.400138
vt 0.054729 0.326172
vt 0.054729 0.263845
vt 0.059759 0.326172
vt 0.059759 0.263845
vt 0.093961 0.326172
vt 0.093961 0.263845
vt 0.099494 0.326172
vt 0.099494 0.263845
vt 0.019372 0.225825
vt 0.135544 0.225825
vt 0.135544 0.164863
vt 0.019372 0.164863
vt 0.019372 0.152102
vt 0.135544 0.152102
vt 0.135544 0.090917
vt 0.019372 0.090917
vt 0.135544 0.078227
vt 0.019372 0.078227
vt 0.135544 0.016589
vt 0.019372 0.016589
vt 0.052991 0.225825
vt 0.052991 0.164863
vt 0.059268 0.225825
vt 0.059268 0.164863
vt 0.094034 0.225825
vt 0.094034 0.164863
vt 0.099586 0.225825
vt 0.099586 0.164863
vt 0.052749 0.152102
vt 0.052749 0.090917
vt 0.059751 0.152102
vt 0.059751 0.090917
vt 0.093792 0.152102
vt 0.093792 0.090917
vt 0.100311 0.152102
vt 0.100311 0.090917
vt 0.052556 0.078227
vt 0.052556 0.016589
vt 0.059509 0.078227
vt 0.059509 0.016589
vt 0.093671 0.078227
vt 0.093671 0.016589
vt 0.100110 0.078227
vt 0.100110 0.016589
vt 1.000000 0.000000
vt 1.000000 0.997261
vt 0.979278 0.997275
vt 0.979278 0.000163
vt 0.863105 0.718245
vt 0.863105 0.607653
vt 0.863105 0.470940
vt 0.863105 0.361151
vt 0.863105 0.220974
vt 0.863105 0.112365
vt 0.863105 0.864404
vt 0.863105 0.967403
vt 0.863105 0.970245
vt 0.979278 0.970245
vt 0.863105 0.909513
vt 0.979278 0.909513
vt 0.979278 0.895989
vt 0.863105 0.895989
vt 0.863105 0.834351
vt 0.979278 0.834351
vt 0.863105 0.758664
vt 0.979278 0.758664
vt 0.945185 0.970245
vt 0.945185 0.909513
vt 0.938747 0.909513
vt 0.938747 0.970245
vt 0.905148 0.970245
vt 0.905148 0.909513
vt 0.897503 0.970245
vt 0.897503 0.909513
vt 0.898481 0.895989
vt 0.898481 0.834351
vt 0.905215 0.895989
vt 0.905215 0.834351
vt 0.938747 0.895989
vt 0.938747 0.834351
vt 0.945286 0.895989
vt 0.945286 0.834351
vt 0.863105 0.821322
vt 0.979278 0.821321
vt 0.944711 0.758664
vt 0.944711 0.821321
vt 0.938563 0.758664
vt 0.938563 0.821321
vt 0.905311 0.758664
vt 0.905311 0.821321
vt 0.898884 0.758664
vt 0.898884 0.821321
vt 0.863105 0.719846
vt 0.979278 0.719846
vt 0.979278 0.657528
vt 0.863105 0.657528
vt 0.863105 0.645442
vt 0.979278 0.645442
vt 0.979278 0.583471
vt 0.863105 0.583470
vt 0.979278 0.570724
vt 0.863105 0.570724
vt 0.863105 0.508721
vt 0.979278 0.508721
vt 0.944567 0.719846
vt 0.944567 0.657528
vt 0.938867 0.719846
vt 0.938867 0.657528
vt 0.905000 0.719846
vt 0.905000 0.657528
vt 0.898629 0.719846
vt 0.898629 0.657528
vt 0.944601 0.645442
vt 0.944601 0.583470
vt 0.939403 0.645442
vt 0.939403 0.583470
vt 0.904866 0.645442
vt 0.904866 0.583470
vt 0.897992 0.645442
vt 0.897992 0.583470
vt 0.944138 0.570724
vt 0.944138 0.508721
vt 0.937700 0.570724
vt 0.937700 0.508721
vt 0.904906 0.570724
vt 0.904906 0.508721
vt 0.898066 0.570724
vt 0.898066 0.508721
vt 0.979278 0.472645
vt 0.863105 0.472645
vt 0.863105 0.406294
vt 0.979278 0.406294
vt 0.863105 0.332872
vt 0.979278 0.332872
vt 0.863105 0.395960
vt 0.979278 0.395960
vt 0.863105 0.321995
vt 0.979278 0.321995
vt 0.979278 0.259668
vt 0.863105 0.259668
vt 0.944832 0.472645
vt 0.944832 0.406294
vt 0.939038 0.472645
vt 0.939038 0.406294
vt 0.905962 0.472645
vt 0.905962 0.406294
vt 0.898961 0.472645
vt 0.898961 0.406294
vt 0.944832 0.332872
vt 0.944832 0.395960
vt 0.939038 0.332872
vt 0.939038 0.395960
vt 0.904353 0.332872
vt 0.904353 0.395960
vt 0.899155 0.332872
vt 0.899155 0.395960
vt 0.943920 0.321995
vt 0.943920 0.259668
vt 0.938890 0.321995
vt 0.938890 0.259668
vt 0.904688 0.321995
vt 0.904688 0.259668
vt 0.899155 0.321995
vt 0.899155 0.259668
vt 0.979278 0.221648
vt 0.863105 0.221648
vt 0.863105 0.160686
vt 0.979278 0.160686
vt 0.979278 0.147924
vt 0.863105 0.147924
vt 0.863105 0.086740
vt 0.979278 0.086740
vt 0.863105 0.074050
vt 0.979278 0.074050
vt 0.863105 0.012412
vt 0.979278 0.012412
vt 0.945659 0.221648
vt 0.945659 0.160686
vt 0.939382 0.221648
vt 0.939382 0.160686
vt 0.904616 0.221648
vt 0.904616 0.160686
vt 0.899063 0.221648
vt 0.899063 0.160686
vt 0.945900 0.147924
vt 0.945900 0.086740
vt 0.938899 0.147924
vt 0.938899 0.086740
vt 0.904857 0.147924
vt 0.904857 0.086740
vt 0.898339 0.147924
vt 0.898339 0.086740
vt 0.946093 0.074050
vt 0.946093 0.012412
vt 0.939140 0.074050
vt 0.939140 0.012412
vt 0.904978 0.074050
vt 0.904978 0.012412
vt 0.898540 0.074050
vt 0.898540 0.012412
vt 0.567408 0.757120
vt 0.558725 0.518644
vt 0.429337 0.786445
vt 0.433414 0.518646
vt 0.428069 0.539685
vt 0.433414 0.512317
vt 0.566937 0.502480
vt 0.558725 0.512317
vt 0.566474 0.251920
vt 0.558725 0.518268
vt 0.426777 0.288144
vt 0.433414 0.518268
vt 0.425420 0.002259
vt 0.433414 0.017389
vt 0.433414 0.519288
vt 0.566005 0.005319
vt 0.558725 0.017388
vt 0.558725 0.519287
vt 0.426606 0.254969
vt 0.433414 0.736542
vt 0.566414 0.219529
vt 0.558725 0.736541
vt 0.566880 0.471840
vt 0.558725 0.734087
vt 0.427913 0.509398
vt 0.433414 0.734085
vt 0.429189 0.757740
vt 0.433414 0.732686
vt 0.567352 0.727034
vt 0.558725 0.732685
vt 0.567815 0.977763
vt 0.558725 0.735173
vt 0.430400 0.993371
vt 0.433414 0.735172
vt 0.558725 0.735173
vt 0.433414 0.735172
s 1
usemtl apartment_block7
f 12/17/1 10/15/1 339/402/1 364/427/1 362/425/1 360/423/1 358/421/1 340/403/1
f 1/1/1 12/17/1 340/403/1 338/401/1 336/399/1 333/396/1 332/395/1 329/392/1 303/366/1 302/365/1 298/361/1 300/363/1 296/359/1 293/356/1 268/331/1 265/328/1 263/326/1 262/325/1 259/322/1 258/321/1 230/293/1 248/311/1 228/291/1 225/288/1 224/287/1 222/285/1 11/16/1 2/2/1
f 66/85/1 13/18/1 16/23/1 65/84/1
f 40/58/2 48/67/1 47/66/1 38/54/2
f 32/46/2 46/65/1 45/64/1 30/42/2
f 85/104/1 79/98/1 73/92/1 20/28/3 100/120/3 99/118/1 97/116/1 101/121/1 98/117/1 102/122/1 227/290/1 247/310/1 229/292/1 257/320/1 22/31/1 91/110/1
f 119/146/4 118/144/5 124/152/5 126/155/4
f 74/93/1 23/33/3 20/28/3 73/92/1
f 68/87/1 26/37/1 21/30/1 67/86/1
f 120/147/4 122/149/5 115/140/5 114/139/4
f 76/95/1 31/45/3 27/39/3 75/94/1
f 70/89/1 34/49/1 28/40/1 69/88/1
f 78/97/1 39/57/3 35/51/3 77/96/1
f 35/50/3 39/56/3 3/3/6 112/135/6 527/596/3 529/602/7 526/594/7 532/608/7 523/588/7 533/610/8 522/586/8 536/616/3 110/132/9 4/5/10 105/125/3 100/119/3 20/29/3 23/32/3 27/38/3 31/44/3
f 72/91/1 42/61/1 36/52/1 71/90/1
f 24/34/2 44/63/1 43/62/1 19/26/2
f 14/19/2 17/24/1 18/25/1 15/21/2
f 56/75/1 64/83/1 63/82/1 55/74/1
f 54/73/1 62/81/1 61/80/1 53/72/1
f 52/71/1 60/79/1 59/78/1 50/69/1
f 49/68/1 58/77/1 57/76/1 51/70/1
f 47/66/1 55/74/1 63/82/1 71/90/1 36/52/1 34/49/1 70/89/1 62/81/1 54/73/1 46/65/1 32/46/2 38/54/2
f 45/64/1 53/72/1 61/80/1 69/88/1 28/40/1 26/37/1 68/87/1 60/79/1 52/71/1 44/63/1 24/34/2 30/42/2
f 43/62/1 50/69/1 59/78/1 67/86/1 21/30/1 13/18/1 66/85/1 58/77/1 49/68/1 17/24/1 14/19/2 19/26/2
f 18/25/1 51/70/1 57/76/1 65/84/1 16/23/1 8/13/1 6/9/11 15/21/2
f 5/8/12 7/12/1 42/61/1 72/91/1 64/83/1 56/75/1 48/67/1 40/58/2
f 86/105/1 80/99/1 79/98/1 85/104/1
f 88/107/1 82/101/1 81/100/1 87/106/1
f 90/109/1 84/103/1 83/102/1 89/108/1
f 83/102/1 77/96/1 35/51/3 31/45/3 76/95/1 82/101/1 88/107/1 94/113/1 33/48/1 297/360/1 301/364/1 304/367/1 330/393/1 37/53/1 95/114/1 89/108/1
f 81/100/1 75/94/1 27/39/3 23/33/3 74/93/1 80/99/1 86/105/1 92/111/1 25/36/1 264/327/1 266/329/1 267/330/1 294/357/1 29/41/1 93/112/1 87/106/1
f 3/4/6 39/57/3 78/97/1 84/103/1 90/109/1 96/115/1 41/60/1 335/398/1 337/400/1 339/402/1 10/15/1
f 25/36/1 92/111/1 91/110/1 22/31/1 260/323/1 261/324/1
f 33/48/1 94/113/1 93/112/1 29/41/1 295/358/1 299/362/1
f 41/60/1 96/115/1 95/114/1 37/53/1 331/394/1 334/397/1
f 132/165/13 133/167/14 130/162/14 128/159/15
f 101/121/1 97/116/1 103/123/1 106/127/1
f 102/122/1 98/117/1 104/124/1 107/128/1 223/286/1 226/289/1
f 99/118/1 100/120/3 105/126/3 108/129/1
f 103/123/1 108/129/1 105/126/3 4/6/10 9/14/1 221/284/1 107/128/1 104/124/1 106/127/1
f 123/151/16 121/148/17 111/134/17 117/143/16
f 111/134/17 121/148/17 124/153/5 118/145/5
f 6/10/11 4/6/10 110/133/9 109/130/18
f 15/22/2 6/11/11 109/131/18 535/614/2 521/584/19 534/612/19 524/590/19 531/606/19 525/592/19 530/604/19 528/599/2 113/137/15 5/7/12 40/59/2 38/55/2 32/47/2 30/43/2 24/35/2 19/27/2 14/20/2
f 130/163/14 129/160/20 127/156/6 128/158/15
f 131/164/21 132/165/13 128/159/15 127/157/6
f 3/4/6 5/8/12 113/138/15 112/136/6
f 125/154/1 116/142/1 115/141/5 122/150/5
f 133/166/14 134/168/20 129/160/20 130/163/14
f 134/169/20 131/164/21 127/157/6 129/161/20
f 121/148/17 111/134/17 134/169/20 133/167/14
f 138/175/4 137/173/5 141/179/5 142/181/4
f 148/191/13 149/192/14 146/189/14 144/185/15
f 140/178/16 139/176/17 135/170/17 136/172/16
f 135/170/17 139/176/17 141/180/5 137/174/5
f 146/188/14 145/186/20 143/182/6 144/184/15
f 147/190/21 148/191/13 144/185/15 143/183/6
f 149/192/14 150/194/20 145/187/20 146/189/14
f 150/194/20 147/190/21 143/183/6 145/187/20
f 139/177/17 135/171/17 150/195/20 149/193/14
f 154/201/4 153/199/5 157/205/5 158/207/4
f 164/217/13 165/218/14 162/215/14 160/211/15
f 156/204/16 155/202/17 151/196/17 152/198/16
f 151/196/17 155/202/17 157/206/5 153/200/5
f 162/214/14 161/212/20 159/208/6 160/210/15
f 163/216/21 164/217/13 160/211/15 159/209/6
f 165/218/14 166/220/20 161/213/20 162/215/14
f 166/220/20 163/216/21 159/209/6 161/213/20
f 155/203/17 151/197/17 166/221/20 165/219/14
f 178/239/13 179/240/14 176/237/14 174/233/15
f 171/228/16 170/226/17 167/222/17 168/224/16
f 167/222/17 170/226/17 172/229/1 169/225/1
f 176/236/14 175/234/20 173/230/6 174/232/15
f 177/238/21 178/239/13 174/233/15 173/231/6
f 179/240/14 180/242/20 175/235/20 176/237/14
f 180/242/20 177/238/21 173/231/6 175/235/20
f 170/227/17 167/223/17 180/243/20 179/241/14
f 181/244/1 182/245/1 184/247/22 183/246/22
f 183/246/22 184/247/22 186/249/23 185/248/23
f 185/248/23 186/249/23 188/251/24 187/250/24
f 187/250/24 188/251/24 190/253/25 189/252/25
f 189/252/25 190/253/25 192/255/26 191/254/26
f 191/254/26 192/255/26 194/257/27 193/256/27
f 193/256/27 194/257/27 196/259/28 195/258/28
f 195/258/28 196/259/28 198/261/29 197/260/29
f 197/260/29 198/261/29 200/263/30 199/262/30
f 199/262/30 200/263/30 202/265/31 201/264/31
f 201/264/31 202/265/31 204/267/32 203/266/32
f 203/266/32 204/267/32 206/269/33 205/268/33
f 205/268/33 206/269/33 208/271/34 207/270/34
f 207/270/34 208/271/34 210/273/35 209/272/35
f 209/272/35 210/273/35 212/275/36 211/274/36
f 211/274/36 212/275/36 214/277/37 213/276/37
f 213/276/37 214/277/37 216/279/38 215/278/38
f 215/278/38 216/279/38 218/281/39 217/280/39
f 217/280/39 218/281/39 220/283/40 219/282/40
f 219/282/40 220/283/40 182/245/1 181/244/1
f 222/285/1 231/294/1 234/297/1 235/298/1 237/300/1 221/284/1 9/14/1 11/16/1
f 225/288/1 245/308/1 243/306/1 241/304/1 239/302/1 226/289/1 223/286/1 238/301/1 236/299/1 233/296/1 232/295/1 224/287/1
f 231/294/1 232/295/1 233/296/1 234/297/1
f 235/298/1 236/299/1 238/301/1 237/300/1
f 241/304/1 242/305/1 240/303/1 239/302/1
f 245/308/1 246/309/1 244/307/1 243/306/1
f 248/311/1 250/313/1 252/315/1 254/317/1 256/319/1 247/310/1 227/290/1 240/303/1 242/305/1 244/307/1 246/309/1 228/291/1
f 250/313/1 249/312/1 251/314/1 252/315/1
f 254/317/1 253/316/1 255/318/1 256/319/1
f 258/321/1 269/332/1 271/334/1 273/336/1 275/338/1 257/320/1 229/292/1 255/318/1 253/316/1 251/314/1 249/312/1 230/293/1
f 262/325/1 277/340/1 279/342/1 281/344/1 283/346/1 261/324/1 260/323/1 276/339/1 274/337/1 272/335/1 270/333/1 259/322/1
f 265/328/1 285/348/1 287/350/1 289/352/1 291/354/1 266/329/1 264/327/1 284/347/1 282/345/1 280/343/1 278/341/1 263/326/1
f 269/332/1 270/333/1 272/335/1 271/334/1
f 273/336/1 274/337/1 276/339/1 275/338/1
f 277/340/1 278/341/1 280/343/1 279/342/1
f 281/344/1 282/345/1 284/347/1 283/346/1
f 285/348/1 286/349/1 288/351/1 287/350/1
f 289/352/1 290/353/1 292/355/1 291/354/1
f 293/356/1 305/368/1 307/370/1 309/372/1 311/374/1 294/357/1 267/330/1 292/355/1 290/353/1 288/351/1 286/349/1 268/331/1
f 300/363/1 314/377/1 316/379/1 318/381/1 320/383/1 299/362/1 295/358/1 312/375/1 310/373/1 308/371/1 306/369/1 296/359/1
f 302/365/1 321/384/1 323/386/1 325/388/1 327/390/1 301/364/1 297/360/1 319/382/1 317/380/1 315/378/1 313/376/1 298/361/1
f 305/368/1 306/369/1 308/371/1 307/370/1
f 309/372/1 310/373/1 312/375/1 311/374/1
f 314/377/1 313/376/1 315/378/1 316/379/1
f 318/381/1 317/380/1 319/382/1 320/383/1
f 321/384/1 322/385/1 324/387/1 323/386/1
f 368/431/1 496/559/1 514/577/1 516/579/1 518/581/1 520/583/1 495/558/1 7/12/1
f 325/388/1 326/389/1 328/391/1 327/390/1
f 329/392/1 341/404/1 343/406/1 345/408/1 347/410/1 330/393/1 304/367/1 328/391/1 326/389/1 324/387/1 322/385/1 303/366/1
f 333/396/1 349/412/1 351/414/1 353/416/1 355/418/1 334/397/1 331/394/1 348/411/1 346/409/1 344/407/1 342/405/1 332/395/1
f 338/401/1 357/420/1 359/422/1 361/424/1 363/426/1 337/400/1 335/398/1 356/419/1 354/417/1 352/415/1 350/413/1 336/399/1
f 341/404/1 342/405/1 344/407/1 343/406/1
f 345/408/1 346/409/1 348/411/1 347/410/1
f 349/412/1 350/413/1 352/415/1 351/414/1
f 353/416/1 354/417/1 356/419/1 355/418/1
f 357/420/1 358/421/1 360/423/1 359/422/1
f 361/424/1 362/425/1 364/427/1 363/426/1
f 365/428/1 366/429/1 367/430/1 378/441/1 380/443/1 381/444/1 384/447/1 404/467/1 386/449/1 414/477/1 415/478/1 418/481/1 419/482/1 421/484/1 424/487/1 449/512/1 452/515/1 456/519/1 454/517/1 458/521/1 459/522/1 485/548/1 488/551/1 489/552/1 492/555/1 494/557/1 496/559/1 368/431/1
f 378/441/1 367/430/1 8/13/1 377/440/1 393/456/1 391/454/1 390/453/1 387/450/1
f 381/444/1 380/443/1 388/451/1 389/452/1 392/455/1 394/457/1 379/442/1 382/445/1 395/458/1 397/460/1 399/462/1 401/464/1
f 387/450/1 390/453/1 389/452/1 388/451/1
f 391/454/1 393/456/1 394/457/1 392/455/1
f 397/460/1 395/458/1 396/459/1 398/461/1
f 401/464/1 399/462/1 400/463/1 402/465/1
f 404/467/1 384/447/1 402/465/1 400/463/1 398/461/1 396/459/1 383/446/1 403/466/1 412/475/1 410/473/1 408/471/1 406/469/1
f 406/469/1 408/471/1 407/470/1 405/468/1
f 410/473/1 412/475/1 411/474/1 409/472/1
f 414/477/1 386/449/1 405/468/1 407/470/1 409/472/1 411/474/1 385/448/1 413/476/1 431/494/1 429/492/1 427/490/1 425/488/1
f 418/481/1 415/478/1 426/489/1 428/491/1 430/493/1 432/495/1 416/479/1 417/480/1 439/502/1 437/500/1 435/498/1 433/496/1
f 421/484/1 419/482/1 434/497/1 436/499/1 438/501/1 440/503/1 420/483/1 422/485/1 447/510/1 445/508/1 443/506/1 441/504/1
f 425/488/1 427/490/1 428/491/1 426/489/1
f 429/492/1 431/494/1 432/495/1 430/493/1
f 433/496/1 435/498/1 436/499/1 434/497/1
f 437/500/1 439/502/1 440/503/1 438/501/1
f 441/504/1 443/506/1 444/507/1 442/505/1
f 445/508/1 447/510/1 448/511/1 446/509/1
f 449/512/1 424/487/1 442/505/1 444/507/1 446/509/1 448/511/1 423/486/1 450/513/1 467/530/1 465/528/1 463/526/1 461/524/1
f 456/519/1 452/515/1 462/525/1 464/527/1 466/529/1 468/531/1 451/514/1 455/518/1 476/539/1 474/537/1 472/535/1 470/533/1
f 458/521/1 454/517/1 469/532/1 471/534/1 473/536/1 475/538/1 453/516/1 457/520/1 483/546/1 481/544/1 479/542/1 477/540/1
f 461/524/1 463/526/1 464/527/1 462/525/1
f 465/528/1 467/530/1 468/531/1 466/529/1
f 470/533/1 472/535/1 471/534/1 469/532/1
f 474/537/1 476/539/1 475/538/1 473/536/1
f 477/540/1 479/542/1 480/543/1 478/541/1
f 481/544/1 483/546/1 484/547/1 482/545/1
f 485/548/1 459/522/1 478/541/1 480/543/1 482/545/1 484/547/1 460/523/1 486/549/1 503/566/1 501/564/1 499/562/1 497/560/1
f 489/552/1 488/551/1 498/561/1 500/563/1 502/565/1 504/567/1 487/550/1 490/553/1 511/574/1 509/572/1 507/570/1 505/568/1
f 494/557/1 492/555/1 506/569/1 508/571/1 510/573/1 512/575/1 491/554/1 493/556/1 519/582/1 517/580/1 515/578/1 513/576/1
f 497/560/1 499/562/1 500/563/1 498/561/1
f 501/564/1 503/566/1 504/567/1 502/565/1
f 505/568/1 507/570/1 508/571/1 506/569/1
f 509/572/1 511/574/1 512/575/1 510/573/1
f 513/576/1 515/578/1 516/579/1 514/577/1
f 517/580/1 519/582/1 520/583/1 518/581/1
f 528/600/2 527/597/3 112/136/6 113/138/15
f 530/605/19 529/603/7 527/598/3 528/601/2
f 531/607/19 532/609/7 526/595/7 525/593/19
f 534/613/19 533/611/8 523/589/7 524/591/19
f 535/615/2 536/617/3 522/587/8 521/585/19
f 536/617/3 535/615/2 537/618/1 538/619/1
usemtl apartment_block7_GLASS
f 48/67/1 56/75/1 55/74/1 47/66/1
f 46/65/1 54/73/1 53/72/1 45/64/1
f 44/63/1 52/71/1 50/69/1 43/62/1
f 17/24/1 49/68/1 51/70/1 18/25/1
f 64/83/1 72/91/1 71/90/1 63/82/1
f 62/81/1 70/89/1 69/88/1 61/80/1
f 60/79/1 68/87/1 67/86/1 59/78/1
f 58/77/1 66/85/1 65/84/1 57/76/1
f 84/103/1 78/97/1 77/96/1 83/102/1
f 82/101/1 76/95/1 75/94/1 81/100/1
f 80/99/1 74/93/1 73/92/1 79/98/1
f 96/115/1 90/109/1 89/108/1 95/114/1
f 94/113/1 88/107/1 87/106/1 93/112/1
f 92/111/1 86/105/1 85/104/1 91/110/1
f 97/116/1 99/118/1 108/129/1 103/123/1
f 98/117/1 101/121/1 106/127/1 104/124/1
f 224/287/1 232/295/1 231/294/1 222/285/1
f 228/291/1 246/309/1 245/308/1 225/288/1
f 230/293/1 249/312/1 250/313/1 248/311/1
f 234/297/1 233/296/1 236/299/1 235/298/1
f 237/300/1 238/301/1 223/286/1 107/128/1 221/284/1
f 239/302/1 240/303/1 227/290/1 102/122/1 226/289/1
f 243/306/1 244/307/1 242/305/1 241/304/1
f 252/315/1 251/314/1 253/316/1 254/317/1
f 256/319/1 255/318/1 229/292/1 247/310/1
f 259/322/1 270/333/1 269/332/1 258/321/1
f 263/326/1 278/341/1 277/340/1 262/325/1
f 268/331/1 286/349/1 285/348/1 265/328/1
f 271/334/1 272/335/1 274/337/1 273/336/1
f 275/338/1 276/339/1 260/323/1 22/31/1 257/320/1
f 279/342/1 280/343/1 282/345/1 281/344/1
f 283/346/1 284/347/1 264/327/1 25/36/1 261/324/1
f 287/350/1 288/351/1 290/353/1 289/352/1
f 291/354/1 292/355/1 267/330/1 266/329/1
f 296/359/1 306/369/1 305/368/1 293/356/1
f 298/361/1 313/376/1 314/377/1 300/363/1
f 303/366/1 322/385/1 321/384/1 302/365/1
f 307/370/1 308/371/1 310/373/1 309/372/1
f 311/374/1 312/375/1 295/358/1 29/41/1 294/357/1
f 316/379/1 315/378/1 317/380/1 318/381/1
f 320/383/1 319/382/1 297/360/1 33/48/1 299/362/1
f 323/386/1 324/387/1 326/389/1 325/388/1
f 327/390/1 328/391/1 304/367/1 301/364/1
f 332/395/1 342/405/1 341/404/1 329/392/1
f 336/399/1 350/413/1 349/412/1 333/396/1
f 340/403/1 358/421/1 357/420/1 338/401/1
f 343/406/1 344/407/1 346/409/1 345/408/1
f 347/410/1 348/411/1 331/394/1 37/53/1 330/393/1
f 351/414/1 352/415/1 354/417/1 353/416/1
f 355/418/1 356/419/1 335/398/1 41/60/1 334/397/1
f 359/422/1 360/423/1 362/425/1 361/424/1
f 363/426/1 364/427/1 339/402/1 337/400/1
f 380/443/1 378/441/1 387/450/1 388/451/1
f 384/447/1 381/444/1 401/464/1 402/465/1
f 386/449/1 404/467/1 406/469/1 405/468/1
f 390/453/1 391/454/1 392/455/1 389/452/1
f 393/456/1 377/440/1 376/439/1 379/442/1 394/457/1
f 395/458/1 382/445/1 375/438/1 383/446/1 396/459/1
f 399/462/1 397/460/1 398/461/1 400/463/1
f 408/471/1 410/473/1 409/472/1 407/470/1
f 412/475/1 403/466/1 385/448/1 411/474/1
f 415/478/1 414/477/1 425/488/1 426/489/1
f 419/482/1 418/481/1 433/496/1 434/497/1
f 424/487/1 421/484/1 441/504/1 442/505/1
f 427/490/1 429/492/1 430/493/1 428/491/1
f 431/494/1 413/476/1 369/432/1 416/479/1 432/495/1
f 435/498/1 437/500/1 438/501/1 436/499/1
f 439/502/1 417/480/1 370/433/1 420/483/1 440/503/1
f 443/506/1 445/508/1 446/509/1 444/507/1
f 447/510/1 422/485/1 423/486/1 448/511/1
f 452/515/1 449/512/1 461/524/1 462/525/1
f 454/517/1 456/519/1 470/533/1 469/532/1
f 459/522/1 458/521/1 477/540/1 478/541/1
f 463/526/1 465/528/1 466/529/1 464/527/1
f 467/530/1 450/513/1 371/434/1 451/514/1 468/531/1
f 472/535/1 474/537/1 473/536/1 471/534/1
f 476/539/1 455/518/1 372/435/1 453/516/1 475/538/1
f 479/542/1 481/544/1 482/545/1 480/543/1
f 483/546/1 457/520/1 460/523/1 484/547/1
f 488/551/1 485/548/1 497/560/1 498/561/1
f 492/555/1 489/552/1 505/568/1 506/569/1
f 496/559/1 494/557/1 513/576/1 514/577/1
f 499/562/1 501/564/1 502/565/1 500/563/1
f 503/566/1 486/549/1 373/436/1 487/550/1 504/567/1
f 507/570/1 509/572/1 510/573/1 508/571/1
f 511/574/1 490/553/1 374/437/1 491/554/1 512/575/1
f 515/578/1 517/580/1 518/581/1 516/579/1
f 519/582/1 493/556/1 495/558/1 520/583/1
