# Blender 3.3.1
# www.blender.org
mtllib apartment_block6.mtl
o apartment_block6
v -1.466981 -2.499510 -0.000000
v 1.466981 -2.499510 -0.000000
v -1.466981 2.499510 0.000000
v 1.466981 2.499510 0.000000
v -0.798107 -2.499510 -0.000000
v -0.634072 -2.499510 -0.000000
v -0.368823 -2.499510 -0.000000
v -0.255394 -2.499510 -0.000000
v -0.225698 -2.499510 -0.000000
v -0.110526 -2.499510 -0.000000
v 0.154719 -2.499510 -0.000000
v 0.264656 -2.499510 -0.000000
v 0.297859 -2.499510 -0.000000
v 0.409537 -2.499510 -0.000000
v 0.660811 -2.499510 -0.000000
v 0.821347 -2.499510 -0.000000
v -1.466981 2.352101 0.000000
v 1.466981 2.352101 0.000000
v -0.798107 2.352101 0.000000
v -0.634072 2.352101 0.000000
v -0.368823 2.352101 0.000000
v -0.255394 2.352101 0.000000
v -0.225698 2.352101 0.000000
v -0.110526 2.352101 0.000000
v 0.154719 2.352101 0.000000
v 0.264656 2.352101 0.000000
v 0.297859 2.352101 0.000000
v 0.409537 2.352101 0.000000
v 0.660811 2.352101 0.000000
v 0.821347 2.352101 0.000000
v -0.798107 2.173800 0.000000
v -0.634072 2.173800 0.000000
v -0.368823 2.173800 0.000000
v -0.255394 2.173800 0.000000
v -0.225698 2.173800 0.000000
v -0.110526 2.173800 0.000000
v 0.154719 2.173800 0.000000
v 0.264656 2.173800 0.000000
v 0.297859 2.173800 0.000000
v 0.409537 2.173800 0.000000
v 0.660811 2.173800 0.000000
v 0.821347 2.173800 0.000000
v -0.798107 1.935807 0.000000
v -0.634072 1.935807 0.000000
v -0.368823 1.935807 0.000000
v -0.255394 1.935807 0.000000
v -0.225698 1.935807 0.000000
v -0.110526 1.935807 0.000000
v 0.154719 1.935807 0.000000
v 0.264656 1.935807 0.000000
v 0.297859 1.935807 0.000000
v 0.409537 1.935807 0.000000
v 0.660811 1.935807 0.000000
v 0.821347 1.935807 0.000000
v -0.798107 1.759077 0.000000
v -0.634072 1.759077 0.000000
v -0.368823 1.759077 0.000000
v -0.255394 1.759077 0.000000
v -0.225698 1.759077 0.000000
v -0.110526 1.759077 0.000000
v 0.154719 1.759077 0.000000
v 0.264656 1.759077 0.000000
v 0.297859 1.759077 0.000000
v 0.409537 1.759077 0.000000
v 0.660811 1.767490 0.000000
v 0.821347 1.767490 0.000000
v -0.798107 1.523917 0.000000
v -0.634072 1.523917 0.000000
v -0.368823 1.523917 0.000000
v -0.255394 1.523917 0.000000
v -0.225698 1.523917 0.000000
v -0.110526 1.523917 0.000000
v 0.154719 1.523917 0.000000
v 0.264656 1.523917 0.000000
v 0.297859 1.523917 0.000000
v 0.409537 1.523917 0.000000
v 0.660811 1.523917 0.000000
v 0.821347 1.523917 0.000000
v -0.798107 1.348296 0.000000
v -0.634072 1.348296 0.000000
v -0.368823 1.344090 0.000000
v -0.255394 1.344090 0.000000
v -0.225698 1.344090 0.000000
v -0.110526 1.344090 0.000000
v 0.154719 1.348296 0.000000
v 0.264656 1.348296 0.000000
v 0.297859 1.348296 0.000000
v 0.409537 1.348296 0.000000
v 0.660811 1.348296 0.000000
v 0.821347 1.348296 0.000000
v -0.798107 1.116177 0.000000
v -0.625892 1.116177 0.000000
v -0.366540 1.116177 0.000000
v -0.255394 1.116177 0.000000
v -0.225698 1.116177 0.000000
v -0.110526 1.116177 0.000000
v 0.154719 1.116177 0.000000
v 0.269389 1.116177 0.000000
v 0.296507 1.116177 0.000000
v 0.412377 1.116177 0.000000
v 0.657403 1.116177 0.000000
v 0.820373 1.116177 0.000000
v -0.798107 0.936448 0.000000
v -0.625892 0.936448 0.000000
v -0.366540 0.939239 0.000000
v -0.255394 0.939239 0.000000
v -0.225698 0.937616 0.000000
v -0.110526 0.937616 0.000000
v 0.154719 0.937616 0.000000
v 0.269389 0.937616 0.000000
v 0.296507 0.937616 0.000000
v 0.412377 0.937616 0.000000
v 0.657403 0.937616 0.000000
v 0.820373 0.937616 0.000000
v -0.790536 0.706672 0.000000
v -0.624140 0.706672 0.000000
v -0.368823 0.706672 0.000000
v -0.255394 0.706672 0.000000
v -0.225698 0.706672 0.000000
v -0.110526 0.706672 0.000000
v 0.154719 0.706672 0.000000
v 0.264656 0.706672 0.000000
v 0.297859 0.706672 0.000000
v 0.409537 0.706672 0.000000
v 0.660811 0.706672 0.000000
v 0.821347 0.706672 0.000000
v -0.790536 0.526771 0.000000
v -0.624140 0.526771 0.000000
v -0.368823 0.529295 0.000000
v -0.255394 0.529295 0.000000
v -0.225698 0.529295 0.000000
v -0.110526 0.529295 0.000000
v 0.154719 0.529295 0.000000
v 0.264656 0.529295 0.000000
v 0.297859 0.529295 0.000000
v 0.409537 0.529295 0.000000
v 0.660811 0.529295 0.000000
v 0.821347 0.529295 0.000000
v -0.788370 0.295818 0.000000
v -0.624335 0.295818 0.000000
v -0.368823 0.299226 0.000000
v -0.255394 0.299226 0.000000
v -0.225698 0.299226 0.000000
v -0.105852 0.299226 0.000000
v 0.154719 0.297473 0.000000
v 0.269037 0.297473 0.000000
v 0.297859 0.297279 0.000000
v 0.413918 0.297279 0.000000
v 0.660811 0.299226 0.000000
v 0.821347 0.299226 0.000000
v -0.788370 0.119778 0.000000
v -0.624335 0.119778 0.000000
v -0.368823 0.121238 0.000000
v -0.255394 0.121238 0.000000
v -0.225698 0.121238 0.000000
v -0.105852 0.121238 0.000000
v 0.154719 0.118317 0.000000
v 0.269037 0.118317 0.000000
v 0.297859 0.121238 0.000000
v 0.413918 0.121238 0.000000
v 0.660811 0.121238 0.000000
v 0.821347 0.121238 0.000000
v -0.786890 -0.110353 -0.000000
v -0.624986 -0.110353 -0.000000
v -0.368823 -0.110353 -0.000000
v -0.251187 -0.110353 -0.000000
v -0.225698 -0.110353 -0.000000
v -0.107721 -0.110353 -0.000000
v 0.154719 -0.110353 -0.000000
v 0.270264 -0.110353 -0.000000
v 0.297859 -0.110353 -0.000000
v 0.414444 -0.110353 -0.000000
v 0.660811 -0.110353 -0.000000
v 0.821347 -0.110353 -0.000000
v -0.786890 -0.286459 -0.000000
v -0.624986 -0.286459 -0.000000
v -0.368823 -0.288563 -0.000000
v -0.251187 -0.288563 -0.000000
v -0.225698 -0.288563 -0.000000
v -0.107721 -0.288563 -0.000000
v 0.154719 -0.286459 -0.000000
v 0.270264 -0.286459 -0.000000
v 0.297859 -0.286459 -0.000000
v 0.414444 -0.286459 -0.000000
v 0.660811 -0.286459 -0.000000
v 0.821347 -0.286459 -0.000000
v -0.788175 -0.518550 -0.000000
v -0.622967 -0.518550 -0.000000
v -0.368823 -0.518550 -0.000000
v -0.255394 -0.518550 -0.000000
v -0.225698 -0.518550 -0.000000
v -0.110526 -0.518550 -0.000000
v 0.154719 -0.518550 -0.000000
v 0.264656 -0.518550 -0.000000
v 0.297859 -0.518550 -0.000000
v 0.409537 -0.518550 -0.000000
v 0.660811 -0.513292 -0.000000
v 0.821347 -0.513292 -0.000000
v -0.788175 -0.693783 -0.000000
v -0.622967 -0.693783 -0.000000
v -0.368823 -0.695730 -0.000000
v -0.255394 -0.695730 -0.000000
v -0.225698 -0.696217 -0.000000
v -0.110526 -0.696217 -0.000000
v 0.154719 -0.693783 -0.000000
v 0.264656 -0.693783 -0.000000
v 0.297859 -0.693783 -0.000000
v 0.409537 -0.693783 -0.000000
v 0.660811 -0.693783 -0.000000
v 0.821347 -0.693783 -0.000000
v -0.798107 -0.924249 -0.000000
v -0.623848 -0.924249 -0.000000
v -0.368823 -0.924249 -0.000000
v -0.255394 -0.924249 -0.000000
v -0.225698 -0.924249 -0.000000
v -0.112570 -0.924249 -0.000000
v 0.154719 -0.924249 -0.000000
v 0.269563 -0.924249 -0.000000
v 0.297859 -0.924249 -0.000000
v 0.409537 -0.924249 -0.000000
v 0.660811 -0.924249 -0.000000
v 0.817257 -0.924249 -0.000000
v -0.798107 -1.099715 -0.000000
v -0.623848 -1.099715 -0.000000
v -0.368823 -1.099715 -0.000000
v -0.255394 -1.099715 -0.000000
v -0.225698 -1.099715 -0.000000
v -0.114907 -1.099715 -0.000000
v 0.154719 -1.099715 -0.000000
v 0.269563 -1.099715 -0.000000
v 0.297859 -1.099715 -0.000000
v 0.409537 -1.099715 -0.000000
v 0.660811 -1.099715 -0.000000
v 0.817257 -1.099715 -0.000000
v -0.786890 -1.334461 -0.000000
v -0.625349 -1.334461 -0.000000
v -0.368823 -1.328932 -0.000000
v -0.255394 -1.328932 -0.000000
v -0.225698 -1.328932 -0.000000
v -0.110526 -1.328932 -0.000000
v 0.150512 -1.328932 -0.000000
v 0.264656 -1.328932 -0.000000
v 0.295336 -1.328932 -0.000000
v 0.406172 -1.328932 -0.000000
v 0.656604 -1.328932 -0.000000
v 0.817140 -1.328932 -0.000000
v -0.786890 -1.507905 -0.000000
v -0.625349 -1.507905 -0.000000
v -0.368823 -1.507905 -0.000000
v -0.255394 -1.507905 -0.000000
v -0.225698 -1.507905 -0.000000
v -0.110526 -1.507905 -0.000000
v 0.150512 -1.507905 -0.000000
v 0.264656 -1.507905 -0.000000
v 0.295336 -1.507905 -0.000000
v 0.406172 -1.507905 -0.000000
v 0.656604 -1.507905 -0.000000
v 0.817140 -1.507905 -0.000000
v -0.788012 -1.740263 -0.000000
v -0.623976 -1.740263 -0.000000
v -0.368823 -1.739422 -0.000000
v -0.255394 -1.739422 -0.000000
v -0.225698 -1.739422 -0.000000
v -0.110526 -1.739422 -0.000000
v 0.154719 -1.736898 -0.000000
v 0.268704 -1.736898 -0.000000
v 0.293812 -1.736898 -0.000000
v 0.406732 -1.736898 -0.000000
v 0.655202 -1.736898 -0.000000
v 0.815738 -1.736898 -0.000000
v -0.788012 -1.918346 -0.000000
v -0.623976 -1.918346 -0.000000
v -0.368823 -1.914981 -0.000000
v -0.255394 -1.914981 -0.000000
v -0.225698 -1.914981 -0.000000
v -0.110526 -1.914981 -0.000000
v 0.154719 -1.914981 -0.000000
v 0.268704 -1.914981 -0.000000
v 0.293812 -1.914981 -0.000000
v 0.406732 -1.914981 -0.000000
v 0.655202 -1.914981 -0.000000
v 0.815738 -1.914981 -0.000000
v -0.788012 -2.150395 -0.000000
v -0.623976 -2.150395 -0.000000
v -0.368823 -2.145821 -0.000000
v -0.255394 -2.145821 -0.000000
v -0.225698 -2.145821 -0.000000
v -0.110526 -2.145821 -0.000000
v 0.154719 -2.146357 -0.000000
v 0.264656 -2.146357 -0.000000
v 0.297859 -2.146357 -0.000000
v 0.409537 -2.146357 -0.000000
v 0.657445 -2.146357 -0.000000
v 0.817981 -2.146357 -0.000000
v -0.788012 -2.323927 -0.000000
v -0.623976 -2.323927 -0.000000
v -0.368823 -2.327155 -0.000000
v -0.255394 -2.327155 -0.000000
v -0.225698 -2.327155 -0.000000
v -0.110526 -2.327155 -0.000000
v 0.154719 -2.319889 -0.000000
v 0.264656 -2.319889 -0.000000
v 0.297859 -2.319889 -0.000000
v 0.409537 -2.319889 -0.000000
v 0.657445 -2.319889 -0.000000
v 0.817981 -2.319889 -0.000000
v -1.466981 2.447320 0.000000
v 1.466981 2.447320 0.000000
v 1.466981 2.447320 0.060143
v 1.466981 2.499510 0.060143
v -1.466981 2.499510 0.060143
v -1.466981 2.447320 0.060143
vn -0.0000 -0.0000 1.0000
vn -0.0000 -1.0000 -0.0000
vn -0.0000 1.0000 -0.0000
vn -1.0000 -0.0000 -0.0000
vn 1.0000 -0.0000 -0.0000
vt 0.000000 0.000228
vt 1.000000 0.000228
vt 0.000000 0.990089
vt 0.016639 0.999855
vt 1.000000 0.990089
vt 0.978369 0.999855
vt 0.227976 0.000228
vt 0.283885 0.000228
vt 0.374292 0.000228
vt 0.412953 0.000228
vt 0.423074 0.000228
vt 0.462329 0.000228
vt 0.552734 0.000228
vt 0.590204 0.000228
vt 0.601521 0.000228
vt 0.639585 0.000228
vt 0.725228 0.000228
vt 0.779945 0.000228
vt 0.000000 0.970379
vt 1.000000 0.970379
vt 0.227976 0.971701
vt 0.227976 0.970379
vt 0.283885 0.970379
vt 0.283885 0.971701
vt 0.374292 0.971701
vt 0.374292 0.970379
vt 0.412953 0.970379
vt 0.412953 0.971701
vt 0.423074 0.971701
vt 0.423074 0.970379
vt 0.462329 0.970379
vt 0.462329 0.971701
vt 0.552734 0.971701
vt 0.552734 0.970379
vt 0.590204 0.970379
vt 0.590204 0.971701
vt 0.601521 0.971701
vt 0.601521 0.970379
vt 0.639585 0.970379
vt 0.639585 0.971701
vt 0.725228 0.971701
vt 0.725228 0.970379
vt 0.779945 0.971701
vt 0.779945 0.970379
vt 0.227976 0.933596
vt 0.227976 0.934724
vt 0.283885 0.933596
vt 0.283885 0.934724
vt 0.374292 0.933596
vt 0.374292 0.934724
vt 0.412953 0.933596
vt 0.412953 0.934724
vt 0.423074 0.933596
vt 0.423074 0.934724
vt 0.462329 0.933596
vt 0.462329 0.934724
vt 0.552734 0.933596
vt 0.552734 0.934724
vt 0.590204 0.933596
vt 0.590204 0.934724
vt 0.601521 0.933596
vt 0.601521 0.934724
vt 0.639585 0.933596
vt 0.639585 0.934724
vt 0.725228 0.933596
vt 0.725228 0.934724
vt 0.779945 0.933596
vt 0.779945 0.934724
vt 0.227976 0.888001
vt 0.227976 0.887134
vt 0.283885 0.887134
vt 0.283885 0.888001
vt 0.374292 0.888001
vt 0.374292 0.887134
vt 0.412953 0.887134
vt 0.412953 0.888001
vt 0.423074 0.888001
vt 0.423074 0.887134
vt 0.462329 0.887134
vt 0.462329 0.888001
vt 0.552734 0.888001
vt 0.552734 0.887134
vt 0.590204 0.887134
vt 0.590204 0.888001
vt 0.601521 0.888001
vt 0.601521 0.887134
vt 0.639585 0.887134
vt 0.639585 0.888001
vt 0.725228 0.888001
vt 0.725228 0.887134
vt 0.779945 0.888001
vt 0.779945 0.887134
vt 0.227976 0.850232
vt 0.227976 0.851794
vt 0.283885 0.850232
vt 0.283885 0.851794
vt 0.374292 0.850232
vt 0.374292 0.851794
vt 0.412953 0.850232
vt 0.412953 0.851794
vt 0.423074 0.850232
vt 0.423074 0.851794
vt 0.462329 0.850232
vt 0.462329 0.851794
vt 0.552734 0.850232
vt 0.552734 0.851794
vt 0.590204 0.850232
vt 0.590204 0.851794
vt 0.601521 0.850232
vt 0.601521 0.851794
vt 0.639585 0.850232
vt 0.639585 0.851794
vt 0.725228 0.852030
vt 0.725228 0.853477
vt 0.779945 0.852030
vt 0.779945 0.853477
vt 0.227976 0.805562
vt 0.227976 0.804771
vt 0.283885 0.804771
vt 0.283885 0.805562
vt 0.374292 0.805562
vt 0.374292 0.804771
vt 0.412953 0.804771
vt 0.412953 0.805562
vt 0.423074 0.805562
vt 0.423074 0.804771
vt 0.462329 0.804771
vt 0.462329 0.805562
vt 0.552734 0.805562
vt 0.552734 0.804771
vt 0.590204 0.804771
vt 0.590204 0.805562
vt 0.601521 0.805562
vt 0.601521 0.804771
vt 0.639585 0.804771
vt 0.639585 0.805562
vt 0.725228 0.805562
vt 0.725228 0.804771
vt 0.779945 0.805562
vt 0.779945 0.804771
vt 0.227976 0.768030
vt 0.227976 0.769653
vt 0.283885 0.768030
vt 0.283885 0.769653
vt 0.374292 0.767131
vt 0.374292 0.768812
vt 0.412953 0.767131
vt 0.412953 0.768812
vt 0.423074 0.767131
vt 0.423074 0.768812
vt 0.462329 0.767131
vt 0.462329 0.768812
vt 0.552734 0.768030
vt 0.552734 0.769653
vt 0.590204 0.768030
vt 0.590204 0.769653
vt 0.601521 0.768030
vt 0.601521 0.769653
vt 0.639585 0.768030
vt 0.639585 0.769653
vt 0.725228 0.768030
vt 0.725228 0.769653
vt 0.779945 0.768030
vt 0.779945 0.769653
vt 0.227976 0.724777
vt 0.227976 0.723238
vt 0.286673 0.723238
vt 0.286673 0.724777
vt 0.375070 0.724777
vt 0.375070 0.723238
vt 0.412953 0.723238
vt 0.412953 0.724777
vt 0.423074 0.724777
vt 0.423074 0.723238
vt 0.462329 0.723238
vt 0.462329 0.724777
vt 0.552734 0.724777
vt 0.552734 0.723238
vt 0.591817 0.723238
vt 0.591817 0.724777
vt 0.601060 0.724777
vt 0.601060 0.723238
vt 0.640553 0.723238
vt 0.640553 0.724777
vt 0.724066 0.724777
vt 0.724066 0.723238
vt 0.779613 0.724777
vt 0.779613 0.723238
vt 0.227976 0.689163
vt 0.227976 0.687298
vt 0.286673 0.689163
vt 0.286673 0.687298
vt 0.375070 0.689717
vt 0.375070 0.687856
vt 0.412953 0.689717
vt 0.412953 0.687856
vt 0.423074 0.689395
vt 0.423074 0.687531
vt 0.462329 0.689395
vt 0.462329 0.687531
vt 0.552734 0.689395
vt 0.552734 0.687531
vt 0.591817 0.689395
vt 0.591817 0.687531
vt 0.601060 0.689395
vt 0.601060 0.687531
vt 0.640553 0.689395
vt 0.640553 0.687531
vt 0.724066 0.689395
vt 0.724066 0.687531
vt 0.779613 0.689395
vt 0.779613 0.687531
vt 0.230557 0.643310
vt 0.230557 0.641351
vt 0.287271 0.641351
vt 0.287271 0.643310
vt 0.374292 0.643310
vt 0.374292 0.641351
vt 0.412953 0.641351
vt 0.412953 0.643310
vt 0.423074 0.643310
vt 0.423074 0.641351
vt 0.462329 0.641351
vt 0.462329 0.643310
vt 0.552734 0.643310
vt 0.552734 0.641351
vt 0.590204 0.641351
vt 0.590204 0.643310
vt 0.601521 0.643310
vt 0.601521 0.641351
vt 0.639585 0.641351
vt 0.639585 0.643310
vt 0.725228 0.643310
vt 0.725228 0.641351
vt 0.779945 0.643310
vt 0.779945 0.641351
vt 0.230557 0.604864
vt 0.230557 0.605377
vt 0.287271 0.604864
vt 0.287271 0.605377
vt 0.374292 0.605403
vt 0.374292 0.605882
vt 0.412953 0.605403
vt 0.412953 0.605882
vt 0.423074 0.605403
vt 0.423074 0.605882
vt 0.462329 0.605403
vt 0.462329 0.605882
vt 0.552734 0.605403
vt 0.552734 0.605882
vt 0.590204 0.605403
vt 0.590204 0.605882
vt 0.601521 0.605403
vt 0.601521 0.605882
vt 0.639585 0.605403
vt 0.639585 0.605882
vt 0.725228 0.605403
vt 0.725228 0.605882
vt 0.779945 0.605403
vt 0.779945 0.605882
vt 0.231295 0.560157
vt 0.231295 0.559195
vt 0.287204 0.559195
vt 0.287204 0.560157
vt 0.374292 0.560855
vt 0.374292 0.559876
vt 0.412953 0.559876
vt 0.412953 0.560855
vt 0.423074 0.560855
vt 0.423074 0.559876
vt 0.463922 0.559876
vt 0.463922 0.560855
vt 0.552734 0.560496
vt 0.552734 0.559526
vt 0.591698 0.559526
vt 0.591698 0.560496
vt 0.601521 0.560456
vt 0.601521 0.559487
vt 0.641078 0.559487
vt 0.641078 0.560456
vt 0.725228 0.560855
vt 0.725228 0.559876
vt 0.779945 0.560855
vt 0.779945 0.559876
vt 0.231295 0.524105
vt 0.231295 0.523993
vt 0.287204 0.524105
vt 0.287204 0.523993
vt 0.374292 0.524404
vt 0.374292 0.524285
vt 0.412953 0.524404
vt 0.412953 0.524285
vt 0.423074 0.524404
vt 0.423074 0.524285
vt 0.463922 0.524404
vt 0.463922 0.524285
vt 0.552734 0.523806
vt 0.552734 0.523701
vt 0.591698 0.523806
vt 0.591698 0.523701
vt 0.601521 0.524404
vt 0.601521 0.524285
vt 0.641078 0.524404
vt 0.641078 0.524285
vt 0.725228 0.524404
vt 0.725228 0.524285
vt 0.779945 0.524404
vt 0.779945 0.524285
vt 0.231799 0.478781
vt 0.231799 0.477975
vt 0.286982 0.477975
vt 0.286982 0.478781
vt 0.374292 0.478781
vt 0.374292 0.477975
vt 0.414386 0.477975
vt 0.414386 0.478781
vt 0.423074 0.478781
vt 0.423074 0.477975
vt 0.463285 0.477975
vt 0.463285 0.478781
vt 0.552734 0.479130
vt 0.552734 0.477975
vt 0.592116 0.477975
vt 0.592116 0.479130
vt 0.601521 0.478781
vt 0.601521 0.477975
vt 0.641258 0.477975
vt 0.641258 0.478781
vt 0.725228 0.478781
vt 0.725228 0.477975
vt 0.779945 0.478781
vt 0.779945 0.477975
vt 0.231799 0.442760
vt 0.286982 0.442760
vt 0.374292 0.442339
vt 0.414386 0.442339
vt 0.423074 0.442339
vt 0.463285 0.442339
vt 0.552734 0.443914
vt 0.552734 0.442760
vt 0.592116 0.443914
vt 0.592116 0.442760
vt 0.601521 0.442760
vt 0.641258 0.442760
vt 0.725228 0.442760
vt 0.779945 0.442760
vt 0.231361 0.396972
vt 0.231361 0.396350
vt 0.287670 0.396350
vt 0.287670 0.396972
vt 0.374292 0.396972
vt 0.374292 0.396350
vt 0.412953 0.396350
vt 0.412953 0.396972
vt 0.423074 0.396972
vt 0.423074 0.396350
vt 0.462329 0.396350
vt 0.462329 0.396972
vt 0.552734 0.396972
vt 0.552734 0.396350
vt 0.590204 0.396350
vt 0.590204 0.396972
vt 0.601521 0.396972
vt 0.601521 0.396350
vt 0.639585 0.396350
vt 0.639585 0.396972
vt 0.725228 0.398095
vt 0.725228 0.397401
vt 0.779945 0.398095
vt 0.779945 0.397401
vt 0.231361 0.361848
vt 0.231361 0.361310
vt 0.287670 0.361848
vt 0.287670 0.361310
vt 0.374292 0.361432
vt 0.374292 0.360920
vt 0.412953 0.361432
vt 0.412953 0.360920
vt 0.423074 0.361328
vt 0.423074 0.360823
vt 0.462329 0.361328
vt 0.462329 0.360823
vt 0.552734 0.361848
vt 0.552734 0.361310
vt 0.590204 0.361848
vt 0.590204 0.361310
vt 0.601521 0.361848
vt 0.601521 0.361310
vt 0.639585 0.361848
vt 0.639585 0.361310
vt 0.725228 0.361848
vt 0.725228 0.361310
vt 0.779945 0.361848
vt 0.779945 0.361310
vt 0.233259 0.316471
vt 0.227976 0.315225
vt 0.287370 0.315225
vt 0.287370 0.316471
vt 0.374292 0.316471
vt 0.374292 0.315225
vt 0.412953 0.315225
vt 0.412953 0.316471
vt 0.423074 0.316471
vt 0.423074 0.315225
vt 0.461632 0.315225
vt 0.461632 0.316471
vt 0.552734 0.316471
vt 0.552734 0.315225
vt 0.591877 0.315225
vt 0.591877 0.316471
vt 0.601521 0.316471
vt 0.601521 0.315225
vt 0.639585 0.315225
vt 0.639585 0.316471
vt 0.725228 0.316471
vt 0.725228 0.315225
vt 0.778551 0.316471
vt 0.778551 0.315225
vt 0.233259 0.278972
vt 0.227976 0.280138
vt 0.287370 0.278972
vt 0.287370 0.280138
vt 0.374292 0.278972
vt 0.374292 0.280138
vt 0.412953 0.278972
vt 0.412953 0.280138
vt 0.423074 0.278972
vt 0.423074 0.280138
vt 0.460835 0.278972
vt 0.460835 0.280138
vt 0.552734 0.278972
vt 0.552734 0.280138
vt 0.591877 0.278972
vt 0.591877 0.280138
vt 0.601521 0.278972
vt 0.601521 0.280138
vt 0.639585 0.278972
vt 0.639585 0.280138
vt 0.725228 0.278972
vt 0.725228 0.280138
vt 0.778551 0.278972
vt 0.778551 0.280138
vt 0.231799 0.234230
vt 0.231799 0.233197
vt 0.286858 0.233197
vt 0.286858 0.234230
vt 0.374292 0.235412
vt 0.374292 0.234302
vt 0.412953 0.234302
vt 0.412953 0.235412
vt 0.423074 0.235412
vt 0.423074 0.234302
vt 0.462329 0.234302
vt 0.462329 0.235412
vt 0.551300 0.235412
vt 0.551300 0.234302
vt 0.590204 0.234302
vt 0.590204 0.235412
vt 0.600661 0.235412
vt 0.600661 0.234302
vt 0.638438 0.234302
vt 0.638438 0.235412
vt 0.723794 0.235412
vt 0.723794 0.234302
vt 0.778511 0.235412
vt 0.778511 0.234302
vt 0.231799 0.197164
vt 0.231799 0.198514
vt 0.286858 0.197164
vt 0.286858 0.198514
vt 0.374292 0.197164
vt 0.374292 0.198514
vt 0.412953 0.197164
vt 0.412953 0.198514
vt 0.423074 0.197164
vt 0.423074 0.198514
vt 0.462329 0.197164
vt 0.462329 0.198514
vt 0.551300 0.197164
vt 0.551300 0.198514
vt 0.590204 0.197164
vt 0.590204 0.198514
vt 0.600661 0.197164
vt 0.600661 0.198514
vt 0.638438 0.197164
vt 0.638438 0.198514
vt 0.723794 0.197164
vt 0.723794 0.198514
vt 0.778511 0.197164
vt 0.778511 0.198514
vt 0.231417 0.153004
vt 0.231417 0.152051
vt 0.287326 0.152051
vt 0.287326 0.153004
vt 0.374292 0.153177
vt 0.374292 0.152219
vt 0.412953 0.152219
vt 0.412953 0.153177
vt 0.423074 0.153177
vt 0.423074 0.152219
vt 0.462329 0.152219
vt 0.462329 0.153177
vt 0.552734 0.153696
vt 0.552734 0.152723
vt 0.591584 0.152723
vt 0.591584 0.153696
vt 0.600142 0.153696
vt 0.600142 0.152723
vt 0.638629 0.152723
vt 0.638629 0.153696
vt 0.723317 0.153696
vt 0.723317 0.152723
vt 0.778033 0.153696
vt 0.778033 0.152723
vt 0.231417 0.116440
vt 0.287326 0.116440
vt 0.374292 0.117113
vt 0.412953 0.117113
vt 0.423074 0.117113
vt 0.462329 0.117113
vt 0.552734 0.117113
vt 0.591584 0.117113
vt 0.600142 0.117113
vt 0.638629 0.117113
vt 0.723317 0.117113
vt 0.778033 0.117113
vt 0.231417 0.071484
vt 0.231417 0.070039
vt 0.287326 0.070039
vt 0.287326 0.071484
vt 0.374292 0.072462
vt 0.374292 0.070953
vt 0.412953 0.070953
vt 0.412953 0.072462
vt 0.423074 0.072462
vt 0.423074 0.070953
vt 0.462329 0.070953
vt 0.462329 0.072462
vt 0.552734 0.072347
vt 0.552734 0.070846
vt 0.590204 0.070846
vt 0.590204 0.072347
vt 0.601521 0.072347
vt 0.601521 0.070846
vt 0.639585 0.070846
vt 0.639585 0.072347
vt 0.724081 0.072347
vt 0.724081 0.070846
vt 0.778798 0.072347
vt 0.778798 0.070846
vt 0.231417 0.034399
vt 0.231417 0.035339
vt 0.287326 0.034399
vt 0.287326 0.035339
vt 0.374292 0.033709
vt 0.374292 0.034693
vt 0.412953 0.033709
vt 0.412953 0.034693
vt 0.423074 0.033709
vt 0.423074 0.034693
vt 0.462329 0.033709
vt 0.462329 0.034693
vt 0.552734 0.035262
vt 0.552734 0.036146
vt 0.590204 0.035262
vt 0.590204 0.036146
vt 0.601521 0.035262
vt 0.601521 0.036146
vt 0.639585 0.035262
vt 0.639585 0.036146
vt 0.724081 0.035262
vt 0.724081 0.036146
vt 0.778798 0.035262
vt 0.778798 0.036146
vt 0.000000 0.989419
vt 0.000000 0.980630
vt 0.016639 0.989419
vt 1.000000 0.989419
vt 1.000000 0.980630
vt 0.978369 0.989419
vt 1.000000 0.989419
vt 1.000000 0.999855
vt 0.000000 0.999855
vt 0.000000 0.989419
s 0
usemtl apartment_block6
f 30/44/1 18/20/1 308/578/1 307/575/1 17/19/1 19/22/1 20/23/1 21/26/1 22/27/1 23/30/1 24/31/1 25/34/1 26/35/1 27/38/1 28/39/1 29/42/1
f 40/64/1 41/66/1 29/42/1 28/39/1
f 38/60/1 39/62/1 27/38/1 26/35/1
f 36/56/1 37/58/1 25/34/1 24/31/1
f 34/52/1 35/54/1 23/30/1 22/27/1
f 32/48/1 33/50/1 21/26/1 20/23/1
f 43/70/1 44/71/1 32/48/1 31/46/1
f 44/71/1 45/74/1 33/50/1 32/48/1
f 45/74/1 46/75/1 34/52/1 33/50/1
f 46/75/1 47/78/1 35/54/1 34/52/1
f 47/78/1 48/79/1 36/56/1 35/54/1
f 48/79/1 49/82/1 37/58/1 36/56/1
f 49/82/1 50/83/1 38/60/1 37/58/1
f 50/83/1 51/86/1 39/62/1 38/60/1
f 51/86/1 52/87/1 40/64/1 39/62/1
f 52/87/1 53/90/1 41/66/1 40/64/1
f 53/90/1 54/92/1 42/68/1 41/66/1
f 64/112/1 65/114/1 53/90/1 52/87/1
f 62/108/1 63/110/1 51/86/1 50/83/1
f 60/104/1 61/106/1 49/82/1 48/79/1
f 58/100/1 59/102/1 47/78/1 46/75/1
f 56/96/1 57/98/1 45/74/1 44/71/1
f 67/118/1 68/119/1 56/96/1 55/94/1
f 68/119/1 69/122/1 57/98/1 56/96/1
f 69/122/1 70/123/1 58/100/1 57/98/1
f 70/123/1 71/126/1 59/102/1 58/100/1
f 71/126/1 72/127/1 60/104/1 59/102/1
f 72/127/1 73/130/1 61/106/1 60/104/1
f 73/130/1 74/131/1 62/108/1 61/106/1
f 74/131/1 75/134/1 63/110/1 62/108/1
f 75/134/1 76/135/1 64/112/1 63/110/1
f 76/135/1 77/138/1 65/114/1 64/112/1
f 77/138/1 78/140/1 66/116/1 65/114/1
f 88/160/1 89/162/1 77/138/1 76/135/1
f 86/156/1 87/158/1 75/134/1 74/131/1
f 84/152/1 85/154/1 73/130/1 72/127/1
f 82/148/1 83/150/1 71/126/1 70/123/1
f 80/144/1 81/146/1 69/122/1 68/119/1
f 91/166/1 92/167/1 80/144/1 79/142/1
f 92/167/1 93/170/1 81/146/1 80/144/1
f 93/170/1 94/171/1 82/148/1 81/146/1
f 94/171/1 95/174/1 83/150/1 82/148/1
f 95/174/1 96/175/1 84/152/1 83/150/1
f 96/175/1 97/178/1 85/154/1 84/152/1
f 97/178/1 98/179/1 86/156/1 85/154/1
f 98/179/1 99/182/1 87/158/1 86/156/1
f 99/182/1 100/183/1 88/160/1 87/158/1
f 100/183/1 101/186/1 89/162/1 88/160/1
f 101/186/1 102/188/1 90/164/1 89/162/1
f 112/208/1 113/210/1 101/186/1 100/183/1
f 110/204/1 111/206/1 99/182/1 98/179/1
f 108/200/1 109/202/1 97/178/1 96/175/1
f 106/196/1 107/198/1 95/174/1 94/171/1
f 104/192/1 105/194/1 93/170/1 92/167/1
f 115/214/1 116/215/1 104/192/1 103/190/1
f 116/215/1 117/218/1 105/194/1 104/192/1
f 117/218/1 118/219/1 106/196/1 105/194/1
f 118/219/1 119/222/1 107/198/1 106/196/1
f 119/222/1 120/223/1 108/200/1 107/198/1
f 120/223/1 121/226/1 109/202/1 108/200/1
f 121/226/1 122/227/1 110/204/1 109/202/1
f 122/227/1 123/230/1 111/206/1 110/204/1
f 123/230/1 124/231/1 112/208/1 111/206/1
f 124/231/1 125/234/1 113/210/1 112/208/1
f 125/234/1 126/236/1 114/212/1 113/210/1
f 136/256/1 137/258/1 125/234/1 124/231/1
f 134/252/1 135/254/1 123/230/1 122/227/1
f 132/248/1 133/250/1 121/226/1 120/223/1
f 130/244/1 131/246/1 119/222/1 118/219/1
f 128/240/1 129/242/1 117/218/1 116/215/1
f 139/262/1 140/263/1 128/240/1 127/238/1
f 140/263/1 141/266/1 129/242/1 128/240/1
f 141/266/1 142/267/1 130/244/1 129/242/1
f 142/267/1 143/270/1 131/246/1 130/244/1
f 143/270/1 144/271/1 132/248/1 131/246/1
f 144/271/1 145/274/1 133/250/1 132/248/1
f 145/274/1 146/275/1 134/252/1 133/250/1
f 146/275/1 147/278/1 135/254/1 134/252/1
f 147/278/1 148/279/1 136/256/1 135/254/1
f 148/279/1 149/282/1 137/258/1 136/256/1
f 149/282/1 150/284/1 138/260/1 137/258/1
f 160/304/1 161/306/1 149/282/1 148/279/1
f 158/300/1 159/302/1 147/278/1 146/275/1
f 156/296/1 157/298/1 145/274/1 144/271/1
f 154/292/1 155/294/1 143/270/1 142/267/1
f 152/288/1 153/290/1 141/266/1 140/263/1
f 163/310/1 164/311/1 152/288/1 151/286/1
f 164/311/1 165/314/1 153/290/1 152/288/1
f 165/314/1 166/315/1 154/292/1 153/290/1
f 166/315/1 167/318/1 155/294/1 154/292/1
f 167/318/1 168/319/1 156/296/1 155/294/1
f 168/319/1 169/322/1 157/298/1 156/296/1
f 169/322/1 170/323/1 158/300/1 157/298/1
f 170/323/1 171/326/1 159/302/1 158/300/1
f 171/326/1 172/327/1 160/304/1 159/302/1
f 172/327/1 173/330/1 161/306/1 160/304/1
f 173/330/1 174/332/1 162/308/1 161/306/1
f 184/344/1 185/345/1 173/330/1 172/327/1
f 182/342/1 183/343/1 171/326/1 170/323/1
f 180/338/1 181/340/1 169/322/1 168/319/1
f 178/336/1 179/337/1 167/318/1 166/315/1
f 176/334/1 177/335/1 165/314/1 164/311/1
f 187/348/1 188/349/1 176/334/1 175/333/1
f 188/349/1 189/352/1 177/335/1 176/334/1
f 189/352/1 190/353/1 178/336/1 177/335/1
f 190/353/1 191/356/1 179/337/1 178/336/1
f 191/356/1 192/357/1 180/338/1 179/337/1
f 192/357/1 193/360/1 181/340/1 180/338/1
f 193/360/1 194/361/1 182/342/1 181/340/1
f 194/361/1 195/364/1 183/343/1 182/342/1
f 195/364/1 196/365/1 184/344/1 183/343/1
f 196/365/1 197/368/1 185/345/1 184/344/1
f 197/368/1 198/370/1 186/346/1 185/345/1
f 208/390/1 209/392/1 197/368/1 196/365/1
f 206/386/1 207/388/1 195/364/1 194/361/1
f 204/382/1 205/384/1 193/360/1 192/357/1
f 202/378/1 203/380/1 191/356/1 190/353/1
f 200/374/1 201/376/1 189/352/1 188/349/1
f 211/396/1 212/397/1 200/374/1 199/372/1
f 212/397/1 213/400/1 201/376/1 200/374/1
f 213/400/1 214/401/1 202/378/1 201/376/1
f 214/401/1 215/404/1 203/380/1 202/378/1
f 215/404/1 216/405/1 204/382/1 203/380/1
f 216/405/1 217/408/1 205/384/1 204/382/1
f 217/408/1 218/409/1 206/386/1 205/384/1
f 218/409/1 219/412/1 207/388/1 206/386/1
f 219/412/1 220/413/1 208/390/1 207/388/1
f 220/413/1 221/416/1 209/392/1 208/390/1
f 221/416/1 222/418/1 210/394/1 209/392/1
f 232/438/1 233/440/1 221/416/1 220/413/1
f 230/434/1 231/436/1 219/412/1 218/409/1
f 228/430/1 229/432/1 217/408/1 216/405/1
f 226/426/1 227/428/1 215/404/1 214/401/1
f 224/422/1 225/424/1 213/400/1 212/397/1
f 235/444/1 236/445/1 224/422/1 223/420/1
f 236/445/1 237/448/1 225/424/1 224/422/1
f 237/448/1 238/449/1 226/426/1 225/424/1
f 238/449/1 239/452/1 227/428/1 226/426/1
f 239/452/1 240/453/1 228/430/1 227/428/1
f 240/453/1 241/456/1 229/432/1 228/430/1
f 241/456/1 242/457/1 230/434/1 229/432/1
f 242/457/1 243/460/1 231/436/1 230/434/1
f 243/460/1 244/461/1 232/438/1 231/436/1
f 244/461/1 245/464/1 233/440/1 232/438/1
f 245/464/1 246/466/1 234/442/1 233/440/1
f 256/486/1 257/488/1 245/464/1 244/461/1
f 254/482/1 255/484/1 243/460/1 242/457/1
f 252/478/1 253/480/1 241/456/1 240/453/1
f 250/474/1 251/476/1 239/452/1 238/449/1
f 248/470/1 249/472/1 237/448/1 236/445/1
f 259/492/1 260/493/1 248/470/1 247/468/1
f 260/493/1 261/496/1 249/472/1 248/470/1
f 261/496/1 262/497/1 250/474/1 249/472/1
f 262/497/1 263/500/1 251/476/1 250/474/1
f 263/500/1 264/501/1 252/478/1 251/476/1
f 264/501/1 265/504/1 253/480/1 252/478/1
f 265/504/1 266/505/1 254/482/1 253/480/1
f 266/505/1 267/508/1 255/484/1 254/482/1
f 267/508/1 268/509/1 256/486/1 255/484/1
f 268/509/1 269/512/1 257/488/1 256/486/1
f 269/512/1 270/514/1 258/490/1 257/488/1
f 280/524/1 281/525/1 269/512/1 268/509/1
f 278/522/1 279/523/1 267/508/1 266/505/1
f 276/520/1 277/521/1 265/504/1 264/501/1
f 274/518/1 275/519/1 263/500/1 262/497/1
f 272/516/1 273/517/1 261/496/1 260/493/1
f 283/528/1 284/529/1 272/516/1 271/515/1
f 284/529/1 285/532/1 273/517/1 272/516/1
f 285/532/1 286/533/1 274/518/1 273/517/1
f 286/533/1 287/536/1 275/519/1 274/518/1
f 287/536/1 288/537/1 276/520/1 275/519/1
f 288/537/1 289/540/1 277/521/1 276/520/1
f 289/540/1 290/541/1 278/522/1 277/521/1
f 290/541/1 291/544/1 279/523/1 278/522/1
f 291/544/1 292/545/1 280/524/1 279/523/1
f 292/545/1 293/548/1 281/525/1 280/524/1
f 293/548/1 294/550/1 282/526/1 281/525/1
f 304/570/1 305/572/1 293/548/1 292/545/1
f 302/566/1 303/568/1 291/544/1 290/541/1
f 300/562/1 301/564/1 289/540/1 288/537/1
f 298/558/1 299/560/1 287/536/1 286/533/1
f 296/554/1 297/556/1 285/532/1 284/529/1
f 43/70/1 31/46/1 19/22/1 17/19/1 1/1/1 5/7/1 295/552/1 283/528/1 271/515/1 259/492/1 247/468/1 235/444/1 223/420/1 211/396/1 199/372/1 187/348/1 175/333/1 163/310/1 151/286/1 139/262/1 127/238/1 115/214/1 103/190/1 91/166/1 79/142/1 67/118/1 55/94/1
f 18/20/1 30/44/1 42/68/1 54/92/1 66/116/1 78/140/1 90/164/1 102/188/1 114/212/1 126/236/1 138/260/1 150/284/1 162/308/1 174/332/1 186/346/1 198/370/1 210/394/1 222/418/1 234/442/1 246/466/1 258/490/1 270/514/1 282/526/1 294/550/1 306/574/1 16/18/1 2/2/1
f 5/7/1 6/8/1 296/554/1 295/552/1
f 6/8/1 7/9/1 297/556/1 296/554/1
f 7/9/1 8/10/1 298/558/1 297/556/1
f 8/10/1 9/11/1 299/560/1 298/558/1
f 9/11/1 10/12/1 300/562/1 299/560/1
f 10/12/1 11/13/1 301/564/1 300/562/1
f 11/13/1 12/14/1 302/566/1 301/564/1
f 12/14/1 13/15/1 303/568/1 302/566/1
f 13/15/1 14/16/1 304/570/1 303/568/1
f 14/16/1 15/17/1 305/572/1 304/570/1
f 15/17/1 16/18/1 306/574/1 305/572/1
f 312/584/1 309/581/1 310/582/1 311/583/1
f 307/576/2 308/579/2 309/581/2 312/584/2
f 4/5/3 3/3/3 311/583/3 310/582/3
f 3/4/4 307/577/4 312/584/4 311/583/4
f 308/580/5 4/6/5 310/582/5 309/581/5
usemtl apartment_block6-GLASS
f 41/65/1 42/67/1 30/43/1 29/41/1
f 39/61/1 40/63/1 28/40/1 27/37/1
f 37/57/1 38/59/1 26/36/1 25/33/1
f 35/53/1 36/55/1 24/32/1 23/29/1
f 33/49/1 34/51/1 22/28/1 21/25/1
f 31/45/1 32/47/1 20/24/1 19/21/1
f 65/113/1 66/115/1 54/91/1 53/89/1
f 63/109/1 64/111/1 52/88/1 51/85/1
f 61/105/1 62/107/1 50/84/1 49/81/1
f 59/101/1 60/103/1 48/80/1 47/77/1
f 57/97/1 58/99/1 46/76/1 45/73/1
f 55/93/1 56/95/1 44/72/1 43/69/1
f 89/161/1 90/163/1 78/139/1 77/137/1
f 87/157/1 88/159/1 76/136/1 75/133/1
f 85/153/1 86/155/1 74/132/1 73/129/1
f 83/149/1 84/151/1 72/128/1 71/125/1
f 81/145/1 82/147/1 70/124/1 69/121/1
f 79/141/1 80/143/1 68/120/1 67/117/1
f 113/209/1 114/211/1 102/187/1 101/185/1
f 111/205/1 112/207/1 100/184/1 99/181/1
f 109/201/1 110/203/1 98/180/1 97/177/1
f 107/197/1 108/199/1 96/176/1 95/173/1
f 105/193/1 106/195/1 94/172/1 93/169/1
f 103/189/1 104/191/1 92/168/1 91/165/1
f 137/257/1 138/259/1 126/235/1 125/233/1
f 135/253/1 136/255/1 124/232/1 123/229/1
f 133/249/1 134/251/1 122/228/1 121/225/1
f 131/245/1 132/247/1 120/224/1 119/221/1
f 129/241/1 130/243/1 118/220/1 117/217/1
f 127/237/1 128/239/1 116/216/1 115/213/1
f 161/305/1 162/307/1 150/283/1 149/281/1
f 159/301/1 160/303/1 148/280/1 147/277/1
f 157/297/1 158/299/1 146/276/1 145/273/1
f 155/293/1 156/295/1 144/272/1 143/269/1
f 153/289/1 154/291/1 142/268/1 141/265/1
f 151/285/1 152/287/1 140/264/1 139/261/1
f 185/345/1 186/346/1 174/331/1 173/329/1
f 183/343/1 184/344/1 172/328/1 171/325/1
f 181/339/1 182/341/1 170/324/1 169/321/1
f 179/337/1 180/338/1 168/320/1 167/317/1
f 177/335/1 178/336/1 166/316/1 165/313/1
f 175/333/1 176/334/1 164/312/1 163/309/1
f 209/391/1 210/393/1 198/369/1 197/367/1
f 207/387/1 208/389/1 196/366/1 195/363/1
f 205/383/1 206/385/1 194/362/1 193/359/1
f 203/379/1 204/381/1 192/358/1 191/355/1
f 201/375/1 202/377/1 190/354/1 189/351/1
f 199/371/1 200/373/1 188/350/1 187/347/1
f 233/439/1 234/441/1 222/417/1 221/415/1
f 231/435/1 232/437/1 220/414/1 219/411/1
f 229/431/1 230/433/1 218/410/1 217/407/1
f 227/427/1 228/429/1 216/406/1 215/403/1
f 225/423/1 226/425/1 214/402/1 213/399/1
f 223/419/1 224/421/1 212/398/1 211/395/1
f 257/487/1 258/489/1 246/465/1 245/463/1
f 255/483/1 256/485/1 244/462/1 243/459/1
f 253/479/1 254/481/1 242/458/1 241/455/1
f 251/475/1 252/477/1 240/454/1 239/451/1
f 249/471/1 250/473/1 238/450/1 237/447/1
f 247/467/1 248/469/1 236/446/1 235/443/1
f 281/525/1 282/526/1 270/513/1 269/511/1
f 279/523/1 280/524/1 268/510/1 267/507/1
f 277/521/1 278/522/1 266/506/1 265/503/1
f 275/519/1 276/520/1 264/502/1 263/499/1
f 273/517/1 274/518/1 262/498/1 261/495/1
f 271/515/1 272/516/1 260/494/1 259/491/1
f 305/571/1 306/573/1 294/549/1 293/547/1
f 303/567/1 304/569/1 292/546/1 291/543/1
f 301/563/1 302/565/1 290/542/1 289/539/1
f 299/559/1 300/561/1 288/538/1 287/535/1
f 297/555/1 298/557/1 286/534/1 285/531/1
f 295/551/1 296/553/1 284/530/1 283/527/1
