# Blender 3.3.1
# www.blender.org
mtllib apartments2_side.mtl
o apartments2_side
v -0.709395 -2.498996 -0.000000
v 0.709395 -2.498996 -0.000000
v -0.709395 2.498996 0.000000
v 0.709395 2.498996 0.000000
v -0.201618 -2.498996 -0.000000
v -0.201618 2.498996 0.000000
v -0.037873 -2.498996 -0.000000
v -0.037873 2.502457 0.000000
v 0.059271 -2.498996 -0.000000
v 0.059271 2.502457 0.000000
v 0.220562 -2.498996 -0.000000
v 0.220562 2.498996 0.000000
v -0.201618 2.396773 0.000000
v -0.037873 2.396773 0.000000
v 0.059271 2.396773 0.000000
v 0.220562 2.396773 0.000000
v -0.201618 2.241731 0.000000
v 0.220562 2.241731 0.000000
v 0.059271 2.241731 0.000000
v -0.037873 2.241731 0.000000
v -0.201618 2.099634 0.000000
v -0.037873 2.099634 0.000000
v 0.059271 2.099634 0.000000
v 0.220562 2.099634 0.000000
v -0.201618 1.950100 0.000000
v 0.220562 1.950100 0.000000
v 0.059271 1.950100 0.000000
v -0.037873 1.950100 0.000000
v -0.037873 1.810052 0.000000
v 0.059271 1.810052 0.000000
v 0.220562 1.810052 0.000000
v -0.201618 1.810052 0.000000
v -0.201618 1.661424 0.000000
v 0.220562 1.661424 0.000000
v 0.059271 1.661424 0.000000
v -0.037873 1.661424 0.000000
v 0.059271 1.519516 0.000000
v 0.220562 1.519516 0.000000
v -0.201618 1.519516 0.000000
v -0.037873 1.519516 0.000000
v -0.201618 1.370677 0.000000
v 0.220562 1.370677 0.000000
v 0.059271 1.370677 0.000000
v -0.037873 1.370677 0.000000
v 0.059271 1.229591 0.000000
v 0.220562 1.229591 0.000000
v -0.201618 1.229591 0.000000
v -0.037873 1.229591 0.000000
v -0.201618 1.082136 0.000000
v 0.220562 1.082137 0.000000
v 0.059271 1.082136 0.000000
v -0.037873 1.082136 0.000000
v 0.059271 0.946476 0.000000
v 0.220562 0.946477 0.000000
v -0.201618 0.946476 0.000000
v -0.037873 0.946476 0.000000
v 0.220562 0.793483 0.000000
v 0.059271 0.793483 0.000000
v -0.037873 0.793483 0.000000
v -0.201618 0.793483 0.000000
v 0.059271 0.656296 0.000000
v 0.220562 0.656295 0.000000
v -0.201618 0.656296 0.000000
v -0.037873 0.656296 0.000000
v 0.220562 0.505102 0.000000
v 0.059271 0.505102 0.000000
v -0.037873 0.505102 0.000000
v -0.201618 0.505102 0.000000
v 0.059271 0.368030 0.000000
v 0.220562 0.368031 0.000000
v -0.201618 0.368030 0.000000
v -0.037873 0.368030 0.000000
v 0.220562 0.216837 0.000000
v 0.059271 0.216837 0.000000
v -0.037873 0.216838 0.000000
v -0.201618 0.216837 0.000000
v 0.220562 0.080804 0.000000
v -0.201618 0.080804 0.000000
v -0.037873 0.080804 0.000000
v 0.059271 0.080804 0.000000
v 0.220562 -0.067343 -0.000000
v 0.059271 -0.067343 -0.000000
v -0.037873 -0.067343 -0.000000
v -0.201618 -0.067343 -0.000000
v 0.220562 -0.206782 -0.000000
v -0.201618 -0.206782 -0.000000
v -0.037873 -0.206782 -0.000000
v 0.059271 -0.206782 -0.000000
v 0.220562 -0.357976 -0.000000
v 0.059271 -0.357976 -0.000000
v -0.037873 -0.357976 -0.000000
v -0.201618 -0.357976 -0.000000
v 0.220562 -0.495296 -0.000000
v -0.208795 -0.495296 -0.000000
v -0.042659 -0.495296 -0.000000
v 0.052626 -0.495296 -0.000000
v 0.052626 -0.641240 -0.000000
v -0.042659 -0.641240 -0.000000
v -0.208795 -0.641240 -0.000000
v 0.220562 -0.641240 -0.000000
v 0.220562 -0.781202 -0.000000
v -0.206403 -0.781202 -0.000000
v -0.045051 -0.781202 -0.000000
v 0.050964 -0.781202 -0.000000
v -0.045051 -0.930734 -0.000000
v -0.206403 -0.930734 -0.000000
v 0.220562 -0.930734 -0.000000
v 0.050964 -0.930734 -0.000000
v 0.220562 -1.065286 -0.000000
v -0.208983 -1.065286 -0.000000
v -0.044435 -1.065286 -0.000000
v 0.051677 -1.065286 -0.000000
v -0.043760 -1.212857 -0.000000
v -0.208532 -1.212857 -0.000000
v 0.220562 -1.212857 -0.000000
v 0.052459 -1.212857 -0.000000
v 0.220562 -1.352386 -0.000000
v -0.207782 -1.352386 -0.000000
v -0.043121 -1.352387 -0.000000
v 0.053198 -1.352386 -0.000000
v -0.042437 -1.501925 -0.000000
v -0.206978 -1.501925 -0.000000
v 0.220562 -1.501925 -0.000000
v 0.053990 -1.501925 -0.000000
v -0.214209 -1.640466 -0.000000
v -0.041803 -1.640466 -0.000000
v 0.054724 -1.640466 -0.000000
v 0.220562 -1.640466 -0.000000
v -0.041137 -1.786039 -0.000000
v -0.213426 -1.786038 -0.000000
v 0.220562 -1.786039 -0.000000
v 0.055495 -1.786039 -0.000000
v -0.211130 -1.924653 -0.000000
v -0.040502 -1.924653 -0.000000
v 0.056229 -1.924652 -0.000000
v 0.220562 -1.924653 -0.000000
v -0.039835 -2.070486 -0.000000
v -0.208715 -2.070486 -0.000000
v 0.220562 -2.070486 -0.000000
v 0.057002 -2.070487 -0.000000
v -0.213235 -2.215555 -0.000000
v -0.039171 -2.215555 -0.000000
v 0.057770 -2.215555 -0.000000
v 0.220562 -2.215555 -0.000000
v -0.211687 -2.359161 -0.000000
v 0.220562 -2.359161 -0.000000
v 0.058531 -2.359161 -0.000000
v -0.038513 -2.359161 -0.000000
v -0.201618 2.241731 -0.009807
v -0.201618 2.396773 -0.009807
v -0.037873 2.241731 -0.009807
v -0.037873 2.396773 -0.009807
v 0.059271 2.241731 -0.009807
v 0.059271 2.396773 -0.009807
v 0.220562 2.241731 -0.009807
v 0.220562 2.396773 -0.009807
v -0.201618 1.950100 -0.009807
v -0.201618 2.099634 -0.009807
v -0.037873 1.950100 -0.009807
v -0.037873 2.099634 -0.009807
v 0.059271 1.950100 -0.009807
v 0.059271 2.099634 -0.009807
v 0.220562 1.950100 -0.009807
v 0.220562 2.099634 -0.009807
v -0.037873 1.661424 -0.009807
v -0.037873 1.810052 -0.009807
v 0.059271 1.661424 -0.009807
v 0.059271 1.810052 -0.009807
v 0.220562 1.661424 -0.009807
v 0.220562 1.810052 -0.009807
v -0.201618 1.661424 -0.009807
v -0.201618 1.810052 -0.009807
v 0.059271 1.370677 -0.009807
v 0.059271 1.519516 -0.009807
v 0.220562 1.370677 -0.009807
v 0.220562 1.519516 -0.009807
v -0.201618 1.370677 -0.009807
v -0.201618 1.519516 -0.009807
v -0.037873 1.370677 -0.009807
v -0.037873 1.519516 -0.009807
v 0.059271 1.082136 -0.009807
v 0.059271 1.229591 -0.009807
v 0.220562 1.082137 -0.009807
v 0.220562 1.229591 -0.009807
v -0.201618 1.082136 -0.009807
v -0.201618 1.229591 -0.009807
v -0.037873 1.082136 -0.009807
v -0.037873 1.229591 -0.009807
v 0.059271 0.793483 -0.009807
v 0.059271 0.946476 -0.009807
v 0.220562 0.793483 -0.009807
v 0.220562 0.946477 -0.009807
v -0.201618 0.793483 -0.009807
v -0.201618 0.946476 -0.009807
v -0.037873 0.793483 -0.009807
v -0.037873 0.946476 -0.009807
v 0.059271 0.505102 -0.009807
v 0.059271 0.656296 -0.009807
v 0.220562 0.505102 -0.009807
v 0.220562 0.656295 -0.009807
v -0.201618 0.505102 -0.009807
v -0.201618 0.656296 -0.009807
v -0.037873 0.505102 -0.009807
v -0.037873 0.656296 -0.009807
v 0.059271 0.216837 -0.009807
v 0.059271 0.368030 -0.009807
v 0.220562 0.216837 -0.009807
v 0.220562 0.368031 -0.009807
v -0.201618 0.216837 -0.009807
v -0.201618 0.368030 -0.009807
v -0.037873 0.216838 -0.009807
v -0.037873 0.368030 -0.009807
v 0.220562 -0.067343 -0.009807
v 0.220562 0.080804 -0.009807
v -0.201618 -0.067343 -0.009807
v -0.201618 0.080804 -0.009807
v -0.037873 -0.067343 -0.009807
v -0.037873 0.080804 -0.009807
v 0.059271 -0.067343 -0.009807
v 0.059271 0.080804 -0.009807
v 0.220562 -0.357976 -0.009807
v 0.220562 -0.206782 -0.009807
v -0.201618 -0.357976 -0.009807
v -0.201618 -0.206782 -0.009807
v -0.037873 -0.357976 -0.009807
v -0.037873 -0.206782 -0.009807
v 0.059271 -0.357976 -0.009807
v 0.059271 -0.206782 -0.009807
v 0.220562 -0.641240 -0.009807
v 0.220562 -0.495296 -0.009807
v -0.208795 -0.641240 -0.009807
v -0.208795 -0.495296 -0.009807
v -0.042659 -0.641240 -0.009807
v -0.042659 -0.495296 -0.009807
v 0.052626 -0.641240 -0.009807
v 0.052626 -0.495296 -0.009807
v 0.220562 -0.930734 -0.009807
v 0.220562 -0.781202 -0.009807
v -0.206403 -0.930734 -0.009807
v -0.206403 -0.781202 -0.009807
v -0.045051 -0.930734 -0.009807
v -0.045051 -0.781202 -0.009807
v 0.050964 -0.930734 -0.009807
v 0.050964 -0.781202 -0.009807
v 0.220562 -1.212857 -0.009807
v 0.220562 -1.065286 -0.009807
v -0.208532 -1.212857 -0.009807
v -0.208983 -1.065286 -0.009807
v -0.043760 -1.212857 -0.009807
v -0.044435 -1.065286 -0.009807
v 0.052459 -1.212857 -0.009807
v 0.051677 -1.065286 -0.009807
v 0.220562 -1.501925 -0.009807
v 0.220562 -1.352386 -0.009807
v -0.206978 -1.501925 -0.009807
v -0.207782 -1.352386 -0.009807
v -0.042437 -1.501925 -0.009807
v -0.043121 -1.352387 -0.009807
v 0.053990 -1.501925 -0.009807
v 0.053198 -1.352386 -0.009807
v -0.213426 -1.786038 -0.009807
v -0.214209 -1.640466 -0.009807
v -0.041137 -1.786039 -0.009807
v -0.041803 -1.640466 -0.009807
v 0.055495 -1.786039 -0.009807
v 0.054724 -1.640466 -0.009807
v 0.220562 -1.786039 -0.009807
v 0.220562 -1.640466 -0.009807
v -0.208715 -2.070486 -0.009807
v -0.211130 -1.924653 -0.009807
v -0.039835 -2.070486 -0.009807
v -0.040502 -1.924653 -0.009807
v 0.057002 -2.070487 -0.009807
v 0.056229 -1.924652 -0.009807
v 0.220562 -2.070486 -0.009807
v 0.220562 -1.924653 -0.009807
v -0.211687 -2.359161 -0.009807
v -0.213235 -2.215555 -0.009807
v -0.038513 -2.359161 -0.009807
v -0.039171 -2.215555 -0.009807
v 0.058531 -2.359161 -0.009807
v 0.057770 -2.215555 -0.009807
v 0.220562 -2.359161 -0.009807
v 0.220562 -2.215555 -0.009807
vn -0.0000 -0.0000 1.0000
vn -0.0000 -1.0000 -0.0000
vn 1.0000 -0.0000 -0.0000
vn 1.0000 0.0054 -0.0000
vn -1.0000 -0.0000 -0.0000
vn -0.0000 1.0000 -0.0000
vn 1.0000 0.0053 -0.0000
vn -1.0000 -0.0046 -0.0000
vn 0.9999 0.0108 -0.0000
vn 0.9999 0.0166 -0.0000
vn 1.0000 0.0031 -0.0000
vt 0.000000 0.000000
vt 1.000000 0.000000
vt 0.000000 1.000000
vt 1.000000 1.000000
vt 0.357895 0.000000
vt 0.357895 1.000000
vt 0.473306 0.000000
vt 0.473306 1.000000
vt 0.541776 0.000000
vt 0.541776 1.000000
vt 0.655457 0.000000
vt 0.655458 1.000000
vt 0.357895 0.979547
vt 0.473306 0.979547
vt 0.541776 0.979547
vt 0.655458 0.979547
vt 0.357895 0.947834
vt 0.655458 0.947834
vt 0.541776 0.947834
vt 0.473306 0.947834
vt 0.357895 0.924313
vt 0.357895 0.919424
vt 0.473306 0.924313
vt 0.473306 0.919424
vt 0.541776 0.924313
vt 0.541776 0.919424
vt 0.655458 0.924313
vt 0.655458 0.919424
vt 0.357895 0.889527
vt 0.655458 0.889527
vt 0.541776 0.889527
vt 0.473306 0.889527
vt 0.473306 0.863796
vt 0.473306 0.861526
vt 0.473306 0.867114
vt 0.541776 0.861526
vt 0.541776 0.865018
vt 0.655458 0.861526
vt 0.655458 0.865018
vt 0.357895 0.863796
vt 0.357895 0.861526
vt 0.357895 0.867114
vt 0.357895 0.831907
vt 0.655458 0.831907
vt 0.541776 0.831907
vt 0.473306 0.831907
vt 0.541776 0.805951
vt 0.541776 0.803531
vt 0.541776 0.806831
vt 0.655458 0.805951
vt 0.655458 0.803531
vt 0.655458 0.806831
vt 0.357895 0.805951
vt 0.357895 0.803531
vt 0.357895 0.806831
vt 0.473306 0.805951
vt 0.473306 0.803531
vt 0.473306 0.806831
vt 0.357895 0.773770
vt 0.655458 0.773770
vt 0.541776 0.773770
vt 0.473306 0.773770
vt 0.541776 0.748003
vt 0.541776 0.745559
vt 0.541776 0.751495
vt 0.655458 0.748003
vt 0.655458 0.745559
vt 0.655458 0.751495
vt 0.357895 0.748003
vt 0.357895 0.745559
vt 0.357895 0.751495
vt 0.473306 0.748003
vt 0.473306 0.745559
vt 0.473306 0.751495
vt 0.357895 0.716074
vt 0.655458 0.716074
vt 0.541776 0.716074
vt 0.473306 0.716074
vt 0.541776 0.691165
vt 0.541776 0.691741
vt 0.541776 0.688947
vt 0.655458 0.691165
vt 0.655458 0.691741
vt 0.655458 0.688948
vt 0.357895 0.691165
vt 0.357895 0.691741
vt 0.357895 0.688947
vt 0.473306 0.691165
vt 0.473306 0.691741
vt 0.473306 0.688947
vt 0.655458 0.658356
vt 0.541776 0.658356
vt 0.473306 0.658356
vt 0.357895 0.658356
vt 0.541776 0.630924
vt 0.541776 0.633717
vt 0.655457 0.630924
vt 0.655457 0.633717
vt 0.357895 0.630924
vt 0.357895 0.633717
vt 0.473306 0.630924
vt 0.473306 0.633717
vt 0.655457 0.600692
vt 0.541776 0.600691
vt 0.473306 0.600691
vt 0.357895 0.600691
vt 0.541776 0.573283
vt 0.541776 0.578172
vt 0.655457 0.573283
vt 0.655457 0.578172
vt 0.357895 0.573283
vt 0.357895 0.578172
vt 0.473306 0.573283
vt 0.473306 0.578172
vt 0.655457 0.543051
vt 0.541776 0.543051
vt 0.473306 0.543051
vt 0.357895 0.543051
vt 0.655457 0.515850
vt 0.357895 0.515850
vt 0.473306 0.515850
vt 0.541776 0.515850
vt 0.655457 0.486227
vt 0.541776 0.486227
vt 0.473306 0.486227
vt 0.357895 0.486227
vt 0.655457 0.458345
vt 0.357895 0.458345
vt 0.473306 0.458345
vt 0.541776 0.458345
vt 0.655457 0.428113
vt 0.541776 0.428113
vt 0.473306 0.428113
vt 0.357895 0.428113
vt 0.655457 0.400655
vt 0.655457 0.404845
vt 0.357895 0.400655
vt 0.357895 0.404845
vt 0.473306 0.400655
vt 0.473306 0.404845
vt 0.541776 0.400655
vt 0.541776 0.404845
vt 0.541776 0.371472
vt 0.473306 0.371472
vt 0.357895 0.371472
vt 0.655457 0.371472
vt 0.655457 0.343486
vt 0.655457 0.350525
vt 0.357895 0.343486
vt 0.357895 0.350525
vt 0.473306 0.343486
vt 0.473306 0.350525
vt 0.541776 0.343486
vt 0.541776 0.350525
vt 0.473306 0.313585
vt 0.357895 0.313585
vt 0.655457 0.313585
vt 0.541776 0.313585
vt 0.655457 0.286681
vt 0.357895 0.286681
vt 0.473306 0.286681
vt 0.541776 0.286681
vt 0.473306 0.257173
vt 0.357895 0.257173
vt 0.655457 0.257173
vt 0.541776 0.257173
vt 0.655457 0.229273
vt 0.357895 0.229273
vt 0.473306 0.229273
vt 0.541776 0.229273
vt 0.473306 0.199372
vt 0.357895 0.199372
vt 0.655457 0.199372
vt 0.541776 0.199372
vt 0.357895 0.171669
vt 0.473306 0.171669
vt 0.541776 0.171669
vt 0.655457 0.171669
vt 0.473306 0.142561
vt 0.357895 0.142561
vt 0.655457 0.142561
vt 0.541776 0.142561
vt 0.357895 0.114844
vt 0.357895 0.120124
vt 0.473306 0.114844
vt 0.473306 0.120124
vt 0.541776 0.114844
vt 0.541776 0.120124
vt 0.655457 0.114844
vt 0.655457 0.120124
vt 0.473306 0.085684
vt 0.357895 0.085684
vt 0.655457 0.085684
vt 0.541776 0.085684
vt 0.357895 0.063716
vt 0.382797 0.056676
vt 0.357895 0.056676
vt 0.473306 0.063716
vt 0.473306 0.056676
vt 0.541776 0.063715
vt 0.541776 0.056676
vt 0.655457 0.063716
vt 0.655457 0.056676
vt 0.382797 0.027961
vt 0.357895 0.027961
vt 0.655457 0.027961
vt 0.541776 0.027961
vt 0.473306 0.027961
vt 0.357895 0.947834
vt 0.357895 0.979547
vt 0.473306 0.947834
vt 0.473306 0.979547
vt 0.541776 0.947834
vt 0.541776 0.979547
vt 0.655458 0.947834
vt 0.655458 0.979547
vt 0.357895 0.889527
vt 0.357895 0.919424
vt 0.473306 0.889527
vt 0.473306 0.919424
vt 0.541776 0.889527
vt 0.541776 0.919424
vt 0.655458 0.889527
vt 0.655458 0.919424
vt 0.473306 0.831907
vt 0.473306 0.861526
vt 0.473306 0.863622
vt 0.541776 0.831907
vt 0.541776 0.861526
vt 0.655458 0.831907
vt 0.655458 0.861526
vt 0.357895 0.831907
vt 0.357895 0.861526
vt 0.357895 0.863622
vt 0.541776 0.773770
vt 0.541776 0.803531
vt 0.541776 0.806831
vt 0.655458 0.773770
vt 0.655458 0.803531
vt 0.655458 0.806831
vt 0.357895 0.773770
vt 0.357895 0.803531
vt 0.357895 0.806831
vt 0.473306 0.773770
vt 0.473306 0.803531
vt 0.473306 0.806831
vt 0.541776 0.716074
vt 0.541776 0.745559
vt 0.541776 0.751495
vt 0.655458 0.716074
vt 0.655458 0.745559
vt 0.655458 0.751495
vt 0.357895 0.716074
vt 0.357895 0.745559
vt 0.357895 0.751495
vt 0.473306 0.716074
vt 0.473306 0.745559
vt 0.473306 0.751495
vt 0.541776 0.658356
vt 0.541776 0.691741
vt 0.541776 0.688947
vt 0.655458 0.658356
vt 0.655458 0.691741
vt 0.655458 0.688948
vt 0.357895 0.658356
vt 0.357895 0.691741
vt 0.357895 0.688947
vt 0.473306 0.658356
vt 0.473306 0.691741
vt 0.473306 0.688947
vt 0.541776 0.600691
vt 0.541776 0.630924
vt 0.541776 0.633717
vt 0.655457 0.600692
vt 0.655457 0.630924
vt 0.655457 0.633717
vt 0.357895 0.600691
vt 0.357895 0.630924
vt 0.357895 0.633717
vt 0.473306 0.600691
vt 0.473306 0.630924
vt 0.473306 0.633717
vt 0.541776 0.543051
vt 0.541776 0.573283
vt 0.541776 0.578172
vt 0.655457 0.543051
vt 0.655457 0.573283
vt 0.655457 0.578172
vt 0.357895 0.543051
vt 0.357895 0.573283
vt 0.357895 0.578172
vt 0.473306 0.543051
vt 0.473306 0.573283
vt 0.473306 0.578172
vt 0.655457 0.486227
vt 0.655457 0.515850
vt 0.357895 0.486227
vt 0.357895 0.515850
vt 0.473306 0.486227
vt 0.473306 0.515850
vt 0.541776 0.486227
vt 0.541776 0.515850
vt 0.655457 0.428113
vt 0.655457 0.458345
vt 0.357895 0.428113
vt 0.357895 0.458345
vt 0.473306 0.428113
vt 0.473306 0.458345
vt 0.541776 0.428113
vt 0.541776 0.458345
vt 0.655457 0.371472
vt 0.655457 0.400655
vt 0.655457 0.404845
vt 0.357895 0.371472
vt 0.357895 0.400655
vt 0.357895 0.404845
vt 0.473306 0.371472
vt 0.473306 0.400655
vt 0.473306 0.404845
vt 0.541776 0.371472
vt 0.541776 0.400655
vt 0.541776 0.404845
vt 0.655457 0.313585
vt 0.655457 0.343486
vt 0.655457 0.350525
vt 0.357895 0.313585
vt 0.357895 0.343486
vt 0.357895 0.350525
vt 0.473306 0.313585
vt 0.473306 0.343486
vt 0.473306 0.350525
vt 0.541776 0.313585
vt 0.541776 0.343486
vt 0.541776 0.350525
vt 0.655457 0.257173
vt 0.655457 0.286681
vt 0.357895 0.257173
vt 0.357895 0.286681
vt 0.473306 0.257173
vt 0.473306 0.286681
vt 0.541776 0.257173
vt 0.541776 0.286681
vt 0.655457 0.199372
vt 0.655457 0.229273
vt 0.357895 0.199372
vt 0.357895 0.229273
vt 0.473306 0.199372
vt 0.473306 0.229273
vt 0.541776 0.199372
vt 0.541776 0.229273
vt 0.357895 0.142561
vt 0.357895 0.171669
vt 0.473306 0.142561
vt 0.473306 0.171669
vt 0.541776 0.142561
vt 0.541776 0.171669
vt 0.655457 0.142561
vt 0.655457 0.171669
vt 0.357895 0.085684
vt 0.357895 0.114844
vt 0.357895 0.120124
vt 0.473306 0.085684
vt 0.473306 0.114844
vt 0.473306 0.120124
vt 0.541776 0.085684
vt 0.541776 0.114844
vt 0.541776 0.120124
vt 0.655457 0.085684
vt 0.655457 0.114844
vt 0.655457 0.120124
vt 0.386703 0.027961
vt 0.357895 0.027961
vt 0.357895 0.063716
vt 0.386703 0.056676
vt 0.357895 0.056676
vt 0.473306 0.027961
vt 0.473306 0.063716
vt 0.473306 0.056676
vt 0.541776 0.027961
vt 0.541776 0.063715
vt 0.541776 0.056676
vt 0.655457 0.027961
vt 0.655457 0.063716
vt 0.655457 0.056676
s 0
usemtl apartments2_side
f 11/11/1 2/2/1 4/4/1 12/12/1 16/16/1 18/18/1 24/28/1 26/30/1 31/38/1 34/44/1 38/51/1 42/60/1 46/67/1 50/76/1 54/84/1 57/91/1 62/97/1 65/103/1 70/109/1 73/115/1 77/119/1 81/123/1 85/127/1 89/131/1 93/135/1 100/146/1 101/147/1 107/157/1 109/159/1 115/165/1 117/167/1 123/173/1 128/178/1 131/181/1 136/189/1 139/193/1 144/203/1 146/206/1
f 1/1/1 5/5/1 145/205/1 141/197/1 138/192/1 133/183/1 130/180/1 125/175/1 122/172/1 118/168/1 114/164/1 110/160/1 106/156/1 102/149/1 99/145/1 94/137/1 92/134/1 86/128/1 84/126/1 78/120/1 76/118/1 71/111/1 68/106/1 63/99/1 60/94/1 55/87/1 49/75/1 47/70/1 41/59/1 39/54/1 33/43/1 32/41/1 25/29/1 21/22/1 17/17/1 13/13/1 6/6/1 3/3/1
f 5/5/1 7/7/1 148/208/1 145/205/1
f 7/7/1 9/9/1 147/207/1 148/208/1
f 9/9/1 11/11/1 146/206/1 147/207/1
f 13/13/1 14/14/1 8/8/1 6/6/1
f 14/14/1 15/15/1 10/10/1 8/8/1
f 15/15/1 16/16/1 12/12/1 10/10/1
f 85/127/2 88/130/2 228/310/2 222/304/2
f 20/20/1 19/19/1 15/15/1 14/14/1
f 30/36/3 35/45/3 167/228/3 168/229/3
f 21/22/1 22/24/1 20/20/1 17/17/1
f 22/24/1 23/26/1 19/19/1 20/20/1
f 23/26/1 24/28/1 18/18/1 19/19/1
f 118/168/4 122/172/4 255/345/4 256/346/4
f 28/32/1 27/31/1 23/26/1 22/24/1
f 36/46/5 29/34/5 166/226/5 165/225/5
f 32/40/1 29/33/1 28/32/1 25/29/1
f 29/34/1 30/36/1 27/31/1 28/32/1
f 30/36/1 31/38/1 26/30/1 27/31/1
f 123/173/5 117/167/5 254/344/5 253/343/5
f 36/46/1 35/45/1 30/36/1 29/34/1
f 87/129/2 86/128/2 224/306/2 226/308/2
f 39/53/1 40/56/1 36/46/1 33/43/1
f 40/57/1 37/48/1 35/45/1 36/46/1
f 37/47/1 38/50/1 34/44/1 35/45/1
f 27/31/6 26/30/6 163/223/6 161/221/6
f 44/62/1 43/61/1 37/48/1 40/57/1
f 116/166/6 115/165/6 245/335/6 251/341/6
f 47/69/1 48/72/1 44/62/1 41/59/1
f 48/73/1 45/64/1 43/61/1 44/62/1
f 45/63/1 46/66/1 42/60/1 43/61/1
f 88/130/3 90/132/3 227/309/3 228/310/3
f 52/78/1 51/77/1 45/64/1 48/73/1
f 91/133/5 87/129/5 226/308/5 225/307/5
f 55/85/1 56/88/1 52/78/1 49/75/1
f 56/90/1 53/81/1 51/77/1 52/78/1
f 53/79/1 54/82/1 50/76/1 51/77/1
f 25/29/6 28/32/6 159/219/6 157/217/6
f 59/93/1 58/92/1 53/81/1 56/90/1
f 114/164/6 113/163/6 249/339/6 247/337/6
f 63/100/1 64/102/1 59/93/1 60/94/1
f 64/101/1 61/95/1 58/92/1 59/93/1
f 61/96/1 62/98/1 57/91/1 58/92/1
f 54/83/2 53/80/2 190/260/2 192/263/2
f 67/105/1 66/104/1 61/95/1 64/101/1
f 144/202/2 143/200/2 282/380/2 284/383/2
f 71/111/1 72/113/1 67/105/1 68/106/1
f 72/113/1 69/107/1 66/104/1 67/105/1
f 69/107/1 70/109/1 65/103/1 66/104/1
f 86/128/3 92/134/3 223/305/3 224/306/3
f 75/117/1 74/116/1 69/107/1 72/113/1
f 89/131/5 85/127/5 222/304/5 221/303/5
f 78/120/1 79/121/1 75/117/1 76/118/1
f 79/121/1 80/122/1 74/116/1 75/117/1
f 80/122/1 77/119/1 73/115/1 74/116/1
f 56/89/2 55/86/2 194/266/2 196/269/2
f 83/125/1 82/124/1 80/122/1 79/121/1
f 142/198/2 141/195/2 278/373/2 280/377/2
f 86/128/1 87/129/1 83/125/1 84/126/1
f 87/129/1 88/130/1 82/124/1 83/125/1
f 88/130/1 85/127/1 81/123/1 82/124/1
f 82/124/6 81/123/6 213/295/6 219/301/6
f 91/133/1 90/132/1 88/130/1 87/129/1
f 59/93/5 56/90/5 196/270/5 195/268/5
f 94/137/1 95/139/1 91/133/1 92/134/1
f 95/139/1 96/141/1 90/132/1 91/133/1
f 96/141/1 93/135/1 89/131/1 90/132/1
f 146/206/5 144/203/5 284/384/5 283/382/5
f 98/144/1 97/143/1 96/141/1 95/139/1
f 55/87/3 60/94/3 193/265/3 194/267/3
f 102/149/1 103/151/1 98/144/1 99/145/1
f 103/151/1 104/153/1 97/143/1 98/144/1
f 104/153/1 101/147/1 100/146/1 97/143/1
f 143/201/7 147/207/7 281/379/7 282/381/7
f 105/155/1 108/158/1 104/153/1 103/151/1
f 84/126/6 83/125/6 217/299/6 215/297/6
f 110/160/1 111/161/1 105/155/1 106/156/1
f 111/161/1 112/162/1 108/158/1 105/155/1
f 112/162/1 109/159/1 107/157/1 108/158/1
f 24/27/2 23/25/2 162/222/2 164/224/2
f 113/163/1 116/166/1 112/162/1 111/161/1
f 109/159/2 112/162/2 252/342/2 246/336/2
f 118/168/1 119/169/1 113/163/1 114/164/1
f 119/169/1 120/170/1 116/166/1 113/163/1
f 120/170/1 117/167/1 115/165/1 116/166/1
f 57/91/5 54/84/5 192/264/5 191/262/5
f 121/171/1 124/174/1 120/170/1 119/169/1
f 148/208/8 142/199/8 280/378/8 279/376/8
f 125/175/1 126/176/1 121/171/1 122/172/1
f 126/176/1 127/177/1 124/174/1 121/171/1
f 127/177/1 128/178/1 123/173/1 124/174/1
f 53/81/3 58/92/3 189/259/3 190/261/3
f 129/179/1 132/182/1 127/177/1 126/176/1
f 141/196/9 145/204/9 277/371/9 278/374/9
f 133/183/1 134/185/1 129/179/1 130/180/1
f 134/185/1 135/187/1 132/182/1 129/179/1
f 135/187/1 136/189/1 131/181/1 132/182/1
f 22/23/2 21/21/2 158/218/2 160/220/2
f 137/191/1 140/194/1 135/187/1 134/185/1
f 111/161/2 110/160/2 248/338/2 250/340/2
f 141/197/1 142/199/1 137/191/1 138/192/1
f 142/199/1 143/201/1 140/194/1 137/191/1
f 143/201/1 144/203/1 139/193/1 140/194/1
f 51/77/6 50/76/6 183/250/6 181/247/6
f 148/208/1 147/207/1 143/201/1 142/199/1
f 140/194/6 139/193/6 275/368/6 273/365/6
f 145/205/6 148/208/6 279/376/6 277/372/6
f 60/94/6 59/93/6 195/268/6 193/265/6
f 121/171/8 119/169/8 258/348/8 257/347/8
f 34/44/5 31/38/5 170/231/5 169/230/5
f 120/170/7 124/174/7 259/349/7 260/350/7
f 32/41/3 33/43/3 171/232/3 172/233/3
f 147/207/6 146/206/6 283/382/6 281/379/6
f 58/92/6 57/91/6 191/262/6 189/259/6
f 119/169/2 118/168/2 256/346/2 258/348/2
f 29/35/2 32/42/2 172/234/2 166/227/2
f 61/95/3 66/104/3 197/271/3 198/272/3
f 65/103/5 62/97/5 200/275/5 199/274/5
f 117/167/2 120/170/2 260/350/2 254/344/2
f 31/39/2 30/37/2 168/229/2 170/231/2
f 92/134/6 91/133/6 225/307/6 223/305/6
f 63/99/3 68/106/3 201/277/3 202/278/3
f 67/105/5 64/101/5 204/281/5 203/280/5
f 90/132/6 89/131/6 221/303/6 227/309/6
f 64/102/2 63/100/2 202/279/2 204/282/2
f 100/146/5 93/135/5 230/312/5 229/311/5
f 94/137/3 99/145/3 231/314/3 232/315/3
f 62/98/2 61/96/2 198/273/2 200/276/2
f 122/172/6 121/171/6 257/347/6 255/345/6
f 33/43/6 36/46/6 165/225/6 171/232/6
f 98/144/5 95/139/5 234/318/5 233/317/5
f 96/141/3 97/143/3 235/320/3 236/321/3
f 124/174/6 123/173/6 253/343/6 259/349/6
f 35/45/6 34/44/6 169/230/6 167/228/6
f 95/140/2 94/138/2 232/316/2 234/319/2
f 125/175/4 130/180/4 261/351/4 262/352/4
f 37/48/3 43/61/3 173/235/3 174/236/3
f 129/179/8 126/176/8 264/354/8 263/353/8
f 42/60/5 38/51/5 176/239/5 175/238/5
f 93/136/2 96/142/2 236/322/2 230/313/2
f 68/106/6 67/105/6 203/280/6 201/277/6
f 127/177/7 132/182/7 265/355/7 266/356/7
f 39/54/3 41/59/3 177/241/3 178/242/3
f 131/181/5 128/178/5 268/358/5 267/357/5
f 44/62/5 40/57/5 180/245/5 179/244/5
f 66/104/6 65/103/6 199/274/6 197/271/6
f 126/176/2 125/175/2 262/352/2 264/354/2
f 40/58/2 39/55/2 178/243/2 180/246/2
f 69/107/3 74/116/3 205/283/3 206/284/3
f 73/115/5 70/109/5 208/287/5 207/286/5
f 128/178/2 127/177/2 266/356/2 268/358/2
f 38/52/2 37/49/2 174/237/2 176/240/2
f 99/145/6 98/144/6 233/317/6 231/314/6
f 71/111/3 76/118/3 209/289/3 210/290/3
f 75/117/5 72/113/5 212/293/5 211/292/5
f 97/143/6 100/146/6 229/311/6 235/320/6
f 72/114/2 71/112/2 210/291/2 212/294/2
f 107/157/5 101/147/5 238/324/5 237/323/5
f 13/13/3 17/17/3 149/209/3 150/210/3
f 102/149/3 106/156/3 239/326/3 240/327/3
f 20/20/5 14/14/5 152/212/5 151/211/5
f 70/110/2 69/108/2 206/285/2 208/288/2
f 130/180/6 129/179/6 263/353/6 261/351/6
f 41/59/6 44/62/6 179/244/6 177/241/6
f 105/155/5 103/151/5 242/330/5 241/329/5
f 15/15/3 19/19/3 153/213/3 154/214/3
f 104/153/3 108/158/3 243/332/3 244/333/3
f 18/18/5 16/16/5 156/216/5 155/215/5
f 132/182/6 131/181/6 267/357/6 265/355/6
f 43/61/6 42/60/6 175/238/6 173/235/6
f 103/152/2 102/150/2 240/328/2 242/331/2
f 14/14/2 13/13/2 150/210/2 152/212/2
f 133/183/10 138/192/10 269/359/10 270/360/10
f 45/64/3 51/77/3 181/247/3 182/248/3
f 137/191/8 134/185/8 272/363/8 271/362/8
f 50/76/5 46/67/5 184/251/5 183/250/5
f 101/148/2 104/154/2 244/334/2 238/325/2
f 16/16/2 15/15/2 154/214/2 156/216/2
f 76/118/6 75/117/6 211/292/6 209/289/6
f 135/187/7 140/194/7 273/365/7 274/366/7
f 47/70/3 49/75/3 185/253/3 186/254/3
f 139/193/5 136/189/5 276/369/5 275/368/5
f 52/78/5 48/73/5 188/257/5 187/256/5
f 74/116/6 73/115/6 207/286/6 205/283/6
f 134/186/2 133/184/2 270/361/2 272/364/2
f 48/74/2 47/71/2 186/255/2 188/258/2
f 81/123/5 77/119/5 214/296/5 213/295/5
f 78/120/3 84/126/3 215/297/3 216/298/3
f 136/190/2 135/188/2 274/367/2 276/370/2
f 46/68/2 45/65/2 182/249/2 184/252/2
f 106/156/6 105/155/6 241/329/6 239/326/6
f 17/17/6 20/20/6 151/211/6 149/209/6
f 83/125/5 79/121/5 218/300/5 217/299/5
f 80/122/3 82/124/3 219/301/3 220/302/3
f 108/158/6 107/157/6 237/323/6 243/332/6
f 19/19/6 18/18/6 155/215/6 153/213/6
f 79/121/2 78/120/2 216/298/2 218/300/2
f 115/165/5 109/159/5 246/336/5 245/335/5
f 21/22/3 25/29/3 157/217/3 158/218/3
f 110/160/11 114/164/11 247/337/11 248/338/11
f 28/32/5 22/24/5 160/220/5 159/219/5
f 77/119/2 80/122/2 220/302/2 214/296/2
f 138/192/6 137/191/6 271/362/6 269/359/6
f 49/75/6 52/78/6 187/256/6 185/253/6
f 113/163/8 111/161/8 250/340/8 249/339/8
f 23/26/3 27/31/3 161/221/3 162/222/3
f 112/162/7 116/166/7 251/341/7 252/342/7
f 26/30/5 24/28/5 164/224/5 163/223/5
usemtl apartments2_side_GLASS
f 149/209/1 151/211/1 152/212/1 150/210/1
f 153/213/1 155/215/1 156/216/1 154/214/1
f 157/217/1 159/219/1 160/220/1 158/218/1
f 161/221/1 163/223/1 164/224/1 162/222/1
f 171/232/1 165/225/1 166/226/1 172/233/1
f 167/228/1 169/230/1 170/231/1 168/229/1
f 177/241/1 179/244/1 180/245/1 178/242/1
f 173/235/1 175/238/1 176/239/1 174/236/1
f 185/253/1 187/256/1 188/257/1 186/254/1
f 181/247/1 183/250/1 184/251/1 182/248/1
f 193/265/1 195/268/1 196/270/1 194/267/1
f 189/259/1 191/262/1 192/264/1 190/261/1
f 201/277/1 203/280/1 204/281/1 202/278/1
f 197/271/1 199/274/1 200/275/1 198/272/1
f 209/289/1 211/292/1 212/293/1 210/290/1
f 205/283/1 207/286/1 208/287/1 206/284/1
f 215/297/1 217/299/1 218/300/1 216/298/1
f 219/301/1 213/295/1 214/296/1 220/302/1
f 223/305/1 225/307/1 226/308/1 224/306/1
f 227/309/1 221/303/1 222/304/1 228/310/1
f 231/314/1 233/317/1 234/318/1 232/315/1
f 235/320/1 229/311/1 230/312/1 236/321/1
f 239/326/1 241/329/1 242/330/1 240/327/1
f 243/332/1 237/323/1 238/324/1 244/333/1
f 247/337/1 249/339/1 250/340/1 248/338/1
f 251/341/1 245/335/1 246/336/1 252/342/1
f 255/345/1 257/347/1 258/348/1 256/346/1
f 259/349/1 253/343/1 254/344/1 260/350/1
f 261/351/1 263/353/1 264/354/1 262/352/1
f 265/355/1 267/357/1 268/358/1 266/356/1
f 269/359/1 271/362/1 272/363/1 270/360/1
f 273/365/1 275/368/1 276/369/1 274/366/1
f 277/372/1 279/376/1 280/378/1 278/375/1
f 281/379/1 283/382/1 284/384/1 282/381/1
