# Blender 3.3.1
# www.blender.org
mtllib apartment_block5.mtl
o apartment_block5
v -2.498473 -0.942379 -0.000000
v 2.498473 -0.942379 -0.000000
v -2.498473 0.942379 0.000000
v 2.498473 0.942379 0.000000
v -2.181115 -0.942379 -0.000000
v -2.181115 0.942379 0.000000
v -1.146021 -0.942379 -0.000000
v -1.146021 0.942379 0.000000
v 1.229151 -0.942379 -0.000000
v 1.229150 0.942379 0.000000
v 2.231247 -0.942379 -0.000000
v 2.231247 0.942379 0.000000
v -0.121908 0.942379 0.000000
v -0.121908 -0.942379 -0.000000
v 0.235157 -0.942379 -0.000000
v 0.235157 0.942379 0.000000
v 0.235157 0.179315 0.000000
v -0.121908 0.179315 0.000000
v -0.121908 0.502580 0.000000
v 0.235157 0.502580 0.000000
v 0.235157 -0.407449 -0.000000
v -0.121908 -0.407449 -0.000000
v -0.121908 -0.728082 -0.000000
v 0.235157 -0.728082 -0.000000
v -0.121908 0.502580 -0.018603
v 0.235157 0.502580 -0.018603
v 0.235157 0.179315 -0.018603
v -0.121908 0.179315 -0.018603
v -0.121908 -0.407449 -0.018603
v 0.235157 -0.407449 -0.018603
v 0.235157 -0.728082 -0.018603
v -0.121908 -0.728082 -0.018603
v -1.146021 0.942379 -0.006460
v -2.181115 0.942379 -0.006460
v -2.181115 -0.942379 -0.006460
v -1.146021 -0.942379 -0.006460
v 2.231247 0.942379 -0.006460
v 1.229150 0.942379 -0.006460
v 1.229151 -0.942379 -0.006460
v 2.231247 -0.942379 -0.006460
v -1.708967 0.942379 -0.006460
v -1.708967 -0.942379 -0.006460
v -1.854243 -0.942379 -0.006460
v -1.854243 0.942379 -0.006460
v -1.647678 0.942379 -0.006460
v -1.647678 -0.942379 -0.006460
v 1.926836 0.942379 -0.006460
v 1.926836 -0.942379 -0.006460
v 1.790570 0.942379 -0.006460
v 1.790570 -0.942379 -0.006460
v -1.172624 -0.942379 -0.006460
v -1.172624 0.942379 -0.006460
v 1.257601 0.942379 -0.006460
v 1.257601 -0.942379 -0.006460
v -1.708967 -0.561355 -0.006460
v -1.854243 -0.561355 -0.006460
v -1.708967 -0.178071 -0.006460
v -1.854243 -0.178071 -0.006460
v -1.172624 -0.595484 -0.006460
v -1.647678 -0.595484 -0.006460
v -1.172624 -0.143943 -0.006460
v -1.647678 -0.143943 -0.006460
v 1.926836 -0.564611 -0.006460
v 1.790570 -0.564611 -0.006460
v 1.926836 -0.183951 -0.006460
v 1.790570 -0.183951 -0.006460
v 1.722615 -0.942379 -0.006460
v 1.722615 0.942379 -0.006460
v 1.257601 -0.597837 -0.006460
v 1.722615 -0.597837 -0.006460
v 1.257601 -0.151208 -0.006460
v 1.722615 -0.151208 -0.006460
v 1.257601 0.797612 -0.006460
v 1.722615 0.797612 -0.006460
v 1.722615 0.344212 -0.006460
v 1.257601 0.344212 -0.006460
v -1.172624 0.347889 -0.006460
v -1.647678 0.347889 -0.006460
v -1.172624 0.805008 -0.006460
v -1.647678 0.805008 -0.006460
v 1.926836 0.760722 -0.006460
v 1.790570 0.760721 -0.006460
v 1.790570 0.376044 -0.006460
v 1.926836 0.376044 -0.006460
v -1.708967 0.381575 -0.006460
v -1.854243 0.381575 -0.006460
v -1.708967 0.784749 -0.006460
v -1.854243 0.784749 -0.006460
v -0.121908 0.203644 -0.018603
v 0.235157 0.203644 -0.018603
v -1.708967 0.784749 -0.056231
v -1.855122 0.784749 -0.056231
v -0.121908 0.446886 -0.018603
v 0.235157 0.446886 -0.018603
v -0.072734 0.203644 -0.018603
v -0.072734 0.446886 -0.018603
v 0.191755 0.203644 -0.018603
v 0.191755 0.446886 -0.018603
v 0.235157 -0.459599 -0.018603
v -0.121908 -0.459599 -0.018603
v -0.121908 -0.697713 -0.018603
v 0.235157 -0.697712 -0.018603
v 0.188316 -0.459599 -0.018603
v 0.188316 -0.697712 -0.018603
v -0.079062 -0.459599 -0.018603
v -0.079062 -0.697713 -0.018603
vn -0.0000 -0.0000 1.0000
vn -1.0000 -0.0000 -0.0000
vn 1.0000 -0.0000 -0.0000
vn -0.0000 -1.0000 -0.0000
vn -0.0000 1.0000 -0.0000
vn -0.0000 0.1225 0.9925
vn 0.9998 -0.0000 -0.0177
vt 0.000000 0.000000
vt 1.000000 0.000000
vt 0.000000 1.000000
vt 1.000000 1.000000
vt 0.063510 0.000000
vt 0.063510 1.000000
vt 0.270656 0.000000
vt 0.270656 1.000000
vt 0.745980 0.000000
vt 0.745980 1.000000
vt 0.946522 0.000000
vt 0.946522 1.000000
vt 0.472891 1.000000
vt 0.475603 1.000000
vt 0.472891 0.000000
vt 0.475603 0.000000
vt 0.548752 0.000000
vt 0.547060 0.000000
vt 0.548752 1.000000
vt 0.547060 1.000000
vt 0.548752 0.595140
vt 0.547060 0.595140
vt 0.541172 0.610360
vt 0.541172 0.603678
vt 0.472891 0.595140
vt 0.475603 0.595140
vt 0.481541 0.603678
vt 0.481541 0.610360
vt 0.472891 0.766655
vt 0.475603 0.766655
vt 0.481541 0.753491
vt 0.548752 0.766655
vt 0.547060 0.766655
vt 0.541404 0.752658
vt 0.548752 0.283819
vt 0.547060 0.283819
vt 0.541058 0.266266
vt 0.472891 0.283819
vt 0.481605 0.266266
vt 0.482920 0.266266
vt 0.475603 0.283819
vt 0.472891 0.113700
vt 0.482920 0.124725
vt 0.475603 0.113700
vt 0.481605 0.124725
vt 0.548752 0.113700
vt 0.547060 0.113700
vt 0.541058 0.124725
vt 0.476680 0.766655
vt 0.479207 0.759093
vt 0.545830 0.766655
vt 0.543760 0.757780
vt 0.543507 0.604758
vt 0.543507 0.598075
vt 0.545830 0.595140
vt 0.479207 0.598075
vt 0.479207 0.604758
vt 0.476680 0.595140
vt 0.478597 0.273427
vt 0.477282 0.273427
vt 0.475603 0.283819
vt 0.544907 0.283819
vt 0.544066 0.273427
vt 0.544066 0.117564
vt 0.544907 0.113700
vt 0.477282 0.117564
vt 0.478597 0.117564
vt 0.475603 0.113700
vt 0.270656 1.000000
vt 0.063510 1.000000
vt 0.063510 0.000000
vt 0.270656 0.000000
vt 0.946522 1.000000
vt 0.745980 1.000000
vt 0.745980 0.000000
vt 0.946522 0.000000
vt 0.157998 1.000000
vt 0.157998 0.000000
vt 0.128925 0.000000
vt 0.128925 1.000000
vt 0.170263 1.000000
vt 0.170263 0.000000
vt 0.885603 1.000000
vt 0.885603 0.000000
vt 0.858333 1.000000
vt 0.858333 0.000000
vt 0.265332 0.000000
vt 0.265332 1.000000
vt 0.751674 1.000000
vt 0.751674 0.000000
vt 0.157998 0.202161
vt 0.128925 0.202161
vt 0.157998 0.405521
vt 0.128925 0.405521
vt 0.265332 0.184053
vt 0.170263 0.184053
vt 0.265332 0.423628
vt 0.170263 0.423628
vt 0.885603 0.200434
vt 0.858333 0.200433
vt 0.885603 0.402401
vt 0.858333 0.402401
vt 0.844734 0.000000
vt 0.844734 1.000000
vt 0.751674 0.182805
vt 0.844734 0.182805
vt 0.751674 0.419774
vt 0.844734 0.419774
vt 0.751674 0.923191
vt 0.844734 0.923191
vt 0.844734 0.682629
vt 0.751674 0.682629
vt 0.265332 0.684983
vt 0.170263 0.684983
vt 0.265332 0.927518
vt 0.170263 0.927518
vt 0.885603 0.903617
vt 0.858333 0.903617
vt 0.858333 0.699518
vt 0.885603 0.699518
vt 0.161416 0.704132
vt 0.125263 0.704132
vt 0.161660 0.916838
vt 0.125263 0.916838
vt 0.479207 0.616373
vt 0.476680 0.608048
vt 0.543507 0.616373
vt 0.545830 0.608048
vt 0.157998 0.888341
vt 0.133563 0.887045
vt 0.479207 0.732503
vt 0.476680 0.737105
vt 0.543507 0.732503
vt 0.545830 0.737105
vt 0.485444 0.608048
vt 0.485444 0.737105
vt 0.538374 0.608048
vt 0.538374 0.737105
vt 0.544907 0.259006
vt 0.544066 0.248076
vt 0.544907 0.256150
vt 0.477282 0.248076
vt 0.475603 0.259006
vt 0.475603 0.256150
vt 0.477282 0.132327
vt 0.475603 0.129813
vt 0.544066 0.132327
vt 0.544907 0.129813
vt 0.537686 0.259006
vt 0.537686 0.256150
vt 0.537686 0.129813
vt 0.484708 0.259006
vt 0.485196 0.256150
vt 0.484708 0.256150
vt 0.485196 0.129813
vt 0.484708 0.129813
s 0
usemtl apartment_block5
f 11/11/1 2/2/1 4/4/1 12/12/1
f 1/1/1 5/5/1 6/6/1 3/3/1
f 11/11/2 12/12/2 37/73/2 40/76/2
f 15/17/1 9/9/1 10/10/1 16/19/1 20/32/1 17/21/1 21/35/1 24/46/1
f 6/6/3 5/5/3 35/71/3 34/70/3
f 7/7/1 14/15/1 23/42/1 22/38/1 18/25/1 19/29/1 13/13/1 8/8/1
f 26/51/1 25/49/1 93/132/1 96/136/1 98/138/1 94/134/1
f 21/37/4 22/39/4 29/59/4 30/63/4
f 16/20/1 13/14/1 19/30/1 20/33/1
f 22/40/3 23/43/3 32/66/3 101/145/3 100/142/3 29/60/3
f 17/22/1 18/26/1 22/41/1 21/36/1
f 24/47/1 23/44/1 14/16/1 15/18/1
f 30/62/1 29/61/1 100/143/1 105/152/1 103/149/1 99/139/1
f 23/45/5 24/48/5 31/64/5 32/67/5
f 17/23/2 20/34/2 26/52/2 94/133/2 90/127/2 27/53/2
f 18/27/5 17/24/5 27/54/5 28/56/5
f 20/34/4 19/31/4 25/50/4 26/52/4
f 24/48/2 21/37/2 30/63/2 99/140/2 102/147/2 31/64/2
f 19/31/3 18/28/3 28/57/3 89/125/3 93/131/3 25/50/3
f 51/87/1 36/72/1 33/69/1 52/88/1 79/115/1 77/113/1 61/97/1 59/95/1
f 48/84/1 40/76/1 37/73/1 47/83/1 81/117/1 84/120/1 65/101/1 63/99/1
f 50/86/1 48/84/1 63/99/1 64/100/1
f 42/78/1 46/82/1 60/96/1 62/98/1 78/114/1 80/116/1 45/81/1 41/77/1 87/123/1 85/121/1 57/93/1 55/91/1
f 7/7/2 8/8/2 33/69/2 36/72/2
f 43/79/1 42/78/1 55/91/1 56/92/1
f 35/71/1 43/79/1 56/92/1 58/94/1 86/122/1 88/124/1 44/80/1 34/70/1
f 10/10/3 9/9/3 39/75/3 38/74/3
f 54/90/1 67/103/1 70/106/1 69/105/1
f 46/82/1 51/87/1 59/95/1 60/96/1
f 39/75/1 54/90/1 69/105/1 71/107/1 76/112/1 73/109/1 53/89/1 38/74/1
f 58/94/1 57/93/1 85/121/1 86/122/1
f 62/98/1 61/97/1 77/113/1 78/114/1
f 66/102/1 65/101/1 84/120/1 83/119/1
f 68/104/1 74/110/1 75/111/1 72/108/1 70/106/1 67/103/1 50/86/1 64/100/1 66/102/1 83/119/1 82/118/1 49/85/1
f 71/107/1 72/108/1 75/111/1 76/112/1
f 73/109/1 74/110/1 68/104/1 53/89/1
f 80/116/1 79/115/1 52/88/1 45/81/1
f 82/118/1 81/117/1 47/83/1 49/85/1
f 88/124/1 87/123/1 41/77/1 44/80/1
f 87/123/4 88/124/4 92/130/4 91/129/4
f 85/121/2 87/123/2 91/129/2
f 88/124/7 86/122/7 92/130/7
f 90/128/1 97/137/1 95/135/1 89/126/1 28/58/1 27/55/1
f 94/134/1 98/138/1 97/137/1 90/128/1
f 95/135/1 96/136/1 93/132/1 89/126/1
f 99/141/1 103/150/1 104/151/1 102/148/1
f 102/148/1 104/151/1 106/156/1 101/146/1 32/68/1 31/65/1
f 106/156/1 105/154/1 100/144/1 101/146/1
usemtl apartment_block5GLASS
f 56/92/1 55/91/1 57/93/1 58/94/1
f 60/96/1 59/95/1 61/97/1 62/98/1
f 86/122/6 85/121/6 91/129/6 92/130/6
f 64/100/1 63/99/1 65/101/1 66/102/1
f 69/105/1 70/106/1 72/108/1 71/107/1
f 76/112/1 75/111/1 74/110/1 73/109/1
f 78/114/1 77/113/1 79/115/1 80/116/1
f 83/119/1 84/120/1 81/117/1 82/118/1
f 97/137/1 98/138/1 96/136/1 95/135/1
f 104/151/1 103/150/1 105/153/1 106/155/1
