# Blender 3.3.1
# www.blender.org
mtllib building_dks-1.mtl
o building_dks-1
v -1.109558 -2.773628 0.059197
v 2.236008 -2.773628 0.059197
v -1.121903 2.233068 0.059197
v 2.248255 2.233068 0.059197
v 2.248255 -1.881303 0.059197
v -1.121903 -1.753398 -0.001762
v 0.416962 2.233068 0.059197
v 0.416962 -1.881303 0.059197
v 0.809830 2.233068 0.059197
v 0.809829 -1.881303 0.059197
v -0.840806 2.233068 0.059197
v -0.840806 -1.881303 0.059197
v 2.074420 2.233068 0.059197
v 2.074420 -1.881303 0.059197
v -0.840806 -1.756966 0.016954
v 0.416962 -1.756966 0.016954
v 0.416962 2.233068 -0.011346
v 2.074420 2.233068 -0.011346
v 0.809830 2.233068 -0.011346
v 0.809829 -1.756966 0.016954
v -0.840806 2.233068 -0.011346
v 2.074420 -1.756966 0.016954
v -0.840806 1.691524 0.017472
v -0.840806 2.008299 -0.011346
v 0.416962 2.017048 -0.011346
v 0.416962 1.691534 0.017472
v 2.074420 2.027065 -0.011346
v 0.809830 2.021585 -0.011346
v 2.074420 1.541400 0.017472
v 0.809830 1.691015 0.017472
v 2.074420 1.692390 0.017472
v -0.840806 0.455749 0.017472
v 0.416962 0.956560 0.016858
v -0.840806 1.540073 0.017472
v 0.416962 1.553682 0.017472
v 0.416962 0.455716 0.017472
v -0.840806 0.954978 0.016858
v 0.809830 1.550713 0.017472
v 2.074420 0.955202 0.016858
v 0.809830 0.952116 0.016858
v 0.416962 -0.524334 0.016954
v -0.840806 -0.524328 0.016954
v 2.074420 0.456205 0.017472
v 0.809829 0.456175 0.017472
v 0.809829 -0.517943 0.016954
v 2.074420 -0.517932 0.016954
v -0.840806 0.590976 0.017472
v 0.416962 0.590980 0.017472
v 2.074420 0.588948 0.017472
v 0.809830 0.588951 0.017472
v -0.840806 0.455749 -0.036036
v 0.416962 0.455716 -0.036036
v -0.840806 1.691524 -0.036036
v -0.840806 2.008299 -0.036036
v 0.416962 1.691534 -0.036036
v 0.416962 2.017048 -0.036036
v 2.074420 1.692390 -0.036036
v 2.074420 2.027065 -0.036036
v 0.809830 1.691015 -0.036036
v 0.809830 2.021585 -0.036036
v 2.074420 0.955202 -0.036036
v 2.074420 1.541400 -0.036036
v -0.840806 -0.524328 -0.036036
v 0.809830 0.952116 -0.036036
v 0.809830 1.550713 -0.036036
v 0.416962 -0.524334 -0.036036
v -0.840806 0.954978 -0.036036
v -0.840806 1.540073 -0.036036
v 0.416962 0.956560 -0.036036
v 0.416962 1.553682 -0.036036
v 2.074420 -0.517932 -0.036036
v 2.074420 0.456205 -0.036036
v 0.809829 -0.517943 -0.036036
v 0.809829 0.456175 -0.036036
v 0.322305 -1.890901 -0.038879
v 0.322305 -1.890901 0.014223
v 0.322305 2.231908 -0.038879
v 0.322305 2.231908 0.014223
v 0.897377 -1.890901 0.014223
v 0.418021 -1.890901 0.014223
v 0.897377 -1.890901 -0.038879
v 0.418021 2.231908 0.014223
v 0.897377 2.231908 -0.038879
v 0.897377 2.231908 0.014223
v 0.776312 -1.890901 0.014223
v 0.776312 2.231908 0.014223
v -0.745628 -1.890901 0.014223
v -0.745628 -1.890901 -0.038879
v -0.745628 2.231908 -0.038879
v -0.745628 2.231908 0.014223
v -0.864124 -1.890901 0.014223
v -0.864124 2.231908 0.014223
v 1.965311 -1.890901 -0.038879
v 1.965311 -1.890901 0.014223
v 1.965311 2.231908 -0.038879
v 1.965311 2.231908 0.014223
v 2.077783 -1.890901 0.014223
v 2.077783 2.231908 0.014223
v -1.080232 2.235727 0.092200
v -1.080232 -1.775502 0.092199
v -1.073061 2.235727 0.091064
v -1.073061 -1.775502 0.091064
v -1.066592 2.235727 0.087768
v -1.066592 -1.775502 0.087767
v -1.061458 2.235727 0.082634
v -1.061458 -1.775502 0.082633
v -1.058162 2.235727 0.076164
v -1.058162 -1.775502 0.076164
v -1.057026 2.235727 0.068993
v -1.057026 -1.775502 0.068993
v -1.058162 2.235727 0.061822
v -1.058162 -1.775502 0.061822
v -1.061458 2.235727 0.055353
v -1.061458 -1.775502 0.055353
v -1.066592 2.235727 0.050219
v -1.066592 -1.775502 0.050219
v -1.073061 2.235727 0.046923
v -1.073061 -1.775502 0.046923
v -1.080232 2.235727 0.045787
v -1.080232 -1.775502 0.045787
v -1.087403 2.235727 0.046923
v -1.087403 -1.775502 0.046923
v -1.093872 2.235727 0.050219
v -1.093872 -1.775502 0.050219
v -1.099006 2.235727 0.055353
v -1.099006 -1.775502 0.055353
v -1.102303 2.235727 0.061822
v -1.102303 -1.775502 0.061822
v -1.103438 2.235727 0.068993
v -1.103438 -1.775502 0.068993
v -1.102303 2.235727 0.076164
v -1.102303 -1.775502 0.076164
v -1.099006 2.235727 0.082634
v -1.099006 -1.775502 0.082633
v -1.093872 2.235727 0.087768
v -1.093872 -1.775502 0.087767
v -1.087403 2.235727 0.091064
v -1.087403 -1.775502 0.091064
v -1.121903 -1.753398 0.059197
v -1.034405 -1.753398 0.059197
v -1.034405 -1.881303 0.059197
v -1.034405 -2.773628 0.059197
v -1.109558 -2.773628 -0.001762
v -1.034405 -1.753398 -0.001762
v -1.034405 -2.773628 -0.001762
v -1.034405 -1.881303 -0.001762
v -1.064792 -1.825842 0.065921
v -1.071964 -1.826734 0.066625
v -1.058323 -1.823254 0.063881
v -1.053189 -1.819222 0.060703
v -1.049893 -1.814141 0.056698
v -1.048757 -1.808509 0.052259
v -1.049893 -1.802878 0.047820
v -1.053189 -1.797797 0.043815
v -1.058323 -1.793765 0.040637
v -1.064792 -1.791177 0.038596
v -1.071964 -1.790285 0.037893
v -1.079135 -1.791177 0.038596
v -1.085604 -1.793765 0.040637
v -1.090738 -1.797797 0.043815
v -1.094034 -1.802878 0.047820
v -1.095170 -1.808509 0.052259
v -1.094034 -1.814141 0.056698
v -1.090738 -1.819222 0.060703
v -1.085604 -1.823254 0.063881
v -1.079135 -1.825842 0.065921
v -1.057705 -1.842614 0.052058
v -1.064876 -1.842614 0.053194
v -1.051236 -1.842612 0.048762
v -1.046102 -1.842610 0.043628
v -1.042806 -1.842606 0.037159
v -1.041670 -1.842603 0.029987
v -1.042806 -1.842600 0.022816
v -1.046102 -1.842597 0.016347
v -1.051236 -1.842594 0.011213
v -1.057705 -1.842593 0.007917
v -1.064876 -1.842592 0.006781
v -1.072047 -1.842593 0.007917
v -1.078516 -1.842594 0.011213
v -1.083650 -1.842597 0.016347
v -1.086946 -1.842600 0.022816
v -1.088082 -1.842603 0.029987
v -1.086946 -1.842606 0.037159
v -1.083650 -1.842610 0.043628
v -1.078516 -1.842612 0.048762
v -1.072047 -1.842614 0.052058
v -1.055933 -2.710037 0.051610
v -1.063104 -2.710038 0.052746
v -1.049464 -2.710036 0.048314
v -1.044330 -2.710033 0.043180
v -1.041034 -2.710030 0.036711
v -1.039898 -2.710027 0.029540
v -1.041034 -2.710023 0.022369
v -1.044330 -2.710020 0.015900
v -1.049464 -2.710018 0.010766
v -1.055933 -2.710016 0.007470
v -1.063104 -2.710016 0.006334
v -1.070275 -2.710016 0.007470
v -1.076744 -2.710018 0.010766
v -1.081878 -2.710020 0.015900
v -1.085175 -2.710023 0.022369
v -1.086310 -2.710027 0.029540
v -1.085175 -2.710030 0.036711
v -1.081878 -2.710033 0.043180
v -1.076744 -2.710036 0.048314
v -1.070275 -2.710037 0.051610
v -1.060542 -2.748081 -0.027409
v -1.063104 -2.748477 -0.027320
v -1.058230 -2.746932 -0.027669
v -1.056396 -2.745143 -0.028074
v -1.055218 -2.742888 -0.028584
v -1.054812 -2.740389 -0.029150
v -1.055218 -2.737890 -0.029715
v -1.056396 -2.735636 -0.030226
v -1.058230 -2.733846 -0.030631
v -1.060542 -2.732697 -0.030891
v -1.063104 -2.732301 -0.030980
v -1.065667 -2.732697 -0.030891
v -1.067978 -2.733846 -0.030631
v -1.069813 -2.735636 -0.030226
v -1.070991 -2.737890 -0.029715
v -1.071396 -2.740389 -0.029150
v -1.070991 -2.742888 -0.028584
v -1.069813 -2.745143 -0.028074
v -1.067978 -2.746932 -0.027669
v -1.065667 -2.748081 -0.027409
v -0.206393 2.012712 -0.036036
v -0.206408 1.691529 -0.036036
v -0.184590 2.012863 -0.036036
v -0.184692 1.691529 -0.036036
v -0.684609 1.691525 -0.036036
v -0.684605 2.009386 -0.036036
v -0.206396 1.956608 -0.036036
v -0.684606 1.956608 -0.036036
v 0.293381 2.016188 -0.036036
v 0.293377 1.691533 -0.036036
v -0.184608 1.955916 -0.036036
v 0.293380 1.955919 -0.036036
v 1.402033 2.024151 -0.036036
v 1.402035 1.691659 -0.036036
v 0.935466 2.022130 -0.036036
v 0.935463 1.691152 -0.036036
v 1.402033 1.961095 -0.036036
v 0.935466 1.961091 -0.036036
v 1.446955 2.024346 -0.036036
v 1.446953 1.691708 -0.036036
v 1.904052 2.026327 -0.036036
v 1.904049 1.692204 -0.036036
v 1.904051 1.958002 -0.036036
v 1.446954 1.957999 -0.036036
v -0.212486 0.955768 -0.036036
v -0.212486 1.546871 -0.036036
v -0.171227 0.955820 -0.036036
v -0.171236 1.547317 -0.036036
v 0.294150 0.956405 -0.036036
v 0.285067 1.552255 -0.036036
v -0.171232 1.249996 -0.036036
v 0.289590 1.255552 -0.036036
v 0.039160 1.549594 -0.036036
v 0.032925 1.252457 -0.036036
v 0.078088 1.550015 -0.036036
v 0.079423 1.253018 -0.036036
v 0.037542 1.472464 -0.036036
v 0.078435 1.472777 -0.036036
v 0.286254 1.474370 -0.036036
v -0.171235 1.470863 -0.036036
v 0.289107 1.287213 -0.036036
v -0.171232 1.282761 -0.036036
v 0.079279 1.285183 -0.036036
v 0.033602 1.284742 -0.036036
v -0.171228 0.978813 -0.036036
v 0.293808 0.978814 -0.036036
v -0.212486 1.283875 -0.036036
v -0.745628 1.311822 0.014223
v -0.745628 1.278015 -0.038879
v -0.722667 1.283877 -0.036036
v -0.419134 1.544635 -0.036036
v -0.419124 1.283876 -0.036036
v -0.478604 1.283876 -0.036036
v -0.478609 1.543992 -0.036036
v -0.478608 1.462758 -0.036036
v -0.212486 1.462757 -0.036036
v -0.419131 1.462757 -0.036036
v -0.767676 1.462762 -0.036036
v -0.675607 1.462761 -0.036036
v -0.675613 1.283877 -0.036036
v 1.912904 0.954808 -0.036036
v 1.894105 1.542728 -0.036036
v 0.935004 1.549791 -0.036036
v 0.926525 0.952401 -0.036036
v 1.902432 1.282317 -0.036036
v 0.931099 1.274651 -0.036036
v 1.896445 1.469534 -0.036036
v 0.933836 1.467474 -0.036036
v 1.135536 1.276265 -0.036036
v 1.135537 1.467906 -0.036036
v 1.188041 1.276679 -0.036036
v 1.188042 1.468018 -0.036036
v 1.391919 1.278288 -0.036036
v 1.391921 1.468455 -0.036036
v 1.447000 1.278723 -0.036036
v 1.446999 1.468572 -0.036036
v 1.643761 1.468994 -0.036036
v 1.643761 1.280275 -0.036036
v 1.692571 1.280661 -0.036036
v 1.692571 1.469098 -0.036036
v 1.903853 1.237863 -0.036036
v 0.930577 1.237864 -0.036036
v 1.912190 0.977140 -0.036036
v 0.926877 0.977141 -0.036036
v 1.438094 1.237863 -0.036036
v 1.438105 0.977140 -0.036036
v 1.405221 1.237863 -0.036036
v 1.405235 0.977140 -0.036036
v -0.840806 0.378574 -0.036036
v 0.416962 0.378574 -0.036036
v 0.416962 0.215041 -0.036036
v -0.840806 0.186869 -0.036036
v -0.236454 0.378574 -0.036036
v -0.236454 0.200406 -0.036036
v -0.161553 0.378574 -0.036036
v -0.161553 0.202084 -0.036036
v 0.416962 0.169161 -0.036036
v -0.840806 0.169161 -0.036036
v -0.840806 -0.200967 -0.036036
v 0.416962 -0.200967 -0.036036
v -0.231893 0.169161 -0.036036
v -0.231893 -0.200967 -0.036036
v -0.153011 -0.200967 -0.036036
v -0.153011 0.169161 -0.036036
v -0.655280 0.169161 -0.036036
v -0.655280 -0.200967 -0.036036
v -0.651948 0.378574 -0.036036
v -0.651948 0.191100 -0.036036
v 0.256536 0.211448 -0.036036
v 0.256536 0.378574 -0.036036
v 0.271293 -0.200967 -0.036036
v 0.271293 0.169161 -0.036036
v 2.074420 0.386088 -0.036036
v 0.809829 0.386088 -0.036036
v 0.809829 0.217055 -0.036036
v 2.074420 0.217055 -0.036036
v 1.456182 0.386088 -0.036036
v 1.456182 0.217055 -0.036036
v 1.382129 0.386088 -0.036036
v 1.382129 0.217055 -0.036036
v 0.947473 0.386088 -0.036036
v 0.947473 0.217055 -0.036036
v 1.877959 0.217055 -0.036036
v 1.877959 0.386088 -0.036036
v 2.074420 0.171980 -0.036036
v 0.809829 0.171980 -0.036036
v 2.074420 -0.198283 -0.036036
v 0.809829 -0.198283 -0.036036
v 1.382129 0.171980 -0.036036
v 1.382129 -0.198283 -0.036036
v 1.464231 0.171980 -0.036036
v 1.464231 -0.198283 -0.036036
v 1.886008 -0.198283 -0.036036
v 1.886008 0.171980 -0.036036
v 0.958742 0.171980 -0.036036
v 0.958742 -0.198283 -0.036036
vn -0.0000 -0.0000 1.0000
vn 0.9999 0.0121 -0.0000
vn -1.0000 -0.0000 -0.0000
vn -0.0000 0.3217 0.9468
vn 1.0000 -0.0000 -0.0000
vn -0.0000 -1.0000 -0.0000
vn -0.0000 1.0000 -0.0000
vn -0.0024 1.0000 -0.0000
vn 0.0108 -0.9999 -0.0000
vn -0.0000 0.0017 1.0000
vn 0.0070 -1.0000 -0.0000
vn -0.0011 1.0000 -0.0000
vn -0.0013 1.0000 -0.0000
vn -0.0074 -1.0000 -0.0000
vn 0.0043 -1.0000 -0.0000
vn 0.1564 -0.0000 0.9877
vn 0.4540 -0.0000 0.8910
vn 0.7071 -0.0000 0.7071
vn 0.8910 -0.0000 0.4540
vn 0.9877 -0.0000 0.1564
vn 0.9877 -0.0000 -0.1564
vn 0.8910 -0.0000 -0.4540
vn 0.7071 -0.0000 -0.7071
vn 0.4540 -0.0000 -0.8910
vn 0.1564 -0.0000 -0.9877
vn -0.1564 -0.0000 -0.9877
vn -0.4540 -0.0000 -0.8910
vn -0.7071 -0.0000 -0.7071
vn -0.8910 -0.0000 -0.4540
vn -0.9877 -0.0000 -0.1564
vn -0.9877 -0.0000 0.1564
vn -0.8910 -0.0000 0.4540
vn -0.7071 -0.0000 0.7071
vn 0.8606 -0.0800 0.5029
vn -0.4540 -0.0000 0.8910
vn -0.1564 -0.0000 0.9877
vn 0.6685 -0.2931 0.6835
vn 0.4078 0.5736 -0.7104
vn -0.8449 -0.0063 -0.5348
vn -0.4156 -0.4617 0.7836
vn 0.4162 -0.3494 0.8395
vn 0.8402 0.4415 -0.3147
vn -0.4122 0.2600 -0.8732
vn -0.8588 -0.3571 0.3673
vn 0.9657 0.1024 0.2386
vn 0.1403 0.5237 -0.8403
vn -0.9583 -0.1339 -0.2525
vn -0.1410 -0.4605 0.8764
vn 0.6656 -0.2345 0.7085
vn 0.6468 0.5427 -0.5358
vn 0.1411 -0.4238 0.8947
vn -0.6531 0.1228 -0.7472
vn -0.6643 -0.4273 0.6133
vn 0.9568 0.2866 -0.0482
vn -0.1410 0.4046 -0.9035
vn -0.9647 -0.2554 0.0649
vn -0.9877 -0.0019 -0.1564
vn -0.6359 -0.5877 0.5003
vn -0.1408 0.4924 -0.8589
vn 0.8644 -0.1101 0.4906
vn -0.3948 -0.6642 0.6348
vn -0.4166 0.4234 -0.8045
vn 0.9720 0.0703 0.2243
vn -0.1353 -0.6694 0.7305
vn -0.6688 0.3095 -0.6760
vn 0.9691 0.2346 -0.0757
vn -0.8678 0.1487 -0.4740
vn 0.8570 0.3678 -0.3609
vn -0.9754 -0.0496 -0.2149
vn 0.6608 0.4603 -0.5929
vn 0.1384 -0.5991 0.7886
vn -0.9636 -0.2600 0.0623
vn 0.4132 0.5105 -0.7541
vn 0.4156 -0.4644 0.7821
vn -0.8384 -0.4482 0.3102
vn 0.1404 0.5208 -0.8420
vn -0.2761 -0.8744 0.3989
vn 0.7071 0.0018 -0.7071
vn 0.1564 -0.0002 0.9877
vn -0.9877 -0.0021 0.1564
vn 0.4540 0.0014 -0.8910
vn 0.4540 0.0005 0.8910
vn -0.8910 -0.0021 0.4540
vn 0.1564 0.0008 -0.9877
vn 0.7071 0.0011 0.7071
vn -0.7071 -0.0018 0.7071
vn -0.1564 0.0002 -0.9877
vn 0.8910 0.0016 0.4540
vn -0.4540 -0.0014 0.8910
vn -0.4540 -0.0005 -0.8910
vn 0.9877 0.0019 0.1564
vn -0.1564 -0.0008 0.9877
vn -0.7071 -0.0011 -0.7071
vn 0.9877 0.0021 -0.1564
vn -0.8910 -0.0016 -0.4540
vn 0.8910 0.0021 -0.4540
vn -0.3137 0.7964 -0.5170
vn 0.8866 -0.4616 0.0273
vn -0.0907 -0.8986 0.4294
vn -0.5675 0.6516 -0.5032
vn 0.9734 -0.0727 -0.2175
vn -0.8342 0.3592 -0.4185
vn 0.8341 0.3592 -0.4186
vn -0.9734 -0.0727 -0.2175
vn 0.5676 0.6517 -0.5032
vn 0.0907 -0.8986 0.4294
vn -0.8866 -0.4617 0.0273
vn 0.3137 0.7964 -0.5170
vn 0.2761 -0.8744 0.3989
vn -0.6856 -0.6956 0.2145
vn 0.0993 0.8528 -0.5128
vn 0.4736 -0.8158 0.3319
vn -0.4736 -0.8158 0.3320
vn -0.0993 0.8528 -0.5128
vn 0.6856 -0.6956 0.2145
vt 0.000974 0.203381
vt 0.025223 0.005595
vt 1.000000 0.000000
vt 0.000000 1.000000
vt 1.000000 1.000000
vt 1.000000 0.178226
vt 0.006222 -0.000716
vt 0.000000 0.203773
vt 0.456282 1.000000
vt 0.468641 1.000000
vt 0.468641 0.178226
vt 0.456282 0.178226
vt 0.573711 1.000000
vt 0.560484 1.000000
vt 0.560484 0.178226
vt 0.573711 0.178226
vt 0.073607 1.000000
vt 0.080331 1.000000
vt 0.073607 0.178226
vt 0.080331 0.178226
vt 0.951701 1.000000
vt 0.961222 1.000000
vt 0.961222 0.178226
vt 0.951701 0.178226
vt 0.086790 0.203060
vt 0.080331 0.203060
vt 0.457014 0.203060
vt 0.456282 0.203060
vt 0.457014 1.000000
vt 0.456282 1.000000
vt 0.951701 1.000000
vt 0.573711 1.000000
vt 0.560484 1.000000
vt 0.573711 0.203060
vt 0.080331 1.000000
vt 0.086790 1.000000
vt 0.951701 0.203061
vt 0.086790 0.891836
vt 0.080331 0.884270
vt 0.080331 0.891836
vt 0.086790 0.955106
vt 0.080331 0.955106
vt 0.457014 0.956854
vt 0.456282 0.956854
vt 0.457014 0.891838
vt 0.456282 0.884272
vt 0.456282 0.891838
vt 0.951701 0.958854
vt 0.951701 0.963413
vt 0.560484 0.957760
vt 0.573711 0.957760
vt 0.573711 0.962319
vt 0.951701 0.861852
vt 0.951701 0.870404
vt 0.560484 0.891734
vt 0.573711 0.884169
vt 0.573711 0.891734
vt 0.951701 0.892009
vt 0.951701 0.884443
vt 0.086790 0.645012
vt 0.080331 0.651228
vt 0.080331 0.645012
vt 0.457014 0.745040
vt 0.456282 0.750842
vt 0.456282 0.745040
vt 0.086790 0.861586
vt 0.080331 0.870139
vt 0.080331 0.861586
vt 0.457014 0.864304
vt 0.456282 0.872857
vt 0.456282 0.864304
vt 0.457014 0.645005
vt 0.456282 0.651222
vt 0.456282 0.645005
vt 0.086790 0.744724
vt 0.080331 0.750526
vt 0.080331 0.744724
vt 0.573711 0.863711
vt 0.573711 0.872264
vt 0.951701 0.750571
vt 0.951701 0.744769
vt 0.573711 0.749955
vt 0.573711 0.744152
vt 0.457014 0.449257
vt 0.456282 0.441383
vt 0.456282 0.449257
vt 0.086790 0.449258
vt 0.080331 0.449258
vt 0.080331 0.441384
vt 0.951701 0.645103
vt 0.951701 0.651319
vt 0.573711 0.645097
vt 0.573711 0.651313
vt 0.573711 0.442659
vt 0.573711 0.450534
vt 0.951701 0.442661
vt 0.951701 0.450536
vt 0.086790 0.672021
vt 0.080331 0.672021
vt 0.457014 0.672022
vt 0.456282 0.672022
vt 0.951701 0.671616
vt 0.573711 0.671616
vt 0.080331 0.645012
vt 0.456282 0.645005
vt 0.080331 0.891836
vt 0.080331 0.959665
vt 0.080331 0.955106
vt 0.456282 0.891838
vt 0.456282 0.961413
vt 0.456282 0.956854
vt 0.951701 0.892009
vt 0.951701 0.958854
vt 0.573711 0.891734
vt 0.573711 0.957760
vt 0.951701 0.744769
vt 0.951701 0.861852
vt 0.080331 0.449258
vt 0.573711 0.744152
vt 0.573711 0.863711
vt 0.456282 0.449257
vt 0.080331 0.744724
vt 0.080331 0.861586
vt 0.456282 0.745040
vt 0.456282 0.864304
vt 0.951701 0.450536
vt 0.951701 0.645103
vt 0.573711 0.450534
vt 0.573711 0.645097
vt 0.428721 0.176309
vt 0.440347 0.176309
vt 0.427988 0.176309
vt 0.428721 0.999768
vt 0.440347 0.999768
vt 0.427988 0.999768
vt 0.599879 0.176309
vt 0.456598 0.176309
vt 0.586652 0.176309
vt 0.456598 0.999768
vt 0.586652 0.999768
vt 0.599879 0.999768
vt 0.563692 0.176309
vt 0.563692 0.999768
vt 0.115239 0.176309
vt 0.108780 0.176309
vt 0.102056 0.176309
vt 0.102056 0.999768
vt 0.108780 0.999768
vt 0.115239 0.999768
vt 0.073361 0.176309
vt 0.073361 0.999768
vt 0.919088 0.176309
vt 0.928609 0.176309
vt 0.919088 0.176309
vt 0.919088 0.999768
vt 0.928609 0.999768
vt 0.919088 0.999768
vt 0.952706 0.176309
vt 0.952706 0.999768
vt 0.009515 1.000020
vt 0.008900 0.521754
vt 0.011010 1.000020
vt 0.010676 0.521754
vt 0.012359 1.000020
vt 0.012277 0.521754
vt 0.013429 1.000020
vt 0.013548 0.521754
vt 0.014117 1.000020
vt 0.014365 0.521754
vt 0.014353 1.000020
vt 0.014646 0.521754
vt 0.014117 1.000020
vt 0.014365 0.521754
vt 0.013429 1.000020
vt 0.013548 0.521754
vt 0.012359 1.000020
vt 0.012277 0.521754
vt 0.011010 1.000020
vt 0.010676 0.521754
vt 0.009515 1.000020
vt 0.008900 0.521754
vt 0.008020 1.000020
vt 0.007125 0.521754
vt 0.006672 1.000020
vt 0.005523 0.521754
vt 0.005601 1.000020
vt 0.004252 0.521754
vt 0.004914 1.000020
vt 0.003436 0.521754
vt 0.004677 1.000020
vt 0.003154 0.521754
vt 0.004914 1.000020
vt 0.003436 0.521754
vt 0.005601 1.000020
vt 0.004252 0.521754
vt 0.006672 1.000020
vt 0.005523 0.521754
vt 0.008020 1.000020
vt 0.007125 0.521754
vt 0.000981 -0.000260
vt 0.000000 0.203773
vt 0.025005 0.203773
vt 0.024430 0.202926
vt 0.025005 0.178226
vt 0.025415 0.000000
vt 0.022463 0.000000
vt 0.000000 0.005595
vt 0.000000 0.000000
vt 0.006222 0.203381
vt 0.025223 0.000000
vt 0.025005 0.203773
vt 0.022463 0.000000
vt 0.031283 0.000000
vt 0.000615 0.000000
vt 0.031978 0.203030
vt 0.025005 0.178226
vt 0.016041 0.192419
vt 0.014303 0.192273
vt 0.017608 0.192841
vt 0.018852 0.193499
vt 0.019651 0.194329
vt 0.019926 0.195248
vt 0.019651 0.196168
vt 0.018852 0.196997
vt 0.017608 0.197655
vt 0.016041 0.198078
vt 0.014303 0.198223
vt 0.012565 0.198078
vt 0.010998 0.197655
vt 0.009754 0.196997
vt 0.008955 0.196168
vt 0.008680 0.195248
vt 0.008955 0.194329
vt 0.009754 0.193499
vt 0.010998 0.192841
vt 0.012565 0.192419
vt 0.017758 0.189681
vt 0.016020 0.189681
vt 0.019326 0.189681
vt 0.020570 0.189681
vt 0.021368 0.189682
vt 0.021644 0.189683
vt 0.021368 0.189683
vt 0.020570 0.189683
vt 0.019326 0.189684
vt 0.017758 0.189684
vt 0.016020 0.189684
vt 0.014283 0.189684
vt 0.012715 0.189684
vt 0.011471 0.189683
vt 0.010672 0.189683
vt 0.010397 0.189683
vt 0.010672 0.189682
vt 0.011471 0.189681
vt 0.012715 0.189681
vt 0.014283 0.189681
vt 0.018811 0.013802
vt 0.016718 0.013802
vt 0.020699 0.013802
vt 0.022198 0.013802
vt 0.023160 0.013803
vt 0.023492 0.013804
vt 0.023160 0.013804
vt 0.022198 0.013805
vt 0.020699 0.013806
vt 0.018811 0.013806
vt 0.016718 0.013806
vt 0.014624 0.013806
vt 0.012736 0.013806
vt 0.011237 0.013805
vt 0.010275 0.013804
vt 0.009943 0.013804
vt 0.010275 0.013803
vt 0.011237 0.013802
vt 0.012736 0.013802
vt 0.014624 0.013802
vt 0.018388 0.005802
vt 0.017640 0.005724
vt 0.019063 0.006028
vt 0.019599 0.006380
vt 0.019943 0.006823
vt 0.020061 0.007315
vt 0.019943 0.007806
vt 0.019599 0.008249
vt 0.019063 0.008601
vt 0.018388 0.008827
vt 0.017640 0.008905
vt 0.016892 0.008827
vt 0.016217 0.008601
vt 0.015682 0.008249
vt 0.015338 0.007806
vt 0.015220 0.007315
vt 0.015338 0.006823
vt 0.015682 0.006380
vt 0.016217 0.006028
vt 0.016892 0.005802
vt 0.269959 0.960547
vt 0.269959 0.955988
vt 0.269954 0.891837
vt 0.276476 0.960577
vt 0.276476 0.956018
vt 0.276445 0.891837
vt 0.127018 0.891836
vt 0.127020 0.959882
vt 0.127020 0.955323
vt 0.269958 0.944782
vt 0.127019 0.944782
vt 0.419343 0.961241
vt 0.419343 0.956682
vt 0.419342 0.891838
vt 0.276470 0.944644
vt 0.419342 0.944644
vt 0.750722 0.958272
vt 0.750723 0.891863
vt 0.611264 0.957869
vt 0.611263 0.891762
vt 0.750722 0.945678
vt 0.611264 0.945677
vt 0.764149 0.958311
vt 0.764149 0.891873
vt 0.900777 0.958707
vt 0.900776 0.891972
vt 0.900777 0.945060
vt 0.764149 0.945060
vt 0.268137 0.744882
vt 0.268138 0.862944
vt 0.280470 0.744892
vt 0.280467 0.863033
vt 0.419573 0.745009
vt 0.416858 0.864019
vt 0.280469 0.803648
vt 0.418210 0.804758
vt 0.343355 0.863488
vt 0.341492 0.804140
vt 0.354991 0.863572
vt 0.355390 0.804252
vt 0.342872 0.848083
vt 0.355095 0.848145
vt 0.417213 0.848463
vt 0.280468 0.847763
vt 0.418065 0.811082
vt 0.280468 0.810193
vt 0.355347 0.810677
vt 0.341694 0.810588
vt 0.280470 0.749484
vt 0.419470 0.749485
vt 0.268138 0.810415
vt 0.108780 0.815997
vt 0.115239 0.815997
vt 0.102056 0.809245
vt 0.115643 0.810416
vt 0.206370 0.862498
vt 0.206373 0.810416
vt 0.188594 0.810416
vt 0.188592 0.862369
vt 0.188593 0.846144
vt 0.268138 0.846144
vt 0.206371 0.846144
vt 0.102190 0.846145
vt 0.129709 0.846145
vt 0.129707 0.810416
vt 0.903423 0.744690
vt 0.897804 0.862117
vt 0.611126 0.863527
vt 0.608592 0.744209
vt 0.900293 0.810104
vt 0.609959 0.808573
vt 0.898503 0.847498
vt 0.610777 0.847086
vt 0.671066 0.808895
vt 0.671066 0.847172
vt 0.686760 0.808978
vt 0.686760 0.847195
vt 0.747699 0.809299
vt 0.747700 0.847282
vt 0.764163 0.809386
vt 0.764163 0.847305
vt 0.822975 0.847389
vt 0.822976 0.809696
vt 0.837565 0.809773
vt 0.837565 0.847410
vt 0.900718 0.801225
vt 0.609803 0.801225
vt 0.903210 0.749150
vt 0.608697 0.749151
vt 0.761501 0.801225
vt 0.761504 0.749150
vt 0.751675 0.801225
vt 0.751679 0.749150
vt 0.080331 0.629597
vt 0.456282 0.629597
vt 0.456282 0.596934
vt 0.080331 0.591308
vt 0.260973 0.629597
vt 0.260973 0.594011
vt 0.283361 0.629597
vt 0.283361 0.594346
vt 0.456282 0.587771
vt 0.080331 0.587771
vt 0.080331 0.513844
vt 0.456282 0.513844
vt 0.262337 0.587771
vt 0.262337 0.513844
vt 0.285915 0.513844
vt 0.285915 0.587771
vt 0.135785 0.587771
vt 0.135785 0.513844
vt 0.136781 0.629597
vt 0.136781 0.592153
vt 0.408330 0.596217
vt 0.408330 0.629597
vt 0.412741 0.513844
vt 0.412741 0.587771
vt 0.951701 0.631098
vt 0.573711 0.631098
vt 0.573711 0.597337
vt 0.951701 0.597337
vt 0.766907 0.631098
vt 0.766907 0.597337
vt 0.744773 0.631098
vt 0.744773 0.597337
vt 0.614853 0.631098
vt 0.614853 0.597337
vt 0.892978 0.597337
vt 0.892978 0.631098
vt 0.951701 0.588334
vt 0.573711 0.588334
vt 0.951701 0.514380
vt 0.573711 0.514380
vt 0.744773 0.588334
vt 0.744773 0.514380
vt 0.769314 0.588334
vt 0.769313 0.514380
vt 0.895384 0.514380
vt 0.895384 0.588334
vt 0.618221 0.588334
vt 0.618221 0.514380
s 0
usemtl building_dks-1
f 146/216/1 144/211/1 6/8/1 143/208/1 145/212/1
f 139/200/2 1/1/2 143/209/2 6/7/2
f 7/9/1 8/12/1 10/16/1 9/13/1
f 33/63/3 48/100/3 36/72/3 41/84/3 16/27/3 8/11/3 7/10/3 17/29/3 25/43/3 26/45/3 35/69/3
f 10/16/4 14/24/4 22/37/4 20/34/4
f 13/21/1 14/24/1 5/6/1 4/5/1
f 19/32/1 28/51/1 27/48/1 18/31/1
f 21/35/1 24/42/1 25/44/1 17/30/1
f 37/75/5 34/66/5 23/38/5 24/41/5 21/36/5 11/17/5 12/19/5 15/25/5 42/87/5 32/60/5 47/98/5
f 10/15/5 20/34/5 45/95/5 44/92/5 50/103/5 40/83/5 38/78/5 30/55/5 28/50/5 19/33/5 9/14/5
f 56/111/1 235/309/1 238/312/1 236/310/1 55/109/1
f 12/20/4 8/12/4 16/28/4 15/26/4
f 29/53/3 39/81/3 49/102/3 43/90/3 46/97/3 22/37/3 14/23/3 13/22/3 18/31/3 27/48/3 31/58/3
f 26/47/1 23/40/1 34/68/1 35/71/1
f 36/73/6 32/61/6 51/104/6 52/105/6
f 41/86/1 42/88/1 15/26/1 16/28/1
f 23/39/7 26/46/7 55/109/7 236/310/7 230/302/7 228/299/7 231/303/7 53/106/7
f 31/58/1 30/57/1 38/78/1 29/53/1
f 40/82/8 39/80/8 61/116/8 287/362/8 290/365/8 64/119/8
f 32/62/5 42/88/5 63/118/5 325/400/5 324/399/5 318/393/5 315/390/5 51/104/5
f 35/70/9 34/67/9 68/123/9 280/355/9 277/352/9 252/326/9 254/328/9 259/333/9 261/335/9 256/330/9 70/125/9
f 33/65/10 37/77/10 47/99/10 48/101/10
f 39/81/10 40/83/10 50/103/10 49/102/10
f 25/44/11 24/42/11 54/107/11 232/304/11 227/297/11 229/300/11 235/308/11 56/110/11
f 46/97/1 45/95/1 20/34/1 22/37/1
f 48/101/1 47/99/1 32/62/1 36/74/1
f 49/102/1 50/103/1 44/92/1 43/90/1
f 58/113/1 247/321/1 249/323/1 248/322/1 57/112/1
f 52/105/1 51/104/1 315/390/1 333/408/1 319/394/1 321/396/1 336/411/1 316/391/1
f 70/125/1 256/330/1 265/339/1 267/341/1 258/332/1 272/346/1 255/329/1 69/124/1
f 62/117/1 288/363/1 293/368/1 291/366/1 307/382/1 309/384/1 287/362/1 61/116/1
f 72/127/1 74/129/1 340/415/1 347/422/1 345/420/1 343/418/1 350/425/1 339/414/1
f 45/94/7 46/96/7 71/126/7 73/128/7
f 38/78/5 40/83/5 64/119/5 65/120/5
f 31/58/3 27/48/3 58/113/3 57/112/3
f 30/56/12 31/59/12 57/112/12 248/322/12 246/320/12 240/314/12 242/316/12 59/114/12
f 42/89/7 41/85/7 66/121/7 63/118/7
f 28/51/5 30/57/5 59/114/5 60/115/5
f 41/86/3 36/74/3 52/105/3 316/391/3 317/392/3 323/398/3 326/401/3 66/121/3
f 46/97/3 43/90/3 72/127/3 339/414/3 342/417/3 351/426/3 353/428/3 71/126/3
f 39/81/3 29/53/3 62/117/3 61/116/3
f 37/76/13 33/64/13 69/124/13 255/329/13 253/327/13 251/325/13 67/122/13
f 24/42/5 23/40/5 53/106/5 54/108/5
f 34/68/5 37/77/5 67/122/5 68/123/5
f 44/92/5 45/95/5 73/128/5 354/429/5 352/427/5 341/416/5 340/415/5 74/129/5
f 29/54/14 38/79/14 65/120/14 289/364/14 288/363/14 62/117/14
f 26/47/3 25/44/3 56/111/3 55/109/3
f 33/65/3 35/71/3 70/125/3 69/124/3
f 43/91/6 44/93/6 74/129/6 72/127/6
f 27/49/15 28/52/15 60/115/15 241/315/15 239/313/15 245/319/15 247/321/15 58/113/15
f 75/130/3 76/131/3 78/134/3 77/133/3
f 86/143/1 85/142/1 79/136/1 84/141/1
f 88/146/5 275/350/5 274/349/5 87/144/5
f 81/138/5 83/140/5 84/141/5 79/136/5
f 92/151/1 91/150/1 87/145/1 274/348/1 90/148/1
f 82/139/1 78/135/1 76/132/1 80/137/1
f 93/152/3 94/153/3 96/156/3 95/155/3
f 98/159/1 96/157/1 94/154/1 97/158/1
f 99/160/16 100/161/16 102/163/16 101/162/16
f 101/162/17 102/163/17 104/165/17 103/164/17
f 103/164/18 104/165/18 106/167/18 105/166/18
f 105/166/19 106/167/19 108/169/19 107/168/19
f 107/168/20 108/169/20 110/171/20 109/170/20
f 109/170/21 110/171/21 112/173/21 111/172/21
f 111/172/22 112/173/22 114/175/22 113/174/22
f 113/174/23 114/175/23 116/177/23 115/176/23
f 115/176/24 116/177/24 118/179/24 117/178/24
f 117/178/25 118/179/25 120/181/25 119/180/25
f 119/180/26 120/181/26 122/183/26 121/182/26
f 121/182/27 122/183/27 124/185/27 123/184/27
f 123/184/28 124/185/28 126/187/28 125/186/28
f 125/186/29 126/187/29 128/189/29 127/188/29
f 127/188/30 128/189/30 130/191/30 129/190/30
f 129/190/31 130/191/31 132/193/31 131/192/31
f 131/192/32 132/193/32 134/195/32 133/194/32
f 133/194/33 134/195/33 136/197/33 135/196/33
f 108/169/34 106/167/34 150/220/34 151/221/34
f 135/196/35 136/197/35 138/199/35 137/198/35
f 137/198/36 138/199/36 100/161/36 99/160/36
f 142/205/3 141/203/3 146/215/3 145/213/3
f 139/201/1 140/202/1 12/20/1 11/18/1 3/4/1
f 141/204/1 142/206/1 2/3/1 5/6/1 14/24/1 10/16/1 8/12/1 12/20/1
f 140/202/1 141/204/1 12/20/1
f 140/202/6 139/201/6 6/8/6 144/211/6
f 141/204/3 140/202/3 144/211/3 146/216/3
f 1/2/7 142/207/7 145/214/7 143/210/7
f 150/220/37 149/219/37 169/239/37 170/240/37
f 118/179/38 116/177/38 155/225/38 156/226/38
f 128/189/39 126/187/39 160/230/39 161/231/39
f 138/199/40 136/197/40 165/235/40 166/236/40
f 104/165/41 102/163/41 147/217/41 149/219/41
f 114/175/42 112/173/42 153/223/42 154/224/42
f 124/185/43 122/183/43 158/228/43 159/229/43
f 134/195/44 132/193/44 163/233/44 164/234/44
f 110/171/45 108/169/45 151/221/45 152/222/45
f 120/181/46 118/179/46 156/226/46 157/227/46
f 130/191/47 128/189/47 161/231/47 162/232/47
f 100/161/48 138/199/48 166/236/48 148/218/48
f 106/167/49 104/165/49 149/219/49 150/220/49
f 116/177/50 114/175/50 154/224/50 155/225/50
f 102/163/51 100/161/51 148/218/51 147/217/51
f 126/187/52 124/185/52 159/229/52 160/230/52
f 136/197/53 134/195/53 164/234/53 165/235/53
f 112/173/54 110/171/54 152/222/54 153/223/54
f 122/183/55 120/181/55 157/227/55 158/228/55
f 132/193/56 130/191/56 162/232/56 163/233/56
f 182/252/57 181/251/57 201/271/57 202/272/57
f 165/235/58 164/234/58 184/254/58 185/255/58
f 158/228/59 157/227/59 177/247/59 178/248/59
f 151/221/60 150/220/60 170/240/60 171/241/60
f 166/236/61 165/235/61 185/255/61 186/256/61
f 159/229/62 158/228/62 178/248/62 179/249/62
f 152/222/63 151/221/63 171/241/63 172/242/63
f 148/218/64 166/236/64 186/256/64 168/238/64
f 160/230/65 159/229/65 179/249/65 180/250/65
f 153/223/66 152/222/66 172/242/66 173/243/66
f 161/231/67 160/230/67 180/250/67 181/251/67
f 154/224/68 153/223/68 173/243/68 174/244/68
f 162/232/69 161/231/69 181/251/69 182/252/69
f 155/225/70 154/224/70 174/244/70 175/245/70
f 147/217/71 148/218/71 168/238/71 167/237/71
f 163/233/72 162/232/72 182/252/72 183/253/72
f 156/226/73 155/225/73 175/245/73 176/246/73
f 149/219/74 147/217/74 167/237/74 169/239/74
f 164/234/75 163/233/75 183/253/75 184/254/75
f 157/227/76 156/226/76 176/246/76 177/247/76
f 206/276/77 205/275/77 225/295/77 226/296/77
f 175/245/78 174/244/78 194/264/78 195/265/78
f 167/237/79 168/238/79 188/258/79 187/257/79
f 183/253/80 182/252/80 202/272/80 203/273/80
f 176/246/81 175/245/81 195/265/81 196/266/81
f 169/239/82 167/237/82 187/257/82 189/259/82
f 184/254/83 183/253/83 203/273/83 204/274/83
f 177/247/84 176/246/84 196/266/84 197/267/84
f 170/240/85 169/239/85 189/259/85 190/260/85
f 185/255/86 184/254/86 204/274/86 205/275/86
f 178/248/87 177/247/87 197/267/87 198/268/87
f 171/241/88 170/240/88 190/260/88 191/261/88
f 186/256/89 185/255/89 205/275/89 206/276/89
f 179/249/90 178/248/90 198/268/90 199/269/90
f 172/242/91 171/241/91 191/261/91 192/262/91
f 168/238/92 186/256/92 206/276/92 188/258/92
f 180/250/93 179/249/93 199/269/93 200/270/93
f 173/243/94 172/242/94 192/262/94 193/263/94
f 181/251/95 180/250/95 200/270/95 201/271/95
f 174/244/96 173/243/96 193/263/96 194/264/96
f 199/269/97 198/268/97 218/288/97 219/289/97
f 192/262/98 191/261/98 211/281/98 212/282/98
f 188/258/99 206/276/99 226/296/99 208/278/99
f 200/270/100 199/269/100 219/289/100 220/290/100
f 193/263/101 192/262/101 212/282/101 213/283/101
f 201/271/102 200/270/102 220/290/102 221/291/102
f 194/264/103 193/263/103 213/283/103 214/284/103
f 202/272/104 201/271/104 221/291/104 222/292/104
f 195/265/105 194/264/105 214/284/105 215/285/105
f 187/257/106 188/258/106 208/278/106 207/277/106
f 203/273/107 202/272/107 222/292/107 223/293/107
f 196/266/108 195/265/108 215/285/108 216/286/108
f 189/259/109 187/257/109 207/277/109 209/279/109
f 204/274/110 203/273/110 223/293/110 224/294/110
f 197/267/111 196/266/111 216/286/111 217/287/111
f 190/260/112 189/259/112 209/279/112 210/280/112
f 205/275/113 204/274/113 224/294/113 225/295/113
f 198/268/114 197/267/114 217/287/114 218/288/114
f 191/261/115 190/260/115 210/280/115 211/281/115
f 230/302/1 237/311/1 229/301/1 227/298/1 233/306/1 228/299/1
f 231/303/1 234/307/1 232/305/1 54/108/1 53/106/1
f 234/307/1 233/306/1 227/298/1 232/305/1
f 237/311/1 238/312/1 235/309/1 229/301/1
f 242/316/1 244/318/1 241/315/1 60/115/1 59/114/1
f 244/318/1 243/317/1 239/313/1 241/315/1
f 246/320/1 250/324/1 245/319/1 239/313/1 243/317/1 240/314/1
f 250/324/1 249/323/1 247/321/1 245/319/1
f 251/325/1 273/347/1 278/353/1 279/354/1 286/361/1 276/351/1 68/123/1 67/122/1
f 253/327/1 271/345/1 257/331/1 268/342/1 266/340/1 254/328/1 252/326/1 282/357/1 273/347/1 251/325/1
f 255/329/1 272/346/1 271/345/1 253/327/1
f 257/331/1 260/334/1 270/344/1 268/342/1
f 259/333/1 263/337/1 264/338/1 261/335/1
f 261/335/1 264/338/1 265/339/1 256/330/1
f 266/340/1 263/337/1 259/333/1 254/328/1
f 264/338/1 263/337/1 270/344/1 269/343/1
f 269/343/1 270/344/1 260/334/1 262/336/1
f 267/341/1 269/343/1 262/336/1 258/332/1
f 68/123/1 284/359/1 285/360/1 281/356/1 280/355/1
f 274/349/5 275/350/5 89/147/5 90/149/5
f 277/352/1 283/358/1 282/357/1 252/326/1
f 280/355/1 281/356/1 283/358/1 277/352/1
f 283/358/1 281/356/1 279/354/1 278/353/1
f 286/361/1 285/360/1 284/359/1 68/123/1 276/351/1
f 287/362/1 309/384/1 312/387/1 314/389/1 310/385/1 290/365/1
f 290/365/1 310/385/1 308/383/1 292/367/1 294/369/1 289/364/1 65/120/1 64/119/1
f 294/369/1 296/371/1 298/373/1 300/375/1 302/377/1 303/378/1 306/381/1 293/368/1 288/363/1 289/364/1
f 296/371/1 295/370/1 297/372/1 298/373/1
f 300/375/1 299/374/1 301/376/1 302/377/1
f 303/378/1 304/379/1 305/380/1 306/381/1
f 308/383/1 313/388/1 311/386/1 307/382/1 291/366/1 305/380/1 304/379/1 301/376/1 299/374/1 297/372/1 295/370/1 292/367/1
f 313/388/1 314/389/1 312/387/1 311/386/1
f 316/391/1 336/411/1 335/410/1 317/392/1
f 317/392/1 335/410/1 322/397/1 320/395/1 334/409/1 318/393/1 324/399/1 331/406/1 327/402/1 330/405/1 338/413/1 323/398/1
f 322/397/1 321/396/1 319/394/1 320/395/1
f 323/398/1 338/413/1 337/412/1 326/401/1
f 326/401/1 337/412/1 329/404/1 328/403/1 332/407/1 325/400/1 63/118/1 66/121/1
f 329/404/1 330/405/1 327/402/1 328/403/1
f 332/407/1 331/406/1 324/399/1 325/400/1
f 334/409/1 333/408/1 315/390/1 318/393/1
f 339/414/1 350/425/1 349/424/1 342/417/1
f 342/417/1 349/424/1 344/419/1 346/421/1 348/423/1 341/416/1 352/427/1 361/436/1 355/430/1 357/432/1 360/435/1 351/426/1
f 344/419/1 343/418/1 345/420/1 346/421/1
f 348/423/1 347/422/1 340/415/1 341/416/1
f 351/426/1 360/435/1 359/434/1 353/428/1
f 353/428/1 359/434/1 358/433/1 356/431/1 362/437/1 354/429/1 73/128/1 71/126/1
f 358/433/1 357/432/1 355/430/1 356/431/1
f 362/437/1 361/436/1 352/427/1 354/429/1
usemtl building_dks-1GLASS
f 228/299/1 233/306/1 234/307/1 231/303/1
f 236/310/1 238/312/1 237/311/1 230/302/1
f 240/314/1 243/317/1 244/318/1 242/316/1
f 248/322/1 249/323/1 250/324/1 246/320/1
f 265/339/1 264/338/1 269/343/1 267/341/1
f 268/342/1 270/344/1 263/337/1 266/340/1
f 271/345/1 272/346/1 258/332/1 262/336/1 260/334/1 257/331/1
f 282/357/1 283/358/1 278/353/1 273/347/1
f 281/356/1 285/360/1 286/361/1 279/354/1
f 292/367/1 295/370/1 296/371/1 294/369/1
f 298/373/1 297/372/1 299/374/1 300/375/1
f 302/377/1 301/376/1 304/379/1 303/378/1
f 306/381/1 305/380/1 291/366/1 293/368/1
f 310/385/1 314/389/1 313/388/1 308/383/1
f 311/386/1 312/387/1 309/384/1 307/382/1
f 320/395/1 319/394/1 333/408/1 334/409/1
f 328/403/1 327/402/1 331/406/1 332/407/1
f 335/410/1 336/411/1 321/396/1 322/397/1
f 337/412/1 338/413/1 330/405/1 329/404/1
f 346/421/1 345/420/1 347/422/1 348/423/1
f 349/424/1 350/425/1 343/418/1 344/419/1
f 356/431/1 355/430/1 361/436/1 362/437/1
f 359/434/1 360/435/1 357/432/1 358/433/1
