# Blender 3.3.1
# www.blender.org
mtllib building_5c.mtl
o building_5c
v -2.495826 -0.000613 -0.000000
v 2.495826 -0.000613 -0.000000
v -2.495826 3.326382 0.000000
v 2.495826 3.326382 0.000000
v -1.756322 -0.000613 -0.000000
v -1.756322 3.326382 0.000000
v 0.554628 -0.000613 -0.000000
v 0.554628 3.326382 0.000000
v 2.289072 -0.000613 -0.000000
v 2.289072 3.326382 0.000000
v 1.049268 3.326382 0.000000
v 1.052264 -0.000613 -0.000000
v -1.756322 1.703720 0.000000
v 0.554628 1.703720 0.000000
v 2.289072 1.703720 0.000000
v 1.052264 1.703720 0.000000
v -1.756322 1.967960 0.000000
v 0.554628 1.967960 0.000000
v 2.289072 1.967960 0.000000
v 1.049268 1.967960 0.000000
v 2.289072 1.775484 0.197689
v -1.756322 1.775484 0.197689
v -1.756322 1.730420 0.197689
v 2.289072 1.730420 0.197689
v 0.554628 0.614351 -0.000000
v -1.756322 0.614351 -0.000000
v -1.684955 0.614351 -0.000000
v -1.684956 1.703720 0.000000
v 0.554628 0.614351 0.019739
v 0.554628 1.703720 0.019739
v -1.684955 0.614351 0.019739
v -1.684956 1.703720 0.019739
v 1.120696 -0.000613 -0.000000
v 1.120696 1.703720 0.000000
v 2.202892 -0.000613 -0.000000
v 2.202892 1.703720 0.000000
v 2.202892 0.076036 -0.000000
v 1.120696 0.076036 -0.000000
v 1.120696 1.612754 -0.000000
v 2.202892 1.612754 -0.000000
v 2.202892 1.612754 -0.043724
v 2.202892 0.076036 -0.043724
v 1.120696 1.612754 -0.043724
v 1.120696 0.076036 -0.043724
v 1.668033 0.845675 -0.018263
v 1.668033 0.845675 0.015097
v 1.668033 0.903408 -0.018263
v 1.668033 0.903408 0.015097
v 1.701393 0.845675 -0.018263
v 1.701393 0.845675 0.015097
v 1.701393 0.903408 -0.018263
v 1.701393 0.903408 0.015097
v 1.049268 3.166387 0.000000
v 2.289072 3.166387 0.000000
v 1.477470 3.326382 0.000000
v 1.477470 3.166387 0.000000
v 1.593446 3.326382 0.000000
v 1.593446 3.166387 0.000000
v 1.477470 3.253356 0.000130
v 1.593446 3.253356 0.000130
v 1.477470 3.166387 0.049125
v 1.593446 3.166387 0.049125
v 0.554628 0.786147 0.019739
v -1.684955 0.786147 0.019739
v 0.554628 1.290193 0.019739
v -1.684955 1.290193 0.019739
v -1.441066 0.786147 0.019739
v -1.441066 1.290193 0.019739
v -0.585614 0.786147 0.019739
v -0.585614 1.290193 0.019739
v -0.448989 0.786147 0.019739
v -0.448989 1.290193 0.019739
v 0.408976 0.786147 0.019739
v 0.408976 1.290193 0.019739
v 0.554628 1.336573 0.019739
v -1.684955 1.336573 0.019739
v 0.554628 1.532399 0.019739
v -1.684955 1.532399 0.019739
v -1.438489 1.336573 0.019739
v -1.438489 1.532399 0.019739
v -1.033953 1.336573 0.019739
v -1.033953 1.532399 0.019739
v -0.991118 1.336573 0.019739
v -0.991118 1.532399 0.019739
v -0.583038 1.336573 0.019739
v -0.583038 1.532399 0.019739
v -0.456536 1.336573 0.019739
v -0.456536 1.532399 0.019739
v -0.036786 1.336573 0.019739
v -0.036786 1.532399 0.019739
v 0.005452 1.336573 0.019739
v 0.005452 1.532399 0.019739
v 0.412428 1.336573 0.019739
v 0.412428 1.532399 0.019739
v 2.202892 0.706759 -0.043724
v 1.120696 0.706759 -0.043724
v 1.596434 1.612754 -0.043724
v 1.596434 0.706759 -0.043724
v 1.164008 0.706759 -0.043724
v 1.166990 1.612754 -0.043724
v 1.596434 1.522841 -0.043724
v 1.164008 1.522841 -0.043724
v 1.702005 1.612754 -0.043724
v 1.700279 0.706759 -0.043724
v 2.093873 1.612754 -0.043724
v 2.093873 0.706759 -0.043724
v 1.700279 1.465582 -0.043724
v 2.093873 1.465582 -0.043724
v 0.982698 0.074928 -0.033736
v 0.982698 1.830828 -0.033736
v 0.982698 0.074928 -2.033736
v 0.982698 1.830828 -2.033736
v 2.289849 0.074928 -0.033736
v 2.289849 1.830828 -0.033736
v 2.289849 0.074928 -2.033736
v 2.289849 1.830828 -2.033736
vn -0.0000 -0.0000 1.0000
vn -1.0000 -0.0000 -0.0000
vn -0.0000 -0.9910 0.1338
vn -0.0000 0.7165 0.6976
vn -0.0000 1.0000 -0.0000
vn -0.0000 -1.0000 -0.0000
vn 1.0000 -0.0000 -0.0000
vn -0.0000 0.4908 0.8713
vn -0.0002 -0.0000 1.0000
vn -0.0000 0.0018 1.0000
vn 0.0001 -0.0000 1.0000
vt 0.000045 0.000000
vt 0.730827 0.000000
vt 0.000045 1.000000
vt 0.730827 1.000000
vt 0.108309 0.000000
vt 0.108309 1.000000
vt 0.446634 0.000000
vt 0.446634 1.000000
vt 0.700558 0.000000
vt 0.700558 1.000000
vt 0.519050 1.000000
vt 0.519488 0.000000
vt 0.135785 0.523035
vt 0.113407 0.523895
vt 0.108309 0.512274
vt 0.446634 0.523895
vt 0.446634 0.512274
vt 0.441639 0.512274
vt 0.698417 0.523895
vt 0.700558 0.512274
vt 0.696811 0.523298
vt 0.519488 0.512274
vt 0.519488 0.523895
vt 0.135785 0.588623
vt 0.108309 0.591697
vt 0.446634 0.591697
vt 0.700558 0.591697
vt 0.698417 0.591697
vt 0.696811 0.587994
vt 0.519050 0.591697
vt 0.698417 0.533844
vt 0.686285 0.535536
vt 0.145062 0.535249
vt 0.116522 0.533844
vt 0.108309 0.533844
vt 0.145062 0.522752
vt 0.113407 0.531920
vt 0.116522 0.520299
vt 0.698417 0.531920
vt 0.698417 0.520299
vt 0.686285 0.523254
vt 0.446634 0.184841
vt 0.441639 0.184841
vt 0.108309 0.184841
vt 0.118757 0.184841
vt 0.118757 0.523895
vt 0.118757 0.512274
vt 0.446634 0.184841
vt 0.445028 0.184841
vt 0.445785 0.184841
vt 0.445785 0.512274
vt 0.446634 0.512274
vt 0.445028 0.512274
vt 0.118757 0.184841
vt 0.118757 0.512274
vt 0.529507 0.000000
vt 0.529507 0.523895
vt 0.529507 0.512274
vt 0.687941 0.000000
vt 0.687941 0.523895
vt 0.687941 0.512274
vt 0.687941 0.016999
vt 0.687941 0.023039
vt 0.529507 0.023039
vt 0.529507 0.016999
vt 0.527723 0.023039
vt 0.529507 0.484932
vt 0.527723 0.484932
vt 0.687941 0.484932
vt 0.687941 0.484932
vt 0.687941 0.023039
vt 0.530577 0.484932
vt 0.529507 0.484932
vt 0.530577 0.023039
vt 0.529507 0.023039
vt 0.609637 0.254370
vt 0.609637 0.254370
vt 0.609637 0.271723
vt 0.609637 0.271723
vt 0.614521 0.254370
vt 0.614521 0.254370
vt 0.614521 0.271723
vt 0.614521 0.271723
vt 0.519050 0.951910
vt 0.700558 0.951910
vt 0.581739 1.000000
vt 0.581739 0.951910
vt 0.588819 0.951910
vt 0.581739 0.967649
vt 0.598718 1.000000
vt 0.598718 0.951910
vt 0.598718 0.967649
vt 0.583828 0.976038
vt 0.581739 0.978051
vt 0.584854 0.978051
vt 0.596629 0.976038
vt 0.598718 0.978051
vt 0.596452 0.978051
vt 0.581739 0.951910
vt 0.591354 0.951910
vt 0.598718 0.951910
vt 0.445028 0.236478
vt 0.445785 0.236478
vt 0.118757 0.236478
vt 0.445028 0.387980
vt 0.445785 0.387980
vt 0.118757 0.387980
vt 0.154463 0.236478
vt 0.154463 0.387980
vt 0.279702 0.236478
vt 0.279702 0.387980
vt 0.299704 0.236478
vt 0.299704 0.387980
vt 0.425311 0.236478
vt 0.425311 0.387980
vt 0.445028 0.401920
vt 0.445785 0.401920
vt 0.118757 0.401920
vt 0.445028 0.460780
vt 0.445785 0.460780
vt 0.118757 0.460780
vt 0.154840 0.401920
vt 0.154840 0.460780
vt 0.214065 0.401920
vt 0.214065 0.460780
vt 0.220336 0.401920
vt 0.220336 0.460780
vt 0.280079 0.401920
vt 0.280079 0.460780
vt 0.298599 0.401920
vt 0.298599 0.460780
vt 0.360051 0.401920
vt 0.360051 0.460780
vt 0.366234 0.401920
vt 0.366234 0.460780
vt 0.425816 0.401920
vt 0.425816 0.460780
vt 0.687941 0.212616
vt 0.530577 0.212616
vt 0.529507 0.212616
vt 0.599155 0.484932
vt 0.599155 0.212616
vt 0.535848 0.212616
vt 0.536284 0.484932
vt 0.599155 0.457907
vt 0.535848 0.457907
vt 0.614611 0.484932
vt 0.614358 0.212616
vt 0.671981 0.484932
vt 0.671981 0.212616
vt 0.614358 0.440696
vt 0.671981 0.440696
vt 0.740449 0.536744
vt 0.802718 0.527227
vt 0.740256 0.992666
vt 0.806669 0.658923
vt 0.815449 0.591524
vt 0.822455 0.592686
vt 0.815412 0.887093
vt 0.806625 0.887460
vt 0.993878 0.532497
vt 0.931609 0.527372
vt 0.994362 0.995892
vt 0.920113 0.589453
vt 0.928873 0.657493
vt 0.912459 0.590616
vt 0.920271 0.888663
vt 0.929057 0.888544
s 0
usemtl building_5c
f 17/25/1 18/26/1 8/8/1 6/6/1
f 20/30/1 19/27/1 54/85/1 58/91/1 56/87/1 53/84/1
f 18/26/1 20/30/1 53/84/1 11/11/1 8/8/1
f 7/7/1 12/12/1 16/22/1 14/17/1 25/42/1
f 12/12/1 33/56/1 38/64/1 39/67/1 34/58/1 16/22/1
f 5/5/1 7/7/1 25/42/1 27/45/1 26/44/1
f 13/13/2 23/36/2 22/33/2 17/24/2
f 2/2/1 4/4/1 10/10/1 54/85/1 19/27/1 15/20/1 9/9/1
f 13/14/3 28/46/3 14/16/3 16/23/3 34/57/3 36/60/3 15/19/3 24/39/3 23/37/3
f 32/55/1 78/121/1 80/123/1 82/125/1 84/127/1 86/129/1 88/131/1 90/133/1 92/135/1 94/137/1 77/120/1 30/51/1
f 23/38/1 24/40/1 21/31/1 22/34/1
f 22/35/4 21/31/4 19/28/4 20/30/4 18/26/4 17/25/4
f 26/44/1 27/45/1 28/47/1 13/15/1
f 14/17/5 28/47/5 32/55/5 30/52/5
f 28/47/2 27/45/2 31/54/2 64/104/2 66/107/2 76/118/2 78/121/2 32/55/2
f 27/45/6 25/42/6 29/48/6 31/54/6
f 25/43/7 14/18/7 30/53/7 77/119/7 75/116/7 65/105/7 63/102/7 29/49/7
f 41/70/1 105/149/1 108/152/1 106/150/1 95/138/1
f 34/58/1 39/67/1 40/69/1 36/61/1
f 36/61/1 40/69/1 37/63/1 35/59/1 9/9/1 15/20/1
f 37/63/1 38/64/1 33/56/1 35/59/1
f 38/65/5 37/62/5 42/71/5 44/75/5
f 37/63/2 40/69/2 41/70/2 95/138/2 42/71/2
f 40/69/6 39/67/6 43/73/6 100/144/6 97/141/6 103/147/6 105/149/6 41/70/6
f 39/68/7 38/66/7 44/74/7 96/139/7 43/72/7
f 45/76/2 46/77/2 48/79/2 47/78/2
f 47/78/5 48/79/5 52/83/5 51/82/5
f 51/82/7 52/83/7 50/81/7 49/80/7
f 49/80/6 50/81/6 46/77/6 45/76/6
f 52/83/1 48/79/1 46/77/1 50/81/1
f 60/96/8 59/93/8 61/99/8 62/101/8
f 53/84/9 56/87/9 59/94/9 55/86/9 11/11/9
f 55/86/10 59/94/10 60/97/10 57/90/10
f 57/90/11 60/97/11 58/91/11 54/85/11 10/10/11
f 58/91/7 60/98/7 62/100/7
f 59/95/2 56/88/2 61/99/2
f 56/89/6 58/92/6 62/101/6 61/99/6
f 63/103/1 73/114/1 71/112/1 69/110/1 67/108/1 64/104/1 31/54/1 29/50/1
f 65/106/1 74/115/1 73/114/1 63/103/1
f 67/108/1 68/109/1 66/107/1 64/104/1
f 71/112/1 72/113/1 70/111/1 69/110/1
f 75/117/1 93/136/1 91/134/1 89/132/1 87/130/1 85/128/1 83/126/1 81/124/1 79/122/1 76/118/1 66/107/1 68/109/1 70/111/1 72/113/1 74/115/1 65/106/1
f 77/120/1 94/137/1 93/136/1 75/117/1
f 79/122/1 80/123/1 78/121/1 76/118/1
f 83/126/1 84/127/1 82/125/1 81/124/1
f 87/130/1 88/131/1 86/129/1 85/128/1
f 91/134/1 92/135/1 90/133/1 89/132/1
f 95/138/1 106/150/1 104/148/1 98/142/1 99/143/1 96/140/1 44/75/1 42/71/1
f 99/143/1 102/146/1 100/144/1 43/73/1 96/140/1
f 102/146/1 101/145/1 97/141/1 100/144/1
f 104/148/1 107/151/1 103/147/1 97/141/1 101/145/1 98/142/1
f 107/151/1 108/152/1 105/149/1 103/147/1
f 17/25/1 6/6/1 3/3/1 1/1/1 5/5/1 26/44/1 13/15/1
f 15/21/7 19/29/7 21/32/7 24/41/7
f 109/153/7 111/156/7 112/160/7 110/155/7
f 111/157/1 115/164/1 116/167/1 112/159/1
f 115/165/2 113/161/2 114/163/2 116/168/2
f 111/158/5 109/154/5 113/162/5 115/166/5
f 116/168/6 114/163/6 110/155/6 112/160/6
usemtl building_5c_GLASS
f 69/110/1 70/111/1 68/109/1 67/108/1
f 73/114/1 74/115/1 72/113/1 71/112/1
f 81/124/1 82/125/1 80/123/1 79/122/1
f 85/128/1 86/129/1 84/127/1 83/126/1
f 89/132/1 90/133/1 88/131/1 87/130/1
f 93/136/1 94/137/1 92/135/1 91/134/1
f 98/142/1 101/145/1 102/146/1 99/143/1
f 106/150/1 108/152/1 107/151/1 104/148/1
