# Blender 3.3.1
# www.blender.org
mtllib building_front8.mtl
o building_front8
v -2.499539 -0.000599 -0.000000
v 2.499539 -0.000599 -0.000000
v -2.499539 3.749398 0.000000
v 2.499539 3.749398 0.000000
v 0.563999 -0.000599 -0.000000
v 0.563999 3.749398 0.000000
v -2.073018 3.749398 0.000000
v -2.073018 -0.000599 -0.000000
v 1.855600 -0.000599 -0.000000
v 1.855600 3.749398 0.000000
v 1.209799 3.749398 0.000000
v 1.209799 -0.000599 -0.000000
v 1.855600 1.431899 0.000000
v 1.209799 1.431899 0.000000
v 0.563999 2.724081 0.000000
v -2.073018 2.724081 0.000000
v -2.073018 -0.000599 -0.296776
v 0.563999 -0.000599 -0.296776
v 1.209799 -0.000599 -0.030694
v 1.855600 -0.000599 -0.030694
v 1.855600 1.431899 -0.030694
v 1.209799 1.431899 -0.030694
v 0.563999 2.724081 -0.296776
v -2.073018 2.724081 -0.296776
v -2.085442 0.003909 -0.251782
v 0.568234 0.003909 -0.256162
v -2.085442 2.736560 -0.251781
v 0.568234 2.736560 -0.256162
v -1.886949 0.003909 -0.149472
v -1.886949 2.736560 -0.149472
v -1.706610 0.003909 -0.011444
v -1.492783 0.003909 -0.149472
v -1.302135 0.003909 -0.011444
v -1.111486 0.003909 -0.149472
v -0.920837 0.003909 -0.011444
v -0.730189 0.003909 -0.149472
v -0.539540 0.003909 -0.011444
v -0.338590 0.003909 -0.149472
v -0.129399 0.003909 -0.011444
v 0.061249 0.003909 -0.149472
v 0.251898 0.003909 -0.011444
v 0.442547 0.003909 -0.149472
v 0.442547 2.736560 -0.149472
v 0.251898 2.736560 -0.011444
v 0.061249 2.736560 -0.149472
v -0.129399 2.736560 -0.011444
v -0.338590 2.736560 -0.149472
v -0.539540 2.736560 -0.011444
v -0.730189 2.736560 -0.149472
v -0.920837 2.736560 -0.011444
v -1.111486 2.736560 -0.149472
v -1.302135 2.736560 -0.011444
v -1.492783 2.736560 -0.149472
v -1.706610 2.736560 -0.011444
v -1.984049 2.736560 -0.252126
v -1.984049 0.003909 -0.252126
v -2.369061 2.389415 0.000000
v -2.145107 2.389415 0.000000
v -2.369061 2.731771 0.000000
v -2.145107 2.731771 0.000000
v -2.473386 2.560593 0.000000
v -2.369061 2.731771 0.151164
v -2.369061 2.389415 0.151164
v -2.145107 2.389415 0.151164
v -2.145107 2.731771 0.151164
v -2.473386 2.560593 0.151164
v -2.335020 2.459265 0.080151
v -2.335020 2.657922 0.080151
v -2.335020 2.459265 -0.001666
v -2.335020 2.657922 -0.001666
v -2.217841 2.459265 0.080151
v -2.217841 2.657922 0.080151
v -2.217841 2.459265 -0.001666
v -2.217841 2.657922 -0.001666
v -2.269293 2.435873 0.025280
v -2.269293 2.476392 0.025280
v -2.257385 2.435873 0.029149
v -2.257385 2.476392 0.029149
v -2.250025 2.435873 0.039278
v -2.250025 2.476392 0.039278
v -2.250025 2.435873 0.051799
v -2.250025 2.476392 0.051799
v -2.257385 2.435873 0.061929
v -2.257385 2.476392 0.061929
v -2.269293 2.435873 0.065798
v -2.269293 2.476392 0.065798
v -2.281200 2.435873 0.061929
v -2.281200 2.476392 0.061929
v -2.288560 2.435873 0.051799
v -2.288560 2.476392 0.051799
v -2.288560 2.435873 0.039278
v -2.288560 2.476392 0.039278
v -2.281200 2.435873 0.029149
v -2.281200 2.476392 0.029149
vn -0.0000 -0.0000 1.0000
vn -1.0000 -0.0000 -0.0000
vn -0.0000 -1.0000 -0.0000
vn 1.0000 -0.0000 -0.0000
vn 0.6471 -0.0000 0.7624
vn -0.7265 -0.0000 0.6872
vn -0.6078 -0.0000 0.7941
vn 0.5423 -0.0000 0.8402
vn -0.5864 -0.0000 0.8100
vn 0.5864 -0.0000 0.8100
vn 0.5662 -0.0000 0.8243
vn -0.5507 -0.0000 0.8347
vn 0.0034 -0.0000 1.0000
vn -0.0000 1.0000 -0.0000
vn -0.8539 0.5204 -0.0000
vn -0.8539 -0.5204 -0.0000
vn 0.3090 -0.0000 -0.9511
vn 0.8090 -0.0000 -0.5878
vn 0.8090 -0.0000 0.5878
vn 0.3090 -0.0000 0.9511
vn -0.3090 -0.0000 0.9511
vn -0.8090 -0.0000 0.5878
vn -0.8090 -0.0000 -0.5878
vn -0.3090 -0.0000 -0.9511
vt 0.000000 0.000000
vt 1.000000 0.000000
vt 0.000000 1.000000
vt 1.000000 1.000000
vt 0.612821 0.000000
vt 0.625740 0.000000
vt 0.612821 1.000000
vt 0.085320 1.000000
vt 0.085320 0.000000
vt 0.105473 0.000000
vt 0.871188 0.000000
vt 0.880592 0.000097
vt 0.871188 1.000000
vt 0.742004 1.000000
vt 0.742004 0.000000
vt 0.732601 0.000097
vt 0.880592 0.382095
vt 0.880592 0.391331
vt 0.871188 0.382191
vt 0.732601 0.391331
vt 0.742004 0.382191
vt 0.732601 0.382095
vt 0.612821 0.725301
vt 0.612821 0.700498
vt 0.625740 0.725301
vt 0.085320 0.725301
vt 0.105473 0.700498
vt 0.085320 0.000000
vt 0.612821 0.000000
vt 0.742004 0.000000
vt 0.871188 0.000000
vt 0.871188 0.382191
vt 0.742004 0.382191
vt 0.612821 0.725301
vt 0.085320 0.725301
vt 0.104401 0.003342
vt 0.609294 0.003342
vt 0.104401 0.707288
vt 0.609294 0.707288
vt 0.156618 0.003342
vt 0.158944 0.003342
vt 0.156618 0.707288
vt 0.158944 0.707288
vt 0.187325 0.003342
vt 0.152833 0.003342
vt 0.188310 0.003342
vt 0.223787 0.003342
vt 0.259264 0.003342
vt 0.294741 0.003342
vt 0.330218 0.003342
vt 0.365695 0.003342
vt 0.401172 0.003342
vt 0.436649 0.003342
vt 0.472126 0.003342
vt 0.507603 0.003342
vt 0.543080 0.003342
vt 0.543080 0.707288
vt 0.507603 0.707288
vt 0.472126 0.707288
vt 0.436649 0.707288
vt 0.401172 0.707288
vt 0.365695 0.707288
vt 0.330218 0.707288
vt 0.294741 0.707288
vt 0.259264 0.707288
vt 0.223787 0.707288
vt 0.188310 0.707288
vt 0.187325 0.707288
vt 0.152833 0.707288
vt 0.123392 0.707288
vt 0.123392 0.003342
vt 0.335641 0.048978
vt 0.951022 0.048978
vt 0.953539 0.046461
vt 0.335194 0.952247
vt 0.952247 0.952247
vt 0.953539 0.953539
vt 0.047753 0.952247
vt 0.048978 0.048978
vt 0.317792 0.944229
vt 0.317792 1.000000
vt 0.335194 0.047753
vt 0.317792 0.055771
vt 0.317792 0.000000
vt 0.335641 0.951022
vt 0.950394 0.055771
vt 0.951022 0.951022
vt 0.046461 0.046461
vt 0.950394 0.944229
vt 0.952247 0.047753
vt 0.046461 0.953539
vt 0.000000 0.500000
vt 0.047753 0.047753
vt 0.048978 0.951022
vt 0.033452 0.662413
vt 0.033452 0.709903
vt 0.033452 0.662413
vt 0.033452 0.709903
vt 0.054461 0.662413
vt 0.054461 0.709903
vt 0.054461 0.662413
vt 0.054461 0.709903
vt 0.045236 0.652678
vt 0.045236 0.660058
vt 0.047371 0.652678
vt 0.047371 0.660058
vt 0.048691 0.652678
vt 0.048691 0.660058
vt 0.048691 0.652678
vt 0.048691 0.660058
vt 0.047371 0.652678
vt 0.047371 0.660058
vt 0.045236 0.652678
vt 0.045236 0.660058
vt 0.043102 0.652678
vt 0.043102 0.660058
vt 0.041782 0.652678
vt 0.041782 0.660058
vt 0.041782 0.652678
vt 0.041782 0.660058
vt 0.043102 0.652678
vt 0.043102 0.660058
s 0
usemtl building_front8
f 9/11/1 2/2/1 4/4/1 10/13/1 13/19/1
f 9/12/2 13/17/2 21/32/2 20/31/2
f 1/1/1 8/9/1 16/26/1 7/8/1 3/3/1
f 13/18/3 14/20/3 22/33/3 21/32/3
f 5/5/1 12/15/1 14/21/1 11/14/1 6/7/1 15/23/1
f 14/21/1 13/19/1 10/13/1 11/14/1
f 16/26/1 15/23/1 6/7/1 7/8/1
f 19/30/1 20/31/1 21/32/1 22/33/1
f 15/24/3 16/27/3 24/35/3 23/34/3
f 5/6/2 15/25/2 23/34/2 18/29/2
f 14/22/4 12/16/4 19/30/4 22/33/4
f 16/27/4 8/10/4 17/28/4 24/35/4
f 42/56/5 26/37/5 28/39/5 43/57/5
f 56/71/6 29/40/6 30/42/6 55/70/6
f 29/41/7 31/44/7 54/68/7 30/43/7
f 31/45/8 32/46/8 53/67/8 54/69/8
f 32/46/9 33/47/9 52/66/9 53/67/9
f 33/47/10 34/48/10 51/65/10 52/66/10
f 34/48/9 35/49/9 50/64/9 51/65/9
f 35/49/10 36/50/10 49/63/10 50/64/10
f 36/50/9 37/51/9 48/62/9 49/63/9
f 37/51/11 38/52/11 47/61/11 48/62/11
f 38/52/12 39/53/12 46/60/12 47/61/12
f 39/53/10 40/54/10 45/59/10 46/60/10
f 40/54/9 41/55/9 44/58/9 45/59/9
f 41/55/10 42/56/10 43/57/10 44/58/10
f 25/36/13 56/71/13 55/70/13 27/38/13
f 67/95/2 68/96/2 70/98/2 69/97/2
f 73/101/4 74/102/4 72/100/4 71/99/4
f 71/99/1 72/100/1 68/96/1 67/95/1
f 69/97/3 73/101/3 71/99/3 67/95/3
f 74/102/14 70/98/14 68/96/14 72/100/14
f 75/103/17 76/104/17 78/106/17 77/105/17
f 77/105/18 78/106/18 80/108/18 79/107/18
f 79/107/4 80/108/4 82/110/4 81/109/4
f 81/109/19 82/110/19 84/112/19 83/111/19
f 83/111/20 84/112/20 86/114/20 85/113/20
f 85/113/21 86/114/21 88/116/21 87/115/21
f 87/115/22 88/116/22 90/118/22 89/117/22
f 89/117/2 90/118/2 92/120/2 91/119/2
f 91/119/23 92/120/23 94/122/23 93/121/23
f 93/121/24 94/122/24 76/104/24 75/103/24
f 75/103/3 77/105/3 79/107/3 81/109/3 83/111/3 85/113/3 87/115/3 89/117/3 91/119/3 93/121/3
usemtl Cage
f 63/83/1 64/86/1 65/89/1 62/80/1
f 63/84/1 62/81/1 66/92/1
f 60/76/14 59/75/14 62/82/14 65/90/14
f 57/72/3 58/73/3 64/87/3 63/85/3
f 58/74/4 60/77/4 65/91/4 64/88/4
f 59/75/15 61/78/15 66/93/15 62/82/15
f 61/79/16 57/72/16 63/85/16 66/94/16
l 17 18
