# Blender 3.3.1
# www.blender.org
mtllib building_factory.mtl
o building_factory
v -1.997012 0.004470 -0.000000
v 1.997012 0.004470 -0.000000
v -1.997012 5.003270 0.000000
v 1.997012 5.003270 0.000000
v -1.780618 0.004470 -0.000000
v -1.780618 5.003270 0.000000
v 1.780972 0.004470 -0.000000
v 1.780972 5.003270 0.000000
v -0.729454 5.003270 0.000000
v -0.729454 0.004470 -0.000000
v 0.779274 0.004470 -0.000000
v 0.779275 5.003270 0.000000
v -0.729454 4.569160 0.000000
v 0.779275 4.569160 0.000000
v 0.779275 3.322224 0.000000
v -0.729454 3.322224 0.000000
v -0.729454 2.528173 0.000000
v 0.779275 2.528173 0.000000
v 0.779274 0.906401 -0.000000
v -0.729454 0.906400 -0.000000
v -1.997012 5.003270 0.098588
v -1.997012 0.004470 0.098588
v 1.780972 0.004470 0.098588
v 1.997012 0.004470 0.098588
v 1.997012 5.003270 0.098588
v -1.780618 5.003270 0.098588
v -1.780618 0.004470 0.098588
v 1.780972 5.003270 0.098588
v -0.729454 3.322224 -0.051437
v -0.729454 4.569160 -0.051437
v 0.779275 3.322224 -0.051437
v 0.779275 4.569160 -0.051437
v -0.729454 0.906400 -0.051437
v -0.729454 2.528173 -0.051437
v 0.779274 0.906401 -0.051437
v 0.779275 2.528173 -0.051437
v -0.799410 3.265189 -0.009353
v -0.799410 3.265189 0.045241
v -0.799410 3.319782 -0.009353
v -0.799410 3.319782 0.045241
v 0.828350 3.265189 -0.009353
v 0.828350 3.265189 0.045241
v 0.828350 3.319782 -0.009353
v 0.828350 3.319782 0.045241
v -0.799410 0.850798 -0.009353
v -0.799410 0.850798 0.045241
v -0.799410 0.905392 -0.009353
v -0.799410 0.905392 0.045241
v 0.828350 0.850798 -0.009353
v 0.828350 0.850798 0.045241
v 0.828350 0.905392 -0.009353
v 0.828350 0.905392 0.045241
vn 1.0000 -0.0000 -0.0000
vn -0.0000 -0.0000 1.0000
vn -0.0000 -1.0000 -0.0000
vn -1.0000 -0.0000 -0.0000
vn -0.0000 1.0000 -0.0000
vt 0.974988 0.000000
vt 0.024659 0.000000
vt 0.974988 1.000000
vt 0.024659 1.000000
vt 0.021823 0.000000
vt 0.054180 0.000000
vt 0.021823 1.000000
vt 0.054180 1.000000
vt 0.945909 0.000000
vt 0.945909 1.000000
vt 0.317364 1.000000
vt 0.317364 0.000000
vt 0.695110 0.000000
vt 0.695110 1.000000
vt 0.317364 0.914888
vt 0.695110 0.914888
vt 0.695110 0.664421
vt 0.317364 0.664421
vt 0.317364 0.504923
vt 0.695110 0.504923
vt 0.695110 0.179165
vt 0.317364 0.179165
vt 0.000000 1.000000
vt 0.999647 1.000000
vt 0.000000 0.000000
vt 0.999647 0.000000
vt 0.945909 0.000000
vt 0.966666 0.000000
vt 1.000000 0.000000
vt 0.000000 0.000000
vt 1.000000 1.000000
vt 0.000000 1.000000
vt 0.054180 1.000000
vt 0.054180 0.000000
vt 0.945909 1.000000
vt 0.966666 1.000000
vt 0.317364 0.664421
vt 0.317364 0.914888
vt 0.695110 0.664421
vt 0.695110 0.914888
vt 0.317364 0.179165
vt 0.317364 0.504923
vt 0.695110 0.179165
vt 0.695110 0.504923
vt 0.305539 0.654128
vt 0.312925 0.654002
vt 0.305522 0.661971
vt 0.312925 0.655868
vt 0.305539 0.661325
vt 0.312925 0.661820
vt 0.305806 0.653851
vt 0.312925 0.659954
vt 0.702172 0.654128
vt 0.687384 0.661971
vt 0.694787 0.655868
vt 0.702172 0.661325
vt 0.701906 0.653851
vt 0.694787 0.659954
vt 0.309683 0.172566
vt 0.309683 0.177604
vt 0.302184 0.177604
vt 0.302052 0.173314
vt 0.302052 0.177189
vt 0.302052 0.173652
vt 0.700329 0.172566
vt 0.700329 0.177604
vt 0.692830 0.177604
vt 0.694224 0.173314
vt 0.694224 0.177189
vt 0.694224 0.173652
s 0
usemtl building_factory
f 5/5/1 6/7/1 26/33/1 27/34/1
f 11/13/2 7/9/2 8/10/2 12/14/2 14/16/2 15/17/2 18/20/2 19/21/2
f 5/6/2 10/12/2 20/22/2 17/19/2 16/18/2 13/15/2 9/11/2 6/8/2
f 10/12/2 11/13/2 19/21/2 20/22/2
f 13/15/2 14/16/2 12/14/2 9/11/2
f 23/27/2 24/29/2 25/31/2 28/35/2
f 18/20/3 17/19/3 34/42/3 36/44/3
f 17/19/2 18/20/2 15/17/2 16/18/2
f 15/17/4 14/16/4 32/40/4 31/39/4
f 22/25/2 27/34/2 26/33/2 21/23/2
f 2/2/1 4/4/1 25/32/1 24/30/1
f 3/3/4 1/1/4 22/26/4 21/24/4
f 8/10/4 7/9/4 23/28/4 28/36/4
f 17/19/1 20/22/1 33/41/1 34/42/1
f 14/16/3 13/15/3 30/38/3 32/40/3
f 20/22/5 19/21/5 35/43/5 33/41/5
f 13/15/1 16/18/1 29/37/1 30/38/1
f 19/21/4 18/20/4 36/44/4 35/43/4
f 16/18/5 15/17/5 31/39/5 29/37/5
f 37/45/4 38/46/4 40/50/4 39/49/4
f 39/49/5 40/51/5 44/57/5 43/56/5
f 43/56/1 44/58/1 42/55/1 41/53/1
f 41/53/3 42/54/3 38/47/3 37/45/3
f 45/59/4 46/60/4 48/63/4 47/62/4
f 44/58/2 40/52/2 38/48/2 42/55/2
f 47/62/5 48/63/5 52/69/5 51/68/5
f 51/68/1 52/69/1 50/66/1 49/65/1
f 49/65/3 50/66/3 46/60/3 45/59/3
f 52/70/2 48/64/2 46/61/2 50/67/2
usemtl building_factory-GLASS
f 29/37/2 31/39/2 32/40/2 30/38/2
f 33/41/2 35/43/2 36/44/2 34/42/2
