# Blender 3.3.1
# www.blender.org
mtllib building_office5.mtl
o building_office5
v -2.499541 0.000006 0.000000
v 2.499541 0.000006 0.000000
v -2.499541 3.220820 0.000000
v 2.499541 3.220820 0.000000
v -2.499541 3.010506 0.000000
v 2.499541 3.010506 0.000000
v -2.499541 2.398811 0.000000
v 2.499541 2.398811 0.000000
v -2.499541 2.003008 0.000000
v 2.499541 2.003008 0.000000
v -2.499541 1.391313 0.000000
v 2.499541 1.391313 0.000000
v -2.499541 0.985932 0.000000
v 2.499541 0.985932 0.000000
v -2.499541 0.387334 0.000000
v 2.499541 0.387334 0.000000
v 2.499541 2.398811 -0.009723
v 2.499541 3.010506 -0.009723
v -2.499541 3.010506 -0.009723
v -2.499541 2.398811 -0.009723
v 2.499541 1.391313 -0.009723
v 2.499541 2.003008 -0.009723
v -2.499541 2.003008 -0.009723
v -2.499541 1.391313 -0.009723
v 2.499541 0.387334 -0.009723
v 2.499541 0.985932 -0.009723
v -2.499541 0.985932 -0.009723
v -2.499541 0.387334 -0.009723
vn -0.0000 -0.0000 1.0000
vn -0.0000 -1.0000 -0.0000
vn -0.0000 1.0000 -0.0000
vn 1.0000 -0.0000 -0.0000
vn -1.0000 -0.0000 -0.0000
vt 0.000000 0.000000
vt 1.000000 0.000000
vt 0.000000 1.000000
vt 1.000000 1.000000
vt 0.000000 0.934702
vt 0.000000 0.000000
vt 1.000000 0.934701
vt 0.000000 0.000000
vt 0.000000 0.744782
vt 0.000000 0.000000
vt 1.000000 0.744782
vt 0.000000 0.000000
vt 0.000000 0.000000
vt 0.000000 0.621893
vt 0.000000 0.000000
vt 1.000000 0.621893
vt 0.000000 0.000000
vt 0.000000 0.431974
vt 0.000000 0.000000
vt 1.000000 0.431974
vt 0.000000 0.000000
vt 0.000000 0.306111
vt 0.000000 0.000000
vt 1.000000 0.306111
vt 0.000000 0.000000
vt 0.000000 0.120258
vt 0.000000 0.000000
vt 1.000000 0.120258
vt 1.000000 0.744782
vt 0.000000 0.000000
vt 1.000000 0.934701
vt 0.000000 0.000000
vt 0.000000 0.934702
vt 0.000000 0.000000
vt 0.000000 0.744782
vt 0.000000 0.000000
vt 0.000000 0.000000
vt 1.000000 0.431974
vt 0.000000 0.000000
vt 1.000000 0.621893
vt 0.000000 0.000000
vt 0.000000 0.621893
vt 0.000000 0.000000
vt 0.000000 0.431974
vt 0.000000 0.000000
vt 1.000000 0.120258
vt 0.000000 0.000000
vt 1.000000 0.306111
vt 0.000000 0.000000
vt 0.000000 0.306111
vt 0.000000 0.000000
vt 0.000000 0.120258
s 0
usemtl building_office5
f 5/5/1 6/7/1 4/4/1 3/3/1
f 6/7/2 5/5/2 19/33/2 18/31/2
f 9/14/1 10/16/1 8/11/1 7/9/1
f 7/9/3 8/11/3 17/29/3 20/35/3
f 13/22/1 14/24/1 12/20/1 11/18/1
f 13/21/4 15/25/4 28/51/4 27/49/4
f 1/1/1 2/2/1 16/28/1 15/26/1
f 9/13/4 11/17/4 24/43/4 23/41/4
f 16/27/5 14/23/5 26/47/5 25/45/5
f 5/6/4 7/10/4 20/36/4 19/34/4
f 15/26/3 16/28/3 25/46/3 28/52/3
f 12/19/5 10/15/5 22/39/5 21/37/5
f 14/24/2 13/22/2 27/50/2 26/48/2
f 11/18/3 12/20/3 21/38/3 24/44/3
f 8/12/5 6/8/5 18/32/5 17/30/5
f 10/16/2 9/14/2 23/42/2 22/40/2
usemtl building_office5.GLASS
f 20/35/1 17/29/1 18/31/1 19/33/1
f 24/44/1 21/38/1 22/40/1 23/42/1
f 28/52/1 25/46/1 26/48/1 27/50/1
