# Blender 3.3.1
# www.blender.org
mtllib building_center.mtl
o building_center
v -2.500318 -2.499321 -0.000000
v 2.499122 -2.499321 -0.000000
v -2.500318 0.604185 0.000000
v 2.499122 0.604185 0.000000
v 2.499122 0.604185 0.109472
v -2.500318 0.604185 0.109472
v 2.499122 1.973916 0.109472
v -2.500318 1.973916 0.109472
v 2.499122 1.973916 0.152198
v 2.499122 2.495964 0.152198
v -2.500318 2.495964 0.152198
v -2.500318 1.973916 0.152198
vn -0.0000 -0.0000 1.0000
vn -0.0000 -1.0000 -0.0000
vt 0.000000 0.000000
vt 1.000000 0.000000
vt 0.000000 0.621287
vt 0.000062 0.633006
vt 1.000000 0.621287
vt 1.000062 0.633006
vt 1.000000 0.621287
vt 0.000000 0.621287
vt 1.000000 0.895492
vt 1.000000 0.900724
vt 0.000000 0.895492
vt 0.000000 0.900724
vt 1.000000 0.895492
vt 1.000000 0.894329
vt 1.000000 1.000000
vt 0.000000 1.000000
vt 0.000000 0.895492
vt 0.000000 0.894329
s 0
usemtl building_center
f 1/1/1 2/2/1 4/5/1 3/3/1
f 3/4/2 4/6/2 5/7/2 6/8/2
f 6/8/1 5/7/1 7/9/1 8/11/1
f 12/17/1 9/13/1 10/15/1 11/16/1
f 8/12/2 7/10/2 9/14/2 12/18/2
