# Blender 3.3.1
# www.blender.org
mtllib building_h_windows.mtl
o building_h_windows
v -2.498139 -0.000009 -0.000000
v 2.498139 -0.000009 -0.000000
v -2.498139 4.996269 0.000000
v 2.498139 4.996269 0.000000
v -2.498139 1.236173 0.000000
v 2.498139 1.236174 0.000000
v 2.498139 4.059237 0.000000
v -2.498139 4.059237 0.000000
v -2.055197 1.236173 0.000000
v -2.055197 4.059237 0.000000
v -0.692438 4.059237 0.000000
v -0.692438 1.236173 0.000000
v 2.049365 1.236174 0.000000
v 2.049365 4.059237 0.000000
v 0.686288 1.236174 0.000000
v 0.686288 4.059237 0.000000
v -0.692438 1.236173 -0.090210
v -2.055197 1.236173 -0.090210
v -0.692438 4.059237 -0.090209
v -2.055197 4.059237 -0.090209
v 2.049365 4.059237 -0.090209
v 2.049365 1.236174 -0.090210
v 0.686288 1.236174 -0.090210
v 0.686288 4.059237 -0.090209
v -0.692438 3.842555 0.000000
v 2.049365 3.842555 0.000000
v 0.686288 3.842555 0.000000
v -2.055197 3.842555 -0.090209
v -0.692438 3.842555 -0.090209
v 2.049365 3.842555 -0.090209
v 0.686288 3.842555 -0.090209
v 0.686288 2.193494 0.000000
v -2.055197 2.193494 -0.090210
v 2.049365 2.193494 -0.090210
v 0.686288 2.193494 -0.090210
v -0.692438 2.193494 0.000000
v -0.692438 2.193494 -0.090210
v 2.049365 1.986573 0.000000
v 0.686288 1.986573 0.000000
v -2.055197 1.986573 -0.090210
v 2.049365 1.986573 -0.090210
v 0.686288 1.986573 -0.090210
v -0.692438 1.986573 0.000000
v -0.692438 1.986573 -0.090210
v -2.055197 1.370351 0.000000
v 2.049365 1.370351 0.000000
v 0.686288 1.370351 0.000000
v -2.055197 1.370351 -0.090210
v 2.049365 1.370351 -0.090210
v 0.686288 1.370351 -0.090210
v -0.692438 1.370351 0.000000
v -0.692438 1.370351 -0.090210
v -1.956832 1.370351 -0.090210
v -1.956832 1.986573 -0.090210
v -0.795915 1.370351 -0.090210
v -0.795915 1.986573 -0.090210
v 0.751325 1.370351 -0.090210
v 0.751325 1.986573 -0.090210
v 1.984108 1.370351 -0.090210
v 1.984108 1.986573 -0.090210
v 1.948432 3.842555 -0.090209
v 1.948432 2.193494 -0.090210
v 0.786783 2.193494 -0.090210
v 0.786783 3.842555 -0.090209
v -0.819882 3.842555 -0.090209
v -0.819882 2.193494 -0.090210
v -1.930759 2.193494 -0.090210
v -1.930759 3.842555 -0.090209
vn -0.0000 -0.0000 1.0000
vn -0.0000 -1.0000 -0.0000
vn 1.0000 -0.0000 -0.0000
vn -1.0000 -0.0000 -0.0000
vn -0.0000 1.0000 -0.0000
vt 0.000000 0.000000
vt 1.000000 0.000000
vt 0.000000 1.000000
vt 1.000000 1.000000
vt 0.000000 0.247421
vt 1.000000 0.247421
vt 1.000000 0.812454
vt 0.000000 0.812454
vt 0.072541 0.247421
vt 0.088654 0.230810
vt 0.088654 0.247421
vt 0.073029 0.812454
vt 0.088654 0.822297
vt 0.088654 0.812454
vt 0.361409 0.822297
vt 0.384847 0.812454
vt 0.361409 0.812454
vt 0.361409 0.247421
vt 0.361409 0.230810
vt 0.382326 0.247421
vt 0.910178 0.232466
vt 0.938987 0.247421
vt 0.910178 0.247421
vt 0.910178 0.828344
vt 0.938477 0.812454
vt 0.910178 0.812454
vt 0.637360 0.247421
vt 0.620270 0.247421
vt 0.637360 0.232466
vt 0.637360 0.828344
vt 0.619920 0.812454
vt 0.637360 0.812454
vt 0.361409 0.247421
vt 0.088654 0.247421
vt 0.361409 0.812454
vt 0.088654 0.812454
vt 0.910178 0.812454
vt 0.910178 0.247421
vt 0.910178 0.246190
vt 0.911155 0.247421
vt 0.637360 0.247421
vt 0.637360 0.246190
vt 0.637360 0.812454
vt 0.384847 0.769085
vt 0.361409 0.769085
vt 0.910178 0.769085
vt 0.938477 0.769085
vt 0.619920 0.769085
vt 0.637360 0.769085
vt 0.088654 0.769085
vt 0.361409 0.769085
vt 0.910178 0.769085
vt 0.637360 0.769085
vt 0.619533 0.439027
vt 0.637360 0.439027
vt 0.088654 0.439027
vt 0.910178 0.439027
vt 0.637360 0.439027
vt 0.382337 0.439027
vt 0.361409 0.439027
vt 0.361409 0.439027
vt 0.910178 0.397612
vt 0.939475 0.397612
vt 0.619533 0.397612
vt 0.637360 0.397612
vt 0.088654 0.397612
vt 0.910178 0.397612
vt 0.637360 0.397612
vt 0.382337 0.397612
vt 0.361409 0.397612
vt 0.361409 0.397612
vt 0.073029 0.274276
vt 0.072541 0.274276
vt 0.088654 0.274276
vt 0.939475 0.274276
vt 0.910178 0.274276
vt 0.620270 0.274276
vt 0.637360 0.274276
vt 0.088654 0.274276
vt 0.910178 0.274276
vt 0.637360 0.274276
vt 0.382326 0.274276
vt 0.361409 0.274276
vt 0.361409 0.274276
vt 0.108342 0.274276
vt 0.108342 0.397612
vt 0.340698 0.274276
vt 0.340698 0.397612
vt 0.650377 0.274276
vt 0.650377 0.397612
vt 0.897117 0.274276
vt 0.897117 0.397612
vt 0.889977 0.769085
vt 0.889977 0.439027
vt 0.657474 0.439027
vt 0.657474 0.769085
vt 0.335901 0.769085
vt 0.335901 0.439027
vt 0.113561 0.439027
vt 0.113560 0.769085
s 0
usemtl building_h_windows
f 8/8/1 10/14/1 11/17/1 16/32/1 14/26/1 7/7/1 4/4/1 3/3/1
f 1/1/1 2/2/1 6/6/1 13/23/1 15/27/1 12/18/1 9/11/1 5/5/1
f 48/79/1 18/34/1 17/33/1 52/84/1 55/87/1 53/85/1
f 14/24/2 16/30/2 24/43/2 21/37/2
f 51/83/1 12/18/1 15/27/1 47/78/1
f 40/66/3 33/56/3 28/50/3 20/36/3 10/12/3 45/72/3 48/79/3
f 11/15/2 10/13/2 20/36/2 19/35/2
f 50/81/1 23/41/1 22/38/1 49/80/1 59/91/1 57/89/1
f 26/47/4 14/25/4 21/37/4 30/52/4
f 45/73/3 9/9/3 18/34/3 48/79/3
f 47/77/3 15/28/3 23/41/3 50/81/3
f 9/10/5 12/19/5 17/33/5 18/34/5
f 15/29/5 13/21/5 22/39/5 23/42/5
f 25/44/4 11/16/4 19/35/4 29/51/4
f 36/59/4 25/44/4 29/51/4 37/61/4
f 16/31/3 27/48/3 31/53/3 24/43/3
f 24/43/1 31/53/1 64/96/1 61/93/1 30/52/1 21/37/1
f 11/17/1 25/45/1 27/49/1 16/32/1
f 20/36/1 28/50/1 68/100/1 65/97/1 29/51/1 19/35/1
f 43/69/4 36/59/4 37/61/4 44/71/4
f 27/48/3 32/54/3 35/58/3 31/53/3
f 31/53/1 35/58/1 63/95/1 64/96/1
f 25/45/1 36/60/1 32/55/1 27/49/1
f 28/50/1 33/56/1 67/99/1 68/100/1
f 51/82/4 43/69/4 44/71/4 52/84/4
f 46/75/4 38/63/4 41/67/4 49/80/4
f 32/54/3 39/64/3 42/68/3 35/58/3
f 35/58/1 42/68/1 58/90/1 60/92/1 41/67/1 34/57/1 62/94/1 63/95/1
f 36/60/1 43/70/1 39/65/1 32/55/1
f 33/56/1 40/66/1 54/86/1 56/88/1 44/71/1 37/61/1 66/98/1 67/99/1
f 13/22/4 46/75/4 49/80/4 22/40/4
f 12/20/4 51/82/4 52/84/4 17/33/4
f 39/64/3 47/77/3 50/81/3 42/68/3
f 42/68/1 50/81/1 57/89/1 58/90/1
f 43/70/1 51/83/1 47/78/1 39/65/1
f 40/66/1 48/79/1 53/85/1 54/86/1
f 56/88/1 55/87/1 52/84/1 44/71/1
f 60/92/1 59/91/1 49/80/1 41/67/1
f 61/93/1 62/94/1 34/57/1 30/52/1
f 65/97/1 66/98/1 37/61/1 29/51/1
f 14/26/1 26/46/1 38/62/1 46/76/1 13/23/1 6/6/1 7/7/1
f 45/74/1 10/14/1 8/8/1 5/5/1 9/11/1
f 38/63/4 26/47/4 30/52/4 34/57/4 41/67/4
usemtl building_h_windows.GLASS
f 54/86/1 53/85/1 55/87/1 56/88/1
f 58/90/1 57/89/1 59/91/1 60/92/1
f 64/96/1 63/95/1 62/94/1 61/93/1
f 68/100/1 67/99/1 66/98/1 65/97/1
