# Blender 3.3.1
# www.blender.org
mtllib building_l2.mtl
o building_l2
v -2.499659 0.000727 0.100483
v 2.499659 0.000727 0.100483
v -2.499659 3.227954 0.100484
v 2.499659 3.227954 0.100484
v -2.332603 0.000727 0.000000
v -2.332603 3.227954 0.000000
v 2.338996 0.000727 0.000000
v 2.338996 3.227954 0.000000
v -2.427359 3.227954 0.100484
v -2.427359 0.000727 0.100483
v 2.436854 0.000727 0.100483
v 2.436854 3.227954 0.100484
v -0.984631 3.227954 0.000000
v -0.984631 0.000727 0.000000
v 0.669208 0.000727 0.000000
v 0.669207 3.227954 0.000000
v -0.666123 3.227954 0.000000
v -0.666123 0.000727 0.000000
v -0.902894 3.227954 0.099756
v -0.902894 0.000727 0.099756
v -0.771350 0.000727 0.099756
v -0.771350 3.227954 0.099756
v 0.992484 0.000727 0.000000
v 0.992484 3.227954 0.000000
v 0.753089 3.227954 0.099756
v 0.753089 0.000727 0.099756
v 0.887209 0.000727 0.099756
v 0.887209 3.227954 0.099756
v 2.499659 3.168171 0.100484
v -2.332603 3.168171 0.000000
v 2.338996 3.168171 0.000000
v -2.427359 3.168171 0.100484
v 2.436854 3.168171 0.100484
v -0.984631 3.168171 0.000000
v 0.669207 3.168171 0.000000
v -0.666123 3.168171 0.000000
v -0.902894 3.168171 0.099756
v -0.771350 3.168171 0.099756
v 0.992484 3.168171 0.000000
v 0.753089 3.168171 0.099756
v 0.887209 3.168171 0.099756
v -2.332603 2.465052 0.000000
v 2.338996 2.465052 0.000000
v -2.427359 2.465052 0.100483
v 2.436854 2.465052 0.100483
v -0.984631 2.465052 0.000000
v 0.669207 2.465052 0.000000
v -0.666123 2.465052 0.000000
v -0.902894 2.465052 0.099756
v -0.771350 2.465052 0.099756
v 0.992484 2.465052 0.000000
v 0.753089 2.465052 0.099756
v 0.887209 2.465052 0.099756
v -2.332603 2.084221 0.000000
v 2.338996 2.084221 0.000000
v -2.427359 2.084221 0.100483
v 2.436854 2.084221 0.100483
v -0.984631 2.084221 0.000000
v 0.669207 2.084221 0.000000
v -0.666123 2.084221 0.000000
v -0.902894 2.084221 0.099756
v -0.771350 2.084221 0.099756
v 0.992484 2.084221 0.000000
v 0.753089 2.084221 0.099756
v 0.887209 2.084221 0.099756
v -2.332603 1.317520 0.000000
v 2.338996 1.317520 0.000000
v -2.427359 1.317520 0.100483
v 2.436854 1.317520 0.100483
v -0.984631 1.317520 0.000000
v 0.669207 1.317520 0.000000
v -0.666123 1.317520 0.000000
v -0.902894 1.317520 0.099756
v -0.771350 1.317520 0.099756
v 0.992484 1.317520 0.000000
v 0.753089 1.317520 0.099756
v 0.887209 1.317520 0.099756
v -2.332603 0.933068 0.000000
v 2.338996 0.933068 0.000000
v -2.427359 0.933068 0.100483
v 2.436854 0.933068 0.100483
v -0.984631 0.933068 0.000000
v 0.669207 0.933068 0.000000
v -0.666123 0.933068 0.000000
v -0.902894 0.933068 0.099756
v -0.771350 0.933068 0.099756
v 0.992484 0.933068 0.000000
v 0.753089 0.933068 0.099756
v 0.887209 0.933068 0.099756
v -2.332603 0.328130 0.000000
v 2.338996 0.328130 0.000000
v -2.427359 0.328130 0.100483
v 2.436854 0.328130 0.100483
v -0.984631 0.328130 0.000000
v 0.669207 0.328130 0.000000
v -0.666123 0.328130 0.000000
v -0.902894 0.328130 0.099756
v -0.771350 0.328130 0.099756
v 0.992484 0.328130 0.000000
v 0.753089 0.328130 0.099756
v 0.887209 0.328130 0.099756
v -1.035028 3.227954 0.000000
v -1.035028 3.168171 0.000000
v -1.035028 2.465052 0.000000
v -1.035028 2.084221 0.000000
v -1.035028 1.317520 0.000000
v -1.035028 0.933068 0.000000
v -1.035028 0.328130 0.000000
v -2.299891 3.227954 0.000000
v -2.299891 3.168171 0.000000
v -2.299891 2.465052 0.000000
v -2.299891 2.084221 0.000000
v -2.299891 1.317520 0.000000
v -2.299891 0.933068 0.000000
v -2.299891 0.328130 0.000000
v 0.629954 3.227954 0.000000
v 0.629954 3.168171 0.000000
v 0.629954 2.465052 0.000000
v 0.629954 2.084221 0.000000
v 0.629954 1.317520 0.000000
v 0.629954 0.933068 0.000000
v 0.629954 0.328130 0.000000
v -0.618609 3.227954 0.000000
v -0.618609 3.168171 0.000000
v -0.618609 2.465052 0.000000
v -0.618609 2.084221 0.000000
v -0.618609 1.317520 0.000000
v -0.618609 0.933068 0.000000
v -0.618609 0.328130 0.000000
v 2.292774 3.168171 0.000000
v 2.292774 2.465052 0.000000
v 2.292774 2.084221 0.000000
v 2.292774 1.317520 0.000000
v 2.292774 0.933068 0.000000
v 2.292774 0.328130 0.000000
v 1.042583 3.168171 0.000000
v 1.042583 2.465052 0.000000
v 1.042583 2.084221 0.000000
v 1.042583 1.317520 0.000000
v 1.042583 0.933068 0.000000
v 1.042583 0.328130 0.000000
v -1.890711 3.227954 0.000000
v -1.890711 3.168171 0.000000
v -1.890711 2.465052 0.000000
v -1.890711 2.084221 0.000000
v -1.890711 1.317520 0.000000
v -1.890711 0.933068 0.000000
v -1.890711 0.328130 0.000000
v -1.869599 3.227954 0.000000
v -1.869599 3.168171 0.000000
v -1.869599 2.465052 0.000000
v -1.869599 2.084221 0.000000
v -1.869599 1.317520 0.000000
v -1.869599 0.933068 0.000000
v -1.869599 0.328130 0.000000
v -1.470258 3.227954 0.000000
v -1.470258 3.168171 0.000000
v -1.470258 2.465052 0.000000
v -1.470258 2.084221 0.000000
v -1.470258 1.317520 0.000000
v -1.470258 0.933068 0.000000
v -1.470258 0.328130 0.000000
v -1.444045 3.227954 0.000000
v -1.444045 3.168171 0.000000
v -1.444045 2.465052 0.000000
v -1.444045 2.084221 0.000000
v -1.444045 1.317520 0.000000
v -1.444045 0.933068 0.000000
v -1.444045 0.328130 0.000000
v -0.216832 3.227954 0.000000
v -0.216832 3.168171 0.000000
v -0.216832 2.465052 0.000000
v -0.216832 2.084221 0.000000
v -0.216832 1.317520 0.000000
v -0.216832 0.933068 0.000000
v -0.216832 0.328130 0.000000
v -0.195384 3.227954 0.000000
v -0.195384 3.168171 0.000000
v -0.195384 2.465052 0.000000
v -0.195384 2.084221 0.000000
v -0.195384 1.317520 0.000000
v -0.195384 0.933068 0.000000
v -0.195384 0.328130 0.000000
v 0.205221 3.227954 0.000000
v 0.205221 3.168171 0.000000
v 0.205221 2.465052 0.000000
v 0.205221 2.084221 0.000000
v 0.205221 1.317520 0.000000
v 0.205221 0.933068 0.000000
v 0.205221 0.328130 0.000000
v 0.224192 3.227954 0.000000
v 0.224192 3.168171 0.000000
v 0.224192 2.465052 0.000000
v 0.224192 2.084221 0.000000
v 0.224192 1.317520 0.000000
v 0.224192 0.933068 0.000000
v 0.224192 0.328130 0.000000
v 1.440388 3.168171 0.000000
v 1.440388 2.465052 0.000000
v 1.440388 2.084221 0.000000
v 1.440388 1.317520 0.000000
v 1.440388 0.933068 0.000000
v 1.440388 0.328130 0.000000
v 1.467029 3.168171 0.000000
v 1.467029 2.465052 0.000000
v 1.467029 2.084221 0.000000
v 1.467029 1.317520 0.000000
v 1.467029 0.933068 0.000000
v 1.467029 0.328130 0.000000
v 1.868417 3.168171 0.000000
v 1.868417 2.465052 0.000000
v 1.868417 2.084221 0.000000
v 1.868417 1.317520 0.000000
v 1.868417 0.933068 0.000000
v 1.868417 0.328130 0.000000
v 1.889672 3.168171 0.000000
v 1.889672 2.465052 0.000000
v 1.889672 2.084221 0.000000
v 1.889672 1.317520 0.000000
v 1.889672 0.933068 0.000000
v 1.889672 0.328130 0.000000
v -1.077326 0.323140 -0.060568
v -1.077326 0.860793 -0.060568
v -1.077326 1.321525 -0.060568
v -1.077326 2.002951 -0.060568
v -1.077326 2.465521 -0.060568
v -1.077326 3.090436 -0.060568
v -1.933024 3.090436 -0.060568
v -2.269962 3.090436 -0.060568
v -1.933024 2.465521 -0.060568
v -2.269962 2.465521 -0.060568
v -1.933024 2.002951 -0.060568
v -2.269962 2.002951 -0.060568
v -1.933024 1.321525 -0.060568
v -2.269962 1.321525 -0.060568
v -1.933024 0.860793 -0.060568
v -2.269962 0.860793 -0.060568
v -1.933024 0.323140 -0.060568
v -2.269962 0.323140 -0.060568
v 0.608375 0.323140 -0.060568
v 0.608375 0.860793 -0.060568
v 0.603422 1.321525 -0.060568
v 0.603422 2.002951 -0.060568
v -0.243264 3.090436 -0.060568
v -0.574105 3.090436 -0.060568
v -0.243264 2.465521 -0.060568
v -0.574105 2.465521 -0.060568
v -0.243013 2.002951 -0.060568
v -0.573854 2.002951 -0.060568
v -0.243013 1.321525 -0.060568
v -0.573854 1.321525 -0.060568
v -0.238060 0.860793 -0.060568
v -0.568901 0.860793 -0.060568
v -0.238060 0.323140 -0.060568
v -0.568901 0.323140 -0.060568
v 2.254867 0.323140 -0.060568
v 2.254867 0.860793 -0.060568
v 2.261316 1.321525 -0.060568
v 2.261316 2.002951 -0.060568
v 2.259955 2.465521 -0.060568
v 2.259955 3.090436 -0.060568
v 1.408037 3.090436 -0.060568
v 1.080466 3.090436 -0.060568
v 1.408037 2.465521 -0.060568
v 1.080466 2.465521 -0.060568
v 1.409398 2.002951 -0.060568
v 1.081827 2.002951 -0.060568
v 1.409398 1.321525 -0.060568
v 1.081827 1.321525 -0.060568
v 1.402949 0.860793 -0.060568
v 1.075378 0.860793 -0.060568
v 1.402949 0.323140 -0.060568
v 1.075378 0.323140 -0.060568
v -1.511701 3.090436 -0.060568
v -1.840538 3.090436 -0.060568
v -1.511701 2.465521 -0.060568
v -1.840538 2.465521 -0.060568
v -1.511701 2.002951 -0.060568
v -1.840538 2.002951 -0.060568
v -1.511701 1.321525 -0.060568
v -1.840538 1.321525 -0.060568
v -1.511701 0.860793 -0.060568
v -1.840538 0.860793 -0.060568
v -1.511701 0.323140 -0.060568
v -1.840538 0.323140 -0.060568
v -1.414129 3.090436 -0.060568
v -1.414129 2.465521 -0.060568
v -1.414129 2.002951 -0.060568
v -1.414129 1.321525 -0.060568
v -1.414129 0.860793 -0.060568
v -1.414129 0.323140 -0.060568
v 0.178893 3.090436 -0.060568
v -0.150984 3.090436 -0.060568
v 0.178893 2.465521 -0.060568
v -0.150984 2.465521 -0.060568
v 0.179144 2.002951 -0.060568
v -0.150733 2.002951 -0.060568
v 0.179144 1.321525 -0.060568
v -0.150733 1.321525 -0.060568
v 0.184097 0.860793 -0.060568
v -0.145780 0.860793 -0.060568
v 0.184097 0.323140 -0.060568
v -0.145780 0.323140 -0.060568
v 0.269047 3.090436 -0.060568
v 0.269047 2.465521 -0.060568
v 0.269298 2.002951 -0.060568
v 0.269298 1.321525 -0.060568
v 0.274251 0.860793 -0.060568
v 0.274251 0.323140 -0.060568
v 1.835750 3.090436 -0.060568
v 1.505228 3.090436 -0.060568
v 1.835750 2.465521 -0.060568
v 1.505228 2.465521 -0.060568
v 1.837111 2.002951 -0.060568
v 1.506589 2.002951 -0.060568
v 1.837111 1.321525 -0.060568
v 1.506589 1.321525 -0.060568
v 1.830662 0.860793 -0.060568
v 1.500140 0.860793 -0.060568
v 1.830662 0.323140 -0.060568
v 1.500140 0.323140 -0.060568
v 1.928022 3.090436 -0.060568
v 1.928022 2.465521 -0.060568
v 1.929384 2.002951 -0.060568
v 1.929384 1.321525 -0.060568
v 1.922935 0.860793 -0.060568
v 1.922935 0.323140 -0.060568
v -0.984631 2.408216 0.000000
v -2.332603 2.408216 0.000000
v 0.669207 2.410847 0.000000
v -0.666123 2.410847 0.000000
v 0.992484 2.405089 0.000000
v 2.338996 2.405089 0.000000
v -0.984631 1.268737 0.000000
v -2.332603 1.268737 0.000000
v -0.666123 1.266879 0.000000
v 0.669207 1.266879 0.000000
v 0.992484 1.268737 0.000000
v 2.338996 1.268737 0.000000
v -0.984631 0.269977 0.000000
v -2.332603 0.269977 0.000000
v 0.669207 0.268120 0.000000
v -0.666123 0.268120 0.000000
v 2.338996 0.273692 0.000000
v 0.992484 0.273692 0.000000
v -2.332603 2.408216 0.002239
v 2.338996 2.405089 0.002239
v -0.984631 2.408216 0.002239
v 0.669207 2.410847 0.002239
v -0.666123 2.410847 0.002239
v 0.992484 2.405089 0.002239
v -2.332603 1.268737 0.002239
v 2.338996 1.268737 0.002239
v -0.984631 1.268737 0.002239
v 0.669207 1.266879 0.002239
v -0.666123 1.266879 0.002239
v 0.992484 1.268737 0.002239
v -2.332603 0.269977 0.002239
v 2.338996 0.273692 0.002239
v -0.984631 0.269977 0.002239
v 0.669207 0.268120 0.002239
v -0.666123 0.268120 0.002239
v 0.992484 0.273692 0.002239
v -2.332603 2.465965 0.030663
v 2.338996 2.466072 0.030844
v -0.984631 2.465965 0.030663
v 0.669207 2.465876 0.030501
v -0.666123 2.465876 0.030501
v 0.992484 2.466072 0.030844
v -2.332603 1.318163 0.030142
v 2.338996 1.318163 0.030142
v -0.984631 1.318163 0.030142
v 0.669207 1.318225 0.030269
v -0.666123 1.318225 0.030269
v 0.992484 1.318163 0.030142
v -2.332603 0.329089 0.030741
v 2.338996 0.328963 0.030516
v -0.984631 0.329089 0.030741
v 0.669207 0.329152 0.030847
v -0.666123 0.329152 0.030847
v 0.992484 0.328963 0.030516
v 0.611349 2.465378 -0.042075
v 0.582950 2.465521 -0.060568
v 0.599504 2.465378 -0.042075
v 0.587741 2.465437 -0.049735
v 0.582950 3.090436 -0.060568
v 0.611349 3.114170 -0.042075
v 0.587741 3.104339 -0.049735
v 0.599504 3.114170 -0.042075
v -2.332603 2.421160 0.015836
v -2.332603 2.455323 0.030600
v -2.332603 2.433005 0.015906
v -2.332603 2.447155 0.022021
v 2.338996 2.454300 0.030931
v 2.338996 2.419745 0.016818
v 2.338996 2.445903 0.022577
v 2.338996 2.431589 0.016732
v -0.984631 2.455323 0.030600
v -0.984631 2.421160 0.015836
v -0.984631 2.447155 0.022021
v -0.984631 2.433005 0.015906
v 0.669207 2.456229 0.030333
v 0.669207 2.422426 0.015003
v 0.669207 2.448271 0.021560
v 0.669207 2.434269 0.015210
v -0.666123 2.422426 0.015003
v -0.666123 2.456229 0.030333
v -0.666123 2.434269 0.015210
v -0.666123 2.448271 0.021560
v 0.992484 2.419745 0.016818
v 0.992484 2.454300 0.030931
v 0.992484 2.431589 0.016732
v 0.992484 2.445903 0.022577
v -2.332603 1.277732 0.013281
v -2.332603 1.310704 0.029823
v -2.332603 1.289566 0.013788
v -2.332603 1.303223 0.020639
v 2.338996 1.310704 0.029823
v 2.338996 1.277732 0.013281
v 2.338996 1.303223 0.020639
v 2.338996 1.289566 0.013788
v -0.984631 1.310704 0.029823
v -0.984631 1.277732 0.013281
v -0.984631 1.303223 0.020639
v -0.984631 1.289566 0.013788
v 0.669207 1.309995 0.029990
v 0.669207 1.276724 0.013871
v 0.669207 1.302343 0.020949
v 0.669207 1.288562 0.014272
v -0.666123 1.276724 0.013871
v -0.666123 1.309995 0.029990
v -0.666123 1.288562 0.014272
v -0.666123 1.302343 0.020949
v 0.992484 1.277732 0.013281
v 0.992484 1.310704 0.029823
v 0.992484 1.289566 0.013788
v 0.992484 1.303223 0.020639
v -2.332603 0.283631 0.016251
v -2.332603 0.317963 0.030738
v -2.332603 0.295476 0.016254
v -2.332603 0.309697 0.022255
v 2.338996 0.319226 0.030356
v 2.338996 0.285389 0.015077
v 2.338996 0.311248 0.021600
v 2.338996 0.297233 0.015272
v -0.984631 0.317963 0.030738
v -0.984631 0.283631 0.016251
v -0.984631 0.309697 0.022255
v -0.984631 0.295476 0.016254
v 0.669207 0.317364 0.030936
v 0.669207 0.282803 0.016833
v 0.669207 0.308963 0.022586
v 0.669207 0.294647 0.016744
v -0.666123 0.282803 0.016833
v -0.666123 0.317364 0.030936
v -0.666123 0.294647 0.016744
v -0.666123 0.308963 0.022586
v 0.992484 0.285389 0.015077
v 0.992484 0.319226 0.030356
v 0.992484 0.297233 0.015272
v 0.992484 0.311248 0.021600
vn 0.3703 -0.0000 0.9289
vn 0.1406 -0.3740 0.9167
vn 0.1343 0.3785 0.9158
vn 0.1348 0.3732 0.9179
vn 0.1350 0.3762 0.9167
vn -0.2850 0.8559 0.4315
vn -0.2026 0.3944 0.8963
vn -0.4221 -0.0000 0.9065
vn -0.1055 -0.1312 0.9857
vn -0.2611 0.8349 0.4846
vn -0.2106 0.3987 0.8926
vn -0.4279 -0.0000 0.9038
vn -0.1015 -0.1166 0.9880
vn -0.2774 0.8500 0.4479
vn -0.1584 0.3847 0.9093
vn -0.3888 -0.0000 0.9213
vn -0.1041 -0.1254 0.9866
vn -0.2735 0.8497 0.4508
vn -0.2018 0.3911 0.8979
vn -0.1022 -0.1283 0.9865
vn -0.2523 0.8320 0.4941
vn -0.2120 0.3974 0.8928
vn -0.0984 -0.1143 0.9886
vn -0.2691 0.8484 0.4558
vn -0.1606 0.3831 0.9096
vn -0.1011 -0.1238 0.9871
vn -0.3096 0.8704 0.3827
vn -0.2024 0.3970 0.8952
vn -0.1125 -0.1420 0.9835
vn -0.2739 0.8360 0.4755
vn -0.2104 0.3989 0.8925
vn -0.1065 -0.1204 0.9870
vn -0.2820 0.8415 0.4608
vn -0.1596 0.3839 0.9095
vn -0.1080 -0.1247 0.9863
vn -0.0000 -0.0000 1.0000
vn 0.3962 -0.0000 0.9182
vn 0.1048 -0.1281 0.9862
vn 0.1050 -0.1290 0.9861
vn -0.1017 -0.1174 0.9879
vn 0.1048 -0.1282 0.9862
vn 0.3702 -0.0000 0.9289
vn -0.1645 -0.3800 0.9102
vn 0.1405 -0.3739 0.9168
vn -0.2155 -0.3940 0.8935
vn 0.1354 0.3777 0.9160
vn 0.1365 0.3769 0.9162
vn 0.1404 -0.3739 0.9168
vn 0.1342 0.3785 0.9158
vn -0.2080 -0.3918 0.8962
vn -0.2079 -0.3919 0.8962
vn -0.4721 -0.2391 0.8485
vn -0.4355 0.5997 0.6713
vn 0.1007 -0.1144 0.9883
vn 0.3744 -0.2412 0.8954
vn -0.3771 -0.3346 0.8636
vn -0.1170 -0.3194 0.9404
vn 0.1688 0.3869 0.9066
vn 0.1741 -0.3825 0.9074
vn -0.6323 -0.7193 0.2877
vn -0.6287 -0.3085 0.7138
vn -0.6648 -0.1535 0.7311
vn -0.6648 -0.4273 0.6127
vn -0.5755 0.5851 0.5713
vn 0.1014 -0.1252 0.9869
vn -0.0984 -0.1142 0.9886
vn 0.1016 -0.1260 0.9868
vn -0.0986 -0.1150 0.9885
vn 0.1015 -0.1252 0.9869
vn 0.2816 0.8540 0.4376
vn 0.1740 -0.3825 0.9074
vn 0.1104 -0.1329 0.9850
vn 0.1106 -0.1338 0.9848
vn -0.1068 -0.1213 0.9869
vn 0.1702 0.3857 0.9068
vn 0.2713 0.8510 0.4498
vn 0.1039 -0.1135 0.9881
vn -0.1126 -0.1424 0.9834
vn 0.1040 -0.1136 0.9881
vn -0.1126 -0.1425 0.9834
vn 0.1038 -0.1132 0.9881
vn 0.1685 0.3871 0.9065
vn 0.2968 0.8553 0.4247
vn -0.4754 -0.2304 0.8491
vn -0.4369 0.5785 0.6889
vn -0.5009 -0.2540 0.8274
vn -0.4618 0.6256 0.6287
vn 0.2982 0.8568 0.4207
vn 0.4251 0.6333 0.6467
vn 0.4557 -0.2537 0.8532
vn -0.1644 -0.3800 0.9102
vn 0.0992 -0.1169 0.9882
vn -0.1012 -0.1242 0.9871
vn 0.0991 -0.1166 0.9882
vn -0.1011 -0.1239 0.9871
vn 0.0991 -0.1165 0.9882
vn 0.2560 0.8279 0.4990
vn 0.1008 -0.1147 0.9883
vn -0.1056 -0.1316 0.9857
vn 0.1008 -0.1148 0.9883
vn -0.1056 -0.1317 0.9856
vn 0.3444 0.6224 0.7029
vn 0.0977 -0.1122 0.9889
vn -0.1022 -0.1286 0.9864
vn 0.0978 -0.1123 0.9889
vn -0.1023 -0.1287 0.9864
vn 0.0976 -0.1119 0.9889
vn 0.2596 0.8265 0.4995
vn -0.3102 0.8713 0.3803
vn -0.5037 -0.2541 0.8257
vn -0.4641 0.6251 0.6275
vn 0.2725 0.8524 0.4463
vn 0.4240 0.5807 0.6950
vn 0.4604 -0.2304 0.8573
vn -0.2741 0.8505 0.4489
vn -0.4781 -0.2305 0.8475
vn -0.4392 0.5781 0.6877
vn -0.1041 -0.1255 0.9866
vn 0.1026 -0.1202 0.9874
vn 0.1027 -0.1206 0.9874
vn -0.1042 -0.1258 0.9866
vn 0.1026 -0.1203 0.9874
vn 0.2690 0.8421 0.4674
vn 0.2572 0.8364 0.4841
vn 0.2914 0.8497 0.4395
vn 0.1096 -0.1299 0.9855
vn 0.2829 0.8554 0.4339
vn 0.4242 0.6018 0.6766
vn 0.4586 -0.2391 0.8559
vn -0.4391 0.6065 0.6629
vn -0.4748 -0.2392 0.8470
vn -0.4418 0.6047 0.6627
vn 0.1094 -0.1294 0.9855
vn 0.2906 0.8489 0.4415
vn 0.4056 0.6374 0.6552
vn 0.4317 -0.2540 0.8655
vn -0.2522 0.8320 0.4942
vn -0.2739 0.8360 0.4756
vn -0.2756 0.8372 0.4724
vn -0.3700 0.6450 0.6687
vn 0.2564 0.8357 0.4857
vn 0.3738 0.5898 0.7159
vn 0.4017 -0.2312 0.8861
vn -0.3884 -0.2555 0.8854
vn -0.2626 0.8361 0.4817
vn 0.2816 0.8540 0.4375
vn -0.2537 0.8332 0.4914
vn 0.2713 0.8510 0.4497
vn 0.2682 0.8414 0.4691
vn 0.3808 0.6102 0.6947
vn 0.4070 -0.2399 0.8814
vn -0.3662 0.5912 0.7186
vn -0.3850 0.6418 0.6633
vn -0.2854 0.8565 0.4300
vn 0.3567 0.6228 0.6963
vn -0.4255 0.6071 0.6711
vn 0.2460 0.8208 0.5155
vn -0.3101 0.8711 0.3808
vn 0.2598 0.8266 0.4992
vn -0.3928 -0.2315 0.8900
vn 0.4210 0.6341 0.6485
vn 0.4507 -0.2537 0.8559
vn -0.4066 -0.2547 0.8774
vn 0.2553 0.8274 0.5001
vn 0.2453 0.8202 0.5168
vn 0.2589 0.8260 0.5007
vn -0.3675 0.6128 0.6996
vn 0.4197 0.5814 0.6970
vn 0.4554 -0.2303 0.8600
vn -0.1081 -0.1252 0.9862
vn 0.1095 -0.1296 0.9855
vn -0.1080 -0.1249 0.9863
vn -0.4122 0.5828 0.7004
vn -0.2781 0.8507 0.4460
vn 0.2685 0.8417 0.4686
vn -0.2698 0.8492 0.4539
vn 0.2567 0.8359 0.4851
vn -0.2829 0.8423 0.4589
vn 0.2909 0.8491 0.4409
vn -0.3911 -0.2405 0.8884
vn 0.4200 0.6026 0.6786
vn 0.4536 -0.2391 0.8586
vn -0.4466 -0.2304 0.8646
vn -0.2776 0.8502 0.4472
vn -0.2693 0.8487 0.4552
vn -0.2823 0.8418 0.4602
vn 0.4211 0.6341 0.6485
vn -0.3665 0.6457 0.6699
vn -0.3841 -0.2557 0.8872
vn 0.4507 -0.2537 0.8558
vn 0.4198 0.5814 0.6970
vn -0.3626 0.5919 0.7199
vn -0.3886 -0.2316 0.8918
vn 0.4200 0.6026 0.6785
vn -0.3639 0.6135 0.7009
vn -0.3868 -0.2406 0.8902
vn 0.4536 -0.2391 0.8585
vn 0.3365 0.6522 0.6793
vn 0.3478 -0.2578 0.9014
vn 0.3509 0.5941 0.7238
vn 0.3748 -0.2322 0.8975
vn -0.2155 0.6464 0.7319
vn -0.5777 0.6470 0.4976
vn 0.3533 0.6156 0.7044
vn -0.4061 0.6053 0.6846
vn -0.4371 -0.2393 0.8670
vn -0.3638 0.6135 0.7009
vn -0.3625 0.5919 0.7199
vn -0.3885 -0.2316 0.8919
vn 0.3548 0.6153 0.7039
vn -0.4373 0.5994 0.6705
vn -0.4742 -0.2392 0.8473
vn 0.3761 -0.2411 0.8947
vn 0.3609 0.6096 0.7058
vn -0.4485 0.5924 0.6693
vn -0.4775 -0.2305 0.8479
vn 0.3765 -0.2321 0.8968
vn 0.3378 0.6519 0.6789
vn -0.4636 0.6253 0.6278
vn -0.5030 -0.2540 0.8261
vn 0.3494 -0.2577 0.9008
vn 0.3587 0.6213 0.6967
vn 0.3766 -0.2411 0.8945
vn 0.3528 0.5937 0.7232
vn 0.3770 -0.2321 0.8966
vn 0.3382 0.6519 0.6788
vn 0.3498 -0.2577 0.9007
vn 0.3829 0.6098 0.6940
vn -0.4083 0.6048 0.6837
vn -0.4397 -0.2392 0.8657
vn 0.4095 -0.2398 0.8802
vn 0.3759 0.5894 0.7151
vn -0.4145 0.5824 0.6993
vn -0.4492 -0.2304 0.8632
vn 0.4041 -0.2311 0.8850
vn 0.4077 0.6370 0.6543
vn -0.3870 0.6413 0.6625
vn -0.4090 -0.2546 0.8763
vn 0.4343 -0.2540 0.8642
vn 0.3815 0.6100 0.6945
vn -0.4068 0.6051 0.6843
vn -0.4379 -0.2392 0.8666
vn 0.4078 -0.2399 0.8810
vn 0.3745 0.5896 0.7156
vn -0.4129 0.5826 0.7000
vn -0.4474 -0.2304 0.8641
vn 0.4024 -0.2312 0.8858
vn 0.4063 0.6373 0.6549
vn -0.3856 0.6416 0.6630
vn -0.4074 -0.2547 0.8770
vn 0.4326 -0.2540 0.8651
vn 0.5755 0.5851 0.5713
vn 0.6343 -0.7212 0.2784
vn -0.6343 -0.7212 0.2784
vn -0.6277 -0.3215 0.7090
vn -0.6642 -0.1643 0.7293
vn -0.6642 -0.4404 0.6041
vn -0.5726 0.5789 0.5805
vn 0.5741 0.5728 0.5852
vn 0.6255 -0.3499 0.6974
vn 0.6628 -0.4685 0.5840
vn 0.6628 -0.1880 0.7248
vn 0.6389 -0.7248 0.2579
vn 0.5726 0.5789 0.5805
vn -0.5760 0.5896 0.5662
vn 0.5760 0.5896 0.5662
vn -0.5741 0.5728 0.5852
vn -0.5681 0.5695 0.5941
vn 0.5681 0.5695 0.5941
vn -0.5757 0.5870 0.5692
vn 0.5757 0.5870 0.5692
vn -0.5751 0.5816 0.5753
vn 0.5751 0.5816 0.5753
vn 0.6628 -0.1881 0.7248
vn 0.6277 -0.3215 0.7090
vn 0.6642 -0.4404 0.6041
vn 0.6642 -0.1643 0.7293
vn -0.6255 -0.3499 0.6974
vn 0.6300 -0.7171 0.2981
vn -0.6300 -0.7171 0.2981
vn -0.6373 -0.7236 0.2651
vn -0.6263 -0.3399 0.7016
vn -0.6633 -0.1797 0.7264
vn -0.6633 -0.4587 0.5913
vn 0.6263 -0.3399 0.7016
vn 0.6633 -0.4587 0.5913
vn 0.6633 -0.1797 0.7264
vn 0.6373 -0.7236 0.2651
vn -0.6389 -0.7248 0.2579
vn -0.6628 -0.1880 0.7248
vn -0.6628 -0.4685 0.5841
vn -0.6313 -0.7184 0.2921
vn -0.6292 -0.3022 0.7161
vn -0.6651 -0.1482 0.7319
vn -0.6651 -0.4209 0.6168
vn 0.6292 -0.3022 0.7161
vn 0.6278 -0.3203 0.7094
vn 0.6643 -0.4392 0.6049
vn 0.6643 -0.1633 0.7294
vn 0.6341 -0.7210 0.2792
vn -0.6278 -0.3203 0.7094
vn -0.6300 -0.7170 0.2983
vn -0.6299 -0.2934 0.7191
vn -0.6655 -0.1409 0.7330
vn -0.6655 -0.4121 0.6223
vn 0.6299 -0.2934 0.7191
vn 0.6655 -0.4121 0.6223
vn 0.6655 -0.1409 0.7330
vn 0.6300 -0.7170 0.2983
vn 0.6313 -0.7184 0.2921
vn -0.6299 -0.2937 0.7190
vn -0.6655 -0.1411 0.7329
vn -0.6655 -0.4123 0.6222
vn -0.6628 -0.1881 0.7248
vn -0.6628 -0.4685 0.5840
vn -0.6341 -0.7210 0.2792
vn 0.6299 -0.2937 0.7190
vn 0.6655 -0.4123 0.6222
vn 0.6655 -0.1411 0.7329
vn 0.6323 -0.7193 0.2877
vn 0.6287 -0.3085 0.7138
vn 0.6648 -0.4273 0.6127
vn 0.6648 -0.1535 0.7311
vn 0.6651 -0.4209 0.6168
vn 0.6651 -0.1482 0.7319
vn -0.6643 -0.1633 0.7294
vn -0.6643 -0.4392 0.6049
vt 0.000000 0.000000
vt 1.000000 0.000000
vt 0.000000 1.000000
vt 1.000000 1.000000
vt 0.033416 0.000000
vt 0.033416 1.000000
vt 0.967863 0.000000
vt 0.967863 1.000000
vt 0.014462 1.000000
vt 0.014462 0.000000
vt 0.987437 0.000000
vt 0.987437 1.000000
vt 0.303047 1.000000
vt 0.303047 0.000000
vt 0.633860 0.000000
vt 0.633860 1.000000
vt 0.366757 1.000000
vt 0.366757 0.000000
vt 0.319397 1.000000
vt 0.319397 0.000000
vt 0.345709 0.000000
vt 0.345709 1.000000
vt 0.698524 0.000000
vt 0.698524 1.000000
vt 0.650638 1.000000
vt 0.650638 0.000000
vt 0.677466 0.000000
vt 0.677466 1.000000
vt 1.000000 0.981475
vt 0.033416 0.981475
vt 0.967863 0.981475
vt 0.014462 0.981475
vt 0.987437 0.981475
vt 0.303047 0.981475
vt 0.633860 0.981475
vt 0.366757 0.981475
vt 0.319397 0.981475
vt 0.345709 0.981475
vt 0.698524 0.981475
vt 0.650638 0.981475
vt 0.677466 0.981475
vt 0.033416 0.763605
vt 0.967863 0.763605
vt 0.014462 0.763605
vt 0.987437 0.763605
vt 0.303047 0.763605
vt 0.633860 0.763605
vt 0.366757 0.763605
vt 0.319397 0.763605
vt 0.345709 0.763605
vt 0.698524 0.763605
vt 0.650638 0.763605
vt 0.677466 0.763605
vt 0.033416 0.645599
vt 0.967863 0.645599
vt 0.014462 0.645599
vt 0.987437 0.645599
vt 0.303047 0.645599
vt 0.633860 0.645599
vt 0.366757 0.645599
vt 0.319397 0.645599
vt 0.345709 0.645599
vt 0.698524 0.645599
vt 0.650638 0.645599
vt 0.677466 0.645599
vt 0.033416 0.408026
vt 0.967863 0.408026
vt 0.014462 0.408026
vt 0.987437 0.408026
vt 0.303047 0.408026
vt 0.633860 0.408026
vt 0.366757 0.408026
vt 0.319397 0.408026
vt 0.345709 0.408026
vt 0.698524 0.408026
vt 0.650638 0.408026
vt 0.677466 0.408026
vt 0.033416 0.288898
vt 0.967863 0.288898
vt 0.014462 0.288898
vt 0.987437 0.288898
vt 0.303047 0.288898
vt 0.633860 0.288898
vt 0.366757 0.288898
vt 0.319397 0.288898
vt 0.345709 0.288898
vt 0.698524 0.288898
vt 0.650638 0.288898
vt 0.677466 0.288898
vt 0.033416 0.101451
vt 0.967863 0.101451
vt 0.014462 0.101451
vt 0.987437 0.101451
vt 0.303047 0.101451
vt 0.633860 0.101451
vt 0.366757 0.101451
vt 0.319397 0.101451
vt 0.345709 0.101451
vt 0.698524 0.101451
vt 0.650638 0.101451
vt 0.677466 0.101451
vt 0.292966 1.000000
vt 0.292966 0.981475
vt 0.292966 0.763605
vt 0.292966 0.645599
vt 0.292966 0.408026
vt 0.292966 0.288898
vt 0.292966 0.101451
vt 0.039959 1.000000
vt 0.039959 0.981475
vt 0.039959 0.763605
vt 0.039959 0.645599
vt 0.039959 0.408026
vt 0.039959 0.288898
vt 0.039959 0.101451
vt 0.626008 1.000000
vt 0.626008 0.981475
vt 0.626008 0.763605
vt 0.626008 0.645599
vt 0.626008 0.408026
vt 0.626008 0.288898
vt 0.626008 0.101451
vt 0.376261 1.000000
vt 0.376261 0.981475
vt 0.376261 0.763605
vt 0.376261 0.645599
vt 0.376261 0.408026
vt 0.376261 0.288898
vt 0.376261 0.101451
vt 0.958617 0.981475
vt 0.958617 0.763605
vt 0.958617 0.645599
vt 0.958617 0.408026
vt 0.958617 0.288898
vt 0.958617 0.101451
vt 0.708545 0.981475
vt 0.708545 0.763605
vt 0.708545 0.645599
vt 0.708545 0.408026
vt 0.708545 0.288898
vt 0.708545 0.101451
vt 0.121806 1.000000
vt 0.121806 0.981475
vt 0.121806 0.763605
vt 0.121806 0.645599
vt 0.121806 0.408026
vt 0.121806 0.288898
vt 0.121806 0.101451
vt 0.126029 1.000000
vt 0.126029 0.981475
vt 0.126029 0.763605
vt 0.126029 0.645599
vt 0.126029 0.408026
vt 0.126029 0.288898
vt 0.126029 0.101451
vt 0.205908 1.000000
vt 0.205908 0.981475
vt 0.205908 0.763605
vt 0.205908 0.645599
vt 0.205908 0.408026
vt 0.205908 0.288898
vt 0.205908 0.101451
vt 0.211152 1.000000
vt 0.211152 0.981475
vt 0.211152 0.763605
vt 0.211152 0.645599
vt 0.211152 0.408026
vt 0.211152 0.288898
vt 0.211152 0.101451
vt 0.456628 1.000000
vt 0.456628 0.981475
vt 0.456628 0.763605
vt 0.456628 0.645599
vt 0.456628 0.408026
vt 0.456628 0.288898
vt 0.456628 0.101451
vt 0.460918 1.000000
vt 0.460918 0.981475
vt 0.460918 0.763605
vt 0.460918 0.645599
vt 0.460918 0.408026
vt 0.460918 0.288898
vt 0.460918 0.101451
vt 0.541050 1.000000
vt 0.541050 0.981475
vt 0.541050 0.763605
vt 0.541050 0.645599
vt 0.541050 0.408026
vt 0.541050 0.288898
vt 0.541050 0.101451
vt 0.544845 1.000000
vt 0.544845 0.981475
vt 0.544845 0.763605
vt 0.544845 0.645599
vt 0.544845 0.408026
vt 0.544845 0.288898
vt 0.544845 0.101451
vt 0.788117 0.981475
vt 0.788117 0.763605
vt 0.788117 0.645599
vt 0.788117 0.408026
vt 0.788117 0.288898
vt 0.788117 0.101451
vt 0.793446 0.981475
vt 0.793446 0.763605
vt 0.793446 0.645599
vt 0.793446 0.408026
vt 0.793446 0.288898
vt 0.793446 0.101451
vt 0.873734 0.981475
vt 0.873734 0.763605
vt 0.873734 0.645599
vt 0.873734 0.408026
vt 0.873734 0.288898
vt 0.873734 0.101451
vt 0.877986 0.981475
vt 0.877986 0.763605
vt 0.877986 0.645599
vt 0.877986 0.408026
vt 0.877986 0.288898
vt 0.877986 0.101451
vt 0.284506 0.099904
vt 0.284506 0.266503
vt 0.284506 0.409267
vt 0.284506 0.620416
vt 0.284506 0.763750
vt 0.284506 0.957388
vt 0.113343 0.957388
vt 0.045946 0.957388
vt 0.113343 0.763750
vt 0.045946 0.763750
vt 0.113343 0.620416
vt 0.045946 0.620416
vt 0.113343 0.409267
vt 0.045946 0.409267
vt 0.113343 0.266503
vt 0.045946 0.266503
vt 0.113343 0.099904
vt 0.045946 0.099904
vt 0.621691 0.099904
vt 0.621691 0.266503
vt 0.620701 0.409267
vt 0.620701 0.620416
vt 0.451341 0.957388
vt 0.385163 0.957388
vt 0.451341 0.763750
vt 0.385163 0.763750
vt 0.451391 0.620416
vt 0.385214 0.620416
vt 0.451391 0.409267
vt 0.385214 0.409267
vt 0.452381 0.266503
vt 0.386204 0.266503
vt 0.452381 0.099904
vt 0.386204 0.099904
vt 0.951035 0.099904
vt 0.951035 0.266503
vt 0.952325 0.409267
vt 0.952325 0.620416
vt 0.952053 0.763750
vt 0.952053 0.957388
vt 0.781646 0.957388
vt 0.716123 0.957388
vt 0.781646 0.763750
vt 0.716123 0.763750
vt 0.781918 0.620416
vt 0.716395 0.620416
vt 0.781918 0.409267
vt 0.716395 0.409267
vt 0.780628 0.266503
vt 0.715105 0.266503
vt 0.780628 0.099904
vt 0.715105 0.099904
vt 0.197618 0.957388
vt 0.131842 0.957388
vt 0.197618 0.763750
vt 0.131842 0.763750
vt 0.197618 0.620416
vt 0.131842 0.620416
vt 0.197618 0.409267
vt 0.131842 0.409267
vt 0.197618 0.266503
vt 0.131842 0.266503
vt 0.197618 0.099904
vt 0.131842 0.099904
vt 0.217136 0.957388
vt 0.217136 0.763750
vt 0.217136 0.620416
vt 0.217136 0.409267
vt 0.217136 0.266503
vt 0.217136 0.099904
vt 0.535784 0.957388
vt 0.469799 0.957388
vt 0.535784 0.763750
vt 0.469799 0.763750
vt 0.535834 0.620416
vt 0.469849 0.620416
vt 0.535834 0.409267
vt 0.469849 0.409267
vt 0.536824 0.266503
vt 0.470840 0.266503
vt 0.536824 0.099904
vt 0.470840 0.099904
vt 0.553817 0.957388
vt 0.553817 0.763750
vt 0.553867 0.620416
vt 0.553867 0.409267
vt 0.554858 0.266503
vt 0.554858 0.099904
vt 0.867200 0.957388
vt 0.801087 0.957388
vt 0.867200 0.763750
vt 0.801087 0.763750
vt 0.867472 0.620416
vt 0.801359 0.620416
vt 0.867472 0.409267
vt 0.801359 0.409267
vt 0.866182 0.266503
vt 0.800069 0.266503
vt 0.866182 0.099904
vt 0.800069 0.099904
vt 0.885657 0.957388
vt 0.885657 0.763750
vt 0.885930 0.620416
vt 0.885930 0.409267
vt 0.884639 0.266503
vt 0.884639 0.099904
vt 0.303047 0.745993
vt 0.033416 0.745993
vt 0.633860 0.746808
vt 0.366757 0.746808
vt 0.698524 0.745024
vt 0.967863 0.745024
vt 0.303047 0.392910
vt 0.033416 0.392910
vt 0.366757 0.392335
vt 0.633860 0.392335
vt 0.698524 0.392910
vt 0.967863 0.392910
vt 0.303047 0.083431
vt 0.033416 0.083431
vt 0.633860 0.082855
vt 0.366757 0.082855
vt 0.967863 0.084582
vt 0.698524 0.084582
vt 0.033416 0.745993
vt 0.967863 0.745024
vt 0.303047 0.745993
vt 0.633860 0.746808
vt 0.366757 0.746808
vt 0.698524 0.745024
vt 0.033416 0.392910
vt 0.967863 0.392910
vt 0.303047 0.392910
vt 0.633860 0.392335
vt 0.366757 0.392335
vt 0.698524 0.392910
vt 0.033416 0.083431
vt 0.967863 0.084582
vt 0.303047 0.083431
vt 0.633860 0.082855
vt 0.366757 0.082855
vt 0.698524 0.084582
vt 0.033416 0.763888
vt 0.967863 0.763920
vt 0.303047 0.763888
vt 0.633860 0.763860
vt 0.366757 0.763860
vt 0.698524 0.763920
vt 0.033416 0.408225
vt 0.967863 0.408225
vt 0.303047 0.408225
vt 0.633860 0.408245
vt 0.366757 0.408245
vt 0.698524 0.408225
vt 0.033416 0.101747
vt 0.967863 0.101708
vt 0.303047 0.101747
vt 0.633860 0.101767
vt 0.366757 0.101767
vt 0.698524 0.101708
vt 0.622286 0.763705
vt 0.616606 0.763750
vt 0.619917 0.763705
vt 0.617564 0.763724
vt 0.616606 0.957388
vt 0.622286 0.964743
vt 0.617564 0.961696
vt 0.619917 0.964743
vt 0.033416 0.750004
vt 0.033416 0.760590
vt 0.033416 0.753674
vt 0.033416 0.758059
vt 0.967863 0.760273
vt 0.967863 0.749565
vt 0.967863 0.757671
vt 0.967863 0.753236
vt 0.303047 0.760590
vt 0.303047 0.750004
vt 0.303047 0.758059
vt 0.303047 0.753674
vt 0.633860 0.760871
vt 0.633860 0.750396
vt 0.633860 0.758405
vt 0.633860 0.754066
vt 0.366757 0.750396
vt 0.366757 0.760871
vt 0.366757 0.754066
vt 0.366757 0.758405
vt 0.698524 0.749565
vt 0.698524 0.760273
vt 0.698524 0.753236
vt 0.698524 0.757671
vt 0.033416 0.395697
vt 0.033416 0.405914
vt 0.033416 0.399364
vt 0.033416 0.403596
vt 0.967863 0.405914
vt 0.967863 0.395697
vt 0.967863 0.403596
vt 0.967863 0.399364
vt 0.303047 0.405914
vt 0.303047 0.395697
vt 0.303047 0.403596
vt 0.303047 0.399364
vt 0.633860 0.405695
vt 0.633860 0.395385
vt 0.633860 0.403323
vt 0.633860 0.399053
vt 0.366757 0.395385
vt 0.366757 0.405695
vt 0.366757 0.399053
vt 0.366757 0.403323
vt 0.698524 0.395697
vt 0.698524 0.405914
vt 0.698524 0.399364
vt 0.698524 0.403596
vt 0.033416 0.087662
vt 0.033416 0.098300
vt 0.033416 0.091332
vt 0.033416 0.095739
vt 0.967863 0.098691
vt 0.967863 0.088207
vt 0.967863 0.096219
vt 0.967863 0.091876
vt 0.303047 0.098300
vt 0.303047 0.087662
vt 0.303047 0.095739
vt 0.303047 0.091332
vt 0.633860 0.098114
vt 0.633860 0.087405
vt 0.633860 0.095511
vt 0.633860 0.091075
vt 0.366757 0.087405
vt 0.366757 0.098114
vt 0.366757 0.091075
vt 0.366757 0.095511
vt 0.698524 0.088207
vt 0.698524 0.098691
vt 0.698524 0.091876
vt 0.698524 0.096219
s 1
usemtl building_l2
f 36/36/1 17/17/1 22/22/1 38/38/1 50/50/1 62/62/1 74/74/1 86/86/1 98/98/1 21/21/1 18/18/1 343/343/2 96/96/3 84/84/1 336/336/2 72/72/4 60/60/1 331/331/2 48/48/5
f 118/118/6 47/47/7 35/35/8 117/117/9
f 104/104/10 46/46/11 34/34/12 103/103/13
f 131/131/14 43/43/15 31/31/16 130/130/17
f 120/120/18 71/71/19 59/59/8 119/119/20
f 106/106/21 70/70/22 58/58/12 105/105/23
f 133/133/24 67/67/25 55/55/16 132/132/26
f 122/122/27 95/95/28 83/83/8 121/121/29
f 108/108/30 94/94/31 82/82/12 107/107/32
f 135/135/33 91/91/34 79/79/16 134/134/35
f 103/103/13 34/34/12 13/13/12 102/102/36 163/163/36 156/156/36 149/149/36 142/142/36 109/109/36 6/6/37 30/30/37 110/110/38 143/143/13 150/150/39 157/157/40 164/164/41
f 23/23/42 7/7/16 344/344/43 345/345/44
f 38/38/1 22/22/1 19/19/12 37/37/12 49/49/12 61/61/12 73/73/12 85/85/12 97/97/12 20/20/12 21/21/1 98/98/1 86/86/1 74/74/1 62/62/1 50/50/1
f 37/37/12 19/19/12 13/13/12 34/34/12 46/46/11 328/328/45 58/58/12 70/70/22 334/334/45 82/82/12 94/94/31 340/340/45 14/14/12 20/20/12 97/97/12 85/85/12 73/73/12 61/61/12 49/49/12
f 29/29/36 4/4/36 12/12/16 33/33/16 45/45/16 57/57/16 69/69/16 81/81/16 93/93/16 11/11/16 2/2/36
f 39/39/42 24/24/42 28/28/42 41/41/42 53/53/42 65/65/42 77/77/42 89/89/42 101/101/42 27/27/42 23/23/42 345/345/44 99/99/46 87/87/42 338/338/44 75/75/47 63/63/42 332/332/48 51/51/49
f 40/40/8 25/25/8 16/16/8 35/35/8 47/47/7 330/330/50 59/59/8 71/71/19 337/337/51 83/83/8 95/95/28 342/342/51 15/15/8 26/26/8 100/100/8 88/88/8 76/76/8 64/64/8 52/52/8
f 118/118/6 117/117/9 387/387/52 382/382/53
f 117/117/9 192/192/54 304/304/55 386/386/52 388/388/56 389/389/57 387/387/52
f 42/42/58 329/329/59 346/346/60 390/390/61 392/392/62 393/393/63 391/391/61 364/364/64
f 105/105/23 58/58/12 328/328/45 329/329/59 54/54/37 112/112/65 145/145/66 152/152/67 159/159/68 166/166/69
f 42/42/58 111/111/70 110/110/38 30/30/37
f 107/107/32 82/82/12 334/334/45 335/335/71 78/78/37 114/114/72 147/147/32 154/154/73 161/161/74 168/168/72
f 66/66/75 113/113/76 112/112/65 54/54/37
f 121/121/29 83/83/8 337/337/51 336/336/2 84/84/1 128/128/77 175/175/78 182/182/79 189/189/80 196/196/81
f 90/90/82 115/115/83 114/114/72 78/78/37
f 120/120/18 119/119/20 243/243/84 242/242/85
f 122/122/27 121/121/29 241/241/86 240/240/87
f 154/154/73 155/155/88 285/285/89 283/283/90
f 132/132/26 55/55/16 333/333/91 332/332/48 63/63/42 138/138/92 200/200/93 206/206/94 212/212/95 218/218/96
f 48/48/5 125/125/97 124/124/98 36/36/1
f 117/117/9 35/35/8 16/16/8 116/116/36 191/191/36 184/184/36 177/177/36 170/170/36 123/123/36 17/17/1 36/36/1 124/124/98 171/171/99 178/178/100 185/185/101 192/192/54
f 72/72/4 127/127/102 126/126/103 60/60/1
f 119/119/20 59/59/8 330/330/50 331/331/2 60/60/1 126/126/103 173/173/104 180/180/105 187/187/106 194/194/107
f 96/96/3 129/129/108 128/128/77 84/84/1
f 190/190/109 189/189/80 300/300/110 302/302/111
f 152/152/67 153/153/112 281/281/113 279/279/114
f 188/188/115 187/187/106 296/296/116 298/298/117
f 210/210/118 216/216/119 130/130/17 31/31/16 8/8/16 24/24/42 39/39/42 136/136/120 198/198/121 204/204/122
f 51/51/49 137/137/123 136/136/120 39/39/42
f 75/75/47 139/139/124 138/138/92 63/63/42
f 99/99/46 141/141/125 140/140/126 87/87/42
f 150/150/39 151/151/127 277/277/128 275/275/129
f 186/186/130 185/185/101 292/292/131 294/294/132
f 220/220/133 221/221/134 327/327/135 326/326/136
f 144/144/10 151/151/127 150/150/39 143/143/13
f 146/146/137 153/153/112 152/152/67 145/145/66
f 148/148/138 155/155/88 154/154/73 147/147/32
f 155/155/88 162/162/139 284/284/140 285/285/89
f 218/218/96 219/219/141 325/325/142 324/324/143
f 161/161/74 154/154/73 283/283/90 282/282/144
f 158/158/145 165/165/146 164/164/41 157/157/40
f 160/160/147 167/167/148 166/166/69 159/159/68
f 162/162/139 169/169/83 168/168/72 161/161/74
f 5/5/37 14/14/12 340/340/45 341/341/59
f 216/216/119 217/217/149 323/323/150 322/322/151
f 153/153/112 160/160/147 280/280/152 281/281/113
f 221/221/134 135/135/33 256/256/153 327/327/135
f 172/172/154 179/179/155 178/178/100 171/171/99
f 174/174/156 181/181/157 180/180/105 173/173/104
f 176/176/158 183/183/159 182/182/79 175/175/78
f 159/159/68 152/152/67 279/279/114 278/278/160
f 114/114/72 115/115/83 239/239/161 237/237/162
f 134/134/35 220/220/133 326/326/136 257/257/163
f 186/186/130 193/193/164 192/192/54 185/185/101
f 188/188/115 195/195/165 194/194/107 187/187/106
f 190/190/109 197/197/166 196/196/81 189/189/80
f 18/18/1 15/15/8 342/342/51 343/343/2
f 151/151/127 158/158/145 276/276/167 277/277/128
f 112/112/65 113/113/76 235/235/168 233/233/169
f 134/134/35 79/79/16 339/339/43 338/338/44 87/87/42 140/140/126 202/202/170 208/208/171 214/214/172 220/220/133
f 219/219/141 133/133/24 258/258/173 325/325/142
f 199/199/174 205/205/175 204/204/122 198/198/121
f 201/201/176 207/207/177 206/206/94 200/200/93
f 203/203/178 209/209/179 208/208/171 202/202/170
f 157/157/40 150/150/39 275/275/129 274/274/180
f 110/110/38 111/111/70 231/231/181 229/229/182
f 132/132/26 218/218/96 324/324/143 259/259/183
f 211/211/184 217/217/149 216/216/119 210/210/118
f 213/213/185 219/219/141 218/218/96 212/212/95
f 215/215/186 221/221/134 220/220/133 214/214/172
f 56/56/37 44/44/37 32/32/37 9/9/37 3/3/36 1/1/36 10/10/37 92/92/37 80/80/37 68/68/37
f 41/41/42 28/28/42 25/25/8 40/40/8 52/52/8 64/64/8 76/76/8 88/88/8 100/100/8 26/26/8 27/27/42 101/101/42 89/89/42 77/77/42 65/65/42 53/53/42
f 33/33/16 12/12/16 8/8/16 31/31/16 43/43/15 333/333/91 55/55/16 67/67/25 339/339/43 79/79/16 91/91/34 344/344/43 7/7/16 11/11/16 93/93/16 81/81/16 69/69/16 57/57/16 45/45/16
f 30/30/37 6/6/37 9/9/37 32/32/37 44/44/37 56/56/37 68/68/37 80/80/37 92/92/37 10/10/37 5/5/37 341/341/59 90/90/82 78/78/37 335/335/71 66/66/75 54/54/37 329/329/59 42/42/58
f 193/193/164 118/118/6 382/382/53 384/384/202 385/385/203 383/383/53 305/305/204
f 119/119/20 194/194/107 306/306/201 243/243/84
f 171/171/99 124/124/98 245/245/213 244/244/212
f 195/195/165 120/120/18 242/242/85 307/307/200
f 125/125/97 172/172/154 246/246/211 247/247/210
f 121/121/29 196/196/81 308/308/199 241/241/86
f 173/173/104 126/126/103 249/249/217 248/248/216
f 197/197/166 122/122/27 240/240/87 309/309/198
f 158/158/145 157/157/40 274/274/180 276/276/167
f 192/192/54 193/193/164 305/305/204 304/304/55
f 160/160/147 159/159/68 278/278/160 280/280/152
f 175/175/78 128/128/77 253/253/221 252/252/220
f 194/194/107 195/195/165 307/307/200 306/306/201
f 162/162/139 161/161/74 282/282/144 284/284/140
f 129/129/108 176/176/158 254/254/219 255/255/218
f 196/196/81 197/197/166 309/309/198 308/308/199
f 124/124/98 125/125/97 247/247/210 245/245/213
f 126/126/103 127/127/102 251/251/214 249/249/217
f 103/103/13 164/164/41 286/286/197 227/227/196
f 128/128/77 129/129/108 255/255/218 253/253/221
f 165/165/146 104/104/10 226/226/195 287/287/194
f 105/105/23 166/166/69 288/288/169 225/225/193
f 167/167/148 106/106/21 224/224/192 289/289/191
f 107/107/32 168/168/72 290/290/190 223/223/189
f 199/199/174 198/198/121 262/262/230 264/264/229
f 169/169/83 108/108/30 222/222/188 291/291/187
f 201/201/176 200/200/93 266/266/234 268/268/233
f 164/164/41 165/165/146 287/287/194 286/286/197
f 203/203/178 202/202/170 270/270/238 272/272/237
f 166/166/69 167/167/148 289/289/191 288/288/169
f 135/135/33 134/134/35 257/257/163 256/256/153
f 210/210/118 204/204/122 311/311/243 310/310/242
f 168/168/72 169/169/83 291/291/187 290/290/190
f 133/133/24 132/132/26 259/259/183 258/258/173
f 205/205/175 211/211/184 312/312/241 313/313/240
f 131/131/14 130/130/17 261/261/206 260/260/205
f 212/212/95 206/206/94 315/315/247 314/314/246
f 198/198/121 136/136/120 263/263/231 262/262/230
f 207/207/177 213/213/185 316/316/245 317/317/244
f 137/137/123 199/199/174 264/264/229 265/265/228
f 214/214/172 208/208/171 319/319/251 318/318/250
f 200/200/93 138/138/92 267/267/235 266/266/234
f 209/209/179 215/215/186 320/320/249 321/321/248
f 139/139/124 201/201/176 268/268/233 269/269/232
f 204/204/122 205/205/175 313/313/240 311/311/243
f 202/202/170 140/140/126 271/271/239 270/270/238
f 206/206/94 207/207/177 317/317/244 315/315/247
f 141/141/125 203/203/178 272/272/237 273/273/236
f 208/208/171 209/209/179 321/321/248 319/319/251
f 172/172/154 171/171/99 244/244/212 246/246/211
f 136/136/120 137/137/123 265/265/228 263/263/231
f 174/174/156 173/173/104 248/248/216 250/250/215
f 138/138/92 139/139/124 269/269/232 267/267/235
f 176/176/158 175/175/78 252/252/220 254/254/219
f 140/140/126 141/141/125 273/273/236 271/271/239
f 108/108/30 107/107/32 223/223/189 222/222/188
f 185/185/101 178/178/100 293/293/223 292/292/131
f 106/106/21 105/105/23 225/225/193 224/224/192
f 104/104/10 103/103/13 227/227/196 226/226/195
f 187/187/106 180/180/105 297/297/225 296/296/116
f 211/211/184 210/210/118 310/310/242 312/312/241
f 181/181/157 188/188/115 298/298/117 299/299/224
f 213/213/185 212/212/95 314/314/246 316/316/245
f 143/143/13 110/110/38 229/229/182 228/228/196
f 189/189/80 182/182/79 301/301/227 300/300/110
f 215/215/186 214/214/172 318/318/250 320/320/249
f 111/111/70 144/144/10 230/230/207 231/231/181
f 183/183/159 190/190/109 302/302/111 303/303/226
f 145/145/66 112/112/65 233/233/169 232/232/209
f 178/178/100 179/179/155 295/295/222 293/293/223
f 144/144/10 143/143/13 228/228/196 230/230/207
f 113/113/76 146/146/137 234/234/208 235/235/168
f 180/180/105 181/181/157 299/299/224 297/297/225
f 146/146/137 145/145/66 232/232/209 234/234/208
f 130/130/17 216/216/119 322/322/151 261/261/206
f 147/147/32 114/114/72 237/237/162 236/236/189
f 182/182/79 183/183/159 303/303/226 301/301/227
f 148/148/138 147/147/32 236/236/189 238/238/188
f 217/217/149 131/131/14 260/260/205 323/323/150
f 115/115/83 148/148/138 238/238/188 239/239/161
f 151/151/127 144/144/10 111/111/70 42/42/58 364/364/64 366/366/252 46/46/11 104/104/10 165/165/146 158/158/145
f 331/331/2 330/330/50 349/349/253 350/350/254
f 48/48/5 331/331/2 350/350/254 406/406/255 408/408/256 409/409/257 407/407/255 368/368/258
f 334/334/45 70/70/22 372/372/259 422/422/260 424/424/261 425/425/262 423/423/260 354/354/263
f 186/186/130 294/294/132 295/295/222 179/179/155 172/172/154 125/125/97 48/48/5 368/368/258 367/367/264 47/47/7 118/118/6 193/193/164
f 205/205/175 199/199/174 137/137/123 51/51/49 369/369/265 365/365/266 43/43/15 131/131/14 217/217/149 211/211/184
f 153/153/112 146/146/137 113/113/76 66/66/75 370/370/267 372/372/259 70/70/22 106/106/21 167/167/148 160/160/147
f 174/174/156 250/250/215 251/251/214 127/127/102 72/72/4 374/374/268 373/373/269 71/71/19 120/120/18 195/195/165 188/188/115 181/181/157
f 207/207/177 201/201/176 139/139/124 75/75/47 375/375/267 371/371/259 67/67/25 133/133/24 219/219/141 213/213/185
f 94/94/31 108/108/30 169/169/83 162/162/139 155/155/88 148/148/138 115/115/83 90/90/82 376/376/270 378/378/271
f 122/122/27 197/197/166 190/190/109 183/183/159 176/176/158 129/129/108 96/96/3 380/380/265 379/379/266 95/95/28
f 221/221/134 215/215/186 209/209/179 203/203/178 141/141/125 99/99/46 381/381/272 377/377/273 91/91/34 135/135/33
f 339/339/43 67/67/25 371/371/259 418/418/260 420/420/261 421/421/274 419/419/260 353/353/263
f 330/330/50 47/47/7 367/367/264 402/402/275 404/404/276 405/405/277 403/403/275 349/349/253
f 372/372/259 370/370/267 415/415/278 422/422/260
f 332/332/48 333/333/91 347/347/279 351/351/280
f 72/72/4 336/336/2 356/356/281 430/430/282 432/432/283 433/433/284 431/431/282 374/374/268
f 337/337/51 71/71/19 373/373/269 426/426/285 428/428/286 429/429/287 427/427/285 355/355/288
f 66/66/75 335/335/71 352/352/289 414/414/278 416/416/290 417/417/291 415/415/278 370/370/267
f 90/90/82 341/341/59 358/358/292 438/438/293 440/440/294 441/441/295 439/439/293 376/376/270
f 378/378/271 376/376/270 439/439/293 446/446/296
f 335/335/71 334/334/45 354/354/263 352/352/289
f 344/344/43 91/91/34 377/377/273 442/442/297 444/444/298 445/445/299 443/443/297 359/359/300
f 377/377/273 381/381/272 459/459/301 442/442/297
f 336/336/2 337/337/51 355/355/288 356/356/281
f 96/96/3 343/343/2 362/362/302 454/454/303 456/456/304 457/457/305 455/455/303 380/380/265
f 342/342/51 95/95/28 379/379/266 450/450/306 452/452/307 453/453/308 451/451/306 361/361/309
f 367/367/264 368/368/258 407/407/255 402/402/275
f 338/338/44 339/339/43 353/353/263 357/357/289
f 341/341/59 340/340/45 360/360/310 358/358/292
f 379/379/266 380/380/265 455/455/303 450/450/306
f 343/343/2 342/342/51 361/361/309 362/362/302
f 51/51/49 332/332/48 351/351/280 410/410/311 412/412/312 413/413/313 411/411/311 369/369/265
f 371/371/259 375/375/267 435/435/278 418/418/260
f 75/75/47 338/338/44 357/357/289 434/434/278 436/436/314 437/437/315 435/435/278 375/375/267
f 345/345/44 344/344/43 359/359/300 363/363/316
f 365/365/266 369/369/265 411/411/311 394/394/317
f 333/333/91 43/43/15 365/365/266 394/394/317 396/396/318 397/397/319 395/395/317 347/347/279
f 329/329/59 328/328/45 348/348/320 346/346/60
f 328/328/45 46/46/11 366/366/252 398/398/321 400/400/322 401/401/323 399/399/321 348/348/320
f 340/340/45 94/94/31 378/378/271 446/446/296 448/448/324 449/449/325 447/447/296 360/360/310
f 99/99/46 345/345/44 363/363/316 458/458/301 460/460/326 461/461/327 459/459/301 381/381/272
f 373/373/269 374/374/268 431/431/282 426/426/285
f 346/346/60 348/348/320 399/399/321 390/390/61
f 352/352/289 354/354/263 423/423/260 414/414/278
f 358/358/292 360/360/310 447/447/296 438/438/293
f 350/350/254 349/349/253 403/403/275 406/406/255
f 356/356/281 355/355/288 427/427/285 430/430/282
f 362/362/302 361/361/309 451/451/306 454/454/303
f 351/351/280 347/347/279 395/395/317 410/410/311
f 357/357/289 353/353/263 419/419/260 434/434/278
f 363/363/316 359/359/300 443/443/297 458/458/301
f 366/366/252 364/364/64 391/391/61 398/398/321
f 382/382/53 387/387/52 389/389/57 384/384/202
f 384/384/202 389/389/57 388/388/56 385/385/203
f 385/385/203 388/388/56 386/386/52 383/383/53
f 390/390/61 399/399/321 401/401/323 392/392/62
f 392/392/62 401/401/323 400/400/322 393/393/63
f 393/393/63 400/400/322 398/398/321 391/391/61
f 414/414/278 423/423/260 425/425/262 416/416/290
f 416/416/290 425/425/262 424/424/261 417/417/291
f 417/417/291 424/424/261 422/422/260 415/415/278
f 438/438/293 447/447/296 449/449/325 440/440/294
f 440/440/294 449/449/325 448/448/324 441/441/295
f 441/441/295 448/448/324 446/446/296 439/439/293
f 406/406/255 403/403/275 405/405/277 408/408/256
f 408/408/256 405/405/277 404/404/276 409/409/257
f 409/409/257 404/404/276 402/402/275 407/407/255
f 430/430/282 427/427/285 429/429/287 432/432/283
f 432/432/283 429/429/287 428/428/286 433/433/284
f 433/433/284 428/428/286 426/426/285 431/431/282
f 454/454/303 451/451/306 453/453/308 456/456/304
f 456/456/304 453/453/308 452/452/307 457/457/305
f 457/457/305 452/452/307 450/450/306 455/455/303
f 410/410/311 395/395/317 397/397/319 412/412/312
f 412/412/312 397/397/319 396/396/318 413/413/313
f 413/413/313 396/396/318 394/394/317 411/411/311
f 434/434/278 419/419/260 421/421/274 436/436/314
f 436/436/314 421/421/274 420/420/261 437/437/315
f 437/437/315 420/420/261 418/418/260 435/435/278
f 458/458/301 443/443/297 445/445/299 460/460/326
f 460/460/326 445/445/299 444/444/298 461/461/327
f 461/461/327 444/444/298 442/442/297 459/459/301
usemtl building_l2.GLASS
f 291/291/187 222/222/188 223/223/189 290/290/190
f 289/289/191 224/224/192 225/225/193 288/288/169
f 287/287/194 226/226/195 227/227/196 286/286/197
f 309/309/198 240/240/87 241/241/86 308/308/199
f 307/307/200 242/242/85 243/243/84 306/306/201
f 327/327/135 256/256/153 257/257/163 326/326/136
f 325/325/142 258/258/173 259/259/183 324/324/143
f 323/323/150 260/260/205 261/261/206 322/322/151
f 231/231/181 230/230/207 228/228/196 229/229/182
f 235/235/168 234/234/208 232/232/209 233/233/169
f 239/239/161 238/238/188 236/236/189 237/237/162
f 277/277/128 276/276/167 274/274/180 275/275/129
f 281/281/113 280/280/152 278/278/160 279/279/114
f 285/285/89 284/284/140 282/282/144 283/283/90
f 247/247/210 246/246/211 244/244/212 245/245/213
f 251/251/214 250/250/215 248/248/216 249/249/217
f 255/255/218 254/254/219 252/252/220 253/253/221
f 295/295/222 294/294/132 292/292/131 293/293/223
f 299/299/224 298/298/117 296/296/116 297/297/225
f 303/303/226 302/302/111 300/300/110 301/301/227
f 265/265/228 264/264/229 262/262/230 263/263/231
f 269/269/232 268/268/233 266/266/234 267/267/235
f 273/273/236 272/272/237 270/270/238 271/271/239
f 313/313/240 312/312/241 310/310/242 311/311/243
f 317/317/244 316/316/245 314/314/246 315/315/247
f 321/321/248 320/320/249 318/318/250 319/319/251
f 305/305/204 383/383/53 386/386/52 304/304/55
