# Blender 3.3.1
# www.blender.org
mtllib building_church_side_bottom2.mtl
o building_church_side_bottom2
v -2.497247 4.470304 0.000000
v 2.497247 4.470304 0.000000
v 2.497247 1.649484 -0.000000
v -2.497247 1.656344 -0.000000
v -1.387944 1.654820 -0.000000
v -1.387944 4.470304 0.000000
v -0.580975 1.653712 -0.000000
v -0.580975 4.446669 0.000000
v 0.575347 1.652124 -0.000000
v 0.575347 4.470304 0.000000
v 1.364257 1.651040 -0.000000
v 1.364257 4.470304 0.000000
v -2.497247 0.471120 0.140343
v -2.497247 0.002306 0.140343
v 2.497247 0.002306 0.140343
v 2.497247 0.760199 0.043565
v 2.497247 1.562393 0.043565
v -2.497247 1.656344 0.043565
v -2.497247 1.562393 0.043565
v 2.497247 1.649484 0.043565
v 1.364257 1.651040 0.043565
v 2.497247 0.471120 0.140343
v -2.497247 0.557844 0.140344
v -2.497247 0.760199 0.043565
v 2.497247 0.543515 0.140344
v -1.387944 1.654820 0.043565
v -0.580975 1.653712 0.043565
v 0.575347 1.652124 0.043565
v -2.497247 1.635004 0.079838
v -2.497247 1.592235 0.079838
v 2.497247 1.592235 0.079838
v 2.497247 1.631881 0.079838
v 1.364257 1.632589 0.079838
v -1.387944 1.634310 0.079838
v -0.580975 1.633806 0.079838
v 0.575347 1.633083 0.079838
v -1.387944 3.533073 0.000000
v -0.580975 3.605682 0.000000
v -1.330212 3.777120 0.000000
v -1.255586 3.930406 0.000000
v -1.191045 4.019151 0.000000
v -0.991370 4.226892 0.000000
v -0.777577 4.011083 0.000000
v -0.660596 3.813425 0.000000
v 0.575347 3.654282 0.000000
v 1.364257 3.531251 0.000000
v 0.629473 3.823703 0.000000
v 0.742421 4.019344 0.000000
v 0.948146 4.223053 0.000000
v 1.153872 4.009260 0.000000
v 1.248667 3.855974 0.000000
v 1.341445 3.597809 0.000000
v -1.255915 1.873594 -0.148889
v -0.664750 1.872655 -0.148889
v 0.642012 1.879497 -0.148889
v 1.220429 1.878579 -0.148889
v -1.256335 3.473868 -0.148889
v -0.684274 3.494696 -0.148889
v -1.206993 3.675836 -0.148889
v -1.159094 3.793882 -0.148889
v -1.091683 3.902651 -0.148889
v -0.973609 4.020995 -0.148889
v -0.828645 3.867536 -0.148889
v -0.742750 3.693134 -0.148889
v 0.638076 3.416864 -0.148889
v 1.213425 3.470856 -0.148889
v 0.692901 3.683506 -0.148889
v 0.775713 3.849187 -0.148889
v 0.926548 4.021700 -0.148889
v 1.066177 3.875663 -0.148889
v 1.135680 3.745851 -0.148889
v 1.202536 3.550565 -0.148889
v -1.468878 3.577360 0.018394
v -1.540504 3.579200 0.018394
v -1.526825 3.578849 0.035580
v -1.456974 3.668725 0.018394
v -1.436048 3.743826 0.018394
v -1.470120 3.672669 0.035580
v -1.449193 3.747771 0.035580
v -1.491389 3.679051 0.042146
v -1.470463 3.754153 0.042146
v -1.512658 3.685433 0.035580
v -1.491732 3.760535 0.035580
v -1.525803 3.689378 0.018394
v -1.504877 3.764479 0.018394
v -1.504691 3.578280 0.042146
v -1.482557 3.577712 0.035580
v -1.350412 3.934509 0.018394
v -1.361421 3.942942 0.035580
v -1.379233 3.956588 0.042146
v -1.397046 3.970233 0.035580
v -1.408055 3.978667 0.018394
v -1.281704 4.042422 0.018394
v -1.289916 4.053781 0.035581
v -1.303202 4.072160 0.042146
v -1.316489 4.090539 0.035581
v -1.324701 4.101897 0.018394
v -1.132755 4.217982 0.018394
v -1.140966 4.229341 0.035581
v -1.154253 4.247720 0.042146
v -1.167539 4.266099 0.035581
v -1.175751 4.277457 0.018394
v -0.990559 4.309799 0.017180
v -0.990559 4.325481 0.036161
v -0.990559 4.350856 0.043412
v -0.990559 4.376230 0.036161
v -0.990559 4.391913 0.017180
v -0.521478 3.582143 0.018394
v -0.449852 3.583982 0.018394
v -0.463531 3.583631 0.035580
v -0.533382 3.668725 0.018394
v -0.554308 3.743826 0.018394
v -0.520237 3.672669 0.035580
v -0.541163 3.747771 0.035580
v -0.498967 3.679051 0.042146
v -0.519894 3.754153 0.042146
v -0.477698 3.685433 0.035580
v -0.498624 3.760535 0.035580
v -0.464553 3.689378 0.018394
v -0.485479 3.764479 0.018394
v -0.485665 3.583063 0.042146
v -0.507799 3.582494 0.035580
v -0.639944 3.934509 0.018394
v -0.628935 3.942942 0.035580
v -0.611123 3.956588 0.042146
v -0.593310 3.970233 0.035580
v -0.582301 3.978667 0.018394
v -0.708652 4.042422 0.018394
v -0.700440 4.053781 0.035581
v -0.687154 4.072160 0.042146
v -0.673867 4.090539 0.035581
v -0.665655 4.101897 0.018394
v -0.857601 4.217982 0.018394
v -0.849390 4.229341 0.035581
v -0.836103 4.247720 0.042146
v -0.822816 4.266099 0.035581
v -0.814605 4.277457 0.018394
v -1.602645 3.408019 0.051321
v -1.606326 3.403775 -0.003361
v -1.606326 3.608711 -0.003361
v -1.602645 3.604468 0.051322
v -1.428530 3.403775 -0.003361
v -1.432211 3.408019 0.051321
v -1.428530 3.608711 -0.003361
v -1.432211 3.604468 0.051322
v -0.548863 3.419630 0.053906
v -0.553921 3.413800 -0.002997
v -0.553921 3.608557 -0.002997
v -0.548863 3.602727 0.053907
v -0.384956 3.413800 -0.002997
v -0.390013 3.419630 0.053906
v -0.384956 3.608557 -0.002997
v -0.390013 3.602727 0.053907
v -2.495733 2.339234 0.252623
v -2.495733 3.556683 0.252623
v -1.992111 2.339234 -0.004960
v -1.992111 2.339234 0.252623
v -1.992111 3.556683 -0.004960
v -2.025905 3.556683 0.252623
v -2.495733 3.901258 0.252624
v -1.992111 3.901258 -0.004960
v -1.992111 3.901258 0.252624
v -2.495733 4.061297 0.026120
v -2.495733 4.061297 -0.004960
v -1.992111 4.061297 -0.004960
v -1.992111 4.061297 0.026120
v -2.495733 3.556683 0.462047
v -1.992111 3.556683 0.462047
v -2.495733 1.679133 -0.004960
v -2.495733 1.679133 0.422220
v -1.992111 1.679133 0.422220
v -1.992111 1.679133 -0.004960
v -2.495733 1.679133 -0.004960
v -1.992111 1.679133 -0.004960
v -1.992111 1.679133 0.252623
v -2.495733 1.679133 0.252623
v -1.992111 0.796526 -0.004960
v -1.992111 0.796526 0.252623
v -2.495733 0.796526 0.252623
v -1.867564 0.510977 -0.073244
v -1.867564 0.510977 0.474378
v -2.620280 0.510977 0.474378
v -1.867564 -0.014385 -0.073244
v -1.867564 -0.014385 0.474378
v -2.620280 -0.014385 0.474378
v -1.992111 1.666123 0.252623
v -2.495733 1.679133 0.127097
v -2.495733 1.666123 0.252623
v -2.495733 1.679133 0.127098
v 2.499461 2.339285 0.252623
v 2.499461 3.558118 0.252623
v 1.934688 2.339234 -0.004960
v 1.934688 2.339234 0.252623
v 1.934688 3.556683 -0.004960
v 1.934688 3.556683 0.252623
v 2.499461 3.905618 0.252624
v 1.934688 3.901258 -0.004960
v 1.934688 3.901258 0.252624
v 2.499461 4.062263 0.026120
v 2.499461 4.062263 -0.004960
v 1.934688 4.061297 -0.004960
v 1.934688 4.061297 0.026120
v 2.499461 3.558118 0.462047
v 1.934688 3.556683 0.462047
v 2.499461 1.645564 -0.004960
v 2.499461 1.673411 0.422220
v 1.934688 1.679133 0.422220
v 1.934688 1.679133 -0.004960
v 2.499461 1.645564 -0.004960
v 1.934688 1.679133 -0.004960
v 1.934688 1.679133 0.252623
v 2.499461 1.645564 0.252623
v 1.934688 0.789521 -0.004960
v 1.934688 0.789521 0.252623
v 2.499461 0.790541 0.252623
v 1.810141 0.587636 -0.073244
v 1.810141 0.587636 0.474378
v 2.624008 0.588107 0.474378
v 1.810141 -0.008325 -0.073244
v 1.810141 -0.008325 0.474378
v 2.624008 -0.007329 0.474378
v 1.934688 1.666123 0.252623
v 2.404516 1.679133 0.127097
v 2.499461 1.660677 0.252623
v 2.499461 1.645564 0.127098
v 2.304264 3.802723 -0.005604
v 2.304264 3.802723 0.100914
v 2.302454 4.477973 -0.005604
v 2.302454 4.477973 0.100914
v -2.300236 3.787769 -0.005604
v 2.503917 3.802723 0.100914
v 2.503917 4.478288 -0.005604
v 2.503917 4.478288 0.100914
v -2.300236 3.787769 0.100914
v -2.300236 4.477973 -0.005604
v -2.300236 4.477973 0.100914
v -2.497232 3.787769 0.100914
v -2.497232 4.477973 -0.005604
v -2.497232 4.477973 0.100914
v 0.473379 3.579576 0.018394
v 0.401752 3.581421 0.018394
v 0.415432 3.581069 0.035580
v 0.485282 3.671238 0.018394
v 0.506208 3.746584 0.018394
v 0.472137 3.675195 0.035580
v 0.493063 3.750541 0.035580
v 0.450868 3.681598 0.042146
v 0.471794 3.756944 0.042146
v 0.429598 3.688001 0.035580
v 0.450525 3.763347 0.035580
v 0.416453 3.691958 0.018394
v 0.437379 3.767304 0.018394
v 0.437565 3.580498 0.042146
v 0.459699 3.579928 0.035580
v 0.591845 3.937887 0.018394
v 0.580836 3.946349 0.035580
v 0.563023 3.960039 0.042146
v 0.545210 3.973728 0.035580
v 0.534201 3.982190 0.018394
v 0.660552 4.046152 0.018394
v 0.652341 4.057548 0.035581
v 0.639054 4.075987 0.042146
v 0.625767 4.094426 0.035581
v 0.617556 4.105822 0.018394
v 0.809502 4.222284 0.018394
v 0.801290 4.233680 0.035581
v 0.788004 4.252119 0.042146
v 0.774717 4.270557 0.035581
v 0.766505 4.281954 0.018394
v 0.951697 4.314400 0.017180
v 0.951697 4.330133 0.036161
v 0.951697 4.355591 0.043412
v 0.951697 4.381048 0.036161
v 0.951697 4.396781 0.017180
v 1.420778 3.584373 0.018394
v 1.492405 3.586219 0.018394
v 1.478725 3.585867 0.035580
v 1.408875 3.671238 0.018394
v 1.387948 3.746584 0.018394
v 1.422020 3.675195 0.035580
v 1.401094 3.750541 0.035580
v 1.443289 3.681598 0.042146
v 1.422363 3.756944 0.042146
v 1.464558 3.688001 0.035580
v 1.443632 3.763347 0.035580
v 1.477704 3.691958 0.018394
v 1.456777 3.767304 0.018394
v 1.456591 3.585297 0.042146
v 1.434457 3.584726 0.035580
v 1.302312 3.937887 0.018394
v 1.313321 3.946349 0.035580
v 1.331134 3.960039 0.042146
v 1.348947 3.973728 0.035580
v 1.359956 3.982190 0.018394
v 1.233605 4.046152 0.018394
v 1.241816 4.057548 0.035581
v 1.255103 4.075987 0.042146
v 1.268389 4.094426 0.035581
v 1.276601 4.105822 0.018394
v 1.084655 4.222284 0.018394
v 1.092867 4.233680 0.035581
v 1.106153 4.252119 0.042146
v 1.119440 4.270557 0.035581
v 1.127651 4.281954 0.018394
v 0.341375 3.411723 0.043452
v 0.337771 3.407553 -0.003665
v 0.337771 3.608901 -0.003665
v 0.341375 3.604732 0.043452
v 0.511887 3.407553 -0.003665
v 0.508282 3.411723 0.043452
v 0.511887 3.608901 -0.003665
v 0.508282 3.604732 0.043452
v 1.401489 3.382253 -0.015478
v 1.401489 3.601225 -0.015477
v 1.590846 3.382253 -0.015478
v 1.590846 3.601225 -0.015477
v -1.945115 3.641269 0.068466
v -1.954068 3.647371 0.070182
v -1.967014 3.618101 0.070182
v -1.949452 0.761586 0.238815
v -1.956179 3.618101 0.068466
v -1.938617 0.761586 0.237099
v -1.946405 3.618101 0.063486
v -1.928843 0.761586 0.232118
v -1.938648 3.618101 0.055729
v -1.921086 0.761586 0.224362
v -1.933668 3.618101 0.045955
v -1.916106 0.761586 0.214588
v -1.931952 3.618101 0.035120
v -1.914390 0.761586 0.203753
v -1.933668 3.618101 0.024286
v -1.916106 0.761586 0.192918
v -1.938648 3.618101 0.014512
v -1.921086 0.761586 0.183144
v -1.946405 3.618101 0.006755
v -1.928843 0.761586 0.175387
v -1.956179 3.618101 0.001775
v -1.938617 0.761586 0.170407
v -1.967014 3.618101 0.000059
v -1.949452 0.761586 0.168691
v -1.977849 3.618101 0.001775
v -1.960287 0.761586 0.170407
v -1.987623 3.618101 0.006755
v -1.970061 0.761586 0.175387
v -1.995380 3.618101 0.014512
v -1.977818 0.761586 0.183144
v -2.000360 3.618101 0.024286
v -1.982798 0.761586 0.192918
v -2.002076 3.618101 0.035120
v -1.984514 0.761586 0.203753
v -2.000360 3.618101 0.045955
v -1.982798 0.761586 0.214588
v -1.995380 3.618101 0.055729
v -1.977818 0.761586 0.224362
v -1.987623 3.618101 0.063486
v -1.970061 0.761586 0.232118
v -1.977849 3.618101 0.068466
v -1.960287 0.761586 0.237099
v -1.937038 3.635764 0.063486
v -1.930629 3.631395 0.055729
v -1.926513 3.628591 0.045955
v -1.925095 3.627624 0.035120
v -1.926513 3.628591 0.024286
v -1.930629 3.631395 0.014512
v -1.937038 3.635764 0.006755
v -1.945115 3.641269 0.001775
v -1.954068 3.647371 0.000059
v -1.963020 3.653473 0.001775
v -1.971097 3.658978 0.006755
v -1.977507 3.663347 0.014512
v -1.981622 3.666152 0.024286
v -1.983040 3.667118 0.035120
v -1.981622 3.666152 0.045955
v -1.977507 3.663347 0.055729
v -1.971097 3.658978 0.063486
v -1.963020 3.653473 0.068466
v -1.897611 3.706732 0.068466
v -1.892182 3.697356 0.070182
v -1.902509 3.715190 0.063486
v -1.906395 3.721903 0.055729
v -1.908891 3.726213 0.045955
v -1.909751 3.727698 0.035120
v -1.908891 3.726213 0.024286
v -1.906395 3.721903 0.014512
v -1.902509 3.715190 0.006755
v -1.897611 3.706732 0.001775
v -1.892182 3.697356 0.000059
v -1.886753 3.687979 0.001775
v -1.881856 3.679521 0.006755
v -1.877969 3.672808 0.014511
v -1.875473 3.668498 0.024286
v -1.874614 3.667013 0.035120
v -1.875473 3.668498 0.045955
v -1.877969 3.672808 0.055729
v -1.881856 3.679521 0.063486
v -1.886753 3.687979 0.068466
v -1.758564 3.787242 0.068466
v -1.753135 3.777865 0.070182
v -1.763461 3.795700 0.063486
v -1.767348 3.802413 0.055729
v -1.769843 3.806723 0.045955
v -1.770703 3.808208 0.035120
v -1.769843 3.806723 0.024286
v -1.767348 3.802413 0.014512
v -1.763461 3.795700 0.006755
v -1.758564 3.787242 0.001775
v -1.753135 3.777865 0.000059
v -1.747706 3.768489 0.001775
v -1.742808 3.760031 0.006755
v -1.738922 3.753318 0.014512
v -1.736426 3.749008 0.024286
v -1.735566 3.747523 0.035120
v -1.736426 3.749008 0.045955
v -1.738922 3.753318 0.055729
v -1.742808 3.760031 0.063486
v -1.747706 3.768489 0.068466
v -1.731190 3.804620 0.068466
v -1.725761 3.795244 0.070182
v -1.736088 3.813079 0.063486
v -1.739975 3.819792 0.055729
v -1.742470 3.824102 0.045955
v -1.743330 3.825587 0.035120
v -1.742470 3.824102 0.024286
v -1.739975 3.819792 0.014512
v -1.736088 3.813079 0.006755
v -1.731190 3.804620 0.001775
v -1.725761 3.795244 0.000059
v -1.720332 3.785868 0.001775
v -1.715435 3.777409 0.006755
v -1.711548 3.770696 0.014512
v -1.709053 3.766387 0.024286
v -1.708193 3.764901 0.035120
v -1.709053 3.766387 0.045955
v -1.711548 3.770696 0.055729
v -1.715435 3.777409 0.063486
v -1.720332 3.785868 0.068466
v -1.717320 3.826158 0.068466
v -1.706614 3.824497 0.070182
v -1.726979 3.827655 0.063486
v -1.734644 3.828844 0.055729
v -1.739566 3.829607 0.045955
v -1.741261 3.829870 0.035120
v -1.739566 3.829607 0.024286
v -1.734644 3.828844 0.014512
v -1.726979 3.827655 0.006755
v -1.717320 3.826158 0.001775
v -1.706614 3.824497 0.000059
v -1.695907 3.822837 0.001775
v -1.686248 3.821339 0.006755
v -1.678583 3.820151 0.014512
v -1.673661 3.819387 0.024286
v -1.671966 3.819124 0.035120
v -1.673661 3.819387 0.045955
v -1.678583 3.820151 0.055729
v -1.686248 3.821339 0.063486
v -1.695907 3.822837 0.068466
v -1.713655 3.867321 0.068466
v -1.702821 3.867359 0.070182
v -1.723429 3.867286 0.063486
v -1.731186 3.867258 0.055729
v -1.736166 3.867241 0.045955
v -1.737882 3.867235 0.035120
v -1.736166 3.867241 0.024286
v -1.731186 3.867258 0.014512
v -1.723429 3.867286 0.006755
v -1.713655 3.867321 0.001775
v -1.702821 3.867359 0.000059
v -1.691986 3.867397 0.001775
v -1.682212 3.867432 0.006755
v -1.674455 3.867460 0.014512
v -1.669475 3.867477 0.024286
v -1.667759 3.867483 0.035120
v -1.669475 3.867477 0.045955
v -1.674455 3.867460 0.055729
v -1.682212 3.867432 0.063486
v -1.691986 3.867397 0.068466
v -1.715157 4.290919 0.068466
v -1.704323 4.290958 0.070182
v -1.724931 4.290885 0.063486
v -1.732688 4.290857 0.055729
v -1.737669 4.290840 0.045955
v -1.739384 4.290833 0.035120
v -1.737669 4.290840 0.024285
v -1.732688 4.290857 0.014511
v -1.724931 4.290885 0.006754
v -1.715157 4.290919 0.001774
v -1.704323 4.290958 0.000058
v -1.693488 4.290997 0.001774
v -1.683714 4.291031 0.006754
v -1.675957 4.291059 0.014511
v -1.670977 4.291076 0.024285
v -1.669261 4.291082 0.035120
v -1.670977 4.291076 0.045955
v -1.675957 4.291059 0.055729
v -1.683714 4.291031 0.063486
v -1.693488 4.290997 0.068466
v -1.696743 4.339322 0.106948
v -1.685908 4.337993 0.108033
v -1.706517 4.343229 0.103860
v -1.714274 4.349331 0.099071
v -1.719254 4.357031 0.093050
v -1.720970 4.365573 0.086385
v -1.719254 4.374124 0.079731
v -1.714274 4.381845 0.073737
v -1.706517 4.387980 0.068992
v -1.696743 4.391930 0.065958
v -1.685908 4.393307 0.064934
v -1.675074 4.391977 0.066019
v -1.665300 4.388070 0.069107
v -1.657543 4.381968 0.073896
v -1.652563 4.374269 0.079917
v -1.650847 4.365726 0.086581
v -1.652563 4.357176 0.093236
v -1.657543 4.349455 0.099229
v -1.665300 4.343319 0.103975
v -1.675074 4.339370 0.107009
v -1.696882 4.382534 0.149957
v -1.686047 4.382203 0.151642
v -1.706656 4.383571 0.145086
v -1.714413 4.385211 0.137505
v -1.719393 4.387295 0.127955
v -1.721109 4.389617 0.117372
v -1.719393 4.391952 0.106792
v -1.714413 4.394069 0.097250
v -1.706656 4.395763 0.089681
v -1.696882 4.396867 0.084824
v -1.686047 4.397274 0.083157
v -1.675213 4.396943 0.084841
v -1.665439 4.395906 0.089712
v -1.657682 4.394266 0.097293
v -1.652702 4.392182 0.106843
v -1.650986 4.389860 0.117426
v -1.652702 4.387526 0.128006
v -1.657682 4.385407 0.137548
v -1.665439 4.383714 0.145117
v -1.675213 4.382609 0.149974
v -1.666389 4.550002 0.188307
v -1.655555 4.549671 0.189991
v -1.676163 4.551039 0.183436
v -1.683920 4.552679 0.175855
v -1.688901 4.554762 0.166305
v -1.690616 4.557085 0.155722
v -1.688901 4.559420 0.145142
v -1.683920 4.561537 0.135600
v -1.676163 4.563231 0.128030
v -1.666389 4.564335 0.123174
v -1.655555 4.564742 0.121507
v -1.644720 4.564410 0.123191
v -1.634946 4.563374 0.128062
v -1.627189 4.561734 0.135643
v -1.622209 4.559650 0.145193
v -1.620493 4.557328 0.155776
v -1.622209 4.554993 0.166356
v -1.627189 4.552876 0.175898
v -1.634946 4.551182 0.183467
v -1.644720 4.550077 0.188324
v -1.931900 0.727798 0.237099
v -1.940114 0.720734 0.238815
v -1.924489 0.734171 0.232119
v -1.918608 0.739229 0.224362
v -1.914832 0.742477 0.214588
v -1.913531 0.743595 0.203753
v -1.914832 0.742477 0.192918
v -1.918608 0.739229 0.183144
v -1.924489 0.734171 0.175387
v -1.931900 0.727798 0.170407
v -1.940114 0.720734 0.168691
v -1.948329 0.713669 0.170407
v -1.955740 0.707296 0.175387
v -1.961621 0.702238 0.183144
v -1.965397 0.698990 0.192918
v -1.966698 0.697872 0.203753
v -1.965397 0.698990 0.214588
v -1.961621 0.702238 0.224362
v -1.955740 0.707296 0.232119
v -1.948329 0.713669 0.237099
v -1.840951 0.646481 0.226486
v -1.846552 0.641664 0.227656
v -1.835899 0.650825 0.223091
v -1.831890 0.654273 0.217803
v -1.829316 0.656487 0.211139
v -1.828429 0.657250 0.203753
v -1.829316 0.656487 0.196367
v -1.831890 0.654273 0.189703
v -1.835899 0.650825 0.184415
v -1.840951 0.646481 0.181020
v -1.846552 0.641664 0.179850
v -1.852152 0.636848 0.181020
v -1.857204 0.632503 0.184415
v -1.861213 0.629055 0.189703
v -1.863787 0.626841 0.196367
v -1.864674 0.626078 0.203753
v -1.863787 0.626841 0.211139
v -1.861213 0.629055 0.217803
v -1.857204 0.632503 0.223091
v -1.852152 0.636848 0.226486
v -1.815444 0.615117 0.232401
v -1.824753 0.615061 0.233876
v -1.807047 0.615168 0.228123
v -1.800383 0.615208 0.221459
v -1.796105 0.615234 0.213061
v -1.794631 0.615243 0.203753
v -1.796105 0.615234 0.194445
v -1.800383 0.615208 0.186048
v -1.807047 0.615168 0.179384
v -1.815444 0.615117 0.175105
v -1.824753 0.615061 0.173631
v -1.834061 0.615004 0.175105
v -1.842458 0.614954 0.179384
v -1.849122 0.614913 0.186048
v -1.853400 0.614887 0.194445
v -1.854875 0.614879 0.203753
v -1.853400 0.614887 0.213061
v -1.849122 0.614913 0.221459
v -1.842458 0.614954 0.228123
v -1.834061 0.615004 0.232401
v -1.797339 -0.012047 0.232401
v -1.806648 -0.012103 0.233876
v -1.788942 -0.011996 0.228123
v -1.782278 -0.011956 0.221459
v -1.778000 -0.011930 0.213061
v -1.776526 -0.011921 0.203753
v -1.778000 -0.011930 0.194445
v -1.782278 -0.011956 0.186048
v -1.788942 -0.011996 0.179384
v -1.797339 -0.012047 0.175105
v -1.806648 -0.012103 0.173631
v -1.815956 -0.012159 0.175105
v -1.824353 -0.012210 0.179384
v -1.831017 -0.012250 0.186048
v -1.835295 -0.012276 0.194445
v -1.836770 -0.012285 0.203753
v -1.835295 -0.012276 0.213061
v -1.831017 -0.012250 0.221459
v -1.824353 -0.012210 0.228123
v -1.815956 -0.012159 0.232401
v 1.409772 3.591646 0.061133
v 1.582563 3.591646 0.061133
v 1.409772 3.391832 0.061133
v 1.582563 3.391832 0.061133
v -1.956095 1.842140 0.070182
v -1.945261 1.842140 0.068466
v -1.935487 1.842140 0.063486
v -1.927730 1.842140 0.055729
v -1.922750 1.842140 0.045955
v -1.921033 1.842140 0.035120
v -1.922750 1.842140 0.024286
v -1.927730 1.842140 0.014511
v -1.935487 1.842140 0.006755
v -1.945261 1.842140 0.001775
v -1.956095 1.842140 0.000058
v -1.966930 1.842140 0.001775
v -1.976704 1.842140 0.006755
v -1.984461 1.842140 0.014511
v -1.989441 1.842140 0.024286
v -1.991157 1.842140 0.035120
v -1.989441 1.842140 0.045955
v -1.984461 1.842140 0.055729
v -1.976704 1.842140 0.063486
v -1.966930 1.842140 0.068466
v -1.956081 1.791569 0.106350
v -1.945217 1.790630 0.105151
v -1.935339 1.788473 0.100897
v -1.927411 1.785310 0.094006
v -1.922212 1.781450 0.085152
v -1.920249 1.777271 0.075201
v -1.921714 1.773182 0.065128
v -1.926465 1.769584 0.055918
v -1.934036 1.766829 0.048474
v -1.943686 1.765185 0.043523
v -1.954471 1.764815 0.041551
v -1.965334 1.765755 0.042750
v -1.975213 1.767912 0.047003
v -1.983141 1.771075 0.053894
v -1.988340 1.774935 0.062749
v -1.990304 1.779114 0.072699
v -1.988838 1.783203 0.082773
v -1.984087 1.786801 0.091982
v -1.976516 1.789556 0.099427
v -1.966866 1.791199 0.104378
v -1.953917 1.487842 0.238815
v -1.943082 1.487842 0.237099
v -1.933308 1.487842 0.232118
v -1.925551 1.487842 0.224362
v -1.920571 1.487842 0.214588
v -1.918855 1.487842 0.203753
v -1.920571 1.487842 0.192918
v -1.925551 1.487842 0.183144
v -1.933308 1.487842 0.175387
v -1.943082 1.487842 0.170407
v -1.953917 1.487842 0.168691
v -1.964752 1.487842 0.170407
v -1.974526 1.487842 0.175387
v -1.982283 1.487842 0.183144
v -1.987263 1.487842 0.192918
v -1.988979 1.487842 0.203753
v -1.987263 1.487842 0.214588
v -1.982283 1.487842 0.224362
v -1.974526 1.487842 0.232118
v -1.964752 1.487842 0.237099
v -1.944746 1.690459 0.160422
v -1.934890 1.686638 0.157645
v -1.927000 1.680703 0.153062
v -1.921849 1.673232 0.147123
v -1.919941 1.664959 0.140408
v -1.921462 1.656692 0.133575
v -1.926263 1.649241 0.127292
v -1.933875 1.643336 0.122175
v -1.943553 1.639553 0.118724
v -1.954348 1.638265 0.117278
v -1.965206 1.639596 0.117977
v -1.975061 1.643416 0.120754
v -1.982951 1.649352 0.125337
v -1.988102 1.656822 0.131276
v -1.990011 1.665095 0.137991
v -1.988490 1.673362 0.144825
v -1.983688 1.680813 0.151107
v -1.976076 1.686718 0.156224
v -1.966398 1.690501 0.159675
v -1.955603 1.691790 0.161121
v -1.873188 3.402913 0.007575
v -1.873188 3.402913 -0.001648
v -1.873188 3.259012 0.007575
v -1.873188 3.259012 -0.001648
v -1.912790 3.402913 0.007575
v -1.912790 3.402913 -0.001648
v -1.912790 3.259012 0.007575
v -1.912790 3.259012 -0.001648
v -1.458314 3.259012 -0.001648
v -1.458314 3.259012 0.007575
v -1.458314 3.402913 -0.001648
v -1.458314 3.402913 0.007575
v -1.418711 3.259012 -0.001648
v -1.418711 3.259012 0.007575
v -1.418711 3.402913 -0.001648
v -1.418711 3.402913 0.007575
v -1.898031 3.322011 -0.000808
v -1.901462 3.322011 0.002321
v -1.898031 3.367371 -0.000808
v -1.901462 3.367371 0.002321
v -1.882884 3.322011 0.015803
v -1.886315 3.322011 0.018932
v -1.882884 3.367371 0.015803
v -1.886315 3.367371 0.018932
v -1.827324 3.398203 0.038458
v -1.823893 3.398203 0.035330
v -1.823893 3.352842 0.035330
v -1.827324 3.352842 0.038458
v -1.761261 3.407738 0.041330
v -1.757830 3.407738 0.038202
v -1.757830 3.362378 0.038202
v -1.761261 3.362378 0.041330
v -1.626031 3.407259 0.041027
v -1.626901 3.407259 0.036466
v -1.626901 3.361898 0.036466
v -1.626031 3.361898 0.041027
v -1.518943 3.400065 0.034741
v -1.519813 3.400065 0.030180
v -1.519813 3.354704 0.030180
v -1.518943 3.354704 0.034741
v -1.440273 3.364040 0.006627
v -1.442796 3.364040 0.004425
v -1.442796 3.318679 0.004425
v -1.440273 3.318679 0.006627
v -1.702057 3.371007 -0.019166
v -1.747024 3.502419 0.046140
v -1.697322 3.370463 -0.017965
v -1.742289 3.501875 0.047340
v -1.694244 3.368274 -0.014821
v -1.739210 3.499686 0.050484
v -1.693997 3.365275 -0.010935
v -1.738963 3.496687 0.054370
v -1.696676 3.362612 -0.007791
v -1.741643 3.494024 0.057514
v -1.701259 3.361302 -0.006590
v -1.746225 3.492714 0.058715
v -1.705994 3.361845 -0.007791
v -1.750960 3.493257 0.057514
v -1.709072 3.364035 -0.010935
v -1.754039 3.495446 0.054370
v -1.709319 3.367033 -0.014821
v -1.754285 3.498446 0.050484
v -1.706640 3.369697 -0.017965
v -1.751606 3.501108 0.047340
v -1.898294 3.384326 -0.019166
v -1.950750 3.465657 0.098712
v -1.893559 3.383782 -0.017965
v -1.946015 3.465114 0.099913
v -1.890481 3.381593 -0.014821
v -1.942937 3.462924 0.103057
v -1.890234 3.378594 -0.010935
v -1.942690 3.459926 0.106943
v -1.892913 3.375931 -0.007791
v -1.945369 3.457263 0.110087
v -1.897496 3.374621 -0.006590
v -1.949952 3.455953 0.111288
v -1.902231 3.375165 -0.007791
v -1.954686 3.456496 0.110087
v -1.905309 3.377354 -0.010935
v -1.957765 3.458685 0.106943
v -1.905556 3.380353 -0.014821
v -1.958012 3.461684 0.103057
v -1.902877 3.383016 -0.017965
v -1.955332 3.464347 0.099913
v -1.494516 3.375335 -0.023699
v -1.377426 3.449857 0.065981
v -1.492672 3.371449 -0.026077
v -1.375582 3.445971 0.063603
v -1.492145 3.366565 -0.025905
v -1.375054 3.441087 0.063775
v -1.493134 3.362550 -0.023249
v -1.376044 3.437072 0.066431
v -1.495263 3.360936 -0.019124
v -1.378173 3.435459 0.070556
v -1.497719 3.362341 -0.015105
v -1.380628 3.436864 0.074576
v -1.499562 3.366227 -0.012727
v -1.382472 3.440750 0.076953
v -1.500090 3.371111 -0.012899
v -1.383000 3.445633 0.076782
v -1.499100 3.375126 -0.015555
v -1.382010 3.449648 0.074126
v -1.496971 3.376740 -0.019680
v -1.379881 3.451262 0.070000
vn 0.1155 0.7793 0.6159
vn 0.0010 0.7068 0.7074
vn 0.0012 0.9660 0.2586
vn 0.0012 0.9669 0.2550
vn -0.0000 -0.0000 1.0000
vn 0.3701 -0.0493 0.9277
vn 0.1178 0.7917 0.5994
vn -0.1137 0.7867 0.6067
vn 0.0012 0.9688 0.2476
vn 0.0012 0.9708 0.2401
vn 0.3665 -0.1316 0.9211
vn 0.3310 -0.1908 0.9241
vn 0.2915 -0.2394 0.9261
vn 0.0071 -0.3151 0.9490
vn -0.3281 -0.2593 0.9084
vn -0.3894 -0.1805 0.9032
vn -0.3896 -0.0820 0.9173
vn 0.4289 -0.0828 0.8995
vn 0.4107 -0.1789 0.8941
vn 0.3314 -0.2630 0.9061
vn -0.0085 -0.3129 0.9497
vn -0.2988 -0.2334 0.9253
vn -0.3506 -0.1678 0.9214
vn -0.3670 -0.1067 0.9241
vn -0.3413 -0.0430 0.9390
vn -0.1079 0.7753 0.6223
vn 0.0010 0.7074 0.7068
vn 0.0003 0.2143 0.9768
vn 0.0003 0.2150 0.9766
vn 0.0003 0.2147 0.9767
vn -0.0000 -0.4270 0.9043
vn 0.0012 0.9726 0.2324
vn 0.0012 0.9735 0.2286
vn 0.0005 0.5266 0.8501
vn 0.0005 0.5234 0.8521
vn 0.0005 0.5167 0.8562
vn 0.0005 0.5100 0.8602
vn 0.0005 0.5034 0.8641
vn 0.0005 0.5003 0.8659
vn -0.4871 -0.0559 0.8715
vn -0.4088 -0.1692 0.8968
vn -0.3726 -0.2535 0.8927
vn -0.0298 -0.4328 0.9010
vn 0.3119 -0.2484 0.9171
vn 0.3509 -0.1864 0.9177
vn 0.3828 -0.1239 0.9155
vn 0.4241 -0.0429 0.9046
vn 0.3401 0.2159 0.9153
vn -0.4197 0.2084 0.8834
vn -0.3912 -0.0382 0.9195
vn -0.3860 -0.1114 0.9157
vn -0.3680 -0.1629 0.9154
vn -0.3285 -0.2371 0.9143
vn 0.0372 -0.4355 0.8994
vn 0.3805 -0.2491 0.8906
vn 0.4521 -0.1534 0.8787
vn 0.5518 -0.0258 0.8336
vn 0.4811 0.2069 0.8519
vn -0.3176 0.2089 0.9249
vn -0.7013 -0.7056 0.1020
vn -0.5594 -0.5555 0.6152
vn -0.5594 0.5555 0.6152
vn -0.7013 0.7056 0.1020
vn 0.5386 -0.1101 0.8354
vn -0.0128 0.0015 0.9999
vn -0.0191 0.0027 0.9998
vn 0.5433 -0.0711 0.8365
vn 0.7671 -0.1540 0.6228
vn 0.7354 -0.2675 0.6226
vn 0.5165 -0.1867 0.8357
vn -0.0127 0.0055 0.9999
vn -0.5349 0.1945 0.8222
vn -0.5567 0.1134 0.8229
vn -0.7359 0.2657 0.6227
vn -0.7660 0.1588 0.6229
vn 0.7781 -0.1016 0.6199
vn -0.7778 0.1036 0.6199
vn -0.5706 0.0759 0.8177
vn 0.6926 -0.3710 0.6186
vn 0.4852 -0.2644 0.8335
vn -0.5008 0.2775 0.8199
vn -0.6836 0.3855 0.6197
vn -0.0132 0.0055 0.9999
vn -0.4547 0.3421 0.8223
vn -0.6224 0.4777 0.6200
vn 0.4438 -0.3307 0.8329
vn -0.0106 0.0046 0.9999
vn 0.6354 -0.4619 0.6188
vn -0.3824 0.4424 0.8112
vn -0.5094 0.6007 0.6161
vn 0.3563 -0.4123 0.8385
vn -0.0219 0.0188 0.9996
vn 0.5218 -0.5909 0.6153
vn -0.0142 -0.7436 0.6684
vn -0.0065 -0.4384 0.8988
vn 0.0081 0.5880 0.8088
vn 0.0068 0.7463 0.6656
vn 0.0027 0.0910 0.9958
vn -0.5387 -0.1120 0.8350
vn -0.5418 -0.0747 0.8372
vn 0.0202 0.0029 0.9998
vn 0.0122 0.0015 0.9999
vn -0.7665 -0.1569 0.6227
vn -0.5165 -0.1867 0.8357
vn -0.7354 -0.2675 0.6226
vn 0.0127 0.0055 0.9999
vn 0.5560 0.1151 0.8231
vn 0.5349 0.1945 0.8222
vn 0.7656 0.1610 0.6229
vn 0.7359 0.2657 0.6227
vn -0.7773 -0.1070 0.6200
vn 0.5709 0.0795 0.8172
vn 0.7771 0.1083 0.6200
vn -0.4852 -0.2644 0.8335
vn -0.6926 -0.3710 0.6186
vn 0.6836 0.3855 0.6197
vn 0.5008 0.2775 0.8199
vn 0.0132 0.0055 0.9999
vn 0.6224 0.4777 0.6200
vn 0.4547 0.3421 0.8223
vn 0.0106 0.0046 0.9999
vn -0.4438 -0.3307 0.8329
vn -0.6354 -0.4619 0.6188
vn 0.5173 0.5960 0.6141
vn 0.3879 0.4379 0.8110
vn 0.0206 0.0166 0.9997
vn -0.3649 -0.4101 0.8359
vn -0.5320 -0.5842 0.6129
vn 0.5594 0.5555 0.6152
vn 0.7013 0.7056 0.1020
vn 0.5594 -0.5555 0.6152
vn 0.7013 -0.7056 0.1020
vn -0.6980 -0.7035 0.1341
vn -0.5534 -0.5482 0.6271
vn -0.5534 0.5482 0.6271
vn -0.6980 0.7035 0.1341
vn 0.5534 0.5482 0.6271
vn 0.6980 0.7035 0.1341
vn 0.5534 -0.5482 0.6271
vn 0.6980 -0.7035 0.1341
vn 0.9977 -0.0175 0.0654
vn 0.8819 -0.3674 0.2955
vn 0.7278 0.0886 0.6801
vn 0.9994 0.0069 0.0327
vn -0.0000 0.6823 0.7311
vn 0.6724 0.4857 0.5585
vn 0.6449 0.7284 0.2314
vn -0.0000 0.9531 0.3027
vn -0.0000 -0.7071 0.7071
vn -0.0000 0.1254 0.9921
vn 0.9992 -0.0245 0.0327
vn -0.0000 -0.6127 0.7903
vn -0.0000 1.0000 -0.0000
vn -0.0000 0.7071 0.7071
vn -0.0000 0.7070 0.7072
vn 0.7071 0.7071 -0.0000
vn -0.0000 -0.4902 0.8716
vn 0.5957 -0.4078 0.6920
vn 0.5652 -0.5055 0.6520
vn 0.4472 -0.0000 0.8944
vn 0.3015 -0.3015 0.9045
vn 0.7071 -0.0000 0.7071
vn 0.6961 0.3974 0.5980
vn 0.9761 0.2173 -0.0000
vn 0.6585 0.3074 0.6870
vn -0.0000 0.2857 0.9583
vn -0.0000 0.3550 0.9349
vn 0.9820 0.1891 -0.0000
vn 1.0000 -0.0000 -0.0000
vn -1.0000 -0.0000 -0.0000
vn -0.7362 0.0845 0.6714
vn -0.9043 -0.3017 0.3022
vn -0.0033 0.6840 0.7295
vn -0.0029 0.9539 0.3002
vn -0.6458 0.7283 0.2294
vn -0.6655 0.5097 0.5453
vn 0.0006 0.1249 0.9922
vn 0.0018 -0.7077 0.7065
vn -0.0323 -0.6046 0.7959
vn -0.1313 -0.9343 -0.3314
vn -0.2061 -0.9785 -0.0000
vn -0.1457 -0.6919 0.7071
vn -0.0017 1.0000 -0.0000
vn -0.7077 0.7065 -0.0000
vn -0.0001 -0.4900 0.8717
vn -0.5536 -0.4098 0.7249
vn -0.5594 -0.4785 0.6768
vn -0.5774 -0.5774 0.5774
vn -0.9555 0.2952 -0.0000
vn -0.6694 0.5040 0.5457
vn -1.0000 -0.0000 -0.0061
vn -0.3145 -0.9107 -0.2677
vn -0.6436 0.3687 0.6707
vn -0.7074 -0.0000 0.7068
vn -0.0004 0.3456 0.9384
vn -0.0005 0.4480 0.8941
vn -0.9693 0.2461 -0.0000
vn -1.0000 -0.0027 -0.0000
vn -0.7065 -0.0019 0.7077
vn -0.5786 0.5762 0.5773
vn -0.7086 0.7056 -0.0000
vn -0.0011 0.7075 0.7068
vn -0.0016 1.0000 -0.0000
vn 0.5774 0.5774 0.5774
vn -0.6999 -0.7048 0.1159
vn -0.5569 -0.5523 0.6203
vn -0.5569 0.5523 0.6203
vn -0.6999 0.7048 0.1159
vn 0.5386 -0.1097 0.8354
vn -0.0127 0.0015 0.9999
vn -0.0190 0.0026 0.9998
vn 0.5433 -0.0709 0.8365
vn 0.7671 -0.1535 0.6228
vn 0.7356 -0.2666 0.6227
vn 0.5166 -0.1862 0.8357
vn -0.0126 0.0054 0.9999
vn -0.5349 0.1939 0.8223
vn -0.5567 0.1131 0.8229
vn -0.7361 0.2649 0.6229
vn -0.7660 0.1584 0.6230
vn 0.7781 -0.1013 0.6199
vn -0.7778 0.1033 0.6199
vn -0.5706 0.0756 0.8178
vn 0.6929 -0.3699 0.6189
vn 0.4854 -0.2636 0.8336
vn -0.5009 0.2766 0.8201
vn -0.6839 0.3845 0.6200
vn -0.4549 0.3412 0.8226
vn -0.6228 0.4766 0.6205
vn 0.4440 -0.3298 0.8331
vn -0.0107 0.0045 0.9999
vn 0.6359 -0.4607 0.6192
vn -0.3828 0.4414 0.8116
vn -0.5098 0.5996 0.6169
vn 0.3565 -0.4113 0.8389
vn -0.0220 0.0186 0.9996
vn 0.5224 -0.5896 0.6160
vn -0.0142 -0.7426 0.6696
vn -0.0065 -0.4371 0.8994
vn 0.0081 0.5872 0.8094
vn 0.0068 0.7452 0.6668
vn -0.5387 -0.1116 0.8350
vn -0.5419 -0.0745 0.8371
vn 0.0201 0.0029 0.9998
vn 0.0121 0.0015 0.9999
vn -0.7666 -0.1564 0.6228
vn -0.5166 -0.1862 0.8357
vn -0.7356 -0.2666 0.6227
vn 0.0126 0.0054 0.9999
vn 0.5561 0.1147 0.8232
vn 0.5349 0.1939 0.8223
vn 0.7656 0.1605 0.6229
vn 0.7361 0.2649 0.6229
vn -0.7773 -0.1067 0.6200
vn 0.5708 0.0792 0.8172
vn 0.7771 0.1079 0.6200
vn -0.4854 -0.2636 0.8336
vn -0.6929 -0.3699 0.6189
vn 0.6839 0.3845 0.6200
vn 0.5009 0.2766 0.8201
vn 0.6228 0.4766 0.6205
vn 0.4549 0.3412 0.8226
vn 0.0107 0.0045 0.9999
vn -0.4440 -0.3298 0.8331
vn -0.6359 -0.4607 0.6192
vn 0.5178 0.5949 0.6148
vn 0.3883 0.4368 0.8115
vn 0.0206 0.0165 0.9997
vn -0.3652 -0.4091 0.8363
vn -0.5326 -0.5829 0.6136
vn 0.5569 0.5523 0.6204
vn 0.6999 0.7048 0.1159
vn 0.5569 -0.5523 0.6204
vn 0.6999 -0.7048 0.1159
vn 0.6025 0.6083 -0.5166
vn 0.6025 -0.6083 -0.5166
vn -0.6025 -0.6083 -0.5166
vn -0.6025 0.6083 -0.5166
vn 0.6974 -0.6499 -0.3020
vn 0.6088 -0.5370 -0.5839
vn 0.4547 -0.6700 -0.5868
vn 0.5333 -0.7880 -0.3078
vn -0.5909 0.1155 0.7984
vn -0.3216 0.0676 0.9445
vn -0.2670 0.1989 0.9429
vn -0.4887 0.3582 0.7955
vn -0.0078 0.1777 0.9841
vn -0.0111 -0.0036 0.9999
vn 0.3080 0.0303 0.9509
vn 0.2874 0.1727 0.9421
vn 0.6088 -0.5370 0.5839
vn 0.6974 -0.6499 0.3020
vn 0.5333 -0.7880 0.3078
vn 0.4547 -0.6700 0.5868
vn -0.9840 0.1782 -0.0000
vn -0.9377 0.1712 0.3024
vn -0.7731 0.5585 0.3006
vn -0.8110 0.5851 -0.0000
vn 0.5952 0.0490 0.8021
vn 0.5602 0.1533 0.8141
vn -0.4887 0.3582 -0.7955
vn -0.6625 0.4810 -0.5742
vn -0.4645 0.6690 -0.5803
vn -0.3403 0.4902 -0.8024
vn -0.5909 0.1155 -0.7984
vn -0.8027 0.1503 -0.5771
vn 0.8176 0.0490 0.5737
vn 0.7860 0.1191 0.6067
vn -0.5434 0.7825 0.3040
vn -0.5704 0.8214 -0.0000
vn 0.2821 -0.0613 -0.9574
vn -0.0205 0.0079 -0.9998
vn -0.0186 0.0145 -0.9997
vn 0.2301 -0.1816 -0.9561
vn 0.9542 0.0382 0.2968
vn 0.9398 0.0712 0.3341
vn -0.1820 0.2621 0.9477
vn -0.3403 0.4902 0.8024
vn 0.9059 -0.2798 -0.3180
vn 0.7700 -0.2148 -0.6008
vn 0.9995 0.0319 -0.0000
vn 0.9997 0.0141 0.0214
vn 0.4487 -0.3725 0.8124
vn 0.3306 -0.4853 0.8094
vn 0.7700 -0.2148 0.6008
vn 0.9059 -0.2798 0.3180
vn 0.9542 0.0382 -0.2968
vn 0.9542 -0.0443 -0.2960
vn 0.7237 -0.6901 -0.0000
vn 0.5601 -0.8284 -0.0000
vn -0.8027 0.1503 0.5771
vn -0.6625 0.4810 0.5742
vn 0.8176 0.0490 -0.5737
vn 0.8091 -0.0951 -0.5799
vn 0.4487 -0.3725 -0.8124
vn 0.1720 -0.2520 -0.9523
vn 0.3306 -0.4853 -0.8094
vn -0.9377 0.1712 -0.3024
vn -0.7731 0.5585 -0.3006
vn 0.5952 0.0490 -0.8021
vn 0.5853 -0.1332 -0.7998
vn -0.2670 0.1989 -0.9429
vn -0.1820 0.2621 -0.9477
vn -0.3216 0.0676 -0.9445
vn 0.3080 0.0303 -0.9509
vn 0.3096 -0.1569 -0.9378
vn -0.0186 0.0145 0.9997
vn -0.0051 0.0060 1.0000
vn 0.5550 -0.1373 -0.8204
vn -0.0111 -0.0036 -0.9999
vn 0.0080 -0.1670 -0.9859
vn -0.5434 0.7825 -0.3040
vn -0.0205 0.0079 0.9998
vn 0.2821 -0.0613 0.9574
vn 0.2301 -0.1816 0.9561
vn -0.3247 -0.0440 -0.9448
vn -0.2950 -0.1633 -0.9414
vn -0.4645 0.6690 0.5803
vn 0.9518 -0.3066 -0.0000
vn -0.6000 -0.0820 -0.7958
vn -0.5744 -0.1445 -0.8057
vn 0.1720 -0.2520 0.9523
vn -0.8122 -0.1119 -0.5726
vn -0.8025 -0.1095 -0.5865
vn 0.5550 -0.1373 0.8204
vn -0.9453 -0.1305 -0.2990
vn -0.9513 -0.0594 -0.3024
vn -0.9906 -0.1368 -0.0000
vn -0.9999 -0.0003 0.0148
vn -0.0051 0.0060 -1.0000
vn -0.9453 -0.1305 0.2990
vn -0.9433 0.0585 0.3267
vn -0.8122 -0.1119 0.5726
vn -0.7934 0.1087 0.5989
vn -0.4193 0.6911 0.5887
vn -0.4932 0.8130 0.3096
vn -0.6000 -0.0820 0.7958
vn -0.5716 0.1458 0.8075
vn -0.4855 -0.3545 -0.7992
vn -0.6633 -0.4742 -0.5789
vn -0.3247 -0.0440 0.9448
vn -0.3019 0.1688 0.9383
vn -0.1593 0.2627 0.9516
vn 0.0011 -0.0017 1.0000
vn 0.0203 -0.0125 0.9997
vn -0.2075 0.2110 0.9552
vn 0.3056 -0.5037 0.8080
vn 0.1613 -0.2658 0.9504
vn 0.1613 -0.2658 -0.9504
vn 0.3056 -0.5037 -0.8080
vn -0.5187 0.8550 -0.0000
vn 0.4200 -0.6924 -0.5867
vn -0.4932 0.8130 -0.3096
vn 0.4933 -0.8133 -0.3084
vn -0.4193 0.6911 -0.5887
vn 0.5186 -0.8550 -0.0000
vn -0.3042 0.5015 -0.8099
vn 0.4933 -0.8133 0.3084
vn -0.1593 0.2627 -0.9516
vn -0.3042 0.5015 0.8099
vn 0.4200 -0.6924 0.5867
vn 0.0011 -0.0017 -1.0000
vn 0.5761 -0.5877 -0.5681
vn 0.4319 -0.4334 -0.7910
vn 0.5751 -0.2076 -0.7913
vn 0.7753 -0.2737 -0.5691
vn 0.6953 -0.7187 -0.0000
vn 0.6652 -0.6853 0.2963
vn -0.4158 0.4090 -0.8123
vn -0.2075 0.2110 -0.9552
vn -0.4158 0.4090 0.8123
vn 0.5761 -0.5877 0.5681
vn 0.0203 -0.0125 -0.9997
vn -0.5843 0.5579 0.5893
vn 0.4319 -0.4334 0.7910
vn 0.2413 -0.2354 -0.9415
vn -0.7010 0.6421 0.3103
vn 0.2413 -0.2354 0.9415
vn -0.7457 0.6663 -0.0000
vn -0.7010 0.6421 -0.3103
vn 0.6652 -0.6853 -0.2963
vn -0.5843 0.5579 -0.5893
vn 0.0227 -0.0133 -0.9997
vn -0.2771 0.0943 -0.9562
vn -0.3047 0.0129 -0.9524
vn 0.0046 -0.0004 -1.0000
vn -0.9604 0.2787 -0.0000
vn -0.9111 0.2767 -0.3055
vn 0.9017 -0.3139 -0.2972
vn -0.7692 0.2517 -0.5873
vn 0.9449 -0.3273 -0.0000
vn -0.5506 0.1879 -0.8133
vn 0.0227 -0.0133 0.9997
vn -0.2771 0.0943 0.9562
vn 0.9017 -0.3139 0.2972
vn -0.5506 0.1879 0.8133
vn 0.7753 -0.2737 0.5691
vn -0.7692 0.2517 0.5873
vn 0.5751 -0.2076 0.7913
vn 0.3166 -0.1183 -0.9411
vn -0.9111 0.2767 0.3055
vn 0.3166 -0.1183 0.9411
vn -0.8068 0.0349 -0.5898
vn -0.9498 0.0413 -0.3102
vn -0.9424 0.1778 -0.2832
vn -0.7990 0.2325 -0.5546
vn -0.5844 0.0250 0.8111
vn -0.8068 0.0349 0.5898
vn 0.8100 -0.0338 0.5855
vn 0.5904 -0.0248 0.8067
vn 0.3130 -0.0134 -0.9497
vn -0.9498 0.0413 0.3102
vn 0.3130 -0.0134 0.9497
vn 0.5904 -0.0248 -0.8067
vn -0.9991 0.0435 -0.0000
vn 0.0046 -0.0004 1.0000
vn 0.8100 -0.0338 -0.5855
vn 0.9507 -0.0395 -0.3076
vn 0.9991 -0.0414 -0.0000
vn -0.5844 0.0250 -0.8111
vn -0.3047 0.0129 0.9524
vn 0.9507 -0.0395 0.3076
vn -0.9501 0.0150 0.3116
vn -0.8146 -0.0834 0.5740
vn -0.7886 -0.3306 0.5185
vn -0.9477 -0.1264 0.2932
vn 0.9325 0.0376 -0.3592
vn 0.9949 -0.0707 -0.0714
vn -0.5793 0.2665 -0.7703
vn -0.0138 -0.3377 0.9412
vn -0.3262 -0.2730 0.9050
vn 0.9569 -0.1819 0.2264
vn -0.3064 0.2797 -0.9099
vn -0.6008 -0.1832 0.7781
vn 0.8185 -0.2775 0.5030
vn -0.0074 0.2727 -0.9621
vn 0.5931 -0.3413 0.7292
vn 0.2903 0.2459 -0.9248
vn 0.3047 -0.3626 0.8807
vn 0.5609 0.1985 -0.8038
vn -0.9945 0.1040 0.0159
vn 0.7817 0.1290 -0.6101
vn -0.2733 -0.6092 0.7444
vn 0.0130 -0.6673 0.7447
vn -0.0091 -0.4738 0.8806
vn -0.3119 -0.4303 0.8471
vn 0.5499 -0.6078 0.5729
vn 0.2912 -0.6672 0.6856
vn 0.2697 0.7632 -0.5872
vn 0.5346 0.6361 -0.5564
vn -0.9944 0.1008 0.0315
vn 0.7741 0.4334 -0.4615
vn -0.9195 0.3296 -0.2144
vn 0.9403 0.1826 -0.2873
vn -0.7436 0.5365 -0.3990
vn 0.9956 -0.0760 -0.0554
vn -0.5079 0.6960 -0.5075
vn 0.9327 -0.3071 0.1893
vn -0.2521 0.7894 -0.5598
vn -0.5506 -0.4951 0.6721
vn 0.7730 -0.4875 0.4059
vn 0.0066 0.8122 -0.5833
vn 0.2909 -0.4793 0.8280
vn 0.2448 0.4797 0.8426
vn 0.0109 0.4939 0.8694
vn 0.9936 -0.1125 0.0067
vn 0.9276 -0.2621 0.2664
vn -0.5963 0.5770 -0.5581
vn -0.3215 0.6928 -0.6455
vn -0.5872 -0.3513 0.7292
vn 0.7788 -0.3733 0.5040
vn -0.0117 0.7247 -0.6889
vn -0.8066 -0.2406 0.5399
vn 0.5610 -0.4458 0.6976
vn 0.3114 0.6562 -0.6874
vn -0.9478 -0.1034 0.3016
vn 0.6097 0.4960 -0.6183
vn -0.9976 0.0550 0.0432
vn 0.8368 0.2855 -0.4672
vn -0.9516 0.2294 -0.2044
vn 0.9659 0.0732 -0.2484
vn -0.8137 0.4106 -0.4114
vn 0.4625 0.4838 0.7430
vn 0.6392 0.5062 0.5790
vn 0.7540 0.5444 0.3675
vn 0.7935 0.5942 0.1314
vn 0.7530 0.6499 -0.1030
vn 0.6374 0.7055 -0.3098
vn 0.4606 0.7551 -0.4665
vn 0.2435 0.7938 -0.5572
vn 0.0108 0.8182 -0.5749
vn -0.2129 0.8263 -0.5214
vn -0.4064 0.8184 -0.4063
vn -0.5542 0.7959 -0.2439
vn -0.6465 0.7612 -0.0502
vn -0.6784 0.7174 0.1585
vn -0.6480 0.6677 0.3664
vn -0.5565 0.6159 0.5576
vn -0.4086 0.5665 0.7156
vn -0.2142 0.5242 0.8242
vn -0.7763 -0.5523 -0.3039
vn -0.5847 -0.5786 -0.5687
vn -0.6530 -0.7000 -0.2891
vn -0.8151 -0.5793 -0.0000
vn -0.7763 -0.5523 0.3039
vn -0.4855 -0.3545 0.7992
vn -0.2580 -0.2066 0.9438
vn 0.5145 0.2351 0.8246
vn 0.7235 0.3284 0.6072
vn 0.9182 0.3962 -0.0000
vn 0.8665 0.3804 -0.3231
vn 0.5145 0.2351 -0.8246
vn 0.2652 0.1054 -0.9584
vn -0.2580 -0.2066 -0.9438
vn -0.6633 -0.4742 0.5789
vn -0.0003 -0.0474 0.9989
vn 0.2652 0.1054 0.9584
vn 0.8665 0.3804 0.3231
vn 0.7235 0.3284 -0.6072
vn -0.0003 -0.0474 -0.9989
vn -0.2375 -0.1654 -0.9572
vn 0.0064 0.0614 -0.9981
vn -0.0002 0.1080 -0.9942
vn -0.2927 0.0058 -0.9562
vn 0.7127 0.6399 -0.2873
vn 0.6146 0.5623 -0.5532
vn -0.6716 -0.7409 -0.0000
vn 0.4563 0.4362 -0.7756
vn 0.0064 0.0614 0.9981
vn 0.2475 0.2666 0.9315
vn -0.6530 -0.7000 0.2891
vn 0.2475 0.2666 -0.9315
vn 0.4563 0.4362 0.7756
vn -0.5847 -0.5786 0.5687
vn 0.6146 0.5623 0.5532
vn -0.4453 -0.3900 0.8060
vn 0.7127 0.6399 0.2873
vn -0.2375 -0.1654 0.9572
vn -0.4453 -0.3900 -0.8060
vn 0.7458 0.6661 -0.0000
vn 0.5544 0.2558 -0.7920
vn 0.7623 0.3012 -0.5729
vn 0.6076 -0.6631 -0.4373
vn 0.4422 -0.6659 -0.6008
vn 0.7623 0.3012 0.5729
vn 0.8956 0.3281 0.3004
vn -0.5556 -0.1120 0.8238
vn -0.2927 0.0058 0.9562
vn -0.5556 -0.1120 -0.8238
vn 0.9415 0.3371 -0.0000
vn -0.0002 0.1080 0.9942
vn -0.7605 -0.2339 -0.6057
vn 0.8956 0.3281 -0.3004
vn -0.8868 -0.3326 -0.3210
vn -0.9284 -0.3716 -0.0000
vn 0.2918 0.1915 0.9371
vn -0.8868 -0.3326 0.3210
vn 0.2918 0.1915 -0.9371
vn 0.5544 0.2558 0.7920
vn -0.7605 -0.2339 0.6057
vn 0.2347 -0.6695 0.7047
vn 0.0058 -0.6735 0.7392
vn -0.2221 -0.6775 0.7012
vn -0.4266 -0.6810 0.5951
vn -0.5883 -0.6838 0.4316
vn -0.6917 -0.6857 0.2266
vn -0.7273 -0.6863 -0.0000
vn -0.6917 -0.6857 -0.2266
vn -0.5883 -0.6838 -0.4316
vn -0.4266 -0.6810 -0.5951
vn -0.2221 -0.6775 -0.7012
vn 0.0058 -0.6735 -0.7392
vn 0.2347 -0.6695 -0.7047
vn 0.7140 -0.6612 -0.2301
vn 0.7507 -0.6606 -0.0000
vn 0.7140 -0.6612 0.2301
vn 0.6076 -0.6631 0.4373
vn 0.4422 -0.6659 0.6008
vn 0.5479 0.5414 0.6378
vn -0.5479 0.5414 0.6378
vn -0.5479 -0.5414 0.6378
vn 0.5479 -0.5414 0.6378
vn -0.3196 0.2924 0.9013
vn -0.0035 0.3133 0.9496
vn -0.6035 0.2378 0.7611
vn -0.8250 0.1574 0.5428
vn -0.9608 0.0645 0.2697
vn -0.9992 -0.0264 -0.0290
vn -0.9405 -0.1047 -0.3232
vn -0.7933 -0.1658 -0.5858
vn -0.5725 -0.2083 -0.7930
vn -0.2982 -0.2324 -0.9258
vn 0.0043 -0.2385 -0.9711
vn 0.3066 -0.2267 -0.9245
vn 0.5804 -0.1969 -0.7902
vn 0.8000 -0.1492 -0.5812
vn 0.9448 -0.0838 -0.3168
vn 0.9998 -0.0029 -0.0215
vn 0.9570 0.0874 0.2767
vn 0.8179 0.1763 0.5477
vn 0.5954 0.2504 0.7634
vn 0.3120 0.2985 0.9020
vn -0.3036 0.5033 0.8091
vn -0.0159 0.5308 0.8473
vn -0.5726 0.4289 0.6987
vn -0.7985 0.3101 0.5160
vn -0.9500 0.1562 0.2705
vn -0.9998 -0.0140 -0.0118
vn -0.9395 -0.1773 -0.2931
vn -0.7820 -0.3149 -0.5379
vn -0.5525 -0.4158 -0.7224
vn -0.2781 -0.4756 -0.8345
vn 0.0169 -0.4932 -0.8698
vn 0.3108 -0.4684 -0.8270
vn 0.5815 -0.4012 -0.7077
vn 0.8042 -0.2932 -0.5170
vn 0.9517 -0.1497 -0.2680
vn 0.9998 0.0166 0.0141
vn 0.9379 0.1854 0.2933
vn 0.7771 0.3340 0.5335
vn 0.5452 0.4454 0.7102
vn 0.2729 0.5115 0.8148
vn -0.3071 0.4004 0.8634
vn -0.0199 0.4222 0.9063
vn -0.5732 0.3428 0.7442
vn -0.7956 0.2506 0.5516
vn -0.9466 0.1291 0.2953
vn -1.0000 -0.0097 -0.0011
vn -0.9423 -0.1476 -0.3004
vn -0.7831 -0.2659 -0.5622
vn -0.5499 -0.3524 -0.7572
vn -0.2739 -0.4027 -0.8734
vn 0.0196 -0.4167 -0.9088
vn 0.3107 -0.3952 -0.8645
vn 0.5802 -0.3386 -0.7407
vn 0.8041 -0.2476 -0.5405
vn 0.9527 -0.1269 -0.2760
vn 0.9996 0.0115 0.0243
vn 0.9355 0.1495 0.3200
vn 0.7740 0.2686 0.5734
vn 0.5423 0.3564 0.7608
vn 0.2697 0.4078 0.8723
vn -0.5774 0.5774 0.5774
vn 0.5774 -0.5774 0.5774
vn -0.7071 0.7071 -0.0000
vn -0.7071 -0.7071 -0.0000
vn 0.7071 -0.7071 -0.0000
vn 0.0376 -0.5774 -0.8156
vn -0.8156 -0.5774 -0.0376
vn -0.8156 0.5773 -0.0376
vn 0.0376 0.5773 -0.8156
vn -0.5143 0.6020 0.6108
vn 0.2194 0.6501 -0.7275
vn -0.3029 -0.6767 0.6711
vn 0.0166 -0.5159 0.8565
vn -0.3549 0.7470 0.5621
vn 0.5185 -0.7906 -0.3257
vn 0.3156 -0.7430 -0.5902
vn 0.0337 -0.7089 -0.7045
vn 0.0513 -0.6406 0.7662
vn -0.0552 0.6795 -0.7316
vn -0.0128 0.7165 -0.6975
vn -0.0016 0.7174 -0.6966
vn -0.0485 -0.7061 -0.7065
vn -0.0921 0.7508 0.6541
vn 0.0482 0.7092 0.7034
vn -0.0041 -0.6911 0.7227
vn 0.0313 -0.6018 0.7981
vn 0.2859 0.7144 0.6386
vn -0.3077 -0.6924 -0.6526
vn -0.0272 -0.7014 -0.7122
vn 0.7096 -0.7002 0.0780
vn 0.0587 0.7268 -0.6844
vn 0.2799 0.4598 -0.8428
vn 0.8822 0.4256 0.2015
vn 0.0438 -0.1349 -0.9899
vn -0.1121 0.9438 -0.3109
vn 0.3466 0.9278 -0.1384
vn 0.4942 -0.1131 -0.8620
vn 0.6106 0.7605 0.2209
vn 0.8108 -0.2620 -0.5235
vn 0.6013 0.5219 0.6051
vn 0.8433 -0.5267 -0.1073
vn 0.3588 0.2928 0.8863
vn 0.5733 -0.7906 0.2149
vn -0.0438 0.1349 0.9899
vn 0.1121 -0.9438 0.3109
vn -0.4942 0.1131 0.8620
vn -0.3466 -0.9278 0.1384
vn -0.8108 0.2620 0.5234
vn -0.6106 -0.7605 -0.2209
vn -0.8433 0.5267 0.1072
vn -0.6013 -0.5219 -0.6051
vn -0.5733 0.7906 -0.2149
vn -0.3588 -0.2928 -0.8863
vn 0.0383 0.1063 -0.9936
vn -0.1251 0.9890 -0.0793
vn 0.2766 0.9576 0.0800
vn 0.5189 0.0873 -0.8503
vn 0.5449 0.7671 0.3386
vn 0.8335 -0.1433 -0.5337
vn 0.6147 0.4523 0.6462
vn 0.8521 -0.4933 -0.1752
vn 0.4049 0.1055 0.9083
vn 0.5664 -0.8218 0.0616
vn -0.0383 -0.1062 0.9936
vn 0.1251 -0.9890 0.0793
vn -0.5189 -0.0873 0.8503
vn -0.2766 -0.9576 -0.0800
vn -0.8335 0.1433 0.5337
vn -0.5449 -0.7671 -0.3386
vn -0.8521 0.4932 0.1752
vn -0.6147 -0.4523 -0.6462
vn -0.5664 0.8218 -0.0616
vn -0.4049 -0.1056 -0.9082
vn -0.4626 0.4611 -0.7572
vn 0.6207 0.7694 -0.1505
vn 0.8668 0.3777 -0.3254
vn -0.1969 0.1297 -0.9718
vn 0.9709 -0.0759 -0.2270
vn -0.0591 -0.3441 -0.9371
vn 0.9112 -0.4078 0.0585
vn -0.1154 -0.7500 -0.6513
vn 0.7276 -0.5470 0.4140
vn -0.3324 -0.9144 -0.2310
vn 0.4626 -0.4611 0.7572
vn -0.6208 -0.7694 0.1505
vn 0.1968 -0.1297 0.9718
vn -0.8668 -0.3777 0.3254
vn 0.0591 0.3440 0.9371
vn -0.9709 0.0759 0.2270
vn 0.1155 0.7500 0.6513
vn -0.9112 0.4079 -0.0585
vn 0.3324 0.9144 0.2310
vn -0.7276 0.5470 -0.4140
vt -0.000105 1.001019
vt 1.000597 1.001019
vt 1.000597 0.367309
vt -0.000105 0.368850
vt 0.222156 0.368508
vt 0.222156 1.001019
vt 0.383841 0.368259
vt 0.383842 1.001019
vt 0.615523 0.367902
vt 0.615523 1.001019
vt 0.773590 0.367659
vt 0.773590 1.001019
vt -0.000105 0.102584
vt -0.000105 -0.002737
vt 1.000597 -0.002737
vt 1.000597 0.167527
vt 1.000597 0.347744
vt -0.000105 0.368850
vt -0.000105 0.347744
vt 1.000597 0.367309
vt 0.773590 0.367659
vt 1.000597 0.102584
vt -0.000105 0.122067
vt -0.000105 0.167527
vt 1.000597 0.118848
vt 0.222156 0.368508
vt 0.383841 0.368259
vt 0.615523 0.367902
vt -0.000105 0.364056
vt -0.000105 0.354448
vt 1.000597 0.354448
vt 1.000597 0.363354
vt 0.773590 0.363513
vt 0.222156 0.363900
vt 0.383841 0.363787
vt 0.615523 0.363624
vt 0.222156 0.790466
vt 0.383842 0.806777
vt 0.233724 0.845292
vt 0.248676 0.879728
vt 0.261607 0.899665
vt 0.301614 0.946335
vt 0.344450 0.897852
vt 0.367889 0.853448
vt 0.615523 0.817696
vt 0.773590 0.790056
vt 0.626368 0.855757
vt 0.648998 0.899708
vt 0.690218 0.945473
vt 0.731437 0.897443
vt 0.750431 0.863007
vt 0.769020 0.805009
vt 0.248610 0.417656
vt 0.367056 0.417445
vt 0.628880 0.418982
vt 0.744773 0.418776
vt 0.248526 0.777165
vt 0.363144 0.781844
vt 0.258412 0.822538
vt 0.268009 0.849057
vt 0.281515 0.873493
vt 0.305173 0.900079
vt 0.334218 0.865604
vt 0.351428 0.826424
vt 0.628092 0.764359
vt 0.743369 0.776488
vt 0.639077 0.824261
vt 0.655669 0.861482
vt 0.685890 0.900238
vt 0.713867 0.867430
vt 0.727792 0.838267
vt 0.741188 0.794395
vt 0.208062 0.803606
vt 0.193853 0.804017
vt 0.196567 0.803938
vt 0.210423 0.823991
vt 0.214575 0.840747
vt 0.207816 0.824871
vt 0.211967 0.841627
vt 0.203596 0.826295
vt 0.207748 0.843051
vt 0.199377 0.827719
vt 0.203528 0.844475
vt 0.196770 0.828599
vt 0.200921 0.845355
vt 0.200958 0.803811
vt 0.205348 0.803685
vt 0.231563 0.883291
vt 0.229379 0.885173
vt 0.225845 0.888217
vt 0.222312 0.891262
vt 0.220128 0.893144
vt 0.245192 0.907368
vt 0.243564 0.909903
vt 0.240928 0.914003
vt 0.238292 0.918104
vt 0.236663 0.920638
vt 0.274740 0.946538
vt 0.273111 0.949073
vt 0.270475 0.953173
vt 0.267840 0.957274
vt 0.266211 0.959808
vt 0.302948 0.967024
vt 0.302948 0.970523
vt 0.302948 0.976184
vt 0.302948 0.981846
vt 0.302948 0.985345
vt 0.396001 0.804673
vt 0.410210 0.805084
vt 0.407497 0.805005
vt 0.393640 0.823991
vt 0.389489 0.840747
vt 0.396248 0.824871
vt 0.392097 0.841627
vt 0.400467 0.826295
vt 0.396316 0.843051
vt 0.404686 0.827719
vt 0.400535 0.844475
vt 0.407294 0.828599
vt 0.403143 0.845355
vt 0.403106 0.804878
vt 0.398715 0.804752
vt 0.372501 0.883291
vt 0.374685 0.885173
vt 0.378218 0.888217
vt 0.381752 0.891262
vt 0.383936 0.893144
vt 0.358871 0.907368
vt 0.360500 0.909903
vt 0.363136 0.914003
vt 0.365771 0.918104
vt 0.367400 0.920638
vt 0.329323 0.946538
vt 0.330952 0.949073
vt 0.333588 0.953173
vt 0.336224 0.957274
vt 0.337853 0.959808
vt 0.179145 0.771481
vt 0.182729 0.762475
vt 0.179311 0.807786
vt 0.179145 0.807495
vt 0.213467 0.762475
vt 0.206308 0.771481
vt 0.213467 0.807786
vt 0.206308 0.807495
vt 0.392023 0.771102
vt 0.391367 0.767661
vt 0.391367 0.806436
vt 0.392023 0.805719
vt 0.420151 0.767661
vt 0.419007 0.771102
vt 0.420151 0.806436
vt 0.419007 0.805719
vt -0.000055 0.533786
vt -0.000055 0.751238
vt -0.000055 0.743003
vt 0.105220 0.592177
vt 0.089641 0.533786
vt 0.087682 0.592177
vt 0.104168 0.748151
vt 0.089641 0.751238
vt 0.091373 0.748151
vt 0.087796 0.743003
vt 0.030949 0.874905
vt 0.104168 0.832695
vt 0.101945 0.874905
vt 0.093593 0.832695
vt 0.043738 0.909855
vt -0.000055 0.909855
vt -0.000055 0.909855
vt 0.089641 0.909855
vt 0.107656 0.901358
vt 0.106252 0.908482
vt 0.089641 0.909855
vt 0.104057 0.900926
vt -0.000055 0.751238
vt 0.084412 0.751238
vt 0.082511 0.748151
vt 0.082567 0.751238
vt -0.000055 0.358586
vt -0.000055 0.358586
vt -0.000055 0.350008
vt 0.083489 0.358586
vt 0.080915 0.430216
vt 0.089641 0.358586
vt 0.078568 0.350008
vt 0.105220 0.430216
vt 0.089641 0.358586
vt -0.000055 0.358586
vt 0.080591 0.419635
vt 0.089641 0.358586
vt 0.080591 0.430615
vt 0.089641 0.358586
vt 0.078568 0.358586
vt 0.083489 0.358586
vt -0.000055 0.358586
vt 0.081206 0.157789
vt 0.105904 0.168083
vt 0.081644 0.157771
vt -0.000055 0.157085
vt 0.099660 0.093217
vt 0.099270 0.112677
vt 0.121897 0.108315
vt -0.023833 0.112677
vt 0.099045 0.000000
vt 0.099270 0.000583
vt 0.123743 0.000000
vt -0.023833 0.000583
vt 0.100367 0.430854
vt 0.083489 0.355745
vt -0.000055 0.358586
vt -0.000055 0.355745
vt -0.000055 0.358586
vt 1.003411 0.490657
vt 1.006045 0.753719
vt 0.999483 0.751036
vt 0.891213 0.515227
vt 0.913715 0.490657
vt 0.913876 0.515227
vt 0.892443 0.723324
vt 0.916349 0.753719
vt 0.912584 0.742941
vt 0.914825 0.751036
vt 0.974795 0.855219
vt 0.892129 0.823863
vt 0.897306 0.855219
vt 0.903359 0.821685
vt 0.967959 0.906719
vt 0.976222 0.890057
vt 0.976222 0.890057
vt 0.886526 0.890057
vt 0.888561 0.903980
vt 0.890470 0.906719
vt 0.886526 0.890057
vt 0.892767 0.903980
vt 1.006045 0.753719
vt 0.999483 0.740229
vt 0.916349 0.753719
vt 0.918756 0.751423
vt 0.914825 0.740229
vt 0.976222 0.369834
vt 0.976222 0.369834
vt 1.018703 0.360575
vt 0.999392 0.353713
vt 0.929006 0.360575
vt 0.925250 0.353699
vt 0.886526 0.369834
vt 0.925554 0.353713
vt 0.891455 0.350673
vt 0.886526 0.369834
vt 0.976222 0.369834
vt 0.890918 0.349808
vt 0.886526 0.369834
vt 0.925068 0.353239
vt 0.886526 0.369834
vt 0.925459 0.359546
vt 0.929006 0.360575
vt 0.976222 0.369834
vt 0.999488 0.359545
vt 1.018703 0.360575
vt 0.891041 0.171101
vt 0.920747 0.159118
vt 0.933401 0.175559
vt 1.023097 0.175559
vt 0.874314 0.126468
vt 0.909623 0.131471
vt 0.906053 0.113941
vt 1.046875 0.131470
vt 0.874803 0.001487
vt 0.909623 0.001323
vt 0.906053 0.001487
vt 1.046875 0.001323
vt 0.922339 0.225171
vt 0.929006 0.352832
vt 0.976222 0.369834
vt 1.018703 0.352832
vt 0.976222 0.369834
vt 0.977245 0.825421
vt 0.963573 0.816706
vt 0.978710 0.818409
vt 0.977245 0.999570
vt 0.956737 0.981051
vt 0.963573 0.990855
vt 0.956737 0.981051
vt 0.978710 0.999570
vt 0.035639 0.850121
vt 0.999046 0.818409
vt 0.977073 0.981051
vt 0.977073 0.981051
vt 0.999046 0.999570
vt 0.019750 0.850121
vt 0.019750 1.000849
vt 0.035639 1.000849
vt 0.019750 1.000849
vt -0.000586 0.850121
vt -0.000586 1.000849
vt -0.000586 1.000849
vt 0.594433 0.795476
vt 0.579950 0.795907
vt 0.582716 0.795825
vt 0.596840 0.816873
vt 0.601071 0.834461
vt 0.594182 0.817797
vt 0.598413 0.835385
vt 0.589881 0.819291
vt 0.594112 0.836879
vt 0.585581 0.820786
vt 0.589812 0.838374
vt 0.582922 0.821710
vt 0.587154 0.839298
vt 0.587191 0.795691
vt 0.591667 0.795558
vt 0.618387 0.879117
vt 0.616161 0.881092
vt 0.612559 0.884288
vt 0.608957 0.887483
vt 0.606731 0.889458
vt 0.632280 0.904389
vt 0.630619 0.907049
vt 0.627933 0.911354
vt 0.625246 0.915658
vt 0.623586 0.918318
vt 0.662397 0.945504
vt 0.660737 0.948164
vt 0.658050 0.952468
vt 0.655364 0.956772
vt 0.653703 0.959432
vt 0.691149 0.967006
vt 0.691149 0.970679
vt 0.691149 0.976622
vt 0.691149 0.982564
vt 0.691149 0.986237
vt 0.785998 0.796596
vt 0.800481 0.797027
vt 0.797715 0.796945
vt 0.783591 0.816873
vt 0.779360 0.834461
vt 0.786249 0.817797
vt 0.782018 0.835385
vt 0.790550 0.819291
vt 0.786318 0.836879
vt 0.794850 0.820786
vt 0.790619 0.838374
vt 0.797508 0.821710
vt 0.793277 0.839298
vt 0.793239 0.796812
vt 0.788764 0.796678
vt 0.762044 0.879117
vt 0.764270 0.881092
vt 0.767872 0.884288
vt 0.771473 0.887483
vt 0.773700 0.889458
vt 0.748151 0.904389
vt 0.749811 0.907049
vt 0.752498 0.911354
vt 0.755185 0.915658
vt 0.756845 0.918318
vt 0.718033 0.945504
vt 0.719694 0.948164
vt 0.722380 0.952468
vt 0.725067 0.956772
vt 0.726727 0.959432
vt 0.573429 0.773947
vt 0.570838 0.764735
vt 0.571570 0.808430
vt 0.573429 0.807933
vt 0.600836 0.764190
vt 0.600930 0.772313
vt 0.601324 0.809519
vt 0.600686 0.809022
vt 0.782982 0.760845
vt 0.782982 0.804512
vt 0.810481 0.760845
vt 0.810481 0.804512
vt 0.111160 0.815884
vt 0.109611 0.817092
vt 0.106848 0.810700
vt 0.111124 0.168096
vt 0.108665 0.810700
vt 0.112965 0.168096
vt 0.110304 0.810700
vt 0.114625 0.168096
vt 0.111605 0.810700
vt 0.115942 0.168096
vt 0.112440 0.810700
vt 0.116788 0.168096
vt 0.112727 0.810700
vt 0.117080 0.168096
vt 0.112440 0.810700
vt 0.116788 0.168096
vt 0.111605 0.810700
vt 0.115942 0.168096
vt 0.110304 0.810700
vt 0.114625 0.168096
vt 0.108665 0.810700
vt 0.112965 0.168096
vt 0.106848 0.810700
vt 0.111124 0.168096
vt 0.105032 0.810700
vt 0.109284 0.168096
vt 0.103393 0.810700
vt 0.107624 0.168096
vt 0.102092 0.810700
vt 0.106306 0.168096
vt 0.101257 0.810700
vt 0.105460 0.168096
vt 0.100969 0.810700
vt 0.105169 0.168096
vt 0.101257 0.810700
vt 0.105460 0.168096
vt 0.102092 0.810700
vt 0.106306 0.168096
vt 0.103393 0.810700
vt 0.107624 0.168096
vt 0.105032 0.810700
vt 0.109284 0.168096
vt 0.112557 0.814795
vt 0.113666 0.813930
vt 0.114377 0.813375
vt 0.114623 0.813184
vt 0.114377 0.813375
vt 0.113666 0.813930
vt 0.112557 0.814795
vt 0.111160 0.815884
vt 0.109611 0.817092
vt 0.108062 0.818299
vt 0.106665 0.819388
vt 0.105556 0.820253
vt 0.104844 0.820808
vt 0.104599 0.820999
vt 0.104844 0.820808
vt 0.105556 0.820253
vt 0.106665 0.819388
vt 0.108062 0.818299
vt 0.122351 0.828967
vt 0.123271 0.827150
vt 0.121521 0.830607
vt 0.120862 0.831908
vt 0.120439 0.832744
vt 0.120294 0.833032
vt 0.120439 0.832744
vt 0.120862 0.831908
vt 0.121521 0.830607
vt 0.122351 0.828967
vt 0.123271 0.827150
vt 0.124191 0.825332
vt 0.125021 0.823692
vt 0.125680 0.822391
vt 0.126103 0.821555
vt 0.126248 0.821267
vt 0.126103 0.821555
vt 0.125680 0.822391
vt 0.125021 0.823692
vt 0.124191 0.825332
vt 0.150219 0.848133
vt 0.151139 0.846315
vt 0.149388 0.849773
vt 0.148730 0.851075
vt 0.148307 0.851910
vt 0.148161 0.852198
vt 0.148307 0.851910
vt 0.148730 0.851075
vt 0.149388 0.849773
vt 0.150219 0.848133
vt 0.151139 0.846315
vt 0.152059 0.844497
vt 0.152889 0.842857
vt 0.153548 0.841556
vt 0.153971 0.840720
vt 0.154117 0.840432
vt 0.153971 0.840720
vt 0.153548 0.841556
vt 0.152889 0.842857
vt 0.152059 0.844497
vt 0.154858 0.851503
vt 0.155779 0.849685
vt 0.154028 0.853143
vt 0.153369 0.854444
vt 0.152947 0.855280
vt 0.152801 0.855568
vt 0.152947 0.855280
vt 0.153369 0.854444
vt 0.154028 0.853143
vt 0.154858 0.851503
vt 0.155779 0.849685
vt 0.156699 0.847867
vt 0.157529 0.846227
vt 0.158188 0.844925
vt 0.158611 0.844090
vt 0.158756 0.843802
vt 0.158611 0.844090
vt 0.158188 0.844925
vt 0.157529 0.846227
vt 0.156699 0.847867
vt 0.157209 0.855678
vt 0.159024 0.855357
vt 0.155572 0.855969
vt 0.154273 0.856199
vt 0.153439 0.856347
vt 0.153151 0.856398
vt 0.153439 0.856347
vt 0.154273 0.856199
vt 0.155572 0.855969
vt 0.157209 0.855678
vt 0.159024 0.855357
vt 0.160839 0.855035
vt 0.162476 0.854744
vt 0.163775 0.854514
vt 0.164610 0.854366
vt 0.164897 0.854315
vt 0.164610 0.854366
vt 0.163775 0.854514
vt 0.162476 0.854744
vt 0.160839 0.855035
vt 0.157831 0.863660
vt 0.159667 0.863667
vt 0.156174 0.863653
vt 0.154859 0.863648
vt 0.154015 0.863644
vt 0.153724 0.863643
vt 0.154015 0.863644
vt 0.154859 0.863648
vt 0.156174 0.863653
vt 0.157831 0.863660
vt 0.159667 0.863667
vt 0.161504 0.863674
vt 0.163160 0.863681
vt 0.164475 0.863687
vt 0.165319 0.863690
vt 0.165610 0.863691
vt 0.165319 0.863690
vt 0.164475 0.863687
vt 0.163160 0.863681
vt 0.161504 0.863674
vt 0.157907 0.957631
vt 0.159976 0.957640
vt 0.156041 0.957624
vt 0.154561 0.957618
vt 0.153610 0.957614
vt 0.153282 0.957613
vt 0.153610 0.957614
vt 0.154561 0.957618
vt 0.156041 0.957624
vt 0.157907 0.957631
vt 0.159976 0.957640
vt 0.162044 0.957648
vt 0.163910 0.957656
vt 0.165391 0.957662
vt 0.166342 0.957666
vt 0.166670 0.957667
vt 0.166342 0.957666
vt 0.165391 0.957662
vt 0.163910 0.957656
vt 0.162044 0.957648
vt 0.161423 0.968202
vt 0.163491 0.967911
vt 0.159557 0.969055
vt 0.158076 0.970387
vt 0.157125 0.972069
vt 0.156798 0.973934
vt 0.157125 0.975802
vt 0.158076 0.977488
vt 0.159557 0.978828
vt 0.161423 0.979690
vt 0.163491 0.979991
vt 0.165560 0.979700
vt 0.167426 0.978847
vt 0.168907 0.977515
vt 0.169858 0.975833
vt 0.170185 0.973968
vt 0.169858 0.972100
vt 0.168907 0.970414
vt 0.167426 0.969074
vt 0.165560 0.968212
vt 0.161396 0.977638
vt 0.163465 0.977566
vt 0.159530 0.977865
vt 0.158050 0.978223
vt 0.157099 0.978678
vt 0.156771 0.979185
vt 0.157099 0.979695
vt 0.158050 0.980157
vt 0.159530 0.980527
vt 0.161396 0.980768
vt 0.163465 0.980857
vt 0.165533 0.980785
vt 0.167399 0.980558
vt 0.168880 0.980200
vt 0.169831 0.979745
vt 0.170159 0.979238
vt 0.169831 0.978728
vt 0.168880 0.978266
vt 0.167399 0.977896
vt 0.165533 0.977655
vt 0.164505 0.994757
vt 0.166573 0.994685
vt 0.162639 0.994983
vt 0.161158 0.995341
vt 0.160207 0.995797
vt 0.159880 0.996304
vt 0.160207 0.996813
vt 0.161158 0.997276
vt 0.162639 0.997646
vt 0.164505 0.997887
vt 0.166573 0.997976
vt 0.168642 0.997903
vt 0.170508 0.997677
vt 0.171989 0.997319
vt 0.172940 0.996864
vt 0.173267 0.996357
vt 0.171863 0.995847
vt 0.171989 0.995384
vt 0.170508 0.995014
vt 0.168642 0.994773
vt 0.115552 0.160718
vt 0.113983 0.159175
vt 0.116967 0.162110
vt 0.118089 0.163214
vt 0.118810 0.163923
vt 0.119059 0.164168
vt 0.118810 0.163923
vt 0.118089 0.163214
vt 0.116967 0.162110
vt 0.115552 0.160718
vt 0.113983 0.159175
vt 0.112415 0.157632
vt 0.111000 0.156240
vt 0.109878 0.155136
vt 0.109157 0.154427
vt 0.108908 0.154182
vt 0.109157 0.154427
vt 0.109878 0.155136
vt 0.111000 0.156240
vt 0.112415 0.157632
vt 0.133313 0.143402
vt 0.132233 0.142340
vt 0.134287 0.144360
vt 0.135060 0.145120
vt 0.135556 0.145608
vt 0.135727 0.145777
vt 0.135556 0.145608
vt 0.135060 0.145120
vt 0.134287 0.144360
vt 0.133313 0.143402
vt 0.132233 0.142340
vt 0.131154 0.141278
vt 0.130180 0.140320
vt 0.129407 0.139560
vt 0.128911 0.139072
vt 0.128740 0.138903
vt 0.128911 0.139072
vt 0.129407 0.139560
vt 0.130180 0.140320
vt 0.131154 0.141278
vt 0.137785 0.136110
vt 0.136008 0.136098
vt 0.139388 0.136121
vt 0.140660 0.136130
vt 0.141477 0.136136
vt 0.141758 0.136138
vt 0.141477 0.136136
vt 0.140660 0.136130
vt 0.139388 0.136121
vt 0.137785 0.136110
vt 0.136008 0.136098
vt 0.134231 0.136086
vt 0.132627 0.136075
vt 0.131355 0.136066
vt 0.130538 0.136060
vt 0.130257 0.136058
vt 0.130538 0.136060
vt 0.131355 0.136066
vt 0.132627 0.136075
vt 0.134231 0.136086
vt 0.139532 -0.001275
vt 0.137755 -0.001287
vt 0.141135 -0.001264
vt 0.142408 -0.001255
vt 0.143224 -0.001249
vt 0.143506 -0.001247
vt 0.143224 -0.001249
vt 0.142408 -0.001255
vt 0.141135 -0.001264
vt 0.139532 -0.001275
vt 0.137755 -0.001287
vt 0.135978 -0.001299
vt 0.134375 -0.001310
vt 0.133103 -0.001319
vt 0.132286 -0.001325
vt 0.132004 -0.001327
vt 0.132286 -0.001325
vt 0.133103 -0.001319
vt 0.134375 -0.001310
vt 0.135978 -0.001299
vt 0.788370 0.804885
vt 0.816332 0.804885
vt 0.788370 0.768038
vt 0.816332 0.768038
vt 0.109507 0.411179
vt 0.111338 0.411179
vt 0.112990 0.411179
vt 0.114301 0.411179
vt 0.115143 0.411179
vt 0.115433 0.411179
vt 0.115143 0.411179
vt 0.114301 0.411179
vt 0.112990 0.411179
vt 0.111338 0.411179
vt 0.109507 0.411179
vt 0.107675 0.411179
vt 0.106023 0.411179
vt 0.104712 0.411179
vt 0.103870 0.411179
vt 0.103580 0.411179
vt 0.103870 0.411179
vt 0.104712 0.411179
vt 0.106023 0.411179
vt 0.107675 0.411179
vt 0.109706 0.381199
vt 0.111539 0.381200
vt 0.113192 0.381199
vt 0.114504 0.381199
vt 0.115346 0.381200
vt 0.115636 0.381199
vt 0.115346 0.381199
vt 0.114504 0.381199
vt 0.113192 0.381199
vt 0.111539 0.381200
vt 0.109706 0.381199
vt 0.107874 0.381200
vt 0.106221 0.381199
vt 0.104909 0.381199
vt 0.104066 0.381200
vt 0.103776 0.381199
vt 0.104066 0.381200
vt 0.104909 0.381199
vt 0.106221 0.381199
vt 0.107874 0.381199
vt 0.110037 0.331475
vt 0.111871 0.331475
vt 0.113526 0.331475
vt 0.114839 0.331475
vt 0.115683 0.331475
vt 0.115973 0.331475
vt 0.115683 0.331475
vt 0.114839 0.331475
vt 0.113526 0.331475
vt 0.111871 0.331475
vt 0.110037 0.331475
vt 0.108203 0.331475
vt 0.106548 0.331475
vt 0.105235 0.331475
vt 0.104392 0.331475
vt 0.104101 0.331475
vt 0.104392 0.331475
vt 0.105235 0.331475
vt 0.106548 0.331475
vt 0.108203 0.331475
vt 0.111612 0.370209
vt 0.113266 0.370209
vt 0.114578 0.370209
vt 0.115420 0.370209
vt 0.115711 0.370209
vt 0.115420 0.370209
vt 0.114578 0.370209
vt 0.113266 0.370209
vt 0.111612 0.370209
vt 0.109779 0.370209
vt 0.107947 0.370209
vt 0.106293 0.370209
vt 0.104981 0.370209
vt 0.104138 0.370209
vt 0.103848 0.370209
vt 0.104138 0.370209
vt 0.104981 0.370209
vt 0.106293 0.370209
vt 0.107947 0.370209
vt 0.109779 0.370209
vt 0.125903 0.759996
vt 0.125903 0.759996
vt 0.125903 0.727898
vt 0.125903 0.727898
vt 0.118376 0.759996
vt 0.118376 0.759996
vt 0.118376 0.727898
vt 0.118376 0.727898
vt 0.207367 0.728927
vt 0.207367 0.728927
vt 0.207367 0.759996
vt 0.207367 0.759996
vt 0.214894 0.728927
vt 0.214894 0.728927
vt 0.214894 0.759996
vt 0.214894 0.759996
vt 0.121181 0.745273
vt 0.120529 0.745273
vt 0.121181 0.754547
vt 0.120529 0.754547
vt 0.124060 0.745273
vt 0.123408 0.745273
vt 0.124060 0.754547
vt 0.123408 0.754547
vt 0.134620 0.760851
vt 0.135272 0.760851
vt 0.135272 0.751577
vt 0.134620 0.751577
vt 0.147175 0.762801
vt 0.147827 0.762801
vt 0.147827 0.753526
vt 0.147175 0.753526
vt 0.172877 0.762703
vt 0.172711 0.762703
vt 0.172711 0.753428
vt 0.172877 0.753428
vt 0.193229 0.761232
vt 0.193064 0.761232
vt 0.193064 0.751957
vt 0.193229 0.751957
vt 0.208181 0.753866
vt 0.207702 0.753866
vt 0.207702 0.744592
vt 0.208181 0.744592
vt 0.145937 0.757069
vt 0.171754 0.756660
vt 0.145545 0.756183
vt 0.171362 0.755774
vt 0.144969 0.755735
vt 0.170786 0.755326
vt 0.144429 0.755897
vt 0.170245 0.755487
vt 0.144131 0.756606
vt 0.169947 0.756197
vt 0.144188 0.757592
vt 0.170005 0.757183
vt 0.144580 0.758478
vt 0.170397 0.758069
vt 0.145156 0.758926
vt 0.170973 0.758517
vt 0.145697 0.758765
vt 0.171513 0.758356
vt 0.145995 0.758056
vt 0.171811 0.757646
vt 0.121852 0.748987
vt 0.137827 0.758217
vt 0.121668 0.748020
vt 0.137642 0.757251
vt 0.121208 0.747428
vt 0.137183 0.756658
vt 0.120649 0.747436
vt 0.136624 0.756666
vt 0.120203 0.748041
vt 0.136178 0.757272
vt 0.120042 0.749013
vt 0.136016 0.758243
vt 0.120225 0.749979
vt 0.136200 0.759210
vt 0.120685 0.750572
vt 0.136660 0.759802
vt 0.121244 0.750564
vt 0.137219 0.759794
vt 0.121690 0.749959
vt 0.137665 0.759189
vt 0.175655 0.757696
vt 0.201428 0.756339
vt 0.175519 0.756817
vt 0.201291 0.755460
vt 0.175076 0.755926
vt 0.200849 0.754569
vt 0.174496 0.755364
vt 0.200268 0.754007
vt 0.173999 0.755345
vt 0.199772 0.753988
vt 0.173777 0.755876
vt 0.199549 0.754519
vt 0.173913 0.756755
vt 0.199685 0.755398
vt 0.174356 0.757646
vt 0.200128 0.756289
vt 0.174936 0.758208
vt 0.200708 0.756851
vt 0.175432 0.758227
vt 0.201205 0.756870
s 1
usemtl building_church_side_bottom2
f 5/5/1 4/4/2 18/18/3 26/26/4
f 14/14/5 15/15/5 22/22/5 13/13/5
f 4/4/2 5/5/1 37/37/6 6/6/5 1/1/5
f 9/9/7 7/7/8 27/27/9 28/28/10
f 6/6/5 37/37/6 39/39/11 40/40/12 41/41/13 42/42/14 43/43/15 44/44/16 38/38/17 8/8/5
f 8/8/5 38/38/17 7/7/8 9/9/7 45/45/18 10/10/5
f 10/10/5 45/45/18 47/47/19 48/48/20 49/49/21 50/50/22 51/51/23 52/52/24 46/46/25 12/12/5
f 12/12/5 46/46/25 11/11/26 3/3/27 2/2/5
f 13/13/5 22/22/5 25/25/28 23/23/29
f 23/23/29 25/25/28 16/16/30 24/24/30
f 24/24/30 16/16/30 17/17/31 19/19/31
f 11/11/26 9/9/7 28/28/10 21/21/32
f 7/7/8 5/5/1 26/26/4 27/27/9
f 3/3/27 11/11/26 21/21/32 20/20/33
f 30/30/31 31/31/31 32/32/34 33/33/35 36/36/36 35/35/37 34/34/38 29/29/39
f 21/21/32 28/28/10 36/36/36 33/33/35
f 27/27/9 26/26/4 34/34/38 35/35/37
f 20/20/33 21/21/32 33/33/35 32/32/34
f 19/19/31 17/17/31 31/31/31 30/30/31
f 28/28/10 27/27/9 35/35/37 36/36/36
f 26/26/4 18/18/3 29/29/39 34/34/38
f 37/37/6 5/5/1 53/53/48 57/57/47
f 44/44/16 43/43/15 63/63/42 64/64/41
f 51/51/23 50/50/22 70/70/53 71/71/52
f 38/38/17 44/44/16 64/64/41 58/58/40
f 9/9/7 11/11/26 56/56/59 55/55/58
f 7/7/8 38/38/17 58/58/40 54/54/49
f 52/52/24 51/51/23 71/71/52 72/72/51
f 45/45/18 9/9/7 55/55/58 65/65/57
f 39/39/11 37/37/6 57/57/47 59/59/46
f 46/46/25 52/52/24 72/72/51 66/66/50
f 5/5/1 7/7/8 54/54/49 53/53/48
f 11/11/26 46/46/25 66/66/50 56/56/59
f 40/40/12 39/39/11 59/59/46 60/60/45
f 47/47/19 45/45/18 65/65/57 67/67/56
f 41/41/13 40/40/12 60/60/45 61/61/44
f 48/48/20 47/47/19 67/67/56 68/68/55
f 42/42/14 41/41/13 61/61/44 62/62/43
f 49/49/21 48/48/20 68/68/55 69/69/54
f 43/43/15 42/42/14 62/62/43 63/63/42
f 50/50/22 49/49/21 69/69/54 70/70/53
f 139/139/60 138/138/61 141/141/62 140/140/63
f 78/78/64 80/80/65 86/86/66 87/87/67
f 76/76/68 77/77/69 79/79/70 78/78/64
f 78/78/64 79/79/70 81/81/71 80/80/65
f 80/80/65 81/81/71 83/83/72 82/82/73
f 82/82/73 83/83/72 85/85/74 84/84/75
f 76/76/68 78/78/64 87/87/67 73/73/76
f 82/82/73 84/84/75 74/74/77 75/75/78
f 80/80/65 82/82/73 75/75/78 86/86/66
f 79/79/70 77/77/69 88/88/79 89/89/80
f 85/85/74 83/83/72 91/91/81 92/92/82
f 81/81/71 79/79/70 89/89/80 90/90/83
f 83/83/72 81/81/71 90/90/83 91/91/81
f 92/92/82 91/91/81 96/96/84 97/97/85
f 90/90/83 89/89/80 94/94/86 95/95/87
f 91/91/81 90/90/83 95/95/87 96/96/84
f 89/89/80 88/88/79 93/93/88 94/94/86
f 97/97/85 96/96/84 101/101/89 102/102/90
f 95/95/87 94/94/86 99/99/91 100/100/92
f 96/96/84 95/95/87 100/100/92 101/101/89
f 94/94/86 93/93/88 98/98/93 99/99/91
f 99/99/91 98/98/93 103/103/94 104/104/95
f 102/102/90 101/101/89 106/106/96 107/107/97
f 100/100/92 99/99/91 104/104/95 105/105/98
f 101/101/89 100/100/92 105/105/98 106/106/96
f 113/113/99 122/122/100 121/121/101 115/115/102
f 111/111/103 113/113/99 114/114/104 112/112/105
f 113/113/99 115/115/102 116/116/106 114/114/104
f 115/115/102 117/117/107 118/118/108 116/116/106
f 117/117/107 119/119/109 120/120/110 118/118/108
f 111/111/103 108/108/111 122/122/100 113/113/99
f 117/117/107 110/110/112 109/109/113 119/119/109
f 115/115/102 121/121/101 110/110/112 117/117/107
f 114/114/104 124/124/114 123/123/115 112/112/105
f 120/120/110 127/127/116 126/126/117 118/118/108
f 116/116/106 125/125/118 124/124/114 114/114/104
f 118/118/108 126/126/117 125/125/118 116/116/106
f 127/127/116 132/132/119 131/131/120 126/126/117
f 125/125/118 130/130/121 129/129/122 124/124/114
f 126/126/117 131/131/120 130/130/121 125/125/118
f 124/124/114 129/129/122 128/128/123 123/123/115
f 132/132/119 137/137/124 136/136/125 131/131/120
f 130/130/121 135/135/126 134/134/127 129/129/122
f 131/131/120 136/136/125 135/135/126 130/130/121
f 129/129/122 134/134/127 133/133/128 128/128/123
f 134/134/127 104/104/95 103/103/94 133/133/128
f 137/137/124 107/107/97 106/106/96 136/136/125
f 135/135/126 105/105/98 104/104/95 134/134/127
f 136/136/125 106/106/96 105/105/98 135/135/126
f 140/140/63 141/141/62 145/145/129 144/144/130
f 144/144/130 145/145/129 143/143/131 142/142/132
f 142/142/132 143/143/131 138/138/61 139/139/60
f 145/145/129 141/141/62 138/138/61 143/143/131
f 147/147/133 146/146/134 149/149/135 148/148/136
f 148/148/136 149/149/135 153/153/137 152/152/138
f 152/152/138 153/153/137 151/151/139 150/150/140
f 150/150/140 151/151/139 146/146/134 147/147/133
f 153/153/137 149/149/135 146/146/134 151/151/139
f 158/160/141 159/162/142 157/159/143 156/157/144
f 160/164/145 162/166/146 166/173/147 163/168/148
f 159/161/142 155/155/149 154/154/150 157/158/143
f 159/162/142 158/160/141 161/165/151 162/167/146
f 170/181/152 189/213/153 169/180/154 173/189/154 187/211/153 176/196/155
f 164/170/153 163/169/148 166/174/147 165/171/156
f 162/167/146 161/165/151 165/172/156 166/175/147
f 167/176/157 168/177/158 162/166/146 160/164/145
f 159/162/142 162/167/146 168/178/158
f 155/156/149 159/163/142 168/179/158 167/176/157
f 157/158/143 154/154/150 170/181/152 171/183/159
f 156/157/144 157/159/143 171/184/159 172/187/160
f 174/190/160 175/192/161 186/209/162 178/198/163 177/197/164
f 172/188/160 171/185/159 175/193/161 174/191/160
f 169/180/154 172/188/160 174/191/160 173/189/154
f 171/186/159 170/182/152 176/196/155 175/194/161
f 175/195/161 176/196/155 188/212/5 186/210/162
f 181/202/165 182/204/166 185/208/5 184/206/162
f 178/199/163 179/200/167 182/204/166 181/202/165
f 177/197/164 178/198/163 181/203/165 180/201/168
f 180/201/168 181/203/165 184/207/162 183/205/169
f 186/210/162 188/212/5 179/200/167 178/199/163
f 194/220/170 192/217/170 193/219/171 195/222/172
f 196/224/173 199/228/174 202/233/175 198/226/176
f 195/221/172 193/218/171 190/214/177 191/215/178
f 195/222/172 198/227/176 197/225/170 194/220/170
f 206/242/179 212/258/180 223/275/181 209/251/182 205/241/182 225/277/181
f 200/230/183 201/231/184 202/234/175 199/229/174
f 198/227/176 202/235/175 201/232/184 197/225/170
f 203/236/185 196/224/173 198/226/176 204/238/186
f 195/222/172 204/239/186 198/227/176
f 191/216/178 203/237/185 204/240/186 195/223/172
f 193/218/171 207/245/187 206/243/179 190/214/177
f 192/217/170 208/249/188 207/246/187 193/219/171
f 210/252/188 213/261/189 214/262/190 222/273/191 211/254/192
f 208/250/188 210/253/188 211/255/192 207/247/187
f 205/241/182 209/251/182 210/253/188 208/250/188
f 207/248/187 211/256/192 212/259/180 206/244/179
f 211/257/192 222/274/191 224/276/169 212/260/180
f 217/266/193 220/270/194 221/272/5 218/268/195
f 214/263/190 217/266/193 218/268/195 215/264/196
f 213/261/189 216/265/197 217/267/193 214/262/190
f 216/265/197 219/269/170 220/271/194 217/267/193
f 222/274/191 214/263/190 215/264/196 224/276/169
f 226/278/198 227/279/199 229/283/200 228/281/201
f 228/282/201 229/284/200 233/289/202 232/288/203
f 235/292/156 238/296/153 239/297/154 236/294/204
f 230/286/169 235/293/156 236/294/204 234/291/162
f 239/297/154 237/295/5 234/291/162 236/294/204
f 233/290/202 229/285/200 227/280/199 231/287/5
f 306/364/205 305/363/206 308/366/207 307/365/208
f 245/303/209 247/305/210 253/311/211 254/312/212
f 243/301/213 244/302/214 246/304/215 245/303/209
f 245/303/209 246/304/215 248/306/216 247/305/210
f 247/305/210 248/306/216 250/308/217 249/307/218
f 249/307/218 250/308/217 252/310/219 251/309/220
f 243/301/213 245/303/209 254/312/212 240/298/221
f 249/307/218 251/309/220 241/299/222 242/300/223
f 247/305/210 249/307/218 242/300/223 253/311/211
f 246/304/215 244/302/214 255/313/224 256/314/225
f 252/310/219 250/308/217 258/316/226 259/317/227
f 248/306/216 246/304/215 256/314/225 257/315/83
f 250/308/217 248/306/216 257/315/83 258/316/226
f 259/317/227 258/316/226 263/321/228 264/322/229
f 257/315/83 256/314/225 261/319/230 262/320/231
f 258/316/226 257/315/83 262/320/231 263/321/228
f 256/314/225 255/313/224 260/318/232 261/319/230
f 264/322/229 263/321/228 268/326/233 269/327/234
f 262/320/231 261/319/230 266/324/235 267/325/236
f 263/321/228 262/320/231 267/325/236 268/326/233
f 261/319/230 260/318/232 265/323/237 266/324/235
f 266/324/235 265/323/237 270/328/238 271/329/239
f 269/327/234 268/326/233 273/331/240 274/332/241
f 267/325/236 266/324/235 271/329/239 272/330/98
f 268/326/233 267/325/236 272/330/98 273/331/240
f 280/338/242 289/347/243 288/346/244 282/340/245
f 278/336/246 280/338/242 281/339/247 279/337/248
f 280/338/242 282/340/245 283/341/249 281/339/247
f 282/340/245 284/342/250 285/343/251 283/341/249
f 284/342/250 286/344/252 287/345/253 285/343/251
f 278/336/246 275/333/254 289/347/243 280/338/242
f 284/342/250 277/335/255 276/334/256 286/344/252
f 282/340/245 288/346/244 277/335/255 284/342/250
f 281/339/247 291/349/257 290/348/258 279/337/248
f 287/345/253 294/352/259 293/351/260 285/343/251
f 283/341/249 292/350/118 291/349/257 281/339/247
f 285/343/251 293/351/260 292/350/118 283/341/249
f 294/352/259 299/357/261 298/356/262 293/351/260
f 292/350/118 297/355/263 296/354/264 291/349/257
f 293/351/260 298/356/262 297/355/263 292/350/118
f 291/349/257 296/354/264 295/353/265 290/348/258
f 299/357/261 304/362/266 303/361/267 298/356/262
f 297/355/263 302/360/268 301/359/269 296/354/264
f 298/356/262 303/361/267 302/360/268 297/355/263
f 296/354/264 301/359/269 300/358/270 295/353/265
f 301/359/269 271/329/239 270/328/238 300/358/270
f 304/362/266 274/332/241 273/331/240 303/361/267
f 302/360/268 272/330/98 271/329/239 301/359/269
f 303/361/267 273/331/240 272/330/98 302/360/268
f 307/365/208 308/366/207 312/370/271 311/369/272
f 311/369/272 312/370/271 310/368/273 309/367/274
f 309/367/274 310/368/273 305/363/206 306/364/205
f 312/370/271 308/366/207 305/363/206 310/368/273
f 316/374/275 315/373/276 313/371/277 314/372/278
f 638/696/619 637/695/620 639/697/621 640/698/622
f 313/371/277 315/373/276 640/698/622 639/697/621
f 314/372/278 313/371/277 639/697/621 637/695/620
f 315/373/276 316/374/275 638/696/619 640/698/622
f 316/374/275 314/372/278 637/695/620 638/696/619
usemtl WINDOWS_building_church_side_bottom2
f 58/58/40 64/64/41 63/63/42 62/62/43 61/61/44 60/60/45 59/59/46 57/57/47 53/53/48 54/54/49
f 66/66/50 72/72/51 71/71/52 70/70/53 69/69/54 68/68/55 67/67/56 65/65/57 55/55/58 56/56/59
usemtl METAL_building_church_side_bottom2
f 363/421/279 364/422/280 390/448/281 391/449/282
f 355/413/283 357/415/284 376/434/285 375/433/286
f 681/739/287 320/378/288 322/380/289 682/740/290
f 360/418/291 361/419/292 393/451/293 394/452/294
f 349/407/295 351/409/296 373/431/297 372/430/298
f 682/740/290 322/380/289 324/382/299 683/741/300
f 369/427/301 370/428/302 384/442/303 385/443/304
f 343/401/305 345/403/306 370/428/302 369/427/301
f 683/741/300 324/382/299 326/384/307 684/742/308
f 372/430/298 373/431/297 381/439/309 382/440/310
f 337/395/311 339/397/312 367/425/313 366/424/314
f 684/742/308 326/384/307 328/386/315 685/743/316
f 375/433/286 376/434/285 377/435/317 379/437/318
f 331/389/319 333/391/320 364/422/280 363/421/279
f 685/743/316 328/386/315 330/388/321 686/744/322
f 359/417/323 360/418/291 394/452/294 395/453/324
f 325/383/325 327/385/326 361/419/292 360/418/291
f 686/744/322 330/388/321 332/390/327 687/745/328
f 362/420/329 363/421/279 391/449/282 392/450/330
f 351/409/296 353/411/331 374/432/332 373/431/297
f 687/745/328 332/390/327 334/392/333 688/746/334
f 365/423/335 366/424/314 388/446/336 389/447/337
f 345/403/306 347/405/338 371/429/339 370/428/302
f 688/746/334 334/392/333 336/394/340 689/747/341
f 368/426/342 369/427/301 385/443/304 386/444/343
f 339/397/312 341/399/344 368/426/342 367/425/313
f 689/747/341 336/394/340 338/396/345 690/748/346
f 376/434/285 318/376/347 378/436/348 377/435/317
f 333/391/320 335/393/349 365/423/335 364/422/280
f 690/748/346 338/396/345 340/398/350 691/749/351
f 371/429/339 372/430/298 382/440/310 383/441/352
f 319/377/353 321/379/354 317/375/355 318/376/347
f 691/749/351 340/398/350 342/400/356 692/750/357
f 374/432/332 375/433/286 379/437/318 380/438/358
f 327/385/326 329/387/359 362/420/329 361/419/292
f 692/750/357 342/400/356 344/402/360 693/751/361
f 317/375/355 359/417/323 395/453/324 396/454/362
f 357/415/284 319/377/353 318/376/347 376/434/285
f 693/751/361 344/402/360 346/404/363 694/752/364
f 361/419/292 362/420/329 392/450/330 393/451/293
f 321/379/354 323/381/365 359/417/323 317/375/355
f 694/752/364 346/404/363 348/406/366 695/753/367
f 364/422/280 365/423/335 389/447/337 390/448/281
f 353/411/331 355/413/283 375/433/286 374/432/332
f 695/753/367 348/406/366 350/408/368 696/754/369
f 367/425/313 368/426/342 386/444/343 387/445/370
f 347/405/338 349/407/295 372/430/298 371/429/339
f 696/754/369 350/408/368 352/410/371 697/755/372
f 370/428/302 371/429/339 383/441/352 384/442/303
f 341/399/344 343/401/305 369/427/301 368/426/342
f 697/755/372 352/410/371 354/412/373 698/756/374
f 381/439/309 380/438/358 400/458/375 401/459/376
f 335/393/349 337/395/311 366/424/314 365/423/335
f 698/756/374 354/412/373 356/414/377 699/757/378
f 346/404/363 344/402/360 569/627/379 570/628/380
f 373/431/297 374/432/332 380/438/358 381/439/309
f 699/757/378 356/414/377 358/416/381 700/758/382
f 366/424/314 367/425/313 387/445/370 388/446/336
f 323/381/365 325/383/325 360/418/291 359/417/323
f 700/758/382 358/416/381 320/378/288 681/739/287
f 329/387/359 331/389/319 363/421/279 362/420/329
f 318/376/347 317/375/355 396/454/362 378/436/348
f 397/455/383 398/456/384 418/476/385 417/475/386
f 396/454/362 395/453/324 415/473/387 416/474/388
f 389/447/337 388/446/336 408/466/389 409/467/390
f 382/440/310 381/439/309 401/459/376 402/460/391
f 378/436/348 396/454/362 416/474/388 398/456/384
f 390/448/281 389/447/337 409/467/390 410/468/392
f 383/441/352 382/440/310 402/460/391 403/461/393
f 391/449/282 390/448/281 410/468/392 411/469/394
f 384/442/303 383/441/352 403/461/393 404/462/395
f 392/450/330 391/449/282 411/469/394 412/470/396
f 385/443/304 384/442/303 404/462/395 405/463/397
f 377/435/317 378/436/348 398/456/384 397/455/383
f 393/451/293 392/450/330 412/470/396 413/471/398
f 386/444/343 385/443/304 405/463/397 406/464/399
f 379/437/318 377/435/317 397/455/383 399/457/400
f 394/452/294 393/451/293 413/471/398 414/472/401
f 387/445/370 386/444/343 406/464/399 407/465/402
f 380/438/358 379/437/318 399/457/400 400/458/375
f 395/453/324 394/452/294 414/472/401 415/473/387
f 388/446/336 387/445/370 407/465/402 408/466/389
f 430/488/403 429/487/404 449/507/405 450/508/406
f 413/471/398 412/470/396 432/490/407 433/491/408
f 406/464/399 405/463/397 425/483/409 426/484/410
f 399/457/400 397/455/383 417/475/386 419/477/411
f 414/472/401 413/471/398 433/491/408 434/492/412
f 407/465/402 406/464/399 426/484/410 427/485/413
f 400/458/375 399/457/400 419/477/411 420/478/414
f 415/473/387 414/472/401 434/492/412 435/493/415
f 408/466/389 407/465/402 427/485/413 428/486/416
f 401/459/376 400/458/375 420/478/414 421/479/417
f 416/474/388 415/473/387 435/493/415 436/494/418
f 409/467/390 408/466/389 428/486/416 429/487/404
f 402/460/391 401/459/376 421/479/417 422/480/419
f 398/456/384 416/474/388 436/494/418 418/476/385
f 410/468/392 409/467/390 429/487/404 430/488/403
f 403/461/393 402/460/391 422/480/419 423/481/420
f 411/469/394 410/468/392 430/488/403 431/489/421
f 404/462/395 403/461/393 423/481/420 424/482/422
f 412/470/396 411/469/394 431/489/421 432/490/407
f 405/463/397 404/462/395 424/482/422 425/483/409
f 447/505/423 446/504/424 466/524/425 467/525/426
f 423/481/420 422/480/419 442/500/427 443/501/428
f 431/489/421 430/488/403 450/508/406 451/509/429
f 424/482/422 423/481/420 443/501/428 444/502/430
f 432/490/407 431/489/421 451/509/429 452/510/431
f 425/483/409 424/482/422 444/502/430 445/503/432
f 417/475/386 418/476/385 438/496/433 437/495/434
f 433/491/408 432/490/407 452/510/431 453/511/435
f 426/484/410 425/483/409 445/503/432 446/504/424
f 419/477/411 417/475/386 437/495/434 439/497/436
f 434/492/412 433/491/408 453/511/435 454/512/437
f 427/485/413 426/484/410 446/504/424 447/505/423
f 420/478/414 419/477/411 439/497/436 440/498/438
f 435/493/415 434/492/412 454/512/437 455/513/439
f 428/486/416 427/485/413 447/505/423 448/506/440
f 421/479/417 420/478/414 440/498/438 441/499/441
f 436/494/418 435/493/415 455/513/439 456/514/442
f 429/487/404 428/486/416 448/506/440 449/507/405
f 422/480/419 421/479/417 441/499/441 442/500/427
f 418/476/385 436/494/418 456/514/442 438/496/433
f 464/522/443 463/521/444 483/541/445 484/542/446
f 440/498/438 439/497/436 459/517/447 460/518/448
f 455/513/439 454/512/437 474/532/449 475/533/450
f 448/506/440 447/505/423 467/525/426 468/526/451
f 441/499/441 440/498/438 460/518/448 461/519/452
f 456/514/442 455/513/439 475/533/450 476/534/453
f 449/507/405 448/506/440 468/526/451 469/527/454
f 442/500/427 441/499/441 461/519/452 462/520/455
f 438/496/433 456/514/442 476/534/453 458/516/456
f 450/508/406 449/507/405 469/527/454 470/528/457
f 443/501/428 442/500/427 462/520/455 463/521/444
f 451/509/429 450/508/406 470/528/457 471/529/458
f 444/502/430 443/501/428 463/521/444 464/522/443
f 452/510/431 451/509/429 471/529/458 472/530/459
f 445/503/432 444/502/430 464/522/443 465/523/460
f 437/495/434 438/496/433 458/516/456 457/515/461
f 453/511/435 452/510/431 472/530/459 473/531/462
f 446/504/424 445/503/432 465/523/460 466/524/425
f 439/497/436 437/495/434 457/515/461 459/517/447
f 454/512/437 453/511/435 473/531/462 474/532/449
f 481/539/463 480/538/464 500/558/465 501/559/466
f 472/530/459 471/529/458 491/549/467 492/550/468
f 465/523/460 464/522/443 484/542/446 485/543/469
f 457/515/461 458/516/456 478/536/470 477/535/471
f 473/531/462 472/530/459 492/550/468 493/551/472
f 466/524/425 465/523/460 485/543/469 486/544/473
f 459/517/447 457/515/461 477/535/471 479/537/474
f 474/532/449 473/531/462 493/551/472 494/552/475
f 467/525/426 466/524/425 486/544/473 487/545/476
f 460/518/448 459/517/447 479/537/474 480/538/464
f 475/533/450 474/532/449 494/552/475 495/553/477
f 468/526/451 467/525/426 487/545/476 488/546/478
f 461/519/452 460/518/448 480/538/464 481/539/463
f 476/534/453 475/533/450 495/553/477 496/554/479
f 469/527/454 468/526/451 488/546/478 489/547/480
f 462/520/455 461/519/452 481/539/463 482/540/481
f 458/516/456 476/534/453 496/554/479 478/536/470
f 470/528/457 469/527/454 489/547/480 490/548/482
f 463/521/444 462/520/455 482/540/481 483/541/445
f 471/529/458 470/528/457 490/548/482 491/549/467
f 497/555/483 498/556/484 518/576/485 517/575/486
f 496/554/479 495/553/477 515/573/487 516/574/488
f 489/547/480 488/546/478 508/566/489 509/567/490
f 482/540/481 481/539/463 501/559/466 502/560/491
f 478/536/470 496/554/479 516/574/488 498/556/484
f 490/548/482 489/547/480 509/567/490 510/568/492
f 483/541/445 482/540/481 502/560/491 503/561/493
f 491/549/467 490/548/482 510/568/492 511/569/494
f 484/542/446 483/541/445 503/561/493 504/562/495
f 492/550/468 491/549/467 511/569/494 512/570/496
f 485/543/469 484/542/446 504/562/495 505/563/497
f 477/535/471 478/536/470 498/556/484 497/555/483
f 493/551/472 492/550/468 512/570/496 513/571/498
f 486/544/473 485/543/469 505/563/497 506/564/499
f 479/537/474 477/535/471 497/555/483 499/557/500
f 494/552/475 493/551/472 513/571/498 514/572/501
f 487/545/476 486/544/473 506/564/499 507/565/502
f 480/538/464 479/537/474 499/557/500 500/558/465
f 495/553/477 494/552/475 514/572/501 515/573/487
f 488/546/478 487/545/476 507/565/502 508/566/489
f 518/576/485 536/594/503 556/614/504 538/596/505
f 513/571/498 512/570/496 532/590/506 533/591/507
f 506/564/499 505/563/497 525/583/508 526/584/509
f 499/557/500 497/555/483 517/575/486 519/577/510
f 514/572/501 513/571/498 533/591/507 534/592/511
f 507/565/502 506/564/499 526/584/509 527/585/512
f 500/558/465 499/557/500 519/577/510 520/578/513
f 515/573/487 514/572/501 534/592/511 535/593/514
f 508/566/489 507/565/502 527/585/512 528/586/515
f 501/559/466 500/558/465 520/578/513 521/579/516
f 516/574/488 515/573/487 535/593/514 536/594/503
f 509/567/490 508/566/489 528/586/515 529/587/517
f 502/560/491 501/559/466 521/579/516 522/580/518
f 498/556/484 516/574/488 536/594/503 518/576/485
f 510/568/492 509/567/490 529/587/517 530/588/519
f 503/561/493 502/560/491 522/580/518 523/581/520
f 511/569/494 510/568/492 530/588/519 531/589/521
f 504/562/495 503/561/493 523/581/520 524/582/522
f 512/570/496 511/569/494 531/589/521 532/590/506
f 505/563/497 504/562/495 524/582/522 525/583/508
f 538/596/505 556/614/504 555/613/523 554/612/524 553/611/525 552/610/526 551/609/527 550/608/528 549/607/529 548/606/530 547/605/531 546/604/532 545/603/533 544/602/534 543/601/535 542/600/536 541/599/537 540/598/538 539/597/539 537/595/540
f 530/588/519 529/587/517 549/607/529 550/608/528
f 523/581/520 522/580/518 542/600/536 543/601/535
f 531/589/521 530/588/519 550/608/528 551/609/527
f 524/582/522 523/581/520 543/601/535 544/602/534
f 532/590/506 531/589/521 551/609/527 552/610/526
f 525/583/508 524/582/522 544/602/534 545/603/533
f 517/575/486 518/576/485 538/596/505 537/595/540
f 533/591/507 532/590/506 552/610/526 553/611/525
f 526/584/509 525/583/508 545/603/533 546/604/532
f 519/577/510 517/575/486 537/595/540 539/597/539
f 534/592/511 533/591/507 553/611/525 554/612/524
f 527/585/512 526/584/509 546/604/532 547/605/531
f 520/578/513 519/577/510 539/597/539 540/598/538
f 535/593/514 534/592/511 554/612/524 555/613/523
f 528/586/515 527/585/512 547/605/531 548/606/530
f 521/579/516 520/578/513 540/598/538 541/599/537
f 536/594/503 535/593/514 555/613/523 556/614/504
f 529/587/517 528/586/515 548/606/530 549/607/529
f 522/580/518 521/579/516 541/599/537 542/600/536
f 571/629/541 570/628/380 590/648/542 591/649/543
f 352/410/371 350/408/368 572/630/544 573/631/545
f 358/416/381 356/414/377 575/633/546 576/634/547
f 326/384/307 324/382/299 559/617/548 560/618/549
f 332/390/327 330/388/321 562/620/550 563/621/551
f 338/396/345 336/394/340 565/623/552 566/624/553
f 344/402/360 342/400/356 568/626/554 569/627/379
f 350/408/368 348/406/366 571/629/541 572/630/544
f 356/414/377 354/412/373 574/632/555 575/633/546
f 320/378/288 358/416/381 576/634/547 558/616/556
f 324/382/299 322/380/289 557/615/557 559/617/548
f 330/388/321 328/386/315 561/619/558 562/620/550
f 336/394/340 334/392/333 564/622/559 565/623/552
f 342/400/356 340/398/350 567/625/560 568/626/554
f 348/406/366 346/404/363 570/628/380 571/629/541
f 354/412/373 352/410/371 573/631/545 574/632/555
f 322/380/289 320/378/288 558/616/556 557/615/557
f 328/386/315 326/384/307 560/618/549 561/619/558
f 334/392/333 332/390/327 563/621/551 564/622/559
f 340/398/350 338/396/345 566/624/553 567/625/560
f 588/646/561 587/645/562 607/665/563 608/666/564
f 564/622/559 563/621/551 583/641/565 584/642/566
f 572/630/544 571/629/541 591/649/543 592/650/567
f 565/623/552 564/622/559 584/642/566 585/643/568
f 557/615/557 558/616/556 578/636/569 577/635/570
f 573/631/545 572/630/544 592/650/567 593/651/571
f 566/624/553 565/623/552 585/643/568 586/644/572
f 559/617/548 557/615/557 577/635/570 579/637/573
f 574/632/555 573/631/545 593/651/571 594/652/574
f 567/625/560 566/624/553 586/644/572 587/645/562
f 560/618/549 559/617/548 579/637/573 580/638/575
f 575/633/546 574/632/555 594/652/574 595/653/576
f 568/626/554 567/625/560 587/645/562 588/646/561
f 561/619/558 560/618/549 580/638/575 581/639/577
f 576/634/547 575/633/546 595/653/576 596/654/578
f 569/627/379 568/626/554 588/646/561 589/647/579
f 562/620/550 561/619/558 581/639/577 582/640/580
f 558/616/556 576/634/547 596/654/578 578/636/569
f 570/628/380 569/627/379 589/647/579 590/648/542
f 563/621/551 562/620/550 582/640/580 583/641/565
f 605/663/581 604/662/582 624/682/583 625/683/584
f 581/639/577 580/638/575 600/658/585 601/659/586
f 596/654/578 595/653/576 615/673/587 616/674/588
f 589/647/579 588/646/561 608/666/564 609/667/589
f 582/640/580 581/639/577 601/659/586 602/660/590
f 578/636/569 596/654/578 616/674/588 598/656/591
f 590/648/542 589/647/579 609/667/589 610/668/592
f 583/641/565 582/640/580 602/660/590 603/661/593
f 591/649/543 590/648/542 610/668/592 611/669/594
f 584/642/566 583/641/565 603/661/593 604/662/582
f 592/650/567 591/649/543 611/669/594 612/670/595
f 585/643/568 584/642/566 604/662/582 605/663/581
f 577/635/570 578/636/569 598/656/591 597/655/596
f 593/651/571 592/650/567 612/670/595 613/671/597
f 586/644/572 585/643/568 605/663/581 606/664/598
f 579/637/573 577/635/570 597/655/596 599/657/599
f 594/652/574 593/651/571 613/671/597 614/672/600
f 587/645/562 586/644/572 606/664/598 607/665/563
f 580/638/575 579/637/573 599/657/599 600/658/585
f 595/653/576 594/652/574 614/672/600 615/673/587
f 617/675/601 618/676/602 636/694/603 635/693/604 634/692/605 633/691/606 632/690/607 631/689/608 630/688/609 629/687/610 628/686/611 627/685/612 626/684/613 625/683/584 624/682/583 623/681/614 622/680/615 621/679/616 620/678/617 619/677/618
f 597/655/596 598/656/591 618/676/602 617/675/601
f 613/671/597 612/670/595 632/690/607 633/691/606
f 606/664/598 605/663/581 625/683/584 626/684/613
f 599/657/599 597/655/596 617/675/601 619/677/618
f 614/672/600 613/671/597 633/691/606 634/692/605
f 607/665/563 606/664/598 626/684/613 627/685/612
f 600/658/585 599/657/599 619/677/618 620/678/617
f 615/673/587 614/672/600 634/692/605 635/693/604
f 608/666/564 607/665/563 627/685/612 628/686/611
f 601/659/586 600/658/585 620/678/617 621/679/616
f 616/674/588 615/673/587 635/693/604 636/694/603
f 609/667/589 608/666/564 628/686/611 629/687/610
f 602/660/590 601/659/586 621/679/616 622/680/615
f 598/656/591 616/674/588 636/694/603 618/676/602
f 610/668/592 609/667/589 629/687/610 630/688/609
f 603/661/593 602/660/590 622/680/615 623/681/614
f 611/669/594 610/668/592 630/688/609 631/689/608
f 604/662/582 603/661/593 623/681/614 624/682/583
f 612/670/595 611/669/594 631/689/608 632/690/607
f 357/415/284 660/718/623 641/699/624 319/377/353
f 355/413/283 659/717/625 660/718/623 357/415/284
f 353/411/331 658/716/626 659/717/625 355/413/283
f 351/409/296 657/715/627 658/716/626 353/411/331
f 349/407/295 656/714/628 657/715/627 351/409/296
f 347/405/338 655/713/629 656/714/628 349/407/295
f 345/403/306 654/712/630 655/713/629 347/405/338
f 343/401/305 653/711/631 654/712/630 345/403/306
f 341/399/344 652/710/632 653/711/631 343/401/305
f 339/397/312 651/709/633 652/710/632 341/399/344
f 337/395/311 650/708/634 651/709/633 339/397/312
f 335/393/349 649/707/635 650/708/634 337/395/311
f 333/391/320 648/706/636 649/707/635 335/393/349
f 331/389/319 647/705/637 648/706/636 333/391/320
f 329/387/359 646/704/638 647/705/637 331/389/319
f 327/385/326 645/703/639 646/704/638 329/387/359
f 325/383/325 644/702/640 645/703/639 327/385/326
f 323/381/365 643/701/641 644/702/640 325/383/325
f 321/379/354 642/700/642 643/701/641 323/381/365
f 319/377/353 641/699/624 642/700/642 321/379/354
f 660/718/623 680/738/643 661/719/644 641/699/624
f 659/717/625 679/737/645 680/738/643 660/718/623
f 658/716/626 678/736/646 679/737/645 659/717/625
f 657/715/627 677/735/647 678/736/646 658/716/626
f 656/714/628 676/734/648 677/735/647 657/715/627
f 655/713/629 675/733/649 676/734/648 656/714/628
f 654/712/630 674/732/650 675/733/649 655/713/629
f 653/711/631 673/731/651 674/732/650 654/712/630
f 652/710/632 672/730/652 673/731/651 653/711/631
f 651/709/633 671/729/653 672/730/652 652/710/632
f 650/708/634 670/728/654 671/729/653 651/709/633
f 649/707/635 669/727/655 670/728/654 650/708/634
f 648/706/636 668/726/656 669/727/655 649/707/635
f 647/705/637 667/725/657 668/726/656 648/706/636
f 646/704/638 666/724/658 667/725/657 647/705/637
f 645/703/639 665/723/659 666/724/658 646/704/638
f 644/702/640 664/722/660 665/723/659 645/703/639
f 643/701/641 663/721/661 664/722/660 644/702/640
f 642/700/642 662/720/662 663/721/661 643/701/641
f 641/699/624 661/719/644 662/720/662 642/700/642
f 719/777/663 700/758/382 681/739/287 720/778/664
f 718/776/665 699/757/378 700/758/382 719/777/663
f 717/775/666 698/756/374 699/757/378 718/776/665
f 716/774/667 697/755/372 698/756/374 717/775/666
f 715/773/668 696/754/369 697/755/372 716/774/667
f 714/772/669 695/753/367 696/754/369 715/773/668
f 713/771/670 694/752/364 695/753/367 714/772/669
f 712/770/671 693/751/361 694/752/364 713/771/670
f 711/769/672 692/750/357 693/751/361 712/770/671
f 710/768/673 691/749/351 692/750/357 711/769/672
f 709/767/674 690/748/346 691/749/351 710/768/673
f 708/766/675 689/747/341 690/748/346 709/767/674
f 707/765/676 688/746/334 689/747/341 708/766/675
f 706/764/677 687/745/328 688/746/334 707/765/676
f 705/763/678 686/744/322 687/745/328 706/764/677
f 704/762/679 685/743/316 686/744/322 705/763/678
f 703/761/680 684/742/308 685/743/316 704/762/679
f 702/760/681 683/741/300 684/742/308 703/761/680
f 701/759/682 682/740/290 683/741/300 702/760/681
f 720/778/664 681/739/287 682/740/290 701/759/682
f 661/719/644 720/778/664 701/759/682 662/720/662
f 662/720/662 701/759/682 702/760/681 663/721/661
f 663/721/661 702/760/681 703/761/680 664/722/660
f 664/722/660 703/761/680 704/762/679 665/723/659
f 665/723/659 704/762/679 705/763/678 666/724/658
f 666/724/658 705/763/678 706/764/677 667/725/657
f 667/725/657 706/764/677 707/765/676 668/726/656
f 668/726/656 707/765/676 708/766/675 669/727/655
f 669/727/655 708/766/675 709/767/674 670/728/654
f 670/728/654 709/767/674 710/768/673 671/729/653
f 671/729/653 710/768/673 711/769/672 672/730/652
f 672/730/652 711/769/672 712/770/671 673/731/651
f 673/731/651 712/770/671 713/771/670 674/732/650
f 674/732/650 713/771/670 714/772/669 675/733/649
f 675/733/649 714/772/669 715/773/668 676/734/648
f 676/734/648 715/773/668 716/774/667 677/735/647
f 677/735/647 716/774/667 717/775/666 678/736/646
f 678/736/646 717/775/666 718/776/665 679/737/645
f 679/737/645 718/776/665 719/777/663 680/738/643
f 680/738/643 719/777/663 720/778/664 661/719/644
f 721/779/204 725/783/683 727/785/188 723/781/684
f 726/784/685 725/783/683 721/779/204 722/780/156
f 728/786/686 727/785/188 725/783/683 726/784/685
f 724/782/687 723/781/684 727/785/188 728/786/686
f 729/787/686 730/788/188 732/790/683 731/789/685
f 722/780/156 721/779/204 723/781/684 724/782/687
f 731/789/685 732/790/683 736/794/204 735/793/156
f 735/793/156 736/794/204 734/792/684 733/791/687
f 733/791/687 734/792/684 730/788/188 729/787/686
f 736/794/204 732/790/683 730/788/188 734/792/684
f 737/795/688 738/796/689 740/798/690 739/797/691
f 739/797/691 740/798/690 744/802/692 743/801/693
f 744/802/692 742/800/694 748/806/695 745/803/696
f 741/799/697 742/800/694 738/796/689 737/795/688
f 739/797/691 743/801/693 741/799/697 737/795/688
f 744/802/692 740/798/690 738/796/689 742/800/694
f 748/806/695 747/805/698 751/809/699 752/810/700
f 743/801/693 744/802/692 745/803/696 746/804/701
f 742/800/694 741/799/697 747/805/698 748/806/695
f 741/799/697 743/801/693 746/804/701 747/805/698
f 751/809/699 750/808/702 754/812/703 755/813/704
f 747/805/698 746/804/701 750/808/702 751/809/699
f 745/803/696 748/806/695 752/810/700 749/807/705
f 746/804/701 745/803/696 749/807/705 750/808/702
f 753/811/706 756/814/707 760/818/708 757/815/709
f 749/807/705 752/810/700 756/814/707 753/811/706
f 750/808/702 749/807/705 753/811/706 754/812/703
f 752/810/700 751/809/699 755/813/704 756/814/707
f 760/818/708 759/817/710 763/821/711 764/822/712
f 754/812/703 753/811/706 757/815/709 758/816/713
f 756/814/707 755/813/704 759/817/710 760/818/708
f 755/813/704 754/812/703 758/816/713 759/817/710
f 762/820/714 761/819/715 764/822/712 763/821/711
f 759/817/710 758/816/713 762/820/714 763/821/711
f 757/815/709 760/818/708 764/822/712 761/819/715
f 758/816/713 757/815/709 761/819/715 762/820/714
f 765/823/716 766/824/717 768/826/718 767/825/719
f 767/825/719 768/826/718 770/828/720 769/827/721
f 769/827/721 770/828/720 772/830/722 771/829/723
f 771/829/723 772/830/722 774/832/724 773/831/725
f 773/831/725 774/832/724 776/834/726 775/833/727
f 775/833/727 776/834/726 778/836/728 777/835/729
f 777/835/729 778/836/728 780/838/730 779/837/731
f 779/837/731 780/838/730 782/840/732 781/839/733
f 768/826/718 766/824/717 784/842/734 782/840/732 780/838/730 778/836/728 776/834/726 774/832/724 772/830/722 770/828/720
f 781/839/733 782/840/732 784/842/734 783/841/735
f 783/841/735 784/842/734 766/824/717 765/823/716
f 765/823/716 767/825/719 769/827/721 771/829/723 773/831/725 775/833/727 777/835/729 779/837/731 781/839/733 783/841/735
f 785/843/736 786/844/737 788/846/738 787/845/739
f 787/845/739 788/846/738 790/848/740 789/847/741
f 789/847/741 790/848/740 792/850/742 791/849/743
f 791/849/743 792/850/742 794/852/744 793/851/745
f 793/851/745 794/852/744 796/854/746 795/853/747
f 795/853/747 796/854/746 798/856/748 797/855/749
f 797/855/749 798/856/748 800/858/750 799/857/751
f 799/857/751 800/858/750 802/860/752 801/859/753
f 788/846/738 786/844/737 804/862/754 802/860/752 800/858/750 798/856/748 796/854/746 794/852/744 792/850/742 790/848/740
f 801/859/753 802/860/752 804/862/754 803/861/755
f 803/861/755 804/862/754 786/844/737 785/843/736
f 785/843/736 787/845/739 789/847/741 791/849/743 793/851/745 795/853/747 797/855/749 799/857/751 801/859/753 803/861/755
f 805/863/756 806/864/757 808/866/758 807/865/759
f 807/865/759 808/866/758 810/868/760 809/867/761
f 809/867/761 810/868/760 812/870/762 811/869/763
f 811/869/763 812/870/762 814/872/764 813/871/765
f 813/871/765 814/872/764 816/874/766 815/873/767
f 815/873/767 816/874/766 818/876/768 817/875/769
f 817/875/769 818/876/768 820/878/770 819/877/771
f 819/877/771 820/878/770 822/880/772 821/879/773
f 808/866/758 806/864/757 824/882/774 822/880/772 820/878/770 818/876/768 816/874/766 814/872/764 812/870/762 810/868/760
f 821/879/773 822/880/772 824/882/774 823/881/775
f 823/881/775 824/882/774 806/864/757 805/863/756
f 805/863/756 807/865/759 809/867/761 811/869/763 813/871/765 815/873/767 817/875/769 819/877/771 821/879/773 823/881/775
