# Blender 3.3.1
# www.blender.org
mtllib building_church_side_bottom1.mtl
o building_church_side_bottom1
v -2.497258 0.007004 0.087281
v 2.497258 0.007004 0.087281
v -2.497258 5.001521 0.000000
v 2.497258 5.001521 0.000000
v -2.497258 1.841991 -0.000000
v 2.497258 1.841991 -0.000000
v -0.422938 5.001521 0.000000
v -0.422938 1.841991 -0.000000
v 0.487020 5.001521 0.000000
v 0.487020 1.841991 -0.000000
v -0.422938 3.890946 0.000000
v 0.487020 3.898363 0.000000
v -0.327024 4.139410 0.000000
v -0.186104 4.339665 0.000000
v 0.037124 4.561163 0.000000
v 0.281158 4.335957 0.000000
v 0.388702 4.143119 0.000000
v -0.312948 2.014878 -0.086880
v 0.378784 2.014878 -0.086880
v -0.284037 3.839245 -0.086880
v 0.352020 3.844883 -0.086880
v -0.225013 4.028123 -0.086880
v -0.132911 4.180353 -0.086880
v 0.034509 4.354949 -0.086880
v 0.207270 4.177534 -0.086880
v 0.297607 4.030942 -0.086880
v -0.513540 3.856948 -0.001415
v -0.597132 3.859017 -0.001415
v -0.581167 3.858622 0.020565
v -0.499648 3.959699 -0.001415
v -0.475226 4.044160 -0.001415
v -0.514989 3.964135 0.020565
v -0.490567 4.048596 0.020565
v -0.539811 3.971313 0.028960
v -0.515389 4.055774 0.028960
v -0.564634 3.978490 0.020565
v -0.540212 4.062951 0.020565
v -0.579975 3.982926 -0.001415
v -0.555553 4.067387 -0.001415
v -0.555336 3.857983 0.028960
v -0.529504 3.857344 0.020565
v -0.375283 4.258606 -0.001415
v -0.388131 4.268091 0.020565
v -0.408920 4.283437 0.028960
v -0.429709 4.298783 0.020565
v -0.442557 4.308268 -0.001415
v -0.295098 4.379968 -0.001415
v -0.304681 4.392742 0.020565
v -0.320187 4.413412 0.028960
v -0.335694 4.434081 0.020565
v -0.345277 4.446856 -0.001415
v -0.121266 4.577407 -0.001415
v -0.130849 4.590181 0.020565
v -0.146355 4.610851 0.028961
v -0.161861 4.631520 0.020565
v -0.171445 4.644295 -0.001415
v 0.044685 4.680666 -0.002968
v 0.044685 4.698303 0.021308
v 0.044685 4.726840 0.030580
v 0.044685 4.755377 0.021308
v 0.044685 4.773014 -0.002968
v 0.592128 3.862327 -0.001415
v 0.675720 3.864396 -0.001415
v 0.659756 3.864001 0.020565
v 0.578236 3.959699 -0.001415
v 0.553814 4.044160 -0.001415
v 0.593577 3.964135 0.020565
v 0.569155 4.048596 0.020565
v 0.618400 3.971313 0.028960
v 0.593978 4.055774 0.028960
v 0.643222 3.978490 0.020565
v 0.618800 4.062951 0.020565
v 0.658563 3.982926 -0.001415
v 0.634141 4.067387 -0.001415
v 0.633924 3.863361 0.028960
v 0.608093 3.862722 0.020565
v 0.453872 4.258606 -0.001415
v 0.466720 4.268091 0.020565
v 0.487508 4.283437 0.028960
v 0.508297 4.298783 0.020565
v 0.521145 4.308268 -0.001415
v 0.373686 4.379968 -0.001415
v 0.383270 4.392742 0.020565
v 0.398776 4.413412 0.028960
v 0.414282 4.434081 0.020565
v 0.423865 4.446856 -0.001415
v 0.199854 4.577407 -0.001415
v 0.209437 4.590181 0.020565
v 0.224943 4.610851 0.028961
v 0.240450 4.631520 0.020565
v 0.250033 4.644295 -0.001415
v -0.630918 3.708542 0.045829
v -0.652296 3.684796 -0.006349
v -0.652296 3.880242 -0.006349
v -0.630918 3.856496 0.045829
v -0.476335 3.684796 -0.006349
v -0.497714 3.708542 0.045829
v -0.476335 3.880242 -0.006349
v -0.497714 3.856496 0.045829
v 0.577413 3.708542 0.045829
v 0.556034 3.684796 -0.006349
v 0.556034 3.880242 -0.006349
v 0.577413 3.856496 0.045829
v 0.731995 3.684796 -0.006349
v 0.710617 3.708542 0.045829
v 0.731995 3.880242 -0.006349
v 0.710617 3.856496 0.045829
v -2.494392 2.352120 0.241878
v -2.494392 3.569569 0.241878
v -2.024565 2.352120 -0.015706
v -2.024565 2.352120 0.241878
v -2.024565 3.569569 -0.015706
v -2.024565 3.569569 0.241878
v -2.494392 3.914144 0.241878
v -2.024565 3.914144 -0.015706
v -2.024565 3.914144 0.241878
v -2.494392 4.388824 0.015374
v -2.494392 4.388824 -0.015706
v -2.024565 4.388824 -0.015706
v -2.024565 4.388824 0.015374
v -2.494392 3.569569 0.451301
v -2.024565 3.569569 0.451301
v -2.494392 1.692019 -0.015706
v -2.494392 1.692019 0.411474
v -2.024565 1.692019 0.411474
v -2.024565 1.692019 -0.015706
v -2.494392 1.692019 -0.015706
v -2.024565 1.692019 -0.015706
v -2.024565 1.692019 0.241878
v -2.494392 1.692019 0.241878
v -2.024565 0.809412 -0.015706
v -2.024565 0.809412 0.241878
v -2.494392 0.809412 0.241878
v -1.900017 0.523863 -0.083989
v -1.900017 0.523863 0.463633
v -2.618940 0.523863 0.463633
v -1.900017 -0.001498 -0.083989
v -1.900017 -0.001498 0.463633
v -2.618940 -0.001498 0.463633
v 2.497258 1.704080 0.087281
v -2.024565 1.679009 0.241878
v -2.494392 1.692019 0.116351
v -2.497258 1.704081 0.087281
v -2.494392 1.679009 0.241878
v -2.494392 1.692019 0.116352
v 2.497258 1.723434 0.099757
v 2.497258 1.791394 0.099757
v 0.487020 1.791394 0.099757
v -2.497258 1.791394 0.099757
v -0.422938 1.791394 0.099757
v -2.497258 1.723435 0.099757
v 2.497258 0.800501 0.087281
v -2.497258 0.800501 0.087281
v -2.497258 0.600246 0.153810
v -2.497258 0.007004 0.153810
v 2.497258 0.007004 0.153810
v 2.497258 0.600246 0.153810
v 2.494494 2.352120 0.241878
v 2.494494 3.569569 0.241878
v 2.024667 2.352120 -0.015706
v 2.024667 2.352120 0.241878
v 2.024667 3.569569 -0.015706
v 2.024667 3.569569 0.241878
v 2.494494 3.914144 0.241878
v 2.024667 3.914144 -0.015706
v 2.024667 3.914144 0.241878
v 2.494494 4.388824 0.015374
v 2.494494 4.388824 -0.015706
v 2.024667 4.388824 -0.015706
v 2.024667 4.388824 0.015374
v 2.494494 3.569569 0.451301
v 2.024667 3.569569 0.451301
v 2.494494 1.692019 -0.015706
v 2.494494 1.692019 0.411474
v 2.024667 1.692019 0.411474
v 2.024667 1.692019 -0.015706
v 2.494494 1.692019 -0.015706
v 2.024667 1.692019 -0.015706
v 2.024667 1.692019 0.241878
v 2.494494 1.692019 0.241878
v 2.024667 0.802408 -0.015706
v 2.024667 0.802408 0.241878
v 2.494494 0.802408 0.241878
v 1.900119 0.600522 -0.083989
v 1.900119 0.600522 0.463633
v 2.619042 0.600522 0.463633
v 1.900119 0.004562 -0.083989
v 1.900119 0.004562 0.463633
v 2.619042 0.004562 0.463633
v 2.024667 1.679009 0.241878
v 2.494494 1.692019 0.116351
v 2.494494 1.679009 0.241878
v 2.494494 1.692019 0.116352
vn 1.0000 -0.0000 -0.0000
vn 0.1029 0.1588 0.9819
vn 0.6729 0.1181 0.7303
vn 0.7071 -0.0000 0.7071
vn -0.5976 -0.6087 0.5219
vn -0.4540 -0.4372 0.7764
vn -0.4540 0.4372 0.7764
vn -0.5976 0.6087 0.5219
vn -0.1967 0.5131 0.8355
vn 0.0702 0.5874 0.8063
vn 0.2469 -0.0460 0.9679
vn -0.0000 -0.0000 1.0000
vn 0.2423 -0.1283 0.9617
vn 0.2033 -0.1751 0.9633
vn 0.0020 -0.1937 0.9811
vn -0.1974 -0.1661 0.9661
vn -0.2496 -0.1225 0.9606
vn -0.2526 -0.0478 0.9664
vn -0.0707 0.5879 0.8058
vn 0.1967 0.5131 0.8355
vn 0.2488 0.1625 0.9548
vn 0.3055 -0.0461 0.9511
vn -0.2759 -0.1202 0.9536
vn -0.3121 -0.0467 0.9489
vn 0.2294 -0.1742 0.9576
vn 0.0130 -0.2815 0.9595
vn -0.2535 0.1624 0.9536
vn -0.2275 -0.1640 0.9599
vn 0.2640 -0.1234 0.9566
vn 0.5661 -0.1199 0.8155
vn -0.0143 0.0020 0.9999
vn -0.0219 0.0032 0.9998
vn 0.5710 -0.0776 0.8172
vn 0.7923 -0.1656 0.5872
vn 0.7581 -0.2865 0.5858
vn 0.5423 -0.2033 0.8152
vn -0.0141 0.0067 0.9999
vn -0.5606 0.2115 0.8006
vn -0.5845 0.1237 0.8019
vn -0.7590 0.2838 0.5860
vn -0.7914 0.1698 0.5872
vn 0.8040 -0.1090 0.5845
vn -0.8037 0.1111 0.5846
vn -0.5993 0.0827 0.7963
vn 0.7115 -0.3965 0.5802
vn 0.5084 -0.2871 0.8118
vn -0.5233 0.3012 0.7971
vn -0.7030 0.4099 0.5811
vn -0.0144 0.0069 0.9999
vn -0.4741 0.3707 0.7986
vn -0.6382 0.5069 0.5795
vn 0.4642 -0.3583 0.8100
vn -0.0114 0.0056 0.9999
vn 0.6504 -0.4920 0.5787
vn -0.3963 0.4760 0.7851
vn -0.5207 0.6330 0.5728
vn 0.3721 -0.4457 0.8141
vn -0.0229 0.0218 0.9995
vn 0.5307 -0.6255 0.5719
vn -0.0143 -0.7844 0.6200
vn -0.0071 -0.4818 0.8763
vn 0.0082 0.6249 0.7806
vn 0.0073 0.7869 0.6171
vn 0.0029 0.0992 0.9951
vn -0.5662 -0.1220 0.8152
vn -0.5696 -0.0815 0.8179
vn 0.0232 0.0034 0.9997
vn 0.0136 0.0020 0.9999
vn -0.7918 -0.1686 0.5871
vn -0.5423 -0.2033 0.8152
vn -0.7581 -0.2865 0.5858
vn 0.0141 0.0067 0.9999
vn 0.5837 0.1255 0.8022
vn 0.5606 0.2115 0.8006
vn 0.7910 0.1721 0.5871
vn 0.7590 0.2838 0.5860
vn -0.8032 -0.1148 0.5846
vn 0.5995 0.0866 0.7957
vn 0.8030 0.1161 0.5846
vn -0.5084 -0.2871 0.8118
vn -0.7115 -0.3965 0.5802
vn 0.7030 0.4099 0.5811
vn 0.5233 0.3012 0.7971
vn 0.0144 0.0069 0.9999
vn 0.6382 0.5069 0.5795
vn 0.4741 0.3707 0.7986
vn 0.0114 0.0056 0.9999
vn -0.4642 -0.3583 0.8100
vn -0.6504 -0.4920 0.5787
vn 0.5287 0.6281 0.5710
vn 0.4021 0.4713 0.7850
vn 0.0216 0.0194 0.9996
vn -0.3809 -0.4432 0.8114
vn -0.5412 -0.6185 0.5697
vn 0.4540 0.4372 0.7764
vn 0.5976 0.6087 0.5219
vn 0.4540 -0.4372 0.7764
vn 0.5976 -0.6087 0.5219
vn 0.9045 -0.3015 0.3015
vn 0.7365 0.0848 0.6711
vn -0.0000 0.4756 0.8797
vn 0.7186 0.3307 0.6117
vn 0.6044 0.6738 0.4250
vn -0.0000 0.8458 0.5335
vn -0.0000 -0.7071 0.7071
vn -0.0000 0.1254 0.9921
vn -0.0000 -0.6128 0.7902
vn -0.0000 1.0000 -0.0000
vn -0.0000 0.7071 0.7071
vn 0.7071 0.7071 -0.0000
vn -0.0000 -0.4902 0.8716
vn 0.5539 -0.4081 0.7257
vn 0.5653 -0.5055 0.6518
vn 0.5774 0.5774 0.5774
vn 0.6961 0.3974 0.5980
vn 0.9761 0.2173 -0.0000
vn 0.6585 0.3074 0.6870
vn -0.0000 0.2857 0.9583
vn -0.0000 0.3550 0.9349
vn 0.9820 0.1891 -0.0000
vn -0.6487 -0.2149 0.7300
vn 0.6487 -0.2149 0.7300
vn 0.6061 0.4162 0.6778
vn -0.0000 0.5233 0.8522
vn -0.6061 0.4162 0.6778
vn -0.3529 -0.2642 0.8976
vn 0.3529 -0.2642 0.8976
vn -0.7071 -0.0000 0.7071
vn -0.6729 0.1181 0.7303
vn -0.1029 0.1588 0.9819
vn -1.0000 -0.0000 -0.0000
vn -0.7365 0.0848 0.6711
vn -0.9045 -0.3015 0.3015
vn -0.6044 0.6738 0.4250
vn -0.7186 0.3307 0.6117
vn -0.7071 0.7071 -0.0000
vn -0.5539 -0.4081 0.7257
vn -0.5653 -0.5055 0.6518
vn -0.4472 -0.0000 0.8944
vn -0.9555 0.2952 -0.0000
vn -0.6693 0.5041 0.5458
vn -0.3015 -0.3015 0.9045
vn -0.6435 0.3690 0.6706
vn -0.0000 0.3456 0.9384
vn -0.0000 0.4487 0.8937
vn -0.9693 0.2461 -0.0000
vt 0.023231 0.001699
vt 0.976750 0.001699
vt 0.023231 1.000000
vt 0.976750 1.000000
vt 0.023231 0.368475
vt 0.976750 0.368475
vt 0.419246 1.000000
vt 0.419246 0.368475
vt 0.592969 1.000000
vt 0.592969 0.368475
vt 0.419246 0.778019
vt 0.592969 0.779502
vt 0.437557 0.827682
vt 0.464461 0.867709
vt 0.507078 0.911982
vt 0.553667 0.866967
vt 0.574199 0.828423
vt 0.440244 0.403032
vt 0.572305 0.403032
vt 0.445764 0.767685
vt 0.567196 0.768812
vt 0.457032 0.805438
vt 0.474616 0.835865
vt 0.506579 0.870764
vt 0.539561 0.835302
vt 0.556807 0.806002
vt 0.401949 0.771224
vt 0.385990 0.771637
vt 0.389038 0.771558
vt 0.404601 0.791761
vt 0.409263 0.808644
vt 0.401672 0.792648
vt 0.406335 0.809530
vt 0.396933 0.794083
vt 0.401596 0.810965
vt 0.392194 0.795518
vt 0.396857 0.812399
vt 0.389265 0.796404
vt 0.393928 0.813286
vt 0.393969 0.771430
vt 0.398901 0.771303
vt 0.428344 0.851507
vt 0.425891 0.853403
vt 0.421922 0.856470
vt 0.417953 0.859537
vt 0.415500 0.861433
vt 0.443652 0.875764
vt 0.441823 0.878318
vt 0.438862 0.882449
vt 0.435902 0.886580
vt 0.434072 0.889134
vt 0.476839 0.915228
vt 0.475009 0.917782
vt 0.472049 0.921913
vt 0.469089 0.926044
vt 0.467259 0.928598
vt 0.508521 0.935868
vt 0.508521 0.939393
vt 0.508521 0.945097
vt 0.508521 0.950801
vt 0.508521 0.954326
vt 0.613035 0.772299
vt 0.628994 0.772712
vt 0.625946 0.772633
vt 0.610383 0.791761
vt 0.605721 0.808644
vt 0.613312 0.792648
vt 0.608649 0.809530
vt 0.618051 0.794083
vt 0.613388 0.810965
vt 0.622790 0.795518
vt 0.618127 0.812399
vt 0.625719 0.796404
vt 0.621056 0.813286
vt 0.621015 0.772506
vt 0.616083 0.772378
vt 0.586640 0.851507
vt 0.589093 0.853403
vt 0.593062 0.856470
vt 0.597031 0.859537
vt 0.599484 0.861433
vt 0.571332 0.875764
vt 0.573162 0.878318
vt 0.576122 0.882449
vt 0.579082 0.886580
vt 0.580912 0.889134
vt 0.538145 0.915228
vt 0.539975 0.917782
vt 0.542935 0.921913
vt 0.545895 0.926044
vt 0.547725 0.928598
vt 0.379540 0.741560
vt 0.375458 0.736814
vt 0.375458 0.775880
vt 0.379540 0.771133
vt 0.409052 0.736814
vt 0.404970 0.741560
vt 0.409052 0.775880
vt 0.404970 0.771133
vt 0.610226 0.741560
vt 0.606144 0.736814
vt 0.606144 0.775880
vt 0.610226 0.771133
vt 0.639738 0.736814
vt 0.635657 0.741560
vt 0.639738 0.775880
vt 0.635657 0.771133
vt -0.008212 0.470440
vt -0.008212 0.713783
vt -0.008212 0.724036
vt 0.092133 0.445160
vt 0.097260 0.445160
vt 0.081239 0.445472
vt 0.081484 0.470440
vt 0.078798 0.470440
vt 0.077088 0.445472
vt 0.089294 0.709368
vt 0.081484 0.713783
vt 0.078215 0.719999
vt 0.077578 0.724036
vt -0.008212 0.782656
vt 0.099340 0.797337
vt 0.086123 0.782656
vt 0.088209 0.810903
vt -0.008212 0.877535
vt -0.008212 0.877535
vt 0.096621 0.877535
vt 0.098229 0.867354
vt 0.096621 0.877535
vt 0.096943 0.869377
vt -0.008212 0.713783
vt 0.068220 0.729591
vt 0.081484 0.713783
vt -0.008212 0.338499
vt -0.008212 0.338499
vt -0.008212 0.343382
vt -0.008212 0.343490
vt 0.067568 0.343382
vt 0.066760 0.339351
vt 0.081484 0.338499
vt 0.066719 0.343490
vt 0.096842 0.348403
vt 0.081484 0.338499
vt -0.008212 0.338499
vt 0.093668 0.348403
vt 0.081484 0.338499
vt 0.082873 0.343152
vt 0.081484 0.335423
vt 0.081484 0.338499
vt -0.008212 0.335423
vt -0.008212 0.338499
vt 0.097266 0.163518
vt 0.099785 0.164100
vt 0.086604 0.150863
vt 0.084666 0.155707
vt 0.073401 0.149780
vt -0.008212 0.150365
vt 0.119098 0.120372
vt 0.118516 0.125797
vt 0.094410 0.105009
vt 0.091256 0.103738
vt 0.093102 0.104969
vt -0.031990 0.105009
vt 0.119699 -0.000168
vt 0.094410 0.000000
vt 0.094454 0.000177
vt -0.031990 0.000000
vt 0.976750 0.340910
vt 0.082905 0.341137
vt 0.067249 0.335899
vt -0.008212 0.338499
vt 0.023231 0.340910
vt -0.008212 0.335899
vt -0.008212 0.338499
vt 0.976750 0.344778
vt 0.976750 0.358362
vt 0.592969 0.358362
vt 0.023231 0.358362
vt 0.419246 0.358362
vt 0.023231 0.344778
vt 0.976750 0.160303
vt 0.023231 0.160303
vt 0.023231 0.120276
vt 0.023231 0.001699
vt 0.976750 0.001699
vt 0.976750 0.120276
vt 1.018056 0.470440
vt 1.018056 0.713783
vt 0.903427 0.465993
vt 0.928359 0.470440
vt 0.923627 0.470326
vt 0.901664 0.697996
vt 0.928359 0.713783
vt 0.922385 0.714054
vt 0.924361 0.714090
vt 1.018056 0.782656
vt 0.901714 0.730821
vt 0.928359 0.782656
vt 0.919760 0.755122
vt 1.018056 0.877535
vt 1.018056 0.877535
vt 0.928359 0.877535
vt 0.900233 0.873939
vt 0.928359 0.877535
vt 0.901339 0.876145
vt 1.018056 0.713783
vt 1.018056 0.723933
vt 0.928359 0.713783
vt 0.930831 0.724216
vt 0.926514 0.724241
vt 1.018056 0.338499
vt 1.018056 0.338499
vt 1.018056 0.336654
vt 0.936988 0.340219
vt 0.928359 0.338499
vt 0.928359 0.336654
vt 0.904781 0.336912
vt 0.928359 0.338499
vt 1.018056 0.338499
vt 0.903351 0.332409
vt 0.928359 0.338499
vt 0.932854 0.340652
vt 0.937587 0.345335
vt 0.928359 0.338499
vt 1.018056 0.345335
vt 1.018056 0.338499
vt 0.906102 0.165100
vt 0.901275 0.164469
vt 0.931716 0.147490
vt 0.931289 0.149683
vt 0.930146 0.150605
vt 0.928359 0.162084
vt 1.018056 0.149683
vt 1.018056 0.162084
vt 0.883457 0.120700
vt 0.910441 0.105009
vt 0.912882 0.104981
vt 0.911073 0.109393
vt 0.912050 0.104999
vt 1.041833 0.104981
vt 0.883480 -0.000478
vt 0.904581 0.000000
vt 0.912222 -0.001337
vt 1.041833 0.000000
vt 0.932895 0.336391
vt 0.928359 0.335899
vt 1.018056 0.338499
vt 1.018056 0.335899
vt 1.018056 0.338499
s 1
usemtl building_church_side_bottom1
f 2/2/1 152/181/2 157/186/3 156/185/4
f 93/93/5 92/92/6 95/95/7 94/94/8
f 5/5/9 8/8/10 11/11/11 7/7/12 3/3/12
f 7/7/12 11/11/11 13/13/13 14/14/14 15/15/15 16/16/16 17/17/17 12/12/18 9/9/12
f 9/9/12 12/12/18 10/10/19 6/6/20 4/4/12
f 11/11/11 8/8/10 18/18/21 20/20/22
f 12/12/18 17/17/17 26/26/23 21/21/24
f 15/15/15 14/14/14 23/23/25 24/24/26
f 10/10/19 12/12/18 21/21/24 19/19/27
f 8/8/10 10/10/19 19/19/27 18/18/21
f 16/16/16 15/15/15 24/24/26 25/25/28
f 13/13/13 11/11/11 20/20/22 22/22/29
f 17/17/17 16/16/16 25/25/28 26/26/23
f 14/14/14 13/13/13 22/22/29 23/23/25
f 32/32/30 34/34/31 40/40/32 41/41/33
f 30/30/34 31/31/35 33/33/36 32/32/30
f 32/32/30 33/33/36 35/35/37 34/34/31
f 34/34/31 35/35/37 37/37/38 36/36/39
f 36/36/39 37/37/38 39/39/40 38/38/41
f 30/30/34 32/32/30 41/41/33 27/27/42
f 36/36/39 38/38/41 28/28/43 29/29/44
f 34/34/31 36/36/39 29/29/44 40/40/32
f 33/33/36 31/31/35 42/42/45 43/43/46
f 39/39/40 37/37/38 45/45/47 46/46/48
f 35/35/37 33/33/36 43/43/46 44/44/49
f 37/37/38 35/35/37 44/44/49 45/45/47
f 46/46/48 45/45/47 50/50/50 51/51/51
f 44/44/49 43/43/46 48/48/52 49/49/53
f 45/45/47 44/44/49 49/49/53 50/50/50
f 43/43/46 42/42/45 47/47/54 48/48/52
f 51/51/51 50/50/50 55/55/55 56/56/56
f 49/49/53 48/48/52 53/53/57 54/54/58
f 50/50/50 49/49/53 54/54/58 55/55/55
f 48/48/52 47/47/54 52/52/59 53/53/57
f 53/53/57 52/52/59 57/57/60 58/58/61
f 56/56/56 55/55/55 60/60/62 61/61/63
f 54/54/58 53/53/57 58/58/61 59/59/64
f 55/55/55 54/54/58 59/59/64 60/60/62
f 67/67/65 76/76/66 75/75/67 69/69/68
f 65/65/69 67/67/65 68/68/70 66/66/71
f 67/67/65 69/69/68 70/70/72 68/68/70
f 69/69/68 71/71/73 72/72/74 70/70/72
f 71/71/73 73/73/75 74/74/76 72/72/74
f 65/65/69 62/62/77 76/76/66 67/67/65
f 71/71/73 64/64/78 63/63/79 73/73/75
f 69/69/68 75/75/67 64/64/78 71/71/73
f 68/68/70 78/78/80 77/77/81 66/66/71
f 74/74/76 81/81/82 80/80/83 72/72/74
f 70/70/72 79/79/84 78/78/80 68/68/70
f 72/72/74 80/80/83 79/79/84 70/70/72
f 81/81/82 86/86/85 85/85/86 80/80/83
f 79/79/84 84/84/87 83/83/88 78/78/80
f 80/80/83 85/85/86 84/84/87 79/79/84
f 78/78/80 83/83/88 82/82/89 77/77/81
f 86/86/85 91/91/90 90/90/91 85/85/86
f 84/84/87 89/89/92 88/88/93 83/83/88
f 85/85/86 90/90/91 89/89/92 84/84/87
f 83/83/88 88/88/93 87/87/94 82/82/89
f 88/88/93 58/58/61 57/57/60 87/87/94
f 91/91/90 61/61/63 60/60/62 90/90/91
f 89/89/92 59/59/64 58/58/61 88/88/93
f 90/90/91 60/60/62 59/59/64 89/89/92
f 94/94/8 95/95/7 99/99/95 98/98/96
f 98/98/96 99/99/95 97/97/97 96/96/98
f 96/96/98 97/97/97 92/92/6 93/93/5
f 99/99/95 95/95/7 92/92/6 97/97/97
f 101/101/5 100/100/6 103/103/7 102/102/8
f 102/102/8 103/103/7 107/107/95 106/106/96
f 106/106/96 107/107/95 105/105/97 104/104/98
f 104/104/98 105/105/97 100/100/6 101/101/5
f 107/107/95 103/103/7 100/100/6 105/105/97
f 112/117/1 113/119/99 111/113/100 110/111/1
f 114/121/101 116/123/102 120/129/103 117/125/104
f 113/118/99 109/109/105 108/108/106 111/114/100
f 113/119/99 112/117/1 115/122/1 116/124/102
f 124/135/107 145/174/108 123/134/109 127/144/109 142/171/108 130/151/109
f 118/126/108 117/125/104 120/129/103 119/127/110
f 116/124/102 115/122/1 119/128/110 120/130/103
f 121/131/111 122/133/112 116/123/102 114/121/101
f 113/119/99 116/124/102 122/132/112
f 109/110/105 113/120/99 122/133/112 121/131/111
f 111/115/100 108/108/106 124/136/107 125/138/113
f 110/112/1 111/116/100 125/139/113 126/142/114
f 128/145/114 129/147/114 141/169/4 132/154/115 131/152/116
f 126/143/114 125/140/113 129/149/114 128/146/114
f 123/134/109 126/143/114 128/146/114 127/144/109
f 125/141/113 124/137/107 130/150/109 129/148/114
f 129/149/114 130/151/109 144/173/12 141/170/4
f 135/160/117 136/163/118 139/167/12 138/165/4
f 132/156/115 133/157/119 136/163/118 135/160/117
f 131/153/116 132/155/115 135/161/117 134/158/120
f 134/159/120 135/162/117 138/166/4 137/164/1
f 151/180/121 146/175/122 147/176/123 148/177/124 150/179/124 149/178/125
f 141/170/4 144/173/12 133/157/119 132/156/115
f 6/6/20 10/10/19 148/177/124 147/176/123
f 143/172/126 140/168/127 146/175/122 151/180/121
f 5/5/9 143/172/126 151/180/121 149/178/125
f 10/10/19 8/8/10 150/179/124 148/177/124
f 140/168/127 6/6/20 147/176/123 146/175/122
f 8/8/10 5/5/9 149/178/125 150/179/124
f 155/184/128 156/185/4 157/186/3 154/183/129
f 153/182/130 152/181/2 140/168/127 143/172/126
f 153/182/130 1/1/131 155/184/128 154/183/129
f 152/181/2 153/182/130 154/183/129 157/186/3
f 162/192/131 160/189/131 161/191/132 163/194/133
f 164/196/101 167/200/104 170/204/134 166/198/135
f 163/193/133 161/190/132 158/187/106 159/188/105
f 163/194/133 166/199/135 165/197/131 162/192/131
f 174/212/107 180/226/109 191/247/108 177/219/109 173/211/109 193/249/108
f 168/201/108 169/202/136 170/204/134 167/200/104
f 166/199/135 170/205/134 169/203/136 165/197/131
f 171/206/111 164/196/101 166/198/135 172/208/137
f 163/194/133 172/209/137 166/199/135
f 159/188/105 171/207/111 172/210/137 163/195/133
f 161/190/132 175/215/138 174/212/107 158/187/106
f 160/189/131 176/217/139 175/214/138 161/191/132
f 178/220/139 181/227/140 182/229/141 190/245/128 179/222/142
f 176/218/139 178/221/139 179/224/142 175/215/138
f 173/211/109 177/219/109 178/221/139 176/218/139
f 175/216/138 179/223/142 180/225/109 174/213/107
f 179/224/142 190/246/128 192/248/12 180/226/109
f 185/236/143 188/242/128 189/244/12 186/240/144
f 182/230/141 185/237/143 186/240/144 183/233/145
f 181/228/140 184/235/146 185/238/143 182/231/141
f 184/235/146 187/241/131 188/243/128 185/239/143
f 190/246/128 182/232/141 183/234/145 192/248/12
usemtl WINDOW_building_church_side_bottom1
f 18/18/21 19/19/27 21/21/24 26/26/23 25/25/28 24/24/26 23/23/25 22/22/29 20/20/22
