# Blender 3.3.1
# www.blender.org
mtllib building_front4.mtl
o building_front4
v -1.604974 4.469748 0.000000
v 1.604974 4.469748 0.000000
v -1.604974 3.776408 0.000000
v 1.604974 3.776408 0.000000
v -0.857592 3.776408 0.000000
v -0.857592 1.310291 0.000000
v 0.899318 3.776408 0.000000
v 0.899318 1.310291 0.000000
v -0.857592 3.427592 0.000000
v 0.899318 3.427592 0.000000
v 0.899318 1.686286 -0.098720
v -0.857592 1.686286 -0.098720
v -0.857592 3.427592 -0.098720
v 0.899318 3.427592 -0.098720
v -1.604974 1.310291 0.037557
v -1.604974 0.001558 0.037557
v 1.604974 0.001558 0.037557
v 1.604974 1.310291 0.037557
v 1.604974 3.776408 0.037557
v -0.857592 3.776408 0.037557
v -1.604974 3.776408 0.037557
v -0.857592 1.310291 0.037557
v 0.899318 1.310291 0.037557
v -0.857592 3.427592 0.037557
v 0.899318 3.776408 0.037557
v 0.899318 3.427592 0.037557
v 0.899318 3.776408 -0.010157
v -0.857592 3.776408 -0.010157
v 0.899318 3.427592 -0.010157
v -0.857592 3.427592 -0.010157
v 1.604974 4.469748 0.020276
v 1.604974 5.000394 0.020276
v -1.604974 5.000394 0.020276
v -1.604974 4.469748 0.020276
v -0.857592 1.736616 -0.098720
v 0.899318 1.736616 -0.098720
v -0.857592 3.297254 -0.098720
v 0.899318 3.297253 -0.098720
v -0.753058 1.736616 -0.098720
v -0.753059 3.297254 -0.098720
v 0.767404 3.297253 -0.098720
v 0.767404 1.736616 -0.098720
vn -0.0000 -1.0000 -0.0000
vn -0.0000 -0.0000 1.0000
vn -0.0000 1.0000 -0.0000
vn 1.0000 -0.0000 -0.0000
vn -1.0000 -0.0000 -0.0000
vn -0.0000 0.2539 0.9672
vt 0.000000 0.893846
vt 1.000000 0.893846
vt 0.000000 0.755146
vt 1.000000 0.755146
vt 0.232833 0.755146
vt 0.232833 0.337687
vt 0.232833 0.261808
vt 0.166541 0.300432
vt 0.780166 0.755146
vt 0.806045 0.261384
vt 0.780166 0.337687
vt 0.797744 0.261808
vt 0.780166 0.261808
vt 0.232833 0.673510
vt 0.166541 0.712735
vt 0.232833 0.685366
vt 0.806045 0.689009
vt 0.780166 0.673510
vt 0.797744 0.685366
vt 0.780166 0.685366
vt 0.782934 0.337323
vt 0.780166 0.261808
vt 0.752383 0.339594
vt 0.200857 0.373650
vt 0.232833 0.261808
vt 0.247785 0.339595
vt 0.247785 0.669552
vt 0.200857 0.712735
vt 0.232833 0.685366
vt 0.752383 0.669552
vt 0.782934 0.689009
vt 0.780166 0.685366
vt 0.000000 0.261808
vt 0.000000 0.000000
vt 1.000000 0.000000
vt 1.000000 0.261808
vt 1.000000 0.755146
vt 0.232833 0.755146
vt 0.000000 0.755146
vt 0.232833 0.261808
vt 0.153486 0.300432
vt 0.780166 0.261808
vt 0.232833 0.685366
vt 0.153486 0.712735
vt 0.780166 0.755146
vt 0.780166 0.685366
vt 0.780166 0.755146
vt 0.232833 0.755146
vt 0.780166 0.685366
vt 0.232833 0.685366
vt 1.000000 0.893846
vt 1.000000 1.000000
vt 0.000000 1.000000
vt 0.000000 0.893846
vt 0.200857 0.383451
vt 0.247785 0.348912
vt 0.782934 0.347488
vt 0.752383 0.348912
vt 0.200857 0.687355
vt 0.247785 0.659364
vt 0.782934 0.662685
vt 0.752383 0.659364
vt 0.263986 0.348912
vt 0.263986 0.659364
vt 0.738159 0.659364
vt 0.738159 0.348912
s 0
usemtl building_front4
f 1/1/1 2/2/1 31/51/1 34/54/1
f 3/3/2 5/5/2 7/9/2 4/4/2 2/2/2 1/1/2
f 4/4/3 7/9/3 25/45/3 19/37/3
f 5/5/3 3/3/3 21/39/3 20/38/3
f 14/30/2 13/27/2 37/60/2 40/64/2 41/65/2 38/62/2
f 5/5/4 9/16/4 30/50/4 28/48/4
f 9/16/4 5/5/4 20/38/4 24/43/4
f 9/15/4 6/8/4 12/24/4 35/55/4 37/59/4 13/28/4
f 8/10/5 10/17/5 14/31/5 38/61/5 36/57/5 11/21/5
f 6/6/6 8/11/6 11/22/6 12/25/6
f 10/18/1 9/14/1 13/29/1 14/32/1
f 15/33/2 22/40/2 24/43/2 20/38/2 21/39/2
f 16/34/2 17/35/2 18/36/2 23/42/2 22/40/2 15/33/2
f 25/45/2 26/46/2 23/42/2 18/36/2 19/37/2
f 10/19/5 8/12/5 23/42/5 26/46/5
f 8/13/3 6/7/3 22/40/3 23/42/3
f 7/9/5 10/20/5 26/46/5 25/45/5
f 6/8/4 9/15/4 24/44/4 22/41/4
f 28/48/2 30/50/2 29/49/2 27/47/2
f 7/9/1 5/5/1 28/48/1 27/47/1
f 10/20/5 7/9/5 27/47/5 29/49/5
f 9/16/3 10/20/3 29/49/3 30/50/3
f 34/54/2 31/51/2 32/52/2 33/53/2
f 36/58/2 42/66/2 39/63/2 35/56/2 12/26/2 11/23/2
f 38/62/2 41/65/2 42/66/2 36/58/2
f 39/63/2 40/64/2 37/60/2 35/56/2
usemtl building_front4.GLASS
f 42/66/2 41/65/2 40/64/2 39/63/2
