# Blender 3.3.1
# www.blender.org
mtllib building_empty.mtl
o building_empty
v -2.497025 -1.465460 -0.000000
v 2.497025 -1.465460 -0.000000
v -2.497025 1.465460 0.000000
v 2.497025 1.465460 0.000000
v -2.497025 1.446910 0.000000
v 2.497025 1.446910 0.000000
v -2.472302 -1.465460 -0.000000
v -2.472302 1.465460 0.000000
v -2.472302 1.446910 0.000000
v 2.472302 -1.465460 -0.000000
v 2.472302 1.465460 0.000000
v 2.472302 1.446910 0.000000
v -2.497025 -1.440674 -0.000000
v 2.497025 -1.440674 -0.000000
v -2.472302 -1.440674 -0.000000
v 2.472302 -1.440674 -0.000000
v 0.000000 1.465460 0.000000
v 0.000000 1.446910 0.000000
v 0.000000 -1.465460 -0.000000
v 0.000000 -1.440674 -0.000000
v 0.043265 -1.465460 -0.000000
v 0.043265 1.465460 0.000000
v 0.043265 1.446910 0.000000
v 0.043265 -1.440674 -0.000000
v 2.497025 0.003118 0.000000
v -2.472302 0.003118 0.000000
v 2.472302 0.003118 0.000000
v -2.497025 0.003118 0.000000
v 0.000000 0.003118 0.000000
v 0.043265 0.003118 0.000000
v 2.497025 0.032948 0.000000
v -2.472302 0.032948 0.000000
v 2.472302 0.032948 0.000000
v 0.000000 0.032948 0.000000
v 0.043265 0.032948 0.000000
v -2.497025 0.032948 0.000000
v 0.000000 1.446910 -0.210892
v -2.472302 1.446910 -0.189359
v -2.472302 0.032948 -0.210892
v 2.472302 0.032948 -0.210892
v 2.472302 1.446910 -0.210892
v 0.000000 -1.440674 -0.210892
v -2.472302 -1.440674 -0.210892
v 0.000000 0.032948 -0.210892
v 0.043265 1.446910 -0.210892
v 2.472302 -1.440674 -0.210892
v 0.043265 -1.440674 -0.210892
v 0.043265 0.032948 -0.210892
v -2.472302 0.003118 -0.210892
v 2.472302 0.003118 -0.210892
v 0.000000 0.003118 -0.210892
v 0.043265 0.003118 -0.210892
v -2.472302 0.496143 -0.189359
v 0.000000 0.496152 -0.210892
v -2.350541 1.446910 -0.189359
v -2.350496 0.496143 -0.189359
v -1.306501 1.446910 -0.210892
v -1.306515 0.496147 -0.210892
v -2.350501 0.607123 -0.189359
v -1.306513 0.607135 -0.210892
v -2.350503 0.626951 -0.189359
v -1.306513 0.626958 -0.210892
v -2.316564 0.607123 -0.210892
v -2.316564 0.626951 -0.210892
v -2.316564 0.496143 -0.210892
v -2.316570 1.446910 -0.210892
v -1.988308 1.446910 -0.210892
v -1.988304 0.607127 -0.210892
v -1.988305 0.626953 -0.210892
v -1.988304 0.496144 -0.210892
v -2.316568 1.175054 -0.210892
v -1.988307 1.175045 -0.210892
v -2.316569 1.206519 -0.210892
v -1.988307 1.206509 -0.210892
v -1.959976 1.446910 -0.210892
v -1.959978 0.626953 -0.210892
v -1.962228 0.607127 -0.210892
v -1.962239 0.496145 -0.210892
v -1.615279 1.446910 -0.210892
v -1.615270 0.607132 -0.210892
v -1.615270 0.626956 -0.210892
v -1.615269 0.496146 -0.210892
v -1.591641 0.607132 -0.210892
v -1.591641 0.626956 -0.210892
v -1.591650 1.446910 -0.210892
v -1.591639 0.496146 -0.210892
v -1.306504 1.216166 -0.210892
v -1.591648 1.216151 -0.210892
v -1.591647 1.186097 -0.210892
v -1.306505 1.186110 -0.210892
v -1.615277 1.244781 -0.210892
v -1.959976 1.244773 -0.210892
v -1.959976 1.212883 -0.210892
v -1.615276 1.212888 -0.210892
v -1.160541 1.446910 -0.210892
v -1.160535 0.496148 -0.210892
v -0.128762 1.446910 -0.210892
v -0.128759 0.496152 -0.210892
v -1.160540 1.212218 -0.210892
v -0.128761 1.212234 -0.210892
v -1.160540 1.175770 -0.210892
v -0.128761 1.175778 -0.210892
v -1.160536 0.620607 -0.210892
v -0.128759 0.620618 -0.210892
v -0.128759 0.590982 -0.210892
v -1.160536 0.590981 -0.210892
v -0.807686 1.446910 -0.210892
v -0.807690 1.212223 -0.210892
v -0.817916 1.175772 -0.210892
v -0.807699 0.496149 -0.210892
v -0.817923 0.620611 -0.210892
v -0.807697 0.590981 -0.210892
v -0.771182 1.212224 -0.210892
v -0.771179 1.446910 -0.210892
v -0.781408 1.175773 -0.210892
v -0.771190 0.496149 -0.210892
v -0.781414 0.620611 -0.210892
v -0.771189 0.590981 -0.210892
v -0.425355 1.446910 -0.210892
v -0.425354 1.212229 -0.210892
v -0.440693 1.175775 -0.210892
v -0.425353 0.496150 -0.210892
v -0.440692 0.620615 -0.210892
v -0.425353 0.590982 -0.210892
v -0.453258 1.446910 -0.210892
v -0.453257 0.496150 -0.210892
v -0.468596 1.175775 -0.210892
v -0.453256 0.590982 -0.210892
v -0.453258 1.212229 -0.210892
v -0.468595 0.620614 -0.210892
v 2.472302 0.529169 -0.210892
v 0.043265 0.529169 -0.210892
v 0.216340 0.529169 -0.210892
v 0.216354 1.446910 -0.210892
v 1.212256 0.529169 -0.210892
v 1.212241 1.446910 -0.210892
v 1.382166 0.529169 -0.210892
v 1.382165 1.446910 -0.210892
v 2.287480 0.529169 -0.210892
v 2.287525 1.446910 -0.210892
v 0.216350 1.197342 -0.210892
v 1.212245 1.197342 -0.210892
v 0.216350 1.165095 -0.210892
v 1.212246 1.165095 -0.210892
v 1.212254 0.635701 -0.210892
v 0.216342 0.635701 -0.210892
v 1.212254 0.666708 -0.210892
v 0.216342 0.666708 -0.210892
v 0.540081 1.446910 -0.210892
v 0.540076 1.197342 -0.210892
v 0.581570 1.197342 -0.210892
v 0.581563 1.446910 -0.210892
v 0.520522 1.165095 -0.210892
v 0.520517 0.666708 -0.210892
v 0.555337 1.165095 -0.210892
v 0.555341 0.666708 -0.210892
v 0.894077 1.446910 -0.210892
v 0.894085 1.197342 -0.210892
v 0.931315 1.446910 -0.210892
v 0.931324 1.197342 -0.210892
v 0.949400 1.165095 -0.210892
v 0.949399 0.666708 -0.210892
v 0.913356 0.666708 -0.210892
v 0.913360 1.165095 -0.210892
v 0.532317 0.529169 -0.210892
v 0.532321 0.635701 -0.210892
v 0.555400 0.635701 -0.210892
v 0.555403 0.529169 -0.210892
v 0.922401 0.529169 -0.210892
v 0.922406 0.635701 -0.210892
v 0.950637 0.635701 -0.210892
v 0.950645 0.529169 -0.210892
v 1.382165 1.191548 -0.210892
v 2.287513 1.191548 -0.210892
v 1.382165 1.165708 -0.210892
v 2.287512 1.165708 -0.210892
v 1.655222 0.529169 -0.210892
v 1.655235 1.165708 -0.210892
v 1.684236 0.529169 -0.210892
v 1.684250 1.165708 -0.210892
v 1.965512 0.529169 -0.210892
v 1.965528 1.165708 -0.210892
v 1.991638 0.529169 -0.210892
v 1.991643 1.165708 -0.210892
v 1.668443 1.191548 -0.210892
v 1.668454 1.446910 -0.210892
v 1.695318 1.191548 -0.210892
v 1.695314 1.446910 -0.210892
v 1.995327 1.191548 -0.210892
v 1.995334 1.446910 -0.210892
v 1.955390 1.191548 -0.210892
v 1.955380 1.446910 -0.210892
v 1.991639 0.628600 -0.210892
v 1.382166 0.628599 -0.210892
v 1.655224 0.628599 -0.210892
v 1.684239 0.628599 -0.210892
v 2.287486 0.628600 -0.210892
v 1.965515 0.628600 -0.210892
v 1.991639 0.607383 -0.210892
v 1.965515 0.607383 -0.210892
v 2.287485 0.607384 -0.210892
v 1.655224 0.607383 -0.210892
v 1.684239 0.607383 -0.210892
v 1.382166 0.607383 -0.210892
v 1.181117 -0.303559 -0.220353
v 1.207275 -0.238292 -0.106495
v 1.181117 -0.115718 -0.220353
v 1.207275 -0.126157 -0.106495
v 1.310926 -0.303559 -0.220353
v 1.284767 -0.238292 -0.106495
v 1.310926 -0.115718 -0.220353
v 1.284767 -0.126157 -0.106495
v -1.302814 -0.320712 -0.220353
v -1.276655 -0.255445 -0.106495
v -1.302814 -0.132871 -0.220353
v -1.276655 -0.143309 -0.106495
v -1.173004 -0.320712 -0.220353
v -1.199163 -0.255445 -0.106495
v -1.173004 -0.132871 -0.220353
v -1.199163 -0.143309 -0.106495
v 0.043265 0.496105 -0.210892
v 2.472302 0.496122 -0.210892
v 0.000000 0.464243 -0.210892
v -2.472302 0.464228 -0.210892
v -2.293072 0.113863 -0.223109
v -2.293072 0.113863 -0.148849
v -2.293072 0.223525 -0.223109
v -2.293072 0.223525 -0.148849
v -2.218812 0.113863 -0.223109
v -2.218812 0.113863 -0.148849
v -2.218812 0.223525 -0.223109
v -2.218812 0.223525 -0.148849
v -2.403144 -1.324509 -0.223109
v -2.403144 -1.324509 -0.148849
v -2.403144 -1.214847 -0.223109
v -2.403144 -1.214847 -0.148849
v -2.246725 -1.324509 -0.223109
v -2.246725 -1.324509 -0.148849
v -2.246725 -1.214847 -0.223109
v -2.246725 -1.214847 -0.148849
v 2.472302 0.529169 -0.187007
v 2.472302 1.446910 -0.187007
v -0.000000 0.496152 -0.187007
v -0.000000 1.446910 -0.187007
v 0.216354 1.446910 -0.187007
v 0.043265 1.446910 -0.187007
v 0.043265 0.529169 -0.187007
v -0.128759 0.496152 -0.187007
v -1.160541 1.446910 -0.187007
v -1.306501 1.446910 -0.187007
v -1.306515 0.496147 -0.187007
v -1.160535 0.496148 -0.187007
v -0.128762 1.446910 -0.187007
v 2.287480 0.529169 -0.187007
v 0.216340 0.529169 -0.187007
v 1.382165 1.446910 -0.187007
v 1.212241 1.446910 -0.187007
v 1.212256 0.529169 -0.187007
v 1.382166 0.529169 -0.187007
v 2.287525 1.446910 -0.187007
vn -0.0000 -0.0000 1.0000
vn 1.0000 -0.0000 -0.0000
vn -0.0000 -1.0000 -0.0000
vn -1.0000 -0.0000 -0.0000
vn -0.0000 1.0000 -0.0000
vn 0.5356 -0.0000 0.8445
vn 0.5358 -0.0000 0.8444
vn 0.5357 -0.0000 0.8444
vn -0.9746 -0.0000 0.2239
vn -0.0000 0.9958 0.0913
vn 0.9746 -0.0000 0.2239
vn -0.0000 -0.8676 0.4973
vn 0.0044 -0.0378 0.9993
vn -1.0000 -0.0000 -0.0001
vn -1.0000 0.0001 -0.0000
vt 0.000000 0.000000
vt 1.000000 0.000000
vt 0.000000 1.000000
vt 1.000000 1.000000
vt 0.000000 0.993671
vt 1.000000 0.993671
vt 0.004951 0.000000
vt 0.004951 1.000000
vt 0.010279 0.993671
vt 0.004951 0.993657
vt 0.995049 0.000000
vt 0.995049 1.000000
vt 0.995049 0.993657
vt 0.995664 0.993671
vt 0.000000 0.008457
vt 1.000000 0.008457
vt 0.010279 0.008457
vt 0.004951 0.008457
vt 0.004951 -0.000695
vt 0.995049 0.008457
vt 0.995589 0.008457
vt 0.995049 -0.000695
vt 0.500000 1.000000
vt 0.500000 0.993657
vt 0.499311 0.975782
vt 0.500000 0.000000
vt 0.500000 0.008457
vt 0.508613 0.008457
vt 0.500000 -0.000695
vt 0.508663 0.000000
vt 0.508663 1.000000
vt 0.508663 0.993657
vt 0.512288 0.977331
vt 0.508663 0.008457
vt 0.508663 -0.000695
vt 0.501896 0.008457
vt 1.000000 0.501064
vt 0.010279 0.501064
vt 0.004951 0.501064
vt 0.004951 0.486089
vt 0.995049 0.486089
vt 0.995049 0.501064
vt 0.995589 0.501064
vt 0.000000 0.501064
vt 0.500000 0.501064
vt 0.508613 0.501064
vt 0.500000 0.486089
vt 0.508663 0.486089
vt 0.508663 0.501064
vt 0.501896 0.501064
vt 1.000000 0.511242
vt 0.010279 0.511242
vt 0.004951 0.511242
vt 0.004951 0.501674
vt 0.995049 0.511242
vt 0.995049 0.501674
vt 0.995664 0.511242
vt 0.500000 0.511242
vt 0.500000 0.501674
vt 0.499311 0.671759
vt 0.508663 0.511242
vt 0.508663 0.501674
vt 0.512288 0.678059
vt 0.000000 0.511242
vt 0.492249 0.975782
vt 0.500000 0.993671
vt 0.500000 1.007801
vt 0.002625 0.993671
vt 0.004951 1.007801
vt 0.017533 0.973910
vt 0.002625 0.511242
vt 0.017533 0.514569
vt 0.004951 0.514985
vt 0.995049 0.514985
vt 1.001817 0.511242
vt 1.001817 0.993671
vt 0.995049 1.007801
vt 0.498291 0.008457
vt 0.500000 0.008457
vt 0.002625 0.008457
vt 0.017158 0.008457
vt 0.004951 0.008457
vt 0.496095 0.514569
vt 0.500000 0.514985
vt 0.492249 0.671759
vt 0.521338 0.976676
vt 0.508663 1.007801
vt 0.508663 0.993671
vt 1.000475 0.008457
vt 0.995049 0.008457
vt 0.514200 0.008457
vt 0.508663 0.008457
vt 0.515431 0.514985
vt 0.508663 0.514985
vt 0.521338 0.678713
vt 0.002625 0.501064
vt 0.017158 0.482575
vt 0.004951 0.501064
vt 0.995049 0.501064
vt 0.995049 0.482575
vt 1.000475 0.501064
vt 0.498291 0.482575
vt 0.500000 0.501064
vt 0.514200 0.482575
vt 0.508663 0.501064
vt 0.002625 0.669279
vt 0.017533 0.679793
vt 0.492249 0.771355
vt 0.500000 0.669282
vt 0.496095 0.679796
vt 0.029332 1.007801
vt 0.045105 0.973910
vt 0.045113 0.679793
vt 0.244302 0.973910
vt 0.237221 1.007801
vt 0.269525 0.973910
vt 0.269523 0.679794
vt 0.244300 0.679794
vt 0.045112 0.715849
vt 0.244300 0.715853
vt 0.269523 0.715853
vt 0.045112 0.729033
vt 0.244300 0.729035
vt 0.269523 0.729035
vt 0.051587 0.715849
vt 0.051587 0.729033
vt 0.051587 0.679793
vt 0.036096 1.007801
vt 0.051586 0.973910
vt 0.101459 1.007801
vt 0.114217 0.973910
vt 0.114218 0.715851
vt 0.114217 0.729033
vt 0.114218 0.679794
vt 0.051586 0.902599
vt 0.114217 0.902596
vt 0.051586 0.912562
vt 0.114217 0.912559
vt 0.107101 1.007801
vt 0.119622 0.973910
vt 0.119622 0.729034
vt 0.119193 0.715851
vt 0.119191 0.679794
vt 0.175737 1.007801
vt 0.185389 0.973910
vt 0.185391 0.715852
vt 0.185391 0.729034
vt 0.185391 0.679794
vt 0.189899 0.715852
vt 0.189899 0.729034
vt 0.180442 1.007801
vt 0.189897 0.973910
vt 0.189899 0.679794
vt 0.244302 0.915617
vt 0.269525 0.915617
vt 0.189898 0.915613
vt 0.189898 0.906096
vt 0.244301 0.906100
vt 0.269524 0.906100
vt 0.185389 0.924679
vt 0.119622 0.924676
vt 0.119622 0.914578
vt 0.185389 0.914579
vt 0.272432 0.973910
vt 0.253976 0.973910
vt 0.266578 1.007801
vt 0.272433 0.679795
vt 0.253977 0.679795
vt 0.468972 0.973910
vt 0.481885 1.007801
vt 0.492409 0.973910
vt 0.468972 0.679796
vt 0.492410 0.679796
vt 0.478738 0.679796
vt 0.253976 0.912437
vt 0.272432 0.912437
vt 0.468972 0.912443
vt 0.492409 0.912443
vt 0.478738 0.912443
vt 0.253976 0.900596
vt 0.272432 0.900596
vt 0.492409 0.900599
vt 0.468972 0.900599
vt 0.478738 0.900599
vt 0.253977 0.720230
vt 0.272433 0.720230
vt 0.492410 0.720234
vt 0.468972 0.720234
vt 0.478738 0.720234
vt 0.468972 0.717261
vt 0.478738 0.710605
vt 0.492410 0.717261
vt 0.272433 0.710605
vt 0.253977 0.710605
vt 0.337548 1.007801
vt 0.340435 0.973910
vt 0.340435 0.912439
vt 0.336559 0.900597
vt 0.340433 0.679795
vt 0.336558 0.720231
vt 0.340433 0.720231
vt 0.340433 0.710605
vt 0.347470 0.912439
vt 0.344891 1.007801
vt 0.347471 0.973910
vt 0.343595 0.900597
vt 0.347469 0.679795
vt 0.343594 0.720231
vt 0.347469 0.720231
vt 0.347469 0.710605
vt 0.414448 1.007801
vt 0.409236 0.973910
vt 0.414119 0.973910
vt 0.409236 0.912441
vt 0.414119 0.912441
vt 0.410244 0.900598
vt 0.410213 0.679796
vt 0.414120 0.679796
vt 0.410244 0.720232
vt 0.414120 0.720232
vt 0.410213 0.717261
vt 0.414120 0.710605
vt 0.408835 1.007801
vt 0.408742 0.973910
vt 0.408742 0.679795
vt 0.404866 0.900598
vt 0.408742 0.710605
vt 0.408742 0.912441
vt 0.404866 0.720232
vt 0.408742 0.720232
vt 1.001817 0.667375
vt 0.995049 0.679854
vt 0.521338 0.775146
vt 0.515431 0.679854
vt 0.508663 0.667375
vt 0.546511 0.680551
vt 0.529909 0.679854
vt 0.523562 0.680551
vt 0.523564 0.972439
vt 0.546514 0.972439
vt 0.529911 1.007801
vt 0.737261 0.680551
vt 0.742740 0.679854
vt 0.742737 1.007801
vt 0.737259 0.972439
vt 0.768336 0.685351
vt 0.776762 0.679854
vt 0.776762 1.007801
vt 0.768336 0.976149
vt 0.961721 0.685351
vt 0.958041 0.679854
vt 0.989065 0.685351
vt 0.989074 0.976149
vt 0.961731 0.976149
vt 0.958050 1.007801
vt 0.523564 0.907039
vt 0.546513 0.907039
vt 0.737259 0.907039
vt 0.546513 0.896706
vt 0.523564 0.896706
vt 0.737260 0.896706
vt 0.737261 0.727061
vt 0.523562 0.727061
vt 0.546512 0.727061
vt 0.737261 0.736997
vt 0.546512 0.736997
vt 0.523562 0.736997
vt 0.599093 1.007801
vt 0.607118 0.972439
vt 0.607117 0.907039
vt 0.614885 0.907039
vt 0.607958 1.007801
vt 0.614884 0.972439
vt 0.603457 0.896706
vt 0.603456 0.736997
vt 0.609974 0.896706
vt 0.609975 0.736997
vt 0.674744 1.007801
vt 0.673389 0.972439
vt 0.673391 0.907039
vt 0.682702 1.007801
vt 0.680361 0.972439
vt 0.680362 0.907039
vt 0.683746 0.896706
vt 0.683746 0.736997
vt 0.676999 0.736997
vt 0.676999 0.896706
vt 0.605665 0.680551
vt 0.597434 0.679854
vt 0.605665 0.727061
vt 0.609986 0.727061
vt 0.609987 0.680551
vt 0.602368 0.679854
vt 0.678692 0.680551
vt 0.680797 0.679854
vt 0.678693 0.727061
vt 0.683978 0.727061
vt 0.683979 0.680551
vt 0.686833 0.679854
vt 0.768336 0.909144
vt 0.989072 0.909144
vt 0.961728 0.909144
vt 0.768336 0.900895
vt 0.961728 0.900894
vt 0.989071 0.900894
vt 0.826664 0.685351
vt 0.831439 0.679854
vt 0.826667 0.900895
vt 0.832862 0.685351
vt 0.837249 0.679854
vt 0.832865 0.900895
vt 0.894971 0.685351
vt 0.906368 0.679854
vt 0.894974 0.900894
vt 0.900551 0.685351
vt 0.911599 0.679854
vt 0.900553 0.900894
vt 0.829488 0.909144
vt 0.834088 1.007801
vt 0.829490 0.976149
vt 0.835229 0.909144
vt 0.839467 1.007801
vt 0.835228 0.976149
vt 0.901339 0.909144
vt 0.912340 1.007801
vt 0.901341 0.976149
vt 0.892809 0.909144
vt 0.904339 1.007801
vt 0.892806 0.976149
vt 0.900552 0.729420
vt 0.768336 0.729420
vt 0.826665 0.729420
vt 0.832862 0.729420
vt 0.961722 0.729420
vt 0.989066 0.729420
vt 0.894971 0.729420
vt 0.900552 0.722646
vt 0.894971 0.722646
vt 0.961722 0.722647
vt 0.989066 0.722647
vt 0.826664 0.722646
vt 0.832862 0.722646
vt 0.768336 0.722646
vt 0.742016 0.379342
vt 0.747762 0.397473
vt 0.742016 0.443991
vt 0.747762 0.440768
vt 0.764895 0.379342
vt 0.759148 0.397473
vt 0.764895 0.443991
vt 0.759148 0.440768
vt 0.246309 0.380102
vt 0.248872 0.396824
vt 0.246309 0.438333
vt 0.248872 0.436112
vt 0.269484 0.380102
vt 0.260575 0.396824
vt 0.269484 0.438333
vt 0.260575 0.436112
vt 0.515431 0.666372
vt 0.521338 0.768720
vt 0.515431 0.669700
vt 0.995049 0.666377
vt 1.001817 0.656977
vt 0.995049 0.669705
vt 0.492249 0.764494
vt 0.496095 0.669675
vt 0.002625 0.658390
vt 0.017533 0.669670
vt 0.056300 0.543360
vt 0.053465 0.552821
vt 0.056166 0.570721
vt 0.053323 0.581437
vt 0.067158 0.543490
vt 0.064820 0.552956
vt 0.067033 0.570851
vt 0.064689 0.581572
vt 0.036553 0.042402
vt 0.029539 0.046559
vt 0.036278 0.076350
vt 0.029239 0.082560
vt 0.059332 0.042740
vt 0.054024 0.046917
vt 0.059089 0.076689
vt 0.053760 0.082919
vt 0.995049 0.667375
vt 1.001817 0.667375
vt 0.995049 0.679854
vt 0.995049 0.978153
vt 1.001817 0.993671
vt 0.995049 1.007801
vt 0.500000 0.669282
vt 0.496095 0.679796
vt 0.496095 0.973910
vt 0.500000 0.993671
vt 0.500000 1.007801
vt 0.546513 0.907039
vt 0.546514 0.972439
vt 0.529911 1.007801
vt 0.546513 0.896706
vt 0.517833 0.972439
vt 0.508663 1.007801
vt 0.508663 0.993671
vt 0.517833 0.680551
vt 0.515431 0.679854
vt 0.508663 0.667375
vt 0.468972 0.720234
vt 0.478738 0.720234
vt 0.468972 0.717261
vt 0.478738 0.679796
vt 0.272432 0.973910
vt 0.272432 0.912437
vt 0.272432 0.900596
vt 0.266578 1.007801
vt 0.244300 0.729035
vt 0.244302 0.915617
vt 0.244301 0.906100
vt 0.237221 1.007801
vt 0.244302 0.973910
vt 0.244300 0.715853
vt 0.244300 0.679794
vt 0.272433 0.720230
vt 0.272433 0.710605
vt 0.272433 0.679795
vt 0.468972 0.900599
vt 0.478738 0.900599
vt 0.481885 1.007801
vt 0.468972 0.973910
vt 0.478738 0.912443
vt 0.958041 0.667375
vt 0.958041 0.679854
vt 0.961722 0.722647
vt 0.961722 0.729420
vt 0.529909 0.679854
vt 0.546511 0.680551
vt 0.546512 0.727061
vt 0.546512 0.736997
vt 0.769380 0.978153
vt 0.776762 1.007801
vt 0.768336 0.909144
vt 0.768336 0.900895
vt 0.742738 0.897519
vt 0.737259 0.907039
vt 0.737260 0.896706
vt 0.742737 1.007801
vt 0.737259 0.972439
vt 0.742740 0.667375
vt 0.737261 0.727061
vt 0.742740 0.679854
vt 0.737261 0.736997
vt 0.769380 0.714471
vt 0.768336 0.685351
vt 0.776762 0.679854
vt 0.768336 0.729420
vt 0.768336 0.722646
vt 0.961731 0.976149
vt 0.958047 0.897728
vt 0.961728 0.909144
vt 0.958050 1.007801
vt 0.961728 0.900894
s 0
usemtl building_empty
f 12/13/1 6/6/1 4/4/1 11/12/1
f 33/55/1 31/51/1 6/6/1 12/13/1
f 36/64/1 32/53/1 9/10/1 5/5/1
f 5/5/1 9/10/1 8/8/1 3/3/1
f 9/9/2 32/52/2 39/71/2 224/368/2 53/106/2 38/68/2
f 23/32/1 12/13/1 11/12/1 22/31/1
f 21/30/1 10/11/1 16/20/1 24/34/1
f 1/1/1 7/7/1 15/18/1 13/15/1
f 10/11/1 2/2/1 14/16/1 16/20/1
f 7/7/1 19/26/1 20/27/1 15/18/1
f 9/10/1 18/24/1 17/23/1 8/8/1
f 26/38/2 15/17/2 43/80/2 49/96/2
f 19/26/1 21/30/1 24/34/1 20/27/1
f 18/24/1 23/32/1 22/31/1 17/23/1
f 34/58/1 35/61/1 23/32/1 18/24/1
f 20/27/1 24/34/1 30/49/1 29/45/1
f 18/24/3 9/10/3 38/69/3 55/111/3 66/128/3 67/130/3 75/139/3 79/144/3 85/151/3 57/115/3 95/166/3 107/195/3 114/204/3 125/223/3 119/211/3 97/170/3 37/67/3
f 27/41/3 30/48/3 52/105/3 50/99/3
f 13/15/1 15/18/1 26/39/1 28/44/1
f 16/20/1 14/16/1 25/37/1 27/42/1
f 29/45/1 30/49/1 35/61/1 34/58/1
f 26/39/1 29/45/1 34/58/1 32/53/1
f 30/49/1 27/42/1 33/55/1 35/61/1
f 28/44/1 26/39/1 32/53/1 36/64/1
f 27/42/1 25/37/1 31/51/1 33/55/1
f 48/93/1 40/74/1 222/363/1 221/360/1
f 39/72/1 44/83/1 223/367/1 224/369/1
f 43/81/1 42/78/1 51/102/1 49/97/1
f 47/91/1 46/90/1 50/100/1 52/104/1
f 16/21/4 27/43/4 50/101/4 46/89/4
f 12/13/3 23/32/3 45/87/3 134/241/3 149/268/3 152/272/3 157/278/3 159/281/3 136/244/3 138/248/3 186/319/3 188/322/3 192/328/3 190/325/3 140/255/3 41/77/3
f 32/54/5 34/59/5 44/84/5 39/73/5
f 24/35/5 16/22/5 46/90/5 47/92/5
f 20/28/4 29/46/4 51/103/4 42/79/4
f 35/62/5 33/56/5 40/74/5 48/94/5
f 30/50/2 24/36/2 47/92/2 52/105/2
f 15/19/5 20/29/5 42/79/5 43/82/5
f 23/33/2 35/63/2 48/95/2 221/361/2 132/233/2 45/86/2
f 33/57/4 12/14/4 41/76/4 131/231/4 222/364/4 40/75/4
f 34/60/4 18/25/4 37/65/4 54/108/4 223/366/4 44/85/4
f 29/47/3 26/40/3 49/98/3 51/103/3
f 53/107/1 56/113/1 59/119/1 61/122/1 55/112/1 38/70/1
f 55/112/6 61/122/6 64/126/6 71/135/6 73/137/6 66/129/6
f 60/121/4 58/117/4 251/420/4
f 62/123/1 84/150/1 83/149/1 60/120/1
f 65/127/7 63/125/7 59/119/7 56/113/7
f 63/125/8 64/126/8 61/122/8 59/119/8
f 67/131/1 74/138/1 72/136/1 69/133/1 76/141/1 93/162/1 92/161/1 75/140/1
f 68/132/1 69/133/1 64/126/1 63/125/1
f 74/138/1 73/137/1 71/135/1 72/136/1
f 78/143/1 77/142/1 68/132/1 70/134/1
f 79/145/1 91/160/1 94/163/1 81/147/1 84/150/1 89/157/1 88/156/1 85/152/1
f 80/146/1 81/147/1 76/141/1 69/133/1 68/132/1 77/142/1
f 86/153/1 83/149/1 80/146/1 82/148/1
f 83/149/1 84/150/1 81/147/1 80/146/1
f 87/154/1 88/156/1 89/157/1 90/158/1
f 91/160/1 92/161/1 93/162/1 94/163/1
f 102/182/4 104/187/4 248/407/4 253/425/4
f 100/179/1 120/215/1 121/216/1 102/184/1
f 104/189/1 123/220/1 124/222/1 105/191/1
f 109/198/1 108/197/1 99/176/1 101/181/1
f 107/196/1 108/197/1 113/203/1 114/205/1
f 112/202/1 111/201/1 103/186/1 106/193/1
f 116/207/1 118/210/1 112/202/1 110/199/1
f 115/206/1 113/203/1 108/197/1 109/198/1
f 117/208/1 115/206/1 109/198/1 111/200/1
f 118/210/1 117/209/1 111/201/1 112/202/1
f 122/218/1 124/222/1 128/227/1 126/225/1
f 121/216/1 120/215/1 129/228/1 127/226/1
f 123/219/1 121/216/1 127/226/1 130/229/1
f 124/222/1 123/220/1 130/230/1 128/227/1
f 125/224/1 129/228/1 120/215/1 119/213/1
f 128/227/1 130/230/1 117/209/1 118/210/1
f 127/226/1 129/228/1 113/203/1 115/206/1
f 141/256/2 134/239/2 245/397/2
f 103/185/2 101/180/2 249/413/2 252/422/2
f 140/253/4 174/301/4 260/456/4
f 142/258/1 160/283/1 158/280/1 151/271/1 150/270/1 141/257/1 143/259/1 153/274/1 155/276/1 164/287/1 161/284/1 144/261/1
f 147/265/1 162/285/1 163/286/1 156/277/1 154/275/1 148/266/1 146/264/1 166/290/1 167/291/1 170/296/1 171/297/1 145/262/1
f 149/269/1 150/270/1 151/271/1 152/273/1
f 156/277/1 155/276/1 153/274/1 154/275/1
f 157/279/1 158/280/1 160/283/1 159/282/1
f 162/285/1 161/284/1 164/287/1 163/286/1
f 168/292/1 167/291/1 166/290/1 165/288/1
f 172/298/1 171/297/1 170/296/1 169/294/1
f 174/302/1 189/324/1 191/327/1 187/321/1 185/318/1 173/300/1 175/303/1 178/308/1 180/311/1 182/314/1 184/317/1 176/304/1
f 179/309/1 203/342/1 202/341/1 177/306/1
f 183/315/1 199/337/1 200/338/1 181/312/1
f 186/320/1 185/318/1 187/321/1 188/323/1
f 192/329/1 191/327/1 189/324/1 190/326/1
f 195/332/1 196/333/1 180/311/1 178/308/1
f 197/334/1 193/330/1 199/337/1 201/339/1
f 198/336/1 193/330/1 184/317/1 182/314/1
f 202/341/1 203/342/1 196/333/1 195/332/1
f 203/342/1 200/338/1 198/336/1 196/333/1
f 200/338/1 199/337/1 193/330/1 198/336/1
f 204/343/1 202/341/1 195/332/1 194/331/1
f 205/344/9 206/345/9 208/347/9 207/346/9
f 207/346/10 208/347/10 212/351/10 211/350/10
f 211/350/11 212/351/11 210/349/11 209/348/11
f 209/348/12 210/349/12 206/345/12 205/344/12
f 213/352/9 214/353/9 216/355/9 215/354/9
f 212/351/1 208/347/1 206/345/1 210/349/1
f 215/354/10 216/355/10 220/359/10 219/358/10
f 219/358/11 220/359/11 218/357/11 217/356/11
f 217/356/12 218/357/12 214/353/12 213/352/12
f 220/359/1 216/355/1 214/353/1 218/357/1
f 221/362/1 222/365/1 131/232/1 139/251/1 183/316/1 181/313/1 179/310/1 177/307/1 137/247/1 135/243/1 172/299/1 169/295/1 168/293/1 165/289/1 133/237/1 132/234/1
f 224/369/13 223/367/13 54/110/13 98/174/13 122/218/13 126/225/13 116/207/13 110/199/13 96/167/13 58/118/13 86/153/13 82/148/13 78/143/13 70/134/13 65/127/13 56/113/13 53/107/13
f 225/370/4 226/371/4 228/373/4 227/372/4
f 227/372/5 228/373/5 232/377/5 231/376/5
f 231/376/2 232/377/2 230/375/2 229/374/2
f 229/374/3 230/375/3 226/371/3 225/370/3
f 233/378/4 234/379/4 236/381/4 235/380/4
f 232/377/1 228/373/1 226/371/1 230/375/1
f 235/380/5 236/381/5 240/385/5 239/384/5
f 239/384/2 240/385/2 238/383/2 237/382/2
f 237/382/3 238/383/3 234/379/3 233/378/3
f 240/385/1 236/381/1 234/379/1 238/383/1
f 250/415/1 251/421/1 252/422/1 249/411/1
f 253/426/1 248/410/1 243/393/1 244/394/1
f 247/404/1 255/437/1 245/398/1 246/401/1
f 257/442/1 258/447/1 259/451/1 256/438/1
f 260/457/1 254/430/1 241/386/1 242/389/1
f 137/246/2 204/343/2 259/452/2
f 131/231/2 41/76/2 242/390/2 241/387/2
f 139/251/3 131/232/3 241/388/3 254/431/3
f 142/258/4 144/261/4 257/443/4
f 132/234/3 133/237/3 255/434/3 247/405/3
f 197/334/14 201/339/14 254/433/14
f 106/193/2 103/186/2 252/423/2
f 54/109/2 37/66/2 244/395/2 243/392/2
f 143/259/2 141/257/2 245/400/2
f 104/189/4 105/191/4 248/408/4
f 62/124/4 60/121/4 251/420/4 250/415/4
f 134/241/5 45/87/5 246/402/5 245/399/5
f 133/238/2 146/263/2 255/435/2
f 144/261/4 147/265/4 258/450/4 257/444/4
f 58/118/3 96/167/3 252/424/3 251/421/3
f 87/154/4 90/158/4 250/416/4
f 105/192/4 98/173/4 248/409/4
f 45/88/4 132/235/4 247/406/4 246/403/4
f 138/248/5 136/244/5 257/445/5 256/439/5
f 99/175/2 95/165/2 249/412/2
f 98/174/3 54/110/3 243/393/3 248/410/3
f 145/262/4 135/242/4 258/448/4
f 96/168/2 106/194/2 252/424/2
f 136/245/4 142/258/4 257/446/4
f 37/67/5 97/170/5 253/427/5 244/396/5
f 146/264/2 148/266/2 255/436/2
f 135/243/3 137/247/3 259/453/3 258/449/3
f 175/303/2 173/300/2 256/441/2
f 97/171/4 100/178/4 253/428/4
f 174/302/4 176/304/4 260/458/4
f 90/159/4 62/124/4 250/417/4
f 147/265/4 145/262/4 258/450/4
f 173/300/2 138/249/2 256/440/2
f 101/181/2 99/176/2 249/413/2
f 95/166/5 57/115/5 250/418/5 249/414/5
f 148/267/2 143/260/2 245/400/2 255/437/2
f 100/179/4 102/184/4 253/429/4
f 201/340/15 139/252/15 254/432/15
f 194/331/2 175/303/2 256/441/2 259/454/2
f 41/77/5 140/255/5 260/459/5 242/391/5
f 57/116/4 87/155/4 250/419/4
f 176/305/4 197/335/4 254/433/4 260/460/4
f 204/343/2 194/331/2 259/455/2
usemtl building_empty_GLASS
f 60/120/1 83/149/1 86/153/1 58/118/1
f 66/129/1 73/137/1 74/138/1 67/131/1
f 70/134/1 68/132/1 63/125/1 65/127/1
f 72/136/1 71/135/1 64/126/1 69/133/1
f 75/140/1 92/161/1 91/160/1 79/145/1
f 82/148/1 80/146/1 77/142/1 78/143/1
f 85/152/1 88/156/1 87/154/1 57/114/1
f 90/158/1 89/157/1 84/150/1 62/123/1
f 94/163/1 93/162/1 76/141/1 81/147/1
f 95/164/1 99/176/1 108/197/1 107/196/1
f 102/183/1 121/216/1 123/219/1 104/188/1
f 105/190/1 124/221/1 122/217/1 98/172/1
f 110/199/1 112/202/1 106/193/1 96/167/1
f 111/200/1 109/198/1 101/181/1 103/186/1
f 114/205/1 113/203/1 129/228/1 125/224/1
f 119/212/1 120/214/1 100/177/1 97/169/1
f 130/229/1 127/226/1 115/206/1 117/208/1
f 126/225/1 128/227/1 118/210/1 116/207/1
f 134/240/1 141/257/1 150/270/1 149/269/1
f 138/249/1 173/300/1 185/318/1 186/320/1
f 144/261/1 161/284/1 162/285/1 147/265/1
f 145/262/1 171/297/1 172/298/1 135/242/1
f 152/273/1 151/271/1 158/280/1 157/279/1
f 154/275/1 153/274/1 143/259/1 148/266/1
f 159/282/1 160/283/1 142/258/1 136/245/1
f 163/286/1 164/287/1 155/276/1 156/277/1
f 165/288/1 166/290/1 146/264/1 133/236/1
f 169/294/1 170/296/1 167/291/1 168/292/1
f 176/304/1 184/317/1 193/330/1 197/334/1
f 177/306/1 202/341/1 204/343/1 137/246/1
f 181/312/1 200/338/1 203/342/1 179/309/1
f 188/323/1 187/321/1 191/327/1 192/329/1
f 190/326/1 189/324/1 174/302/1 140/254/1
f 196/333/1 198/336/1 182/314/1 180/311/1
f 194/331/1 195/332/1 178/308/1 175/303/1
f 201/339/1 199/337/1 183/315/1 139/250/1
