# Blender 3.3.1
# www.blender.org
mtllib building_garage.mtl
o building_garage
v -2.499911 0.002481 0.000000
v 2.499911 0.002481 0.000000
v -2.499911 1.826007 0.000000
v 2.499911 1.826007 0.000000
v -0.510502 0.002481 0.000000
v 0.032798 0.002481 0.000000
v 0.032798 1.826007 0.000000
v 0.880948 0.002481 0.000000
v 0.880948 1.826007 0.000000
v 2.260118 0.002481 0.000000
v 2.260118 1.826007 0.000000
v 0.450166 1.826007 0.000000
v 0.450166 0.002481 0.000000
v 0.032798 0.973430 0.000000
v 0.450166 0.973430 0.000000
v 0.076404 0.002481 0.000000
v 0.076404 0.973430 0.000000
v -2.499911 1.416237 0.000000
v -0.510502 0.548997 0.000000
v -2.499911 0.548997 0.000000
v -1.255265 0.548997 0.000000
v -1.255265 1.416237 0.000000
v -0.510502 1.826007 -0.051245
v -2.499911 1.826007 -0.051245
v -0.510502 1.416237 -0.051245
v -2.499911 1.416237 -0.051245
v -2.263933 1.416237 -0.051245
v -1.594349 0.548997 -0.051245
v -2.263933 0.548997 -0.051245
v -1.594349 1.416237 -0.051245
v -1.255265 1.416237 -0.051245
v -0.568512 0.548997 -0.051245
v -1.255265 0.548997 -0.051245
v -0.568512 1.416237 -0.051245
v -0.544652 0.548997 0.000000
v -0.568512 0.548997 -0.023860
v -0.592372 0.548997 0.000000
v -0.568512 1.416237 -0.023860
v -0.544652 1.416237 0.000000
v -2.263933 0.548997 -0.023470
v -2.287402 0.548997 0.000000
v -2.240463 0.548997 0.000000
v -2.287402 1.416237 0.000000
v -2.263933 1.416237 -0.023469
v -1.594349 1.416237 -0.023469
v -1.570880 1.416237 0.000000
v -1.570880 0.548997 0.000000
v -1.594349 0.548997 -0.023470
v -1.617819 0.548997 0.000000
v 0.842137 1.595395 0.000000
v 2.292906 1.595395 0.000000
v 2.260118 1.558136 0.000000
v 0.880948 1.558136 0.000000
v 0.842137 1.790630 0.000000
v 2.292906 1.790630 0.000000
v 0.880948 0.002481 -0.023287
v 2.260118 0.002481 -0.023287
v 0.842137 1.595395 -0.023287
v 2.292906 1.595395 -0.023287
v 2.260118 1.558136 -0.023287
v 0.880948 1.558136 -0.023287
v 0.842137 1.790630 -0.023287
v 2.292906 1.790630 -0.023287
v 0.076404 0.002481 -0.020639
v 0.450166 0.002481 -0.020639
v 0.450166 0.973430 -0.020639
v 0.076404 0.973430 -0.020639
v -0.169714 1.595906 -0.002260
v -0.169714 1.595906 0.058171
v -0.209331 1.520382 -0.002260
v -0.209331 1.520382 0.058171
v -0.288565 1.520382 -0.002260
v -0.288565 1.520382 0.058171
v -0.328182 1.595906 -0.002260
v -0.328182 1.595906 0.058171
v -0.288565 1.671430 -0.002260
v -0.288565 1.671430 0.058171
v -0.209331 1.671430 -0.002260
v -0.209331 1.671430 0.058171
v 0.057082 1.731862 0.015155
v 0.051207 1.735180 0.016589
v 0.043986 1.724589 0.016589
v 0.043986 0.034057 0.016589
v 0.050733 1.724589 0.015155
v 0.050733 0.034057 0.015155
v 0.056314 1.724589 0.011100
v 0.056314 0.034057 0.011100
v 0.059763 1.724589 0.005126
v 0.059763 0.034057 0.005126
v 0.060484 1.724589 -0.001734
v 0.060484 0.034057 -0.001734
v 0.058353 1.724589 -0.008294
v 0.058353 0.034057 -0.008295
v 0.053737 1.724589 -0.013421
v 0.053737 0.034057 -0.013421
v 0.047435 1.724589 -0.016226
v 0.047435 0.034057 -0.016226
v 0.040537 1.724589 -0.016226
v 0.040537 0.034057 -0.016226
v 0.034235 1.724589 -0.013421
v 0.034235 0.034057 -0.013421
v 0.029620 1.724589 -0.008294
v 0.029620 0.034057 -0.008295
v 0.027488 1.724589 -0.001734
v 0.027488 0.034057 -0.001734
v 0.028209 1.724589 0.005126
v 0.028209 0.034057 0.005126
v 0.031658 1.724589 0.011100
v 0.031658 0.034057 0.011100
v 0.037239 1.724589 0.015155
v 0.037239 0.034057 0.015155
v 0.061941 1.729118 0.011100
v 0.064945 1.727422 0.005126
v 0.065572 1.727067 -0.001734
v 0.063716 1.728116 -0.008294
v 0.059697 1.730385 -0.013421
v 0.054210 1.733484 -0.016226
v 0.048204 1.736876 -0.016226
v 0.042717 1.739975 -0.013421
v 0.038698 1.742245 -0.008294
v 0.036842 1.743293 -0.001734
v 0.037469 1.742939 0.005126
v 0.040473 1.741243 0.011100
v 0.045332 1.738498 0.015155
v 0.066972 1.750841 0.015155
v 0.067165 1.744097 0.016589
v 0.066813 1.756420 0.011100
v 0.066714 1.759867 0.005126
v 0.066694 1.760588 -0.001734
v 0.066755 1.758457 -0.008294
v 0.066887 1.753844 -0.013421
v 0.067067 1.747544 -0.016226
v 0.067264 1.740649 -0.016226
v 0.067444 1.734350 -0.013421
v 0.067576 1.729736 -0.008294
v 0.067636 1.727605 -0.001734
v 0.067616 1.728326 0.005126
v 0.067517 1.731774 0.011100
v 0.067358 1.737352 0.015155
v 0.068757 1.751047 0.017715
v 0.067323 1.744303 0.017908
v 0.072812 1.756626 0.017556
v 0.078786 1.760074 0.017457
v 0.085646 1.760794 0.017437
v 0.092206 1.758664 0.017498
v 0.097333 1.754050 0.017630
v 0.100138 1.747751 0.017810
v 0.100138 1.740855 0.018007
v 0.097333 1.734556 0.018187
v 0.092206 1.729942 0.018319
v 0.085646 1.727812 0.018379
v 0.078786 1.728532 0.018359
v 0.072812 1.731980 0.018260
v 0.068757 1.737558 0.018101
v 0.068757 1.761094 0.027108
v 0.067323 1.761287 0.033852
v 0.072812 1.760935 0.021529
v 0.078786 1.760836 0.018082
v 0.085646 1.760815 0.017361
v 0.092206 1.760876 0.019492
v 0.097333 1.761008 0.024105
v 0.100138 1.761188 0.030405
v 0.100138 1.761385 0.037300
v 0.097333 1.761565 0.043599
v 0.092206 1.761697 0.048213
v 0.085646 1.761758 0.050344
v 0.078786 1.761738 0.049623
v 0.072812 1.761639 0.046175
v 0.068757 1.761480 0.040597
v 0.068757 1.800674 0.026216
v 0.067323 1.800867 0.032961
v 0.072812 1.800514 0.020638
v 0.078786 1.800416 0.017190
v 0.085646 1.800395 0.016469
v 0.092206 1.800456 0.018600
v 0.097333 1.800588 0.023214
v 0.100138 1.800768 0.029513
v 0.100138 1.800965 0.036408
v 0.097333 1.801145 0.042707
v 0.092206 1.801277 0.047321
v 0.085646 1.801338 0.049452
v 0.078786 1.801317 0.048731
v 0.072812 1.801219 0.045284
v 0.068757 1.801059 0.039705
v -2.499055 1.767493 -0.052709
v -2.499055 1.767493 0.051356
v -2.499055 1.827489 -0.052709
v -2.499055 1.827489 0.051356
v 2.498620 1.767493 -0.052709
v 2.498620 1.767493 0.051356
v 2.498620 1.827489 -0.052709
v 2.498620 1.827489 0.051356
v 0.279869 1.517874 -0.000420
v 0.279869 1.517874 0.017947
v 0.279869 1.656432 -0.000420
v 0.279869 1.656432 0.066694
v 0.418427 1.517874 -0.000420
v 0.418427 1.517874 0.017947
v 0.418427 1.656432 -0.000420
v 0.418427 1.656432 0.066694
v -0.517568 1.826007 -0.016254
v -0.504269 1.826007 0.000000
v -0.537434 1.826007 0.000000
v -0.515033 1.826007 -0.004761
v -0.504269 1.416371 0.000000
v -0.517568 1.416237 -0.016254
v -0.537434 1.416237 0.000000
v -0.515033 1.416276 -0.004761
v 0.047313 0.031351 0.021385
v 0.053938 0.030184 0.019856
v 0.059417 0.026402 0.018050
v 0.062804 0.020659 0.016279
v 0.063511 0.013948 0.014850
v 0.061419 0.007429 0.014009
v 0.056887 0.002230 0.013902
v 0.050700 -0.000751 0.014547
v 0.043927 -0.000999 0.015833
v 0.037740 0.001531 0.017538
v 0.033208 0.006399 0.019366
v 0.031115 0.012766 0.021002
v 0.031823 0.019528 0.022163
v 0.035210 0.025519 0.022647
v 0.040689 0.029700 0.022372
v 0.047313 0.028990 0.020931
v 0.052978 0.027992 0.019623
v 0.057663 0.024758 0.018079
v 0.060559 0.019848 0.016565
v 0.061164 0.014109 0.015343
v 0.059374 0.008535 0.014624
v 0.055499 0.004089 0.014532
v 0.050209 0.001540 0.015084
v 0.044418 0.001329 0.016184
v 0.039128 0.003491 0.017642
v 0.035253 0.007655 0.019205
v 0.033463 0.013098 0.020604
v 0.034068 0.018881 0.021596
v 0.036964 0.024003 0.022010
v 0.041649 0.027578 0.021775
v 0.043131 0.034275 0.011130
v 0.048145 0.034297 0.010051
v 0.052287 0.034287 0.007026
v 0.054841 0.034248 0.002578
v 0.055364 0.034185 -0.002523
v 0.053768 0.034111 -0.007397
v 0.050327 0.034037 -0.011199
v 0.045636 0.033977 -0.013274
v 0.040508 0.033941 -0.013261
v 0.035827 0.033935 -0.011163
v 0.032405 0.033960 -0.007343
v 0.030832 0.034012 -0.002462
v 0.031380 0.034082 0.002637
v 0.033955 0.034157 0.007072
v 0.038112 0.034226 0.010076
v 0.043933 0.068174 0.011130
v 0.048947 0.068195 0.010051
v 0.053089 0.068186 0.007026
v 0.055643 0.068146 0.002578
v 0.056167 0.068084 -0.002523
v 0.054570 0.068009 -0.007397
v 0.051129 0.067936 -0.011199
v 0.046439 0.067876 -0.013274
v 0.041310 0.067839 -0.013261
v 0.036630 0.067833 -0.011163
v 0.033207 0.067859 -0.007343
v 0.031634 0.067911 -0.002462
v 0.032183 0.067980 0.002637
v 0.034758 0.068056 0.007072
v 0.038914 0.068124 0.010076
vn -0.7071 -0.0000 0.7071
vn -0.0000 -0.0000 1.0000
vn -0.4017 -0.4017 0.8229
vn -0.3974 0.3974 0.8271
vn -0.3015 -0.3015 0.9045
vn -0.7173 0.6303 0.2971
vn -0.2971 0.6303 0.7173
vn -0.0004 0.7080 0.7062
vn -0.6536 0.7568 0.0050
vn -0.6372 0.5676 0.5214
vn -0.3015 0.3015 0.9045
vn -0.6537 -0.7567 0.0058
vn -0.6372 -0.5676 0.5214
vn 0.7071 -0.0000 0.7071
vn 0.3015 -0.3015 0.9045
vn 0.4118 0.4118 0.8129
vn 0.4164 -0.4164 0.8082
vn -0.5774 -0.5774 0.5774
vn -0.5774 0.5774 0.5774
vn 0.5774 0.5774 0.5774
vn 0.3015 0.3015 0.9045
vn 0.7173 0.6303 0.2971
vn 0.5491 0.8042 0.2275
vn 0.7071 -0.7071 -0.0000
vn 0.5773 -0.5773 0.5774
vn -0.5491 0.8042 0.2275
vn 0.2971 0.6303 0.7173
vn -0.1857 0.1313 0.9738
vn -0.1036 0.0674 0.9923
vn -0.2048 -0.1342 0.9695
vn -0.0000 0.7071 0.7071
vn -0.1858 0.1313 0.9738
vn 0.1857 0.1313 0.9738
vn 0.5774 -0.5774 0.5774
vn 1.0000 -0.0000 -0.0000
vn 0.7878 -0.0000 0.6160
vn 0.4112 -0.6800 0.6071
vn 0.5174 -0.8557 -0.0000
vn -0.4112 -0.6800 0.6071
vn -0.5174 -0.8557 -0.0000
vn -0.7878 -0.0000 0.6160
vn -1.0000 -0.0000 -0.0000
vn -0.4112 0.6800 0.6071
vn -0.5174 0.8557 -0.0000
vn 0.4112 0.6800 0.6071
vn 0.5174 0.8557 -0.0000
vn 0.1325 -0.1524 -0.9794
vn -0.1708 0.1894 -0.9669
vn 0.2972 0.2279 -0.9272
vn 0.4073 -0.1508 -0.9007
vn 0.7466 -0.4177 -0.5178
vn 0.5100 -0.2199 -0.8316
vn 0.3608 -0.5178 -0.7757
vn 0.4243 -0.7941 -0.4352
vn -0.0371 0.0192 0.9991
vn -0.0100 0.5128 0.8584
vn 0.4132 0.4866 0.7698
vn 0.3438 -0.1274 0.9304
vn 0.3914 -0.9162 -0.0854
vn 0.4278 -0.7688 -0.4754
vn 0.2698 -0.9524 -0.1421
vn 0.6467 -0.3204 0.6922
vn 0.8079 -0.4956 0.3190
vn 0.4084 -0.8756 0.2580
vn 0.4136 -0.6733 0.6129
vn 0.7577 0.3423 0.5556
vn -0.5568 0.5398 0.6314
vn -0.3167 0.3302 0.8892
vn -0.5673 0.4018 0.7188
vn -0.4828 0.6932 0.5351
vn -0.4189 0.1191 0.9002
vn -0.0173 0.0269 0.9995
vn 0.9636 0.1583 0.2156
vn 0.2638 -0.3387 0.9031
vn -0.4096 -0.4166 0.8116
vn -0.6025 0.0240 0.7978
vn -0.9286 0.2170 0.3009
vn -0.7340 0.1830 0.6540
vn -0.7002 0.6543 0.2857
vn 0.9822 -0.0390 -0.1838
vn 0.8355 -0.5388 -0.1075
vn 0.0634 -0.9676 0.2443
vn -0.5885 0.1550 -0.7935
vn -0.8490 0.2035 -0.4875
vn -0.6420 0.6087 -0.4662
vn -0.4471 0.4470 -0.7747
vn 0.8162 -0.1965 -0.5433
vn 0.4666 -0.4909 -0.7358
vn 0.1581 -0.0476 -0.9863
vn 0.5235 -0.2914 -0.8006
vn 0.1598 -0.3366 -0.9280
vn 0.0212 0.8530 -0.5214
vn 0.1672 0.5847 -0.7938
vn -0.2236 -0.3446 -0.9117
vn -0.2324 0.0742 -0.9698
vn -0.3473 0.9099 0.2267
vn -0.9693 0.2237 -0.1017
vn -0.7297 0.6770 -0.0962
vn -0.5745 -0.3184 -0.7540
vn -0.1516 -0.7754 0.6130
vn -0.8433 -0.2519 -0.4747
vn -0.9851 -0.1322 -0.1096
vn -0.9579 0.0438 0.2839
vn -0.8155 -0.3679 0.4468
vn -0.9649 -0.0464 0.2586
vn -0.7502 0.2378 0.6169
vn -0.1555 0.9754 -0.1562
vn -0.4158 0.4041 0.8147
vn 0.9055 0.1237 -0.4059
vn 0.7134 0.4319 -0.5518
vn 0.8075 0.2274 -0.5443
vn 0.9861 0.0490 -0.1586
vn 0.9465 -0.2444 -0.2107
vn -0.9324 0.3396 0.1232
vn 0.8078 -0.5884 -0.0358
vn -0.6825 0.7279 -0.0661
vn 0.5287 -0.8398 0.1231
vn -0.2715 0.8996 -0.3419
vn 0.1584 -0.9421 0.2954
vn 0.1438 0.8305 -0.5381
vn -0.2257 -0.8572 0.4629
vn 0.4574 0.6606 -0.5953
vn -0.5465 -0.6400 0.5401
vn -0.8750 -0.2059 0.4380
vn -0.6175 -0.2940 0.7296
vn -0.6687 0.0167 0.7433
vn -0.9132 0.0092 0.4073
vn -0.9974 -0.0493 0.0519
vn 0.9575 -0.1364 0.2543
vn -0.9207 0.1454 -0.3623
vn 0.7593 -0.2575 0.5976
vn -0.6582 0.2883 -0.6954
vn 0.4557 -0.3184 0.8313
vn -0.2930 0.3259 -0.8989
vn 0.0941 -0.3404 0.9355
vn 0.0912 0.2896 -0.9528
vn -0.2793 -0.3333 0.9005
vn 0.4840 0.3252 -0.8124
vn -0.7071 -0.7071 -0.0000
vn -0.7071 0.7071 -0.0000
vn 0.8094 -0.0132 -0.5871
vn 0.9783 -0.0047 -0.2071
vn -1.0000 -0.0000 0.0008
vn 0.9780 0.0047 0.2086
vn -0.9138 -0.0091 -0.4060
vn 0.8086 0.0132 0.5882
vn -0.6695 -0.0167 -0.7426
vn 0.4996 0.0195 0.8660
vn -0.3092 -0.0214 -0.9507
vn 0.1044 0.0224 0.9943
vn 0.1046 -0.0224 -0.9943
vn -0.3088 0.0214 0.9509
vn 0.5003 -0.0195 -0.8656
vn 0.7071 0.7071 -0.0000
vn -0.5973 -0.6545 0.4636
vn -0.5616 0.4782 0.6752
vn 0.5616 0.4782 0.6752
vn 0.5973 -0.6545 0.4636
vn -0.4383 -0.8242 0.3586
vn -0.0000 -1.0000 -0.0000
vn -0.4418 0.8254 0.3514
vn 0.3570 0.4136 0.8376
vn 0.5640 0.2865 0.7745
vn 0.8667 -0.1868 0.4625
vn 0.8109 -0.5034 0.2984
vn 0.3000 -0.9346 0.1911
vn -0.0355 -0.9701 0.2399
vn -0.5812 -0.6518 0.4872
vn -0.6653 -0.3419 0.6637
vn -0.3342 0.2253 0.9152
vn -0.0829 0.3898 0.9172
vn 0.1476 0.4626 0.8742
vn 0.7587 0.0922 0.6448
vn 0.6021 -0.7713 0.2063
vn -0.3490 -0.8728 0.3413
vn -0.5628 -0.0218 0.8263
vn -0.1257 -0.8356 0.5348
vn -0.3675 -0.6863 0.6276
vn 0.3740 0.1973 0.9062
vn 0.5349 0.1354 0.8340
vn -0.4977 -0.4127 0.7628
vn 0.6950 -0.0046 0.7190
vn -0.4387 -0.1249 0.8899
vn 0.7811 -0.2604 0.5675
vn -0.2690 0.0676 0.9608
vn 0.6815 -0.5794 0.4470
vn -0.0879 0.1659 0.9822
vn 0.4177 -0.8028 0.4256
vn 0.0744 0.2081 0.9753
vn 0.1344 -0.8714 0.4718
vn 0.2239 0.2170 0.9501
vn 0.2299 0.3414 0.9114
vn 0.5807 0.3103 0.7527
vn -0.4231 -0.5113 -0.7480
vn -0.7685 -0.3838 -0.5120
vn 0.8480 0.2371 0.4740
vn -0.9672 -0.1903 -0.1686
vn 0.9874 0.1093 0.1141
vn -0.9757 0.0235 0.2179
vn 0.9601 -0.0767 -0.2690
vn -0.8055 0.1917 0.5607
vn 0.7553 -0.2798 -0.5927
vn -0.5142 0.2906 0.8069
vn 0.4185 -0.4438 -0.7924
vn -0.1527 0.3359 0.9294
vn 0.0033 -0.5333 -0.8459
vn 0.7388 -0.0175 -0.6737
vn 0.4005 -0.0095 -0.9163
vn -0.5893 0.0139 0.8078
vn -0.2097 0.0050 0.9777
vn -0.0066 0.0002 -1.0000
vn 0.2068 -0.0049 0.9784
vn -0.4117 0.0097 -0.9113
vn 0.5878 -0.0139 0.8089
vn -0.7455 0.0176 -0.6662
vn 0.8667 -0.0205 0.4984
vn -0.9514 0.0225 -0.3072
vn 0.9946 -0.0235 0.1011
vn -0.9942 0.0235 0.1045
vn 0.9493 -0.0225 -0.3137
vn -0.8665 0.0205 0.4987
vt 0.000000 0.000000
vt 1.000000 0.000000
vt 0.011239 0.999188
vt 0.000000 0.982187
vt 1.000000 0.999188
vt 0.397896 0.000000
vt 0.506560 0.000000
vt 0.506560 0.999188
vt 0.676196 0.000000
vt 0.676196 0.852410
vt 0.676196 0.999188
vt 0.952040 0.000000
vt 0.956346 0.000000
vt 0.952040 0.999188
vt 0.590036 0.999188
vt 0.590036 0.000000
vt 0.588583 0.000000
vt 0.506560 0.532025
vt 0.590036 0.532025
vt 0.588583 0.532025
vt 0.590036 0.521931
vt 0.515281 0.000000
vt 0.519254 0.000000
vt 0.515281 0.532025
vt 0.519254 0.532025
vt 0.515281 0.521931
vt 0.011239 0.774657
vt 0.000000 0.790064
vt 0.000000 0.774657
vt 0.397896 0.299460
vt 0.000000 0.299460
vt 0.245547 0.299460
vt 0.248938 0.299038
vt 0.248938 0.299460
vt 0.245547 0.774657
vt 0.248938 0.797427
vt 0.248938 0.774657
vt 0.397896 0.999188
vt 0.000000 0.999188
vt 0.397896 0.774657
vt 0.000000 0.774657
vt 0.047197 0.774657
vt 0.181119 0.299460
vt 0.181119 0.292713
vt 0.047197 0.299460
vt 0.047197 0.292713
vt 0.181119 0.774657
vt 0.248938 0.774657
vt 0.383987 0.299460
vt 0.386294 0.299460
vt 0.386294 0.286810
vt 0.248938 0.299460
vt 0.248938 0.286810
vt 0.383987 0.774657
vt 0.386294 0.774657
vt 0.390699 0.288536
vt 0.391066 0.299460
vt 0.387370 0.299460
vt 0.385927 0.288536
vt 0.386294 0.299460
vt 0.386294 0.286810
vt 0.381399 0.299246
vt 0.381521 0.299038
vt 0.381521 0.299460
vt 0.386294 0.749592
vt 0.387370 0.774657
vt 0.386294 0.774657
vt 0.391066 0.749592
vt 0.391066 0.774657
vt 0.050859 0.299460
vt 0.047197 0.292713
vt 0.047197 0.299460
vt 0.042503 0.282057
vt 0.042503 0.299460
vt 0.051891 0.303044
vt 0.051891 0.282057
vt 0.051891 0.299460
vt 0.042503 0.790064
vt 0.042503 0.774657
vt 0.050859 0.774657
vt 0.047197 0.790064
vt 0.047197 0.774657
vt 0.177945 0.774657
vt 0.181119 0.774657
vt 0.185813 0.797427
vt 0.185813 0.774657
vt 0.185813 0.299460
vt 0.177945 0.299460
vt 0.181119 0.292713
vt 0.181119 0.282057
vt 0.181119 0.299460
vt 0.176425 0.303044
vt 0.176425 0.282057
vt 0.176425 0.299460
vt 0.668433 0.855423
vt 0.668433 0.872826
vt 0.670953 0.872826
vt 0.954203 0.872826
vt 0.958598 0.855423
vt 0.958598 0.872826
vt 0.952040 0.852410
vt 0.956346 0.870482
vt 0.956346 0.856669
vt 0.676196 0.852410
vt 0.676196 0.870482
vt 0.676196 0.000000
vt 0.668433 0.979804
vt 0.670953 1.000523
vt 0.958598 0.979804
vt 0.954203 1.000523
vt 0.676196 0.000000
vt 0.670044 0.852410
vt 0.952040 0.000000
vt 0.668433 0.872826
vt 0.958598 0.872826
vt 0.952040 0.852410
vt 0.676196 0.852410
vt 0.670044 0.000000
vt 0.668433 0.979804
vt 0.958598 0.979804
vt 0.515281 0.000000
vt 0.590036 0.000000
vt 0.590036 0.532025
vt 0.515281 0.532025
vt 0.439733 0.872496
vt 0.442684 0.910742
vt 0.437111 0.866481
vt 0.464093 0.881138
vt 0.444509 0.910738
vt 0.446599 0.841917
vt 0.455902 0.832777
vt 0.444030 0.833066
vt 0.455750 0.842561
vt 0.455750 0.843193
vt 0.444899 0.833831
vt 0.446363 0.842350
vt 0.446132 0.843193
vt 0.435136 0.875497
vt 0.438278 0.880134
vt 0.442516 0.911642
vt 0.445364 0.908966
vt 0.444801 0.911619
vt 0.444609 0.910548
vt 0.445368 0.903778
vt 0.457373 0.908966
vt 0.435731 0.878367
vt 0.458127 0.910548
vt 0.457368 0.903778
vt 0.438100 0.880021
vt 0.510014 0.946465
vt 0.509385 0.948279
vt 0.508613 0.942488
vt 0.508613 0.018174
vt 0.509335 0.942488
vt 0.509335 0.018174
vt 0.509931 0.942488
vt 0.509931 0.018174
vt 0.510301 0.942488
vt 0.510301 0.018174
vt 0.510378 0.942488
vt 0.510378 0.018174
vt 0.510150 0.942488
vt 0.510150 0.018174
vt 0.509656 0.942488
vt 0.509656 0.018174
vt 0.508982 0.942488
vt 0.508982 0.018174
vt 0.508244 0.942488
vt 0.508244 0.018174
vt 0.507570 0.942488
vt 0.507570 0.018174
vt 0.507076 0.942488
vt 0.507076 0.018174
vt 0.506848 0.942488
vt 0.506848 0.018174
vt 0.506925 0.942488
vt 0.506925 0.018174
vt 0.507294 0.942488
vt 0.507294 0.018174
vt 0.507891 0.942488
vt 0.507891 0.018174
vt 0.510533 0.944964
vt 0.510855 0.944037
vt 0.510922 0.943843
vt 0.510723 0.944416
vt 0.510293 0.945657
vt 0.509706 0.947351
vt 0.509064 0.949206
vt 0.508477 0.950900
vt 0.508047 0.952141
vt 0.507848 0.952715
vt 0.507915 0.952521
vt 0.508237 0.951593
vt 0.508757 0.950093
vt 0.511072 0.956841
vt 0.514510 0.953154
vt 0.511055 0.959891
vt 0.511044 0.961776
vt 0.511042 0.962171
vt 0.511048 0.961006
vt 0.511062 0.958483
vt 0.514500 0.955039
vt 0.514521 0.951269
vt 0.514540 0.947825
vt 0.514554 0.945302
vt 0.514561 0.944137
vt 0.514558 0.944531
vt 0.514548 0.946416
vt 0.514531 0.949466
vt 0.514681 0.956954
vt 0.514527 0.953267
vt 0.515114 0.960004
vt 0.515753 0.961889
vt 0.516487 0.962284
vt 0.517189 0.961118
vt 0.517738 0.958596
vt 0.518038 0.955152
vt 0.518038 0.951382
vt 0.517738 0.947937
vt 0.517189 0.945415
vt 0.516487 0.944250
vt 0.515753 0.944644
vt 0.515114 0.946529
vt 0.514681 0.949579
vt 0.514681 0.962447
vt 0.514527 0.962552
vt 0.515114 0.962360
vt 0.515753 0.962306
vt 0.516487 0.962295
vt 0.517189 0.962328
vt 0.517738 0.962400
vt 0.518038 0.962499
vt 0.518038 0.962607
vt 0.517738 0.962705
vt 0.517189 0.962777
vt 0.516487 0.962810
vt 0.515753 0.962799
vt 0.515114 0.962745
vt 0.514681 0.962658
vt 0.514681 0.984088
vt 0.514527 0.984193
vt 0.515114 0.984001
vt 0.515753 0.983947
vt 0.516487 0.983935
vt 0.517189 0.983969
vt 0.517738 0.984041
vt 0.518038 0.984139
vt 0.518038 0.984247
vt 0.517738 0.984346
vt 0.517189 0.984418
vt 0.516487 0.984451
vt 0.515753 0.984440
vt 0.515114 0.984386
vt 0.514681 0.984299
vt 0.000171 0.981688
vt 0.008988 0.981688
vt 0.000171 0.999608
vt 0.000171 0.981688
vt 0.000171 1.000000
vt 0.008988 1.000000
vt 0.000171 0.981258
vt 0.000171 1.000000
vt 0.999742 0.981688
vt 0.983949 0.981688
vt 0.999742 0.999608
vt 0.999742 0.981688
vt 0.999742 1.000000
vt 0.999742 0.981258
vt 0.983949 1.000000
vt 0.999742 1.000000
vt 0.561078 0.839208
vt 0.557394 0.840389
vt 0.557749 0.833896
vt 0.557394 0.833881
vt 0.556814 0.839646
vt 0.581361 0.839208
vt 0.556814 0.841162
vt 0.578158 0.833896
vt 0.556814 0.832911
vt 0.556814 0.892412
vt 0.557836 0.832036
vt 0.582026 0.840389
vt 0.556058 0.839474
vt 0.579410 0.833881
vt 0.582850 0.839646
vt 0.580411 0.842005
vt 0.580365 0.832880
vt 0.580411 0.833754
vt 0.579003 0.840317
vt 0.582542 0.893255
vt 0.396483 0.999188
vt 0.399143 0.999188
vt 0.392509 0.999188
vt 0.392509 0.982187
vt 0.396990 0.999188
vt 0.399143 0.749665
vt 0.399143 0.774731
vt 0.396483 0.749592
vt 0.396483 0.774657
vt 0.392509 0.774657
vt 0.392509 0.749592
vt 0.396990 0.774679
vt 0.508969 0.016694
vt 0.509677 0.016057
vt 0.510264 0.013989
vt 0.510626 0.010849
vt 0.510701 0.007179
vt 0.510478 0.003615
vt 0.509993 0.000772
vt 0.509331 -0.000858
vt 0.508606 -0.000993
vt 0.507945 0.000390
vt 0.507460 0.003052
vt 0.507236 0.006533
vt 0.507311 0.010230
vt 0.507674 0.013506
vt 0.508260 0.015792
vt 0.508969 0.015403
vt 0.509575 0.014858
vt 0.510076 0.013090
vt 0.510386 0.010405
vt 0.510450 0.007268
vt 0.510259 0.004220
vt 0.509844 0.001789
vt 0.509278 0.000395
vt 0.508659 0.000279
vt 0.508093 0.001462
vt 0.507678 0.003738
vt 0.507487 0.006715
vt 0.507552 0.009876
vt 0.507861 0.012677
vt 0.508362 0.014632
vt 0.508521 0.018293
vt 0.509058 0.018305
vt 0.509501 0.018300
vt 0.509774 0.018278
vt 0.509830 0.018244
vt 0.509659 0.018203
vt 0.509291 0.018163
vt 0.508789 0.018130
vt 0.508241 0.018111
vt 0.507740 0.018107
vt 0.507374 0.018121
vt 0.507205 0.018149
vt 0.507264 0.018188
vt 0.507540 0.018229
vt 0.507984 0.018266
vt 0.508607 0.036828
vt 0.509143 0.036840
vt 0.509587 0.036834
vt 0.509860 0.036813
vt 0.509916 0.036779
vt 0.509745 0.036738
vt 0.509377 0.036698
vt 0.508875 0.036665
vt 0.508326 0.036645
vt 0.507826 0.036642
vt 0.507459 0.036655
vt 0.507291 0.036684
vt 0.507350 0.036722
vt 0.507625 0.036763
vt 0.508070 0.036801
s 1
usemtl building_garage
f 10/12/1 2/2/2 4/5/2 11/14/2 55/109/3 51/100/4 52/101/5
f 38/65/6 39/68/7 207/301/8 206/298/9 25/40/10 34/55/11
f 206/299/9 201/291/12 23/38/13 25/40/10
f 13/16/1 8/9/14 53/104/15 50/96/16 54/107/17 9/11/2 12/15/2 15/19/5
f 51/98/4 55/110/3 63/120/18 59/115/19
f 6/7/2 16/22/14 17/24/15 14/18/2
f 14/18/2 17/24/15 15/19/5 12/15/2 7/8/2
f 22/35/20 21/32/21 33/52/20 31/48/21
f 44/80/22 40/70/23 29/45/20 27/42/21
f 3/3/24 18/27/20 26/41/20 24/39/25
f 48/88/26 45/83/6 30/47/11 28/43/19
f 36/58/26 38/66/6 34/54/11 32/49/19
f 26/41/20 27/42/21 30/47/11 31/48/21 34/55/11 25/40/10 23/38/13 24/39/25
f 27/42/21 29/45/20 28/43/19 30/47/11
f 31/48/21 33/52/20 32/50/19 34/55/11
f 18/28/20 43/78/27 44/81/22 27/42/21 26/41/20
f 39/69/7 35/57/28 19/30/2 205/297/29 207/300/8
f 5/6/2 6/7/2 14/18/2 7/8/2 202/292/30 205/297/29 19/30/2
f 40/71/23 42/75/31 49/92/31 48/89/26 28/44/19 29/46/20
f 45/84/6 46/85/7 22/36/20 31/48/21 30/47/11
f 46/86/7 47/87/32 21/34/21 22/37/20
f 20/31/2 41/74/33 43/79/27 18/29/20
f 35/56/28 36/59/26 37/62/31
f 38/67/6 36/60/26 35/57/28 39/69/7
f 21/33/21 37/63/31 36/61/26 32/51/19 33/53/20
f 40/72/23 41/73/33 42/76/31
f 47/87/32 48/90/26 49/93/31
f 43/79/27 41/74/33 40/72/23 44/82/22
f 45/84/6 48/91/26 47/87/32 46/86/7
f 1/1/2 5/6/2 19/30/2 35/57/28 37/64/31 21/34/21 47/87/32 49/94/31 42/77/31 41/74/33 20/31/2
f 56/111/14 57/113/1 60/116/18 61/117/34
f 50/95/16 51/99/4 59/115/19 58/114/20
f 53/104/15 52/101/5 51/100/4 50/96/16
f 54/107/17 55/109/3 11/14/2 9/11/2
f 58/114/20 59/115/19 63/120/18 62/119/34
f 52/102/5 53/105/15 61/117/34 60/116/18
f 10/13/1 52/103/5 60/116/18 57/113/1
f 55/110/3 54/108/17 62/119/34 63/120/18
f 54/108/17 50/97/16 58/114/20 62/119/34
f 53/106/15 8/10/14 56/112/14 61/118/34
f 67/124/34 64/121/14 65/122/1 66/123/18
f 17/25/15 16/23/14 64/121/14 67/124/34
f 13/17/1 15/20/5 66/123/18 65/122/1
f 15/21/5 17/26/15 67/124/34 66/123/18
f 68/125/35 69/127/36 71/132/37 70/130/38
f 70/131/38 71/133/37 73/136/39 72/135/40
f 72/135/40 73/136/39 75/139/41 74/138/42
f 74/138/42 75/139/41 77/142/43 76/140/44
f 71/134/37 69/128/36 79/147/45 77/143/43 75/139/41 73/137/39
f 76/141/44 77/144/43 79/148/45 78/145/46
f 78/146/46 79/149/45 69/129/36 68/126/35
f 117/187/47 118/188/48 132/202/49 133/203/50
f 92/162/51 94/164/52 116/186/53 115/185/54
f 82/152/55 83/153/56 85/155/57 84/154/58
f 114/184/59 115/185/54 135/205/60 136/206/61
f 86/156/62 88/158/63 113/183/64 112/182/65
f 84/154/58 85/155/57 87/157/66 86/156/62
f 123/193/67 124/194/68 125/195/69 127/197/70
f 110/180/71 82/152/55 81/151/72 124/194/68
f 86/156/62 87/157/66 89/159/73 88/158/63
f 81/151/72 80/150/74 139/209/75 126/196/76
f 106/176/77 108/178/78 123/193/67 122/192/79
f 88/158/63 89/159/73 91/161/80 90/160/81
f 113/183/64 114/184/59 136/206/61 137/207/82
f 100/170/83 102/172/84 120/190/85 119/189/86
f 90/160/81 91/161/80 93/163/87 92/162/51
f 116/186/53 117/187/47 133/203/50 134/204/88
f 94/164/52 96/166/89 117/187/47 116/186/53
f 92/162/51 93/163/87 95/165/90 94/164/52
f 124/194/68 81/151/72 126/196/76 125/195/69
f 88/158/63 90/160/81 114/184/59 113/183/64
f 94/164/52 95/165/90 97/167/91 96/166/89
f 119/189/86 120/190/85 130/200/92 131/201/93
f 108/178/78 110/180/71 124/194/68 123/193/67
f 96/166/89 97/167/91 99/169/94 98/168/95
f 122/192/79 123/193/67 127/197/70 128/198/96
f 102/172/84 104/174/97 121/191/98 120/190/85
f 98/168/95 99/169/94 101/171/99 100/170/83
f 112/182/65 113/183/64 137/207/82 138/208/100
f 96/166/89 98/168/95 118/188/48 117/187/47
f 100/170/83 101/171/99 103/173/101 102/172/84
f 115/185/54 116/186/53 134/204/88 135/205/60
f 82/152/55 84/154/58 80/150/74 81/151/72
f 102/172/84 103/173/101 105/175/102 104/174/97
f 118/188/48 119/189/86 131/201/93 132/202/49
f 90/160/81 92/162/51 115/185/54 114/184/59
f 104/174/97 105/175/102 107/177/103 106/176/77
f 126/196/76 139/209/75 154/224/104 141/211/105
f 84/154/58 86/156/62 112/182/65 80/150/74
f 106/176/77 107/177/103 109/179/106 108/178/78
f 121/191/98 122/192/79 128/198/96 129/199/107
f 108/178/78 109/179/106 111/181/108 110/180/71
f 120/190/85 121/191/98 129/199/107 130/200/92
f 98/168/95 100/170/83 119/189/86 118/188/48
f 110/180/71 111/181/108 83/153/56 82/152/55
f 104/174/97 106/176/77 122/192/79 121/191/98
f 80/150/74 112/182/65 138/208/100 139/209/75
f 147/217/109 146/216/110 161/231/111 162/232/112
f 133/203/50 132/202/49 147/217/109 148/218/113
f 125/195/69 126/196/76 141/211/105 140/210/114
f 134/204/88 133/203/50 148/218/113 149/219/115
f 127/197/70 125/195/69 140/210/114 142/212/116
f 135/205/60 134/204/88 149/219/115 150/220/117
f 128/198/96 127/197/70 142/212/116 143/213/118
f 136/206/61 135/205/60 150/220/117 151/221/119
f 129/199/107 128/198/96 143/213/118 144/214/120
f 137/207/82 136/206/61 151/221/119 152/222/121
f 130/200/92 129/199/107 144/214/120 145/215/122
f 138/208/100 137/207/82 152/222/121 153/223/123
f 131/201/93 130/200/92 145/215/122 146/216/110
f 139/209/75 138/208/100 153/223/123 154/224/104
f 132/202/49 131/201/93 146/216/110 147/217/109
f 169/239/124 168/238/125 183/253/126 184/254/127
f 141/211/105 154/224/104 169/239/124 156/226/128
f 148/218/113 147/217/109 162/232/112 163/233/129
f 140/210/114 141/211/105 156/226/128 155/225/130
f 149/219/115 148/218/113 163/233/129 164/234/131
f 142/212/116 140/210/114 155/225/130 157/227/132
f 150/220/117 149/219/115 164/234/131 165/235/133
f 143/213/118 142/212/116 157/227/132 158/228/134
f 151/221/119 150/220/117 165/235/133 166/236/135
f 144/214/120 143/213/118 158/228/134 159/229/136
f 152/222/121 151/221/119 166/236/135 167/237/137
f 145/215/122 144/214/120 159/229/136 160/230/138
f 153/223/123 152/222/121 167/237/137 168/238/125
f 146/216/110 145/215/122 160/230/138 161/231/111
f 154/224/104 153/223/123 168/238/125 169/239/124
f 185/255/139 186/256/18 188/260/19 187/259/140
f 162/232/112 161/231/111 176/246/141 177/247/142
f 156/226/128 169/239/124 184/254/127 171/241/143
f 163/233/129 162/232/112 177/247/142 178/248/144
f 155/225/130 156/226/128 171/241/143 170/240/145
f 164/234/131 163/233/129 178/248/144 179/249/146
f 157/227/132 155/225/130 170/240/145 172/242/147
f 165/235/133 164/234/131 179/249/146 180/250/148
f 158/228/134 157/227/132 172/242/147 173/243/149
f 166/236/135 165/235/133 180/250/148 181/251/150
f 159/229/136 158/228/134 173/243/149 174/244/151
f 167/237/137 166/236/135 181/251/150 182/252/152
f 160/230/138 159/229/136 174/244/151 175/245/153
f 168/238/125 167/237/137 182/252/152 183/253/126
f 161/231/111 160/230/138 175/245/153 176/246/141
f 187/259/140 188/261/19 192/268/20 191/267/154
f 191/267/154 192/269/20 190/264/34 189/263/24
f 189/263/24 190/265/34 186/257/18 185/255/139
f 193/271/139 194/273/155 196/278/156 195/276/140
f 192/270/20 188/262/19 186/258/18 190/266/34
f 195/277/140 196/279/156 200/288/157 199/286/154
f 199/287/154 200/289/157 198/283/158 197/281/24
f 197/282/24 198/284/158 194/274/155 193/272/139
f 200/290/157 196/280/156 194/275/155 198/285/158
f 201/291/12 204/295/159 203/293/160
f 204/295/159 202/292/30 203/293/160
f 205/296/29 208/302/161 207/301/8
f 208/302/161 206/298/9 207/301/8
f 205/297/29 202/292/30 204/295/159 208/302/161
f 208/302/161 204/295/159 201/291/12 206/299/9
f 201/291/12 203/294/160 3/4/24 24/39/25 23/38/13
f 87/157/66 85/155/57 210/304/162 211/305/163
f 93/163/87 91/161/80 213/307/164 214/308/165
f 99/169/94 97/167/91 216/310/166 217/311/167
f 105/175/102 103/173/101 219/313/168 220/314/169
f 111/181/108 109/179/106 222/316/170 223/317/171
f 85/155/57 83/153/56 209/303/172 210/304/162
f 91/161/80 89/159/73 212/306/173 213/307/164
f 97/167/91 95/165/90 215/309/174 216/310/166
f 103/173/101 101/171/99 218/312/175 219/313/168
f 109/179/106 107/177/103 221/315/176 222/316/170
f 83/153/56 111/181/108 223/317/171 209/303/172
f 89/159/73 87/157/66 211/305/163 212/306/173
f 95/165/90 93/163/87 214/308/165 215/309/174
f 101/171/99 99/169/94 217/311/167 218/312/175
f 107/177/103 105/175/102 220/314/169 221/315/176
f 211/305/163 210/304/162 225/319/177 226/320/178
f 219/313/168 218/312/175 233/327/179 234/328/180
f 212/306/173 211/305/163 226/320/178 227/321/181
f 220/314/169 219/313/168 234/328/180 235/329/182
f 213/307/164 212/306/173 227/321/181 228/322/183
f 221/315/176 220/314/169 235/329/182 236/330/184
f 214/308/165 213/307/164 228/322/183 229/323/185
f 222/316/170 221/315/176 236/330/184 237/331/186
f 215/309/174 214/308/165 229/323/185 230/324/187
f 223/317/171 222/316/170 237/331/186 238/332/188
f 216/310/166 215/309/174 230/324/187 231/325/189
f 209/303/172 223/317/171 238/332/188 224/318/190
f 217/311/167 216/310/166 231/325/189 232/326/191
f 210/304/162 209/303/172 224/318/190 225/319/177
f 218/312/175 217/311/167 232/326/191 233/327/179
f 233/327/179 232/326/191 247/341/192 248/342/193
f 226/320/178 225/319/177 240/334/194 241/335/195
f 234/328/180 233/327/179 248/342/193 249/343/196
f 227/321/181 226/320/178 241/335/195 242/336/197
f 235/329/182 234/328/180 249/343/196 250/344/198
f 228/322/183 227/321/181 242/336/197 243/337/199
f 236/330/184 235/329/182 250/344/198 251/345/200
f 229/323/185 228/322/183 243/337/199 244/338/201
f 237/331/186 236/330/184 251/345/200 252/346/202
f 230/324/187 229/323/185 244/338/201 245/339/203
f 238/332/188 237/331/186 252/346/202 253/347/204
f 231/325/189 230/324/187 245/339/203 246/340/205
f 224/318/190 238/332/188 253/347/204 239/333/206
f 232/326/191 231/325/189 246/340/205 247/341/192
f 225/319/177 224/318/190 239/333/206 240/334/194
f 253/347/204 252/346/202 267/361/207 268/362/208
f 246/340/205 245/339/203 260/354/209 261/355/210
f 239/333/206 253/347/204 268/362/208 254/348/211
f 247/341/192 246/340/205 261/355/210 262/356/212
f 240/334/194 239/333/206 254/348/211 255/349/213
f 248/342/193 247/341/192 262/356/212 263/357/214
f 241/335/195 240/334/194 255/349/213 256/350/215
f 249/343/196 248/342/193 263/357/214 264/358/216
f 242/336/197 241/335/195 256/350/215 257/351/217
f 250/344/198 249/343/196 264/358/216 265/359/218
f 243/337/199 242/336/197 257/351/217 258/352/219
f 251/345/200 250/344/198 265/359/218 266/360/220
f 244/338/201 243/337/199 258/352/219 259/353/221
f 252/346/202 251/345/200 266/360/220 267/361/207
f 245/339/203 244/338/201 259/353/221 260/354/209
