# Blender 3.3.1
# www.blender.org
mtllib building_front3.mtl
o building_front3
v -2.499949 0.000068 0.000000
v 2.499949 0.000068 0.000000
v -2.499949 4.999965 0.000000
v 2.499949 4.999965 0.000000
v -2.499949 4.555530 0.000000
v 2.499949 4.555530 0.000000
v -2.499949 3.990727 0.000000
v 2.499949 3.990727 0.000000
v -2.499949 2.383378 0.000000
v 2.499949 2.383379 0.000000
v -2.499949 2.281765 0.000000
v 2.499949 2.281765 0.000000
v -1.153226 2.383378 0.000000
v -1.153226 2.281765 0.000000
v -1.153226 3.990727 0.000000
v 0.834491 3.990727 0.000000
v 0.834491 2.281765 0.000000
v 0.834491 2.383378 0.000000
v 0.834491 3.891248 0.000000
v -1.153226 3.891248 0.000000
v 0.778247 3.891248 0.000000
v 0.778247 2.383378 0.000000
v -1.069786 3.891248 0.000000
v -1.069786 2.383378 0.000000
v -0.142679 3.891248 0.000000
v -0.142679 2.383378 0.000000
v -0.210667 3.891248 0.000000
v -0.210667 2.383378 0.000000
v 2.499949 4.555530 0.400510
v 2.499949 4.999965 0.400510
v -2.499949 4.999965 0.400510
v -2.499949 4.555530 0.400510
v -1.069786 2.383378 0.100151
v -1.153226 2.383378 0.100151
v 0.834491 2.281765 0.100151
v -1.153226 2.281765 0.100151
v 0.834491 2.383378 0.100151
v 0.778247 2.383378 0.100151
v -0.210667 2.383378 0.100151
v -0.142679 2.383378 0.100151
v -1.069786 2.383378 -0.030266
v -1.153226 2.383378 -0.030266
v -1.153226 3.891248 -0.030266
v 0.834491 3.891248 -0.030266
v 0.834491 2.383378 -0.030266
v 0.778247 3.891248 -0.030266
v -0.142679 3.891248 -0.030266
v 0.778247 2.383378 -0.030266
v 0.778247 3.810384 -0.030266
v -1.069786 3.891248 -0.030266
v -0.210667 2.383378 -0.030266
v -1.069786 2.472260 -0.030266
v -0.210667 3.891248 -0.030266
v -0.142679 2.383378 -0.030266
v -0.142679 3.810383 -0.030266
v 0.778247 2.441356 -0.030266
v -0.142679 2.441356 -0.030266
v -0.210667 3.779480 -0.030266
v -0.210667 3.105783 -0.030266
v -0.210667 3.164500 -0.030266
v -1.069786 3.779480 -0.030266
v -1.069786 3.164500 -0.030266
v -1.069786 3.105783 -0.030266
v -0.210667 2.472260 -0.030266
v -1.084932 2.383029 -0.016552
v -1.142562 2.383379 -0.016552
v -1.142562 3.891248 -0.016552
v 0.834491 3.891248 -0.016552
v 0.834491 2.383378 -0.016552
v 0.778247 3.893284 -0.016552
v -0.157539 3.893284 -0.016552
v 0.778247 2.383378 -0.016552
v 0.802279 3.834101 -0.016552
v -1.084932 3.890097 -0.016552
v -0.200761 2.383029 -0.016552
v -1.084932 2.448764 -0.016552
v -0.200761 3.890097 -0.016552
v -0.157539 2.383379 -0.016552
v -0.157539 3.834101 -0.016552
v 0.802278 2.427695 -0.016552
v -0.157539 2.427695 -0.016552
v -0.200761 3.809247 -0.016552
v -0.200761 3.115199 -0.016552
v -0.200761 3.155083 -0.016552
v -1.084932 3.809247 -0.016552
v -1.084932 3.155083 -0.016552
v -1.084932 3.115199 -0.016552
v -0.200761 2.448764 -0.016552
vn 1.0000 -0.0000 -0.0000
vn -0.0000 -0.0000 1.0000
vn -0.0000 1.0000 -0.0000
vn -0.0000 -1.0000 -0.0000
vn -1.0000 -0.0000 -0.0000
vn -0.0000 0.8244 0.5660
vn 0.6712 -0.0000 0.7413
vn -0.7894 -0.0000 0.6138
vn -0.0000 -0.9997 -0.0255
vn -0.0000 -0.8244 0.5661
vn -0.0000 -0.5006 0.8657
vn -0.0286 0.9989 -0.0374
vn -0.8106 -0.0000 0.5856
vn 0.0180 0.9971 -0.0740
vn -0.0000 0.7085 0.7057
vn -0.0000 0.5041 0.8636
vn -0.0000 0.9892 -0.1469
vn -0.0000 0.9965 0.0836
vn -0.0000 -0.4184 0.9082
vn 0.0031 -0.9999 -0.0122
vn -0.4956 -0.0000 0.8685
vn 0.6782 -0.0000 0.7349
vn 0.0082 0.9990 0.0432
vn -0.0025 -0.9999 -0.0131
vt 0.000000 0.000000
vt 1.000000 0.000000
vt 0.000585 0.999934
vt 0.922064 0.999889
vt 0.922064 0.999725
vt 0.999875 0.999934
vt 0.000000 0.911111
vt 0.000000 0.912735
vt 0.999828 0.999889
vt 0.999828 0.999725
vt 1.000000 0.911111
vt 1.000000 0.912735
vt 0.000000 0.798148
vt 1.000000 0.798148
vt 0.000000 0.476672
vt 1.000000 0.476672
vt 0.000000 0.456349
vt 1.000000 0.456349
vt 0.269350 0.476672
vt 0.269350 0.475315
vt 0.263198 0.476672
vt 0.293958 0.476672
vt 0.269350 0.456318
vt 0.269350 0.456349
vt 0.293958 0.456349
vt 0.269350 0.474415
vt 0.269350 0.798148
vt 0.666902 0.798148
vt 0.666902 0.456349
vt 0.637372 0.456349
vt 0.666902 0.474415
vt 0.666902 0.476672
vt 0.666902 0.474734
vt 0.637372 0.476672
vt 0.666902 0.456466
vt 0.662251 0.476672
vt 0.666902 0.778252
vt 0.664460 0.774102
vt 0.662251 0.778252
vt 0.269350 0.778252
vt 0.263198 0.778252
vt 0.269350 0.774102
vt 0.655653 0.778252
vt 0.655653 0.773857
vt 0.655653 0.774102
vt 0.655653 0.475315
vt 0.655653 0.456435
vt 0.286038 0.778252
vt 0.286038 0.774102
vt 0.286038 0.475315
vt 0.286038 0.456318
vt 0.471464 0.778252
vt 0.471464 0.773857
vt 0.471464 0.774183
vt 0.471464 0.475315
vt 0.471464 0.456318
vt 0.457866 0.778252
vt 0.457866 0.774183
vt 0.457866 0.475315
vt 0.457866 0.456318
vt 0.999828 0.925115
vt 1.000000 0.924953
vt 1.000000 0.924374
vt 0.922064 0.925115
vt 1.000000 1.000000
vt 0.999875 0.930187
vt 0.000000 1.000000
vt 0.000585 0.930187
vt 0.922064 0.925115
vt 0.000000 0.924953
vt 0.000000 0.924374
vt 0.999828 0.925115
vt 0.286038 0.476672
vt 0.269350 0.476672
vt 0.666902 0.456349
vt 0.269350 0.456349
vt 0.666902 0.476672
vt 0.666902 0.473896
vt 0.655653 0.476672
vt 0.655653 0.474003
vt 0.457866 0.476672
vt 0.471464 0.476672
vt 0.286038 0.456713
vt 0.286038 0.476672
vt 0.269350 0.456713
vt 0.269350 0.476672
vt 0.269350 0.778252
vt 0.664460 0.778252
vt 0.666902 0.778252
vt 0.666902 0.456907
vt 0.666902 0.476672
vt 0.655653 0.780205
vt 0.655653 0.778252
vt 0.471464 0.780205
vt 0.471464 0.778252
vt 0.655653 0.456713
vt 0.655653 0.476672
vt 0.655653 0.762079
vt 0.655653 0.765155
vt 0.658947 0.762079
vt 0.286038 0.778252
vt 0.457866 0.456713
vt 0.457866 0.476672
vt 0.279450 0.494448
vt 0.286038 0.494448
vt 0.286038 0.487666
vt 0.457866 0.778252
vt 0.471464 0.456713
vt 0.471464 0.476672
vt 0.471464 0.762079
vt 0.471464 0.765155
vt 0.468046 0.762079
vt 0.655653 0.488268
vt 0.655653 0.483927
vt 0.658947 0.488268
vt 0.471464 0.488268
vt 0.471464 0.483927
vt 0.468046 0.488268
vt 0.457866 0.755898
vt 0.457866 0.759580
vt 0.457866 0.618836
vt 0.455913 0.621156
vt 0.457866 0.621156
vt 0.453105 0.626063
vt 0.457866 0.632899
vt 0.281278 0.749062
vt 0.286038 0.755898
vt 0.286038 0.759580
vt 0.281278 0.626063
vt 0.286038 0.632899
vt 0.279450 0.621156
vt 0.286038 0.618836
vt 0.286038 0.621156
vt 0.455913 0.494449
vt 0.457866 0.487666
vt 0.457866 0.494449
vt 0.283597 0.476672
vt 0.286038 0.476672
vt 0.271059 0.476672
vt 0.269350 0.476672
vt 0.271059 0.778252
vt 0.269350 0.778252
vt 0.666902 0.778252
vt 0.666902 0.476672
vt 0.655653 0.778252
vt 0.471464 0.778252
vt 0.655653 0.476672
vt 0.655653 0.762079
vt 0.283578 0.778252
vt 0.286038 0.778252
vt 0.457866 0.476672
vt 0.283132 0.494448
vt 0.283270 0.494448
vt 0.286038 0.494448
vt 0.286038 0.493526
vt 0.457866 0.778252
vt 0.471464 0.476672
vt 0.471464 0.762079
vt 0.655653 0.488268
vt 0.471464 0.488268
vt 0.457866 0.755898
vt 0.457866 0.621156
vt 0.456279 0.630092
vt 0.457866 0.632899
vt 0.284451 0.753090
vt 0.283578 0.755898
vt 0.286038 0.755898
vt 0.284451 0.630092
vt 0.283578 0.632899
vt 0.286038 0.632899
vt 0.283132 0.621156
vt 0.283270 0.621156
vt 0.286038 0.621156
vt 0.457866 0.493526
vt 0.457866 0.494449
s 0
usemtl building_front3
f 6/10/1 4/5/1 30/64/1 29/61/1
f 7/13/2 15/27/2 16/28/2 8/14/2 6/11/2 5/7/2
f 9/15/2 13/19/2 20/40/2 15/27/2 7/13/2
f 11/17/2 14/24/2 13/19/2 9/15/2
f 1/1/2 2/2/2 12/18/2 17/29/2 14/24/2 11/17/2
f 32/70/2 29/62/2 30/65/2 31/67/2
f 15/27/2 20/40/2 23/48/2 27/57/2 25/52/2 21/43/2 19/37/2 16/28/2
f 28/60/3 24/51/3 33/73/3 39/81/3
f 16/28/2 19/37/2 18/32/2 10/16/2 8/14/2
f 18/32/2 17/29/2 12/18/2 10/16/2
f 27/58/4 23/49/4 50/101/4 53/107/4
f 22/46/3 18/33/3 45/90/3 48/96/3
f 13/20/3 24/50/3 41/83/3 42/85/3
f 24/50/3 28/59/3 51/102/3 41/83/3
f 20/41/1 13/21/1 42/86/1 43/87/1
f 26/55/3 22/46/3 48/96/3 54/108/3
f 21/44/4 25/53/4 47/94/4 46/92/4
f 23/49/4 20/42/4 43/87/4 50/101/4
f 25/54/4 27/58/4 53/107/4 47/95/4
f 19/38/4 21/45/4 46/93/4 44/88/4
f 28/59/3 26/55/3 54/108/3 51/102/3
f 4/6/3 3/3/3 31/68/3 30/66/3
f 5/8/4 6/12/4 29/63/4 32/71/4
f 3/4/5 5/9/5 32/72/5 31/69/5
f 34/74/2 36/76/2 35/75/2 37/77/2 38/79/2 40/82/2 39/81/2 33/73/2
f 13/22/5 14/25/5 36/76/5 34/74/5
f 24/51/3 13/23/3 34/74/3 33/73/3
f 22/47/3 26/56/3 40/82/3 38/80/3
f 17/30/1 18/34/1 37/77/1 35/75/1
f 26/56/3 28/60/3 39/81/3 40/82/3
f 18/35/3 22/47/3 38/80/3 37/78/3
f 14/26/4 17/31/4 35/75/4 36/76/4
f 45/91/1 44/89/1 68/143/1 69/144/1
f 60/124/6 62/129/6 86/168/6 84/163/6
f 52/104/7 63/131/7 87/171/7 76/152/7
f 43/87/8 42/86/8 66/140/8 67/142/8
f 62/129/7 61/126/7 85/165/7 86/168/7
f 41/84/9 51/103/9 75/151/9 65/138/9
f 63/132/10 59/121/10 83/162/10 87/173/10
f 55/111/11 49/99/11 73/148/11 79/158/11
f 18/36/5 19/39/5 44/89/5 45/91/5
f 68/143/2 70/145/2 73/148/2 80/159/2 72/147/2 69/144/2
f 72/147/2 80/159/2 81/160/2 78/157/2
f 65/137/2 76/153/2 87/172/2 86/169/2 85/166/2 74/149/2 67/141/2 66/139/2
f 78/157/2 81/160/2 79/158/2 71/146/2 77/156/2 82/161/2 84/164/2 83/162/2 88/175/2 75/151/2
f 79/158/2 73/148/2 70/145/2 71/146/2
f 75/151/2 88/175/2 76/154/2 65/138/2
f 85/167/2 82/161/2 77/156/2 74/150/2
f 87/173/2 83/162/2 84/164/2 86/170/2
f 47/95/12 53/107/12 77/156/12 71/146/12
f 58/119/13 60/125/13 84/164/13 82/161/13
f 44/89/14 46/93/14 70/145/14 68/143/14
f 56/114/15 57/117/15 81/160/15 80/159/15
f 64/135/16 52/106/16 76/155/16 88/174/16
f 54/109/4 48/97/4 72/147/4 78/157/4
f 46/93/17 47/95/17 71/146/17 70/145/17
f 53/107/18 50/101/18 74/150/18 77/156/18
f 61/128/19 58/120/19 82/161/19 85/167/19
f 48/97/4 45/91/4 69/144/4 72/147/4
f 51/103/20 54/109/20 78/157/20 75/151/20
f 49/100/21 56/115/21 80/159/21 73/148/21
f 57/118/22 55/112/22 79/158/22 81/160/22
f 59/123/13 64/136/13 88/175/13 83/162/13
f 50/101/23 43/87/23 67/142/23 74/150/23
f 42/86/24 41/84/24 65/138/24 66/140/24
usemtl building_front3-GLASS
f 57/116/2 56/113/2 49/98/2 55/110/2
f 62/130/2 60/125/2 58/119/2 61/127/2
f 52/105/2 64/134/2 59/122/2 63/133/2
