# Blender 3.3.1
# www.blender.org
mtllib building_front2.mtl
o building_front2
v -2.498701 0.006537 -0.000000
v 2.500201 0.006537 -0.000000
v -2.498701 2.505394 0.000000
v 2.500201 2.505394 0.000000
v -2.498701 2.317980 0.000000
v 2.500201 2.317980 0.000000
v -2.498701 1.936711 0.000000
v 2.500201 1.936711 0.000000
v -2.498701 1.189066 -0.000000
v 2.500201 1.189066 -0.000000
v -1.451508 1.936711 0.000000
v -1.451508 1.189066 -0.000000
v -2.246285 1.936711 0.000000
v -2.246285 1.189066 -0.000000
v 0.173766 1.936711 0.000000
v 0.173766 1.189066 -0.000000
v -0.618034 1.936711 0.000000
v -0.618034 1.189066 -0.000000
v 1.952424 1.189066 -0.000000
v 1.952424 1.936711 0.000000
v 1.160706 1.189066 -0.000000
v 1.160706 1.936711 0.000000
v 2.500201 2.317980 0.200927
v 2.500201 2.505394 0.200927
v -2.498701 2.505394 0.200927
v -2.498701 2.317980 0.200927
v -1.451508 1.936711 -0.059534
v -1.451508 1.189066 -0.059534
v -2.246285 1.936711 -0.059534
v -2.246285 1.189066 -0.059534
v 0.173766 1.189066 -0.059534
v 0.173766 1.936711 -0.059534
v -0.618034 1.936711 -0.059534
v -0.618034 1.189066 -0.059534
v 1.952424 1.189066 -0.059534
v 1.952424 1.936711 -0.059534
v 1.160706 1.189066 -0.059534
v 1.160706 1.936711 -0.059534
v -0.618949 1.135019 -0.030429
v -0.618949 1.135019 0.030429
v -0.618949 1.191944 -0.030429
v -0.618949 1.191944 0.030429
v 0.178197 1.135019 -0.030429
v 0.178197 1.135019 0.030429
v 0.178197 1.191944 -0.030429
v 0.178197 1.191944 0.030429
v -2.251997 1.134515 -0.030429
v -2.251997 1.134515 0.030429
v -2.251997 1.191441 -0.030429
v -2.251997 1.191441 0.030429
v -1.454852 1.134515 -0.030429
v -1.454852 1.134515 0.030429
v -1.454852 1.191441 -0.030429
v -1.454852 1.191441 0.030429
v 1.157147 1.136088 -0.030429
v 1.157147 1.136088 0.030429
v 1.157147 1.193014 -0.030429
v 1.157147 1.193014 0.030429
v 1.954292 1.136088 -0.030429
v 1.954292 1.136088 0.030429
v 1.954292 1.193014 -0.030429
v 1.954292 1.193014 0.030429
v -1.868888 1.936711 -0.059534
v -1.868887 1.189066 -0.059534
v -1.835870 1.189066 -0.059534
v -1.835870 1.936711 -0.059534
v -1.465889 1.936711 -0.059534
v -1.465889 1.189066 -0.059534
v -2.213125 1.936711 -0.059534
v -2.213125 1.189066 -0.059534
v -1.868887 1.240197 -0.059534
v -2.213125 1.240198 -0.059534
v -1.868887 1.546825 -0.059534
v -2.213125 1.546825 -0.059534
v -1.868887 1.583000 -0.059534
v -2.213125 1.583000 -0.059534
v -1.868888 1.889627 -0.059534
v -2.213125 1.889627 -0.059534
v -1.835870 1.910299 -0.059534
v -1.465889 1.910299 -0.059534
v -1.835870 1.222971 -0.059534
v -1.465889 1.222971 -0.059534
v -0.251400 1.936711 -0.059534
v -0.251400 1.189066 -0.059534
v -0.218670 1.936711 -0.059534
v -0.218670 1.189066 -0.059534
v -0.599370 1.936711 -0.059534
v -0.599370 1.189066 -0.059534
v -0.251400 1.237097 -0.059534
v -0.599370 1.237097 -0.059534
v -0.251400 1.550615 -0.059534
v -0.599370 1.550615 -0.059534
v -0.251400 1.581478 -0.059534
v -0.599370 1.581478 -0.059534
v -0.251400 1.891694 -0.059534
v -0.599370 1.891694 -0.059534
v 0.141358 1.189066 -0.059534
v 0.141358 1.936711 -0.059534
v 0.141358 1.223316 -0.059534
v -0.218670 1.223316 -0.059534
v 0.141358 1.902030 -0.059534
v -0.218670 1.902030 -0.059534
v 1.529795 1.189066 -0.059534
v 1.529794 1.936711 -0.059534
v 1.567692 1.936711 -0.059534
v 1.567692 1.189066 -0.059534
v 1.185269 1.189066 -0.059534
v 1.185269 1.936711 -0.059534
v 1.185269 1.234685 -0.059534
v 1.529795 1.234685 -0.059534
v 1.185269 1.551526 -0.059534
v 1.529795 1.551526 -0.059534
v 1.185269 1.579394 -0.059534
v 1.529795 1.579394 -0.059534
v 1.185269 1.886268 -0.059534
v 1.529794 1.886268 -0.059534
v 1.932889 1.189066 -0.059534
v 1.932889 1.936711 -0.059534
v 1.932889 1.210138 -0.059534
v 1.567692 1.210138 -0.059534
v 1.932889 1.903494 -0.059534
v 1.567692 1.903494 -0.059534
v 2.223996 1.996922 -0.004511
v 2.206943 2.025820 -0.004511
v 2.209629 2.000794 -0.004511
v 2.203387 2.011371 -0.004511
v 2.206943 2.025820 0.093058
v 2.223996 1.996922 0.093058
v 2.203387 2.011371 0.093058
v 2.209629 2.000794 0.093058
v 2.279581 2.157365 -0.004511
v 2.311495 2.157365 -0.004511
v 2.289697 2.167943 -0.004511
v 2.301379 2.167943 -0.004511
v 2.311495 2.157365 0.093058
v 2.279581 2.157365 0.093058
v 2.301379 2.167943 0.093058
v 2.289697 2.167943 0.093058
v 2.384133 2.025820 -0.004511
v 2.367080 1.996922 -0.004511
v 2.387689 2.011371 -0.004511
v 2.381447 2.000794 -0.004511
v 2.367080 1.996922 0.093058
v 2.384133 2.025820 0.093058
v 2.381447 2.000794 0.093058
v 2.387689 2.011371 0.093058
vn 0.5774 -0.5774 0.5774
vn 0.7071 0.7071 -0.0000
vn 0.5774 0.5774 0.5774
vn -0.0000 -0.0000 1.0000
vn 0.3015 -0.3015 0.9045
vn -0.3015 -0.3015 0.9045
vn -0.5774 -0.5774 0.5774
vn 0.3015 0.3015 0.9045
vn -0.3015 0.3015 0.9045
vn 0.1312 -0.9914 -0.0000
vn 0.0964 -0.7280 0.6787
vn -0.0964 -0.7280 0.6787
vn -0.1312 -0.9914 -0.0000
vn -0.5774 0.5774 0.5774
vn -0.0000 0.7071 0.7071
vn 0.5914 0.4347 0.6792
vn 0.3057 0.7153 0.6284
vn -0.3057 0.7153 0.6284
vn -0.5914 0.4347 0.6792
vn -0.6839 0.2676 0.6787
vn -0.7674 -0.1128 0.6312
vn -0.4697 -0.6173 0.6312
vn 0.4697 -0.6173 0.6312
vn 0.7674 -0.1128 0.6312
vn 0.6839 0.2676 0.6787
vn -0.7071 0.7071 -0.0000
vn 0.8058 0.5922 -0.0000
vn 0.9313 0.3643 -0.0000
vn 0.5773 0.5773 0.5774
vn -0.0000 -0.7071 0.7072
vn -0.0000 -0.7071 0.7071
vn -0.5774 0.5773 0.5774
vn -0.7071 -0.7071 -0.0000
vn 0.7071 -0.7071 -0.0000
vn -0.6055 -0.7958 -0.0000
vn -0.9894 -0.1454 -0.0000
vn -0.9313 0.3643 -0.0000
vn 0.3929 0.9196 -0.0000
vn -0.3929 0.9196 -0.0000
vn -0.8058 0.5922 -0.0000
vn 0.6055 -0.7958 -0.0000
vn 0.9894 -0.1454 -0.0000
vt 0.000000 0.000000
vt 1.000000 0.000000
vt 0.000115 1.000130
vt 0.000370 0.999507
vt 0.949707 1.000135
vt 0.999656 1.000130
vt 0.000000 0.925000
vt 0.000000 0.969181
vt 0.000370 0.925692
vt 0.950744 0.925818
vt 1.000000 0.925000
vt 1.000000 0.969181
vt 0.000000 0.772423
vt 1.000000 0.772423
vt 0.000000 0.473228
vt 1.000000 0.473228
vt 0.208983 0.772423
vt 0.208983 0.795676
vt 0.208983 0.473228
vt 0.208983 0.456627
vt 0.049636 0.772423
vt 0.046218 0.772423
vt 0.049636 0.795676
vt 0.049636 0.473228
vt 0.046218 0.473228
vt 0.049636 0.456627
vt 0.534839 0.772423
vt 0.544374 0.772423
vt 0.534839 0.797226
vt 0.534839 0.473228
vt 0.544374 0.473228
vt 0.534839 0.455387
vt 0.376089 0.772423
vt 0.366323 0.772423
vt 0.376089 0.797226
vt 0.376089 0.473228
vt 0.366323 0.473228
vt 0.376089 0.455387
vt 0.891447 0.455387
vt 0.891447 0.473228
vt 0.901213 0.473228
vt 0.891447 0.772423
vt 0.891447 0.796280
vt 0.901213 0.772423
vt 0.732713 0.455387
vt 0.732713 0.473228
vt 0.723680 0.473228
vt 0.732713 0.772423
vt 0.732713 0.796280
vt 0.723680 0.772423
vt 0.999512 0.925730
vt 1.000000 0.928876
vt 1.000000 0.928100
vt 0.999534 0.999552
vt 1.000000 1.000000
vt 0.999656 0.928086
vt 0.000000 1.000000
vt 0.000115 0.928086
vt 0.040415 0.999507
vt 0.000000 0.928876
vt 0.000000 0.928100
vt 0.040415 0.925692
vt 0.218284 0.772423
vt 0.208983 0.772423
vt 0.218284 0.473228
vt 0.208983 0.473228
vt 0.038079 0.772423
vt 0.049636 0.772423
vt 0.038079 0.473228
vt 0.049636 0.473228
vt 0.534839 0.473228
vt 0.534839 0.777344
vt 0.534839 0.772423
vt 0.376089 0.772423
vt 0.376089 0.777344
vt 0.376089 0.473228
vt 0.894377 0.473228
vt 0.891447 0.473228
vt 0.891447 0.775352
vt 0.894377 0.772423
vt 0.891447 0.772423
vt 0.732713 0.473228
vt 0.731248 0.473228
vt 0.732713 0.772423
vt 0.732713 0.775352
vt 0.731248 0.772423
vt 0.378875 0.452749
vt 0.378875 0.474452
vt 0.378875 0.452749
vt 0.378875 0.473112
vt 0.378875 0.452959
vt 0.378875 0.473112
vt 0.542201 0.452749
vt 0.542201 0.474452
vt 0.542201 0.452749
vt 0.542201 0.473112
vt 0.542201 0.452959
vt 0.542201 0.473112
vt 0.049220 0.454304
vt 0.049220 0.476007
vt 0.049220 0.454304
vt 0.049220 0.474509
vt 0.049220 0.454356
vt 0.049220 0.474509
vt 0.208169 0.454304
vt 0.208169 0.476007
vt 0.208169 0.454304
vt 0.208169 0.474509
vt 0.208169 0.454356
vt 0.208169 0.474509
vt 0.732267 0.453641
vt 0.732267 0.475343
vt 0.732267 0.453641
vt 0.732267 0.472518
vt 0.732267 0.453528
vt 0.732267 0.472518
vt 0.892812 0.453641
vt 0.892812 0.475343
vt 0.892812 0.453641
vt 0.892812 0.472518
vt 0.892812 0.453528
vt 0.892812 0.472518
vt 0.125014 0.772423
vt 0.125014 0.473228
vt 0.131921 0.473228
vt 0.131921 0.772423
vt 0.205140 0.772423
vt 0.205140 0.473228
vt 0.056259 0.772423
vt 0.056259 0.473228
vt 0.125014 0.490932
vt 0.056259 0.490932
vt 0.125014 0.614854
vt 0.056259 0.614853
vt 0.125014 0.629473
vt 0.056259 0.629473
vt 0.125014 0.753394
vt 0.056259 0.753394
vt 0.131921 0.761853
vt 0.205140 0.761853
vt 0.131921 0.486796
vt 0.205140 0.486796
vt 0.449596 0.777344
vt 0.449596 0.772423
vt 0.449596 0.473228
vt 0.456158 0.777344
vt 0.456158 0.772423
vt 0.456158 0.473228
vt 0.379831 0.777344
vt 0.379831 0.772423
vt 0.379831 0.473228
vt 0.449596 0.492449
vt 0.379831 0.492449
vt 0.449596 0.617914
vt 0.379831 0.617914
vt 0.449596 0.631701
vt 0.379831 0.631701
vt 0.449596 0.754590
vt 0.379831 0.754590
vt 0.528341 0.473228
vt 0.528341 0.777344
vt 0.528341 0.772423
vt 0.528341 0.486934
vt 0.456158 0.486934
vt 0.528341 0.758544
vt 0.456158 0.758544
vt 0.806713 0.473228
vt 0.806713 0.775352
vt 0.806713 0.772423
vt 0.814311 0.775352
vt 0.814311 0.772423
vt 0.814311 0.473228
vt 0.737638 0.473228
vt 0.737638 0.775352
vt 0.737638 0.772423
vt 0.737638 0.491484
vt 0.806713 0.491484
vt 0.737638 0.616948
vt 0.806713 0.616948
vt 0.737638 0.631425
vt 0.806713 0.631425
vt 0.737638 0.752518
vt 0.806713 0.752518
vt 0.887530 0.473228
vt 0.887530 0.775352
vt 0.887530 0.772423
vt 0.887530 0.481661
vt 0.814311 0.481661
vt 0.887530 0.759130
vt 0.814311 0.759130
vt 0.966271 0.798299
vt 0.971497 0.804015
vt 0.969457 0.800021
vt 0.971850 0.801989
vt 0.971099 0.800527
vt 0.948041 0.816462
vt 0.967154 0.800961
vt 0.966616 0.803088
vt 0.950405 0.808451
vt 0.969855 0.806307
vt 0.947548 0.812457
vt 0.969332 0.801641
vt 0.948413 0.809525
vt 0.970328 0.803598
vt 0.967073 0.803367
vt 0.953078 0.800343
vt 0.967567 0.803374
vt 0.967223 0.803688
vt 0.967404 0.803690
vt 0.962533 0.852930
vt 0.968304 0.805151
vt 0.958109 0.852930
vt 0.967652 0.805142
vt 0.945680 0.801343
vt 0.961131 0.855862
vt 0.968086 0.805561
vt 0.959512 0.855862
vt 0.967848 0.805558
vt 0.968830 0.799278
vt 0.968586 0.798331
vt 0.968903 0.798809
vt 0.968814 0.798462
vt 0.969708 0.803132
vt 0.970238 0.808451
vt 0.969708 0.798518
vt 0.972602 0.816462
vt 0.970022 0.799777
vt 0.972230 0.809525
vt 0.970011 0.798692
vt 0.973095 0.812457
vt 0.970125 0.799155
s 1
usemtl building_front2
f 6/10/1 4/5/2 24/54/3 23/51/1
f 7/13/4 13/21/5 11/17/6 17/33/5 15/27/6 22/48/5 20/42/6 8/14/4 6/11/1 5/7/7
f 9/15/4 14/24/8 13/21/5 7/13/4
f 1/1/4 2/2/4 10/16/4 19/40/9 21/46/8 16/30/9 18/36/8 12/19/9 14/24/8 9/15/4
f 140/220/10 143/223/11 128/198/12 123/191/13
f 11/17/6 12/19/9 18/36/8 17/33/5
f 21/45/8 19/39/9 35/78/14 117/184/15 106/172/15 103/167/15 107/173/15 37/82/3
f 15/27/6 16/30/9 21/46/8 22/48/5
f 16/31/9 15/28/6 32/73/7 31/71/14
f 20/42/6 19/40/9 10/16/4 8/14/4
f 17/34/5 18/37/8 34/76/3 33/74/1
f 26/60/7 23/52/1 24/55/3 25/57/14
f 135/210/16 137/215/17 138/217/18 136/212/19 127/196/20 129/201/21 130/203/22 128/199/12 143/224/11 145/228/23 146/230/24 144/226/25
f 4/6/2 3/3/26 25/58/14 24/56/3
f 132/207/27 135/211/16 144/227/25 139/219/28
f 5/8/7 6/12/1 23/53/1 26/61/7
f 3/4/26 5/9/7 26/62/7 25/59/14
f 29/68/1 30/70/29 70/130/15 72/132/4 74/134/4 76/136/4 78/138/4 69/129/30
f 33/74/1 34/76/3 88/151/15 90/153/4 92/155/4 94/157/4 96/159/4 87/150/31
f 38/84/1 37/82/3 107/173/15 109/176/4 111/178/4 113/180/4 115/182/4 108/175/31
f 13/22/5 14/25/8 30/69/29 29/67/1
f 12/19/9 11/17/6 27/63/7 28/65/32
f 15/29/6 17/35/5 33/75/1 87/149/31 83/143/31 85/146/31 98/161/31 32/72/7
f 20/43/6 22/49/5 38/85/1 108/174/31 104/168/31 105/170/31 118/185/31 36/79/7
f 11/18/6 13/23/5 29/68/1 69/129/30 63/123/31 66/126/31 67/127/31 27/64/7
f 18/38/8 16/32/9 31/71/14 97/160/15 86/148/15 84/145/15 88/151/15 34/76/3
f 22/50/5 21/47/8 37/83/3 38/86/1
f 19/41/9 20/44/6 36/80/7 35/77/14
f 14/26/8 12/20/9 28/66/32 68/128/15 65/125/15 64/124/15 70/130/15 30/70/29
f 39/87/33 40/89/7 42/92/14 41/90/26
f 41/90/26 42/91/14 46/97/3 45/96/2
f 45/96/2 46/98/3 44/95/1 43/93/34
f 43/93/34 44/94/1 40/88/7 39/87/33
f 46/98/3 42/92/14 40/89/7 44/95/1
f 47/99/33 48/101/7 50/104/14 49/102/26
f 49/102/26 50/103/14 54/109/3 53/108/2
f 53/108/2 54/110/3 52/107/1 51/105/34
f 51/105/34 52/106/1 48/100/7 47/99/33
f 54/110/3 50/104/14 48/101/7 52/107/1
f 55/111/33 56/113/7 58/116/14 57/114/26
f 57/114/26 58/115/14 62/121/3 61/120/2
f 61/120/2 62/122/3 60/119/1 59/117/34
f 59/117/34 60/118/1 56/112/7 55/111/33
f 62/122/3 58/116/14 56/113/7 60/119/1
f 63/123/31 77/137/4 75/135/4 73/133/4 71/131/4 64/124/15 65/125/15 81/141/4 79/139/4 66/126/31
f 66/126/31 79/139/4 80/140/4 67/127/31
f 67/127/31 80/140/4 82/142/4 68/128/15 28/66/32 27/64/7
f 69/129/30 78/138/4 77/137/4 63/123/31
f 71/131/4 72/132/4 70/130/15 64/124/15
f 75/135/4 76/136/4 74/134/4 73/133/4
f 82/142/4 81/141/4 65/125/15 68/128/15
f 83/144/31 95/158/4 93/156/4 91/154/4 89/152/4 84/145/15 86/148/15 100/164/4 102/166/4 85/147/31
f 85/147/31 102/166/4 101/165/4 98/162/31
f 87/150/31 96/159/4 95/158/4 83/144/31
f 89/152/4 90/153/4 88/151/15 84/145/15
f 93/156/4 94/157/4 92/155/4 91/154/4
f 98/162/31 101/165/4 99/163/4 97/160/15 31/71/14 32/73/7
f 99/163/4 100/164/4 86/148/15 97/160/15
f 104/169/31 116/183/4 114/181/4 112/179/4 110/177/4 103/167/15 106/172/15 120/188/4 122/190/4 105/171/31
f 105/171/31 122/190/4 121/189/4 118/186/31
f 108/175/31 115/182/4 116/183/4 104/169/31
f 110/177/4 109/176/4 107/173/15 103/167/15
f 114/181/4 113/180/4 111/178/4 112/179/4
f 118/186/31 121/189/4 119/187/4 117/184/15 35/78/14 36/81/7
f 119/187/4 120/188/4 106/172/15 117/184/15
f 123/192/13 128/200/12 130/204/22 125/194/35
f 125/194/35 130/204/22 129/202/21 126/195/36
f 126/195/36 129/202/21 127/197/20 124/193/37
f 135/211/16 132/207/27 134/209/38 137/216/17
f 137/216/17 134/209/38 133/208/39 138/218/18
f 138/218/18 133/208/39 131/205/40 136/213/19
f 143/225/11 140/220/10 142/222/41 145/229/23
f 145/229/23 142/222/41 141/221/42 146/231/24
f 146/231/24 141/221/42 139/219/28 144/227/25
f 124/193/37 127/197/20 136/214/19 131/206/40
usemtl building_front2-GLASS
f 73/133/4 74/134/4 72/132/4 71/131/4
f 77/137/4 78/138/4 76/136/4 75/135/4
f 80/140/4 79/139/4 81/141/4 82/142/4
f 91/154/4 92/155/4 90/153/4 89/152/4
f 95/158/4 96/159/4 94/157/4 93/156/4
f 101/165/4 102/166/4 100/164/4 99/163/4
f 112/179/4 111/178/4 109/176/4 110/177/4
f 116/183/4 115/182/4 113/180/4 114/181/4
f 121/189/4 122/190/4 120/188/4 119/187/4
