# Blender 3.3.1
# www.blender.org
mtllib CablesDeLaLuz.mtl
o CablesDeLaLuz
v 0.000000 -0.015988 -0.474057
v 0.000000 16.046318 -0.474057
v 0.048997 -0.015988 -0.469231
v 0.048997 16.046318 -0.469231
v 0.096111 -0.015988 -0.454939
v 0.096111 16.046318 -0.454939
v 0.139532 -0.015988 -0.431730
v 0.139532 16.046318 -0.431730
v 0.177591 -0.015988 -0.400496
v 0.177591 16.046318 -0.400496
v 0.208825 -0.015988 -0.362438
v 0.208825 16.046318 -0.362438
v 0.232034 -0.015988 -0.319017
v 0.232034 16.046318 -0.319017
v 0.246325 -0.015988 -0.271903
v 0.246325 16.046318 -0.271903
v 0.251151 -0.015988 -0.222905
v 0.251151 16.046318 -0.222905
v 0.246325 -0.015988 -0.173908
v 0.246325 16.046318 -0.173908
v 0.232034 -0.015988 -0.126794
v 0.232034 16.046318 -0.126794
v 0.208825 -0.015988 -0.083373
v 0.208825 16.046318 -0.083373
v 0.177591 -0.015988 -0.045315
v 0.177591 16.046318 -0.045315
v 0.139532 -0.015988 -0.014081
v 0.139532 16.046318 -0.014081
v 0.096111 -0.015988 0.009128
v 0.096111 16.046318 0.009128
v 0.048997 -0.015988 0.023420
v 0.048997 16.046318 0.023420
v 0.000000 -0.015988 0.028246
v 0.000000 16.046318 0.028246
v -0.048997 -0.015988 0.023420
v -0.048997 16.046318 0.023420
v -0.096111 -0.015988 0.009128
v -0.096111 16.046318 0.009128
v -0.139532 -0.015988 -0.014081
v -0.139532 16.046318 -0.014081
v -0.177591 -0.015988 -0.045315
v -0.177591 16.046318 -0.045315
v -0.208825 -0.015988 -0.083373
v -0.208825 16.046318 -0.083373
v -0.232034 -0.015988 -0.126794
v -0.232034 16.046318 -0.126794
v -0.246325 -0.015988 -0.173908
v -0.246325 16.046318 -0.173908
v -0.251151 -0.015988 -0.222905
v -0.251151 16.046318 -0.222905
v -0.246325 -0.015988 -0.271903
v -0.246325 16.046318 -0.271903
v -0.232034 -0.015988 -0.319017
v -0.232034 16.046318 -0.319017
v -0.208825 -0.015988 -0.362438
v -0.208825 16.046318 -0.362438
v -0.177591 -0.015988 -0.400496
v -0.177591 16.046318 -0.400496
v -0.139532 -0.015988 -0.431730
v -0.139532 16.046318 -0.431730
v -0.096111 -0.015988 -0.454939
v -0.096111 16.046318 -0.454939
v -0.048997 -0.015988 -0.469231
v -0.048997 16.046318 -0.469231
v -2.011391 15.442791 0.101004
v -2.011391 15.727388 0.101004
v -2.011391 15.442791 -0.052336
v -2.011391 15.727388 -0.052336
v 1.931557 15.442791 0.101004
v 1.931557 15.727388 0.101004
v 1.931557 15.442791 -0.052336
v 1.931557 15.727388 -0.052336
v -1.331462 15.689547 0.057153
v -1.331462 15.807080 0.057153
v -1.331462 15.689547 -0.018621
v -1.331462 15.807080 -0.018621
v -1.255688 15.689547 0.057153
v -1.255688 15.807080 0.057153
v -1.255688 15.689547 -0.018621
v -1.255688 15.807080 -0.018621
v -1.361547 15.835653 0.087238
v -1.361547 15.835653 -0.048705
v -1.238568 15.867186 -0.036422
v -1.225604 15.835653 0.087238
v -1.304884 15.905987 0.030575
v -1.304884 15.905987 0.007957
v -1.282266 15.905987 0.007957
v -1.282266 15.905987 0.030575
v -0.786375 15.689547 0.057153
v -0.786375 15.807080 0.057153
v -0.786375 15.689547 -0.018621
v -0.786375 15.807080 -0.018621
v -0.710601 15.689547 0.057153
v -0.710601 15.807080 0.057153
v -0.710601 15.689547 -0.018621
v -0.710601 15.807080 -0.018621
v -0.816460 15.835653 0.087238
v -0.816460 15.835653 -0.048705
v -0.680517 15.873222 -0.020086
v -0.680517 15.835653 0.087238
v -0.759797 15.905987 0.030575
v -0.759797 15.905987 0.007957
v -0.737180 15.905987 0.007957
v -0.737180 15.905987 0.030575
v 0.936803 15.689547 0.057153
v 0.936803 15.807080 0.057153
v 0.936803 15.689547 -0.018621
v 0.936803 15.807080 -0.018621
v 1.012576 15.689547 0.057153
v 1.012576 15.807080 0.057153
v 1.012576 15.689547 -0.018621
v 1.012576 15.807080 -0.018621
v 0.906718 15.835653 0.087238
v 0.906718 15.835653 -0.048705
v 0.996182 15.853074 -0.035849
v 1.042661 15.835653 0.087238
v 0.963381 15.905987 0.030575
v 0.963381 15.905987 0.007957
v 0.985998 15.905987 0.007957
v 0.985998 15.905987 0.030575
v -1.361547 14.922798 -23.384846
v -1.225604 15.012565 -23.384846
v -0.816460 14.922798 -23.384846
v -0.680517 15.032263 -23.384846
v 0.906718 14.922798 -23.384846
v 0.996182 15.014101 -23.384846
v -1.361547 14.501480 -34.549767
v -1.225604 14.591247 -34.549767
v -0.816460 14.501480 -34.549767
v -0.680517 14.610945 -34.549767
v 0.906718 14.501480 -34.549767
v 0.996182 14.592783 -34.549767
v -1.361547 14.361041 -45.433811
v -1.225604 14.450808 -45.433811
v -0.816460 14.361041 -45.433811
v -0.680517 14.470506 -45.433811
v 0.906718 14.361041 -45.433811
v 0.996182 14.452344 -45.433811
v -1.361547 14.361041 -58.354225
v -1.225604 14.450808 -58.354225
v -0.816460 14.361041 -58.354225
v -0.680517 14.470506 -58.354225
v 0.906718 14.361041 -58.354225
v 0.996182 14.452344 -58.354225
v -1.361547 14.993018 -79.560555
v -1.225604 15.082785 -79.560555
v -0.816460 14.993018 -79.560555
v -0.680517 15.102483 -79.560555
v 0.906718 14.993018 -79.560555
v 0.996182 15.084321 -79.560555
v -1.361547 15.976093 -99.713593
v -1.225604 16.065859 -99.713593
v -0.816460 15.976093 -99.713593
v -0.680517 16.085558 -99.713593
v 0.906718 15.976093 -99.713593
v 0.996182 16.067396 -99.713593
v 0.906718 15.813476 -0.020086
v 0.906718 14.993897 -23.384846
v 0.906718 14.572579 -34.549767
v 0.906718 14.432140 -45.433811
v 0.906718 14.432140 -58.354225
v 0.906718 15.064117 -79.560555
v 0.906718 16.047192 -99.713593
v -0.816460 15.864848 -0.020086
v -0.816460 15.045270 -23.384846
v -0.816460 14.623952 -34.549767
v -0.816460 14.483513 -45.433811
v -0.816460 14.483513 -58.354225
v -0.816460 15.115490 -79.560555
v -0.816460 16.098564 -99.713593
v -1.334349 15.867668 -0.020086
v -1.361547 15.048090 -23.384846
v -1.361547 14.590551 -34.549767
v -1.361547 14.450112 -45.433811
v -1.361547 14.450112 -58.354225
v -1.361547 15.082089 -79.560555
v -1.361547 16.065165 -99.713593
v 0.097765 15.608893 0.143898
v 0.097765 15.608893 0.083254
v -0.024446 15.630892 0.083254
v -0.024446 15.630892 0.143898
v -0.006624 15.625101 0.083254
v -0.006624 15.625101 0.143898
v 0.004391 15.609940 0.083254
v 0.004391 15.609940 0.143898
v 0.004391 15.591200 0.083254
v 0.004391 15.591200 0.143898
v -0.006624 15.576039 0.083254
v -0.006624 15.576039 0.143898
v -0.024446 15.570249 0.083254
v -0.024446 15.570249 0.143898
v -0.042269 15.576039 0.083254
v -0.042269 15.576039 0.143898
v -0.053284 15.591200 0.083254
v -0.053284 15.591200 0.143898
v -0.053284 15.609940 0.083254
v -0.053284 15.609940 0.143898
v -0.042269 15.625101 0.083254
v -0.042269 15.625101 0.143898
v 0.115588 15.603103 0.083254
v 0.115588 15.603103 0.143898
v 0.126603 15.587941 0.083254
v 0.126603 15.587941 0.143898
v 0.126603 15.569201 0.083254
v 0.126603 15.569201 0.143898
v 0.115588 15.554041 0.083254
v 0.115588 15.554041 0.143898
v 0.097765 15.548250 0.083254
v 0.097765 15.548250 0.143898
v 0.079943 15.554041 0.083254
v 0.079943 15.554041 0.143898
v 0.068928 15.569201 0.083254
v 0.068928 15.569201 0.143898
v 0.068928 15.587941 0.083254
v 0.068928 15.587941 0.143898
v 0.079943 15.603103 0.083254
v 0.079943 15.603103 0.143898
v -0.046445 15.525789 0.143898
v -0.046445 15.525789 0.083254
v -0.028622 15.519999 0.083254
v -0.028622 15.519999 0.143898
v -0.017607 15.504837 0.083254
v -0.017607 15.504837 0.143898
v -0.017607 15.486097 0.083254
v -0.017607 15.486097 0.143898
v -0.028622 15.470937 0.083254
v -0.028622 15.470937 0.143898
v -0.046445 15.465146 0.083254
v -0.046445 15.465146 0.143898
v -0.064267 15.470937 0.083254
v -0.064267 15.470937 0.143898
v -0.075282 15.486097 0.083254
v -0.075282 15.486097 0.143898
v -0.075282 15.504837 0.083254
v -0.075282 15.504837 0.143898
v -0.064267 15.519999 0.083254
v -0.064267 15.519999 0.143898
vn -0.0000 -0.0000 -1.0000
vn 0.1951 -0.0000 -0.9808
vn 0.3827 -0.0000 -0.9239
vn 0.5556 -0.0000 -0.8315
vn 0.7071 -0.0000 -0.7071
vn 0.8315 -0.0000 -0.5556
vn 0.9239 -0.0000 -0.3827
vn 0.9808 -0.0000 -0.1951
vn 1.0000 -0.0000 -0.0000
vn 0.9808 -0.0000 0.1951
vn 0.9239 -0.0000 0.3827
vn 0.8315 -0.0000 0.5556
vn 0.7071 -0.0000 0.7071
vn 0.5556 -0.0000 0.8315
vn 0.3827 -0.0000 0.9239
vn 0.1951 -0.0000 0.9808
vn -0.0000 -0.0000 1.0000
vn -0.1951 -0.0000 0.9808
vn -0.3827 -0.0000 0.9239
vn -0.5556 -0.0000 0.8315
vn -0.7071 -0.0000 0.7071
vn -0.8315 -0.0000 0.5556
vn -0.9239 -0.0000 0.3827
vn -0.9808 -0.0000 0.1951
vn -1.0000 -0.0000 -0.0000
vn -0.9808 -0.0000 -0.1951
vn -0.9239 -0.0000 -0.3827
vn -0.8315 -0.0000 -0.5556
vn -0.7071 -0.0000 -0.7071
vn -0.5556 -0.0000 -0.8315
vn -0.3827 -0.0000 -0.9239
vn -0.0000 1.0000 -0.0000
vn -0.1951 -0.0000 -0.9808
vn -0.0000 -1.0000 -0.0000
vn 0.0763 -0.2746 -0.9585
vn 0.0705 -0.2540 -0.9646
vn 0.9651 -0.2518 -0.0718
vn 0.9593 -0.2715 -0.0774
vn 0.7290 0.6796 0.0819
vn 0.1269 -0.4569 -0.8804
vn 0.8827 -0.4520 -0.1288
vn -0.6886 -0.7251 -0.0000
vn -0.0000 -0.7251 0.6887
vn -0.7787 0.6274 -0.0000
vn -0.0000 0.6274 0.7787
vn -0.0865 0.6823 -0.7259
vn 0.1075 -0.1843 -0.9770
vn 0.1032 -0.1769 -0.9788
vn 0.6265 0.7487 0.2165
vn 0.1813 -0.3108 -0.9330
vn 0.8535 -0.5105 -0.1048
vn -0.0110 0.6348 -0.7726
vn 0.0712 -0.2883 -0.9549
vn 0.0541 -0.2190 -0.9742
vn 0.9885 -0.0752 -0.1311
vn 0.9870 -0.0799 -0.1394
vn 0.8665 0.4467 -0.2230
vn 0.1181 -0.4785 -0.8701
vn 0.9620 -0.1358 -0.2367
vn -0.0099 0.6341 -0.7732
vn 0.5173 -0.8552 0.0321
vn 0.6223 -0.7822 0.0294
vn 0.6189 -0.7849 0.0295
vn 0.4727 -0.8806 0.0331
vn 0.5534 -0.8323 0.0313
vn 0.5510 -0.8339 0.0314
vn 0.4226 -0.9056 0.0344
vn 0.4889 -0.8717 0.0330
vn 0.4872 -0.8727 0.0330
vn 0.7141 -0.6998 0.0176
vn 0.7141 -0.6998 0.0178
vn 0.6270 -0.7787 0.0196
vn 0.6270 -0.7787 0.0198
vn 0.5509 -0.8343 0.0210
vn 0.5509 -0.8343 0.0212
vn 0.7143 -0.6999 0.0045
vn 0.6272 -0.7789 0.0050
vn 0.5510 -0.8345 0.0054
vn 0.7142 -0.6998 -0.0104
vn 0.7142 -0.6998 -0.0105
vn 0.6271 -0.7788 -0.0115
vn 0.6271 -0.7788 -0.0117
vn 0.5510 -0.8344 -0.0124
vn 0.5510 -0.8344 -0.0125
vn 0.7140 -0.6996 -0.0274
vn 0.7140 -0.6996 -0.0276
vn 0.6269 -0.7785 -0.0305
vn 0.6269 -0.7785 -0.0307
vn 0.5507 -0.8340 -0.0327
vn 0.5507 -0.8340 -0.0329
vn 0.7138 -0.6995 -0.0341
vn 0.6267 -0.7783 -0.0380
vn 0.5506 -0.8338 -0.0407
vn -0.9965 0.0839 -0.0028
vn -0.9852 0.1714 -0.0058
vn -0.9961 0.0881 -0.0030
vn 0.8090 -0.5878 -0.0000
vn 0.3090 0.9511 -0.0000
vn 0.8090 0.5878 -0.0000
vn -0.3090 -0.9511 -0.0000
vn -0.8090 -0.5878 -0.0000
vn 0.3090 -0.9511 -0.0000
vn -0.3090 0.9511 -0.0000
vn -0.8090 0.5878 -0.0000
vt 0.479101 0.038408
vt 0.500275 0.998258
vt 0.497598 0.038270
vt 0.524462 0.998265
vt 0.515688 0.037428
vt 0.548150 0.998302
vt 0.532712 0.035909
vt 0.570494 0.998370
vt 0.548046 0.033768
vt 0.590684 0.998466
vt 0.561116 0.031077
vt 0.607971 0.998587
vt 0.571415 0.027931
vt 0.621689 0.998729
vt 0.578532 0.024445
vt 0.631283 0.998886
vt 0.582163 0.020746
vt 0.636330 0.999054
vt 0.582128 0.016973
vt 0.636568 0.999225
vt 0.578384 0.013272
vt 0.631912 0.999393
vt 0.571035 0.009788
vt 0.622472 0.999552
vt 0.560334 0.006662
vt 0.608555 0.999695
vt 0.546676 0.004022
vt 0.590669 0.999816
vt 0.530586 0.001978
vt 0.569502 0.999909
vt 0.512703 0.000618
vt 0.545900 0.999972
vt 0.493745 0.000000
vt 0.520827 1.000000
vt 0.474486 0.000150
vt 0.495321 0.999993
vt 0.455710 0.001061
vt 0.470443 0.999951
vt 0.438179 0.002695
vt 0.447217 0.999876
vt 0.422596 0.004982
vt 0.426589 0.999772
vt 0.409574 0.007825
vt 0.409375 0.999641
vt 0.399608 0.011106
vt 0.396230 0.999492
vt 0.393062 0.014691
vt 0.387620 0.999329
vt 0.390152 0.018438
vt 0.383819 0.999159
vt 0.390949 0.022199
vt 0.384900 0.998988
vt 0.395379 0.025832
vt 0.390746 0.998824
vt 0.403234 0.029200
vt 0.401068 0.998672
vt 0.414184 0.032181
vt 0.415422 0.998538
vt 0.427797 0.034669
vt 0.433235 0.998426
vt 0.443553 0.036576
vt 0.453831 0.998340
vt 0.460866 0.037837
vt 0.476449 0.998284
vt -0.062221 0.149829
vt -0.065243 0.954407
vt -0.056238 0.158895
vt -0.056238 0.689062
vt -0.059174 0.950087
vt 1.061803 0.163702
vt 1.065243 0.947781
vt 1.049446 0.172316
vt 1.049446 0.702483
vt 1.052760 0.943681
vt 0.027611 0.000000
vt 0.027611 1.000000
vt 0.194361 0.000000
vt 0.194361 1.000000
vt 0.027611 0.250000
vt 0.194361 0.250000
vt 0.027611 0.750000
vt 0.194361 0.750000
vt 0.027611 0.500000
vt 0.194361 0.500000
vt 0.194361 0.000000
vt 0.194361 1.000000
vt 0.194361 0.250000
vt 0.677001 0.000295
vt 0.194361 0.500000
vt 0.675736 0.000151
vt 0.194361 0.750000
vt 0.361110 0.750000
vt 0.194361 0.000000
vt 0.194361 1.000000
vt 0.361110 0.500000
vt 0.194361 0.250000
vt 0.194361 0.500000
vt 0.194361 0.750000
vt 0.030894 0.000000
vt 0.030894 1.000000
vt 0.197643 0.000000
vt 0.197643 1.000000
vt 0.030894 0.250000
vt 0.197643 0.250000
vt 0.030894 0.750000
vt 0.197643 0.750000
vt 0.030894 0.500000
vt 0.197643 0.500000
vt 0.197643 0.000000
vt 0.197643 1.000000
vt 0.197643 0.250000
vt 0.549538 0.000336
vt 0.197643 0.500000
vt 0.548138 0.000000
vt 0.197643 0.750000
vt 0.364392 0.750000
vt 0.197643 0.000000
vt 0.197643 1.000000
vt 0.364392 0.500000
vt 0.197643 0.250000
vt 0.197643 0.500000
vt 0.197643 0.750000
vt 0.037459 0.000000
vt 0.037459 1.000000
vt 0.204209 0.000000
vt 0.204209 1.000000
vt 0.037459 0.250000
vt 0.204209 0.250000
vt 0.037459 0.750000
vt 0.204209 0.750000
vt 0.037459 0.500000
vt 0.204209 0.500000
vt 0.204209 0.000000
vt 0.204209 1.000000
vt 0.204209 0.250000
vt 0.558152 0.000279
vt 0.204209 0.500000
vt 0.557244 0.000137
vt 0.204209 0.750000
vt 0.370958 0.750000
vt 0.204209 0.000000
vt 0.204209 1.000000
vt 0.370958 0.500000
vt 0.204209 0.250000
vt 0.204209 0.500000
vt 0.204209 0.750000
vt 0.675369 0.233300
vt 0.673745 0.233254
vt 0.543859 0.233988
vt 0.542114 0.233904
vt 0.556698 0.233461
vt 0.555422 0.233418
vt 0.674624 0.344758
vt 0.672998 0.344729
vt 0.541172 0.345753
vt 0.539426 0.345687
vt 0.556024 0.345004
vt 0.554748 0.344975
vt 0.674500 0.453348
vt 0.672865 0.453342
vt 0.765265 0.250000
vt 0.539056 0.454658
vt 0.537299 0.454610
vt 0.765265 0.500000
vt 0.555752 0.453670
vt 0.554468 0.453662
vt 0.674727 0.583030
vt 0.673086 0.583052
vt 0.765265 0.250000
vt 0.538212 0.584791
vt 0.765265 0.500000
vt 0.536456 0.584865
vt 0.555663 0.583527
vt 0.554374 0.583542
vt 0.676516 0.796713
vt 0.364157 0.250000
vt 0.674876 0.796754
vt 0.543168 0.797368
vt 0.541420 0.797455
vt 0.556411 0.796475
vt 0.555128 0.796517
vt 0.676101 0.999959
vt 0.364157 0.250000
vt 0.674461 1.000000
vt 0.548598 0.999607
vt 0.546851 0.999708
vt 0.557673 0.999109
vt 0.556391 0.999162
vt 0.558387 0.000000
vt 0.557407 0.233438
vt 0.556734 0.344989
vt 0.556467 0.453667
vt 0.556380 0.583536
vt 0.557124 0.796499
vt 0.558387 0.999139
vt 0.549826 0.000045
vt 0.545085 0.233971
vt 0.542398 0.345749
vt 0.540290 0.454666
vt 0.539446 0.584799
vt 0.544395 0.797386
vt 0.549826 0.999634
vt 0.677413 0.000000
vt 0.676619 0.233260
vt 0.675512 0.344739
vt 0.675394 0.453342
vt 0.675624 0.583039
vt 0.677413 0.796732
vt 0.364157 0.250000
vt 0.364157 0.250000
vt 0.250000 0.490000
vt -0.000000 1.000000
vt 1.000000 1.000000
vt 0.750000 0.490000
vt -0.000000 0.500000
vt 1.000000 0.500000
vt 1.000000 0.500000
vt -0.000000 0.500000
vt 0.750000 0.490000
vt 1.000000 1.000000
vt 0.250000 0.490000
vt -0.000000 1.000000
vt 0.900000 0.500000
vt 0.891068 0.444164
vt 0.900000 1.000000
vt 0.391068 0.444164
vt 0.800000 0.500000
vt 0.978254 0.324164
vt 0.800000 1.000000
vt 0.478254 0.324164
vt 0.700000 0.500000
vt 0.978254 0.175836
vt 0.700000 1.000000
vt 0.478254 0.175836
vt 0.600000 0.500000
vt 0.891068 0.055836
vt 0.600000 1.000000
vt 0.391068 0.055836
vt 0.500000 0.500000
vt 0.750000 0.010000
vt 0.500000 1.000000
vt 0.250000 0.010000
vt 0.400000 0.500000
vt 0.608932 0.055836
vt 0.400000 1.000000
vt 0.108932 0.055836
vt 0.300000 0.500000
vt 0.521746 0.175836
vt 0.300000 1.000000
vt 0.021746 0.175836
vt 0.200000 0.500000
vt 0.521746 0.324164
vt 0.021746 0.324164
vt 0.200000 1.000000
vt 0.100000 0.500000
vt 0.608932 0.444164
vt 0.108932 0.444164
vt 0.100000 1.000000
vt 0.891068 0.444164
vt 0.900000 0.500000
vt 0.391068 0.444164
vt 0.900000 1.000000
vt 0.978254 0.324164
vt 0.800000 0.500000
vt 0.478254 0.324164
vt 0.800000 1.000000
vt 0.978254 0.175836
vt 0.700000 0.500000
vt 0.478254 0.175836
vt 0.700000 1.000000
vt 0.600000 0.500000
vt 0.891068 0.055836
vt 0.391068 0.055836
vt 0.600000 1.000000
vt 0.500000 0.500000
vt 0.750000 0.010000
vt 0.250000 0.010000
vt 0.500000 1.000000
vt 0.400000 0.500000
vt 0.608932 0.055836
vt 0.108932 0.055836
vt 0.400000 1.000000
vt 0.300000 0.500000
vt 0.521746 0.175836
vt 0.021746 0.175836
vt 0.300000 1.000000
vt 0.521746 0.324164
vt 0.200000 0.500000
vt 0.021746 0.324164
vt 0.200000 1.000000
vt 0.608932 0.444164
vt 0.100000 0.500000
vt 0.108932 0.444164
vt 0.100000 1.000000
vt 0.250000 0.490000
vt -0.000000 1.000000
vt 1.000000 1.000000
vt 0.750000 0.490000
vt -0.000000 0.500000
vt 1.000000 0.500000
vt 0.891068 0.444164
vt 0.900000 0.500000
vt 0.391068 0.444164
vt 0.900000 1.000000
vt 0.978254 0.324164
vt 0.800000 0.500000
vt 0.478254 0.324164
vt 0.800000 1.000000
vt 0.978254 0.175836
vt 0.700000 0.500000
vt 0.478254 0.175836
vt 0.700000 1.000000
vt 0.891068 0.055836
vt 0.600000 0.500000
vt 0.391068 0.055836
vt 0.600000 1.000000
vt 0.750000 0.010000
vt 0.500000 0.500000
vt 0.250000 0.010000
vt 0.500000 1.000000
vt 0.608932 0.055836
vt 0.400000 0.500000
vt 0.400000 1.000000
vt 0.108932 0.055836
vt 0.521746 0.175836
vt 0.300000 0.500000
vt 0.300000 1.000000
vt 0.021746 0.175836
vt 0.521746 0.324164
vt 0.200000 0.500000
vt 0.021746 0.324164
vt 0.200000 1.000000
vt 0.608932 0.444164
vt 0.100000 0.500000
vt 0.108932 0.444164
vt 0.100000 1.000000
s 1
usemtl Madera
f 1/1/1 2/2/1 4/4/2 3/3/2
f 3/3/2 4/4/2 6/6/3 5/5/3
f 5/5/3 6/6/3 8/8/4 7/7/4
f 7/7/4 8/8/4 10/10/5 9/9/5
f 9/9/5 10/10/5 12/12/6 11/11/6
f 11/11/6 12/12/6 14/14/7 13/13/7
f 13/13/7 14/14/7 16/16/8 15/15/8
f 15/15/8 16/16/8 18/18/9 17/17/9
f 17/17/9 18/18/9 20/20/10 19/19/10
f 19/19/10 20/20/10 22/22/11 21/21/11
f 21/21/11 22/22/11 24/24/12 23/23/12
f 23/23/12 24/24/12 26/26/13 25/25/13
f 25/25/13 26/26/13 28/28/14 27/27/14
f 27/27/14 28/28/14 30/30/15 29/29/15
f 29/29/15 30/30/15 32/32/16 31/31/16
f 31/31/16 32/32/16 34/34/17 33/33/17
f 33/33/17 34/34/17 36/36/18 35/35/18
f 35/35/18 36/36/18 38/38/19 37/37/19
f 37/37/19 38/38/19 40/40/20 39/39/20
f 39/39/20 40/40/20 42/42/21 41/41/21
f 41/41/21 42/42/21 44/44/22 43/43/22
f 43/43/22 44/44/22 46/46/23 45/45/23
f 45/45/23 46/46/23 48/48/24 47/47/24
f 47/47/24 48/48/24 50/50/25 49/49/25
f 49/49/25 50/50/25 52/52/26 51/51/26
f 51/51/26 52/52/26 54/54/27 53/53/27
f 53/53/27 54/54/27 56/56/28 55/55/28
f 55/55/28 56/56/28 58/58/29 57/57/29
f 57/57/29 58/58/29 60/60/30 59/59/30
f 59/59/30 60/60/30 62/62/31 61/61/31
f 4/4/32 2/2/32 64/64/32 62/62/32 60/60/32 58/58/32 56/56/32 54/54/32 52/52/32 50/50/32 48/48/32 46/46/32 44/44/32 42/42/32 40/40/32 38/38/32 36/36/32 34/34/32 32/32/32 30/30/32 28/28/32 26/26/32 24/24/32 22/22/32 20/20/32 18/18/32 16/16/32 14/14/32 12/12/32 10/10/32 8/8/32 6/6/32
f 61/61/31 62/62/31 64/64/33 63/63/33
f 63/63/33 64/64/33 2/2/1 1/1/1
f 1/1/34 3/3/34 5/5/34 7/7/34 9/9/34 11/11/34 13/13/34 15/15/34 17/17/34 19/19/34 21/21/34 23/23/34 25/25/34 27/27/34 29/29/34 31/31/34 33/33/34 35/35/34 37/37/34 39/39/34 41/41/34 43/43/34 45/45/34 47/47/34 49/49/34 51/51/34 53/53/34 55/55/34 57/57/34 59/59/34 61/61/34 63/63/34
f 65/65/25 66/66/25 68/69/25 67/67/25
f 67/67/1 68/69/1 72/74/1 71/72/1
f 71/72/9 72/74/9 70/71/9 69/70/9
f 69/70/17 70/71/17 66/66/17 65/65/17
f 67/68/34 71/73/34 69/70/34 65/65/34
f 72/74/32 68/69/32 66/66/32 70/71/32
usemtl CableYConector
f 73/75/25 74/77/25 76/80/25 75/79/25
f 75/79/1 76/80/35 80/84/36 79/83/1
f 79/83/9 80/84/37 78/82/38 77/81/9
f 77/81/17 78/82/17 74/78/17 73/76/17
f 84/91/39 83/89/39 87/97/39 88/98/39
f 80/84/36 76/80/35 82/87/40 83/89/40
f 78/82/38 80/84/37 83/89/41 84/91/41
f 76/80/42 74/77/42 81/85/42 82/87/42
f 74/78/43 78/82/43 84/91/43 81/86/43
f 87/97/32 86/95/32 85/92/32 88/98/32
f 82/87/44 81/85/44 85/93/44 86/96/44
f 81/86/45 84/91/45 88/98/45 85/94/45
f 83/89/46 82/87/46 86/96/46 87/97/46
f 89/99/25 90/101/25 92/104/25 91/103/25
f 91/103/1 92/104/47 96/108/48 95/107/1
f 95/107/9 96/108/9 94/106/9 93/105/9
f 93/105/17 94/106/17 90/102/17 89/100/17
f 100/115/49 99/113/49 103/121/49 104/122/49
f 96/108/48 92/104/47 98/111/50 99/113/50
f 94/106/51 96/108/51 99/113/51 100/115/51
f 92/104/42 90/101/42 97/109/42 98/111/42
f 90/102/43 94/106/43 100/115/43 97/110/43
f 103/121/32 102/119/32 101/116/32 104/122/32
f 98/111/44 97/109/44 101/117/44 102/120/44
f 97/110/45 100/115/45 104/122/45 101/118/45
f 99/113/52 98/111/52 102/120/52 103/121/52
f 105/123/25 106/125/25 108/128/25 107/127/25
f 107/127/1 108/128/53 112/132/54 111/131/1
f 111/131/9 112/132/55 110/130/56 109/129/9
f 109/129/17 110/130/17 106/126/17 105/124/17
f 116/139/57 115/137/57 119/145/57 120/146/57
f 112/132/54 108/128/53 114/135/58 115/137/58
f 110/130/56 112/132/55 115/137/59 116/139/59
f 108/128/42 106/125/42 113/133/42 114/135/42
f 106/126/43 110/130/43 116/139/43 113/134/43
f 119/145/32 118/143/32 117/140/32 120/146/32
f 114/135/44 113/133/44 117/141/44 118/144/44
f 113/134/45 116/139/45 120/146/45 117/142/45
f 115/137/60 114/135/60 118/144/60 119/145/60
f 114/136/61 125/151/62 126/152/63 115/138/61
f 98/112/64 123/149/65 124/150/66 99/114/64
f 82/88/67 121/147/68 122/148/69 83/90/67
f 126/152/63 125/151/62 131/157/70 132/158/71
f 124/150/66 123/149/65 129/155/72 130/156/73
f 122/148/69 121/147/68 127/153/74 128/154/75
f 132/158/71 131/157/70 137/165/76 138/166/76
f 130/156/73 129/155/72 135/162/77 136/163/77
f 128/154/75 127/153/74 133/159/78 134/160/78
f 138/166/76 137/165/76 143/173/79 144/174/80
f 136/164/77 135/161/77 141/169/81 142/171/82
f 134/160/78 133/159/78 139/167/83 140/168/84
f 144/174/80 143/173/79 149/180/85 150/181/86
f 142/172/82 141/170/81 147/178/87 148/179/88
f 140/168/84 139/167/83 145/175/89 146/177/90
f 150/181/86 149/180/85 155/187/91 156/188/91
f 148/179/88 147/178/87 153/185/92 154/186/92
f 146/177/90 145/175/89 151/182/93 152/184/93
f 149/180/25 143/173/25 161/193/25 162/194/25
f 155/187/25 149/180/25 162/194/25 163/195/25
f 125/151/25 114/136/25 157/189/25 158/190/25
f 131/157/25 125/151/25 158/190/25 159/191/25
f 137/165/25 131/157/25 159/191/25 160/192/25
f 143/173/25 137/165/25 160/192/25 161/193/25
f 153/185/25 147/178/25 169/201/25 170/202/25
f 123/149/25 98/112/25 164/196/25 165/197/25
f 129/155/25 123/149/25 165/197/25 166/198/25
f 135/162/25 129/155/25 166/198/25 167/199/25
f 141/170/25 135/162/25 167/199/25 168/200/25
f 147/178/25 141/170/25 168/200/25 169/201/25
f 121/147/94 82/88/95 171/203/95 172/204/96
f 127/153/25 121/147/94 172/204/96 173/205/25
f 133/159/25 127/153/25 173/205/25 174/206/25
f 139/167/25 133/159/25 174/206/25 175/207/25
f 145/175/25 139/167/25 175/207/25 176/208/25
f 151/183/25 145/176/25 176/209/25 177/210/25
s 0
usemtl Metal
f 224/310/97 225/312/97 227/316/97 226/314/97
f 201/261/17 178/211/17 217/293/17 215/289/17 213/285/17 211/281/17 209/277/17 207/273/17 205/269/17 203/265/17
f 180/217/98 181/220/98 183/225/98 182/223/98
f 219/298/1 220/301/1 222/305/1 224/309/1 226/313/1 228/317/1 230/321/1 232/325/1 234/329/1 236/333/1
f 212/283/25 213/286/25 215/290/25 214/288/25
f 182/223/99 183/225/99 185/229/99 184/227/99
f 228/318/100 229/320/100 231/323/100 230/322/100
f 210/279/101 211/282/101 213/286/101 212/283/101
f 184/227/9 185/229/9 187/233/9 186/231/9
f 230/322/101 231/323/101 233/327/101 232/326/101
f 208/275/100 209/278/100 211/282/100 210/279/100
f 186/231/97 187/233/97 189/237/97 188/235/97
f 232/326/25 233/327/25 235/332/25 234/330/25
f 206/271/102 207/274/102 209/278/102 208/275/102
f 188/235/102 189/237/102 191/241/102 190/239/102
f 221/303/17 218/295/17 237/335/17 235/331/17 233/328/17 231/324/17 229/319/17 227/315/17 225/311/17 223/307/17
f 204/268/97 205/270/97 207/274/97 206/271/97
f 190/239/100 191/241/100 193/245/100 192/243/100
f 179/214/1 200/259/1 202/263/1 204/267/1 206/272/1 208/276/1 210/280/1 212/284/1 214/287/1 216/291/1
f 202/264/9 203/266/9 205/270/9 204/268/9
f 192/243/101 193/245/101 195/249/101 194/247/101
f 216/292/103 217/294/103 178/212/103 179/215/103
f 200/260/99 201/262/99 203/266/99 202/264/99
f 194/247/25 195/249/25 197/254/25 196/251/25
f 183/226/17 181/221/17 199/257/17 197/253/17 195/250/17 193/246/17 191/242/17 189/238/17 187/234/17 185/230/17
f 179/216/98 178/213/98 201/262/98 200/260/98
f 196/251/104 197/254/104 199/258/104 198/255/104
f 226/314/102 227/316/102 229/320/102 228/318/102
f 214/288/104 215/290/104 217/294/104 216/292/104
f 198/255/103 199/258/103 181/222/103 180/218/103
f 180/219/1 182/224/1 184/228/1 186/232/1 188/236/1 190/240/1 192/244/1 194/248/1 196/252/1 198/256/1
f 222/306/9 223/308/9 225/312/9 224/310/9
f 236/334/103 237/336/103 218/296/103 219/299/103
f 220/302/99 221/304/99 223/308/99 222/306/99
f 219/300/98 218/297/98 221/304/98 220/302/98
f 234/330/104 235/332/104 237/336/104 236/334/104
o Cylinder.003
v -0.186315 4.528066 -0.248936
v -0.186315 4.541927 -0.262798
v -0.172453 4.541927 -0.248936
v -0.186315 4.578480 -0.262798
v -0.186315 4.592341 -0.248936
v -0.172453 4.578480 -0.248936
v -0.186315 4.528066 -0.212384
v -0.172453 4.541927 -0.212384
v -0.186315 4.541927 -0.198522
v -0.186315 4.592341 -0.212384
v -0.186315 4.578480 -0.198522
v -0.172453 4.578480 -0.212384
v -0.773698 4.526007 -0.237056
v -0.771410 4.541927 -0.255168
v -0.745974 4.541927 -0.262798
v -0.745974 4.526007 -0.248936
v -0.761873 4.606053 -0.248936
v -0.745974 4.592341 -0.248936
v -0.745974 4.578480 -0.262798
v -0.773698 4.578480 -0.262798
v -0.775910 4.606204 -0.262798
v -0.745974 4.526007 -0.212384
v -0.745974 4.541927 -0.198522
v -0.773698 4.541927 -0.198522
v -0.773698 4.526007 -0.212384
v -0.745974 4.592341 -0.212384
v -0.761873 4.606053 -0.212384
v -0.775910 4.606204 -0.198522
v -0.773698 4.578480 -0.198522
v -0.745974 4.578480 -0.198522
v -0.796845 4.578480 -0.198522
v -0.809423 4.606204 -0.198522
v -0.823415 4.606053 -0.212384
v -0.814225 4.580468 -0.212384
v -0.781001 4.537394 -0.198132
v -0.788208 4.539961 -0.212315
v -0.776997 4.527008 -0.205935
v -0.775047 4.530436 -0.244949
v -0.785915 4.539343 -0.239987
v -0.772372 4.540329 -0.262275
v -0.823415 4.606053 -0.248936
v -0.809423 4.606204 -0.262798
v -0.794978 4.578676 -0.260475
v -0.813432 4.580984 -0.246872
v -0.775291 4.696383 -0.212384
v -0.791190 4.710094 -0.212384
v -0.789283 4.696232 -0.198522
v -0.775291 4.696383 -0.248936
v -0.789283 4.696232 -0.262798
v -0.791190 4.710094 -0.248936
v -0.836833 4.696383 -0.212384
v -0.822797 4.696232 -0.198522
v -0.825008 4.710094 -0.212384
v -0.836833 4.696383 -0.248936
v -0.825008 4.710094 -0.248936
v -0.822797 4.696232 -0.262798
v -0.186315 7.473462 -0.248936
v -0.186315 7.487324 -0.262798
v -0.172453 7.487324 -0.248936
v -0.186315 7.523876 -0.262798
v -0.186315 7.537738 -0.248936
v -0.172453 7.523876 -0.248936
v -0.186315 7.473462 -0.212384
v -0.172453 7.487324 -0.212384
v -0.186315 7.487324 -0.198522
v -0.186315 7.537738 -0.212384
v -0.186315 7.523876 -0.198522
v -0.172453 7.523876 -0.212384
v -0.773698 7.471403 -0.237056
v -0.771410 7.487324 -0.255168
v -0.745974 7.487324 -0.262798
v -0.745974 7.471403 -0.248936
v -0.761873 7.551450 -0.248936
v -0.745974 7.537738 -0.248936
v -0.745974 7.523876 -0.262798
v -0.773698 7.523876 -0.262798
v -0.775910 7.551600 -0.262798
v -0.745974 7.471403 -0.212384
v -0.745974 7.487324 -0.198522
v -0.773698 7.487324 -0.198522
v -0.773698 7.471403 -0.212384
v -0.745974 7.537738 -0.212384
v -0.761873 7.551450 -0.212384
v -0.775910 7.551600 -0.198522
v -0.773698 7.523876 -0.198522
v -0.745974 7.523876 -0.198522
v -0.796845 7.523876 -0.198522
v -0.809423 7.551600 -0.198522
v -0.823415 7.551450 -0.212384
v -0.814225 7.525865 -0.212384
v -0.781001 7.482790 -0.198132
v -0.788208 7.485357 -0.212315
v -0.776997 7.472404 -0.205935
v -0.775047 7.475832 -0.244949
v -0.785915 7.484740 -0.239987
v -0.772372 7.485725 -0.262275
v -0.823415 7.551450 -0.248936
v -0.809423 7.551600 -0.262798
v -0.794978 7.524073 -0.260475
v -0.813432 7.526381 -0.246872
v -0.775291 7.641779 -0.212384
v -0.791190 7.655491 -0.212384
v -0.789283 7.641628 -0.198522
v -0.775291 7.641779 -0.248936
v -0.789283 7.641628 -0.262798
v -0.791190 7.655491 -0.248936
v -0.836833 7.641779 -0.212384
v -0.822797 7.641628 -0.198522
v -0.825008 7.655491 -0.212384
v -0.836833 7.641779 -0.248936
v -0.825008 7.655491 -0.248936
v -0.822797 7.641628 -0.262798
v -0.186315 10.418859 -0.248936
v -0.186315 10.432720 -0.262798
v -0.172453 10.432720 -0.248936
v -0.186315 10.469273 -0.262798
v -0.186315 10.483135 -0.248936
v -0.172453 10.469273 -0.248936
v -0.186315 10.418859 -0.212384
v -0.172453 10.432720 -0.212384
v -0.186315 10.432720 -0.198522
v -0.186315 10.483135 -0.212384
v -0.186315 10.469273 -0.198522
v -0.172453 10.469273 -0.212384
v -0.773698 10.416800 -0.237056
v -0.771410 10.432720 -0.255168
v -0.745974 10.432720 -0.262798
v -0.745974 10.416800 -0.248936
v -0.761873 10.496846 -0.248936
v -0.745974 10.483135 -0.248936
v -0.745974 10.469273 -0.262798
v -0.773698 10.469273 -0.262798
v -0.775910 10.496997 -0.262798
v -0.745974 10.416800 -0.212384
v -0.745974 10.432720 -0.198522
v -0.773698 10.432720 -0.198522
v -0.773698 10.416800 -0.212384
v -0.745974 10.483135 -0.212384
v -0.761873 10.496846 -0.212384
v -0.775910 10.496997 -0.198522
v -0.773698 10.469273 -0.198522
v -0.745974 10.469273 -0.198522
v -0.796845 10.469273 -0.198522
v -0.809423 10.496997 -0.198522
v -0.823415 10.496846 -0.212384
v -0.814225 10.471261 -0.212384
v -0.781001 10.428186 -0.198132
v -0.788208 10.430754 -0.212315
v -0.776997 10.417801 -0.205935
v -0.775047 10.421228 -0.244949
v -0.785915 10.430137 -0.239987
v -0.772372 10.431122 -0.262275
v -0.823415 10.496846 -0.248936
v -0.809423 10.496997 -0.262798
v -0.794978 10.469469 -0.260475
v -0.813432 10.471777 -0.246872
v -0.775291 10.587175 -0.212384
v -0.791190 10.600887 -0.212384
v -0.789283 10.587025 -0.198522
v -0.775291 10.587175 -0.248936
v -0.789283 10.587025 -0.262798
v -0.791190 10.600887 -0.248936
v -0.836833 10.587175 -0.212384
v -0.822797 10.587025 -0.198522
v -0.825008 10.600887 -0.212384
v -0.836833 10.587175 -0.248936
v -0.825008 10.600887 -0.248936
v -0.822797 10.587025 -0.262798
v -0.186315 13.364255 -0.248936
v -0.186315 13.378117 -0.262798
v -0.172453 13.378117 -0.248936
v -0.186315 13.414669 -0.262798
v -0.186315 13.428532 -0.248936
v -0.172453 13.414669 -0.248936
v -0.186315 13.364255 -0.212384
v -0.172453 13.378117 -0.212384
v -0.186315 13.378117 -0.198522
v -0.186315 13.428532 -0.212384
v -0.186315 13.414669 -0.198522
v -0.172453 13.414669 -0.212384
v -0.773698 13.362196 -0.237056
v -0.771410 13.378117 -0.255168
v -0.745974 13.378117 -0.262798
v -0.745974 13.362196 -0.248936
v -0.761873 13.442243 -0.248936
v -0.745974 13.428532 -0.248936
v -0.745974 13.414669 -0.262798
v -0.773698 13.414669 -0.262798
v -0.775910 13.442393 -0.262798
v -0.745974 13.362196 -0.212384
v -0.745974 13.378117 -0.198522
v -0.773698 13.378117 -0.198522
v -0.773698 13.362196 -0.212384
v -0.745974 13.428532 -0.212384
v -0.761873 13.442243 -0.212384
v -0.775910 13.442393 -0.198522
v -0.773698 13.414669 -0.198522
v -0.745974 13.414669 -0.198522
v -0.796845 13.414669 -0.198522
v -0.809423 13.442393 -0.198522
v -0.823415 13.442243 -0.212384
v -0.814225 13.416657 -0.212384
v -0.781001 13.373583 -0.198132
v -0.788208 13.376150 -0.212315
v -0.776997 13.363197 -0.205935
v -0.775047 13.366625 -0.244949
v -0.785915 13.375533 -0.239987
v -0.772372 13.376518 -0.262275
v -0.823415 13.442243 -0.248936
v -0.809423 13.442393 -0.262798
v -0.794978 13.414865 -0.260475
v -0.813432 13.417173 -0.246872
v -0.775291 13.532572 -0.212384
v -0.791190 13.546284 -0.212384
v -0.789283 13.532421 -0.198522
v -0.775291 13.532572 -0.248936
v -0.789283 13.532421 -0.262798
v -0.791190 13.546284 -0.248936
v -0.836833 13.532572 -0.212384
v -0.822797 13.532421 -0.198522
v -0.825008 13.546284 -0.212384
v -0.836833 13.532572 -0.248936
v -0.825008 13.546284 -0.248936
v -0.822797 13.532421 -0.262798
vn -0.0000 -0.0000 -1.0000
vn -0.7507 -0.6581 -0.0584
vn 0.0117 0.0074 0.9999
vn -0.0000 1.0000 -0.0000
vn 1.0000 -0.0000 -0.0000
vn -0.0000 -0.0000 1.0000
vn -0.9891 -0.1469 -0.0000
vn 0.9891 0.1469 -0.0000
vn 0.2106 -0.0061 -0.9775
vn -0.8355 -0.5479 -0.0406
vn 0.5774 -0.5773 -0.5773
vn 0.5774 0.5773 -0.5773
vn 0.5774 -0.5773 0.5773
vn 0.5774 0.5774 0.5773
vn -0.2538 -0.6762 -0.6916
vn 0.3548 0.3925 -0.8486
vn -0.0000 -0.6567 0.7542
vn 0.3548 0.3925 0.8486
vn -0.6473 -0.2643 0.7149
vn -0.7893 -0.5332 0.3045
vn -0.6809 -0.5858 -0.4396
vn -0.6194 -0.3464 -0.7045
vn 0.5432 0.6299 0.5551
vn 0.5432 0.6299 -0.5551
vn -0.5989 0.5165 0.6120
vn -0.5989 0.5165 -0.6120
vn 0.7071 -0.7071 -0.0000
vn 0.7071 -0.0000 -0.7071
vn 0.7071 0.7071 -0.0000
vn 0.7071 -0.0000 0.7071
vn 0.0013 -0.6814 0.7320
vn -0.0000 0.7071 0.7071
vn -0.0000 -1.0000 -0.0000
vn 0.6531 0.7573 -0.0000
vn -0.1413 -0.1071 -0.9842
vn 0.0013 -0.6814 -0.7320
vn -0.0000 0.7071 -0.7071
vn -0.7275 -0.3700 0.5777
vn -0.6992 -0.7110 -0.0744
vn -0.9350 -0.3544 -0.0130
vn -0.6719 -0.4580 -0.5821
vn -0.0425 -0.0547 -0.9976
vn 0.5844 -0.4610 0.6678
vn 0.8566 -0.4668 -0.2201
vn -0.7573 0.6531 -0.0000
vn -0.6994 -0.1039 -0.7071
vn 0.6994 0.1039 -0.7071
vn -0.6994 -0.1039 0.7071
vn 0.6994 0.1039 0.7071
vn 0.0037 -1.0000 -0.0000
vn 0.5774 0.5773 0.5773
vn 0.0013 -0.6814 0.7319
vn 0.0013 -0.6814 -0.7319
vn 0.8565 -0.4668 -0.2201
vn -0.7506 -0.6582 -0.0584
vn 0.5773 -0.5774 -0.5773
vn 0.5774 0.5773 -0.5774
vn 0.5773 -0.5774 0.5773
vn 0.5774 0.5773 0.5774
vn 0.5432 0.6298 0.5551
vn 0.5432 0.6298 -0.5552
vn -0.9350 -0.3545 -0.0130
vn -0.6718 -0.4580 -0.5821
vn 0.8566 -0.4668 -0.2200
vt 0.130900 0.696084
vt 0.428915 0.994100
vt 0.428915 0.000000
vt 0.130900 0.750000
vt 0.125000 0.696084
vt 0.428915 0.053916
vt 0.571085 0.000000
vt 0.571085 0.994100
vt 0.869100 0.696084
vt 0.625000 0.053916
vt 0.625000 0.994100
vt 0.571085 1.000000
vt 0.571085 0.053916
vt 0.130900 0.553916
vt 0.125000 0.553916
vt 0.428915 0.196084
vt 0.428915 0.255900
vt 0.130900 0.500000
vt 0.869100 0.553916
vt 0.625000 0.196084
vt 0.625000 0.255900
vt 0.571085 0.255900
vt 0.571085 0.250000
vt 0.571085 0.196084
vt 0.375000 0.649876
vt 0.375000 0.673282
vt 0.375000 0.720324
vt 0.427290 0.750000
vt 0.428915 0.755900
vt 0.369100 0.750000
vt 0.369100 0.696084
vt 0.625000 0.750000
vt 0.625000 0.696084
vt 0.630900 0.696084
vt 0.625000 0.755900
vt 0.571085 0.755900
vt 0.571085 0.750000
vt 0.571612 0.750000
vt 0.625000 0.750000
vt 0.369100 0.553916
vt 0.369100 0.500000
vt 0.428915 0.494100
vt 0.375000 0.500000
vt 0.428915 0.500000
vt 0.375000 0.553916
vt 0.375000 0.561074
vt 0.625000 0.494100
vt 0.630900 0.553916
vt 0.625000 0.500000
vt 0.625000 0.553916
vt 0.625000 0.500000
vt 0.571085 0.500000
vt 0.571085 0.494100
vt 0.571085 0.500000
vt 0.625000 0.500000
vt 0.625000 0.553916
vt 0.579446 0.556203
vt 0.428915 0.500000
vt 0.420509 0.561878
vt 0.375000 0.558016
vt 0.375000 0.683184
vt 0.419617 0.688057
vt 0.424829 0.750000
vt 0.625000 0.696084
vt 0.625000 0.750000
vt 0.571572 0.750000
vt 0.580295 0.693642
vt 0.625000 0.553916
vt 0.625000 0.553916
vt 0.625000 0.500000
vt 0.625000 0.696084
vt 0.625000 0.750000
vt 0.625000 0.696084
vt 0.625000 0.553916
vt 0.625000 0.500000
vt 0.625000 0.553916
vt 0.625000 0.696084
vt 0.625000 0.696084
vt 0.625000 0.750000
vt 0.130900 0.696084
vt 0.428915 0.994100
vt 0.428915 0.000000
vt 0.130900 0.750000
vt 0.125000 0.696084
vt 0.428915 0.053916
vt 0.571085 0.000000
vt 0.571085 0.994100
vt 0.869100 0.696084
vt 0.625000 0.053916
vt 0.625000 0.994100
vt 0.571085 1.000000
vt 0.571085 0.053916
vt 0.130900 0.553916
vt 0.125000 0.553916
vt 0.428915 0.196084
vt 0.428915 0.255900
vt 0.130900 0.500000
vt 0.869100 0.553916
vt 0.625000 0.196084
vt 0.625000 0.255900
vt 0.571085 0.255900
vt 0.571085 0.250000
vt 0.571085 0.196084
vt 0.375000 0.649876
vt 0.375000 0.673282
vt 0.375000 0.720324
vt 0.427290 0.750000
vt 0.428915 0.755900
vt 0.369100 0.750000
vt 0.369100 0.696084
vt 0.625000 0.750000
vt 0.625000 0.696084
vt 0.630900 0.696084
vt 0.625000 0.755900
vt 0.571085 0.755900
vt 0.571085 0.750000
vt 0.571612 0.750000
vt 0.625000 0.750000
vt 0.369100 0.553916
vt 0.369100 0.500000
vt 0.428915 0.494100
vt 0.375000 0.500000
vt 0.428915 0.500000
vt 0.375000 0.553916
vt 0.375000 0.561074
vt 0.625000 0.494100
vt 0.630900 0.553916
vt 0.625000 0.500000
vt 0.625000 0.553916
vt 0.625000 0.500000
vt 0.571085 0.500000
vt 0.571085 0.494100
vt 0.571085 0.500000
vt 0.625000 0.500000
vt 0.625000 0.553916
vt 0.579446 0.556203
vt 0.428915 0.500000
vt 0.420509 0.561878
vt 0.375000 0.558016
vt 0.375000 0.683184
vt 0.419617 0.688057
vt 0.424829 0.750000
vt 0.625000 0.696084
vt 0.625000 0.750000
vt 0.571572 0.750000
vt 0.580295 0.693642
vt 0.625000 0.553916
vt 0.625000 0.553916
vt 0.625000 0.500000
vt 0.625000 0.696084
vt 0.625000 0.750000
vt 0.625000 0.696084
vt 0.625000 0.553916
vt 0.625000 0.500000
vt 0.625000 0.553916
vt 0.625000 0.696084
vt 0.625000 0.696084
vt 0.625000 0.750000
vt 0.130900 0.696084
vt 0.428915 0.994100
vt 0.428915 0.000000
vt 0.130900 0.750000
vt 0.125000 0.696084
vt 0.428915 0.053916
vt 0.571085 0.000000
vt 0.571085 0.994100
vt 0.869100 0.696084
vt 0.625000 0.053916
vt 0.625000 0.994100
vt 0.571085 1.000000
vt 0.571085 0.053916
vt 0.130900 0.553916
vt 0.125000 0.553916
vt 0.428915 0.196084
vt 0.428915 0.255900
vt 0.130900 0.500000
vt 0.869100 0.553916
vt 0.625000 0.196084
vt 0.625000 0.255900
vt 0.571085 0.255900
vt 0.571085 0.250000
vt 0.571085 0.196084
vt 0.375000 0.649876
vt 0.375000 0.673282
vt 0.375000 0.720324
vt 0.427290 0.750000
vt 0.428915 0.755900
vt 0.369100 0.750000
vt 0.369100 0.696084
vt 0.625000 0.750000
vt 0.625000 0.696084
vt 0.630900 0.696084
vt 0.625000 0.755900
vt 0.571085 0.755900
vt 0.571085 0.750000
vt 0.571612 0.750000
vt 0.625000 0.750000
vt 0.369100 0.553916
vt 0.369100 0.500000
vt 0.428915 0.494100
vt 0.375000 0.500000
vt 0.428915 0.500000
vt 0.375000 0.553916
vt 0.375000 0.561074
vt 0.625000 0.494100
vt 0.630900 0.553916
vt 0.625000 0.500000
vt 0.625000 0.553916
vt 0.625000 0.500000
vt 0.571085 0.500000
vt 0.571085 0.494100
vt 0.571085 0.500000
vt 0.625000 0.500000
vt 0.625000 0.553916
vt 0.579446 0.556203
vt 0.428915 0.500000
vt 0.420509 0.561878
vt 0.375000 0.558016
vt 0.375000 0.683184
vt 0.419617 0.688057
vt 0.424829 0.750000
vt 0.625000 0.696084
vt 0.625000 0.750000
vt 0.571572 0.750000
vt 0.580295 0.693642
vt 0.625000 0.553916
vt 0.625000 0.553916
vt 0.625000 0.500000
vt 0.625000 0.696084
vt 0.625000 0.750000
vt 0.625000 0.696084
vt 0.625000 0.553916
vt 0.625000 0.500000
vt 0.625000 0.553916
vt 0.625000 0.696084
vt 0.625000 0.696084
vt 0.625000 0.750000
vt 0.130900 0.696084
vt 0.428915 0.994100
vt 0.428915 0.000000
vt 0.130900 0.750000
vt 0.125000 0.696084
vt 0.428915 0.053916
vt 0.571085 0.000000
vt 0.571085 0.994100
vt 0.869100 0.696084
vt 0.625000 0.053916
vt 0.625000 0.994100
vt 0.571085 1.000000
vt 0.571085 0.053916
vt 0.130900 0.553916
vt 0.125000 0.553916
vt 0.428915 0.196084
vt 0.428915 0.255900
vt 0.130900 0.500000
vt 0.869100 0.553916
vt 0.625000 0.196084
vt 0.625000 0.255900
vt 0.571085 0.255900
vt 0.571085 0.250000
vt 0.571085 0.196084
vt 0.375000 0.649876
vt 0.375000 0.673282
vt 0.375000 0.720324
vt 0.427290 0.750000
vt 0.428915 0.755900
vt 0.369100 0.750000
vt 0.369100 0.696084
vt 0.625000 0.750000
vt 0.625000 0.696084
vt 0.630900 0.696084
vt 0.625000 0.755900
vt 0.571085 0.755900
vt 0.571085 0.750000
vt 0.571612 0.750000
vt 0.625000 0.750000
vt 0.369100 0.553916
vt 0.369100 0.500000
vt 0.428915 0.494100
vt 0.375000 0.500000
vt 0.428915 0.500000
vt 0.375000 0.553916
vt 0.375000 0.561074
vt 0.625000 0.494100
vt 0.630900 0.553916
vt 0.625000 0.500000
vt 0.625000 0.553916
vt 0.625000 0.500000
vt 0.571085 0.500000
vt 0.571085 0.494100
vt 0.571085 0.500000
vt 0.625000 0.500000
vt 0.625000 0.553916
vt 0.579446 0.556203
vt 0.428915 0.500000
vt 0.420509 0.561878
vt 0.375000 0.558016
vt 0.375000 0.683184
vt 0.419617 0.688057
vt 0.424829 0.750000
vt 0.625000 0.696084
vt 0.625000 0.750000
vt 0.571572 0.750000
vt 0.580295 0.693642
vt 0.625000 0.553916
vt 0.625000 0.553916
vt 0.625000 0.500000
vt 0.625000 0.696084
vt 0.625000 0.750000
vt 0.625000 0.696084
vt 0.625000 0.553916
vt 0.625000 0.500000
vt 0.625000 0.553916
vt 0.625000 0.696084
vt 0.625000 0.696084
vt 0.625000 0.750000
s 0
usemtl Metal
f 252/365/105 256/372/105 241/344/105 239/338/105
f 250/362/106 262/382/106 274/396/106 275/397/106
f 261/380/107 266/388/107 268/390/107 272/394/107
f 263/384/108 247/355/108 242/345/108 255/370/108
f 240/342/109 243/349/109 249/360/109 245/352/109
f 246/353/110 248/358/110 267/389/110 260/378/110
f 278/400/111 270/392/111 288/410/111 291/413/111
f 269/391/110 265/387/110 284/406/110 289/411/110
f 264/386/112 254/369/112 285/407/112 282/404/112
f 257/374/113 251/364/113 277/399/113 280/402/113
f 283/405/108 287/409/108 292/414/108 290/412/108
f 258/375/105 279/401/105 293/415/105 286/408/105
f 273/395/114 271/393/114 281/403/114 276/398/114
f 238/337/115 239/340/115 240/341/115
f 241/344/116 242/347/116 243/348/116
f 244/350/117 245/351/117 246/354/117
f 247/357/118 248/358/118 249/359/118
f 250/361/119 251/363/119 252/366/119 253/367/119
f 254/368/120 255/371/120 256/372/120 257/373/120 258/375/120
f 259/376/121 260/377/121 261/379/121 262/381/121
f 263/383/122 264/385/122 265/387/122 266/388/122 267/389/122
f 268/390/123 269/391/123 270/392/123 271/393/123
f 272/394/124 273/395/124 274/396/124
f 275/397/125 276/398/125 277/399/125
f 278/400/126 279/401/126 280/402/126 281/403/126
f 282/404/127 283/405/127 284/406/127
f 285/407/128 286/408/128 287/409/128
f 288/410/129 289/411/129 290/412/129
f 291/413/130 292/414/130 293/415/130
f 244/350/131 238/337/131 240/341/131 245/351/131
f 239/339/132 241/343/132 243/349/132 240/342/132
f 242/346/133 247/356/133 249/360/133 243/349/133
f 248/358/134 246/353/134 245/352/134 249/360/134
f 259/376/135 244/350/135 246/354/135 260/377/135
f 247/357/136 263/383/136 267/389/136 248/358/136
f 266/388/110 261/380/110 260/378/110 267/389/110
f 253/367/137 259/376/137 262/382/137 250/362/137
f 263/384/138 255/370/138 254/369/138 264/386/138
f 256/372/139 252/365/139 251/364/139 257/374/139
f 238/337/140 253/367/140 252/366/140 239/340/140
f 255/371/141 242/347/141 241/344/141 256/372/141
f 271/393/142 273/395/142 272/394/142 268/390/142
f 275/397/143 274/396/143 273/395/143 276/398/143
f 270/392/144 278/400/144 281/403/144 271/393/144
f 280/402/145 277/399/145 276/398/145 281/403/145
f 257/374/146 280/402/146 279/401/146 258/375/146
f 268/390/110 266/388/110 265/387/110 269/391/110
f 274/396/147 262/382/147 261/380/147 272/394/147
f 250/362/148 275/397/148 277/399/148 251/364/148
f 282/404/138 285/407/138 287/409/138 283/405/138
f 290/412/149 292/414/149 291/413/149 288/410/149
f 286/408/141 293/415/141 292/414/141 287/409/141
f 289/411/136 284/406/136 283/405/136 290/412/136
f 278/400/150 291/413/150 293/415/150 279/401/150
f 285/407/151 254/369/151 258/375/151 286/408/151
f 269/391/152 289/411/152 288/410/152 270/392/152
f 284/406/153 265/387/153 264/386/153 282/404/153
f 244/350/154 259/376/154 253/367/154 238/337/154
f 308/444/105 312/451/105 297/423/105 295/417/105
f 306/441/106 318/461/106 330/475/106 331/476/106
f 317/459/107 322/467/107 324/469/107 328/473/107
f 319/463/108 303/434/108 298/424/108 311/449/108
f 296/421/109 299/428/109 305/439/109 301/431/109
f 302/432/110 304/437/110 323/468/110 316/457/110
f 334/479/111 326/471/111 344/489/111 347/492/111
f 325/470/110 321/466/110 340/485/110 345/490/110
f 320/465/112 310/448/112 341/486/112 338/483/112
f 313/453/113 307/443/113 333/478/113 336/481/113
f 339/484/108 343/488/108 348/493/108 346/491/108
f 314/454/105 335/480/105 349/494/105 342/487/105
f 329/474/114 327/472/114 337/482/114 332/477/114
f 294/416/115 295/419/115 296/420/115
f 297/423/116 298/426/116 299/427/116
f 300/429/117 301/430/117 302/433/117
f 303/436/155 304/437/155 305/438/155
f 306/440/119 307/442/119 308/445/119 309/446/119
f 310/447/120 311/450/120 312/451/120 313/452/120 314/454/120
f 315/455/121 316/456/121 317/458/121 318/460/121
f 319/462/122 320/464/122 321/466/122 322/467/122 323/468/122
f 324/469/123 325/470/123 326/471/123 327/472/123
f 328/473/124 329/474/124 330/475/124
f 331/476/125 332/477/125 333/478/125
f 334/479/126 335/480/126 336/481/126 337/482/126
f 338/483/127 339/484/127 340/485/127
f 341/486/128 342/487/128 343/488/128
f 344/489/129 345/490/129 346/491/129
f 347/492/130 348/493/130 349/494/130
f 300/429/131 294/416/131 296/420/131 301/430/131
f 295/418/132 297/422/132 299/428/132 296/421/132
f 298/425/133 303/435/133 305/439/133 299/428/133
f 304/437/134 302/432/134 301/431/134 305/439/134
f 315/455/156 300/429/156 302/433/156 316/456/156
f 303/436/136 319/462/136 323/468/136 304/437/136
f 322/467/110 317/459/110 316/457/110 323/468/110
f 309/446/137 315/455/137 318/461/137 306/441/137
f 319/463/138 311/449/138 310/448/138 320/465/138
f 312/451/139 308/444/139 307/443/139 313/453/139
f 294/416/157 309/446/157 308/445/157 295/419/157
f 311/450/141 298/426/141 297/423/141 312/451/141
f 327/472/142 329/474/142 328/473/142 324/469/142
f 331/476/143 330/475/143 329/474/143 332/477/143
f 326/471/144 334/479/144 337/482/144 327/472/144
f 336/481/145 333/478/145 332/477/145 337/482/145
f 313/453/146 336/481/146 335/480/146 314/454/146
f 324/469/110 322/467/110 321/466/110 325/470/110
f 330/475/147 318/461/147 317/459/147 328/473/147
f 306/441/158 331/476/158 333/478/158 307/443/158
f 338/483/138 341/486/138 343/488/138 339/484/138
f 346/491/149 348/493/149 347/492/149 344/489/149
f 342/487/141 349/494/141 348/493/141 343/488/141
f 345/490/136 340/485/136 339/484/136 346/491/136
f 334/479/150 347/492/150 349/494/150 335/480/150
f 341/486/151 310/448/151 314/454/151 342/487/151
f 325/470/152 345/490/152 344/489/152 326/471/152
f 340/485/153 321/466/153 320/465/153 338/483/153
f 300/429/154 315/455/154 309/446/154 294/416/154
f 364/523/105 368/530/105 353/502/105 351/496/105
f 362/520/159 374/540/159 386/554/159 387/555/159
f 373/538/107 378/546/107 380/548/107 384/552/107
f 375/542/108 359/513/108 354/503/108 367/528/108
f 352/500/109 355/507/109 361/518/109 357/510/109
f 358/511/110 360/516/110 379/547/110 372/536/110
f 390/558/111 382/550/111 400/568/111 403/571/111
f 381/549/110 377/545/110 396/564/110 401/569/110
f 376/544/112 366/527/112 397/565/112 394/562/112
f 369/532/113 363/522/113 389/557/113 392/560/113
f 395/563/108 399/567/108 404/572/108 402/570/108
f 370/533/105 391/559/105 405/573/105 398/566/105
f 385/553/114 383/551/114 393/561/114 388/556/114
f 350/495/160 351/498/160 352/499/160
f 353/502/161 354/505/161 355/506/161
f 356/508/162 357/509/162 358/512/162
f 359/515/163 360/516/163 361/517/163
f 362/519/119 363/521/119 364/524/119 365/525/119
f 366/526/120 367/529/120 368/530/120 369/531/120 370/533/120
f 371/534/121 372/535/121 373/537/121 374/539/121
f 375/541/122 376/543/122 377/545/122 378/546/122 379/547/122
f 380/548/123 381/549/123 382/550/123 383/551/123
f 384/552/124 385/553/124 386/554/124
f 387/555/125 388/556/125 389/557/125
f 390/558/126 391/559/126 392/560/126 393/561/126
f 394/562/164 395/563/164 396/564/164
f 397/565/165 398/566/165 399/567/165
f 400/568/129 401/569/129 402/570/129
f 403/571/130 404/572/130 405/573/130
f 356/508/131 350/495/131 352/499/131 357/509/131
f 351/497/132 353/501/132 355/507/132 352/500/132
f 354/504/133 359/514/133 361/518/133 355/507/133
f 360/516/134 358/511/134 357/510/134 361/518/134
f 371/534/156 356/508/156 358/512/156 372/535/156
f 359/515/136 375/541/136 379/547/136 360/516/136
f 378/546/110 373/538/110 372/536/110 379/547/110
f 365/525/137 371/534/137 374/540/137 362/520/137
f 375/542/138 367/528/138 366/527/138 376/544/138
f 368/530/139 364/523/139 363/522/139 369/532/139
f 350/495/157 365/525/157 364/524/157 351/498/157
f 367/529/141 354/505/141 353/502/141 368/530/141
f 383/551/142 385/553/142 384/552/142 380/548/142
f 387/555/143 386/554/143 385/553/143 388/556/143
f 382/550/166 390/558/166 393/561/166 383/551/166
f 392/560/145 389/557/145 388/556/145 393/561/145
f 369/532/146 392/560/146 391/559/146 370/533/146
f 380/548/110 378/546/110 377/545/110 381/549/110
f 386/554/147 374/540/147 373/538/147 384/552/147
f 362/520/148 387/555/148 389/557/148 363/522/148
f 394/562/138 397/565/138 399/567/138 395/563/138
f 402/570/149 404/572/149 403/571/149 400/568/149
f 398/566/141 405/573/141 404/572/141 399/567/141
f 401/569/136 396/564/136 395/563/136 402/570/136
f 390/558/150 403/571/150 405/573/150 391/559/150
f 397/565/151 366/527/151 370/533/151 398/566/151
f 381/549/152 401/569/152 400/568/152 382/550/152
f 396/564/153 377/545/153 376/544/153 394/562/153
f 356/508/154 371/534/154 365/525/154 350/495/154
f 420/602/105 424/609/105 409/581/105 407/575/105
f 418/599/106 430/619/106 442/633/106 443/634/106
f 429/617/107 434/625/107 436/627/107 440/631/107
f 431/621/108 415/592/108 410/582/108 423/607/108
f 408/579/109 411/586/109 417/597/109 413/589/109
f 414/590/110 416/595/110 435/626/110 428/615/110
f 446/637/111 438/629/111 456/647/111 459/650/111
f 437/628/110 433/624/110 452/643/110 457/648/110
f 432/623/112 422/606/112 453/644/112 450/641/112
f 425/611/113 419/601/113 445/636/113 448/639/113
f 451/642/108 455/646/108 460/651/108 458/649/108
f 426/612/105 447/638/105 461/652/105 454/645/105
f 441/632/114 439/630/114 449/640/114 444/635/114
f 406/574/115 407/577/115 408/578/115
f 409/581/116 410/584/116 411/585/116
f 412/587/117 413/588/117 414/591/117
f 415/594/155 416/595/155 417/596/155
f 418/598/119 419/600/119 420/603/119 421/604/119
f 422/605/120 423/608/120 424/609/120 425/610/120 426/612/120
f 427/613/121 428/614/121 429/616/121 430/618/121
f 431/620/122 432/622/122 433/624/122 434/625/122 435/626/122
f 436/627/123 437/628/123 438/629/123 439/630/123
f 440/631/124 441/632/124 442/633/124
f 443/634/125 444/635/125 445/636/125
f 446/637/126 447/638/126 448/639/126 449/640/126
f 450/641/164 451/642/164 452/643/164
f 453/644/165 454/645/165 455/646/165
f 456/647/129 457/648/129 458/649/129
f 459/650/130 460/651/130 461/652/130
f 412/587/131 406/574/131 408/578/131 413/588/131
f 407/576/132 409/580/132 411/586/132 408/579/132
f 410/583/133 415/593/133 417/597/133 411/586/133
f 416/595/134 414/590/134 413/589/134 417/597/134
f 427/613/156 412/587/156 414/591/156 428/614/156
f 415/594/136 431/620/136 435/626/136 416/595/136
f 434/625/110 429/617/110 428/615/110 435/626/110
f 421/604/137 427/613/137 430/619/137 418/599/137
f 431/621/138 423/607/138 422/606/138 432/623/138
f 424/609/139 420/602/139 419/601/139 425/611/139
f 406/574/157 421/604/157 420/603/157 407/577/157
f 423/608/141 410/584/141 409/581/141 424/609/141
f 439/630/142 441/632/142 440/631/142 436/627/142
f 443/634/143 442/633/143 441/632/143 444/635/143
f 438/629/166 446/637/166 449/640/166 439/630/166
f 448/639/167 445/636/167 444/635/167 449/640/167
f 425/611/146 448/639/146 447/638/146 426/612/146
f 436/627/110 434/625/110 433/624/110 437/628/110
f 442/633/147 430/619/147 429/617/147 440/631/147
f 418/599/168 443/634/168 445/636/168 419/601/168
f 450/641/138 453/644/138 455/646/138 451/642/138
f 458/649/149 460/651/149 459/650/149 456/647/149
f 454/645/141 461/652/141 460/651/141 455/646/141
f 457/648/136 452/643/136 451/642/136 458/649/136
f 446/637/150 459/650/150 461/652/150 447/638/150
f 453/644/151 422/606/151 426/612/151 454/645/151
f 437/628/152 457/648/152 456/647/152 438/629/152
f 452/643/153 433/624/153 432/623/153 450/641/153
f 412/587/154 427/613/154 421/604/154 406/574/154
o Cylinder.002
v 0.158135 3.046533 -0.206384
v 0.158135 3.060395 -0.192522
v 0.144273 3.060395 -0.206384
v 0.158135 3.096947 -0.192522
v 0.158135 3.110809 -0.206384
v 0.144273 3.096947 -0.206384
v 0.158135 3.046533 -0.242936
v 0.144273 3.060395 -0.242936
v 0.158135 3.060395 -0.256798
v 0.158135 3.110809 -0.242936
v 0.158135 3.096947 -0.256798
v 0.144273 3.096947 -0.242936
v 0.745519 3.044474 -0.218264
v 0.743230 3.060395 -0.200152
v 0.717795 3.060395 -0.192522
v 0.717795 3.044474 -0.206384
v 0.733694 3.124521 -0.206384
v 0.717795 3.110809 -0.206384
v 0.717795 3.096947 -0.192522
v 0.745519 3.096947 -0.192522
v 0.747730 3.124671 -0.192522
v 0.717795 3.044474 -0.242936
v 0.717795 3.060395 -0.256798
v 0.745519 3.060395 -0.256798
v 0.745519 3.044474 -0.242936
v 0.717795 3.110809 -0.242936
v 0.733694 3.124521 -0.242936
v 0.747730 3.124671 -0.256798
v 0.745519 3.096947 -0.256798
v 0.717795 3.096947 -0.256798
v 0.768665 3.096947 -0.256798
v 0.781244 3.124671 -0.256798
v 0.795236 3.124521 -0.242936
v 0.786046 3.098936 -0.242936
v 0.752822 3.055861 -0.257188
v 0.760028 3.058428 -0.243005
v 0.748817 3.045475 -0.249385
v 0.746867 3.048903 -0.210371
v 0.757736 3.057811 -0.215333
v 0.744193 3.058796 -0.193045
v 0.795236 3.124521 -0.206384
v 0.781244 3.124671 -0.192522
v 0.766798 3.097143 -0.194845
v 0.785252 3.099451 -0.208448
v 0.747112 3.214850 -0.242936
v 0.763010 3.228562 -0.242936
v 0.761103 3.214700 -0.256798
v 0.747112 3.214850 -0.206384
v 0.761103 3.214700 -0.192522
v 0.763010 3.228562 -0.206384
v 0.808654 3.214850 -0.242936
v 0.794617 3.214700 -0.256798
v 0.796828 3.228562 -0.242936
v 0.808654 3.214850 -0.206384
v 0.796828 3.228562 -0.206384
v 0.794617 3.214700 -0.192522
v 0.158135 5.991930 -0.206384
v 0.158135 6.005791 -0.192522
v 0.144273 6.005791 -0.206384
v 0.158135 6.042344 -0.192522
v 0.158135 6.056206 -0.206384
v 0.144273 6.042344 -0.206384
v 0.158135 5.991930 -0.242936
v 0.144273 6.005791 -0.242936
v 0.158135 6.005791 -0.256798
v 0.158135 6.056206 -0.242936
v 0.158135 6.042344 -0.256798
v 0.144273 6.042344 -0.242936
v 0.745519 5.989871 -0.218264
v 0.743230 6.005791 -0.200152
v 0.717795 6.005791 -0.192522
v 0.717795 5.989871 -0.206384
v 0.733694 6.069917 -0.206384
v 0.717795 6.056206 -0.206384
v 0.717795 6.042344 -0.192522
v 0.745519 6.042344 -0.192522
v 0.747730 6.070068 -0.192522
v 0.717795 5.989871 -0.242936
v 0.717795 6.005791 -0.256798
v 0.745519 6.005791 -0.256798
v 0.745519 5.989871 -0.242936
v 0.717795 6.056206 -0.242936
v 0.733694 6.069917 -0.242936
v 0.747730 6.070068 -0.256798
v 0.745519 6.042344 -0.256798
v 0.717795 6.042344 -0.256798
v 0.768665 6.042344 -0.256798
v 0.781244 6.070068 -0.256798
v 0.795236 6.069917 -0.242936
v 0.786046 6.044332 -0.242936
v 0.752822 6.001257 -0.257188
v 0.760028 6.003825 -0.243005
v 0.748817 5.990872 -0.249385
v 0.746867 5.994299 -0.210371
v 0.757736 6.003208 -0.215333
v 0.744193 6.004193 -0.193045
v 0.795236 6.069917 -0.206384
v 0.781244 6.070068 -0.192522
v 0.766798 6.042540 -0.194845
v 0.785252 6.044848 -0.208448
v 0.747112 6.160246 -0.242936
v 0.763010 6.173958 -0.242936
v 0.761103 6.160096 -0.256798
v 0.747112 6.160246 -0.206384
v 0.761103 6.160096 -0.192522
v 0.763010 6.173958 -0.206384
v 0.808654 6.160246 -0.242936
v 0.794617 6.160096 -0.256798
v 0.796828 6.173958 -0.242936
v 0.808654 6.160246 -0.206384
v 0.796828 6.173958 -0.206384
v 0.794617 6.160096 -0.192522
v 0.158135 8.937325 -0.206384
v 0.158135 8.951187 -0.192522
v 0.144273 8.951187 -0.206384
v 0.158135 8.987740 -0.192522
v 0.158135 9.001602 -0.206384
v 0.144273 8.987740 -0.206384
v 0.158135 8.937325 -0.242936
v 0.144273 8.951187 -0.242936
v 0.158135 8.951187 -0.256798
v 0.158135 9.001602 -0.242936
v 0.158135 8.987740 -0.256798
v 0.144273 8.987740 -0.242936
v 0.745519 8.935266 -0.218264
v 0.743230 8.951187 -0.200152
v 0.717795 8.951187 -0.192522
v 0.717795 8.935266 -0.206384
v 0.733694 9.015313 -0.206384
v 0.717795 9.001602 -0.206384
v 0.717795 8.987740 -0.192522
v 0.745519 8.987740 -0.192522
v 0.747730 9.015464 -0.192522
v 0.717795 8.935266 -0.242936
v 0.717795 8.951187 -0.256798
v 0.745519 8.951187 -0.256798
v 0.745519 8.935266 -0.242936
v 0.717795 9.001602 -0.242936
v 0.733694 9.015313 -0.242936
v 0.747730 9.015464 -0.256798
v 0.745519 8.987740 -0.256798
v 0.717795 8.987740 -0.256798
v 0.768665 8.987740 -0.256798
v 0.781244 9.015464 -0.256798
v 0.795236 9.015313 -0.242936
v 0.786046 8.989728 -0.242936
v 0.752822 8.946653 -0.257188
v 0.760028 8.949221 -0.243005
v 0.748817 8.936268 -0.249385
v 0.746867 8.939695 -0.210371
v 0.757736 8.948604 -0.215333
v 0.744193 8.949589 -0.193045
v 0.795236 9.015313 -0.206384
v 0.781244 9.015464 -0.192522
v 0.766798 8.987936 -0.194845
v 0.785252 8.990244 -0.208448
v 0.747112 9.105642 -0.242936
v 0.763010 9.119354 -0.242936
v 0.761103 9.105492 -0.256798
v 0.747112 9.105642 -0.206384
v 0.761103 9.105492 -0.192522
v 0.763010 9.119354 -0.206384
v 0.808654 9.105642 -0.242936
v 0.794617 9.105492 -0.256798
v 0.796828 9.119354 -0.242936
v 0.808654 9.105642 -0.206384
v 0.796828 9.119354 -0.206384
v 0.794617 9.105492 -0.192522
v 0.158135 11.882722 -0.206384
v 0.158135 11.896584 -0.192522
v 0.144273 11.896584 -0.206384
v 0.158135 11.933136 -0.192522
v 0.158135 11.946999 -0.206384
v 0.144273 11.933136 -0.206384
v 0.158135 11.882722 -0.242936
v 0.144273 11.896584 -0.242936
v 0.158135 11.896584 -0.256798
v 0.158135 11.946999 -0.242936
v 0.158135 11.933136 -0.256798
v 0.144273 11.933136 -0.242936
v 0.745519 11.880663 -0.218264
v 0.743230 11.896584 -0.200152
v 0.717795 11.896584 -0.192522
v 0.717795 11.880663 -0.206384
v 0.733694 11.960710 -0.206384
v 0.717795 11.946999 -0.206384
v 0.717795 11.933136 -0.192522
v 0.745519 11.933136 -0.192522
v 0.747730 11.960860 -0.192522
v 0.717795 11.880663 -0.242936
v 0.717795 11.896584 -0.256798
v 0.745519 11.896584 -0.256798
v 0.745519 11.880663 -0.242936
v 0.717795 11.946999 -0.242936
v 0.733694 11.960710 -0.242936
v 0.747730 11.960860 -0.256798
v 0.745519 11.933136 -0.256798
v 0.717795 11.933136 -0.256798
v 0.768665 11.933136 -0.256798
v 0.781244 11.960860 -0.256798
v 0.795236 11.960710 -0.242936
v 0.786046 11.935124 -0.242936
v 0.752822 11.892050 -0.257188
v 0.760028 11.894617 -0.243005
v 0.748817 11.881664 -0.249385
v 0.746867 11.885092 -0.210371
v 0.757736 11.894000 -0.215333
v 0.744193 11.894985 -0.193045
v 0.795236 11.960710 -0.206384
v 0.781244 11.960860 -0.192522
v 0.766798 11.933332 -0.194845
v 0.785252 11.935640 -0.208448
v 0.747112 12.051039 -0.242936
v 0.763010 12.064751 -0.242936
v 0.761103 12.050888 -0.256798
v 0.747112 12.051039 -0.206384
v 0.761103 12.050888 -0.192522
v 0.763010 12.064751 -0.206384
v 0.808654 12.051039 -0.242936
v 0.794617 12.050888 -0.256798
v 0.796828 12.064751 -0.242936
v 0.808654 12.051039 -0.206384
v 0.796828 12.064751 -0.206384
v 0.794617 12.050888 -0.192522
vn 0.1004 -0.3822 0.9186
vn -0.0580 0.2695 0.9613
vn -0.3416 0.3416 0.8756
vn -0.3405 -0.3321 0.8796
vn 0.3852 -0.9005 0.2016
vn 0.2903 -0.9077 -0.3030
vn 0.1723 -0.8290 -0.5321
vn -0.0250 -0.9209 0.3889
vn -0.1218 -0.2639 -0.9568
vn -0.0990 0.1081 -0.9892
vn 0.3792 -0.1793 -0.9078
vn 0.2220 -0.4580 -0.8608
vn -0.3049 0.8131 -0.4958
vn -0.3416 0.8756 -0.3416
vn -0.3416 0.8756 0.3416
vn -0.3049 0.8131 0.4958
vn -0.8756 -0.3416 0.3416
vn -0.8756 0.3416 0.3416
vn -0.8756 0.3416 -0.3416
vn -0.8756 -0.3416 -0.3416
vn -0.3405 -0.3321 -0.8796
vn -0.3416 0.3416 -0.8756
vn -0.0949 0.2941 -0.9510
vn -0.0003 -0.3583 -0.9336
vn 0.8873 -0.2516 0.3865
vn 0.8971 -0.2332 -0.3752
vn 0.9042 0.2473 -0.3481
vn 0.9042 0.2473 0.3481
vn 0.3902 -0.1126 -0.9138
vn -0.2926 0.1309 -0.9472
vn -0.3225 0.3739 -0.8696
vn 0.3526 0.3041 -0.8850
vn -0.7594 0.4203 -0.4966
vn -0.7594 0.4203 0.4966
vn -0.8352 0.4335 0.3383
vn -0.8352 0.4335 -0.3383
vn -0.1085 0.0659 0.9919
vn -0.2644 -0.4357 0.8604
vn 0.1092 -0.4549 0.8838
vn 0.3530 -0.2619 0.8982
vn -0.3061 0.8899 -0.3383
vn -0.3061 0.8899 0.3383
vn 0.3775 0.8581 0.3481
vn 0.3775 0.8581 -0.3481
vn -0.2823 0.1162 0.9523
vn 0.3915 -0.1502 0.9078
vn 0.3526 0.3041 0.8850
vn -0.3225 0.3739 0.8696
vn 0.7980 -0.5692 -0.1980
vn 0.8479 -0.4098 -0.3364
vn 0.8182 -0.4452 0.3639
vn 0.7524 -0.6026 0.2660
vn -0.3443 -0.8708 0.3509
vn -0.3443 -0.8708 -0.3509
vn 0.0815 -0.8990 0.4304
vn -0.0013 -0.9136 -0.4066
vn 0.1093 -0.4549 0.8838
vn 0.3527 0.3041 0.8850
vn 0.3851 -0.9006 0.2016
vn 0.2902 -0.9077 -0.3030
vn -0.0949 0.2941 -0.9511
vn 0.3527 0.3041 -0.8850
vn -0.3406 -0.3321 0.8796
vn -0.3406 -0.3321 -0.8796
vt 0.862751 0.491997
vt 0.754127 0.539589
vt 0.742060 0.533471
vt 0.872220 0.489447
vt 0.751844 0.525513
vt 0.874677 0.500000
vt 0.898544 0.484248
vt 0.815104 0.510183
vt 0.909041 0.482856
vt 0.746294 0.504690
vt 0.901001 0.494801
vt 0.815104 0.500000
vt 0.343790 0.007995
vt 0.780395 0.534899
vt 0.778112 0.520823
vt 0.355695 0.000000
vt 0.788252 0.525223
vt 0.352952 0.010466
vt 0.788252 0.510183
vt 0.389995 0.017184
vt 0.379228 0.015692
vt 0.772563 0.500000
vt 0.788252 0.500000
vt 0.381971 0.005225
vt 0.208252 0.500247
vt 0.779358 0.070154
vt 0.770522 0.801057
vt 0.317155 0.500247
vt 0.790474 0.068779
vt 0.314614 0.517363
vt 0.793757 0.086762
vt 0.782805 0.089605
vt 0.761628 0.790224
vt 0.344785 0.503248
vt 0.815104 0.933005
vt 0.838224 0.066782
vt 0.815104 0.921325
vt 0.830578 0.080171
vt 0.820081 0.081563
vt 0.816195 0.061615
vt 0.835850 0.056081
vt 0.263992 0.410498
vt 0.787896 0.785534
vt 0.274634 0.413263
vt 0.270754 0.433217
vt 0.226362 0.500365
vt 0.788252 0.797891
vt 0.260112 0.430451
vt 0.311677 0.419981
vt 0.788252 0.921325
vt 0.318270 0.500247
vt 0.788252 0.933005
vt 0.319308 0.433383
vt 0.316649 0.443997
vt 0.297030 0.438442
vt 0.300909 0.418489
vt 0.236370 0.542475
vt 0.293790 0.455101
vt 0.311959 0.468118
vt 0.236271 0.564807
vt 0.225702 0.569389
vt 0.225725 0.549601
vt 0.236724 0.510331
vt 0.266450 0.437839
vt 0.226134 0.514381
vt 0.231013 0.502168
vt 0.259997 0.433196
vt 0.202461 0.503552
vt 0.318270 0.506541
vt 0.205880 0.513067
vt 0.788924 0.068017
vt 0.189910 0.509007
vt 0.318270 0.521267
vt 0.198872 0.569213
vt 0.829596 0.022501
vt 0.189091 0.564497
vt 0.831152 0.031968
vt 0.190948 0.541671
vt 0.813438 0.046374
vt 0.200437 0.549502
vt 0.318270 0.547697
vt 0.259997 0.537282
vt 0.382364 0.455954
vt 0.271676 0.537282
vt 0.389995 0.469356
vt 0.270276 0.547466
vt 0.379494 0.466492
vt 0.344785 0.550699
vt 0.259997 0.510430
vt 0.901395 0.044281
vt 0.270276 0.500247
vt 0.898812 0.033655
vt 0.271676 0.510430
vt 0.909041 0.030891
vt 0.373751 0.500247
vt 0.305207 0.537282
vt 0.226156 0.632797
vt 0.374805 0.490613
vt 0.236724 0.628004
vt 0.296520 0.537282
vt 0.385263 0.493696
vt 0.199325 0.632621
vt 0.305207 0.510430
vt 0.892767 0.000000
vt 0.296520 0.510430
vt 0.904300 0.006558
vt 0.894113 0.009542
vt 0.603386 0.491997
vt 0.012066 0.539835
vt 0.000000 0.533718
vt 0.612854 0.489447
vt 0.009784 0.525760
vt 0.615312 0.500000
vt 0.639179 0.484248
vt 0.841957 0.510183
vt 0.649676 0.482856
vt 0.004234 0.504937
vt 0.641636 0.494801
vt 0.841957 0.500000
vt 0.083794 0.007995
vt 0.038335 0.535145
vt 0.036052 0.521070
vt 0.095698 0.000000
vt 0.046192 0.525470
vt 0.092955 0.010466
vt 0.815104 0.510183
vt 0.129998 0.017184
vt 0.119231 0.015692
vt 0.030503 0.500247
vt 0.815104 0.500000
vt 0.121973 0.005225
vt 0.112986 0.500247
vt 0.519993 0.070154
vt 0.028462 0.801304
vt 0.313499 0.500247
vt 0.531108 0.068780
vt 0.310958 0.517363
vt 0.534392 0.086762
vt 0.523440 0.089605
vt 0.019568 0.790471
vt 0.286511 0.550467
vt 0.841957 0.933005
vt 0.578858 0.066782
vt 0.841957 0.921325
vt 0.571212 0.080171
vt 0.560715 0.081563
vt 0.556829 0.061616
vt 0.576485 0.056081
vt 0.003995 0.410498
vt 0.045836 0.785781
vt 0.014637 0.413263
vt 0.010757 0.433217
vt 0.131096 0.500366
vt 0.046192 0.798138
vt 0.000115 0.430451
vt 0.051680 0.419981
vt 0.815104 0.921325
vt 0.259997 0.547466
vt 0.815104 0.933005
vt 0.059311 0.433384
vt 0.056653 0.443997
vt 0.037033 0.438442
vt 0.040912 0.418489
vt 0.141104 0.542475
vt 0.033793 0.455101
vt 0.051963 0.468118
vt 0.141006 0.564807
vt 0.130436 0.569390
vt 0.130459 0.549602
vt 0.141458 0.510331
vt 0.006453 0.437839
vt 0.130868 0.514381
vt 0.135747 0.502168
vt 0.000000 0.433196
vt 0.107196 0.503552
vt 0.314614 0.506541
vt 0.110614 0.513068
vt 0.529559 0.068017
vt 0.094644 0.509007
vt 0.314614 0.521267
vt 0.103606 0.569214
vt 0.570230 0.022501
vt 0.093825 0.564498
vt 0.571786 0.031968
vt 0.095683 0.541671
vt 0.554073 0.046374
vt 0.105171 0.549502
vt 0.259997 0.594917
vt 0.344785 0.537282
vt 0.122366 0.455954
vt 0.356464 0.537282
vt 0.129998 0.469357
vt 0.355063 0.547466
vt 0.119498 0.466492
vt 0.286511 0.597918
vt 0.344785 0.510430
vt 0.642030 0.044281
vt 0.355063 0.500247
vt 0.639446 0.033655
vt 0.356464 0.510430
vt 0.649676 0.030891
vt 0.113754 0.500247
vt 0.389995 0.537282
vt 0.130890 0.632798
vt 0.114808 0.490613
vt 0.141458 0.628004
vt 0.381308 0.537282
vt 0.125266 0.493696
vt 0.104060 0.632622
vt 0.389995 0.510430
vt 0.633402 0.000000
vt 0.381308 0.510430
vt 0.644934 0.006558
vt 0.634748 0.009542
vt 0.733068 0.491997
vt 0.661742 0.539589
vt 0.649676 0.533471
vt 0.742537 0.489447
vt 0.659460 0.525513
vt 0.744995 0.500000
vt 0.768862 0.484248
vt 0.868809 0.510183
vt 0.779359 0.482856
vt 0.653910 0.504691
vt 0.771318 0.494801
vt 0.868809 0.500000
vt 0.213792 0.007995
vt 0.688010 0.534899
vt 0.685728 0.520823
vt 0.225696 0.000000
vt 0.695868 0.525223
vt 0.222953 0.010467
vt 0.841957 0.510183
vt 0.259997 0.017184
vt 0.249229 0.015692
vt 0.680178 0.500000
vt 0.841957 0.500000
vt 0.251971 0.005225
vt 0.160619 0.500247
vt 0.649676 0.070154
vt 0.678137 0.801057
vt 0.309843 0.500247
vt 0.660791 0.068779
vt 0.307302 0.517363
vt 0.664075 0.086762
vt 0.653122 0.089605
vt 0.669243 0.790224
vt 0.403057 0.547697
vt 0.868809 0.933005
vt 0.708541 0.066782
vt 0.868809 0.921325
vt 0.700896 0.080171
vt 0.690399 0.081563
vt 0.686512 0.061616
vt 0.706168 0.056081
vt 0.133994 0.410498
vt 0.695512 0.785534
vt 0.144635 0.413264
vt 0.140755 0.433217
vt 0.178729 0.500366
vt 0.695868 0.797892
vt 0.130114 0.430451
vt 0.181678 0.419981
vt 0.841957 0.921325
vt 0.429572 0.550699
vt 0.841957 0.933005
vt 0.189310 0.433384
vt 0.186651 0.443997
vt 0.167031 0.438442
vt 0.170910 0.418489
vt 0.188737 0.542475
vt 0.163791 0.455101
vt 0.181961 0.468118
vt 0.188639 0.564807
vt 0.178069 0.569390
vt 0.178092 0.549601
vt 0.189091 0.510331
vt 0.136451 0.437839
vt 0.178501 0.514381
vt 0.183380 0.502168
vt 0.129998 0.433196
vt 0.154829 0.503552
vt 0.310958 0.506541
vt 0.158247 0.513068
vt 0.659242 0.068017
vt 0.142277 0.509007
vt 0.310958 0.521267
vt 0.151239 0.569213
vt 0.699913 0.022501
vt 0.141458 0.564498
vt 0.701469 0.031968
vt 0.143315 0.541671
vt 0.683757 0.046374
vt 0.152804 0.549502
vt 0.429572 0.503248
vt 0.474782 0.537282
vt 0.252365 0.455954
vt 0.486462 0.537282
vt 0.259997 0.469357
vt 0.485061 0.547466
vt 0.249496 0.466492
vt 0.403057 0.500247
vt 0.474782 0.510430
vt 0.771713 0.044281
vt 0.485061 0.500247
vt 0.769129 0.033655
vt 0.486462 0.510430
vt 0.779359 0.030891
vt 0.243753 0.500247
vt 0.519993 0.537282
vt 0.178523 0.632798
vt 0.244806 0.490613
vt 0.189091 0.628004
vt 0.511306 0.537282
vt 0.255264 0.493696
vt 0.151692 0.632621
vt 0.519993 0.510430
vt 0.763085 0.000000
vt 0.511306 0.510430
vt 0.774617 0.006558
vt 0.764431 0.009542
vt 0.603385 0.991997
vt 0.707934 0.539589
vt 0.695868 0.533471
vt 0.612854 0.989447
vt 0.705652 0.525514
vt 0.615311 1.000000
vt 0.639178 0.984248
vt 0.895661 0.510183
vt 0.649675 0.982856
vt 0.700102 0.504691
vt 0.641635 0.994801
vt 0.895661 0.500000
vt 0.473788 0.007995
vt 0.734202 0.534899
vt 0.731920 0.520823
vt 0.485692 0.000000
vt 0.742060 0.525224
vt 0.482949 0.010466
vt 0.868809 0.510183
vt 0.519993 0.017184
vt 0.509224 0.015692
vt 0.726370 0.500000
vt 0.868809 0.500000
vt 0.511968 0.005225
vt 0.065354 0.500247
vt 0.519993 0.570154
vt 0.724329 0.801057
vt 0.258882 0.500247
vt 0.531108 0.568779
vt 0.256341 0.517363
vt 0.534391 0.586762
vt 0.523439 0.589605
vt 0.715436 0.790224
vt 0.371299 0.550466
vt 0.895661 0.933005
vt 0.578858 0.566782
vt 0.895661 0.921325
vt 0.571213 0.580171
vt 0.560716 0.581563
vt 0.556828 0.561615
vt 0.576485 0.556081
vt 0.393989 0.410498
vt 0.741704 0.785534
vt 0.404631 0.413264
vt 0.400751 0.433217
vt 0.083464 0.500366
vt 0.742060 0.797891
vt 0.390110 0.430451
vt 0.441675 0.419981
vt 0.868809 0.921325
vt 0.344785 0.547465
vt 0.868809 0.933005
vt 0.449306 0.433383
vt 0.446648 0.443997
vt 0.427027 0.438442
vt 0.430907 0.418489
vt 0.093471 0.542476
vt 0.423788 0.455101
vt 0.441957 0.468118
vt 0.093373 0.564808
vt 0.082804 0.569390
vt 0.082826 0.549602
vt 0.093825 0.510332
vt 0.396448 0.437839
vt 0.083235 0.514381
vt 0.088114 0.502169
vt 0.389995 0.433196
vt 0.059563 0.503552
vt 0.259997 0.506541
vt 0.062982 0.513068
vt 0.529559 0.568017
vt 0.047011 0.509007
vt 0.259997 0.521267
vt 0.055973 0.569214
vt 0.570229 0.522501
vt 0.046192 0.564498
vt 0.571786 0.531968
vt 0.048050 0.541671
vt 0.554073 0.546374
vt 0.057538 0.549502
vt 0.344785 0.594915
vt 0.429572 0.537282
vt 0.512361 0.455954
vt 0.441251 0.537282
vt 0.519993 0.469356
vt 0.439851 0.547466
vt 0.509492 0.466492
vt 0.371299 0.597917
vt 0.429572 0.510430
vt 0.642030 0.544281
vt 0.439851 0.500247
vt 0.639446 0.533655
vt 0.441251 0.510430
vt 0.649675 0.530891
vt 0.503750 0.500247
vt 0.474782 0.537282
vt 0.083257 0.632798
vt 0.504802 0.490613
vt 0.093825 0.628005
vt 0.466095 0.537282
vt 0.515260 0.493696
vt 0.056427 0.632621
vt 0.474782 0.510430
vt 0.633402 0.500000
vt 0.466095 0.510430
vt 0.644934 0.506558
vt 0.634747 0.509541
s 1
usemtl Metal
f 476/683/169 480/691/170 465/659/171 463/656/172
f 474/677/173 486/698/174 498/718/175 499/720/176
f 485/697/177 490/707/178 492/710/179 496/716/180
f 487/702/181 471/671/182 466/660/183 479/689/184
f 464/657/185 467/662/186 473/674/187 469/667/188
f 470/670/189 472/673/190 491/708/191 484/696/192
f 502/726/193 494/713/194 512/749/195 515/754/196
f 493/711/197 489/706/198 508/739/199 513/750/200
f 488/703/201 478/686/202 509/740/203 506/733/204
f 481/692/205 475/681/206 501/723/207 504/731/208
f 507/736/209 511/745/210 516/757/211 514/752/212
f 482/693/213 503/729/214 517/759/215 510/744/216
f 497/717/217 495/714/218 505/732/219 500/722/220
f 462/654/221 463/655/172 464/657/185
f 465/659/171 466/661/183 467/663/186
f 468/666/222 469/667/188 470/669/189
f 471/672/182 472/673/190 473/676/187
f 474/678/173 475/681/206 476/683/169 477/684/223
f 478/688/202 479/690/184 480/691/170 481/692/205 482/693/213
f 483/694/224 484/696/192 485/697/177 486/700/174
f 487/701/181 488/705/201 489/706/198 490/707/178 491/708/191
f 492/709/179 493/712/197 494/713/194 495/714/218
f 496/715/180 497/717/217 498/718/175
f 499/720/176 500/722/220 501/724/207
f 502/726/193 503/728/214 504/730/208 505/732/219
f 506/734/204 507/736/209 508/738/199
f 509/741/203 510/743/216 511/745/210
f 512/747/195 513/750/200 514/753/212
f 515/756/196 516/758/211 517/759/215
f 468/666/222 462/654/221 464/657/185 469/667/188
f 463/656/172 465/659/171 467/663/186 464/658/185
f 466/660/183 471/671/182 473/675/187 467/664/186
f 472/673/190 470/670/189 469/668/188 473/676/187
f 483/694/224 468/665/222 470/670/189 484/696/192
f 471/672/182 487/701/181 491/708/191 472/673/190
f 490/707/178 485/697/177 484/696/192 491/708/191
f 477/685/223 483/695/224 486/699/174 474/679/173
f 487/702/181 479/689/184 478/687/202 488/704/201
f 480/691/170 476/683/169 475/681/206 481/692/205
f 462/653/221 477/684/223 476/683/169 463/656/172
f 479/690/184 466/661/183 465/659/171 480/691/170
f 495/714/218 497/717/217 496/715/180 492/709/179
f 499/720/176 498/718/175 497/717/217 500/722/220
f 494/713/194 502/726/193 505/732/219 495/714/218
f 504/730/208 501/724/207 500/722/220 505/732/219
f 481/692/205 504/731/208 503/729/214 482/693/213
f 492/710/179 490/707/178 489/706/198 493/711/197
f 498/719/175 486/700/174 485/697/177 496/716/180
f 474/680/173 499/721/176 501/725/207 475/682/206
f 506/734/204 509/741/203 511/745/210 507/736/209
f 514/752/212 516/757/211 515/755/196 512/748/195
f 510/744/216 517/759/215 516/758/211 511/746/210
f 513/750/200 508/739/199 507/737/209 514/753/212
f 502/727/193 515/756/196 517/759/215 503/729/214
f 509/742/203 478/688/202 482/693/213 510/744/216
f 493/712/197 513/751/200 512/749/195 494/713/194
f 508/739/199 489/706/198 488/705/201 506/735/204
f 468/666/222 483/695/224 477/685/223 462/654/221
f 532/790/169 536/798/170 521/766/171 519/763/172
f 530/784/173 542/805/174 554/825/175 555/827/176
f 541/804/177 546/814/178 548/817/179 552/823/180
f 543/809/181 527/778/182 522/767/183 535/796/184
f 520/764/185 523/769/186 529/781/187 525/774/188
f 526/777/189 528/780/190 547/815/191 540/803/192
f 558/833/193 550/820/194 568/856/195 571/861/196
f 549/818/197 545/813/198 564/846/199 569/857/200
f 544/810/201 534/793/202 565/847/203 562/840/204
f 537/799/205 531/788/206 557/830/225 560/838/208
f 563/843/209 567/852/210 572/864/211 570/859/212
f 538/800/213 559/836/214 573/866/226 566/851/216
f 553/824/217 551/821/218 561/839/219 556/829/220
f 518/761/221 519/762/172 520/764/185
f 521/766/171 522/768/183 523/770/186
f 524/773/222 525/774/188 526/776/189
f 527/779/182 528/780/190 529/783/187
f 530/785/173 531/788/206 532/790/169 533/791/223
f 534/795/202 535/797/184 536/798/170 537/799/205 538/800/213
f 539/801/224 540/803/192 541/804/177 542/807/174
f 543/808/181 544/812/201 545/813/198 546/814/178 547/815/191
f 548/816/179 549/819/197 550/820/194 551/821/218
f 552/822/180 553/824/217 554/825/175
f 555/827/176 556/829/220 557/831/225
f 558/833/193 559/835/214 560/837/208 561/839/219
f 562/841/204 563/843/209 564/845/199
f 565/848/203 566/850/216 567/852/210
f 568/854/195 569/857/200 570/860/212
f 571/863/196 572/865/211 573/866/226
f 524/773/222 518/761/221 520/764/185 525/774/188
f 519/763/172 521/766/171 523/770/186 520/765/185
f 522/767/183 527/778/182 529/782/187 523/771/186
f 528/780/190 526/777/189 525/775/188 529/783/187
f 539/801/224 524/772/222 526/777/189 540/803/192
f 527/779/182 543/808/181 547/815/191 528/780/190
f 546/814/178 541/804/177 540/803/192 547/815/191
f 533/792/223 539/802/224 542/806/174 530/786/173
f 543/809/181 535/796/184 534/794/202 544/811/201
f 536/798/170 532/790/169 531/788/206 537/799/205
f 518/760/221 533/791/223 532/790/169 519/763/172
f 535/797/184 522/768/183 521/766/171 536/798/170
f 551/821/218 553/824/217 552/822/180 548/816/179
f 555/827/176 554/825/175 553/824/217 556/829/220
f 550/820/194 558/833/193 561/839/219 551/821/218
f 560/837/208 557/831/225 556/829/220 561/839/219
f 537/799/205 560/838/208 559/836/214 538/800/213
f 548/817/179 546/814/178 545/813/198 549/818/197
f 554/826/175 542/807/174 541/804/177 552/823/180
f 530/787/173 555/828/176 557/832/225 531/789/206
f 562/841/204 565/848/203 567/852/210 563/843/209
f 570/859/212 572/864/211 571/862/196 568/855/195
f 566/851/216 573/866/226 572/865/211 567/853/210
f 569/857/200 564/846/199 563/844/209 570/860/212
f 558/834/193 571/863/196 573/866/226 559/836/214
f 565/849/203 534/795/202 538/800/213 566/851/216
f 549/819/197 569/858/200 568/856/195 550/820/194
f 564/846/199 545/813/198 544/812/201 562/842/204
f 524/773/222 539/802/224 533/792/223 518/761/221
f 588/897/169 592/905/170 577/873/171 575/870/172
f 586/891/227 598/912/228 610/932/175 611/934/176
f 597/911/177 602/921/178 604/924/179 608/930/180
f 599/916/181 583/885/182 578/874/183 591/903/184
f 576/871/185 579/876/186 585/888/187 581/881/188
f 582/884/189 584/887/190 603/922/229 596/910/192
f 614/940/193 606/927/194 624/963/195 627/968/196
f 605/925/197 601/920/198 620/953/199 625/964/230
f 600/917/201 590/900/202 621/954/203 618/947/204
f 593/906/205 587/895/206 613/937/225 616/945/208
f 619/950/209 623/959/210 628/971/211 626/966/212
f 594/907/213 615/943/214 629/973/226 622/958/216
f 609/931/217 607/928/218 617/946/219 612/936/220
f 574/868/221 575/869/172 576/871/185
f 577/873/171 578/875/183 579/877/186
f 580/880/222 581/881/188 582/883/189
f 583/886/182 584/887/190 585/890/187
f 586/892/227 587/895/206 588/897/169 589/898/223
f 590/902/202 591/904/184 592/905/170 593/906/205 594/907/213
f 595/908/224 596/910/192 597/911/177 598/914/228
f 599/915/181 600/919/201 601/920/198 602/921/178 603/922/229
f 604/923/179 605/926/197 606/927/194 607/928/218
f 608/929/180 609/931/217 610/932/175
f 611/934/176 612/936/220 613/938/225
f 614/940/193 615/942/214 616/944/208 617/946/219
f 618/948/204 619/950/209 620/952/199
f 621/955/203 622/957/216 623/959/210
f 624/961/195 625/964/230 626/967/212
f 627/970/196 628/972/211 629/973/226
f 580/880/222 574/868/221 576/871/185 581/881/188
f 575/870/172 577/873/171 579/877/186 576/872/185
f 578/874/183 583/885/182 585/889/187 579/878/186
f 584/887/190 582/884/189 581/882/188 585/890/187
f 595/908/224 580/879/222 582/884/189 596/910/192
f 583/886/182 599/915/181 603/922/229 584/887/190
f 602/921/178 597/911/177 596/910/192 603/922/229
f 589/899/223 595/909/224 598/913/228 586/893/227
f 599/916/181 591/903/184 590/901/202 600/918/201
f 592/905/170 588/897/169 587/895/206 593/906/205
f 574/867/221 589/898/223 588/897/169 575/870/172
f 591/904/184 578/875/183 577/873/171 592/905/170
f 607/928/218 609/931/217 608/929/180 604/923/179
f 611/934/176 610/932/175 609/931/217 612/936/220
f 606/927/194 614/940/193 617/946/219 607/928/218
f 616/944/208 613/938/225 612/936/220 617/946/219
f 593/906/205 616/945/208 615/943/214 594/907/213
f 604/924/179 602/921/178 601/920/198 605/925/197
f 610/933/175 598/914/228 597/911/177 608/930/180
f 586/894/227 611/935/176 613/939/225 587/896/206
f 618/948/204 621/955/203 623/959/210 619/950/209
f 626/966/212 628/971/211 627/969/196 624/962/195
f 622/958/216 629/973/226 628/972/211 623/960/210
f 625/964/230 620/953/199 619/951/209 626/967/212
f 614/941/193 627/970/196 629/973/226 615/943/214
f 621/956/203 590/902/202 594/907/213 622/958/216
f 605/926/197 625/965/230 624/963/195 606/927/194
f 620/953/199 601/920/198 600/919/201 618/949/204
f 580/880/222 595/909/224 589/899/223 574/868/221
f 644/1004/169 648/1012/170 633/980/171 631/977/231
f 642/998/173 654/1019/174 666/1039/175 667/1041/176
f 653/1018/177 658/1028/178 660/1031/179 664/1037/180
f 655/1023/181 639/992/182 634/981/183 647/1010/184
f 632/978/185 635/983/186 641/995/187 637/988/188
f 638/991/232 640/994/190 659/1029/191 652/1017/192
f 670/1047/193 662/1034/194 680/1070/195 683/1075/196
f 661/1032/197 657/1027/198 676/1060/199 681/1071/200
f 656/1024/201 646/1007/202 677/1061/203 674/1054/204
f 649/1013/205 643/1002/206 669/1044/225 672/1052/208
f 675/1057/209 679/1066/210 684/1078/211 682/1073/212
f 650/1014/213 671/1050/214 685/1080/226 678/1065/216
f 665/1038/217 663/1035/218 673/1053/219 668/1043/220
f 630/975/221 631/976/231 632/978/185
f 633/980/171 634/982/183 635/984/186
f 636/987/222 637/988/188 638/990/232
f 639/993/182 640/994/190 641/997/187
f 642/999/173 643/1002/206 644/1004/169 645/1005/223
f 646/1009/202 647/1011/184 648/1012/170 649/1013/205 650/1014/213
f 651/1015/224 652/1017/192 653/1018/177 654/1021/174
f 655/1022/181 656/1026/201 657/1027/198 658/1028/178 659/1029/191
f 660/1030/179 661/1033/197 662/1034/194 663/1035/218
f 664/1036/180 665/1038/217 666/1039/175
f 667/1041/176 668/1043/220 669/1045/225
f 670/1047/193 671/1049/214 672/1051/208 673/1053/219
f 674/1055/204 675/1057/209 676/1059/199
f 677/1062/203 678/1064/216 679/1066/210
f 680/1068/195 681/1071/200 682/1074/212
f 683/1077/196 684/1079/211 685/1080/226
f 636/987/222 630/975/221 632/978/185 637/988/188
f 631/977/231 633/980/171 635/984/186 632/979/185
f 634/981/183 639/992/182 641/996/187 635/985/186
f 640/994/190 638/991/232 637/989/188 641/997/187
f 651/1015/224 636/986/222 638/991/232 652/1017/192
f 639/993/182 655/1022/181 659/1029/191 640/994/190
f 658/1028/178 653/1018/177 652/1017/192 659/1029/191
f 645/1006/223 651/1016/224 654/1020/174 642/1000/173
f 655/1023/181 647/1010/184 646/1008/202 656/1025/201
f 648/1012/170 644/1004/169 643/1002/206 649/1013/205
f 630/974/221 645/1005/223 644/1004/169 631/977/231
f 647/1011/184 634/982/183 633/980/171 648/1012/170
f 663/1035/218 665/1038/217 664/1036/180 660/1030/179
f 667/1041/176 666/1039/175 665/1038/217 668/1043/220
f 662/1034/194 670/1047/193 673/1053/219 663/1035/218
f 672/1051/208 669/1045/225 668/1043/220 673/1053/219
f 649/1013/205 672/1052/208 671/1050/214 650/1014/213
f 660/1031/179 658/1028/178 657/1027/198 661/1032/197
f 666/1040/175 654/1021/174 653/1018/177 664/1037/180
f 642/1001/173 667/1042/176 669/1046/225 643/1003/206
f 674/1055/204 677/1062/203 679/1066/210 675/1057/209
f 682/1073/212 684/1078/211 683/1076/196 680/1069/195
f 678/1065/216 685/1080/226 684/1079/211 679/1067/210
f 681/1071/200 676/1060/199 675/1058/209 682/1074/212
f 670/1048/193 683/1077/196 685/1080/226 671/1050/214
f 677/1063/203 646/1009/202 650/1014/213 678/1065/216
f 661/1033/197 681/1072/200 680/1070/195 662/1034/194
f 676/1060/199 657/1027/198 656/1026/201 674/1056/204
f 636/987/222 651/1016/224 645/1006/223 630/975/221
