# Blender 3.3.1
# www.blender.org
mtllib Cross.mtl
o CruzeCruz
v 5.459854 0.016988 1.460840
v 5.459854 -0.035291 1.460840
v 5.459854 0.016988 3.460840
v 3.459854 0.016988 1.460840
v 3.459854 -0.035291 1.460840
v 3.459854 0.016988 3.460840
v 5.459854 -0.035291 -1.544075
v 3.459854 -0.035291 -1.544075
v 3.459854 0.016988 -1.542866
v 3.459854 0.016988 -3.542866
v 5.459854 0.016988 -1.542866
v 5.459854 0.016988 -3.542866
v 7.459854 0.016988 1.460840
v 7.459854 -0.035291 1.460840
v 7.459854 0.016988 3.460840
v 5.459854 0.016988 1.460840
v 5.459854 -0.035291 1.460840
v 5.459854 0.016988 3.460840
v 7.459854 -0.035291 -1.544075
v 5.459854 -0.035291 -1.544075
v 5.459854 0.016988 -1.542866
v 5.459854 0.016988 -3.542866
v 7.459854 0.016988 -1.542866
v 7.459854 0.016988 -3.542866
v 9.459854 0.016988 1.460840
v 9.459854 -0.035291 1.460840
v 9.459854 0.016988 3.460840
v 7.459854 0.016988 1.460840
v 7.459854 -0.035291 1.460840
v 7.459854 0.016988 3.460840
v 9.459854 -0.035291 -1.544075
v 7.459854 -0.035291 -1.544075
v 7.459854 0.016988 -1.542866
v 7.459854 0.016988 -3.542866
v 9.459854 0.016988 -1.542866
v 9.459854 0.016988 -3.542866
v 11.459854 0.016988 1.460840
v 11.459854 -0.035291 1.460840
v 11.459854 0.016988 3.460840
v 9.459854 0.016988 1.460840
v 9.459854 -0.035291 1.460840
v 9.459854 0.016988 3.460840
v 11.459854 -0.035291 -1.544075
v 9.459854 -0.035291 -1.544075
v 9.459854 0.016988 -1.542866
v 9.459854 0.016988 -3.542866
v 11.459854 0.016988 -1.542866
v 11.459854 0.016988 -3.542866
v 1.460376 0.016988 -5.542747
v 1.460376 -0.035291 -5.542747
v 3.460376 0.016988 -5.542747
v 1.460376 0.016988 -3.542747
v 1.460376 -0.035291 -3.542747
v 3.460377 0.016988 -3.542747
v -1.544539 -0.035291 -5.542747
v -1.544538 -0.035291 -3.542747
v -1.543329 0.016988 -3.542747
v -3.543329 0.016988 -3.542747
v -1.543329 0.016988 -5.542747
v -3.543329 0.016988 -5.542747
v 1.460376 0.016988 -7.542747
v 1.460376 -0.035291 -7.542747
v 3.460376 0.016988 -7.542747
v 1.460376 0.016988 -5.542747
v 1.460376 -0.035291 -5.542747
v 3.460376 0.016988 -5.542747
v -1.544539 -0.035291 -7.542747
v -1.544538 -0.035291 -5.542747
v -1.543329 0.016988 -5.542747
v -3.543329 0.016988 -5.542747
v -1.543329 0.016988 -7.542747
v -3.543329 0.016988 -7.542747
v 1.460376 0.016988 -9.542747
v 1.460376 -0.035291 -9.542747
v 3.460376 0.016988 -9.542747
v 1.460376 0.016988 -7.542747
v 1.460376 -0.035291 -7.542747
v 3.460376 0.016988 -7.542747
v -1.544539 -0.035291 -9.542747
v -1.544539 -0.035291 -7.542747
v -1.543329 0.016988 -7.542747
v -3.543329 0.016988 -7.542747
v -1.543330 0.016988 -9.542747
v -3.543330 0.016988 -9.542747
v 1.460376 0.016988 -11.542747
v 1.460376 -0.035291 -11.542747
v 3.460376 0.016988 -11.542747
v 1.460376 0.016988 -9.542747
v 1.460376 -0.035291 -9.542747
v 3.460376 0.016988 -9.542747
v -1.544539 -0.035291 -11.542747
v -1.544539 -0.035291 -9.542747
v -1.543329 0.016988 -9.542747
v -3.543329 0.016988 -9.542747
v -1.543330 0.016988 -11.542747
v -3.543330 0.016988 -11.542747
v -9.543317 0.016988 1.460840
v -9.543317 -0.035291 1.460840
v -9.543317 0.016988 3.460840
v -11.543317 0.016988 1.460840
v -11.543317 -0.035291 1.460840
v -11.543317 0.016988 3.460840
v -9.543317 -0.035291 -1.544075
v -11.543317 -0.035291 -1.544075
v -11.543317 0.016988 -1.542866
v -11.543317 0.016988 -3.542866
v -9.543317 0.016988 -1.542866
v -9.543317 0.016988 -3.542866
v -7.543317 0.016988 1.460840
v -7.543317 -0.035291 1.460840
v -7.543317 0.016988 3.460840
v -9.543317 0.016988 1.460840
v -9.543317 -0.035291 1.460840
v -9.543317 0.016988 3.460840
v -7.543317 -0.035291 -1.544075
v -9.543317 -0.035291 -1.544075
v -9.543317 0.016988 -1.542866
v -9.543317 0.016988 -3.542866
v -7.543317 0.016988 -1.542866
v -7.543317 0.016988 -3.542866
v -5.543317 0.016988 1.460840
v -5.543317 -0.035291 1.460840
v -5.543317 0.016988 3.460840
v -7.543317 0.016988 1.460840
v -7.543317 -0.035291 1.460840
v -7.543317 0.016988 3.460840
v -5.543317 -0.035291 -1.544075
v -7.543317 -0.035291 -1.544075
v -7.543317 0.016988 -1.542866
v -7.543317 0.016988 -3.542866
v -5.543317 0.016988 -1.542866
v -5.543317 0.016988 -3.542866
v -3.543317 0.016988 1.460840
v -3.543317 -0.035291 1.460840
v -3.543317 0.016988 3.460840
v -5.543317 0.016988 1.460840
v -5.543317 -0.035291 1.460840
v -5.543317 0.016988 3.460840
v -3.543317 -0.035291 -1.544075
v -5.543317 -0.035291 -1.544075
v -5.543317 0.016988 -1.542866
v -5.543317 0.016988 -3.542866
v -3.543317 0.016988 -1.542866
v -3.543317 0.016988 -3.542865
v 1.460376 0.016988 9.460710
v 1.460376 -0.035291 9.460710
v 3.460376 0.016988 9.460710
v 1.460376 0.016988 11.460710
v 1.460376 -0.035291 11.460710
v 3.460377 0.016988 11.460710
v -1.544539 -0.035291 9.460710
v -1.544538 -0.035291 11.460710
v -1.543329 0.016988 11.460710
v -3.543329 0.016988 11.460710
v -1.543329 0.016988 9.460710
v -3.543329 0.016988 9.460710
v 1.460376 0.016988 7.460708
v 1.460376 -0.035291 7.460708
v 3.460376 0.016988 7.460708
v 1.460376 0.016988 9.460710
v 1.460376 -0.035291 9.460710
v 3.460376 0.016988 9.460710
v -1.544539 -0.035291 7.460709
v -1.544538 -0.035291 9.460710
v -1.543329 0.016988 9.460710
v -3.543329 0.016988 9.460710
v -1.543329 0.016988 7.460709
v -3.543329 0.016988 7.460709
v 1.460376 0.016988 5.460708
v 1.460376 -0.035291 5.460708
v 3.460376 0.016988 5.460709
v 1.460376 0.016988 7.460708
v 1.460376 -0.035291 7.460708
v 3.460376 0.016988 7.460708
v -1.544539 -0.035291 5.460709
v -1.544539 -0.035291 7.460709
v -1.543329 0.016988 7.460709
v -3.543329 0.016988 7.460709
v -1.543330 0.016988 5.460709
v -3.543330 0.016988 5.460709
v 1.460376 0.016988 3.460709
v 1.460376 -0.035291 3.460709
v 3.460376 0.016988 3.460708
v 1.460376 0.016988 5.460708
v 1.460376 -0.035291 5.460708
v 3.460376 0.016988 5.460709
v -1.544539 -0.035291 3.460709
v -1.544539 -0.035291 5.460709
v -1.543329 0.016988 5.460709
v -3.543329 0.016988 5.460709
v -1.543330 0.016988 3.460709
v -3.543330 0.016988 3.460709
v -3.180184 -0.035291 -1.570776
v -3.180184 0.016988 -1.569567
v -3.180184 0.016988 -3.542865
v -2.793021 -0.035291 -1.679408
v -2.793021 0.016988 -1.678291
v -2.793021 0.016988 -3.542865
v -2.428109 -0.035291 -1.869121
v -2.428109 0.016988 -1.868106
v -2.428109 0.016988 -3.542865
v -2.121049 -0.035291 -2.127230
v -2.121049 0.016988 -2.126215
v -2.121049 0.016988 -3.542865
v -1.871840 -0.035291 -2.427969
v -1.871840 0.016988 -2.427202
v -1.871840 0.016988 -3.542865
v -1.680236 -0.035291 -2.783363
v -1.680236 0.016988 -2.782596
v -1.680236 0.016988 -3.542865
v -1.680236 -0.035291 -2.783363
v -1.680236 0.016988 -2.782596
v -1.680236 0.016988 -3.542865
v -1.572690 -0.035291 -3.125464
v -1.572690 0.016988 -3.124994
v -3.543317 0.016988 -1.840489
v -3.180184 0.016988 -1.877573
v -2.428109 0.016988 -2.263873
v -1.871840 0.016988 -3.100380
v -2.793021 0.016988 -2.016641
v -2.121049 0.016988 -2.597635
v 2.515394 0.016988 -2.119770
v 1.934401 0.016988 -2.791742
v 3.018139 0.016988 -1.870562
v 2.181632 0.016988 -2.426830
v 1.795333 0.016988 -3.178905
v 1.758249 0.016988 -3.542038
v 3.042753 0.016988 -1.571411
v 3.043223 -0.035291 -1.571411
v 3.460624 0.016988 -1.678957
v 2.700355 0.016988 -1.678957
v 2.701123 -0.035291 -1.678957
v 3.460624 0.016988 -1.678957
v 2.700355 0.016988 -1.678957
v 2.701123 -0.035291 -1.678957
v 3.460624 0.016988 -1.870562
v 2.344961 0.016988 -1.870562
v 2.345729 -0.035291 -1.870562
v 3.460624 0.016988 -2.119770
v 2.043974 0.016988 -2.119770
v 2.044989 -0.035291 -2.119770
v 3.460624 0.016988 -2.426830
v 1.785865 0.016988 -2.426830
v 1.786880 -0.035291 -2.426830
v 3.460624 0.016988 -2.791742
v 1.596050 0.016988 -2.791742
v 1.597167 -0.035291 -2.791742
v 3.460624 0.016988 -3.178905
v 1.487326 0.016988 -3.178905
v 1.488535 -0.035291 -3.178905
v 3.460624 0.016988 -3.542038
v 1.460625 0.016988 -3.542038
v 1.461834 -0.035291 -3.542038
v 3.460506 0.016988 -1.542050
v 3.460506 -0.035291 -1.543260
v 1.461562 -0.035291 3.461590
v 1.460353 0.016988 3.461590
v 3.460341 -0.035291 1.462917
v 3.460341 0.016988 1.461708
v 3.460341 0.016988 3.461707
v 3.097208 -0.035291 1.489618
v 3.097208 0.016988 1.488409
v 3.097208 0.016988 3.461707
v 2.710045 -0.035291 1.598250
v 2.710045 0.016988 1.597133
v 2.710045 0.016988 3.461707
v 2.345133 -0.035291 1.787963
v 2.345133 0.016988 1.786948
v 2.345133 0.016988 3.461707
v 2.038073 -0.035291 2.046072
v 2.038073 0.016988 2.045057
v 2.038073 0.016988 3.461707
v 1.788864 -0.035291 2.346812
v 1.788864 0.016988 2.346044
v 1.788864 0.016988 3.461707
v 1.597260 -0.035291 2.702205
v 1.597260 0.016988 2.701438
v 1.597260 0.016988 3.461707
v 1.597260 -0.035291 2.702205
v 1.597260 0.016988 2.701438
v 1.597260 0.016988 3.461707
v 1.489714 -0.035291 3.044307
v 1.489714 0.016988 3.043836
v 3.460341 0.016988 1.759331
v 3.097208 0.016988 1.796415
v 2.345133 0.016988 2.182715
v 1.788864 0.016988 3.019222
v 2.710045 0.016988 1.935484
v 2.038073 0.016988 2.516477
v -2.598370 0.016988 2.038612
v -2.017377 0.016988 2.710584
v -3.101115 0.016988 1.789403
v -2.264608 0.016988 2.345672
v -1.878309 0.016988 3.097747
v -1.841224 0.016988 3.460880
v -3.125729 0.016988 1.490253
v -3.126199 -0.035291 1.490253
v -3.543600 0.016988 1.597798
v -2.783331 0.016988 1.597798
v -2.784098 -0.035291 1.597798
v -3.543600 0.016988 1.597798
v -2.783331 0.016988 1.597798
v -2.784098 -0.035291 1.597798
v -3.543600 0.016988 1.789403
v -2.427937 0.016988 1.789403
v -2.428705 -0.035291 1.789403
v -3.543600 0.016988 2.038612
v -2.126950 0.016988 2.038612
v -2.127965 -0.035291 2.038612
v -3.543600 0.016988 2.345672
v -1.868841 0.016988 2.345672
v -1.869856 -0.035291 2.345672
v -3.543600 0.016988 2.710584
v -1.679025 0.016988 2.710584
v -1.680143 -0.035291 2.710584
v -3.543600 0.016988 3.097747
v -1.570302 0.016988 3.097748
v -1.571511 -0.035291 3.097748
v -3.543600 0.016988 3.460880
v -1.543601 0.016988 3.460880
v -1.544810 -0.035291 3.460880
v -3.543482 0.016988 1.460892
v -3.543482 -0.035291 1.462101
v -3.587950 -0.038665 3.495542
v 3.554314 -0.038665 3.495542
v -3.587950 -0.038665 -3.646721
v 3.554314 -0.038665 -3.646721
vn -0.0000 1.0000 -0.0000
vn -0.0000 -0.0000 -1.0000
vn -0.0000 -0.0231 0.9997
vn -1.0000 -0.0000 -0.0000
vn 0.9997 -0.0231 -0.0000
vn 0.0733 -0.0231 0.9970
vn 0.2702 -0.0214 0.9626
vn 0.4613 -0.0181 0.8871
vn 0.6434 -0.0149 0.7654
vn 0.7701 -0.0109 0.6379
vn 0.8802 -0.0070 0.4745
vn 0.9540 -0.0035 0.2998
vn 0.9976 -0.0118 0.0687
vn -0.2998 -0.0035 0.9540
vn -0.6379 -0.0109 0.7701
vn -0.7654 -0.0149 0.6434
vn -0.9626 -0.0214 0.2702
vn -0.9970 -0.0231 0.0733
vn -0.4745 -0.0070 0.8802
vn -0.8871 -0.0181 0.4613
vn -0.0687 -0.0118 0.9976
vn -0.0733 -0.0231 -0.9970
vn -0.2702 -0.0214 -0.9626
vn -0.4613 -0.0181 -0.8871
vn -0.6434 -0.0149 -0.7654
vn -0.7701 -0.0109 -0.6379
vn -0.8802 -0.0070 -0.4745
vn -0.9540 -0.0035 -0.2998
vn -0.9976 -0.0118 -0.0687
vn 0.2998 -0.0035 -0.9540
vn 0.6379 -0.0109 -0.7701
vn 0.7654 -0.0149 -0.6434
vn 0.9626 -0.0214 -0.2702
vn 0.9970 -0.0231 -0.0733
vn 0.4745 -0.0070 -0.8802
vn 0.8871 -0.0181 -0.4613
vn 0.0687 -0.0118 -0.9976
vt 0.986835 0.001569
vt 0.965123 0.001569
vt 0.991257 0.001569
vt 0.000055 0.000055
vt -0.012970 0.001569
vt 0.986835 0.997643
vt 0.965123 0.997643
vt 0.991257 0.997643
vt 0.000055 0.999945
vt -0.012969 0.997643
vt 0.999634 0.000055
vt 0.991257 0.997643
vt 0.999634 0.999945
vt 0.991257 0.001569
vt 0.986835 0.001569
vt 0.965123 0.001569
vt -0.012970 0.001569
vt 0.986835 0.997643
vt 0.965123 0.997643
vt -0.012969 0.997643
vt 0.986835 0.001569
vt 0.965123 0.001569
vt 0.991257 0.001569
vt 0.000055 0.000055
vt -0.012970 0.001569
vt 0.986835 0.997643
vt 0.965123 0.997643
vt 0.991257 0.997643
vt 0.000055 0.999945
vt -0.012969 0.997643
vt 0.999634 0.000055
vt 0.991257 0.997643
vt 0.999634 0.999945
vt 0.991257 0.001569
vt 0.986835 0.001569
vt 0.965123 0.001569
vt -0.012970 0.001569
vt 0.986835 0.997643
vt 0.965123 0.997643
vt -0.012969 0.997643
vt 0.986835 0.001569
vt 0.965123 0.001569
vt 0.991257 0.001569
vt 0.000055 0.000055
vt -0.012970 0.001569
vt 0.986835 0.997643
vt 0.965123 0.997643
vt 0.991257 0.997643
vt 0.000055 0.999945
vt -0.012969 0.997643
vt 0.999634 0.000055
vt 0.991257 0.997643
vt 0.999634 0.999945
vt 0.991257 0.001569
vt 0.986835 0.001569
vt 0.965123 0.001569
vt -0.012970 0.001569
vt 0.986835 0.997643
vt 0.965123 0.997643
vt -0.012969 0.997643
vt 0.986835 0.001569
vt 0.965123 0.001569
vt 0.991257 0.001569
vt 0.000055 0.000055
vt -0.012970 0.001569
vt 0.986835 0.997643
vt 0.965123 0.997643
vt 0.991257 0.997643
vt 0.000055 0.999945
vt -0.012969 0.997643
vt 0.999634 0.000055
vt 0.991257 0.997643
vt 0.999634 0.999945
vt 0.991257 0.001569
vt 0.986835 0.001569
vt 0.965123 0.001569
vt -0.012970 0.001569
vt 0.986835 0.997643
vt 0.965123 0.997643
vt -0.012969 0.997643
vt 0.986835 0.001569
vt 0.965123 0.001569
vt 0.991257 0.001569
vt 0.000055 0.000055
vt -0.012970 0.001569
vt 0.986835 0.997643
vt 0.965123 0.997643
vt 0.991257 0.997643
vt 0.000055 0.999945
vt -0.012969 0.997643
vt 0.999634 0.000055
vt 0.991257 0.997643
vt 0.999634 0.999945
vt 0.991257 0.001569
vt 0.931940 0.701610
vt 0.986835 0.001569
vt 0.965123 0.001569
vt 0.999997 0.965951
vt 0.904703 0.701734
vt -0.012970 0.001569
vt 0.986835 0.997643
vt 0.965123 0.997643
vt -0.012969 0.997643
vt 0.986835 0.001569
vt 0.965123 0.001569
vt 0.991257 0.001569
vt 0.000055 0.000055
vt -0.012970 0.001569
vt 0.986835 0.997643
vt 0.965123 0.997643
vt 0.991257 0.997643
vt 0.000055 0.999945
vt -0.012969 0.997643
vt 0.999634 0.000055
vt 0.991257 0.997643
vt 0.999634 0.999945
vt 0.991257 0.001569
vt 0.986835 0.001569
vt 0.965123 0.001569
vt -0.012970 0.001569
vt 0.986835 0.997643
vt 0.965123 0.997643
vt -0.012969 0.997643
vt 0.986835 0.001569
vt 0.965123 0.001569
vt 0.991257 0.001569
vt 0.000055 0.000055
vt -0.012970 0.001569
vt 0.986835 0.997643
vt 0.965123 0.997643
vt 0.991257 0.997643
vt 0.000055 0.999945
vt -0.012969 0.997643
vt 0.999634 0.000055
vt 0.991257 0.997643
vt 0.999634 0.999945
vt 0.991257 0.001569
vt 0.986835 0.001569
vt 0.965123 0.001569
vt -0.012970 0.001569
vt 0.986835 0.997643
vt 0.965123 0.997643
vt -0.012969 0.997643
vt 0.986835 0.001569
vt 0.965123 0.001569
vt 0.991257 0.001569
vt 0.000055 0.000055
vt -0.012970 0.001569
vt 0.986835 0.997643
vt 0.965123 0.997643
vt 0.991257 0.997643
vt 0.000055 0.999945
vt -0.012969 0.997643
vt 0.999634 0.000055
vt 0.991257 0.997643
vt 0.999634 0.999945
vt 0.991257 0.001569
vt 0.986835 0.001569
vt 0.965123 0.001569
vt -0.012970 0.001569
vt 0.986835 0.997643
vt 0.965123 0.997643
vt -0.012969 0.997643
vt 0.986835 0.001569
vt 0.965123 0.001569
vt 0.991257 0.001569
vt 0.000055 0.000055
vt -0.012970 0.001569
vt 0.986835 0.997643
vt 0.965123 0.997643
vt 0.991257 0.997643
vt 0.000055 0.999945
vt -0.012969 0.997643
vt 0.999634 0.000055
vt 0.991257 0.997643
vt 0.999634 0.999945
vt 0.991257 0.001569
vt 0.986835 0.001569
vt 0.965123 0.001569
vt -0.012970 0.001569
vt 0.986835 0.997643
vt 0.965123 0.997643
vt -0.012969 0.997643
vt 0.986835 0.001569
vt 0.965123 0.001569
vt 0.991257 0.001569
vt 0.000055 0.000055
vt -0.012970 0.001569
vt 0.986835 0.997643
vt 0.965123 0.997643
vt 0.991257 0.997643
vt 0.000055 0.999945
vt -0.012969 0.997643
vt 0.999634 0.000055
vt 0.991257 0.997643
vt 0.999634 0.999945
vt 0.991257 0.001569
vt 0.986835 0.001569
vt 0.965123 0.001569
vt -0.012970 0.001569
vt 0.986835 0.997643
vt 0.965123 0.997643
vt -0.012969 0.997643
vt 0.986835 0.001569
vt 0.965123 0.001569
vt 0.991257 0.001569
vt 0.000055 0.000055
vt -0.012970 0.001569
vt 0.986835 0.997643
vt 0.965123 0.997643
vt 0.991257 0.997643
vt 0.000055 0.999945
vt -0.012969 0.997643
vt 0.999634 0.000055
vt 0.991257 0.997643
vt 0.999634 0.999945
vt 0.991257 0.001569
vt 0.986835 0.001569
vt 0.965123 0.001569
vt -0.012970 0.001569
vt 0.986835 0.997643
vt 0.965123 0.997643
vt -0.012969 0.997643
vt 0.986835 0.001569
vt 0.965123 0.001569
vt 0.991257 0.001569
vt 0.000055 0.000055
vt -0.012970 0.001569
vt 0.986835 0.997643
vt 0.965123 0.997643
vt 0.991257 0.997643
vt 0.000055 0.999945
vt -0.012969 0.997643
vt 0.999634 0.000055
vt 0.991257 0.997643
vt 1.000000 0.034195
vt 0.999634 0.999945
vt 0.991257 0.001569
vt 0.986835 0.001569
vt 0.965123 0.001569
vt -0.012970 0.001569
vt 0.986835 0.997643
vt 0.965123 0.997643
vt 0.972761 0.033994
vt 0.999243 -0.000183
vt -0.012969 0.997643
vt -0.010930 0.831804
vt 0.986835 0.001569
vt 0.965123 0.001569
vt 0.991257 0.001569
vt 0.000055 0.000055
vt -0.012970 0.001569
vt 0.986835 0.997643
vt 0.965123 0.997643
vt 0.991257 0.997643
vt 0.000055 0.999945
vt -0.012969 0.997643
vt 0.999634 0.000055
vt 0.991257 0.997643
vt 0.999634 0.999945
vt 0.991257 0.001569
vt 0.986835 0.001569
vt 0.965123 0.001569
vt -0.012970 0.001569
vt 0.986835 0.997643
vt 0.965123 0.997643
vt -0.012969 0.997643
vt 0.986835 0.001569
vt 0.965123 0.001569
vt 0.991257 0.001569
vt 0.000055 0.000055
vt -0.012970 0.001569
vt 0.986835 0.997643
vt 0.965123 0.997643
vt 0.991257 0.997643
vt 0.000055 0.999945
vt -0.012969 0.997643
vt 0.999634 0.000055
vt 0.991257 0.997643
vt 0.999634 0.999945
vt 0.991257 0.001569
vt 0.986835 0.001569
vt 0.965123 0.001569
vt -0.012970 0.001569
vt 0.986835 0.997643
vt 0.965123 0.997643
vt -0.012969 0.997643
vt 0.986835 0.001569
vt 0.965123 0.001569
vt 0.991257 0.001569
vt 0.000055 0.000055
vt -0.012970 0.001569
vt 0.986835 0.997643
vt 0.965123 0.997643
vt 0.991257 0.997643
vt 0.000055 0.999945
vt -0.012969 0.997643
vt 0.999634 0.000055
vt 0.991257 0.997643
vt 0.999634 0.999945
vt 0.991257 0.001569
vt 0.986835 0.001569
vt 0.965123 0.001569
vt -0.012970 0.001569
vt 0.986835 0.997643
vt 0.965123 0.997643
vt -0.012969 0.997643
vt 0.986835 0.001569
vt 0.965123 0.001569
vt 0.991257 0.001569
vt 0.000055 0.000055
vt -0.012970 0.001569
vt 0.986835 0.997643
vt 0.965123 0.997643
vt 0.991257 0.997643
vt 0.000055 0.999945
vt -0.012969 0.997643
vt 0.999634 0.000055
vt 0.991257 0.997643
vt 0.999634 0.999945
vt 0.991257 0.001569
vt 0.986835 0.001569
vt 0.965123 0.001569
vt -0.012970 0.001569
vt 0.986835 0.997643
vt 0.965123 0.997643
vt -0.012969 0.997643
vt 0.998747 0.184622
vt 0.971507 0.184422
vt 0.999184 0.174034
vt 0.171513 0.831804
vt 0.998233 0.354204
vt 0.970994 0.354015
vt 0.998094 0.368414
vt 0.366028 0.831804
vt 0.998644 0.524061
vt 0.971407 0.523883
vt 0.997413 0.564931
vt 0.549365 0.831804
vt 1.000000 0.678289
vt 0.959336 0.378360
vt 0.972763 0.678111
vt 0.932101 0.378010
vt 0.999458 0.769140
vt 0.703636 0.831804
vt 0.959174 0.529906
vt 0.931940 0.529656
vt 0.998320 0.998365
vt 0.974450 0.331069
vt 0.828841 0.831804
vt 0.834336 0.959987
vt 0.959336 0.696611
vt 0.991257 0.997643
vt 0.932102 0.696361
vt 0.965123 0.997643
vt 0.986835 0.997643
vt 0.978446 0.674202
vt -0.012969 0.997643
vt 0.930126 0.961436
vt 0.991257 0.997643
vt 0.931940 0.378342
vt 0.965123 0.997643
vt 0.986835 0.997643
vt 0.904707 0.378010
vt 0.931544 0.611716
vt -0.012969 0.997643
vt 0.931544 0.966006
vt 0.931759 0.529559
vt 0.985317 0.771276
vt 0.904526 0.529347
vt 0.838052 0.997643
vt -0.010930 0.144422
vt 0.833712 0.001653
vt 0.171513 0.159395
vt 0.833712 0.176181
vt 0.549365 0.315375
vt 0.833712 0.574871
vt 0.828841 0.653138
vt 0.833712 0.998368
vt 0.837926 0.753813
vt 0.366028 0.215548
vt 0.833712 0.370908
vt 0.703636 0.450141
vt 0.833712 0.769629
vt 0.833712 0.769629
vt 0.703636 0.450141
vt 0.366028 0.215548
vt 0.833712 0.370908
vt 0.833712 0.998368
vt 0.828841 0.653138
vt 0.837926 0.753813
vt 0.833712 0.574871
vt 0.549365 0.315375
vt 0.171513 0.159395
vt 0.833712 0.176181
vt 0.833712 0.001653
vt -0.010930 0.144422
vt 0.985317 0.771276
vt 0.904526 0.529347
vt 0.931759 0.529559
vt 0.931544 0.966006
vt 0.931544 0.611716
vt 0.904707 0.378010
vt 0.931940 0.378342
vt 0.930126 0.961436
vt 0.978446 0.674202
vt 0.932102 0.696361
vt 0.959336 0.696611
vt 0.828841 0.831804
vt 0.834336 0.959987
vt 0.998320 0.998365
vt 0.974450 0.331069
vt 0.931940 0.529656
vt 0.959174 0.529906
vt 0.703636 0.831804
vt 0.999458 0.769140
vt 0.932101 0.378010
vt 0.972763 0.678111
vt 0.959336 0.378360
vt 1.000000 0.678289
vt 0.549365 0.831804
vt 0.997413 0.564931
vt 0.971407 0.523883
vt 0.998644 0.524061
vt 0.366028 0.831804
vt 0.970994 0.354015
vt 0.998094 0.368414
vt 0.998233 0.354204
vt 0.171513 0.831804
vt 0.971507 0.184422
vt 0.999184 0.174034
vt 0.998747 0.184622
vt -0.010930 0.831804
vt 0.972761 0.033994
vt 0.999243 -0.000183
vt 1.000000 0.034195
vt 0.999997 0.965951
vt 0.904703 0.701734
vt 0.931940 0.701610
vt 0.931940 0.701610
vt 0.999997 0.965951
vt 0.904703 0.701734
vt 1.000000 0.034195
vt 0.972761 0.033994
vt 0.999243 -0.000183
vt -0.010930 0.831804
vt 0.998747 0.184622
vt 0.971507 0.184422
vt 0.999184 0.174034
vt 0.171513 0.831804
vt 0.998233 0.354204
vt 0.970994 0.354015
vt 0.998094 0.368414
vt 0.366028 0.831804
vt 0.998644 0.524061
vt 0.971407 0.523883
vt 0.997413 0.564931
vt 0.549365 0.831804
vt 1.000000 0.678289
vt 0.959336 0.378360
vt 0.972763 0.678111
vt 0.932101 0.378010
vt 0.999458 0.769140
vt 0.703636 0.831804
vt 0.959174 0.529906
vt 0.931940 0.529656
vt 0.998320 0.998365
vt 0.974450 0.331069
vt 0.828841 0.831804
vt 0.834336 0.959987
vt 0.959336 0.696611
vt 0.932102 0.696361
vt 0.978446 0.674202
vt 0.930126 0.961436
vt 0.931940 0.378342
vt 0.904707 0.378010
vt 0.931544 0.611716
vt 0.931544 0.966006
vt 0.931759 0.529559
vt 0.985317 0.771276
vt 0.904526 0.529347
vt -0.010930 0.144422
vt 0.833712 0.001653
vt 0.171513 0.159395
vt 0.833712 0.176181
vt 0.549365 0.315375
vt 0.833712 0.574871
vt 0.828841 0.653138
vt 0.833712 0.998368
vt 0.837926 0.753813
vt 0.366028 0.215548
vt 0.833712 0.370908
vt 0.703636 0.450141
vt 0.833712 0.769629
vt 0.833712 0.769629
vt 0.703636 0.450141
vt 0.366028 0.215548
vt 0.833712 0.370908
vt 0.833712 0.998368
vt 0.828841 0.653138
vt 0.837926 0.753813
vt 0.833712 0.574871
vt 0.549365 0.315375
vt 0.171513 0.159395
vt 0.833712 0.176181
vt 0.833712 0.001653
vt -0.010930 0.144422
vt 0.985317 0.771276
vt 0.904526 0.529347
vt 0.931759 0.529559
vt 0.931544 0.966006
vt 0.931544 0.611716
vt 0.904707 0.378010
vt 0.931940 0.378342
vt 0.930126 0.961436
vt 0.978446 0.674202
vt 0.932102 0.696361
vt 0.959336 0.696611
vt 0.828841 0.831804
vt 0.834336 0.959987
vt 0.998320 0.998365
vt 0.974450 0.331069
vt 0.931940 0.529656
vt 0.959174 0.529906
vt 0.703636 0.831804
vt 0.999458 0.769140
vt 0.932101 0.378010
vt 0.972763 0.678111
vt 0.959336 0.378360
vt 1.000000 0.678289
vt 0.549365 0.831804
vt 0.997413 0.564931
vt 0.971407 0.523883
vt 0.998644 0.524061
vt 0.366028 0.831804
vt 0.970994 0.354015
vt 0.998094 0.368414
vt 0.998233 0.354204
vt 0.171513 0.831804
vt 0.971507 0.184422
vt 0.999184 0.174034
vt 0.998747 0.184622
vt -0.010930 0.831804
vt 0.972761 0.033994
vt 0.999243 -0.000183
vt 1.000000 0.034195
vt 0.999997 0.965951
vt 0.904703 0.701734
vt 0.931940 0.701610
vt -0.707582 -0.707582
vt 1.707582 -0.707582
vt -0.707582 1.707582
vt 1.707582 1.707582
s 0
usemtl Calle
f 5/9/1 2/4/1 7/11/1 8/13/1
f 17/29/1 14/24/1 19/31/1 20/33/1
f 29/49/1 26/44/1 31/51/1 32/53/1
f 41/69/1 38/64/1 43/71/1 44/73/1
f 53/89/1 50/84/1 55/91/1 56/93/1
f 65/112/1 62/107/1 67/114/1 68/116/1
f 77/132/1 74/127/1 79/134/1 80/136/1
f 89/152/1 86/147/1 91/154/1 92/156/1
f 101/172/1 98/167/1 103/174/1 104/176/1
f 113/192/1 110/187/1 115/194/1 116/196/1
f 125/212/1 122/207/1 127/214/1 128/216/1
f 137/232/1 134/227/1 139/234/1 140/237/1
f 149/256/1 146/251/1 151/258/1 152/260/1
f 161/276/1 158/271/1 163/278/1 164/280/1
f 173/296/1 170/291/1 175/298/1 176/300/1
f 185/316/1 182/311/1 187/318/1 188/320/1
f 324/550/1 325/551/1 327/553/1 326/552/1
usemtl Vereda
f 1/1/1 4/6/1 6/10/1 3/5/1
f 5/8/2 4/7/2 1/2/2 2/3/2
f 9/15/1 11/18/1 12/20/1 10/17/1
f 7/12/3 11/19/3 9/16/3 8/14/3
f 13/21/1 16/26/1 18/30/1 15/25/1
f 17/28/2 16/27/2 13/22/2 14/23/2
f 21/35/1 23/38/1 24/40/1 22/37/1
f 19/32/3 23/39/3 21/36/3 20/34/3
f 25/41/1 28/46/1 30/50/1 27/45/1
f 29/48/2 28/47/2 25/42/2 26/43/2
f 33/55/1 35/58/1 36/60/1 34/57/1
f 31/52/3 35/59/3 33/56/3 32/54/3
f 37/61/1 40/66/1 42/70/1 39/65/1
f 41/68/2 40/67/2 37/62/2 38/63/2
f 45/75/1 47/78/1 48/80/1 46/77/1
f 43/72/3 47/79/3 45/76/3 44/74/3
f 49/81/1 52/86/1 54/90/1 51/85/1
f 53/88/4 52/87/4 49/82/4 50/83/4
f 57/96/1 59/101/1 60/103/1 58/100/1
f 55/92/5 59/102/5 57/97/5 56/94/5
f 61/104/1 64/109/1 66/113/1 63/108/1
f 65/111/4 64/110/4 61/105/4 62/106/4
f 69/118/1 71/121/1 72/123/1 70/120/1
f 67/115/5 71/122/5 69/119/5 68/117/5
f 73/124/1 76/129/1 78/133/1 75/128/1
f 77/131/4 76/130/4 73/125/4 74/126/4
f 81/138/1 83/141/1 84/143/1 82/140/1
f 79/135/5 83/142/5 81/139/5 80/137/5
f 85/144/1 88/149/1 90/153/1 87/148/1
f 89/151/4 88/150/4 85/145/4 86/146/4
f 93/158/1 95/161/1 96/163/1 94/160/1
f 91/155/5 95/162/5 93/159/5 92/157/5
f 97/164/1 100/169/1 102/173/1 99/168/1
f 101/171/2 100/170/2 97/165/2 98/166/2
f 105/178/1 107/181/1 108/183/1 106/180/1
f 103/175/3 107/182/3 105/179/3 104/177/3
f 109/184/1 112/189/1 114/193/1 111/188/1
f 113/191/2 112/190/2 109/185/2 110/186/2
f 117/198/1 119/201/1 120/203/1 118/200/1
f 115/195/3 119/202/3 117/199/3 116/197/3
f 121/204/1 124/209/1 126/213/1 123/208/1
f 125/211/2 124/210/2 121/205/2 122/206/2
f 129/218/1 131/221/1 132/223/1 130/220/1
f 127/215/3 131/222/3 129/219/3 128/217/3
f 133/224/1 136/229/1 138/233/1 135/228/1
f 137/231/2 136/230/2 133/225/2 134/226/2
f 141/239/1 143/242/1 216/371/1 144/246/1 142/241/1
f 139/235/3 143/243/3 141/240/3 140/238/3
f 145/248/1 148/253/1 150/257/1 147/252/1
f 149/255/4 148/254/4 145/249/4 146/250/4
f 153/262/1 155/265/1 156/267/1 154/264/1
f 151/259/5 155/266/5 153/263/5 152/261/5
f 157/268/1 160/273/1 162/277/1 159/272/1
f 161/275/4 160/274/4 157/269/4 158/270/4
f 165/282/1 167/285/1 168/287/1 166/284/1
f 163/279/5 167/286/5 165/283/5 164/281/5
f 169/288/1 172/293/1 174/297/1 171/292/1
f 173/295/4 172/294/4 169/289/4 170/290/4
f 177/302/1 179/305/1 180/307/1 178/304/1
f 175/299/5 179/306/5 177/303/5 176/301/5
f 181/308/1 184/313/1 186/317/1 183/312/1
f 185/315/4 184/314/4 181/309/4 182/310/4
f 189/322/1 191/325/1 192/327/1 190/324/1
f 187/319/5 191/326/5 189/323/5 188/321/5
f 143/244/6 139/236/6 193/328/6 194/329/6
f 144/247/1 216/372/1 217/374/1 195/331/1
f 194/329/7 193/328/7 196/332/7 197/333/7
f 195/331/1 217/374/1 220/381/1 198/335/1
f 197/333/8 196/332/8 199/336/8 200/337/8
f 198/335/1 220/381/1 218/376/1 201/339/1
f 200/337/9 199/336/9 202/340/9 203/342/9
f 201/339/1 218/376/1 221/383/1 204/345/1
f 203/343/10 202/341/10 205/346/10 206/347/10
f 204/345/1 221/383/1 219/378/1 207/350/1
f 206/347/11 205/346/11 208/352/11 209/354/11
f 209/355/1 208/353/1 211/360/1 212/362/1
f 210/358/1 209/356/1 212/363/1 213/366/1
f 212/364/12 211/361/12 214/368/12 215/370/12
f 213/367/1 212/365/1 215/369/1 57/98/1
f 215/370/13 214/368/13 56/95/13 57/99/13
f 218/377/1 220/382/1 197/334/1 200/338/1
f 219/379/1 221/384/1 203/344/1 206/348/1
f 220/382/1 217/375/1 194/330/1 197/334/1
f 221/384/1 218/377/1 200/338/1 203/344/1
f 207/351/1 219/380/1 206/349/1 209/357/1 210/359/1
f 217/375/1 216/373/1 143/245/1 194/330/1
f 222/385/1 225/392/1 243/422/1 240/416/1
f 224/389/1 222/385/1 240/416/1 237/411/1
f 225/392/1 223/388/1 246/427/1 243/422/1
f 230/401/1 231/402/1 228/398/1 254/437/1
f 231/403/14 232/404/14 229/400/14 228/399/14
f 239/415/1 222/386/1 224/390/1 236/409/1
f 240/417/15 241/419/15 238/414/15 237/413/15
f 243/423/16 244/424/16 241/420/16 240/418/16
f 245/425/1 223/387/1 225/393/1 242/421/1
f 248/429/1 226/394/1 223/387/1 245/425/1
f 249/430/17 250/432/17 247/428/17 246/426/17
f 252/434/18 253/436/18 250/432/18 249/430/18
f 236/410/1 224/391/1 237/412/1 234/406/1 233/405/1
f 226/395/1 227/396/1 252/435/1 249/431/1
f 237/413/19 238/414/19 235/408/19 234/407/19
f 246/426/20 247/428/20 244/424/20 243/423/20
f 228/399/21 229/400/21 255/439/21 254/438/21
f 242/421/1 225/393/1 222/386/1 239/415/1
f 251/433/1 227/397/1 226/394/1 248/429/1
f 223/388/1 226/395/1 249/431/1 246/427/1
f 259/444/22 258/443/22 261/447/22 262/448/22
f 260/446/1 284/482/1 285/484/1 263/450/1
f 262/448/23 261/447/23 264/451/23 265/452/23
f 263/450/1 285/484/1 288/491/1 266/454/1
f 265/452/24 264/451/24 267/455/24 268/456/24
f 266/454/1 288/491/1 286/486/1 269/458/1
f 268/456/25 267/455/25 270/459/25 271/461/25
f 269/458/1 286/486/1 289/493/1 272/464/1
f 271/462/26 270/460/26 273/465/26 274/466/26
f 272/464/1 289/493/1 287/488/1 275/469/1
f 274/466/27 273/465/27 276/471/27 277/472/27
f 280/476/28 279/475/28 282/479/28 283/481/28
f 281/478/1 280/477/1 283/480/1 257/441/1
f 283/481/29 282/479/29 256/440/29 257/442/29
f 286/487/1 288/492/1 265/453/1 268/457/1
f 287/489/1 289/494/1 271/463/1 274/467/1
f 288/492/1 285/485/1 262/449/1 265/453/1
f 289/494/1 286/487/1 268/457/1 271/463/1
f 275/470/1 287/490/1 274/468/1 277/473/1 278/474/1
f 285/485/1 284/483/1 259/445/1 262/449/1
f 290/495/1 293/502/1 311/532/1 308/526/1
f 292/499/1 290/495/1 308/526/1 305/521/1
f 293/502/1 291/498/1 314/537/1 311/532/1
f 298/511/1 299/512/1 296/508/1 322/547/1
f 299/513/30 300/514/30 297/510/30 296/509/30
f 307/525/1 290/496/1 292/500/1 304/519/1
f 308/527/31 309/529/31 306/524/31 305/523/31
f 311/533/32 312/534/32 309/530/32 308/528/32
f 313/535/1 291/497/1 293/503/1 310/531/1
f 316/539/1 294/504/1 291/497/1 313/535/1
f 317/540/33 318/542/33 315/538/33 314/536/33
f 320/544/34 321/546/34 318/542/34 317/540/34
f 304/520/1 292/501/1 305/522/1 302/516/1 301/515/1
f 294/505/1 295/506/1 320/545/1 317/541/1
f 305/523/35 306/524/35 303/518/35 302/517/35
f 314/536/36 315/538/36 312/534/36 311/533/36
f 296/509/37 297/510/37 323/549/37 322/548/37
f 310/531/1 293/503/1 290/496/1 307/525/1
f 319/543/1 295/507/1 294/504/1 316/539/1
f 291/498/1 294/505/1 317/541/1 314/537/1
