# Blender 3.3.1
# www.blender.org
mtllib IluminariaCalle.mtl
o IluminariaCalle
v 0.000000 -0.028990 -0.206365
v 0.000000 5.844706 -0.206365
v 0.040260 -0.028990 -0.202399
v 0.040260 5.844706 -0.202399
v 0.078972 -0.028990 -0.190656
v 0.078972 5.844706 -0.190656
v 0.114650 -0.028990 -0.171586
v 0.114650 5.844706 -0.171586
v 0.145922 -0.028990 -0.145922
v 0.145922 5.844706 -0.145922
v 0.171586 -0.028990 -0.114650
v 0.171586 5.844706 -0.114650
v 0.190656 -0.028990 -0.078972
v 0.190656 5.844706 -0.078972
v 0.202399 -0.028990 -0.040260
v 0.202399 5.844706 -0.040260
v 0.206365 -0.028990 -0.000000
v 0.206365 5.844706 -0.000000
v 0.202399 -0.028990 0.040260
v 0.202399 5.844706 0.040260
v 0.190656 -0.028990 0.078972
v 0.190656 5.844706 0.078972
v 0.171586 -0.028990 0.114650
v 0.171586 5.844706 0.114650
v 0.145922 -0.028990 0.145922
v 0.145922 5.844706 0.145922
v 0.114650 -0.028990 0.171586
v 0.114650 5.844706 0.171586
v 0.078972 -0.028990 0.190656
v 0.078972 5.844706 0.190656
v 0.040260 -0.028990 0.202399
v 0.040260 5.844706 0.202399
v 0.000000 -0.028990 0.206365
v 0.000000 5.844706 0.206365
v -0.040260 -0.028990 0.202399
v -0.040260 5.844706 0.202399
v -0.078972 -0.028990 0.190656
v -0.078972 5.844706 0.190656
v -0.114650 -0.028990 0.171586
v -0.114650 5.844706 0.171586
v -0.145922 -0.028990 0.145922
v -0.145922 5.844706 0.145922
v -0.171586 -0.028990 0.114650
v -0.171586 5.844706 0.114650
v -0.190656 -0.028990 0.078972
v -0.190656 5.844706 0.078972
v -0.202399 -0.028990 0.040260
v -0.202399 5.844706 0.040260
v -0.206365 -0.028990 -0.000000
v -0.206365 5.844706 -0.000000
v -0.202399 -0.028990 -0.040260
v -0.202399 5.844706 -0.040260
v -0.190656 -0.028990 -0.078972
v -0.190656 5.844706 -0.078972
v -0.171586 -0.028990 -0.114650
v -0.171586 5.844706 -0.114650
v -0.145922 -0.028990 -0.145922
v -0.145922 5.844706 -0.145922
v -0.114650 -0.028990 -0.171586
v -0.114650 5.844706 -0.171586
v -0.078972 -0.028990 -0.190656
v -0.078972 5.844706 -0.190656
v -0.040260 -0.028990 -0.202399
v -0.040260 5.844706 -0.202399
v 0.030336 5.995655 -0.152507
v 0.000000 5.995655 -0.155495
v 0.059506 5.995655 -0.143658
v 0.086389 5.995655 -0.129289
v 0.109952 5.995655 -0.109951
v 0.129289 5.995655 -0.086388
v 0.143659 5.995655 -0.059505
v 0.152507 5.995655 -0.030336
v 0.155495 5.995655 -0.000000
v 0.152507 5.995655 0.030336
v 0.143659 5.995655 0.059505
v 0.129289 5.995655 0.086388
v 0.109952 5.995655 0.109951
v 0.086389 5.995655 0.129289
v 0.059506 5.995655 0.143658
v 0.030336 5.995655 0.152507
v 0.000000 5.995655 0.155495
v -0.030335 5.995655 0.152507
v -0.059505 5.995655 0.143658
v -0.086388 5.995655 0.129289
v -0.109951 5.995655 0.109951
v -0.129289 5.995655 0.086388
v -0.143658 5.995655 0.059505
v -0.152507 5.995655 0.030336
v -0.155494 5.995655 -0.000000
v -0.152507 5.995655 -0.030336
v -0.143658 5.995655 -0.059505
v -0.129289 5.995655 -0.086388
v -0.109951 5.995655 -0.109951
v -0.086388 5.995655 -0.129289
v -0.059505 5.995655 -0.143658
v -0.030335 5.995655 -0.152507
v 0.030332 14.010033 -0.152507
v -0.000004 14.010033 -0.155495
v 0.059502 14.010033 -0.143658
v 0.086385 14.010033 -0.129289
v 0.109948 14.010033 -0.109951
v 0.129286 14.010033 -0.086388
v 0.143655 14.010033 -0.059505
v 0.152503 14.010033 -0.030336
v 0.155491 14.010033 -0.000000
v 0.152503 14.010033 0.030336
v 0.143655 14.010033 0.059505
v 0.129286 14.010033 0.086388
v 0.109948 14.010033 0.109951
v 0.086385 14.010033 0.129289
v 0.059502 14.010033 0.143658
v 0.030332 14.010033 0.152507
v -0.000004 14.010033 0.155495
v -0.030339 14.010033 0.152507
v -0.059509 14.010033 0.143658
v -0.086392 14.010033 0.129289
v -0.109955 14.010033 0.109951
v -0.129293 14.010033 0.086388
v -0.143662 14.010033 0.059505
v -0.152511 14.010033 0.030336
v -0.155498 14.010033 -0.000000
v -0.152511 14.010033 -0.030336
v -0.143662 14.010033 -0.059505
v -0.129293 14.010033 -0.086388
v -0.109955 14.010033 -0.109951
v -0.086392 14.010033 -0.129289
v -0.059509 14.010033 -0.143658
v -0.030339 14.010033 -0.152507
v -0.166884 13.953306 0.164316
v -0.167924 13.996704 0.207714
v -0.211322 13.996704 0.164316
v -0.167924 14.050813 0.207714
v -0.166918 14.101411 0.164918
v -0.211322 14.057705 0.164316
v -0.211322 13.996704 -0.455348
v -0.166842 13.953306 -0.455348
v -0.166878 14.205766 -0.455348
v -0.211322 14.161966 -0.455348
v 0.166884 13.953306 0.164316
v 0.211322 13.996704 0.164316
v 0.167924 13.996704 0.207714
v 0.166918 14.101411 0.164918
v 0.167924 14.050813 0.207714
v 0.211322 14.057705 0.164316
v 0.166842 13.953306 -0.455348
v 0.211322 13.996704 -0.455348
v 0.211322 14.161966 -0.455348
v 0.166878 14.205766 -0.455348
v -0.230027 14.205766 -0.705712
v -0.274546 14.161966 -0.705712
v -0.274546 13.996704 -0.705712
v -0.229987 13.953306 -0.705712
v 0.229987 13.953306 -0.705712
v 0.274546 13.996704 -0.705712
v 0.274546 14.161966 -0.705712
v 0.230027 14.205766 -0.705712
v -0.229922 14.205766 -1.921993
v -0.274546 14.161934 -1.921993
v -0.274546 13.996704 -1.921993
v -0.229874 13.953306 -1.921993
v 0.229874 13.953306 -1.921993
v 0.274546 13.996704 -1.921993
v 0.274546 14.161934 -1.921993
v 0.229922 14.205766 -1.921993
v -0.180398 14.107265 -2.143916
v -0.136613 14.151661 -2.141729
v -0.120052 14.097887 -2.183867
v -0.180398 13.996704 -2.143916
v -0.120052 13.996704 -2.183867
v -0.137093 13.953306 -2.140470
v 0.137093 13.953306 -2.140470
v 0.120052 13.996704 -2.183867
v 0.180398 13.996704 -2.143916
v 0.136613 14.151661 -2.141729
v 0.180398 14.107265 -2.143916
v 0.120052 14.097887 -2.183867
vn -0.0000 -0.6857 -0.7279
vn -0.0000 0.1602 -0.9871
vn 0.1926 0.1602 -0.9681
vn 0.1420 -0.6857 -0.7139
vn 0.3777 0.1602 -0.9119
vn 0.2786 -0.6857 -0.6725
vn 0.5484 0.1602 -0.8207
vn 0.4044 -0.6857 -0.6052
vn 0.6980 0.1602 -0.6980
vn 0.5147 -0.6857 -0.5147
vn 0.8207 0.1602 -0.5484
vn 0.6052 -0.6857 -0.4044
vn 0.9119 0.1602 -0.3777
vn 0.6725 -0.6857 -0.2786
vn 0.9681 0.1602 -0.1926
vn 0.7139 -0.6857 -0.1420
vn 0.9871 0.1602 -0.0000
vn 0.7279 -0.6857 -0.0000
vn 0.9681 0.1602 0.1926
vn 0.7139 -0.6857 0.1420
vn 0.9119 0.1602 0.3777
vn 0.6725 -0.6857 0.2786
vn 0.8207 0.1602 0.5484
vn 0.6052 -0.6857 0.4044
vn 0.6980 0.1602 0.6980
vn 0.5147 -0.6857 0.5147
vn 0.5484 0.1602 0.8207
vn 0.4044 -0.6857 0.6052
vn 0.3777 0.1602 0.9119
vn 0.2786 -0.6857 0.6725
vn 0.1926 0.1602 0.9681
vn 0.1420 -0.6857 0.7139
vn -0.0000 0.1602 0.9871
vn -0.0000 -0.6857 0.7279
vn -0.1926 0.1602 0.9681
vn -0.1420 -0.6857 0.7139
vn -0.3777 0.1602 0.9119
vn -0.2786 -0.6857 0.6725
vn -0.5484 0.1602 0.8207
vn -0.4044 -0.6857 0.6052
vn -0.6980 0.1602 0.6980
vn -0.5147 -0.6857 0.5147
vn -0.8207 0.1602 0.5484
vn -0.6052 -0.6857 0.4044
vn -0.9119 0.1602 0.3777
vn -0.6725 -0.6857 0.2786
vn -0.9681 0.1602 0.1926
vn -0.7139 -0.6857 0.1420
vn -0.9871 0.1602 -0.0000
vn -0.7279 -0.6857 -0.0000
vn -0.9681 0.1602 -0.1926
vn -0.7139 -0.6857 -0.1420
vn -0.9119 0.1602 -0.3777
vn -0.6725 -0.6857 -0.2786
vn -0.8207 0.1602 -0.5484
vn -0.6052 -0.6857 -0.4044
vn -0.6980 0.1602 -0.6980
vn -0.5147 -0.6857 -0.5147
vn -0.5484 0.1602 -0.8207
vn -0.4044 -0.6857 -0.6052
vn -0.3777 0.1602 -0.9119
vn -0.2786 -0.6857 -0.6725
vn 0.9676 0.1634 -0.1925
vn 0.9866 0.1634 -0.0000
vn -0.1926 0.1602 -0.9681
vn -0.1420 -0.6857 -0.7139
vn -0.8203 0.1634 0.5481
vn -0.6976 0.1634 0.6976
vn -0.5147 0.6857 0.5147
vn -0.6052 0.6857 0.4044
vn -0.0000 0.1634 0.9866
vn -0.1925 0.1634 0.9676
vn -0.9676 0.1634 -0.1925
vn -0.9115 0.1634 -0.3775
vn 0.5481 0.1634 -0.8203
vn 0.6976 0.1634 -0.6976
vn 0.6976 0.1634 0.6976
vn 0.5481 0.1634 0.8203
vn -0.9115 0.1634 0.3775
vn -0.3775 0.1634 -0.9115
vn -0.1925 0.1634 -0.9676
vn 0.9676 0.1634 0.1925
vn -0.3775 0.1634 0.9115
vn -0.8203 0.1634 -0.5481
vn 0.8203 0.1634 -0.5481
vn 0.3775 0.1634 0.9115
vn -0.9676 0.1634 0.1925
vn -0.0000 0.1634 -0.9866
vn 0.1925 0.1634 -0.9676
vn 0.9115 0.1634 0.3775
vn -0.5481 0.1634 0.8203
vn -0.6976 0.1634 -0.6976
vn 0.9115 0.1634 -0.3775
vn 0.1925 0.1634 0.9676
vn -0.9866 0.1634 -0.0000
vn 0.3775 0.1634 -0.9115
vn 0.8203 0.1634 0.5481
vn -0.5481 0.1634 -0.8203
vn 0.1420 0.6857 -0.7139
vn -0.0000 0.6857 -0.7279
vn -0.1420 0.6857 -0.7139
vn -0.2786 0.6857 -0.6725
vn -0.4044 0.6857 -0.6052
vn -0.5147 0.6857 -0.5147
vn -0.6052 0.6857 -0.4044
vn -0.6725 0.6857 -0.2786
vn -0.7139 0.6857 -0.1420
vn -0.7279 0.6857 -0.0000
vn -0.7139 0.6857 0.1420
vn -0.6725 0.6857 0.2786
vn -0.4044 0.6857 0.6052
vn -0.2786 0.6857 0.6725
vn -0.1420 0.6857 0.7139
vn -0.0000 0.6857 0.7279
vn 0.1420 0.6857 0.7139
vn 0.2786 0.6857 0.6725
vn 0.4044 0.6857 0.6052
vn 0.5147 0.6857 0.5147
vn 0.6052 0.6857 0.4044
vn 0.6725 0.6857 0.2786
vn 0.7139 0.6857 0.1420
vn 0.7279 0.6857 -0.0000
vn 0.7139 0.6857 -0.1420
vn 0.6725 0.6857 -0.2786
vn 0.6052 0.6857 -0.4044
vn 0.5147 0.6857 -0.5147
vn 0.4044 0.6857 -0.6052
vn 0.2786 0.6857 -0.6725
vn 0.3425 -0.3430 0.8746
vn 0.3385 0.3026 0.8910
vn -0.3385 0.3026 0.8910
vn -0.3425 -0.3430 0.8746
vn 0.9101 -0.3977 0.1161
vn 0.8997 0.4097 0.1508
vn 0.8670 0.3249 0.3778
vn 0.8739 -0.3464 0.3409
vn 0.9195 -0.3768 0.1119
vn 0.9204 0.3745 0.1120
vn 0.3430 0.9320 0.1174
vn -0.3430 0.9320 0.1174
vn -0.3316 0.8318 0.4452
vn 0.3316 0.8318 0.4452
vn -0.8739 -0.3464 0.3409
vn -0.8670 0.3249 0.3778
vn -0.8997 0.4097 0.1508
vn -0.9101 -0.3977 0.1161
vn -0.9204 0.3745 0.1120
vn -0.9195 -0.3768 0.1119
vn 0.9119 -0.3690 -0.1795
vn 0.8988 0.3827 -0.2135
vn 0.3501 -0.9358 0.0412
vn -0.3501 -0.9358 0.0412
vn -0.4000 -0.9150 0.0528
vn 0.4000 -0.9150 0.0528
vn -0.8988 0.3827 -0.2135
vn -0.9119 -0.3690 -0.1795
vn 0.4025 0.9139 0.0531
vn -0.4025 0.9139 0.0531
vn 0.4115 -0.9067 -0.0927
vn -0.4115 -0.9067 -0.0927
vn -0.2851 -0.8616 -0.4199
vn 0.2851 -0.8616 -0.4199
vn 0.3963 0.8996 -0.1834
vn -0.3963 0.8996 -0.1834
vn -0.7235 0.2867 -0.6279
vn -0.7425 -0.3272 -0.5845
vn 0.2679 0.7818 -0.5630
vn -0.2679 0.7819 -0.5630
vn -0.2448 -0.3362 -0.9094
vn -0.2423 0.2798 -0.9290
vn 0.2423 0.2798 -0.9290
vn 0.2448 -0.3362 -0.9094
vn 0.7425 -0.3272 -0.5845
vn 0.7235 0.2867 -0.6279
vn -0.3358 -0.8781 0.3408
vn 0.3358 -0.8781 0.3408
vt 0.494021 0.090690
vt 0.494021 0.436154
vt 0.494589 0.090690
vt 0.494589 0.436154
vt 0.496269 0.090690
vt 0.496269 0.436154
vt 0.498997 0.090690
vt 0.498997 0.436154
vt 0.502669 0.090690
vt 0.502669 0.436154
vt 0.507143 0.090690
vt 0.507143 0.436154
vt 0.512247 0.090690
vt 0.512247 0.436154
vt 0.517785 0.090690
vt 0.517785 0.436154
vt 0.523545 0.090690
vt 0.523545 0.436154
vt 0.529305 0.090690
vt 0.529305 0.436154
vt 0.534843 0.090690
vt 0.534843 0.436154
vt 0.539948 0.090690
vt 0.539948 0.436154
vt 0.544422 0.090690
vt 0.544422 0.436154
vt 0.548093 0.090690
vt 0.548093 0.436154
vt 0.550821 0.090690
vt 0.550821 0.436154
vt 0.552502 0.090690
vt 0.552502 0.436154
vt 0.553069 0.090690
vt 0.553069 0.436154
vt 0.552502 0.090690
vt 0.552502 0.436154
vt 0.550821 0.090690
vt 0.550821 0.436154
vt 0.548093 0.090690
vt 0.548093 0.436154
vt 0.544422 0.090690
vt 0.544422 0.436154
vt 0.539948 0.090690
vt 0.539948 0.436154
vt 0.534843 0.090690
vt 0.534843 0.436154
vt 0.529305 0.090690
vt 0.529305 0.436154
vt 0.523545 0.090690
vt 0.523545 0.436154
vt 0.517785 0.090690
vt 0.517785 0.436154
vt 0.512247 0.090690
vt 0.512247 0.436154
vt 0.507143 0.090690
vt 0.507143 0.436154
vt 0.502669 0.090690
vt 0.502669 0.436154
vt 0.498997 0.090690
vt 0.498997 0.436154
vt 0.496269 0.090690
vt 0.496269 0.436154
vt 0.494589 0.090690
vt 0.494589 0.436154
vt 0.501726 0.445032
vt 0.501299 0.445032
vt 0.502993 0.445032
vt 0.505048 0.445032
vt 0.507815 0.445032
vt 0.511186 0.445032
vt 0.515032 0.445032
vt 0.519205 0.445032
vt 0.523545 0.445032
vt 0.527885 0.445032
vt 0.532058 0.445032
vt 0.535904 0.445032
vt 0.539275 0.445032
vt 0.542042 0.445032
vt 0.544098 0.445032
vt 0.545364 0.445032
vt 0.545791 0.445032
vt 0.545364 0.445032
vt 0.544098 0.445032
vt 0.542042 0.445032
vt 0.539275 0.445032
vt 0.535904 0.445032
vt 0.532058 0.445032
vt 0.527885 0.445032
vt 0.523545 0.445032
vt 0.519205 0.445032
vt 0.515032 0.445032
vt 0.511186 0.445032
vt 0.507815 0.445032
vt 0.505048 0.445032
vt 0.502993 0.445032
vt 0.501726 0.445032
vt 0.501726 0.916400
vt 0.501299 0.916400
vt 0.502993 0.916400
vt 0.505048 0.916400
vt 0.507815 0.916400
vt 0.511186 0.916400
vt 0.515032 0.916400
vt 0.519205 0.916400
vt 0.523545 0.916400
vt 0.527885 0.916400
vt 0.532058 0.916400
vt 0.535904 0.916400
vt 0.539275 0.916400
vt 0.542042 0.916400
vt 0.544098 0.916400
vt 0.545364 0.916400
vt 0.545791 0.916400
vt 0.545364 0.916400
vt 0.544098 0.916400
vt 0.542042 0.916400
vt 0.539275 0.916400
vt 0.535904 0.916400
vt 0.532058 0.916400
vt 0.527885 0.916400
vt 0.523545 0.916400
vt 0.519205 0.916400
vt 0.515032 0.916400
vt 0.511186 0.916400
vt 0.507815 0.916400
vt 0.505048 0.916400
vt 0.502993 0.916400
vt 0.501726 0.916400
vt 0.547053 0.913064
vt 0.553262 0.915617
vt 0.547053 0.915617
vt 0.553262 0.918799
vt 0.547139 0.921775
vt 0.547053 0.919204
vt 0.458401 0.915617
vt 0.458401 0.913064
vt 0.458401 0.927912
vt 0.458401 0.925336
vt 0.547053 0.913064
vt 0.547053 0.915617
vt 0.553262 0.915617
vt 0.547139 0.921775
vt 0.553262 0.918799
vt 0.547053 0.919204
vt 0.458401 0.913064
vt 0.458401 0.915617
vt 0.458401 0.925336
vt 0.458401 0.927912
vt 0.422582 0.927912
vt 0.422582 0.925336
vt 0.422582 0.915617
vt 0.000000 1.000000
vt 0.422582 0.913064
vt 1.000000 1.000000
vt 0.422582 0.913064
vt 0.422582 0.915617
vt 0.422582 0.925336
vt 0.422582 0.927912
vt 0.248574 0.927912
vt 0.248574 0.925335
vt 0.248574 0.915617
vt 0.000247 0.000000
vt 0.248574 0.913064
vt 0.999754 0.000000
vt 0.248574 0.913064
vt 0.248574 0.915617
vt 0.248574 0.925335
vt 0.248574 0.927912
vt 0.216824 0.922119
vt 0.217137 0.924730
vt 0.211108 0.921568
vt 0.216824 0.915617
vt 0.211108 0.915617
vt 0.217317 0.913064
vt 0.217317 0.913064
vt 0.211108 0.915617
vt 0.216824 0.915617
vt 0.217137 0.924730
vt 0.216824 0.922119
vt 0.211108 0.921568
s 1
usemtl Metal
f 1/1/1 2/2/2 4/4/3 3/3/4
f 3/3/4 4/4/3 6/6/5 5/5/6
f 5/5/6 6/6/5 8/8/7 7/7/8
f 7/7/8 8/8/7 10/10/9 9/9/10
f 9/9/10 10/10/9 12/12/11 11/11/12
f 11/11/12 12/12/11 14/14/13 13/13/14
f 13/13/14 14/14/13 16/16/15 15/15/16
f 15/15/16 16/16/15 18/18/17 17/17/18
f 17/17/18 18/18/17 20/20/19 19/19/20
f 19/19/20 20/20/19 22/22/21 21/21/22
f 21/21/22 22/22/21 24/24/23 23/23/24
f 23/23/24 24/24/23 26/26/25 25/25/26
f 25/25/26 26/26/25 28/28/27 27/27/28
f 27/27/28 28/28/27 30/30/29 29/29/30
f 29/29/30 30/30/29 32/32/31 31/31/32
f 31/31/32 32/32/31 34/34/33 33/33/34
f 33/33/34 34/34/33 36/36/35 35/35/36
f 35/35/36 36/36/35 38/38/37 37/37/38
f 37/37/38 38/38/37 40/40/39 39/39/40
f 39/39/40 40/40/39 42/42/41 41/41/42
f 41/41/42 42/42/41 44/44/43 43/43/44
f 43/43/44 44/44/43 46/46/45 45/45/46
f 45/45/46 46/46/45 48/48/47 47/47/48
f 47/47/48 48/48/47 50/50/49 49/49/50
f 49/49/50 50/50/49 52/52/51 51/51/52
f 51/51/52 52/52/51 54/54/53 53/53/54
f 53/53/54 54/54/53 56/56/55 55/55/56
f 55/55/56 56/56/55 58/58/57 57/57/58
f 57/57/58 58/58/57 60/60/59 59/59/60
f 59/59/60 60/60/59 62/62/61 61/61/62
f 18/18/17 16/16/15 72/72/63 73/73/64
f 61/61/62 62/62/61 64/64/65 63/63/66
f 63/63/66 64/64/65 2/2/2 1/1/1
f 1/1/1 3/3/4 5/5/6 7/7/8 9/9/10 11/11/12 13/13/14 15/15/16 17/17/18 19/19/20 21/21/22 23/23/24 25/25/26 27/27/28 29/29/30 31/31/32 33/33/34 35/35/36 37/37/38 39/39/40 41/41/42 43/43/44 45/45/46 47/47/48 49/49/50 51/51/52 53/53/54 55/55/56 57/57/58 59/59/60 61/61/62 63/63/66
f 86/86/67 85/85/68 117/117/69 118/118/70
f 36/36/35 34/34/33 81/81/71 82/82/72
f 54/54/53 52/52/51 90/90/73 91/91/74
f 10/10/9 8/8/7 68/68/75 69/69/76
f 28/28/27 26/26/25 77/77/77 78/78/78
f 46/46/45 44/44/43 86/86/67 87/87/79
f 64/64/65 62/62/61 95/95/80 96/96/81
f 20/20/19 18/18/17 73/73/64 74/74/82
f 38/38/37 36/36/35 82/82/72 83/83/83
f 56/56/55 54/54/53 91/91/74 92/92/84
f 12/12/11 10/10/9 69/69/76 70/70/85
f 30/30/29 28/28/27 78/78/78 79/79/86
f 48/48/47 46/46/45 87/87/79 88/88/87
f 4/4/3 2/2/2 66/66/88 65/65/89
f 2/2/2 64/64/65 96/96/81 66/66/88
f 22/22/21 20/20/19 74/74/82 75/75/90
f 40/40/39 38/38/37 83/83/83 84/84/91
f 58/58/57 56/56/55 92/92/84 93/93/92
f 14/14/13 12/12/11 70/70/85 71/71/93
f 32/32/31 30/30/29 79/79/86 80/80/94
f 50/50/49 48/48/47 88/88/87 89/89/95
f 6/6/5 4/4/3 65/65/89 67/67/96
f 24/24/23 22/22/21 75/75/90 76/76/97
f 42/42/41 40/40/39 84/84/91 85/85/68
f 60/60/59 58/58/57 93/93/92 94/94/98
f 16/16/15 14/14/13 71/71/93 72/72/63
f 34/34/33 32/32/31 80/80/94 81/81/71
f 52/52/51 50/50/49 89/89/95 90/90/73
f 8/8/7 6/6/5 67/67/96 68/68/75
f 26/26/25 24/24/23 76/76/97 77/77/77
f 44/44/43 42/42/41 85/85/68 86/86/67
f 62/62/61 60/60/59 94/94/98 95/95/80
f 97/97/99 98/98/100 128/128/101 127/127/102 126/126/103 125/125/104 124/124/105 123/123/106 122/122/107 121/121/108 120/120/109 119/119/110 118/118/70 117/117/69 116/116/111 115/115/112 114/114/113 113/113/114 112/112/115 111/111/116 110/110/117 109/109/118 108/108/119 107/107/120 106/106/121 105/105/122 104/104/123 103/103/124 102/102/125 101/101/126 100/100/127 99/99/128
f 73/73/64 72/72/63 104/104/123 105/105/122
f 87/87/79 86/86/67 118/118/70 119/119/110
f 74/74/82 73/73/64 105/105/122 106/106/121
f 88/88/87 87/87/79 119/119/110 120/120/109
f 75/75/90 74/74/82 106/106/121 107/107/120
f 89/89/95 88/88/87 120/120/109 121/121/108
f 76/76/97 75/75/90 107/107/120 108/108/119
f 90/90/73 89/89/95 121/121/108 122/122/107
f 77/77/77 76/76/97 108/108/119 109/109/118
f 91/91/74 90/90/73 122/122/107 123/123/106
f 78/78/78 77/77/77 109/109/118 110/110/117
f 92/92/84 91/91/74 123/123/106 124/124/105
f 79/79/86 78/78/78 110/110/117 111/111/116
f 65/65/89 66/66/88 98/98/100 97/97/99
f 93/93/92 92/92/84 124/124/105 125/125/104
f 80/80/94 79/79/86 111/111/116 112/112/115
f 67/67/96 65/65/89 97/97/99 99/99/128
f 94/94/98 93/93/92 125/125/104 126/126/103
f 81/81/71 80/80/94 112/112/115 113/113/114
f 68/68/75 67/67/96 99/99/128 100/100/127
f 95/95/80 94/94/98 126/126/103 127/127/102
f 82/82/72 81/81/71 113/113/114 114/114/113
f 69/69/76 68/68/75 100/100/127 101/101/126
f 96/96/81 95/95/80 127/127/102 128/128/101
f 83/83/83 82/82/72 114/114/113 115/115/112
f 70/70/85 69/69/76 101/101/126 102/102/125
f 66/66/88 96/96/81 128/128/101 98/98/100
f 84/84/91 83/83/83 115/115/112 116/116/111
f 71/71/93 70/70/85 102/102/125 103/103/124
f 85/85/68 84/84/91 116/116/111 117/117/69
f 72/72/63 71/71/93 103/103/124 104/104/123
f 141/141/129 143/143/130 132/132/131 130/130/132
f 146/146/133 147/147/134 144/144/135 140/140/136
f 147/147/134 146/146/133 154/156/137 155/157/138
f 148/148/139 137/137/140 133/133/141 142/142/142
f 131/131/143 134/134/144 138/138/145 135/135/146
f 135/135/146 138/138/145 150/150/147 151/151/148
f 155/157/138 154/156/137 162/166/149 163/167/150
f 145/145/151 136/136/152 152/153/153 153/155/154
f 151/151/148 150/150/147 158/160/155 159/161/156
f 137/137/140 148/148/139 156/158/157 149/149/158
f 161/165/159 160/163/160 170/174/161 171/175/162
f 149/149/158 156/158/157 164/168/163 157/159/164
f 159/161/156 158/160/155 165/169/165 168/172/166
f 157/159/164 164/168/163 174/178/167 166/170/168
f 169/173/169 167/171/170 176/180/171 172/176/172
f 163/167/150 162/166/149 173/177/173 175/179/174
f 129/129/175 130/130/132 131/131/143
f 132/132/131 133/133/141 134/134/144
f 139/139/176 140/140/136 141/141/129
f 142/142/142 143/143/130 144/144/135
f 165/169/165 166/170/168 167/171/170
f 168/172/166 169/173/169 170/174/161
f 171/175/162 172/176/172 173/177/173
f 174/178/167 175/179/174 176/180/171
f 136/136/152 129/129/175 131/131/143 135/135/146
f 130/130/132 132/132/131 134/134/144 131/131/143
f 133/133/141 137/137/140 138/138/145 134/134/144
f 139/139/176 145/145/151 146/146/133 140/140/136
f 148/148/139 142/142/142 144/144/135 147/147/134
f 143/143/130 141/141/129 140/140/136 144/144/135
f 129/129/175 139/139/176 141/141/129 130/130/132
f 142/142/142 133/133/141 132/132/131 143/143/130
f 147/147/134 155/157/138 156/158/157 148/148/139
f 150/150/147 138/138/145 137/137/140 149/149/158
f 152/153/153 136/136/152 135/135/146 151/151/148
f 145/145/151 153/155/154 154/156/137 146/146/133
f 151/151/148 159/161/156 160/163/160 152/153/153
f 162/166/149 154/156/137 153/155/154 161/165/159
f 155/157/138 163/167/150 164/168/163 156/158/157
f 158/160/155 150/150/147 149/149/158 157/159/164
f 167/171/170 169/173/169 168/172/166 165/169/165
f 171/175/162 170/174/161 169/173/169 172/176/172
f 166/170/168 174/178/167 176/180/171 167/171/170
f 175/179/174 173/177/173 172/176/172 176/180/171
f 163/167/150 175/179/174 174/178/167 164/168/163
f 165/169/165 158/160/155 157/159/164 166/170/168
f 170/174/161 160/163/160 159/161/156 168/172/166
f 161/165/159 171/175/162 173/177/173 162/166/149
f 136/136/152 145/145/151 139/139/176 129/129/175
usemtl Glass
f 153/154/154 152/152/153 160/162/160 161/164/159
