# Blender 3.3.1
# www.blender.org
mtllib shop_front6.mtl
o shop_front6
v -2.983378 1.996227 0.000000
v 2.730215 0.001217 0.000000
v 2.730215 1.996227 0.000000
v 2.983378 0.001217 0.210487
v -2.773280 0.001217 0.000000
v 0.120374 0.001217 0.000000
v -2.983378 1.629065 0.210487
v -2.983378 0.001217 0.210487
v -0.158302 0.001217 -0.114274
v 2.730215 0.001217 0.210487
v -0.775459 0.001217 0.000000
v -2.983378 1.626838 0.000000
v 2.730215 1.626838 0.000000
v -2.773280 1.626838 0.000000
v 0.120374 1.626838 0.000000
v -0.158302 1.626838 -0.114274
v -0.775459 1.626838 0.000000
v 2.983378 1.996227 0.210487
v 2.730215 1.996227 0.210487
v 2.730215 1.626838 0.210487
v -2.773280 0.001217 0.210487
v -2.773280 1.626838 0.210487
v -0.158302 0.001217 0.130838
v 0.120374 0.001217 0.130838
v 0.120374 1.626838 0.130838
v -0.158302 1.626838 0.130838
v 2.730215 1.626838 0.305486
v 2.726084 1.996227 0.305486
v -2.987509 1.996227 0.305486
v -2.983378 1.626838 0.305486
v 0.120374 0.715027 0.000000
v 2.730215 0.714983 0.000000
v 0.120374 1.536396 0.000000
v 2.730215 1.536434 0.000000
v 0.310333 0.715023 0.000000
v 0.310333 1.536399 0.000000
v 1.365529 1.536414 0.000000
v 1.365529 0.715006 0.000000
v 1.485446 1.536416 0.000000
v 1.485446 0.715004 0.000000
v 2.531998 0.714986 0.000000
v 2.531999 1.536431 0.000000
v -0.775459 0.710686 0.000000
v -2.773280 0.710690 0.000000
v -0.775459 1.568295 0.000000
v -2.773280 1.568298 0.000000
v -2.536187 0.710689 0.000000
v -2.536187 1.568297 0.000000
v -0.974393 0.710687 0.000000
v -0.974393 1.568295 0.000000
v 1.365529 0.715006 0.009511
v 0.310333 0.715023 0.009511
v 0.310333 1.536399 0.009511
v 1.365529 1.536414 0.009511
v 2.531998 0.714986 0.009511
v 1.485446 0.715004 0.009511
v 1.485446 1.536416 0.009511
v 2.531999 1.536431 0.009511
v -2.536187 0.710689 0.009511
v -2.536187 1.568297 0.009511
v -0.974393 0.710687 0.009511
v -0.974393 1.568295 0.009511
v -0.158302 1.626838 -0.102791
v -0.775459 1.568295 -0.102791
v -0.775459 1.626838 -0.102791
v -0.775459 0.710686 -0.102791
v 2.786941 0.001086 0.209973
v 2.860370 0.001086 0.283403
v 2.786941 1.384250 0.209973
v 2.860370 1.384250 0.283403
v -0.012414 0.001086 0.199400
v 2.933800 0.001086 0.209973
v -0.103482 0.001086 0.125970
v 2.933800 1.384250 0.209973
v -0.103482 1.280150 0.125970
v -0.012414 1.280150 0.199400
v 0.061015 0.001086 0.125970
v 0.061015 1.280150 0.125970
v 2.858533 1.376898 0.210684
v 2.858533 1.628938 0.210684
v 2.854672 1.376898 0.217372
v 2.854672 1.628938 0.217372
v 2.853865 1.376898 0.225052
v 2.853865 1.628938 0.225052
v 2.856251 1.376898 0.232397
v 2.856251 1.628938 0.232397
v 2.861418 1.376898 0.238136
v 2.861418 1.628938 0.238136
v 2.868474 1.376898 0.241277
v 2.868474 1.628938 0.241277
v 2.876196 1.376898 0.241277
v 2.876196 1.628938 0.241277
v 2.883251 1.376898 0.238136
v 2.883251 1.628938 0.238136
v 2.888418 1.376898 0.232397
v 2.888418 1.628938 0.232397
v 2.890805 1.376898 0.225052
v 2.890805 1.628938 0.225052
v 2.889998 1.376898 0.217372
v 2.889998 1.628938 0.217372
v 2.886136 1.376898 0.210684
v 2.886136 1.628938 0.210684
v 2.858533 1.650375 0.210625
v 2.854672 1.655104 0.215354
v 2.853865 1.660535 0.220785
v 2.856251 1.665729 0.225978
v 2.861418 1.669787 0.230036
v 2.868474 1.672008 0.232257
v 2.876196 1.672008 0.232257
v 2.883251 1.669787 0.230036
v 2.888418 1.665729 0.225978
v 2.890805 1.660535 0.220785
v 2.889998 1.655104 0.215354
v 2.886136 1.650375 0.210625
v 2.858533 1.664022 0.210607
v 2.854672 1.670711 0.210600
v 2.853865 1.678391 0.210592
v 2.856251 1.685735 0.210584
v 2.861418 1.691474 0.210578
v 2.868474 1.694615 0.210575
v 2.876196 1.694615 0.210575
v 2.883251 1.691474 0.210578
v 2.888418 1.685735 0.210584
v 2.890805 1.678391 0.210592
v 2.889998 1.670711 0.210600
v 2.886136 1.664022 0.210607
v -0.002395 1.628248 0.146867
v -0.002395 1.278193 0.146867
v 0.004521 1.628248 0.145397
v 0.004521 1.278193 0.145397
v 0.010240 1.628248 0.141242
v 0.010240 1.278193 0.141241
v 0.013776 1.628248 0.135119
v 0.013776 1.278193 0.135119
v 0.014515 1.628248 0.128087
v 0.014515 1.278193 0.128087
v -0.019305 1.628248 0.128087
v -0.019305 1.278193 0.128087
v -0.018566 1.628248 0.135119
v -0.018566 1.278193 0.135119
v -0.015031 1.628248 0.141242
v -0.015031 1.278193 0.141241
v -0.009311 1.628248 0.145397
v -0.009311 1.278193 0.145397
v -2.639967 1.368168 0.116853
v -2.553006 1.609019 -0.005567
v -2.477681 1.598615 -0.005567
v -1.036708 1.598615 -0.005567
v -2.639967 1.309146 0.150930
v -0.921945 1.472447 0.181622
v -2.605061 1.537297 0.097166
v -0.921945 1.551894 0.097166
v -2.601676 1.558736 -0.004947
v -0.921945 1.579995 -0.004947
v -2.608027 1.232256 0.244732
v -0.921945 1.220971 0.244732
v -2.477681 1.222334 0.333239
v -1.036708 1.222334 0.333239
v -2.477681 1.363217 0.318431
v -1.036708 1.363217 0.318431
v -2.477681 1.485897 0.247602
v -1.036708 1.485897 0.247602
v -2.477681 1.569162 0.132997
v -1.036708 1.569162 0.132997
v -0.921945 1.355393 0.233819
v -0.977745 1.594294 -0.005567
v -2.608027 1.426486 0.181622
v -2.608027 1.336078 0.233819
v -0.980857 1.564230 0.120185
v -2.554355 1.581634 0.120185
v -0.980857 1.481307 0.223681
v -2.564857 1.464355 0.223681
v -2.567795 1.225658 0.301608
v -0.977745 1.218074 0.301608
v -2.567795 1.353389 0.288183
v -0.977745 1.358934 0.288183
v -2.567795 1.464616 0.223966
v -0.977745 1.481594 0.223966
v -2.557171 1.582643 0.120061
v -0.977745 1.564846 0.120061
v -2.611184 1.335831 0.234145
v -2.611184 1.426597 0.181741
v -0.918599 1.355072 0.234145
v -0.918599 1.220117 0.245100
v -0.980857 1.359131 0.287644
v -2.564857 1.353567 0.287644
v -2.611184 1.231597 0.245100
v -0.980857 1.218826 0.301016
v -2.564857 1.226340 0.301016
v -0.918599 1.580564 -0.005567
v -2.604726 1.559663 -0.005567
v -0.980857 1.593562 -0.004947
v -1.039587 1.568490 0.133070
v -2.474876 1.568490 0.133070
v -1.039587 1.485553 0.247223
v -0.918599 1.552351 0.096950
v -2.608124 1.538139 0.096950
v -0.918599 1.472590 0.181741
v -2.643300 1.308791 0.150927
v -2.643300 1.368047 0.116716
v -0.890253 1.344112 0.150927
v -0.890253 1.217491 0.158079
v -2.474876 1.485553 0.247223
v -1.039587 1.363357 0.317773
v -2.643300 1.240744 0.158079
v -2.474876 1.363357 0.317773
v -0.893786 1.218650 -0.004959
v -0.890253 1.555681 -0.005567
v -0.893786 1.454598 0.116853
v -2.643300 1.422491 -0.005567
v -2.639967 1.241367 -0.004945
v -2.639967 1.408227 0.061717
v -2.474876 1.223029 0.332522
v -0.893786 1.529139 0.061717
v -1.039587 1.597826 -0.004947
v -2.639967 1.422397 -0.004947
v -0.893786 1.555505 -0.004947
v -2.474876 1.597826 -0.004947
v -2.639967 1.241367 0.158053
v -2.550207 1.607906 -0.004947
v -0.893786 1.218650 0.158053
v -0.890253 1.529209 0.061361
v -0.893786 1.344772 0.150930
v -2.643300 1.408265 0.061361
v -2.643300 1.240744 -0.005565
v -0.890253 1.454373 0.116716
v -0.890253 1.217491 -0.005579
v 0.176417 1.368168 0.116853
v 0.298814 1.609019 -0.005567
v 0.404833 1.598615 -0.005567
v 2.432986 1.598615 -0.005567
v 0.176417 1.309146 0.150930
v 2.580203 1.485626 0.181622
v 0.225548 1.537297 0.097166
v 2.579342 1.565068 0.097166
v 0.230312 1.558736 -0.004947
v 2.579038 1.593168 -0.004947
v 0.221373 1.232256 0.244732
v 2.594515 1.220971 0.244732
v 0.404833 1.222334 0.333239
v 2.432986 1.222334 0.333239
v 0.404833 1.363217 0.318431
v 2.432986 1.363217 0.318431
v 0.404833 1.485897 0.247602
v 2.432986 1.485897 0.247602
v 0.404833 1.569162 0.132997
v 2.432986 1.569162 0.132997
v 2.594515 1.355393 0.233819
v 2.515976 1.594294 -0.005567
v 0.221373 1.426486 0.181622
v 0.221373 1.336078 0.233819
v 2.511596 1.564230 0.120185
v 0.296915 1.581634 0.120185
v 2.511596 1.481307 0.223681
v 0.282134 1.464355 0.223681
v 0.277999 1.225658 0.301608
v 2.515976 1.218074 0.301608
v 0.277999 1.353389 0.288183
v 2.515976 1.358934 0.288183
v 0.277999 1.464616 0.223966
v 2.515976 1.481594 0.223966
v 0.292952 1.582643 0.120061
v 2.515976 1.564846 0.120061
v 0.216929 1.335831 0.234145
v 0.216929 1.426597 0.181741
v 2.599223 1.355072 0.234145
v 2.599223 1.220117 0.245100
v 2.511596 1.359131 0.287644
v 0.282134 1.353567 0.287644
v 0.216929 1.231597 0.245100
v 2.511596 1.218826 0.301016
v 0.282134 1.226340 0.301016
v 2.583740 1.593788 -0.005567
v 0.226019 1.559663 -0.005567
v 2.511596 1.593562 -0.004947
v 2.428934 1.568490 0.133070
v 0.408781 1.568490 0.133070
v 2.428934 1.485553 0.247223
v 2.584045 1.565576 0.096950
v 0.221236 1.538139 0.096950
v 2.584910 1.485820 0.181741
v 0.171726 1.308791 0.150927
v 0.171726 1.368047 0.116716
v 2.633172 1.344112 0.150927
v 2.633172 1.217491 0.158079
v 0.408781 1.485553 0.247223
v 2.428934 1.363357 0.317773
v 0.171726 1.240744 0.158079
v 0.408781 1.363357 0.317773
v 2.628199 1.218650 -0.004959
v 2.613016 1.569221 -0.005567
v 2.620856 1.468321 0.116853
v 0.171726 1.422491 -0.005567
v 0.176417 1.241367 -0.004945
v 0.176417 1.408227 0.061717
v 0.408781 1.223029 0.332522
v 2.611436 1.542264 0.061717
v 2.428934 1.597826 -0.004947
v 0.176417 1.422397 -0.004947
v 2.608104 1.568419 -0.004947
v 0.408781 1.597826 -0.004947
v 0.176417 1.241367 0.158053
v 0.302753 1.607906 -0.004947
v 2.628199 1.218650 0.158053
v 2.616360 1.542963 0.061361
v 2.628199 1.344772 0.150930
v 0.171726 1.408265 0.061361
v 0.171726 1.240744 -0.005565
v 2.625817 1.468727 0.116716
v 2.633172 1.217491 -0.005579
v -0.768700 1.348537 0.116853
v -0.738266 1.539421 -0.005567
v -0.711904 1.575415 -0.005567
v -0.207595 1.575415 -0.005567
v -0.768700 1.289515 0.150930
v -0.170989 1.428519 0.181622
v -0.756484 1.467698 0.097166
v -0.171203 1.507961 0.097166
v -0.755299 1.489138 -0.004947
v -0.171278 1.536061 -0.004947
v -0.757522 1.212626 0.244732
v -0.167430 1.201340 0.244732
v -0.711904 1.202703 0.333239
v -0.207595 1.202703 0.333239
v -0.711904 1.343586 0.318431
v -0.207595 1.343586 0.318431
v -0.711904 1.466267 0.247602
v -0.207595 1.466267 0.247602
v -0.711904 1.545963 0.132997
v -0.207595 1.545963 0.132997
v -0.167430 1.335763 0.233819
v -0.186959 1.571094 -0.005567
v -0.757522 1.406856 0.181622
v -0.757522 1.316448 0.233819
v -0.188048 1.541031 0.120185
v -0.738738 1.512035 0.120185
v -0.188048 1.461677 0.223681
v -0.742413 1.444725 0.223681
v -0.743442 1.206028 0.301608
v -0.186959 1.198443 0.301608
v -0.743442 1.333758 0.288183
v -0.186959 1.339303 0.288183
v -0.743442 1.444985 0.223966
v -0.186959 1.461964 0.223966
v -0.739723 1.513044 0.120061
v -0.186959 1.541646 0.120061
v -0.758627 1.316200 0.234145
v -0.758627 1.406966 0.181741
v -0.166259 1.335442 0.234145
v -0.166259 1.200487 0.245100
v -0.188048 1.339500 0.287644
v -0.742413 1.333937 0.287644
v -0.758627 1.211967 0.245100
v -0.188048 1.199196 0.301016
v -0.742413 1.206710 0.301016
v -0.170109 1.536681 -0.005567
v -0.756367 1.490064 -0.005567
v -0.188048 1.570362 -0.004947
v -0.208602 1.545290 0.133070
v -0.710922 1.545290 0.133070
v -0.208602 1.465923 0.247223
v -0.170033 1.508469 0.096950
v -0.757556 1.468540 0.096950
v -0.169818 1.428713 0.181741
v -0.769867 1.289161 0.150927
v -0.769867 1.348417 0.116716
v -0.157818 1.324482 0.150927
v -0.157818 1.197860 0.158079
v -0.710922 1.465923 0.247223
v -0.208602 1.343726 0.317773
v -0.769867 1.221113 0.158079
v -0.710922 1.343726 0.317773
v -0.159054 1.199019 -0.004959
v -0.162830 1.512115 -0.005567
v -0.160880 1.411214 0.116853
v -0.769867 1.402860 -0.005567
v -0.768700 1.221736 -0.004945
v -0.768700 1.388596 0.061717
v -0.710922 1.203399 0.332522
v -0.163222 1.485157 0.061717
v -0.208602 1.574626 -0.004947
v -0.768700 1.402766 -0.004947
v -0.164051 1.511313 -0.004947
v -0.710922 1.574626 -0.004947
v -0.768700 1.221736 0.158053
v -0.737286 1.534738 -0.004947
v -0.159054 1.199019 0.158053
v -0.161998 1.485856 0.061361
v -0.159054 1.325141 0.150930
v -0.769867 1.388634 0.061361
v -0.769867 1.221113 -0.005565
v -0.159646 1.411620 0.116716
v -0.157818 1.197860 -0.005579
v -1.796296 1.926392 0.346078
v -1.793881 1.876941 0.346078
v -1.783173 1.926994 0.341810
v -1.780758 1.877542 0.341810
v -1.775063 1.927365 0.330636
v -1.772648 1.877914 0.330636
v -1.775063 1.927365 0.316823
v -1.772648 1.877914 0.316823
v -1.783173 1.926994 0.305649
v -1.780758 1.877542 0.305649
v -1.796296 1.926392 0.301381
v -1.793881 1.876941 0.301381
v -1.809419 1.925791 0.305649
v -1.807003 1.876340 0.305649
v -1.817529 1.925419 0.316823
v -1.815113 1.875968 0.316823
v -1.817529 1.925419 0.330636
v -1.815113 1.875968 0.330636
v -1.809419 1.925791 0.341810
v -1.807003 1.876340 0.341810
v -1.793062 1.878351 0.351715
v -1.791944 1.847065 0.351715
v -1.776648 1.879169 0.346371
v -1.775530 1.847883 0.346371
v -1.766503 1.879675 0.332378
v -1.765386 1.848388 0.332378
v -1.766503 1.879675 0.315081
v -1.765386 1.848388 0.315081
v -1.776648 1.879169 0.301088
v -1.775530 1.847883 0.301088
v -0.435231 1.940763 0.346260
v -1.791944 1.847065 0.295744
v -1.809477 1.877533 0.301088
v -1.808359 1.846247 0.301088
v -1.819621 1.877028 0.315081
v -1.818503 1.845741 0.315081
v -1.819621 1.877028 0.332378
v -1.818503 1.845741 0.332378
v -1.809477 1.877533 0.346371
v -1.808359 1.846247 0.346371
v -1.766425 1.803063 0.355825
v -1.789693 1.801903 0.363401
v -1.752044 1.803779 0.335989
v -1.752044 1.803779 0.311470
v -1.766425 1.803063 0.291634
v -1.789693 1.801903 0.284058
v -1.812962 1.800743 0.291634
v -1.827342 1.800027 0.311470
v -1.827342 1.800027 0.335989
v -1.812962 1.800743 0.355825
v -1.797070 1.943282 0.338358
v -1.788480 1.943676 0.335564
v -1.783172 1.943919 0.328250
v -1.783172 1.943919 0.319209
v -1.788480 1.943676 0.311895
v -1.797070 1.943282 0.309101
v -1.805660 1.942888 0.311895
v -1.810968 1.942645 0.319209
v -1.810968 1.942645 0.328250
v -1.805660 1.942888 0.335564
v -1.798032 1.964268 0.338358
v -1.789442 1.964662 0.335564
v -1.784134 1.964905 0.328250
v -1.784134 1.964905 0.319209
v -1.789442 1.964662 0.311895
v -1.798032 1.964268 0.309101
v -1.806621 1.963875 0.311895
v -1.811930 1.963631 0.319209
v -1.811930 1.963631 0.328250
v -1.806621 1.963875 0.335564
v -1.795133 1.986037 0.323822
v -1.786543 1.984340 0.321569
v -1.781235 1.979339 0.316224
v -1.781235 1.972947 0.309831
v -1.786543 1.967602 0.304831
v -1.795133 1.965348 0.303134
v -1.803723 1.967046 0.305388
v -1.809031 1.972046 0.310732
v -1.809031 1.978439 0.317125
v -1.803723 1.983783 0.322125
v -1.795637 1.996294 0.298175
v -1.787047 1.993505 0.297751
v -1.781738 1.986194 0.297428
v -1.781738 1.977153 0.297330
v -1.787047 1.969837 0.297494
v -1.795637 1.967039 0.297857
v -1.804226 1.969828 0.298281
v -1.809535 1.977139 0.298604
v -1.809535 1.986180 0.298702
v -1.804226 1.993497 0.298538
v -0.434854 1.894069 0.346260
v -0.422842 1.940825 0.342235
v -0.422465 1.894132 0.342235
v -0.415185 1.940864 0.331696
v -0.414808 1.894171 0.331696
v -0.415185 1.940864 0.318669
v -0.414808 1.894171 0.318669
v -0.422842 1.940825 0.308130
v -0.422465 1.894132 0.308130
v -0.435231 1.940763 0.304105
v -0.434854 1.894069 0.304105
v -0.447620 1.940700 0.308130
v -0.447243 1.894007 0.308130
v -0.455277 1.940661 0.318669
v -0.454900 1.893968 0.318669
v -0.455277 1.940661 0.331696
v -0.454900 1.893968 0.331696
v -0.447620 1.940700 0.342235
v -0.447243 1.894007 0.342235
v -0.434029 1.895367 0.351577
v -0.434177 1.865841 0.351577
v -0.418529 1.895508 0.346536
v -0.418678 1.865982 0.346536
v -0.408950 1.895595 0.333339
v -0.409098 1.866069 0.333339
v -0.408950 1.895595 0.317026
v -0.409098 1.866069 0.317026
v -0.418529 1.895508 0.303829
v -0.418678 1.865982 0.303829
v -0.434177 1.865841 0.298788
v -0.449528 1.895227 0.303829
v -0.449676 1.865701 0.303829
v -0.459107 1.895140 0.317026
v -0.459255 1.865614 0.317026
v -0.459107 1.895140 0.333339
v -0.459255 1.865614 0.333339
v -0.449528 1.895227 0.346536
v -0.449676 1.865701 0.346536
v -0.411819 1.823396 0.355453
v -0.433790 1.823197 0.362598
v -0.398240 1.823519 0.336745
v -0.398240 1.823519 0.313620
v -0.411819 1.823396 0.294913
v -0.433790 1.823197 0.287767
v -0.455761 1.822998 0.294913
v -0.469341 1.822875 0.313620
v -0.469341 1.822875 0.336745
v -0.455761 1.822998 0.355453
v -0.435312 1.956708 0.338979
v -0.427202 1.956749 0.336344
v -0.422190 1.956775 0.329446
v -0.422190 1.956775 0.320919
v -0.427202 1.956749 0.314021
v -0.435312 1.956708 0.311386
v -0.443421 1.956667 0.314021
v -0.448433 1.956642 0.320919
v -0.448433 1.956642 0.329446
v -0.443421 1.956667 0.336344
v -0.435412 1.976522 0.338979
v -0.427303 1.976563 0.336344
v -0.422291 1.976588 0.329446
v -0.422291 1.976588 0.320919
v -0.427303 1.976563 0.314021
v -0.435412 1.976522 0.311386
v -0.443522 1.976481 0.314021
v -0.448534 1.976455 0.320919
v -0.448534 1.976455 0.329446
v -0.443522 1.976481 0.336344
v -0.431845 1.996924 0.325270
v -0.423815 1.994995 0.323145
v -0.419005 1.990079 0.318104
v -0.419250 1.984055 0.312075
v -0.424458 1.979223 0.307359
v -0.432639 1.977428 0.305759
v -0.440668 1.979358 0.307884
v -0.445479 1.984273 0.312924
v -0.445233 1.990298 0.318954
v -0.440025 1.995130 0.323670
v -0.431925 2.006610 0.301081
v -0.423938 2.003651 0.300681
v -0.419216 1.996557 0.300377
v -0.419563 1.988038 0.300285
v -0.424847 1.981347 0.300439
v -0.433049 1.979041 0.300782
v -0.441036 1.981999 0.301182
v -0.445758 1.989093 0.301486
v -0.445410 1.997612 0.301578
v -0.440127 2.004303 0.301424
v 0.866241 1.934928 0.346981
v 0.866611 1.889186 0.346981
v 0.878378 1.934989 0.343037
v 0.878748 1.889247 0.343037
v 0.885879 1.935028 0.332713
v 0.886249 1.889285 0.332713
v 0.885879 1.935028 0.319951
v 0.886249 1.889285 0.319951
v 0.878378 1.934989 0.309627
v 0.878748 1.889247 0.309627
v 0.866241 1.934928 0.305683
v 0.866611 1.889186 0.305683
v 0.854104 1.934867 0.309627
v 0.854474 1.889124 0.309627
v 0.846603 1.934829 0.319951
v 0.846973 1.889086 0.319951
v 0.846603 1.934829 0.332713
v 0.846973 1.889086 0.332713
v 0.854104 1.934867 0.343037
v 0.854474 1.889124 0.343037
v 0.867419 1.890457 0.352189
v 0.867419 1.861524 0.352189
v 0.882603 1.890595 0.347251
v 0.882458 1.861670 0.347251
v 0.891987 1.890680 0.334322
v 0.891842 1.861755 0.334322
v 0.891987 1.890680 0.318342
v 0.891842 1.861755 0.318342
v 0.882603 1.890595 0.305413
v 0.882458 1.861670 0.305413
v 0.867274 1.861532 0.300475
v 0.852235 1.890319 0.305413
v 0.852090 1.861395 0.305413
v 0.842851 1.890234 0.318342
v 0.842706 1.861309 0.318342
v 0.842851 1.890234 0.334322
v 0.842706 1.861309 0.334322
v 0.852235 1.890319 0.347251
v 0.852090 1.861395 0.347251
v 0.852235 1.861387 0.347251
v 0.842851 1.861302 0.334322
v 0.842851 1.861302 0.318342
v 0.852235 1.861387 0.305413
v 0.882603 1.861662 0.305413
v 0.891987 1.861747 0.318342
v 0.891987 1.861747 0.334322
v 0.882603 1.861662 0.347251
v 0.866611 1.860253 0.305683
v 0.866162 1.950549 0.339848
v 0.874107 1.950589 0.337266
v 0.879016 1.950614 0.330508
v 0.879016 1.950614 0.322155
v 0.874107 1.950589 0.315397
v 0.866162 1.950549 0.312816
v 0.858218 1.950509 0.315397
v 0.853308 1.950484 0.322155
v 0.853308 1.950484 0.330508
v 0.858218 1.950509 0.337266
v 0.866064 1.969959 0.339848
v 0.874008 1.969999 0.337266
v 0.878918 1.970024 0.330508
v 0.878918 1.970024 0.322155
v 0.874008 1.969999 0.315397
v 0.866064 1.969959 0.312816
v 0.858120 1.969919 0.315397
v 0.853210 1.969894 0.322155
v 0.853210 1.969894 0.330508
v 0.858120 1.969919 0.337266
v 0.869559 1.989946 0.326418
v 0.877425 1.988056 0.324335
v 0.882137 1.983240 0.319398
v 0.881897 1.977339 0.313491
v 0.876795 1.972605 0.308871
v 0.868781 1.970847 0.307303
v 0.860915 1.972737 0.309386
v 0.856202 1.977553 0.314323
v 0.856443 1.983454 0.320230
v 0.861545 1.988188 0.324850
v 0.869480 1.999434 0.302721
v 0.877305 1.996536 0.302329
v 0.881930 1.989587 0.302031
v 0.881590 1.981241 0.301941
v 0.876414 1.974686 0.302092
v 0.868379 1.972426 0.302428
v 0.860555 1.975325 0.302820
v 0.855929 1.982274 0.303118
v 0.856269 1.990620 0.303208
v 0.861445 1.997174 0.303057
v 1.955005 1.943820 0.344940
v 1.955346 1.901615 0.344940
v 1.966203 1.943876 0.341302
v 1.966544 1.901672 0.341302
v 1.973124 1.943912 0.331776
v 1.973465 1.901707 0.331776
v 1.973124 1.943912 0.320001
v 1.973465 1.901707 0.320001
v 1.966203 1.943876 0.310475
v 1.966544 1.901672 0.310475
v 1.955005 1.943820 0.306837
v 1.955346 1.901615 0.306837
v 1.943806 1.943763 0.310475
v 1.944147 1.901559 0.310475
v 1.936886 1.943728 0.320001
v 1.937227 1.901523 0.320001
v 1.936886 1.943728 0.331776
v 1.937227 1.901523 0.331776
v 1.943806 1.943763 0.341302
v 1.944147 1.901559 0.341302
v 1.956092 1.902788 0.349745
v 1.954579 1.879708 0.352368
v 1.970101 1.902915 0.345189
v 1.970128 1.879814 0.347311
v 1.978759 1.902994 0.333261
v 1.979738 1.879880 0.334071
v 1.978759 1.902994 0.318516
v 1.979738 1.879880 0.317706
v 1.970101 1.902915 0.306588
v 1.970128 1.879814 0.304466
v 1.954579 1.879708 0.299409
v 1.942082 1.902661 0.306588
v 1.939029 1.879602 0.304466
v 1.933424 1.902583 0.318516
v 1.929420 1.879537 0.317706
v 1.933424 1.902583 0.333261
v 1.929420 1.879537 0.334071
v 1.942082 1.902661 0.345189
v 1.939029 1.879602 0.347311
v 1.977009 1.847697 0.356256
v 1.954966 1.847547 0.363425
v 1.990632 1.847790 0.337488
v 1.990632 1.847790 0.314289
v 1.977009 1.847697 0.295521
v 1.954966 1.847547 0.288352
v 1.932925 1.847397 0.295521
v 1.919302 1.847304 0.314289
v 1.919302 1.847304 0.337488
v 1.932925 1.847397 0.356256
v 1.954932 1.958233 0.338359
v 1.962262 1.958270 0.335977
v 1.966792 1.958293 0.329742
v 1.966792 1.958293 0.322035
v 1.962262 1.958270 0.315800
v 1.954932 1.958233 0.313418
v 1.947602 1.958196 0.315800
v 1.943072 1.958173 0.322035
v 1.943072 1.958173 0.329742
v 1.947602 1.958196 0.335977
v 1.954841 1.976141 0.338359
v 1.962171 1.976178 0.335977
v 1.966701 1.976201 0.329742
v 1.966701 1.976201 0.322035
v 1.962171 1.976178 0.315800
v 1.954841 1.976141 0.313418
v 1.947511 1.976104 0.315800
v 1.942981 1.976081 0.322035
v 1.942981 1.976081 0.329742
v 1.947511 1.976104 0.335977
v 1.958066 1.994582 0.325968
v 1.965323 1.992838 0.324046
v 1.969671 1.988395 0.319491
v 1.969449 1.982950 0.314041
v 1.964742 1.978582 0.309778
v 1.957348 1.976961 0.308332
v 1.950090 1.978705 0.310253
v 1.945742 1.983148 0.314809
v 1.945964 1.988593 0.320258
v 1.950671 1.992960 0.324521
v 1.957993 2.003337 0.304104
v 1.965212 2.000663 0.303742
v 1.969480 1.994251 0.303467
v 1.969167 1.986551 0.303384
v 1.964391 1.980503 0.303524
v 1.956977 1.978418 0.303833
v 1.949758 1.981092 0.304195
v 1.945490 1.987504 0.304470
v 1.945804 1.995204 0.304553
v 1.950580 2.001252 0.304413
v -0.158302 0.202606 -0.102791
v -0.775459 0.202594 -0.102791
v -0.158302 0.109134 -0.102791
v -0.855596 0.109129 -0.102791
v -0.855596 0.001217 0.066385
v -0.158302 0.001217 0.066385
v -0.158302 0.109134 0.066385
v -0.855596 0.109129 0.066385
v -0.158302 0.109134 -0.045710
v -0.158302 0.202606 -0.045710
v -0.775459 0.109129 -0.045710
v -0.775459 0.202594 -0.045710
v -0.775459 0.001217 -0.106046
v -0.855596 0.001217 -0.103448
v -0.855596 0.109129 -0.103448
vn 0.7071 -0.0000 0.7071
vn -0.7071 -0.0000 0.7071
vn 0.3015 -0.3015 0.9045
vn -0.3015 -0.3015 0.9045
vn 0.6660 -0.3360 0.6660
vn -0.4926 -0.8703 -0.0000
vn -0.5774 0.5774 0.5774
vn 0.5774 0.5774 0.5774
vn -0.0000 -0.0000 1.0000
vn -0.0000 0.7071 0.7071
vn -0.5774 0.5773 0.5774
vn -0.0000 1.0000 0.0068
vn -0.5771 -0.5739 0.5810
vn -0.3015 0.3015 0.9045
vn 0.3015 0.3015 0.9045
vn 0.7047 -0.0000 0.7095
vn 0.4082 -0.8165 0.4082
vn -1.0000 -0.0000 -0.0000
vn -0.0000 -0.7046 0.7096
vn 0.5785 -0.5753 0.5783
vn 0.5719 0.5801 0.5799
vn -0.0000 0.7066 0.7076
vn -0.0000 -1.0000 -0.0000
vn 0.3218 -0.8904 0.3218
vn -0.5774 -0.5773 0.5774
vn 0.5773 -0.5774 0.5773
vn 0.5773 0.5774 0.5773
vn -0.0000 1.0000 -0.0000
vn -0.5773 0.5774 0.5774
vn 0.5773 -0.5774 0.5774
vn 0.5774 0.5773 0.5774
vn 0.5774 -0.5774 0.5774
vn -0.0000 -0.7071 0.7071
vn -0.6277 -0.0000 0.7785
vn 0.0534 -0.0000 0.9986
vn -0.8660 -0.0000 -0.5000
vn -0.9511 -0.0000 -0.3090
vn -0.9468 -0.0093 -0.3217
vn -0.8498 -0.0121 -0.5269
vn -0.9945 -0.0000 0.1045
vn -0.9929 0.0116 0.1182
vn -0.8660 -0.0000 0.5000
vn -0.8510 0.0483 0.5229
vn -0.5878 -0.0000 0.8090
vn -0.5663 0.0809 0.8202
vn -0.2079 -0.0000 0.9781
vn -0.1978 0.0989 0.9752
vn 0.2079 -0.0000 0.9781
vn 0.1978 0.0989 0.9752
vn 0.5878 -0.0000 0.8090
vn 0.5663 0.0809 0.8202
vn 0.8660 -0.0000 0.5000
vn 0.8510 0.0483 0.5230
vn 0.9945 -0.0000 0.1045
vn 0.9929 0.0116 0.1182
vn 0.9511 -0.0000 -0.3090
vn 0.9468 -0.0093 -0.3217
vn 0.8660 -0.0000 -0.5000
vn 0.8498 -0.0121 -0.5269
vn -0.8218 0.2312 0.5208
vn -0.9904 0.0452 0.1306
vn 0.7848 -0.0534 -0.6174
vn 0.9089 -0.0614 -0.4125
vn -0.9089 -0.0614 -0.4125
vn 0.9904 0.0452 0.1306
vn -0.7848 -0.0534 -0.6174
vn 0.8218 0.2312 0.5208
vn 0.5328 0.3826 0.7548
vn 0.1840 0.4640 0.8665
vn -0.1840 0.4640 0.8665
vn -0.5328 0.3826 0.7548
vn -0.9532 0.1731 0.2477
vn -0.9633 -0.0764 -0.2573
vn 0.9532 0.1731 0.2477
vn 0.7468 0.4189 0.5166
vn 0.1592 0.6784 0.7172
vn -0.1592 0.6784 0.7172
vn -0.7468 0.4189 0.5166
vn 0.9633 -0.0764 -0.2573
vn 0.4687 0.5912 0.6564
vn -0.4687 0.5912 0.6564
vn 0.6438 -0.1232 -0.7552
vn -0.6439 -0.1232 -0.7552
vn 0.4067 -0.0000 0.9135
vn 0.7431 -0.0000 0.6691
vn 0.9511 -0.0000 0.3090
vn -0.9511 -0.0000 0.3090
vn -0.7431 -0.0000 0.6691
vn -0.4067 -0.0000 0.9135
vn 0.1673 0.6446 0.7460
vn 0.2209 0.2930 0.9302
vn 0.5467 0.2396 0.8023
vn 0.4347 0.5746 0.6934
vn 0.8507 -0.4654 -0.2443
vn 0.9875 -0.1373 -0.0774
vn 0.9886 -0.1491 -0.0204
vn 0.8390 -0.5365 -0.0907
vn -0.5709 0.2537 0.7808
vn -0.5327 0.5205 0.6673
vn -0.8680 0.2960 0.3986
vn -0.8682 0.1533 0.4719
vn 0.2678 0.8649 0.4244
vn 0.7394 0.4079 0.5357
vn 0.5980 0.7057 0.3799
vn -0.4773 -0.8463 -0.2365
vn -0.8868 -0.4399 -0.1420
vn -0.9288 -0.3281 -0.1725
vn -0.5970 -0.7063 -0.3804
vn 0.5773 0.0772 0.8129
vn 0.8360 0.0454 0.5469
vn 0.8136 0.1547 0.5604
vn -0.0220 0.8943 0.4470
vn 0.0669 0.9759 0.2079
vn -0.2799 0.9415 0.1878
vn -0.3732 0.8331 0.4083
vn 0.8637 -0.0527 -0.5013
vn 0.9808 -0.0204 -0.1938
vn 0.9804 -0.0609 -0.1875
vn 0.8685 -0.1532 -0.4715
vn -0.1652 0.3048 0.9380
vn -0.1262 0.6452 0.7535
vn 0.9821 -0.1138 -0.1499
vn 1.0000 -0.0000 -0.0000
vn 0.9834 0.0412 0.1768
vn 0.9713 0.1339 0.1967
vn -0.1617 0.1032 0.9814
vn -0.5624 0.0864 0.8223
vn 0.9865 0.0113 0.1634
vn -0.4342 -0.5747 -0.6937
vn -0.7391 -0.4081 -0.5359
vn -0.8137 -0.1547 -0.5603
vn -0.5496 -0.2411 -0.7999
vn 0.3747 -0.8326 -0.4079
vn 0.2821 -0.9409 -0.1877
vn 0.5623 -0.0864 -0.8224
vn 0.5708 -0.2537 -0.7809
vn 0.5328 -0.5207 -0.6671
vn 0.8683 -0.2959 -0.3982
vn 0.0888 0.9024 0.4215
vn -0.5564 -0.2917 0.7780
vn -0.1723 -0.9584 -0.2274
vn -0.2669 -0.8651 -0.4246
vn 0.0473 0.9760 0.2125
vn 0.1734 0.9583 0.2273
vn 0.0230 -0.8944 -0.4466
vn -0.0648 -0.9760 -0.2079
vn -0.0470 -0.9760 -0.2125
vn -0.0886 -0.9025 -0.4216
vn 0.1261 -0.6453 -0.7534
vn -0.1671 -0.6446 -0.7460
vn 0.4795 0.8452 0.2361
vn -0.8504 0.4657 0.2447
vn -0.8634 0.0527 0.5017
vn 0.1649 -0.3053 -0.9379
vn -0.2229 -0.2953 -0.9291
vn 0.1614 -0.1043 -0.9814
vn -0.5830 -0.0804 -0.8085
vn -0.8387 0.5369 0.0908
vn -0.9886 0.1493 0.0205
vn -0.9808 0.0204 0.1941
vn -0.9803 0.0610 0.1877
vn -0.9821 0.1140 0.1501
vn -0.9875 0.1375 0.0775
vn -0.9834 -0.0412 -0.1765
vn -0.9865 -0.0113 -0.1632
vn -0.8359 -0.0454 -0.5469
vn -0.9713 -0.1341 -0.1967
vn 0.9293 0.3266 0.1721
vn 0.8878 0.4381 0.1414
vn 0.1215 0.6504 0.7498
vn 0.1643 0.2966 0.9408
vn 0.4278 0.2577 0.8663
vn 0.3249 0.5944 0.7356
vn 0.7716 -0.5632 -0.2958
vn 0.9766 -0.1876 -0.1050
vn 0.9785 -0.2043 -0.0280
vn 0.7572 -0.6441 -0.1080
vn -0.4639 0.2738 0.8425
vn -0.4306 0.5528 0.7134
vn -0.7875 0.3678 0.4946
vn -0.7857 0.1912 0.5883
vn 0.1513 0.8824 0.4456
vn 0.6234 0.4929 0.6070
vn 0.4640 0.7842 0.4119
vn -0.3587 -0.9008 -0.2447
vn -0.8665 -0.4836 -0.1239
vn -0.9062 -0.3867 -0.1712
vn -0.4650 -0.7840 -0.4112
vn 0.4530 0.0841 0.8875
vn 0.7691 0.0527 0.6369
vn 0.7449 0.1875 0.6403
vn -0.0137 0.8965 0.4429
vn 0.0475 0.9770 0.2081
vn -0.2240 0.9559 0.1897
vn -0.3025 0.8517 0.4279
vn 0.7794 -0.0655 -0.6231
vn 0.9651 -0.0274 -0.2604
vn 0.9642 -0.0819 -0.2521
vn 0.7861 -0.1910 -0.5879
vn -0.1206 0.3068 0.9441
vn -0.0917 0.6468 0.7571
vn 0.9672 -0.1537 -0.2023
vn 0.9771 0.0874 0.1942
vn 0.9522 0.2115 0.2202
vn -0.1180 0.1038 0.9876
vn -0.4559 0.0930 0.8852
vn 0.9840 0.0355 0.1746
vn -0.3245 -0.5945 -0.7357
vn -0.6236 -0.4931 -0.6066
vn -0.7452 -0.1876 -0.6399
vn -0.4303 -0.2593 -0.8646
vn 0.3037 -0.8514 -0.4276
vn 0.2257 -0.9556 -0.1896
vn 0.4559 -0.0930 -0.8852
vn 0.4639 -0.2738 -0.8425
vn 0.4308 -0.5531 -0.7131
vn 0.7878 -0.3677 -0.4942
vn 0.0631 0.9053 0.4201
vn -0.6602 -0.3731 0.6518
vn -0.0529 -0.9715 -0.2309
vn -0.1506 -0.8824 -0.4457
vn 0.0337 0.9766 0.2126
vn 0.0539 0.9715 0.2309
vn 0.0144 -0.8966 -0.4425
vn -0.0461 -0.9770 -0.2081
vn -0.0335 -0.9766 -0.2126
vn -0.0629 -0.9053 -0.4201
vn 0.0916 -0.6469 -0.7570
vn -0.1214 -0.6504 -0.7499
vn 0.3568 0.9015 0.2450
vn -0.7712 0.5635 0.2962
vn -0.7790 0.0655 0.6236
vn 0.1204 -0.3073 -0.9440
vn -0.1655 -0.2989 -0.9398
vn 0.1178 -0.1050 -0.9875
vn -0.4580 -0.0876 -0.8846
vn -0.7569 0.6445 0.1081
vn -0.9785 0.2045 0.0280
vn -0.9650 0.0274 0.2608
vn -0.9641 0.0820 0.2524
vn -0.9671 0.1540 0.2025
vn -0.9766 0.1878 0.1052
vn -0.9771 -0.0876 -0.1937
vn -0.9841 -0.0356 -0.1742
vn -0.7692 -0.0527 -0.6368
vn -0.9526 -0.2109 -0.2192
vn 0.9050 0.3890 0.1722
vn 0.8647 0.4866 0.1249
vn -0.9983 -0.0447 0.0373
vn 0.9983 0.0445 -0.0374
vn 0.3715 0.6131 0.6972
vn 0.4358 0.2721 0.8579
vn 0.8768 0.1477 0.4576
vn 0.8123 0.4066 0.4181
vn 0.9691 -0.2330 -0.0810
vn 0.9968 -0.0744 -0.0282
vn 0.9964 -0.0840 -0.0138
vn 0.9627 -0.2668 -0.0437
vn -0.8525 0.1615 0.4972
vn -0.8565 0.3562 0.3735
vn -0.9773 0.1501 0.1496
vn -0.9794 0.0623 0.1919
vn 0.6899 0.6699 0.2742
vn 0.9663 0.1667 0.1962
vn 0.9521 0.2719 0.1401
vn -0.9329 -0.3479 -0.0929
vn -0.9859 -0.1617 -0.0437
vn -0.9907 -0.1250 -0.0531
vn -0.9524 -0.2711 -0.1396
vn 0.8893 0.0436 0.4553
vn 0.9724 0.0196 0.2324
vn 0.9700 0.0817 0.2288
vn -0.4073 0.8398 0.3588
vn -0.4156 0.8902 0.1865
vn -0.8652 0.4921 0.0965
vn -0.8647 0.4650 0.1899
vn 0.9786 -0.0215 -0.2047
vn 0.9974 -0.0075 -0.0710
vn 0.9974 -0.0223 -0.0687
vn 0.9795 -0.0623 -0.1917
vn -0.3676 0.2874 0.8845
vn -0.3798 0.6277 0.6795
vn 0.9973 -0.0508 -0.0533
vn 0.9981 0.0311 0.0532
vn 0.9960 0.0656 0.0605
vn -0.3607 0.0975 0.9276
vn -0.8473 0.0555 0.5283
vn 0.9989 0.0096 0.0460
vn -0.8121 -0.4070 -0.4182
vn -0.9664 -0.1667 -0.1959
vn -0.9701 -0.0818 -0.2287
vn -0.8786 -0.1485 -0.4539
vn 0.8672 -0.4622 -0.1854
vn 0.8711 -0.4832 -0.0876
vn 0.8470 -0.0556 -0.5287
vn 0.8522 -0.1617 -0.4976
vn 0.8566 -0.3564 -0.3732
vn 0.9773 -0.1502 -0.1492
vn 0.2359 0.8812 0.4096
vn 0.1194 -0.1371 0.9833
vn -0.6109 -0.7714 -0.1781
vn -0.6895 -0.6704 -0.2743
vn 0.1308 0.9687 0.2108
vn 0.6115 0.7710 0.1780
vn 0.4137 -0.8377 -0.3564
vn 0.4263 -0.8862 -0.1815
vn -0.1299 -0.9689 -0.2108
vn -0.2353 -0.8814 -0.4097
vn 0.3799 -0.6278 -0.6794
vn -0.3713 -0.6131 -0.6973
vn 0.9323 0.3494 0.0933
vn -0.9699 0.2293 0.0821
vn -0.9785 0.0215 0.2049
vn 0.3672 -0.2880 -0.8844
vn -0.4385 -0.2740 -0.8559
vn 0.3603 -0.0988 -0.9276
vn -0.8927 -0.0452 -0.4485
vn -0.9646 0.2596 0.0454
vn -0.9964 0.0838 0.0137
vn -0.9974 0.0075 0.0711
vn -0.9974 0.0223 0.0688
vn -0.9973 0.0508 0.0533
vn -0.9968 0.0742 0.0282
vn -0.9981 -0.0313 -0.0530
vn -0.9989 -0.0096 -0.0459
vn -0.9724 -0.0197 -0.2325
vn -0.9961 -0.0654 -0.0600
vn 0.9905 0.1263 0.0536
vn 0.9855 0.1635 0.0443
vn -0.9999 -0.0126 0.0090
vn 0.9999 0.0125 -0.0090
vn -0.0097 0.2041 0.9789
vn 0.0299 -0.6430 0.7653
vn 0.4794 -0.6218 0.6193
vn 0.5651 0.2313 0.7920
vn 0.7574 -0.6086 0.2366
vn 0.9203 0.2481 0.3025
vn 0.7574 -0.6086 -0.2366
vn 0.9203 0.2481 -0.3025
vn 0.4794 -0.6218 -0.6193
vn 0.5651 0.2313 -0.7920
vn -0.0102 0.1195 -0.9928
vn -0.0097 0.2041 -0.9789
vn -0.4192 -0.6643 -0.6189
vn -0.5844 0.1769 -0.7919
vn -0.6966 -0.6774 -0.2363
vn -0.9396 0.1601 -0.3025
vn -0.6966 -0.6774 0.2363
vn -0.9396 0.1601 0.3025
vn -0.4192 -0.6643 0.6189
vn -0.5844 0.1769 0.7919
vn 0.5624 0.2478 -0.7889
vn 0.9162 0.2640 -0.3013
vn -0.0301 0.6462 0.7626
vn -0.0078 0.1291 0.9916
vn 0.5756 0.1540 0.8031
vn 0.4222 0.6650 0.6160
vn 0.9366 0.1694 0.3069
vn 0.7004 0.6754 0.2307
vn 0.9366 0.1694 -0.3069
vn 0.6982 0.6733 -0.2432
vn 0.5387 0.1791 -0.8233
vn 0.3771 0.6495 -0.6603
vn -0.0099 0.1732 -0.9848
vn -0.5575 0.1299 -0.8199
vn -0.4373 0.6137 -0.6574
vn -0.9480 0.0888 -0.3055
vn -0.7538 0.6110 -0.2418
vn -0.9480 0.0888 0.3055
vn -0.7562 0.6128 0.2295
vn 0.5190 -0.5214 -0.6773
vn 0.0272 -0.5458 -0.8375
vn -0.5896 0.1042 0.8009
vn -0.4807 0.6262 0.6138
vn 0.5190 -0.5214 0.6773
vn 0.0272 -0.5458 0.8375
vn -0.4646 -0.5704 0.6773
vn -0.7682 -0.5856 0.2586
vn -0.7682 -0.5856 -0.2586
vn -0.4646 -0.5704 -0.6773
vn 0.8226 -0.5063 -0.2586
vn 0.8226 -0.5063 0.2586
vn -0.0101 0.2215 -0.9751
vn -0.5827 0.1953 -0.7889
vn -0.6622 -0.2816 -0.6944
vn -0.0259 -0.6370 -0.7705
vn 0.5624 0.2478 0.7889
vn -0.0101 0.2215 0.9751
vn 0.9163 0.2640 0.3013
vn -0.5827 0.1953 0.7889
vn -0.9366 0.1791 0.3013
vn -0.9366 0.1791 -0.3013
vn 0.9214 0.1031 0.3748
vn 0.9697 -0.1793 -0.1658
vn 0.9341 -0.3428 -0.0994
vn 0.9440 0.2334 0.2330
vn -0.0181 0.2797 0.9599
vn -0.5794 0.2504 0.7756
vn -0.9667 0.0092 -0.2559
vn 0.6154 -0.5317 -0.5819
vn 0.5449 0.2407 0.8032
vn -0.9363 0.1638 0.3107
vn -0.5324 0.6706 0.5165
vn 0.0092 0.7748 0.6322
vn 0.0041 0.9288 0.3705
vn -0.5232 0.7846 0.3327
vn -0.9641 -0.1668 -0.2068
vn -0.5181 -0.7720 -0.3683
vn 0.5441 -0.7992 -0.2555
vn 0.5638 0.6350 0.5281
vn -0.9124 0.3543 0.2049
vn 0.0402 -0.9536 -0.2985
vn -0.0013 0.2043 0.9789
vn 0.0037 -0.6437 0.7653
vn 0.4537 -0.6408 0.6193
vn 0.5740 0.2081 0.7920
vn -0.9661 -0.2501 -0.0643
vn -0.5956 -0.7612 -0.2568
vn 0.5872 -0.7612 -0.2751
vn 0.9634 -0.2417 -0.1156
vn 0.5306 0.7944 0.2954
vn -0.9161 0.3605 0.1754
vn -0.0052 -0.9479 -0.3187
vn 0.9202 0.3742 0.1152
vn 0.7320 -0.6389 0.2366
vn 0.9296 0.2104 0.3025
vn 0.7320 -0.6389 -0.2366
vn 0.9296 0.2104 -0.3025
vn 0.4537 -0.6408 -0.6193
vn 0.5740 0.2081 -0.7920
vn -0.0053 0.1199 -0.9928
vn -0.0014 0.2043 -0.9789
vn -0.4459 -0.6466 -0.6189
vn -0.5767 0.2005 -0.7919
vn -0.7236 -0.6485 -0.2363
vn -0.9323 0.1982 -0.3025
vn -0.7236 -0.6485 0.2363
vn -0.9323 0.1982 0.3025
vn -0.4459 -0.6466 0.6189
vn -0.5767 0.2005 0.7919
vn 0.5720 0.2247 -0.7889
vn 0.9262 0.2265 -0.3013
vn -0.0037 0.6469 0.7626
vn -0.0025 0.1293 0.9916
vn 0.5814 0.1305 0.8031
vn 0.4490 0.6473 0.6160
vn 0.9427 0.1311 0.3069
vn 0.7273 0.6463 0.2307
vn 0.9427 0.1311 -0.3069
vn 0.7251 0.6443 -0.2432
vn 0.5455 0.1570 -0.8233
vn 0.4032 0.6336 -0.6603
vn -0.0028 0.1734 -0.9848
vn -0.5518 0.1525 -0.8199
vn -0.4119 0.6310 -0.6574
vn -0.9436 0.1273 -0.3055
vn -0.7283 0.6412 -0.2418
vn -0.9436 0.1273 0.3055
vn -0.7306 0.6431 0.2295
vn 0.4974 -0.5421 -0.6773
vn 0.0050 -0.5465 -0.8375
vn -0.5849 0.1281 0.8009
vn -0.4548 0.6453 0.6138
vn 0.4974 -0.5421 0.6773
vn 0.0050 -0.5465 0.8375
vn -0.4875 -0.5510 0.6773
vn -0.7914 -0.5539 0.2586
vn -0.7914 -0.5539 -0.2586
vn -0.4875 -0.5510 -0.6773
vn 0.8013 -0.5394 -0.2586
vn 0.8013 -0.5394 0.2586
vn -0.0011 0.2218 -0.9751
vn -0.5743 0.2189 -0.7889
vn -0.6732 -0.2544 -0.6944
vn -0.0518 -0.6354 -0.7705
vn 0.5720 0.2247 0.7889
vn -0.0011 0.2218 0.9751
vn 0.9262 0.2265 0.3013
vn -0.5743 0.2189 0.7889
vn -0.9285 0.2171 0.3013
vn -0.9285 0.2171 -0.3013
vn 0.9248 0.0655 0.3748
vn 0.9616 -0.2186 -0.1659
vn 0.9194 -0.3805 -0.0994
vn 0.9528 0.1948 0.2330
vn -0.0067 0.2802 0.9599
vn -0.5687 0.2738 0.7756
vn -0.9655 0.0486 -0.2559
vn 0.5932 -0.5563 -0.5819
vn 0.5542 0.2183 0.8032
vn -0.9288 0.2018 0.3107
vn -0.5047 0.6917 0.5165
vn 0.0408 0.7737 0.6322
vn 0.0419 0.9279 0.3705
vn -0.4908 0.8053 0.3327
vn -0.9700 -0.1274 -0.2068
vn -0.5491 -0.7503 -0.3683
vn 0.5111 -0.8207 -0.2555
vn 0.5892 0.6115 0.5281
vn -0.8973 0.3911 0.2049
vn 0.0013 -0.9544 -0.2985
vn -0.9755 -0.2105 -0.0643
vn -0.6261 -0.7363 -0.2567
vn 0.5557 -0.7845 -0.2751
vn 0.9528 -0.2808 -0.1156
vn 0.5625 0.7722 0.2955
vn -0.9007 0.3975 0.1754
vn -0.0438 -0.9469 -0.3186
vn 0.9347 0.3364 0.1152
vn -0.5767 0.2006 -0.7919
vn -0.5767 0.2006 0.7919
vn -0.0034 0.6469 0.7626
vn 0.0055 -0.6405 0.7679
vn 0.5868 -0.0025 0.8097
vn 0.4494 0.6474 0.6156
vn 0.9509 -0.0048 0.3096
vn 0.9509 -0.0048 -0.3096
vn 0.5148 0.0481 -0.8559
vn -0.0034 0.0916 -0.9958
vn -0.5237 0.0502 -0.8504
vn -0.9514 0.0048 -0.3080
vn -0.9514 0.0048 0.3080
vn -0.5893 0.0025 0.8079
vn -0.4544 0.6452 0.6142
vn 0.0091 -0.9999 0.0102
vn -0.8972 0.3911 0.2049
vn -0.0014 0.2043 0.9789
vn -0.0027 0.1824 -0.9832
vn 0.0049 0.6881 0.7256
vn -0.0087 0.2255 0.9742
vn 0.5692 0.2104 0.7948
vn 0.4398 0.6757 0.5916
vn 0.9309 0.2007 0.3051
vn 0.7111 0.6669 0.2228
vn 0.9309 0.2007 -0.3051
vn 0.7090 0.6650 -0.2349
vn 0.5328 0.2439 -0.8103
vn 0.3964 0.6674 -0.6304
vn -0.0058 0.2721 -0.9622
vn -0.5455 0.2646 -0.7952
vn -0.3767 0.6895 -0.6186
vn -0.9222 0.2482 -0.2966
vn -0.6738 0.7034 -0.2261
vn -0.9222 0.2482 0.2966
vn -0.6756 0.7053 0.2149
vn 0.5082 -0.5111 -0.6932
vn 0.0043 -0.5156 -0.8568
vn -0.5766 0.2398 0.7811
vn -0.4202 0.6994 0.5782
vn 0.5082 -0.5111 0.6932
vn 0.0043 -0.5156 0.8568
vn -0.4994 -0.5202 0.6928
vn -0.8102 -0.5231 0.2645
vn -0.8102 -0.5231 -0.2645
vn -0.4994 -0.5202 -0.6928
vn 0.8194 -0.5084 -0.2647
vn 0.8194 -0.5084 0.2647
vn 0.9616 -0.2186 -0.1658
vn -0.9655 0.0485 -0.2559
vn -0.9288 0.2017 0.3107
vn -0.5490 -0.7503 -0.3683
vn 0.7066 -0.0000 0.7076
vn 0.5773 0.5774 0.5774
vn -0.3545 0.6110 0.7078
vn 0.7071 0.7071 -0.0000
vn -0.3667 0.8941 0.2574
vn -0.4398 0.1885 0.8781
vt 0.000616 0.991498
vt 0.852223 0.000065
vt 0.861744 0.000065
vt 0.852223 0.999527
vt 0.858419 0.999527
vt 0.852223 0.991498
vt 0.889957 0.000065
vt 0.031931 0.000065
vt 0.027099 0.000065
vt 0.463228 0.000065
vt 0.000616 0.814470
vt 0.000616 0.000065
vt 0.427903 0.000065
vt 0.854397 0.000065
vt 0.854288 0.000065
vt 0.329705 0.000065
vt 0.467705 0.000065
vt 0.000616 0.814470
vt 0.861744 0.814470
vt 0.852223 0.814470
vt 0.858419 0.817737
vt 0.858419 0.824689
vt 0.027099 0.814470
vt 0.031931 0.814470
vt 0.463228 0.814470
vt 0.463228 0.817737
vt 0.427903 0.814470
vt 0.421692 0.814470
vt 0.329705 0.814470
vt 0.889957 0.999527
vt 0.852223 0.999527
vt 0.852223 0.814470
vt 0.854397 0.814470
vt 0.854288 0.814470
vt 0.031931 0.000065
vt 0.002253 0.000065
vt 0.031931 0.814470
vt 0.002253 0.814470
vt 0.421692 0.000065
vt 0.463228 0.000065
vt 0.471510 0.000065
vt 0.463228 0.814470
vt 0.471510 0.814470
vt 0.421692 0.814470
vt 0.858797 0.833783
vt 0.856245 0.833083
vt 0.858181 0.999527
vt 0.855629 0.999527
vt 0.851607 0.999527
vt 0.000000 0.999527
vt 0.000616 0.833783
vt 0.000616 0.833083
vt 0.463228 0.357671
vt 0.861744 0.357648
vt 0.852223 0.357648
vt 0.463228 0.769161
vt 0.861744 0.769180
vt 0.852223 0.769180
vt 0.491541 0.357669
vt 0.491541 0.769162
vt 0.648818 0.769170
vt 0.648818 0.357660
vt 0.666691 0.769170
vt 0.666691 0.357659
vt 0.822679 0.357650
vt 0.822679 0.769178
vt 0.329705 0.355496
vt 0.468680 0.355496
vt 0.027099 0.355498
vt 0.031931 0.355498
vt 0.329705 0.785142
vt 0.472130 0.785142
vt 0.027099 0.785142
vt 0.031931 0.785142
vt 0.067269 0.355497
vt 0.067269 0.785142
vt 0.300054 0.355496
vt 0.300054 0.785142
vt 0.998833 0.772538
vt 0.648818 0.357660
vt 0.893483 0.772546
vt 0.491541 0.357669
vt 0.893483 0.997452
vt 0.491541 0.769162
vt 0.998833 0.997459
vt 0.648818 0.769170
vt 0.822679 0.357650
vt 0.666691 0.357659
vt 0.666691 0.769170
vt 0.822679 0.769178
vt 0.893858 0.772778
vt 0.067269 0.355497
vt 0.893858 0.997625
vt 0.067269 0.785142
vt 0.998576 0.772777
vt 0.300054 0.355496
vt 0.998576 0.997624
vt 0.300054 0.785142
vt 0.421692 0.814470
vt 0.976323 0.788515
vt 0.329705 0.785142
vt 0.893922 0.759186
vt 0.458590 0.785142
vt 0.329705 0.814470
vt 0.893922 0.788515
vt 0.893922 0.427351
vt 0.458590 0.355496
vt 0.860678 0.000000
vt 0.871623 0.000000
vt 0.860678 0.692938
vt 0.871623 0.692938
vt 0.443436 0.000000
vt 0.882567 0.000000
vt 0.429862 0.000000
vt 0.882567 0.692938
vt 0.429862 0.640786
vt 0.443436 0.640786
vt 0.454381 0.000000
vt 0.454381 0.640786
vt 0.871349 0.689255
vt 0.871349 0.815522
vt 0.870774 0.689255
vt 0.870774 0.815522
vt 0.870653 0.689255
vt 0.870653 0.815522
vt 0.871009 0.689255
vt 0.871009 0.815522
vt 0.871779 0.689255
vt 0.871779 0.815522
vt 0.872830 0.689255
vt 0.872830 0.815522
vt 0.873982 0.689255
vt 0.873982 0.815522
vt 0.875033 0.689255
vt 0.875033 0.815522
vt 0.875803 0.689255
vt 0.875803 0.815522
vt 0.876159 0.689255
vt 0.876159 0.815522
vt 0.876039 0.689255
vt 0.876039 0.815522
vt 0.875463 0.689255
vt 0.875463 0.815522
vt 0.871349 0.826262
vt 0.870774 0.828631
vt 0.870653 0.831352
vt 0.871009 0.833954
vt 0.871779 0.835987
vt 0.872830 0.837100
vt 0.873982 0.837100
vt 0.875033 0.835987
vt 0.875803 0.833954
vt 0.876159 0.831352
vt 0.876039 0.828631
vt 0.875463 0.826262
vt 0.871349 0.833099
vt 0.870774 0.836450
vt 0.870653 0.840297
vt 0.871009 0.843977
vt 0.871779 0.846852
vt 0.872830 0.848426
vt 0.873982 0.848426
vt 0.875033 0.846852
vt 0.875803 0.843977
vt 0.876159 0.840297
vt 0.876039 0.836450
vt 0.875463 0.833099
vt 0.444929 0.815177
vt 0.444929 0.639806
vt 0.445960 0.815177
vt 0.445960 0.639806
vt 0.446813 0.815177
vt 0.446813 0.639806
vt 0.447340 0.815177
vt 0.447340 0.639806
vt 0.447450 0.815177
vt 0.447450 0.639806
vt 0.442409 0.815177
vt 0.442409 0.639806
vt 0.442519 0.815177
vt 0.442519 0.639806
vt 0.443046 0.815177
vt 0.443046 0.639806
vt 0.443899 0.815177
vt 0.443899 0.639806
vt 0.051801 0.684882
vt 0.064762 0.805543
vt 0.075989 0.800331
vt 0.290766 0.800331
vt 0.051801 0.655313
vt 0.307871 0.737123
vt 0.057004 0.769612
vt 0.307871 0.776925
vt 0.057508 0.780352
vt 0.307871 0.791003
vt 0.056562 0.616793
vt 0.307871 0.611138
vt 0.075989 0.611821
vt 0.290766 0.611821
vt 0.075989 0.682401
vt 0.290766 0.682401
vt 0.075989 0.743862
vt 0.290766 0.743862
vt 0.075989 0.785576
vt 0.290766 0.785576
vt 0.307871 0.678481
vt 0.299554 0.798166
vt 0.056562 0.714098
vt 0.056562 0.668805
vt 0.299090 0.783105
vt 0.064561 0.791824
vt 0.299090 0.741562
vt 0.062996 0.733070
vt 0.062558 0.613487
vt 0.299554 0.609687
vt 0.062558 0.677478
vt 0.299554 0.680256
vt 0.062558 0.733200
vt 0.299554 0.741706
vt 0.064142 0.792329
vt 0.299554 0.783414
vt 0.056091 0.668681
vt 0.056091 0.714153
vt 0.308370 0.678321
vt 0.308370 0.610711
vt 0.299090 0.680354
vt 0.062996 0.677567
vt 0.056091 0.616462
vt 0.299090 0.610064
vt 0.062996 0.613829
vt 0.308370 0.791288
vt 0.057054 0.780817
vt 0.299090 0.797800
vt 0.290336 0.785239
vt 0.076407 0.785239
vt 0.290336 0.743689
vt 0.308370 0.777154
vt 0.056547 0.770034
vt 0.308370 0.737195
vt 0.051304 0.655135
vt 0.051304 0.684821
vt 0.312595 0.672830
vt 0.312595 0.609396
vt 0.076407 0.743689
vt 0.290336 0.682471
vt 0.051304 0.621045
vt 0.076407 0.682471
vt 0.312068 0.609976
vt 0.312595 0.778822
vt 0.312068 0.728181
vt 0.051304 0.712096
vt 0.051801 0.621356
vt 0.051801 0.704950
vt 0.076407 0.612170
vt 0.312068 0.765525
vt 0.290336 0.799936
vt 0.051801 0.712049
vt 0.312068 0.778734
vt 0.076407 0.799936
vt 0.051801 0.621356
vt 0.065179 0.804985
vt 0.312068 0.609976
vt 0.312595 0.765560
vt 0.312068 0.673160
vt 0.051304 0.704970
vt 0.051304 0.621045
vt 0.312595 0.728069
vt 0.312595 0.609396
vt 0.471581 0.684882
vt 0.489824 0.805543
vt 0.505626 0.800331
vt 0.807921 0.800331
vt 0.471581 0.655313
vt 0.829864 0.743726
vt 0.478904 0.769612
vt 0.829736 0.783524
vt 0.479614 0.780352
vt 0.829691 0.797602
vt 0.478282 0.616793
vt 0.831997 0.611138
vt 0.505626 0.611821
vt 0.807921 0.611821
vt 0.505626 0.682401
vt 0.807921 0.682401
vt 0.505626 0.743862
vt 0.807921 0.743862
vt 0.505626 0.785576
vt 0.807921 0.785576
vt 0.831997 0.678481
vt 0.820291 0.798166
vt 0.478282 0.714098
vt 0.478282 0.668805
vt 0.819638 0.783105
vt 0.489541 0.791824
vt 0.819638 0.741562
vt 0.487338 0.733070
vt 0.486722 0.613487
vt 0.820291 0.609687
vt 0.486722 0.677478
vt 0.820291 0.680256
vt 0.486722 0.733200
vt 0.820291 0.741706
vt 0.488951 0.792329
vt 0.820291 0.783414
vt 0.477619 0.668681
vt 0.477619 0.714153
vt 0.832699 0.678321
vt 0.832699 0.610711
vt 0.819638 0.680354
vt 0.487338 0.677567
vt 0.477619 0.616462
vt 0.819638 0.610064
vt 0.487338 0.613829
vt 0.830391 0.797913
vt 0.478974 0.780817
vt 0.819638 0.797800
vt 0.807318 0.785239
vt 0.506215 0.785239
vt 0.807318 0.743689
vt 0.830437 0.783779
vt 0.478262 0.770034
vt 0.830566 0.743823
vt 0.470882 0.655135
vt 0.470882 0.684821
vt 0.837759 0.672830
vt 0.837759 0.609396
vt 0.506215 0.743689
vt 0.807318 0.682471
vt 0.470882 0.621045
vt 0.506215 0.682471
vt 0.837018 0.609976
vt 0.834755 0.785606
vt 0.835923 0.735056
vt 0.470882 0.712096
vt 0.471581 0.621356
vt 0.471581 0.704950
vt 0.506215 0.612170
vt 0.834520 0.772100
vt 0.807318 0.799936
vt 0.471581 0.712049
vt 0.834023 0.785203
vt 0.506215 0.799936
vt 0.471581 0.621356
vt 0.490412 0.804985
vt 0.837018 0.609976
vt 0.835253 0.772450
vt 0.837018 0.673160
vt 0.470882 0.704970
vt 0.470882 0.621045
vt 0.836663 0.735260
vt 0.837759 0.609396
vt 0.330712 0.675047
vt 0.335248 0.770676
vt 0.339177 0.788709
vt 0.414345 0.788709
vt 0.330712 0.645478
vt 0.419801 0.715116
vt 0.332533 0.734744
vt 0.419769 0.754915
vt 0.332709 0.745485
vt 0.419757 0.768993
vt 0.332378 0.606958
vt 0.420331 0.601304
vt 0.339177 0.601987
vt 0.414345 0.601987
vt 0.339177 0.672567
vt 0.414345 0.672567
vt 0.339177 0.734027
vt 0.414345 0.734027
vt 0.339177 0.773954
vt 0.414345 0.773954
vt 0.420331 0.668647
vt 0.417420 0.786544
vt 0.332378 0.704264
vt 0.332378 0.658971
vt 0.417258 0.771482
vt 0.335178 0.756956
vt 0.417258 0.731728
vt 0.334630 0.723235
vt 0.334477 0.603653
vt 0.417420 0.599853
vt 0.334477 0.667643
vt 0.417420 0.670421
vt 0.334477 0.723366
vt 0.417420 0.731871
vt 0.335031 0.757462
vt 0.417420 0.771791
vt 0.332213 0.658847
vt 0.332213 0.704319
vt 0.420505 0.668487
vt 0.420505 0.600877
vt 0.417258 0.670520
vt 0.334630 0.667732
vt 0.332213 0.606628
vt 0.417258 0.600230
vt 0.334630 0.603994
vt 0.419932 0.769303
vt 0.332550 0.745949
vt 0.417258 0.786177
vt 0.414194 0.773617
vt 0.339324 0.773617
vt 0.414194 0.733855
vt 0.419943 0.755170
vt 0.332373 0.735166
vt 0.419975 0.715214
vt 0.330538 0.645301
vt 0.330538 0.674987
vt 0.421764 0.662996
vt 0.421764 0.599561
vt 0.339324 0.733855
vt 0.414194 0.672637
vt 0.330538 0.611210
vt 0.339324 0.672637
vt 0.421579 0.600142
vt 0.421017 0.756996
vt 0.421307 0.706447
vt 0.330538 0.702262
vt 0.330712 0.611522
vt 0.330712 0.695116
vt 0.339324 0.602335
vt 0.420958 0.743491
vt 0.414194 0.788314
vt 0.330712 0.702214
vt 0.420835 0.756594
vt 0.339324 0.788314
vt 0.330712 0.611522
vt 0.335394 0.768330
vt 0.421579 0.600142
vt 0.421141 0.743841
vt 0.421579 0.663326
vt 0.330538 0.695135
vt 0.330538 0.611210
vt 0.421491 0.706650
vt 0.421764 0.599561
vt 0.179332 0.973673
vt 0.179584 0.956359
vt 0.180699 0.973883
vt 0.180951 0.956569
vt 0.181544 0.974014
vt 0.181796 0.956699
vt 0.181544 0.974014
vt 0.181796 0.956699
vt 0.180699 0.973883
vt 0.180951 0.956569
vt 0.179332 0.973673
vt 0.179584 0.956359
vt 0.177966 0.973462
vt 0.178217 0.956148
vt 0.177121 0.973332
vt 0.177372 0.956018
vt 0.177121 0.973332
vt 0.177372 0.956018
vt 0.177966 0.973462
vt 0.178217 0.956148
vt 0.179669 0.956852
vt 0.179786 0.945898
vt 0.181379 0.957139
vt 0.181496 0.946185
vt 0.182436 0.957316
vt 0.182552 0.946362
vt 0.182436 0.957316
vt 0.182552 0.946362
vt 0.181379 0.957139
vt 0.181496 0.946185
vt 0.383920 0.971273
vt 0.179786 0.945898
vt 0.177959 0.956566
vt 0.178076 0.945612
vt 0.176903 0.956389
vt 0.177019 0.945435
vt 0.176903 0.956389
vt 0.177019 0.945435
vt 0.177959 0.956566
vt 0.178076 0.945612
vt 0.182444 0.930492
vt 0.180020 0.930086
vt 0.183942 0.930743
vt 0.183942 0.930743
vt 0.182444 0.930492
vt 0.180020 0.930086
vt 0.177596 0.929680
vt 0.176098 0.929429
vt 0.176098 0.929429
vt 0.177596 0.929680
vt 0.179252 0.979587
vt 0.180147 0.979724
vt 0.180700 0.979809
vt 0.180700 0.979809
vt 0.180147 0.979724
vt 0.179252 0.979587
vt 0.178357 0.979448
vt 0.177804 0.979363
vt 0.177804 0.979363
vt 0.178357 0.979448
vt 0.179152 0.986934
vt 0.180047 0.987072
vt 0.180599 0.987157
vt 0.180599 0.987157
vt 0.180047 0.987072
vt 0.179152 0.986934
vt 0.178257 0.986796
vt 0.177704 0.986711
vt 0.177704 0.986711
vt 0.178257 0.986796
vt 0.179454 0.994556
vt 0.180348 0.993962
vt 0.180901 0.992211
vt 0.180901 0.989973
vt 0.180348 0.988102
vt 0.179454 0.987312
vt 0.178559 0.987907
vt 0.178006 0.989657
vt 0.178006 0.991896
vt 0.178559 0.993767
vt 0.179401 0.998147
vt 0.180296 0.997171
vt 0.180849 0.994611
vt 0.180849 0.991446
vt 0.180296 0.988884
vt 0.179401 0.987904
vt 0.178506 0.988881
vt 0.177953 0.991441
vt 0.177953 0.994606
vt 0.178506 0.997168
vt 0.383961 0.953939
vt 0.385288 0.971296
vt 0.385330 0.953962
vt 0.386134 0.971311
vt 0.386176 0.953976
vt 0.386134 0.971311
vt 0.386176 0.953976
vt 0.385288 0.971296
vt 0.385330 0.953962
vt 0.383920 0.971273
vt 0.383961 0.953939
vt 0.382551 0.971250
vt 0.382593 0.953915
vt 0.381706 0.971235
vt 0.381747 0.953901
vt 0.381706 0.971235
vt 0.381747 0.953901
vt 0.382551 0.971250
vt 0.382593 0.953915
vt 0.384052 0.954420
vt 0.384036 0.943459
vt 0.385765 0.954473
vt 0.385748 0.943511
vt 0.386822 0.954505
vt 0.386806 0.943544
vt 0.386822 0.954505
vt 0.386806 0.943544
vt 0.385765 0.954473
vt 0.385748 0.943511
vt 0.384036 0.943459
vt 0.382341 0.954368
vt 0.382324 0.943407
vt 0.381283 0.954336
vt 0.381266 0.943375
vt 0.381283 0.954336
vt 0.381266 0.943375
vt 0.382341 0.954368
vt 0.382324 0.943407
vt 0.386506 0.927702
vt 0.384079 0.927628
vt 0.388005 0.927748
vt 0.388005 0.927748
vt 0.386506 0.927702
vt 0.384079 0.927628
vt 0.381652 0.927554
vt 0.380153 0.927509
vt 0.380153 0.927509
vt 0.381652 0.927554
vt 0.383911 0.977193
vt 0.384806 0.977208
vt 0.385360 0.977217
vt 0.385360 0.977217
vt 0.384806 0.977208
vt 0.383911 0.977193
vt 0.383015 0.977177
vt 0.382462 0.977168
vt 0.382462 0.977168
vt 0.383015 0.977177
vt 0.383900 0.984548
vt 0.384796 0.984563
vt 0.385349 0.984573
vt 0.385349 0.984573
vt 0.384796 0.984563
vt 0.383900 0.984548
vt 0.383004 0.984533
vt 0.382451 0.984523
vt 0.382451 0.984523
vt 0.383004 0.984533
vt 0.384294 0.992122
vt 0.385181 0.991406
vt 0.385712 0.989581
vt 0.385685 0.987345
vt 0.385110 0.985551
vt 0.384206 0.984885
vt 0.383319 0.985601
vt 0.382788 0.987426
vt 0.382815 0.989663
vt 0.383390 0.991456
vt 0.384285 0.995718
vt 0.385167 0.994620
vt 0.385689 0.991986
vt 0.385650 0.988824
vt 0.385067 0.986340
vt 0.384161 0.985483
vt 0.383279 0.986582
vt 0.382757 0.989215
vt 0.382795 0.992378
vt 0.383379 0.994862
vt 0.579002 0.971273
vt 0.579044 0.953939
vt 0.580371 0.971296
vt 0.580412 0.953962
vt 0.581216 0.971311
vt 0.581258 0.953976
vt 0.581216 0.971311
vt 0.581258 0.953976
vt 0.580371 0.971296
vt 0.580412 0.953962
vt 0.579002 0.971273
vt 0.579044 0.953939
vt 0.577634 0.971250
vt 0.577676 0.953915
vt 0.576788 0.971235
vt 0.576830 0.953901
vt 0.576788 0.971235
vt 0.576830 0.953901
vt 0.577634 0.971250
vt 0.577676 0.953915
vt 0.579135 0.954420
vt 0.579135 0.943456
vt 0.580847 0.954473
vt 0.580831 0.943511
vt 0.581905 0.954505
vt 0.581889 0.943544
vt 0.581905 0.954505
vt 0.581889 0.943544
vt 0.580847 0.954473
vt 0.580831 0.943511
vt 0.579119 0.943459
vt 0.577423 0.954368
vt 0.577407 0.943407
vt 0.576365 0.954336
vt 0.576349 0.943375
vt 0.576365 0.954336
vt 0.576349 0.943375
vt 0.577423 0.954368
vt 0.577407 0.943407
vt 0.577423 0.943404
vt 0.576365 0.943372
vt 0.576365 0.943372
vt 0.577423 0.943404
vt 0.580847 0.943508
vt 0.581905 0.943541
vt 0.581905 0.943541
vt 0.580847 0.943508
vt 0.579044 0.942975
vt 0.578993 0.977193
vt 0.579889 0.977208
vt 0.580443 0.977217
vt 0.580443 0.977217
vt 0.579889 0.977208
vt 0.578993 0.977193
vt 0.578098 0.977177
vt 0.577544 0.977168
vt 0.577544 0.977168
vt 0.578098 0.977177
vt 0.578982 0.984548
vt 0.579878 0.984563
vt 0.580432 0.984573
vt 0.580432 0.984573
vt 0.579878 0.984563
vt 0.578982 0.984548
vt 0.578087 0.984533
vt 0.577533 0.984523
vt 0.577533 0.984523
vt 0.578087 0.984533
vt 0.579376 0.992122
vt 0.580263 0.991406
vt 0.580795 0.989581
vt 0.580768 0.987345
vt 0.580192 0.985551
vt 0.579289 0.984885
vt 0.578402 0.985601
vt 0.577871 0.987426
vt 0.577898 0.989663
vt 0.578473 0.991456
vt 0.579367 0.995718
vt 0.580250 0.994620
vt 0.580771 0.991986
vt 0.580733 0.988824
vt 0.580149 0.986340
vt 0.579244 0.985483
vt 0.578361 0.986582
vt 0.577840 0.989215
vt 0.577878 0.992378
vt 0.578462 0.994862
vt 0.742320 0.975555
vt 0.742361 0.958221
vt 0.743688 0.975578
vt 0.743730 0.958244
vt 0.744534 0.975593
vt 0.744575 0.958259
vt 0.744534 0.975593
vt 0.744575 0.958259
vt 0.743688 0.975578
vt 0.743730 0.958244
vt 0.742320 0.975555
vt 0.742361 0.958221
vt 0.740951 0.975532
vt 0.740993 0.958198
vt 0.740106 0.975518
vt 0.740147 0.958183
vt 0.740106 0.975518
vt 0.740147 0.958183
vt 0.740951 0.975532
vt 0.740993 0.958198
vt 0.742453 0.958703
vt 0.742268 0.949223
vt 0.744165 0.958755
vt 0.744168 0.949267
vt 0.745222 0.958787
vt 0.745342 0.949294
vt 0.745222 0.958787
vt 0.745342 0.949294
vt 0.744165 0.958755
vt 0.744168 0.949267
vt 0.742268 0.949223
vt 0.740741 0.958651
vt 0.740368 0.949180
vt 0.739683 0.958618
vt 0.739193 0.949153
vt 0.739683 0.958618
vt 0.739193 0.949153
vt 0.740741 0.958651
vt 0.740368 0.949180
vt 0.745008 0.936076
vt 0.742315 0.936014
vt 0.746673 0.936114
vt 0.746673 0.936114
vt 0.745008 0.936076
vt 0.742315 0.936014
vt 0.739622 0.935952
vt 0.737957 0.935914
vt 0.737957 0.935914
vt 0.739622 0.935952
vt 0.742311 0.981475
vt 0.743207 0.981490
vt 0.743760 0.981499
vt 0.743760 0.981499
vt 0.743207 0.981490
vt 0.742311 0.981475
vt 0.741415 0.981460
vt 0.740861 0.981450
vt 0.740861 0.981450
vt 0.741415 0.981460
vt 0.742300 0.988830
vt 0.743196 0.988845
vt 0.743749 0.988855
vt 0.743749 0.988855
vt 0.743196 0.988845
vt 0.742300 0.988830
vt 0.741404 0.988815
vt 0.740850 0.988806
vt 0.740850 0.988806
vt 0.741404 0.988815
vt 0.742694 0.996404
vt 0.743581 0.995688
vt 0.744112 0.993863
vt 0.744084 0.991627
vt 0.743510 0.989833
vt 0.742606 0.989167
vt 0.741719 0.989883
vt 0.741188 0.991708
vt 0.741215 0.993944
vt 0.741790 0.995739
vt 0.742685 1.000000
vt 0.743567 0.998902
vt 0.744088 0.996268
vt 0.744050 0.993106
vt 0.743467 0.990622
vt 0.742561 0.989765
vt 0.741679 0.990864
vt 0.741157 0.993497
vt 0.741195 0.996660
vt 0.741779 0.999143
vt 0.421692 0.055769
vt 0.421692 0.100958
vt 0.976323 0.241159
vt 0.329705 0.055763
vt 0.329705 0.100952
vt 0.893922 0.241153
vt 0.421692 0.095970
vt 0.421692 0.054130
vt 0.329705 0.095968
vt 0.329705 0.054127
vt 0.329705 0.000065
vt 0.318749 0.000065
vt 0.421692 0.000065
vt 0.421692 0.045371
vt 0.329705 0.045368
vt 0.318749 0.045437
vt 0.421692 0.054130
vt 0.421692 0.096323
vt 0.421692 0.100958
vt 0.329705 0.054127
vt 0.329705 0.096317
vt 0.329705 0.100952
vt 0.459686 0.000065
vt 0.329705 0.000065
vt 0.329705 0.045437
s 1
usemtl shop_front6
f 6/10/1 2/2/2 32/55/2 41/65/3 40/64/4 38/62/3 35/59/4 31/53/1
f 15/25/5 16/28/6 26/44/7 25/42/8
f 753/800/2 754/802/9 755/803/10 756/804/11
f 5/8/1 11/16/1 43/67/1 49/77/3 47/75/4 44/70/1
f 3/4/12 13/20/13 20/32/2 19/31/2
f 13/19/13 34/57/2 32/54/2 2/3/2 10/14/2 20/33/2
f 33/56/1 36/60/14 37/61/15 39/63/14 42/66/15 34/58/2 13/20/13 15/25/5
f 8/12/9 21/35/1 22/37/16 7/11/9
f 10/15/2 4/7/9 18/30/9 19/31/2 20/34/2
f 5/9/1 44/69/1 46/73/1 14/23/17 22/38/16 21/36/1
f 23/39/2 24/40/1 25/42/8 26/44/7
f 16/27/6 9/13/18 23/39/2 26/44/7
f 6/10/1 31/53/1 33/56/1 15/25/5 25/43/8 24/41/1
f 30/51/19 27/45/20 28/47/21 29/50/22
f 15/26/5 13/21/13 27/46/20 30/52/19 12/18/23 14/24/17 17/29/24 16/28/6
f 31/53/1 35/59/4 36/60/14 33/56/1
f 13/22/13 3/5/12 28/48/21 27/46/20
f 53/83/11 52/81/25 51/79/26 54/85/27
f 3/6/12 1/1/28 29/50/22 28/49/21
f 37/61/15 38/62/3 40/64/4 39/63/14
f 39/63/14 40/64/4 56/88/25 57/89/11
f 35/59/4 38/62/3 51/80/26 52/82/25
f 42/66/15 41/65/3 32/55/2 34/58/2
f 44/70/1 47/75/4 48/76/14 46/74/1
f 46/74/1 48/76/14 50/78/15 45/71/1 17/29/24 14/24/17
f 41/65/3 42/66/15 58/90/27 55/87/26
f 50/78/15 49/77/3 43/67/1 45/71/1
f 57/89/11 56/88/25 55/87/26 58/90/27
f 60/93/29 59/91/25 61/95/30 62/97/31
f 50/78/15 48/76/14 60/94/29 62/98/31
f 38/62/3 37/61/15 54/86/27 51/80/26
f 36/60/14 35/59/4 52/82/25 53/84/11
f 42/66/15 39/63/14 57/89/11 58/90/27
f 49/77/3 50/78/15 62/98/31 61/96/30
f 37/61/15 36/60/14 53/84/11 54/86/27
f 48/76/14 47/75/4 59/92/25 60/94/29
f 40/64/4 41/65/3 55/87/26 56/88/25
f 47/75/4 49/77/3 61/96/30 59/92/25
f 16/28/6 17/29/24 65/104/32 63/99/33
f 17/29/24 45/71/1 64/101/1 65/104/32
f 67/108/2 68/109/9 70/111/9 69/110/2
f 73/114/34 71/112/35 76/117/35 75/116/34
f 78/119/1 76/117/35 71/112/35 77/118/1
f 74/115/1 70/111/9 68/109/9 72/113/1
f 79/120/36 81/122/37 82/123/38 80/121/39
f 81/122/37 83/124/40 84/125/41 82/123/38
f 83/124/40 85/126/42 86/127/43 84/125/41
f 85/126/42 87/128/44 88/129/45 86/127/43
f 87/128/44 89/130/46 90/131/47 88/129/45
f 89/130/46 91/132/48 92/133/49 90/131/47
f 91/132/48 93/134/50 94/135/51 92/133/49
f 93/134/50 95/136/52 96/137/53 94/135/51
f 95/136/52 97/138/54 98/139/55 96/137/53
f 97/138/54 99/140/56 100/141/57 98/139/55
f 99/140/56 101/142/58 102/143/59 100/141/57
f 86/127/43 106/147/60 105/146/61 84/125/41
f 102/143/59 114/155/62 113/154/63 100/141/57
f 84/125/41 105/146/61 104/145/64 82/123/38
f 100/141/57 113/154/63 112/153/65 98/139/55
f 82/123/38 104/145/64 103/144/66 80/121/39
f 98/139/55 112/153/65 111/152/67 96/137/53
f 96/137/53 111/152/67 110/151/68 94/135/51
f 94/135/51 110/151/68 109/150/69 92/133/49
f 92/133/49 109/150/69 108/149/70 90/131/47
f 90/131/47 108/149/70 107/148/71 88/129/45
f 88/129/45 107/148/71 106/147/60 86/127/43
f 105/146/61 117/158/72 116/157/73 104/145/64
f 112/153/65 124/165/74 123/164/75 111/152/67
f 109/150/69 121/162/76 120/161/77 108/149/70
f 106/147/60 118/159/78 117/158/72 105/146/61
f 113/154/63 125/166/79 124/165/74 112/153/65
f 110/151/68 122/163/80 121/162/76 109/150/69
f 107/148/71 119/160/81 118/159/78 106/147/60
f 114/155/62 126/167/82 125/166/79 113/154/63
f 104/145/64 116/157/73 115/156/83 103/144/66
f 111/152/67 123/164/75 122/163/80 110/151/68
f 108/149/70 120/161/77 119/160/81 107/148/71
f 127/168/9 128/169/9 130/171/84 129/170/84
f 129/170/84 130/171/84 132/173/85 131/172/85
f 131/172/85 132/173/85 134/175/86 133/174/86
f 133/174/86 134/175/86 136/177/54 135/176/54
f 137/178/40 138/179/40 140/181/87 139/180/87
f 139/180/87 140/181/87 142/183/88 141/182/88
f 141/182/88 142/183/88 144/185/89 143/184/89
f 143/184/89 144/185/89 128/169/9 127/168/9
f 162/203/90 160/201/91 176/217/92 178/219/93
f 151/192/94 212/253/95 216/257/96 153/194/97
f 175/216/98 177/218/99 182/223/100 181/222/101
f 180/221/102 178/219/93 198/239/103 196/237/104
f 154/195/105 217/258/106 214/255/107 152/193/108
f 176/217/92 174/215/109 184/225/110 183/224/111
f 163/204/112 147/188/113 146/187/114 179/220/115
f 155/196/116 219/260/117 149/190/118 168/209/119
f 159/200/120 161/202/121 177/218/99 175/216/98
f 216/257/96 212/253/95 145/186/122 149/190/118 219/260/117 211/252/123
f 198/239/103 183/224/111 201/242/124 226/267/125
f 157/198/126 159/200/120 175/216/98 173/214/127
f 183/224/111 184/225/110 202/243/128 201/242/124
f 171/212/129 150/191/130 165/206/131 185/226/132
f 170/211/133 151/192/94 153/194/97 220/261/134
f 189/230/135 155/196/116 168/209/119 186/227/136
f 161/202/121 163/204/112 179/220/115 177/218/99
f 172/213/137 167/208/138 151/192/94 170/211/133
f 164/205/139 162/203/90 178/219/93 180/221/102
f 160/201/91 158/199/140 174/215/109 176/217/92
f 157/198/126 158/199/140 160/201/91 159/200/120
f 192/233/141 154/195/105 152/193/108 169/210/142
f 159/200/120 160/201/91 162/203/90 161/202/121
f 148/189/143 164/205/139 180/221/102 166/207/144
f 161/202/121 162/203/90 164/205/139 163/204/112
f 163/204/112 164/205/139 148/189/143 147/188/113
f 194/235/145 218/259/146 215/256/147 193/234/148
f 203/244/149 194/235/145 193/234/148 195/236/150
f 166/207/144 180/221/102 196/237/104 190/231/151
f 215/256/147 192/233/141 169/210/142 193/234/148
f 177/218/99 179/220/115 197/238/152 182/223/100
f 173/214/127 175/216/98 181/222/101 187/228/153
f 206/247/154 203/244/149 195/236/150 204/245/155
f 213/254/156 206/247/154 204/245/155 158/199/140
f 204/245/155 185/226/132 188/229/157 158/199/140
f 179/220/115 146/187/114 191/232/158 197/238/152
f 178/219/93 176/217/92 183/224/111 198/239/103
f 168/209/119 149/190/118 145/186/122 167/208/138
f 193/234/148 169/210/142 171/212/129 195/236/150
f 203/244/149 172/213/137 170/211/133 194/235/145
f 210/251/159 225/266/18 205/246/160 199/240/161 200/241/162 224/265/163
f 165/206/131 223/264/164 221/262/165 156/197/166
f 213/254/156 189/230/135 186/227/136 206/247/154
f 187/228/153 181/222/101 199/240/161 205/246/160
f 167/208/138 145/186/122 212/253/95 151/192/94
f 150/191/130 209/250/167 223/264/164 165/206/131
f 206/247/154 186/227/136 172/213/137 203/244/149
f 190/231/151 196/237/104 222/263/168 208/249/169
f 194/235/145 170/211/133 220/261/134 218/259/146
f 185/226/132 165/206/131 156/197/166 188/229/157
f 169/210/142 152/193/108 150/191/130 171/212/129
f 197/238/152 191/232/158 210/251/159 224/265/163
f 207/248/18 221/262/165 223/264/164 209/250/167 214/255/107 217/258/106
f 196/237/104 198/239/103 226/267/125 222/263/168
f 227/268/123 208/249/169 222/263/168 226/267/125 201/242/124 202/243/128
f 182/223/100 197/238/152 224/265/163 200/241/162
f 152/193/108 214/255/107 209/250/167 150/191/130
f 181/222/101 182/223/100 200/241/162 199/240/161
f 186/227/136 168/209/119 167/208/138 172/213/137
f 195/236/150 171/212/129 185/226/132 204/245/155
f 245/286/170 243/284/171 259/300/172 261/302/173
f 234/275/174 295/336/175 299/340/176 236/277/177
f 258/299/178 260/301/179 265/306/180 264/305/181
f 263/304/182 261/302/173 281/322/183 279/320/184
f 237/278/185 300/341/186 297/338/187 235/276/188
f 259/300/172 257/298/189 267/308/190 266/307/191
f 246/287/192 230/271/193 229/270/194 262/303/195
f 238/279/196 302/343/197 232/273/198 251/292/199
f 242/283/200 244/285/201 260/301/179 258/299/178
f 299/340/176 295/336/175 228/269/202 232/273/198 302/343/197 294/335/123
f 281/322/183 266/307/191 284/325/203 309/350/204
f 240/281/205 242/283/200 258/299/178 256/297/206
f 266/307/191 267/308/190 285/326/207 284/325/203
f 254/295/208 233/274/209 248/289/210 268/309/211
f 253/294/212 234/275/174 236/277/177 303/344/213
f 272/313/214 238/279/196 251/292/199 269/310/215
f 244/285/201 246/287/192 262/303/195 260/301/179
f 255/296/216 250/291/217 234/275/174 253/294/212
f 247/288/218 245/286/170 261/302/173 263/304/182
f 243/284/171 241/282/219 257/298/189 259/300/172
f 240/281/205 241/282/219 243/284/171 242/283/200
f 275/316/220 237/278/185 235/276/188 252/293/221
f 242/283/200 243/284/171 245/286/170 244/285/201
f 231/272/222 247/288/218 263/304/182 249/290/223
f 244/285/201 245/286/170 247/288/218 246/287/192
f 246/287/192 247/288/218 231/272/222 230/271/193
f 277/318/224 301/342/225 298/339/226 276/317/227
f 286/327/228 277/318/224 276/317/227 278/319/229
f 249/290/223 263/304/182 279/320/184 273/314/230
f 298/339/226 275/316/220 252/293/221 276/317/227
f 260/301/179 262/303/195 280/321/231 265/306/180
f 256/297/206 258/299/178 264/305/181 270/311/232
f 289/330/233 286/327/228 278/319/229 287/328/234
f 296/337/235 289/330/233 287/328/234 241/282/219
f 287/328/234 268/309/211 271/312/236 241/282/219
f 262/303/195 229/270/194 274/315/237 280/321/231
f 261/302/173 259/300/172 266/307/191 281/322/183
f 251/292/199 232/273/198 228/269/202 250/291/217
f 276/317/227 252/293/221 254/295/208 278/319/229
f 286/327/228 255/296/216 253/294/212 277/318/224
f 293/334/238 308/349/18 288/329/239 282/323/240 283/324/241 307/348/242
f 248/289/210 306/347/243 304/345/244 239/280/245
f 296/337/235 272/313/214 269/310/215 289/330/233
f 270/311/232 264/305/181 282/323/240 288/329/239
f 250/291/217 228/269/202 295/336/175 234/275/174
f 233/274/209 292/333/246 306/347/243 248/289/210
f 289/330/233 269/310/215 255/296/216 286/327/228
f 273/314/230 279/320/184 305/346/247 291/332/248
f 277/318/224 253/294/212 303/344/213 301/342/225
f 268/309/211 248/289/210 239/280/245 271/312/236
f 252/293/221 235/276/188 233/274/209 254/295/208
f 280/321/231 274/315/237 293/334/238 307/348/242
f 290/331/249 304/345/244 306/347/243 292/333/246 297/338/187 300/341/186
f 279/320/184 281/322/183 309/350/204 305/346/247
f 310/351/250 291/332/248 305/346/247 309/350/204 284/325/203 285/326/207
f 265/306/180 280/321/231 307/348/242 283/324/241
f 235/276/188 297/338/187 292/333/246 233/274/209
f 264/305/181 265/306/180 283/324/241 282/323/240
f 269/310/215 251/292/199 250/291/217 255/296/216
f 278/319/229 254/295/208 268/309/211 287/328/234
f 328/369/251 326/367/252 342/383/253 344/385/254
f 317/358/255 378/419/256 382/423/257 319/360/258
f 341/382/259 343/384/260 348/389/261 347/388/262
f 346/387/263 344/385/254 364/405/264 362/403/265
f 320/361/266 383/424/267 380/421/268 318/359/269
f 342/383/253 340/381/270 350/391/271 349/390/272
f 329/370/273 313/354/274 312/353/275 345/386/276
f 321/362/277 385/426/278 315/356/279 334/375/280
f 325/366/281 327/368/282 343/384/260 341/382/259
f 382/423/257 378/419/256 311/352/283 315/356/279 385/426/278 377/418/123
f 364/405/264 349/390/272 367/408/284 392/433/285
f 323/364/286 325/366/281 341/382/259 339/380/287
f 349/390/272 350/391/271 368/409/288 367/408/284
f 337/378/289 316/357/290 331/372/291 351/392/292
f 336/377/293 317/358/255 319/360/258 386/427/294
f 355/396/295 321/362/277 334/375/280 352/393/296
f 327/368/282 329/370/273 345/386/276 343/384/260
f 338/379/297 333/374/298 317/358/255 336/377/293
f 330/371/299 328/369/251 344/385/254 346/387/263
f 326/367/252 324/365/300 340/381/270 342/383/253
f 323/364/286 324/365/300 326/367/252 325/366/281
f 358/399/301 320/361/266 318/359/269 335/376/302
f 325/366/281 326/367/252 328/369/251 327/368/282
f 314/355/303 330/371/299 346/387/263 332/373/304
f 327/368/282 328/369/251 330/371/299 329/370/273
f 329/370/273 330/371/299 314/355/303 313/354/274
f 360/401/305 384/425/306 381/422/307 359/400/308
f 369/410/309 360/401/305 359/400/308 361/402/310
f 332/373/304 346/387/263 362/403/265 356/397/311
f 381/422/307 358/399/301 335/376/302 359/400/308
f 343/384/260 345/386/276 363/404/312 348/389/261
f 339/380/287 341/382/259 347/388/262 353/394/313
f 372/413/314 369/410/309 361/402/310 370/411/315
f 379/420/316 372/413/314 370/411/315 324/365/300
f 370/411/315 351/392/292 354/395/317 324/365/300
f 345/386/276 312/353/275 357/398/318 363/404/312
f 344/385/254 342/383/253 349/390/272 364/405/264
f 334/375/280 315/356/279 311/352/283 333/374/298
f 359/400/308 335/376/302 337/378/289 361/402/310
f 369/410/309 338/379/297 336/377/293 360/401/305
f 376/417/319 391/432/18 371/412/320 365/406/321 366/407/322 390/431/323
f 331/372/291 389/430/324 387/428/325 322/363/326
f 379/420/316 355/396/295 352/393/296 372/413/314
f 353/394/313 347/388/262 365/406/321 371/412/320
f 333/374/298 311/352/283 378/419/256 317/358/255
f 316/357/290 375/416/327 389/430/324 331/372/291
f 372/413/314 352/393/296 338/379/297 369/410/309
f 356/397/311 362/403/265 388/429/328 374/415/329
f 360/401/305 336/377/293 386/427/294 384/425/306
f 351/392/292 331/372/291 322/363/326 354/395/317
f 335/376/302 318/359/269 316/357/290 337/378/289
f 363/404/312 357/398/318 376/417/319 390/431/323
f 373/414/330 387/428/325 389/430/324 375/416/327 380/421/268 383/424/267
f 362/403/265 364/405/264 392/433/285 388/429/328
f 393/434/331 374/415/329 388/429/328 392/433/285 367/408/284 368/409/288
f 348/389/261 363/404/312 390/431/323 366/407/322
f 318/359/269 380/421/268 375/416/327 316/357/290
f 347/388/262 348/389/261 366/407/322 365/406/321
f 352/393/296 334/375/280 333/374/298 338/379/297
f 361/402/310 337/378/289 351/392/292 370/411/315
f 394/435/332 395/436/333 397/438/334 396/437/335
f 396/437/335 397/438/334 399/440/336 398/439/337
f 398/439/337 399/440/336 401/442/338 400/441/339
f 400/441/339 401/442/338 403/444/340 402/443/341
f 402/443/341 403/444/340 405/446/342 404/445/343
f 404/445/343 405/446/342 407/448/344 406/447/345
f 406/447/345 407/448/344 409/450/346 408/449/347
f 408/449/347 409/450/346 411/452/348 410/451/349
f 397/438/334 395/436/333 413/454/350 411/452/348 409/450/346 407/448/344 405/446/342 403/444/340 401/442/338 399/440/336
f 410/451/349 411/452/348 413/454/350 412/453/351
f 412/453/351 413/454/350 395/436/333 394/435/332
f 400/441/339 402/443/341 448/489/352 447/488/353
f 414/455/354 415/456/355 417/458/356 416/457/357
f 416/457/357 417/458/356 419/460/358 418/459/359
f 418/459/359 419/460/358 421/462/360 420/461/361
f 420/461/361 421/462/360 423/464/362 422/463/363
f 422/463/363 423/464/362 425/466/364 405/446/342
f 405/446/342 425/466/364 427/468/365 426/467/366
f 426/467/366 427/468/365 429/470/367 428/469/368
f 428/469/368 429/470/367 431/472/369 430/471/370
f 425/466/364 423/464/362 438/479/371 439/480/372
f 430/471/370 431/472/369 433/474/373 432/473/374
f 432/473/374 433/474/373 415/456/355 414/455/354
f 414/455/354 416/457/357 418/459/359 420/461/361 422/463/363 405/446/342 426/467/366 428/469/368 430/471/370 432/473/374
f 434/475/375 435/476/376 443/484/377 442/483/378 441/482/379 440/481/380 439/480/372 438/479/371 437/478/381 436/477/382
f 423/464/362 421/462/360 437/478/381 438/479/371
f 417/458/356 415/456/355 435/476/376 434/475/375
f 421/462/360 419/460/358 436/477/382 437/478/381
f 419/460/358 417/458/356 434/475/375 436/477/382
f 415/456/355 433/474/373 443/484/377 435/476/376
f 433/474/373 431/472/369 442/483/378 443/484/377
f 431/472/369 429/470/367 441/482/379 442/483/378
f 429/470/367 427/468/365 440/481/380 441/482/379
f 427/468/365 425/466/364 439/480/372 440/481/380
f 449/490/383 450/491/384 460/501/385 459/500/386
f 394/435/332 396/437/335 445/486/387 444/485/388
f 398/439/337 400/441/339 447/488/353 446/487/389
f 396/437/335 398/439/337 446/487/389 445/486/387
f 412/453/351 394/435/332 444/485/388 453/494/390
f 410/451/349 412/453/351 453/494/390 452/493/391
f 408/449/347 410/451/349 452/493/391 451/492/392
f 406/447/345 408/449/347 451/492/392 450/491/384
f 404/445/343 406/447/345 450/491/384 449/490/383
f 402/443/341 404/445/343 449/490/383 448/489/352
f 456/497/393 457/498/394 467/508/395 466/507/396
f 446/487/389 447/488/353 457/498/394 456/497/393
f 453/494/390 444/485/388 454/495/397 463/504/398
f 450/491/384 451/492/392 461/502/399 460/501/385
f 447/488/353 448/489/352 458/499/400 457/498/394
f 444/485/388 445/486/387 455/496/401 454/495/397
f 451/492/392 452/493/391 462/503/402 461/502/399
f 448/489/352 449/490/383 459/500/386 458/499/400
f 445/486/387 446/487/389 456/497/393 455/496/401
f 452/493/391 453/494/390 463/504/398 462/503/402
f 473/514/403 464/505/404 474/515/405 483/524/406
f 463/504/398 454/495/397 464/505/404 473/514/403
f 460/501/385 461/502/399 471/512/407 470/511/408
f 457/498/394 458/499/400 468/509/409 467/508/395
f 454/495/397 455/496/401 465/506/410 464/505/404
f 461/502/399 462/503/402 472/513/411 471/512/407
f 458/499/400 459/500/386 469/510/412 468/509/409
f 455/496/401 456/497/393 466/507/396 465/506/410
f 462/503/402 463/504/398 473/514/403 472/513/411
f 459/500/386 460/501/385 470/511/408 469/510/412
f 424/465/413 484/525/414 486/527/415 485/526/416
f 470/511/408 471/512/407 481/522/417 480/521/418
f 467/508/395 468/509/409 478/519/419 477/518/420
f 464/505/404 465/506/410 475/516/421 474/515/405
f 471/512/407 472/513/411 482/523/422 481/522/417
f 468/509/409 469/510/412 479/520/423 478/519/419
f 465/506/410 466/507/396 476/517/424 475/516/421
f 472/513/411 473/514/403 483/524/406 482/523/422
f 469/510/412 470/511/408 480/521/418 479/520/423
f 466/507/396 467/508/395 477/518/420 476/517/424
f 485/526/416 486/527/415 488/529/425 487/528/426
f 487/528/426 488/529/425 490/531/427 489/530/428
f 489/530/428 490/531/427 492/533/429 491/532/430
f 491/532/430 492/533/429 494/535/431 493/534/432
f 493/534/432 494/535/431 496/537/433 495/536/434
f 495/536/434 496/537/433 498/539/435 497/538/436
f 497/538/436 498/539/435 500/541/437 499/540/438
f 486/527/415 484/525/414 502/543/439 500/541/437 498/539/435 496/537/433 494/535/431 492/533/429 490/531/427 488/529/425
f 499/540/438 500/541/437 502/543/439 501/542/440
f 501/542/440 502/543/439 484/525/414 424/465/413
f 489/530/428 491/532/430 536/577/441 535/576/442
f 503/544/443 504/545/444 506/547/445 505/546/446
f 505/546/446 506/547/445 508/549/447 507/548/448
f 507/548/448 508/549/447 510/551/449 509/550/450
f 509/550/450 510/551/449 512/553/451 511/552/452
f 511/552/452 512/553/451 513/554/453 494/535/431
f 494/535/431 513/554/453 515/556/454 514/555/455
f 514/555/455 515/556/454 517/558/456 516/557/457
f 516/557/457 517/558/456 519/560/458 518/559/459
f 513/554/453 512/553/451 526/567/460 527/568/461
f 518/559/459 519/560/458 521/562/462 520/561/463
f 520/561/463 521/562/462 504/545/444 503/544/443
f 503/544/443 505/546/446 507/548/448 509/550/450 511/552/452 494/535/431 514/555/455 516/557/457 518/559/459 520/561/463
f 522/563/464 523/564/465 531/572/466 530/571/467 529/570/468 528/569/469 527/568/461 526/567/460 525/566/470 524/565/471
f 512/553/451 510/551/449 525/566/470 526/567/460
f 506/547/445 504/545/444 523/564/465 522/563/464
f 510/551/449 508/549/447 524/565/471 525/566/470
f 508/549/447 506/547/445 522/563/464 524/565/471
f 504/545/444 521/562/462 531/572/466 523/564/465
f 521/562/462 519/560/458 530/571/467 531/572/466
f 519/560/458 517/558/456 529/570/468 530/571/467
f 517/558/456 515/556/454 528/569/469 529/570/468
f 515/556/454 513/554/453 527/568/461 528/569/469
f 537/578/472 538/579/473 548/589/474 547/588/475
f 424/465/413 485/526/416 533/574/476 532/573/477
f 487/528/426 489/530/428 535/576/442 534/575/478
f 485/526/416 487/528/426 534/575/478 533/574/476
f 501/542/440 424/465/413 532/573/477 541/582/479
f 499/540/438 501/542/440 541/582/479 540/581/480
f 497/538/436 499/540/438 540/581/480 539/580/481
f 495/536/434 497/538/436 539/580/481 538/579/473
f 493/534/432 495/536/434 538/579/473 537/578/472
f 491/532/430 493/534/432 537/578/472 536/577/441
f 544/585/482 545/586/483 555/596/484 554/595/485
f 534/575/478 535/576/442 545/586/483 544/585/482
f 541/582/479 532/573/477 542/583/486 551/592/487
f 538/579/473 539/580/481 549/590/488 548/589/474
f 535/576/442 536/577/441 546/587/489 545/586/483
f 532/573/477 533/574/476 543/584/490 542/583/486
f 539/580/481 540/581/480 550/591/491 549/590/488
f 536/577/441 537/578/472 547/588/475 546/587/489
f 533/574/476 534/575/478 544/585/482 543/584/490
f 540/581/480 541/582/479 551/592/487 550/591/491
f 561/602/492 552/593/493 562/603/494 571/612/495
f 551/592/487 542/583/486 552/593/493 561/602/492
f 548/589/474 549/590/488 559/600/496 558/599/497
f 545/586/483 546/587/489 556/597/498 555/596/484
f 542/583/486 543/584/490 553/594/499 552/593/493
f 549/590/488 550/591/491 560/601/500 559/600/496
f 546/587/489 547/588/475 557/598/501 556/597/498
f 543/584/490 544/585/482 554/595/485 553/594/499
f 550/591/491 551/592/487 561/602/492 560/601/500
f 547/588/475 548/589/474 558/599/497 557/598/501
f 558/599/497 559/600/496 569/610/502 568/609/503
f 555/596/484 556/597/498 566/607/504 565/606/505
f 552/593/493 553/594/499 563/604/506 562/603/494
f 559/600/496 560/601/500 570/611/507 569/610/502
f 556/597/498 557/598/501 567/608/508 566/607/504
f 553/594/499 554/595/485 564/605/509 563/604/506
f 560/601/500 561/602/492 571/612/495 570/611/507
f 557/598/501 558/599/497 568/609/503 567/608/508
f 554/595/485 555/596/484 565/606/505 564/605/509
f 572/613/413 573/614/414 575/616/415 574/615/416
f 574/615/416 575/616/415 577/618/425 576/617/426
f 576/617/426 577/618/425 579/620/427 578/619/428
f 578/619/428 579/620/427 581/622/429 580/621/430
f 580/621/430 581/622/429 583/624/431 582/623/432
f 582/623/432 583/624/431 585/626/433 584/625/510
f 584/625/510 585/626/433 587/628/435 586/627/436
f 586/627/436 587/628/435 589/630/437 588/629/438
f 575/616/415 573/614/414 591/632/439 589/630/437 587/628/435 585/626/433 583/624/431 581/622/429 579/620/427 577/618/425
f 588/629/438 589/630/437 591/632/439 590/631/511
f 590/631/511 591/632/439 573/614/414 572/613/413
f 578/619/428 580/621/430 624/665/441 623/664/442
f 592/633/512 593/634/513 595/636/514 594/635/515
f 594/635/515 595/636/514 597/638/516 596/637/448
f 596/637/448 597/638/516 599/640/517 598/639/450
f 598/639/450 599/640/517 601/642/518 600/641/452
f 600/641/452 601/642/518 602/643/519 583/624/431
f 583/624/431 602/643/519 604/645/520 603/644/455
f 603/644/455 604/645/520 606/647/521 605/646/457
f 605/646/457 606/647/521 608/649/522 607/648/459
f 607/648/459 608/649/522 610/651/523 609/650/524
f 609/650/524 610/651/523 593/634/513 592/633/512
f 592/633/512 594/635/515 596/637/448 598/639/450 600/641/452 583/624/431 603/644/455 605/646/457 607/648/459 609/650/524
f 593/634/513 611/652/525 612/653/525 613/654/525 614/655/525 619/660/525 615/656/525 616/657/525 617/658/525 618/659/525
f 625/666/472 626/667/473 636/677/474 635/676/475
f 572/613/413 574/615/416 621/662/476 620/661/477
f 576/617/426 578/619/428 623/664/442 622/663/478
f 574/615/416 576/617/426 622/663/478 621/662/476
f 590/631/511 572/613/413 620/661/477 629/670/479
f 588/629/438 590/631/511 629/670/479 628/669/480
f 586/627/436 588/629/438 628/669/480 627/668/481
f 584/625/510 586/627/436 627/668/481 626/667/473
f 582/623/432 584/625/510 626/667/473 625/666/472
f 580/621/430 582/623/432 625/666/472 624/665/441
f 632/673/482 633/674/483 643/684/484 642/683/485
f 622/663/478 623/664/442 633/674/483 632/673/482
f 629/670/479 620/661/477 630/671/486 639/680/487
f 626/667/473 627/668/481 637/678/488 636/677/474
f 623/664/442 624/665/441 634/675/489 633/674/483
f 620/661/477 621/662/476 631/672/490 630/671/486
f 627/668/481 628/669/480 638/679/491 637/678/488
f 624/665/441 625/666/472 635/676/475 634/675/489
f 621/662/476 622/663/478 632/673/482 631/672/490
f 628/669/480 629/670/479 639/680/487 638/679/491
f 649/690/492 640/681/493 650/691/494 659/700/495
f 639/680/487 630/671/486 640/681/493 649/690/492
f 636/677/474 637/678/488 647/688/496 646/687/497
f 633/674/483 634/675/489 644/685/498 643/684/484
f 630/671/486 631/672/490 641/682/499 640/681/493
f 637/678/488 638/679/491 648/689/526 647/688/496
f 634/675/489 635/676/475 645/686/501 644/685/498
f 631/672/490 632/673/482 642/683/485 641/682/499
f 638/679/491 639/680/487 649/690/492 648/689/526
f 635/676/475 636/677/474 646/687/497 645/686/501
f 646/687/497 647/688/496 657/698/502 656/697/503
f 643/684/484 644/685/498 654/695/504 653/694/505
f 640/681/493 641/682/499 651/692/506 650/691/494
f 647/688/496 648/689/526 658/699/507 657/698/502
f 644/685/498 645/686/501 655/696/508 654/695/504
f 641/682/499 642/683/485 652/693/509 651/692/506
f 648/689/526 649/690/492 659/700/495 658/699/507
f 645/686/501 646/687/497 656/697/503 655/696/508
f 642/683/485 643/684/484 653/694/505 652/693/509
f 660/701/527 661/702/414 663/704/415 662/703/416
f 662/703/416 663/704/415 665/706/425 664/705/426
f 664/705/426 665/706/425 667/708/427 666/707/428
f 666/707/428 667/708/427 669/710/429 668/709/430
f 668/709/430 669/710/429 671/712/528 670/711/432
f 670/711/432 671/712/528 673/714/433 672/713/510
f 672/713/510 673/714/433 675/716/435 674/715/436
f 674/715/436 675/716/435 677/718/437 676/717/438
f 663/704/415 661/702/414 679/720/439 677/718/437 675/716/435 673/714/433 671/712/528 669/710/429 667/708/427 665/706/425
f 676/717/438 677/718/437 679/720/439 678/719/440
f 678/719/440 679/720/439 661/702/414 660/701/527
f 666/707/428 668/709/430 713/754/441 712/753/442
f 680/721/529 681/722/530 683/724/531 682/723/532
f 682/723/532 683/724/531 685/726/533 684/725/534
f 684/725/534 685/726/533 687/728/535 686/727/536
f 686/727/536 687/728/535 689/730/537 688/729/538
f 688/729/538 689/730/537 690/731/539 671/712/528
f 671/712/528 690/731/539 692/733/540 691/732/541
f 691/732/541 692/733/540 694/735/542 693/734/543
f 693/734/543 694/735/542 696/737/544 695/736/545
f 690/731/539 689/730/537 703/744/546 704/745/547
f 695/736/545 696/737/544 698/739/548 697/738/549
f 697/738/549 698/739/548 681/722/530 680/721/529
f 680/721/529 682/723/532 684/725/534 686/727/536 688/729/538 671/712/528 691/732/541 693/734/543 695/736/545 697/738/549
f 699/740/550 700/741/551 708/749/552 707/748/553 706/747/554 705/746/555 704/745/547 703/744/546 702/743/556 701/742/557
f 689/730/537 687/728/535 702/743/556 703/744/546
f 683/724/531 681/722/530 700/741/551 699/740/550
f 687/728/535 685/726/533 701/742/557 702/743/556
f 685/726/533 683/724/531 699/740/550 701/742/557
f 681/722/530 698/739/548 708/749/552 700/741/551
f 698/739/548 696/737/544 707/748/553 708/749/552
f 696/737/544 694/735/542 706/747/554 707/748/553
f 694/735/542 692/733/540 705/746/555 706/747/554
f 692/733/540 690/731/539 704/745/547 705/746/555
f 714/755/472 715/756/473 725/766/474 724/765/475
f 660/701/527 662/703/416 710/751/476 709/750/477
f 664/705/426 666/707/428 712/753/442 711/752/478
f 662/703/416 664/705/426 711/752/478 710/751/476
f 678/719/440 660/701/527 709/750/477 718/759/479
f 676/717/438 678/719/440 718/759/479 717/758/480
f 674/715/436 676/717/438 717/758/480 716/757/481
f 672/713/510 674/715/436 716/757/481 715/756/473
f 670/711/432 672/713/510 715/756/473 714/755/472
f 668/709/430 670/711/432 714/755/472 713/754/441
f 721/762/482 722/763/558 732/773/484 731/772/485
f 711/752/478 712/753/442 722/763/558 721/762/482
f 718/759/479 709/750/477 719/760/486 728/769/487
f 715/756/473 716/757/481 726/767/559 725/766/474
f 712/753/442 713/754/441 723/764/489 722/763/558
f 709/750/477 710/751/476 720/761/490 719/760/486
f 716/757/481 717/758/480 727/768/560 726/767/559
f 713/754/441 714/755/472 724/765/475 723/764/489
f 710/751/476 711/752/478 721/762/482 720/761/490
f 717/758/480 718/759/479 728/769/487 727/768/560
f 738/779/492 729/770/493 739/780/494 748/789/495
f 728/769/487 719/760/486 729/770/493 738/779/492
f 725/766/474 726/767/559 736/777/496 735/776/561
f 722/763/558 723/764/489 733/774/498 732/773/484
f 719/760/486 720/761/490 730/771/499 729/770/493
f 726/767/559 727/768/560 737/778/526 736/777/496
f 723/764/489 724/765/475 734/775/501 733/774/498
f 720/761/490 721/762/482 731/772/485 730/771/499
f 727/768/560 728/769/487 738/779/492 737/778/526
f 724/765/475 725/766/474 735/776/561 734/775/501
f 735/776/561 736/777/496 746/787/502 745/786/503
f 732/773/484 733/774/498 743/784/504 742/783/505
f 729/770/493 730/771/499 740/781/506 739/780/494
f 736/777/496 737/778/526 747/788/507 746/787/502
f 733/774/498 734/775/501 744/785/508 743/784/504
f 730/771/499 731/772/485 741/782/509 740/781/506
f 737/778/526 738/779/492 748/789/495 747/788/507
f 734/775/501 735/776/561 745/786/503 744/785/508
f 731/772/485 732/773/484 742/783/505 741/782/509
f 64/102/1 66/106/562 63/100/33
f 749/790/563 750/793/564 760/811/564 758/808/27
f 751/796/565 752/798/566 756/804/11 755/803/10
f 759/809/567 757/806/1 758/807/27 760/810/564
f 751/797/565 749/791/563 758/808/27 757/806/1
f 750/794/564 752/799/566 759/809/567 760/811/564
f 66/106/562 750/795/564 749/792/563
f 749/792/563 63/100/33 66/106/562
f 63/100/33 65/105/32 64/102/1
f 43/68/1 11/17/1 761/812/123 66/107/562 64/103/1 45/72/1
f 753/801/2 756/805/11 763/814/18 762/813/18
