# Blender 3.3.1
# www.blender.org
mtllib shop_front11.mtl
o shop_front11
v -2.499988 0.000995 -0.000000
v 2.499988 0.000995 -0.000000
v -2.499988 2.554708 0.039913
v 2.499988 2.554708 0.039913
v -2.499988 1.988403 0.000000
v 2.499988 1.988403 0.000000
v 2.499988 2.252102 0.009036
v -2.499988 2.252102 0.009036
v -2.199014 1.742993 -0.006059
v -2.199014 1.742993 0.201044
v -2.181973 2.533690 -0.003908
v -2.199014 2.554806 0.268110
v 2.197663 1.742993 -0.006059
v 2.197663 1.742993 0.201044
v 2.180631 2.533690 -0.003908
v 2.197663 2.554806 0.268110
v -2.199014 2.275939 -0.006059
v -2.199014 2.275939 0.201044
v 2.197663 2.275939 -0.006059
v 2.197663 2.275939 0.201044
v -2.256932 1.996218 -0.007913
v -2.256932 1.996218 0.009794
v -2.256932 2.497354 -0.007913
v -2.256932 2.497354 0.100172
v -2.198774 1.996218 -0.007913
v -2.198774 1.996218 0.009794
v -2.198774 2.497354 -0.007913
v -2.198774 2.497354 0.100172
v -2.256932 2.229767 0.056159
v -2.198774 2.229767 0.056159
v -2.256932 2.183553 0.077712
v -2.198774 2.183553 0.077712
v -2.256932 2.131202 0.055855
v -2.198774 2.131202 0.055855
v -2.198774 2.131202 0.055855
v -2.198774 2.056201 0.051890
v -2.198774 2.117594 0.061345
v -2.198774 2.101717 0.063771
v -2.198774 2.085124 0.062894
v -2.198774 2.069441 0.058800
v -2.256932 2.056201 0.051890
v -2.256932 2.069441 0.058800
v -2.256932 2.085125 0.062894
v -2.256932 2.101717 0.063771
v -2.256932 2.117594 0.061345
v -2.198774 2.397228 0.100172
v -2.256932 2.397228 0.100172
v -2.500354 1.996218 0.009794
v -2.500354 1.996218 -0.007913
v -2.198774 2.395988 0.096913
v -2.198774 2.230922 0.056035
v -2.198774 2.380073 0.086502
v -2.198774 2.362145 0.076422
v -2.198774 2.341281 0.067246
v -2.198774 2.317787 0.059941
v -2.198774 2.293561 0.055429
v -2.198774 2.270724 0.053782
v -2.198774 2.250021 0.054295
v -2.256932 2.230922 0.056035
v -2.256932 2.395988 0.096913
v -2.256932 2.250021 0.054295
v -2.256932 2.270724 0.053782
v -2.256932 2.293561 0.055429
v -2.256932 2.317787 0.059941
v -2.256932 2.341280 0.067246
v -2.256932 2.362145 0.076422
v -2.256932 2.380073 0.086502
v -2.500354 2.497354 -0.007913
v -2.500354 2.497354 0.100172
v -2.442196 1.996218 -0.007913
v -2.442196 1.996218 0.009794
v -2.442196 2.497354 -0.007913
v -2.442196 2.497354 0.100172
v -2.500354 2.229767 0.056159
v -2.442196 2.229767 0.056159
v -2.500354 2.183553 0.077712
v -2.442196 2.183553 0.077712
v -2.500354 2.131202 0.055855
v -2.442196 2.131202 0.055855
v -2.442196 2.131202 0.055855
v -2.442196 2.056201 0.051890
v -2.442196 2.117594 0.061345
v -2.442196 2.101717 0.063771
v -2.442196 2.085124 0.062894
v -2.442196 2.069441 0.058800
v -2.500354 2.056201 0.051890
v -2.500354 2.131202 0.055855
v -2.500354 2.069441 0.058800
v -2.500354 2.085125 0.062894
v -2.500354 2.101717 0.063771
v -2.500354 2.117594 0.061345
v -2.442196 2.397228 0.100172
v -2.500354 2.397228 0.100172
v -2.442196 2.395988 0.096913
v -2.442196 2.230922 0.056035
v -2.442196 2.380073 0.086502
v -2.442196 2.362145 0.076422
v -2.442196 2.341281 0.067246
v -2.442196 2.317787 0.059941
v -2.442196 2.293561 0.055429
v -2.442196 2.270724 0.053782
v -2.442196 2.250021 0.054295
v -2.500354 2.230922 0.056035
v -2.500354 2.395988 0.096913
v -2.500354 2.250021 0.054295
v -2.500354 2.270724 0.053782
v -2.500354 2.293561 0.055429
v -2.500354 2.317787 0.059941
v -2.500354 2.341280 0.067246
v -2.500354 2.362145 0.076422
v -2.500354 2.380073 0.086502
v 2.441653 1.996218 -0.007913
v 2.441653 1.996218 0.009794
v 2.441653 2.497354 -0.007913
v 2.441653 2.497354 0.100172
v 2.499810 1.996218 -0.007913
v 2.499810 1.996218 0.009794
v 2.499810 2.497354 -0.007913
v 2.499810 2.497354 0.100172
v 2.441653 2.229767 0.056159
v 2.499810 2.229767 0.056159
v 2.441653 2.183553 0.077712
v 2.499810 2.183553 0.077712
v 2.441653 2.131202 0.055855
v 2.499810 2.131202 0.055855
v 2.499810 2.131202 0.055855
v 2.499810 2.056201 0.051890
v 2.499810 2.117594 0.061345
v 2.499810 2.101717 0.063771
v 2.499810 2.085124 0.062894
v 2.499810 2.069441 0.058800
v 2.441653 2.056201 0.051890
v 2.441653 2.131202 0.055855
v 2.441653 2.069441 0.058800
v 2.441653 2.085125 0.062894
v 2.441653 2.101717 0.063771
v 2.441653 2.117594 0.061345
v 2.499810 2.397228 0.100172
v 2.441653 2.397228 0.100172
v 2.198231 1.996218 0.009794
v 2.198231 1.996218 -0.007913
v 2.499810 2.395988 0.096913
v 2.499810 2.230922 0.056035
v 2.499810 2.380073 0.086502
v 2.499810 2.362145 0.076422
v 2.499810 2.341281 0.067246
v 2.499810 2.317787 0.059941
v 2.499810 2.293561 0.055429
v 2.499810 2.270724 0.053782
v 2.499810 2.250021 0.054295
v 2.441653 2.230922 0.056035
v 2.441653 2.395988 0.096913
v 2.441653 2.250021 0.054295
v 2.441653 2.270724 0.053782
v 2.441653 2.293561 0.055429
v 2.441653 2.317787 0.059941
v 2.441653 2.341280 0.067246
v 2.441653 2.362145 0.076422
v 2.441653 2.380073 0.086502
v 2.198231 2.497354 -0.007913
v 2.198231 2.497354 0.100172
v 2.256389 1.996218 -0.007913
v 2.256389 1.996218 0.009794
v 2.256389 2.497354 -0.007913
v 2.256389 2.497354 0.100172
v 2.198231 2.229767 0.056159
v 2.256389 2.229767 0.056159
v 2.198231 2.183553 0.077712
v 2.256389 2.183553 0.077712
v 2.198231 2.131202 0.055855
v 2.256389 2.131202 0.055855
v 2.256389 2.131202 0.055855
v 2.256389 2.056201 0.051890
v 2.256389 2.117594 0.061345
v 2.256389 2.101717 0.063771
v 2.256389 2.085124 0.062894
v 2.256389 2.069441 0.058800
v 2.198231 2.056201 0.051890
v 2.198231 2.131202 0.055855
v 2.198231 2.069441 0.058800
v 2.198231 2.085125 0.062894
v 2.198231 2.101717 0.063771
v 2.198231 2.117594 0.061345
v 2.256389 2.397228 0.100172
v 2.198231 2.397228 0.100172
v 2.256389 2.395988 0.096913
v 2.256389 2.230922 0.056035
v 2.256389 2.380073 0.086502
v 2.256389 2.362145 0.076422
v 2.256389 2.341281 0.067246
v 2.256389 2.317787 0.059941
v 2.256389 2.293561 0.055429
v 2.256389 2.270724 0.053782
v 2.256389 2.250021 0.054295
v 2.198231 2.230922 0.056035
v 2.198231 2.395988 0.096913
v 2.198231 2.250021 0.054295
v 2.198231 2.270724 0.053782
v 2.198231 2.293561 0.055429
v 2.198231 2.317787 0.059941
v 2.198231 2.341280 0.067246
v 2.198231 2.362145 0.076422
v 2.198231 2.380073 0.086502
v -2.499988 1.742648 0.000000
v 2.499988 1.742648 0.000000
v 0.328711 1.742648 0.000000
v 0.328711 0.000995 -0.000000
v 2.115609 1.742648 0.000000
v 2.115609 0.000995 -0.000000
v 0.129905 1.742648 0.000000
v 0.129904 0.000995 -0.000000
v -0.952960 0.000995 -0.000000
v -0.952960 1.742648 0.000000
v 2.115609 1.742648 -0.049684
v 0.328711 1.742648 -0.049684
v 0.328711 0.000995 -0.049684
v 2.115609 0.000995 -0.049684
v -0.952960 0.000995 -0.049684
v 0.129904 0.000995 -0.049684
v 0.129905 1.742648 -0.049684
v -0.952960 1.742648 -0.049684
v -0.924001 0.145421 -0.049684
v 0.100945 0.145421 -0.049684
v 0.105139 1.701484 -0.049684
v -0.913569 1.701484 -0.049684
v 2.069905 1.692648 -0.049684
v 0.360780 1.692648 -0.049684
v 0.360780 0.143992 -0.049684
v 2.069905 0.143992 -0.049684
v -2.117579 1.742648 0.000000
v -2.117578 0.000995 -0.000000
v -1.387273 1.742648 0.000000
v -1.387274 0.000995 -0.000000
v -1.387273 1.742648 -0.429461
v -2.117579 1.742648 -0.429461
v -2.117578 0.178047 -0.429461
v -1.387274 0.178047 -0.429461
v -1.068270 0.214603 0.037649
v -1.068270 0.002159 0.037649
v -1.063279 0.214603 0.037183
v -1.063279 0.002159 0.037183
v -1.058480 0.214603 0.035803
v -1.058480 0.002159 0.035803
v -1.054058 0.214603 0.033562
v -1.054058 0.002159 0.033562
v -1.050182 0.214603 0.030546
v -1.050182 0.002159 0.030546
v -1.047000 0.214603 0.026871
v -1.047000 0.002159 0.026871
v -1.044636 0.214603 0.022678
v -1.044636 0.002159 0.022678
v -1.043180 0.214603 0.018129
v -1.043180 0.002159 0.018129
v -1.042689 0.214603 0.013397
v -1.042689 0.002159 0.013397
v -1.043180 0.214603 0.008666
v -1.043180 0.002159 0.008666
v -1.044636 0.214603 0.004117
v -1.044636 0.002159 0.004117
v -1.047000 0.214603 -0.000076
v -1.047000 0.002159 -0.000076
v -1.050182 0.214603 -0.003751
v -1.050182 0.002159 -0.003751
v -1.054058 0.214603 -0.006767
v -1.054058 0.002159 -0.006767
v -1.058480 0.214603 -0.009008
v -1.058480 0.002159 -0.009008
v -1.063279 0.214603 -0.010389
v -1.063279 0.002159 -0.010389
v -1.068270 0.214603 -0.010855
v -1.068270 0.002159 -0.010855
v -1.073261 0.214603 -0.010389
v -1.073261 0.002159 -0.010389
v -1.078059 0.214603 -0.009008
v -1.078059 0.002159 -0.009008
v -1.082482 0.214603 -0.006767
v -1.082482 0.002159 -0.006767
v -1.086359 0.214603 -0.003751
v -1.086359 0.002159 -0.003751
v -1.089540 0.214603 -0.000076
v -1.089540 0.002159 -0.000076
v -1.091904 0.214603 0.004117
v -1.091904 0.002159 0.004117
v -1.093360 0.214603 0.008666
v -1.093360 0.002159 0.008666
v -1.093851 0.214603 0.013397
v -1.093851 0.002159 0.013397
v -1.093360 0.214603 0.018129
v -1.093360 0.002159 0.018129
v -1.091904 0.214603 0.022678
v -1.091904 0.002159 0.022678
v -1.089540 0.214603 0.026871
v -1.089540 0.002159 0.026871
v -1.086359 0.214603 0.030546
v -1.086359 0.002159 0.030546
v -1.082482 0.214603 0.033562
v -1.082482 0.002159 0.033562
v -1.078059 0.214603 0.035803
v -1.078059 0.002159 0.035803
v -1.073261 0.214603 0.037183
v -1.073261 0.002159 0.037183
v -1.068270 0.233231 0.031275
v -1.064591 0.233231 0.030931
v -1.061054 0.233231 0.029914
v -1.057793 0.233231 0.028262
v -1.054936 0.233231 0.026039
v -1.052591 0.233231 0.023330
v -1.050848 0.233231 0.020239
v -1.049775 0.233231 0.016885
v -1.049413 0.233231 0.013397
v -1.049775 0.233231 0.009910
v -1.050848 0.233231 0.006556
v -1.052591 0.233231 0.003465
v -1.054936 0.233231 0.000756
v -1.057793 0.233231 -0.001467
v -1.061054 0.233231 -0.003119
v -1.064591 0.233231 -0.004137
v -1.068270 0.233231 -0.004480
v -1.071949 0.233231 -0.004137
v -1.075486 0.233231 -0.003119
v -1.078747 0.233231 -0.001467
v -1.081604 0.233231 0.000756
v -1.083949 0.233231 0.003465
v -1.085692 0.233231 0.006556
v -1.086765 0.233231 0.009910
v -1.087127 0.233231 0.013397
v -1.086765 0.233231 0.016885
v -1.085692 0.233231 0.020239
v -1.083949 0.233231 0.023330
v -1.081604 0.233231 0.026039
v -1.078747 0.233231 0.028262
v -1.075486 0.233231 0.029914
v -1.071949 0.233231 0.030931
v -1.068270 0.263712 0.011258
v -1.064591 0.263468 0.011133
v -1.061054 0.262745 0.010763
v -1.057793 0.261572 0.010163
v -1.054936 0.259992 0.009355
v -1.052591 0.258067 0.008371
v -1.050848 0.255871 0.007248
v -1.049775 0.253489 0.006029
v -1.049413 0.251011 0.004762
v -1.049775 0.248533 0.003494
v -1.050848 0.246150 0.002275
v -1.052591 0.243954 0.001152
v -1.054936 0.242029 0.000168
v -1.057793 0.240450 -0.000640
v -1.061054 0.239276 -0.001240
v -1.064591 0.238553 -0.001610
v -1.068270 0.238309 -0.001735
v -1.071949 0.238553 -0.001610
v -1.075486 0.239276 -0.001240
v -1.078747 0.240450 -0.000640
v -1.081604 0.242029 0.000168
v -1.083949 0.243954 0.001152
v -1.085692 0.246150 0.002275
v -1.086765 0.248533 0.003494
v -1.087127 0.251011 0.004762
v -1.086765 0.253489 0.006029
v -1.085692 0.255871 0.007248
v -1.083949 0.258067 0.008371
v -1.081604 0.259992 0.009355
v -1.078747 0.261572 0.010163
v -1.075486 0.262745 0.010763
v -1.071949 0.263468 0.011133
v -1.068270 0.269039 -0.016540
v -1.064591 0.268777 -0.016542
v -1.061054 0.268001 -0.016548
v -1.057793 0.266741 -0.016557
v -1.054936 0.265046 -0.016570
v -1.052591 0.262980 -0.016585
v -1.050848 0.260623 -0.016602
v -1.049775 0.258065 -0.016621
v -1.049413 0.255405 -0.016641
v -1.049775 0.252746 -0.016661
v -1.050848 0.250188 -0.016679
v -1.052591 0.247831 -0.016697
v -1.054936 0.245765 -0.016712
v -1.057793 0.244070 -0.016725
v -1.061054 0.242810 -0.016734
v -1.064591 0.242034 -0.016740
v -1.068270 0.241772 -0.016742
v -1.071949 0.242034 -0.016740
v -1.075486 0.242810 -0.016734
v -1.078747 0.244070 -0.016725
v -1.081604 0.245765 -0.016712
v -1.083949 0.247831 -0.016697
v -1.085692 0.250188 -0.016679
v -1.086765 0.252746 -0.016661
v -1.087127 0.255405 -0.016641
v -1.086765 0.258065 -0.016621
v -1.085692 0.260623 -0.016602
v -1.083949 0.262980 -0.016585
v -1.081604 0.265046 -0.016570
v -1.078747 0.266741 -0.016557
v -1.075486 0.268001 -0.016548
v -1.071949 0.268777 -0.016542
v -1.085461 1.855305 0.195839
v -0.028074 2.156717 0.409618
v -1.085461 2.202132 0.195839
v -0.005716 2.333404 0.187727
v 1.085460 1.855305 0.195839
v 1.085460 2.202132 0.195839
v -1.085461 1.855305 0.284541
v -1.085461 1.902639 0.333636
v -1.085461 1.858908 0.303329
v -1.085461 1.869168 0.319257
v -1.085461 1.884525 0.329899
v -1.085461 2.154798 0.333636
v -1.085461 2.202132 0.284541
v -1.085461 2.172912 0.329899
v -1.085461 2.188268 0.319257
v -1.085461 2.198529 0.303329
v 1.085460 1.902639 0.333636
v 1.085460 1.855305 0.284541
v 1.085460 1.884525 0.329899
v 1.085460 1.869168 0.319257
v 1.085460 1.858908 0.303329
v 1.085460 2.202132 0.284541
v 1.085460 2.154798 0.333636
v 1.085460 2.198529 0.303329
v 1.085460 2.188268 0.319257
v 1.085460 2.172912 0.329899
v 0.050682 2.327850 0.187727
v -0.049573 2.150195 0.409618
v 0.104913 2.311399 0.187727
v -0.069386 2.139605 0.409618
v 0.154893 2.284684 0.187727
v -0.086753 2.125353 0.409618
v 0.198700 2.248732 0.187727
v -0.101005 2.107986 0.409618
v 0.234652 2.204925 0.187727
v -0.111595 2.088173 0.409618
v 0.261367 2.154945 0.187727
v -0.118117 2.066674 0.409618
v 0.277817 2.100714 0.187727
v -0.120319 2.044316 0.409618
v 0.283372 2.044316 0.187727
v -0.118117 2.021958 0.409618
v 0.277817 1.987918 0.187727
v -0.111595 2.000459 0.409618
v 0.261367 1.933687 0.187727
v -0.101005 1.980646 0.409618
v 0.234652 1.883707 0.187727
v -0.086753 1.963280 0.409618
v 0.198700 1.839900 0.187727
v -0.069386 1.949027 0.409618
v 0.154893 1.803948 0.187727
v -0.049573 1.938437 0.409618
v 0.104913 1.777233 0.187727
v -0.028074 1.931915 0.409618
v 0.050682 1.760783 0.187727
v -0.005716 1.929713 0.409618
v -0.005716 1.755228 0.187727
v 0.016642 1.931915 0.409618
v -0.062115 1.760783 0.187727
v 0.038140 1.938437 0.409618
v -0.116345 1.777233 0.187727
v 0.057954 1.949027 0.409618
v -0.166325 1.803948 0.187727
v 0.075320 1.963280 0.409618
v -0.210132 1.839900 0.187727
v 0.089573 1.980646 0.409618
v -0.246084 1.883707 0.187727
v 0.100163 2.000459 0.409618
v -0.272799 1.933687 0.187727
v 0.106685 2.021958 0.409618
v -0.289250 1.987918 0.187727
v 0.108887 2.044316 0.409618
v -0.294804 2.044316 0.187727
v 0.106685 2.066674 0.409618
v -0.289250 2.100714 0.187727
v 0.100163 2.088173 0.409618
v -0.272799 2.154945 0.187727
v 0.089573 2.107986 0.409618
v -0.246084 2.204925 0.187727
v 0.075320 2.125352 0.409618
v -0.210132 2.248732 0.187727
v 0.057954 2.139605 0.409618
v -0.166325 2.284684 0.187727
v 0.038140 2.150195 0.409618
v -0.116345 2.311399 0.187727
v 0.016642 2.156717 0.409618
v -0.062115 2.327850 0.187727
v -0.005716 2.158919 0.409618
v -0.005716 2.283223 0.388142
v -0.005716 2.333404 0.338202
v 0.040893 2.278633 0.388142
v 0.050682 2.327850 0.338202
v 0.085710 2.265038 0.388142
v 0.104913 2.311399 0.338202
v 0.127013 2.242960 0.388142
v 0.154893 2.284684 0.338202
v 0.163217 2.213249 0.388142
v 0.198700 2.248732 0.338202
v 0.192928 2.177046 0.388142
v 0.234652 2.204925 0.338202
v 0.215005 2.135742 0.388142
v 0.261367 2.154945 0.338202
v 0.228600 2.090925 0.388142
v 0.277817 2.100714 0.338202
v 0.233191 2.044316 0.388142
v 0.283372 2.044316 0.338202
v 0.228600 1.997708 0.388142
v 0.277817 1.987918 0.338202
v 0.215005 1.952890 0.388142
v 0.261367 1.933687 0.338202
v 0.192928 1.911587 0.388142
v 0.234652 1.883707 0.338202
v 0.163217 1.875383 0.388142
v 0.198700 1.839900 0.338202
v 0.127014 1.845672 0.388142
v 0.154893 1.803948 0.338202
v 0.085710 1.823595 0.388142
v 0.104913 1.777233 0.338202
v 0.040892 1.809999 0.388142
v 0.050682 1.760783 0.338202
v -0.005716 1.805409 0.388142
v -0.005716 1.755228 0.338202
v -0.052325 1.809999 0.388142
v -0.062115 1.760783 0.338202
v -0.097142 1.823595 0.388142
v -0.116345 1.777233 0.338202
v -0.138446 1.845672 0.388142
v -0.166325 1.803948 0.338202
v -0.174649 1.875383 0.388142
v -0.210132 1.839900 0.338202
v -0.204360 1.911587 0.388142
v -0.246084 1.883707 0.338202
v -0.226438 1.952890 0.388142
v -0.272799 1.933687 0.338202
v -0.240033 1.997708 0.388142
v -0.289250 1.987918 0.338202
v -0.244623 2.044316 0.388142
v -0.294804 2.044316 0.338202
v -0.240033 2.090925 0.388142
v -0.289250 2.100714 0.338202
v -0.226438 2.135742 0.388142
v -0.272799 2.154945 0.338202
v -0.204360 2.177046 0.388142
v -0.246084 2.204925 0.338202
v -0.174649 2.213249 0.388142
v -0.210132 2.248732 0.338202
v -0.138446 2.242960 0.388142
v -0.166325 2.284684 0.338202
v -0.097142 2.265038 0.388142
v -0.116345 2.311399 0.338202
v -0.052325 2.278633 0.388142
v -0.062115 2.327850 0.338202
v -1.441594 1.458087 -0.429461
v -2.063257 1.458087 -0.429461
v -2.063257 0.308434 -0.429461
v -1.441594 0.308434 -0.429461
v -1.465465 1.712181 -0.429461
v -2.039387 1.712181 -0.429461
v -1.464857 1.488554 -0.429461
v -2.039995 1.488554 -0.429461
v -2.382287 1.756440 -0.003598
v -2.295624 1.756440 -0.003598
v -2.393250 1.967305 -0.003598
v -2.284661 1.967305 -0.003598
v -2.449490 1.867544 -0.003598
v -2.228421 1.867544 -0.003598
v -2.449490 1.867544 0.070849
v -2.382287 1.756440 0.070849
v -2.295624 1.756440 0.070849
v -2.228421 1.867544 0.070849
v -2.284661 1.967305 0.070849
v -2.393250 1.967305 0.070849
vn -0.0000 -0.0679 0.9977
vn -0.0000 -0.1015 0.9948
vn -0.0000 -0.0000 1.0000
vn 0.3015 -0.3015 0.9045
vn -0.3015 -0.3015 0.9045
vn -0.0000 -0.0171 0.9999
vn -0.9997 0.0182 -0.0185
vn -0.7424 -0.0663 0.6667
vn -0.5712 0.5377 0.6201
vn -0.6967 0.7130 -0.0793
vn 0.5712 0.5377 0.6201
vn 0.6967 0.7130 -0.0793
vn 0.9997 0.0182 -0.0185
vn 0.7424 -0.0663 0.6667
vn 0.5774 -0.5774 0.5774
vn 0.7071 -0.7071 -0.0000
vn -0.5774 -0.5774 0.5774
vn -0.7071 -0.7071 -0.0000
vn -0.7071 0.7071 -0.0000
vn -0.5774 0.5774 0.5774
vn 0.5774 0.5774 0.5774
vn 0.7071 0.7071 -0.0000
vn 0.4543 -0.1750 0.8735
vn -0.6308 -0.0047 0.7759
vn 0.4539 0.1698 0.8747
vn 0.6165 -0.6986 0.3632
vn -0.6165 -0.6986 0.3632
vn -0.5989 -0.4545 0.6593
vn 0.5989 -0.4545 0.6593
vn -0.6438 -0.5962 0.4797
vn 0.6438 -0.5962 0.4797
vn 0.6265 0.0159 0.7793
vn -0.6265 0.0159 0.7793
vn -0.5774 0.5773 0.5774
vn -0.6927 -0.3748 0.6162
vn 0.6927 -0.3748 0.6162
vn 0.6826 -0.2630 0.6818
vn -0.6826 -0.2630 0.6818
vn 0.6850 -0.1118 0.7199
vn -0.6850 -0.1118 0.7199
vn 0.6848 0.0360 0.7278
vn -0.6848 0.0360 0.7278
vn 0.6820 0.1933 0.7054
vn -0.6820 0.1933 0.7054
vn 0.6719 0.1986 0.7135
vn -0.6719 0.1986 0.7135
vn -0.7054 0.0698 0.7054
vn -0.6997 0.0413 0.7132
vn -0.6964 -0.0169 0.7175
vn -0.6947 -0.0919 0.7134
vn -0.6941 -0.1731 0.6987
vn -0.6946 -0.2520 0.6738
vn -0.6963 -0.3208 0.6421
vn -0.6996 -0.3709 0.6107
vn 0.6996 -0.3709 0.6107
vn 0.6963 -0.3208 0.6421
vn 0.6946 -0.2520 0.6738
vn 0.6941 -0.1731 0.6987
vn 0.6947 -0.0919 0.7134
vn 0.6964 -0.0169 0.7175
vn 0.6997 0.0413 0.7132
vn 0.7054 0.0698 0.7054
vn -0.4543 -0.1750 0.8735
vn -0.4539 0.1698 0.8747
vn 0.4118 0.5069 0.7573
vn 0.7071 -0.0000 0.7071
vn -0.7071 -0.0000 0.7071
vn 0.6007 0.4447 0.6643
vn -0.4118 0.5069 0.7573
vn -0.6007 0.4447 0.6643
vn -0.0000 0.1626 0.9867
vn 0.1855 -0.0000 0.9826
vn 0.1832 0.1628 0.9695
vn 0.3658 -0.0000 0.9307
vn 0.3612 0.1637 0.9180
vn 0.5355 -0.0000 0.8445
vn 0.5286 0.1649 0.8327
vn 0.6884 -0.0000 0.7254
vn 0.6791 0.1664 0.7149
vn 0.8177 -0.0000 0.5757
vn 0.8063 0.1679 0.5671
vn 0.9165 -0.0000 0.4000
vn 0.9034 0.1692 0.3939
vn 0.9787 -0.0000 0.2051
vn 0.9645 0.1701 0.2019
vn 1.0000 -0.0000 -0.0000
vn 0.9854 0.1704 -0.0000
vn 0.9787 -0.0000 -0.2051
vn 0.9645 0.1701 -0.2019
vn 0.9165 -0.0000 -0.4000
vn 0.9034 0.1692 -0.3939
vn 0.8177 -0.0000 -0.5757
vn 0.8063 0.1679 -0.5671
vn 0.6884 -0.0000 -0.7254
vn 0.6791 0.1664 -0.7149
vn 0.5355 -0.0000 -0.8445
vn 0.5286 0.1649 -0.8327
vn 0.3658 -0.0000 -0.9307
vn 0.3612 0.1637 -0.9180
vn 0.1855 -0.0000 -0.9826
vn 0.1832 0.1628 -0.9695
vn -0.0000 -0.0000 -1.0000
vn -0.0000 0.1626 -0.9867
vn -0.1855 -0.0000 -0.9826
vn -0.1832 0.1628 -0.9695
vn -0.3658 -0.0000 -0.9307
vn -0.3612 0.1637 -0.9180
vn -0.5355 -0.0000 -0.8445
vn -0.5286 0.1649 -0.8327
vn -0.6884 -0.0000 -0.7254
vn -0.6791 0.1664 -0.7149
vn -0.8177 -0.0000 -0.5757
vn -0.8063 0.1679 -0.5671
vn -0.9165 -0.0000 -0.4000
vn -0.9034 0.1692 -0.3939
vn -0.9787 -0.0000 -0.2051
vn -0.9645 0.1701 -0.2019
vn -1.0000 -0.0000 -0.0000
vn -0.9854 0.1704 -0.0000
vn -0.9787 -0.0000 0.2051
vn -0.9645 0.1701 0.2019
vn -0.9165 -0.0000 0.4000
vn -0.9034 0.1692 0.3939
vn -0.8177 -0.0000 0.5757
vn -0.8063 0.1679 0.5671
vn -0.6884 -0.0000 0.7254
vn -0.6791 0.1664 0.7149
vn -0.5355 -0.0000 0.8445
vn -0.5286 0.1649 0.8327
vn -0.3658 -0.0000 0.9307
vn -0.3612 0.1637 0.9180
vn 0.6849 0.0740 0.7248
vn -0.6849 0.0740 0.7248
vn -0.6849 -0.0740 0.7248
vn 0.6849 -0.0740 0.7248
vn -0.1855 -0.0000 0.9826
vn -0.1832 0.1628 0.9695
vn 0.9828 0.1841 0.0167
vn 0.9423 0.2445 0.2288
vn 0.8587 0.3009 0.4148
vn 0.9624 0.2163 0.1641
vn 0.8752 0.3928 0.2825
vn -0.1340 0.3660 -0.9209
vn -0.0000 0.3875 -0.9219
vn -0.8587 0.3009 0.4148
vn -0.9423 0.2445 0.2288
vn 0.6123 0.3827 0.6918
vn 0.4674 0.4078 0.7844
vn 0.4466 0.2214 -0.8669
vn 0.6191 0.1449 -0.7718
vn -0.8982 0.0995 -0.4281
vn -0.7767 0.1020 -0.6216
vn -0.1585 0.4336 0.8870
vn -0.3150 0.4243 0.8489
vn 0.9692 0.1311 -0.2086
vn -0.2812 0.3053 -0.9098
vn -0.7452 0.3474 0.5692
vn 0.7452 0.3474 0.5692
vn 0.2812 0.3053 -0.9098
vn -0.9692 0.1311 -0.2086
vn 0.1585 0.4336 0.8870
vn -0.0000 0.4366 0.8996
vn 0.8982 0.0995 -0.4281
vn -0.4466 0.2214 -0.8669
vn -0.6123 0.3827 0.6918
vn 0.1340 0.3660 -0.9209
vn -0.9828 0.1841 0.0167
vn 0.3150 0.4243 0.8489
vn 0.7766 0.1020 -0.6216
vn -0.6191 0.1449 -0.7718
vn -0.4674 0.4078 0.7844
vn 0.9795 -0.1596 -0.1227
vn 0.9090 -0.3144 -0.2735
vn 0.8748 -0.4738 -0.1010
vn 0.9685 -0.2437 -0.0511
vn -0.8020 -0.4240 -0.4207
vn -0.6721 -0.4809 -0.5631
vn 0.9993 0.0248 0.0263
vn -0.9090 -0.3144 -0.2735
vn -0.9795 -0.1596 -0.1227
vn -0.9993 0.0248 0.0263
vn 0.8020 -0.4240 -0.4207
vn -0.9624 0.2163 0.1641
vn 0.6721 -0.4809 -0.5631
vn -0.8752 0.3928 0.2825
vn 0.5258 -0.4866 -0.6977
vn -0.7523 0.5403 0.3771
vn 0.3641 -0.4558 -0.8122
vn 0.1519 0.8222 0.5486
vn -0.0000 0.8322 0.5545
vn -0.6094 0.6542 0.4479
vn 0.1873 -0.4184 -0.8887
vn 0.3047 0.7911 0.5304
vn -0.4580 0.7365 0.4978
vn -0.0000 -0.4026 -0.9154
vn 0.4580 0.7365 0.4978
vn -0.3047 0.7911 0.5304
vn -0.1873 -0.4184 -0.8887
vn 0.6094 0.6542 0.4479
vn -0.1519 0.8222 0.5486
vn -0.3641 -0.4558 -0.8122
vn 0.7523 0.5403 0.3771
vn -0.5258 -0.4866 -0.6977
vn 0.6864 0.7239 0.0688
vn 0.6667 0.6919 0.2771
vn 0.6657 0.5365 0.5187
vn 0.6648 0.2942 0.6867
vn 0.6648 -0.2942 0.6867
vn 0.6657 -0.5365 0.5187
vn 0.6667 -0.6919 0.2771
vn 0.6864 -0.7239 0.0688
vn -0.9999 0.0166 0.0032
vn -0.9685 -0.2437 -0.0511
vn 0.7419 -0.6552 -0.1423
vn -0.9602 0.2739 0.0551
vn 0.5923 -0.7867 -0.1740
vn -0.8619 0.4974 0.0989
vn 0.4396 -0.8763 -0.1970
vn -0.7285 0.6722 0.1322
vn 0.2899 -0.9332 -0.2126
vn 0.1410 0.9723 0.1866
vn -0.0000 0.9821 0.1883
vn -0.5808 0.7990 0.1557
vn 0.1438 -0.9645 -0.2216
vn 0.2842 0.9415 0.1812
vn -0.4310 0.8859 0.1714
vn -0.0000 -0.9745 -0.2245
vn 0.4310 0.8859 0.1714
vn -0.2842 0.9415 0.1812
vn -0.1438 -0.9645 -0.2216
vn 0.5808 0.7990 0.1557
vn -0.1410 0.9723 0.1866
vn -0.2898 -0.9332 -0.2126
vn 0.7285 0.6722 0.1322
vn -0.4396 -0.8763 -0.1970
vn 0.8618 0.4974 0.0989
vn -0.5923 -0.7867 -0.1740
vn 0.9602 0.2739 0.0551
vn -0.7419 -0.6552 -0.1423
vn 0.9999 0.0165 0.0032
vn -0.8748 -0.4738 -0.1010
vn -0.6864 -0.7239 0.0688
vn -0.6667 -0.6919 0.2771
vn -0.6657 -0.5365 0.5187
vn -0.6648 -0.2942 0.6867
vn -0.6648 0.2942 0.6867
vn -0.6657 0.5365 0.5187
vn -0.6667 0.6919 0.2771
vn -0.6864 0.7239 0.0688
vn -0.0000 -0.4737 0.8807
vn 0.0924 -0.4646 0.8807
vn 0.0177 -0.0890 0.9959
vn -0.0000 -0.0907 0.9959
vn 0.3827 0.9239 -0.0000
vn 0.3547 0.8562 0.3756
vn 0.5149 0.7706 0.3756
vn 0.5556 0.8315 -0.0000
vn 0.6553 0.6553 0.3756
vn 0.7706 0.5149 0.3756
vn 0.8315 0.5556 -0.0000
vn 0.8562 0.3547 0.3756
vn 0.9239 0.3827 -0.0000
vn 0.9090 0.1808 0.3756
vn 0.9808 0.1951 -0.0000
vn 0.9268 -0.0000 0.3756
vn 0.9090 -0.1808 0.3756
vn 0.9808 -0.1951 -0.0000
vn 0.8562 -0.3547 0.3756
vn 0.9239 -0.3827 -0.0000
vn 0.7706 -0.5149 0.3756
vn 0.8315 -0.5556 -0.0000
vn 0.6553 -0.6553 0.3756
vn 0.5149 -0.7706 0.3756
vn 0.5556 -0.8315 -0.0000
vn 0.3547 -0.8562 0.3756
vn 0.3827 -0.9239 -0.0000
vn 0.1808 -0.9090 0.3756
vn 0.1951 -0.9808 -0.0000
vn -0.0000 -0.9268 0.3756
vn -0.0000 -1.0000 -0.0000
vn -0.1808 -0.9090 0.3756
vn -0.1951 -0.9808 -0.0000
vn -0.3547 -0.8562 0.3756
vn -0.3827 -0.9239 -0.0000
vn -0.5149 -0.7706 0.3756
vn -0.5556 -0.8315 -0.0000
vn -0.6553 -0.6553 0.3756
vn -0.7706 -0.5149 0.3756
vn -0.8315 -0.5556 -0.0000
vn -0.8562 -0.3547 0.3756
vn -0.9239 -0.3827 -0.0000
vn -0.9090 -0.1808 0.3756
vn -0.9808 -0.1951 -0.0000
vn -0.9268 -0.0000 0.3756
vn -0.9090 0.1808 0.3756
vn -0.9808 0.1951 -0.0000
vn -0.8562 0.3547 0.3756
vn -0.9239 0.3827 -0.0000
vn -0.7706 0.5149 0.3756
vn -0.8315 0.5556 -0.0000
vn -0.6553 0.6553 0.3756
vn -0.5149 0.7706 0.3756
vn -0.5556 0.8315 -0.0000
vn -0.3547 0.8562 0.3756
vn -0.3827 0.9239 -0.0000
vn -0.1808 0.9090 0.3756
vn -0.1951 0.9808 -0.0000
vn 0.1951 0.9808 -0.0000
vn 0.1808 0.9090 0.3756
vn 0.0177 0.0890 0.9959
vn -0.0000 0.0907 0.9959
vn -0.0177 0.0890 0.9959
vn -0.0347 0.0838 0.9959
vn -0.0504 0.0754 0.9959
vn -0.0642 0.0642 0.9959
vn -0.0754 0.0504 0.9959
vn -0.0838 0.0347 0.9959
vn -0.0890 0.0177 0.9959
vn -0.0907 -0.0000 0.9959
vn -0.0890 -0.0177 0.9959
vn -0.0838 -0.0347 0.9959
vn -0.0754 -0.0504 0.9959
vn -0.0642 -0.0642 0.9959
vn -0.0504 -0.0754 0.9959
vn -0.0347 -0.0838 0.9959
vn -0.0177 -0.0890 0.9959
vn 0.0347 -0.0838 0.9959
vn 0.0504 -0.0754 0.9959
vn 0.0642 -0.0642 0.9959
vn 0.0754 -0.0504 0.9959
vn 0.0838 -0.0347 0.9959
vn 0.0890 -0.0177 0.9959
vn 0.0907 -0.0000 0.9959
vn 0.0890 0.0177 0.9959
vn 0.0838 0.0347 0.9959
vn 0.0754 0.0504 0.9959
vn 0.0642 0.0642 0.9959
vn 0.0504 0.0754 0.9959
vn 0.0347 0.0838 0.9959
vn -0.0000 1.0000 -0.0000
vn -0.0000 0.9268 0.3756
vn -0.0000 0.4737 0.8807
vn 0.0924 0.4646 0.8807
vn 0.1813 0.4377 0.8807
vn 0.2632 0.3939 0.8807
vn 0.3350 0.3350 0.8807
vn 0.3939 0.2632 0.8807
vn 0.4377 0.1813 0.8807
vn 0.4646 0.0924 0.8807
vn 0.4737 -0.0000 0.8807
vn 0.4646 -0.0924 0.8807
vn 0.4377 -0.1813 0.8807
vn 0.3939 -0.2632 0.8807
vn 0.3350 -0.3350 0.8807
vn 0.2632 -0.3939 0.8807
vn 0.1813 -0.4377 0.8807
vn -0.0924 -0.4646 0.8807
vn -0.1813 -0.4377 0.8807
vn -0.2632 -0.3939 0.8807
vn -0.3350 -0.3350 0.8807
vn -0.3939 -0.2632 0.8807
vn -0.4377 -0.1813 0.8807
vn -0.4646 -0.0924 0.8807
vn -0.4737 -0.0000 0.8807
vn -0.4646 0.0924 0.8807
vn -0.4377 0.1813 0.8807
vn -0.3939 0.2632 0.8807
vn -0.3350 0.3350 0.8807
vn -0.2632 0.3939 0.8807
vn -0.1813 0.4377 0.8807
vn -0.0924 0.4646 0.8807
vn -0.7929 -0.0122 0.6093
vn 0.7929 -0.0122 0.6093
vn 0.4000 0.6847 0.6093
vn -0.4000 0.6847 0.6093
vn -0.3886 -0.6893 0.6115
vn 0.3886 -0.6893 0.6115
vn 0.4911 -0.8711 -0.0000
vn 0.9999 -0.0153 -0.0000
vn 0.5044 0.8634 -0.0000
vn -0.5044 0.8634 -0.0000
vn -0.4911 -0.8711 -0.0000
vn -0.9999 -0.0153 -0.0000
vt 0.000170 0.000000
vt 0.975647 0.000000
vt 0.000170 0.999962
vt 0.975647 0.999962
vt 0.000170 0.778213
vt 0.975647 0.778213
vt 0.975647 0.891030
vt 0.000170 0.881470
vt 0.058889 0.685463
vt 0.058889 0.686658
vt 0.058889 0.692633
vt 0.058889 0.682117
vt 0.062291 0.686658
vt 0.056662 0.991732
vt 0.062213 0.991732
vt 0.054087 1.000000
vt 0.058889 1.000000
vt 0.053787 1.000000
vt 0.915951 0.682117
vt 0.453660 0.685463
vt 0.913347 0.682117
vt 0.453660 0.692633
vt 0.916664 0.682117
vt 0.913342 0.991732
vt 0.922458 0.999619
vt 0.916664 1.000000
vt 0.919422 1.000000
vt 0.061889 0.890804
vt 0.058889 0.890804
vt 0.058889 0.890804
vt 0.057838 0.890804
vt 0.062291 0.890804
vt 0.916231 0.890804
vt 0.916664 0.890804
vt 0.913626 0.890804
vt 0.047589 0.781273
vt 0.047589 0.781273
vt 0.047589 0.977503
vt 0.047589 0.977503
vt 0.058935 0.781273
vt 0.058935 0.781273
vt 0.058935 0.977503
vt 0.058935 0.977503
vt 0.047589 0.872724
vt 0.058935 0.872724
vt 0.047589 0.854628
vt 0.058935 0.854628
vt 0.047589 0.834129
vt 0.058935 0.834129
vt 0.058935 0.834129
vt 0.058935 0.804761
vt 0.058935 0.828800
vt 0.058935 0.822583
vt 0.058935 0.816086
vt 0.058935 0.809945
vt 0.047589 0.804761
vt 0.047589 0.809945
vt 0.047589 0.816086
vt 0.047589 0.822583
vt 0.047589 0.828800
vt 0.058935 0.938297
vt 0.047589 0.938297
vt 0.000098 0.781273
vt 0.000098 0.781273
vt 0.058935 0.937811
vt 0.058935 0.873176
vt 0.058935 0.931580
vt 0.058935 0.924559
vt 0.058935 0.916390
vt 0.058935 0.907190
vt 0.058935 0.897704
vt 0.058935 0.888762
vt 0.058935 0.880655
vt 0.047589 0.873176
vt 0.047589 0.937811
vt 0.047589 0.880655
vt 0.047589 0.888762
vt 0.047589 0.897704
vt 0.047589 0.907190
vt 0.047589 0.916390
vt 0.047589 0.924559
vt 0.047589 0.931579
vt 0.000098 0.977503
vt 0.000098 0.977503
vt 0.011445 0.781273
vt 0.011445 0.781273
vt 0.011445 0.977503
vt 0.011445 0.977503
vt 0.000098 0.872724
vt 0.011445 0.872724
vt 0.000098 0.854628
vt 0.011445 0.854628
vt 0.000098 0.834129
vt 0.011445 0.834129
vt 0.011445 0.834129
vt 0.011445 0.804761
vt 0.011445 0.828800
vt 0.011445 0.822583
vt 0.011445 0.816086
vt 0.011445 0.809945
vt 0.000098 0.804761
vt 0.000098 0.834129
vt 0.000098 0.809945
vt 0.000098 0.816086
vt 0.000098 0.822583
vt 0.000098 0.828800
vt 0.011445 0.938297
vt 0.000098 0.938297
vt 0.011445 0.937811
vt 0.011445 0.873176
vt 0.011445 0.931580
vt 0.011445 0.924559
vt 0.011445 0.916390
vt 0.011445 0.907190
vt 0.011445 0.897704
vt 0.011445 0.888762
vt 0.011445 0.880655
vt 0.000098 0.873176
vt 0.000098 0.937811
vt 0.000098 0.880655
vt 0.000098 0.888762
vt 0.000098 0.897704
vt 0.000098 0.907190
vt 0.000098 0.916390
vt 0.000098 0.924559
vt 0.000098 0.931579
vt 0.964266 0.781273
vt 0.964266 0.781273
vt 0.964266 0.977503
vt 0.964266 0.977503
vt 0.975612 0.781273
vt 0.975612 0.781273
vt 0.975612 0.977503
vt 0.975612 0.977503
vt 0.964266 0.872724
vt 0.975612 0.872724
vt 0.964266 0.854628
vt 0.975612 0.854628
vt 0.964266 0.834129
vt 0.975612 0.834129
vt 0.975612 0.834129
vt 0.975612 0.804761
vt 0.975612 0.828800
vt 0.975612 0.822583
vt 0.975612 0.816086
vt 0.975612 0.809945
vt 0.964266 0.804761
vt 0.964266 0.834129
vt 0.964266 0.809945
vt 0.964266 0.816086
vt 0.964266 0.822583
vt 0.964266 0.828800
vt 0.975612 0.938297
vt 0.964266 0.938297
vt 0.916775 0.781273
vt 0.916775 0.781273
vt 0.975612 0.937811
vt 0.975612 0.873176
vt 0.975612 0.931580
vt 0.975612 0.924559
vt 0.975612 0.916390
vt 0.975612 0.907190
vt 0.975612 0.897704
vt 0.975612 0.888762
vt 0.975612 0.880655
vt 0.964266 0.873176
vt 0.964266 0.937811
vt 0.964266 0.880655
vt 0.964266 0.888762
vt 0.964266 0.897704
vt 0.964266 0.907190
vt 0.964266 0.916390
vt 0.964266 0.924559
vt 0.964266 0.931579
vt 0.916775 0.977503
vt 0.916775 0.977503
vt 0.928122 0.781273
vt 0.928122 0.781273
vt 0.928122 0.977503
vt 0.928122 0.977503
vt 0.916775 0.872724
vt 0.928122 0.872724
vt 0.916775 0.854628
vt 0.928122 0.854628
vt 0.916775 0.834129
vt 0.928122 0.834129
vt 0.928122 0.834129
vt 0.928122 0.804761
vt 0.928122 0.828800
vt 0.928122 0.822583
vt 0.928122 0.816086
vt 0.928122 0.809945
vt 0.916775 0.804761
vt 0.916775 0.834129
vt 0.916775 0.809945
vt 0.916775 0.816086
vt 0.916775 0.822583
vt 0.916775 0.828800
vt 0.928122 0.938297
vt 0.916775 0.938297
vt 0.928122 0.937811
vt 0.928122 0.873176
vt 0.928122 0.931580
vt 0.928122 0.924559
vt 0.928122 0.916390
vt 0.928122 0.907190
vt 0.928122 0.897704
vt 0.928122 0.888762
vt 0.928122 0.880655
vt 0.916775 0.873176
vt 0.916775 0.937811
vt 0.916775 0.880655
vt 0.916775 0.888762
vt 0.916775 0.897704
vt 0.916775 0.907190
vt 0.916775 0.916390
vt 0.916775 0.924559
vt 0.916775 0.931579
vt 0.000170 0.681982
vt 0.975647 0.681982
vt 0.552039 0.681982
vt 0.550503 0.681982
vt 0.550568 0.674153
vt 0.552039 0.674153
vt 0.550503 0.000000
vt 0.550568 0.000452
vt 0.900656 0.681982
vt 0.904257 0.674153
vt 0.904557 0.674153
vt 0.900656 0.000000
vt 0.904257 0.000000
vt 0.513252 0.681982
vt 0.517153 0.672948
vt 0.513252 0.000000
vt 0.517153 0.000000
vt 0.298989 0.000000
vt 0.301989 0.000000
vt 0.298989 0.672948
vt 0.301989 0.681982
vt 0.900656 0.681982
vt 0.548713 0.674334
vt 0.549038 0.681982
vt 0.552039 0.681982
vt 0.548713 0.000452
vt 0.552039 0.000000
vt 0.900656 0.000000
vt 0.301389 0.000000
vt 0.301989 0.000000
vt 0.514452 0.000000
vt 0.513252 0.000000
vt 0.514453 0.672971
vt 0.513252 0.681982
vt 0.301389 0.681982
vt 0.301989 0.681982
vt 0.307639 0.056553
vt 0.507603 0.056553
vt 0.508420 0.665863
vt 0.309674 0.665863
vt 0.891739 0.662403
vt 0.558295 0.662403
vt 0.558295 0.055994
vt 0.891739 0.055994
vt 0.074777 0.681982
vt 0.076412 0.643949
vt 0.091034 0.648067
vt 0.076412 0.009864
vt 0.074777 0.000000
vt 0.217256 0.681982
vt 0.216304 0.648067
vt 0.075623 0.647367
vt 0.217256 0.000000
vt 0.075623 0.001061
vt 0.203453 0.000000
vt 0.123349 0.630097
vt 0.216304 0.681982
vt 0.120083 0.647367
vt 0.128299 0.630097
vt 0.216069 0.630097
vt 0.128130 0.642960
vt 0.076238 0.681982
vt 0.123776 0.630097
vt 0.124600 0.630387
vt 0.128138 0.630097
vt 0.126049 0.066257
vt 0.130591 0.065027
vt 0.123776 0.055274
vt 0.128138 0.072483
vt 0.123349 0.072483
vt 0.120083 0.065113
vt 0.217256 0.065027
vt 0.216069 0.072483
vt 0.279493 0.083643
vt 0.279493 0.000456
vt 0.280197 0.083643
vt 0.280197 0.000456
vt 0.280874 0.083643
vt 0.280874 0.000456
vt 0.281498 0.083643
vt 0.281498 0.000456
vt 0.282044 0.083643
vt 0.282044 0.000456
vt 0.282493 0.083643
vt 0.282493 0.000456
vt 0.282826 0.083643
vt 0.282826 0.000456
vt 0.283032 0.083643
vt 0.283032 0.000456
vt 0.283101 0.083643
vt 0.283101 0.000456
vt 0.283032 0.083643
vt 0.283032 0.000456
vt 0.282826 0.083643
vt 0.282826 0.000456
vt 0.282493 0.083643
vt 0.282493 0.000456
vt 0.282044 0.083643
vt 0.282044 0.000456
vt 0.281498 0.083643
vt 0.281498 0.000456
vt 0.280874 0.083643
vt 0.280874 0.000456
vt 0.280197 0.083643
vt 0.280197 0.000456
vt 0.279493 0.083643
vt 0.279493 0.000456
vt 0.278789 0.083643
vt 0.278789 0.000456
vt 0.278112 0.083643
vt 0.278112 0.000456
vt 0.277488 0.083643
vt 0.277488 0.000456
vt 0.276941 0.083643
vt 0.276941 0.000456
vt 0.276493 0.083643
vt 0.276493 0.000456
vt 0.276159 0.083643
vt 0.276159 0.000456
vt 0.275954 0.083643
vt 0.275954 0.000456
vt 0.275884 0.083643
vt 0.275884 0.000456
vt 0.275954 0.083643
vt 0.275954 0.000456
vt 0.276159 0.083643
vt 0.276159 0.000456
vt 0.276493 0.083643
vt 0.276493 0.000456
vt 0.276941 0.083643
vt 0.276941 0.000456
vt 0.277488 0.083643
vt 0.277488 0.000456
vt 0.278112 0.083643
vt 0.278112 0.000456
vt 0.278789 0.083643
vt 0.278789 0.000456
vt 0.279493 0.090937
vt 0.280012 0.090937
vt 0.280511 0.090937
vt 0.280971 0.090937
vt 0.281374 0.090937
vt 0.281704 0.090937
vt 0.281950 0.090937
vt 0.282101 0.090937
vt 0.282153 0.090937
vt 0.282101 0.090937
vt 0.281950 0.090937
vt 0.281704 0.090937
vt 0.281374 0.090937
vt 0.280971 0.090937
vt 0.280511 0.090937
vt 0.280012 0.090937
vt 0.279493 0.090937
vt 0.278974 0.090937
vt 0.278475 0.090937
vt 0.278015 0.090937
vt 0.277612 0.090937
vt 0.277281 0.090937
vt 0.277035 0.090937
vt 0.276884 0.090937
vt 0.276833 0.090937
vt 0.276884 0.090937
vt 0.277035 0.090937
vt 0.277281 0.090937
vt 0.277612 0.090937
vt 0.278015 0.090937
vt 0.278475 0.090937
vt 0.278974 0.090937
vt 0.279493 0.102873
vt 0.280012 0.102777
vt 0.280511 0.102494
vt 0.280971 0.102035
vt 0.281374 0.101416
vt 0.281704 0.100662
vt 0.281950 0.099802
vt 0.282101 0.098869
vt 0.282153 0.097899
vt 0.282101 0.096929
vt 0.281950 0.095996
vt 0.281704 0.095136
vt 0.281374 0.094382
vt 0.280971 0.093764
vt 0.280511 0.093304
vt 0.280012 0.093021
vt 0.279493 0.092926
vt 0.278974 0.093021
vt 0.278475 0.093304
vt 0.278015 0.093764
vt 0.277612 0.094382
vt 0.277281 0.095136
vt 0.277035 0.095996
vt 0.276884 0.096929
vt 0.276833 0.097899
vt 0.276884 0.098869
vt 0.277035 0.099802
vt 0.277281 0.100662
vt 0.277612 0.101416
vt 0.278015 0.102035
vt 0.278475 0.102494
vt 0.278974 0.102777
vt 0.279493 0.104959
vt 0.280012 0.104856
vt 0.280511 0.104552
vt 0.280971 0.104059
vt 0.281374 0.103395
vt 0.281704 0.102586
vt 0.281950 0.101663
vt 0.282101 0.100661
vt 0.282153 0.099620
vt 0.282101 0.098579
vt 0.281950 0.097577
vt 0.281704 0.096654
vt 0.281374 0.095845
vt 0.280971 0.095181
vt 0.280511 0.094688
vt 0.280012 0.094384
vt 0.279493 0.094282
vt 0.278974 0.094384
vt 0.278475 0.094688
vt 0.278015 0.095181
vt 0.277612 0.095845
vt 0.277281 0.096654
vt 0.277035 0.097577
vt 0.276884 0.098579
vt 0.276833 0.099620
vt 0.276884 0.100661
vt 0.277035 0.101663
vt 0.277281 0.102586
vt 0.277612 0.103395
vt 0.278015 0.104059
vt 0.278475 0.104552
vt 0.278974 0.104856
vt 0.276139 0.726095
vt 0.482431 0.844120
vt 0.276139 0.861903
vt 0.486793 0.901505
vt 0.699559 0.728605
vt 0.699678 0.726095
vt 0.699559 0.859393
vt 0.699678 0.861903
vt 0.286192 0.728783
vt 0.276139 0.726095
vt 0.286192 0.746584
vt 0.276139 0.744630
vt 0.286192 0.730138
vt 0.276139 0.727506
vt 0.286192 0.733997
vt 0.276139 0.731524
vt 0.286192 0.739772
vt 0.276139 0.737537
vt 0.286192 0.841414
vt 0.276139 0.843368
vt 0.286192 0.859215
vt 0.276139 0.861903
vt 0.286192 0.848226
vt 0.276139 0.850461
vt 0.286192 0.854001
vt 0.276139 0.856474
vt 0.286192 0.857860
vt 0.276139 0.860492
vt 0.691223 0.746454
vt 0.699678 0.744630
vt 0.691223 0.728605
vt 0.699678 0.726095
vt 0.691223 0.739624
vt 0.699678 0.737537
vt 0.691223 0.733833
vt 0.699678 0.731524
vt 0.691223 0.729964
vt 0.699678 0.727506
vt 0.691223 0.859393
vt 0.699678 0.861903
vt 0.691223 0.841543
vt 0.699678 0.843368
vt 0.691223 0.858034
vt 0.699678 0.860492
vt 0.691223 0.854165
vt 0.699678 0.856474
vt 0.691223 0.848374
vt 0.699678 0.850461
vt 0.496474 0.899592
vt 0.478237 0.841566
vt 0.505782 0.893924
vt 0.474371 0.837419
vt 0.514361 0.884721
vt 0.470983 0.831838
vt 0.521880 0.872335
vt 0.468203 0.825038
vt 0.528051 0.857244
vt 0.466137 0.817280
vt 0.532637 0.840025
vt 0.464864 0.808861
vt 0.535460 0.821343
vt 0.464435 0.800107
vt 0.536414 0.801913
vt 0.464864 0.791352
vt 0.535460 0.782484
vt 0.466137 0.782934
vt 0.532637 0.763801
vt 0.468203 0.775175
vt 0.528051 0.746583
vt 0.470983 0.768375
vt 0.521880 0.731491
vt 0.474371 0.762794
vt 0.514361 0.719106
vt 0.478237 0.758647
vt 0.505782 0.709903
vt 0.482431 0.756094
vt 0.496474 0.704235
vt 0.486793 0.755231
vt 0.486793 0.702322
vt 0.491155 0.756094
vt 0.477113 0.704235
vt 0.495349 0.758647
vt 0.467804 0.709903
vt 0.499215 0.762794
vt 0.459226 0.719106
vt 0.502603 0.768375
vt 0.451706 0.731491
vt 0.505384 0.775175
vt 0.445535 0.746583
vt 0.507450 0.782934
vt 0.440950 0.763801
vt 0.508722 0.791352
vt 0.438126 0.782484
vt 0.509152 0.800107
vt 0.437173 0.801913
vt 0.508722 0.808861
vt 0.438126 0.821343
vt 0.507450 0.817280
vt 0.440950 0.840025
vt 0.505384 0.825038
vt 0.445535 0.857244
vt 0.502603 0.831838
vt 0.451706 0.872335
vt 0.499215 0.837419
vt 0.459226 0.884721
vt 0.495349 0.841566
vt 0.467804 0.893924
vt 0.491155 0.844120
vt 0.477113 0.899592
vt 0.486793 0.844982
vt 0.486793 0.893656
vt 0.486793 0.913305
vt 0.495886 0.891859
vt 0.497796 0.911130
vt 0.504630 0.886535
vt 0.508377 0.904689
vt 0.512688 0.877890
vt 0.518127 0.894228
vt 0.519752 0.866256
vt 0.526674 0.880150
vt 0.525548 0.852080
vt 0.533688 0.862997
vt 0.529855 0.835906
vt 0.538900 0.843426
vt 0.532508 0.818357
vt 0.542110 0.822191
vt 0.533403 0.800107
vt 0.543193 0.800107
vt 0.532508 0.781856
vt 0.542110 0.778023
vt 0.529855 0.764307
vt 0.538900 0.756787
vt 0.525548 0.748133
vt 0.533688 0.737217
vt 0.519752 0.733957
vt 0.526674 0.720063
vt 0.512688 0.722323
vt 0.518127 0.705985
vt 0.504630 0.713678
vt 0.508377 0.695525
vt 0.495886 0.708355
vt 0.497796 0.689083
vt 0.486793 0.706557
vt 0.486793 0.686908
vt 0.477700 0.708355
vt 0.475790 0.689083
vt 0.468956 0.713678
vt 0.465210 0.695525
vt 0.460898 0.722323
vt 0.454724 0.706459
vt 0.455459 0.705985
vt 0.453835 0.733957
vt 0.446912 0.720063
vt 0.448039 0.748133
vt 0.439898 0.737217
vt 0.443731 0.764307
vt 0.434686 0.756787
vt 0.441079 0.781856
vt 0.431477 0.778023
vt 0.440183 0.800107
vt 0.430393 0.800107
vt 0.441079 0.818357
vt 0.431477 0.822191
vt 0.443731 0.835906
vt 0.434686 0.843426
vt 0.448039 0.852080
vt 0.439898 0.862997
vt 0.453835 0.866256
vt 0.446912 0.880150
vt 0.460898 0.877890
vt 0.455459 0.894228
vt 0.468956 0.886535
vt 0.465210 0.904689
vt 0.477700 0.891859
vt 0.475790 0.911130
vt 0.475312 0.910432
vt 0.127245 0.539818
vt 0.215945 0.535272
vt 0.124403 0.539818
vt 0.212173 0.539818
vt 0.137903 0.535272
vt 0.127672 0.539818
vt 0.132034 0.539818
vt 0.125666 0.539795
vt 0.137904 0.102669
vt 0.127672 0.103072
vt 0.132034 0.096380
vt 0.127245 0.096380
vt 0.215945 0.102669
vt 0.212173 0.096380
vt 0.123988 0.626516
vt 0.216150 0.628390
vt 0.211759 0.626516
vt 0.130624 0.628390
vt 0.127092 0.626485
vt 0.130747 0.626516
vt 0.124061 0.568059
vt 0.216231 0.574545
vt 0.211832 0.568059
vt 0.130543 0.574545
vt 0.130674 0.568059
vt 0.127806 0.567823
vt 0.023133 0.687383
vt 0.040269 0.696465
vt 0.034920 0.693358
vt 0.040040 0.687383
vt 0.020994 0.761825
vt 0.042413 0.767083
vt 0.039202 0.761825
vt 0.042179 0.769951
vt 0.053385 0.731366
vt 0.053381 0.730888
vt 0.048031 0.730888
vt 0.053152 0.730888
vt 0.011791 0.733616
vt 0.048860 0.731366
vt 0.048022 0.730888
vt 0.022668 0.697524
vt 0.023133 0.695509
vt 0.034911 0.696465
vt 0.036695 0.697524
vt 0.040040 0.693358
vt 0.040040 0.695509
vt 0.047572 0.733616
vt 0.053152 0.730888
vt 0.038469 0.764112
vt 0.039202 0.752504
vt 0.042179 0.769951
vt 0.020893 0.764112
vt 0.020994 0.752504
vt 0.037888 0.767083
s 1
usemtl shop_front11
f 8/8/1 7/7/1 4/4/2 3/3/2
f 204/219/3 230/263/4 232/268/5 213/239/4 210/232/5 206/221/4 208/227/5 205/220/3 6/6/6 5/5/6
f 5/5/6 6/6/6 7/7/1 8/8/1
f 17/28/7 18/30/8 12/16/9 11/14/10
f 11/15/10 12/17/9 16/26/11 15/24/12
f 19/33/13 20/35/14 14/21/15 13/19/16
f 13/20/16 14/22/15 10/11/17 9/9/18
f 20/34/14 18/30/8 10/12/17 14/23/15
f 16/26/11 12/18/9 18/31/8 20/34/14
f 15/25/12 16/27/11 20/35/14 19/33/13
f 9/10/18 10/13/17 18/32/8 17/29/7
f 23/38/19 24/39/20 28/43/21 27/42/22
f 34/49/23 33/48/24 35/50/25
f 25/40/16 26/41/26 22/37/27 21/36/18
f 28/43/21 24/39/20 47/62/28 46/61/29
f 46/61/29 47/62/28 60/75/30 50/65/31
f 32/47/32 31/46/33 33/48/24 34/49/23
f 68/83/19 69/84/34 73/88/21 72/87/22
f 41/56/35 36/51/36 40/55/37 42/57/38
f 42/57/38 40/55/37 39/54/39 43/58/40
f 43/58/40 39/54/39 38/53/41 44/59/42
f 44/59/42 38/53/41 37/52/43 45/60/44
f 45/60/44 37/52/43 35/50/25 33/48/24
f 36/51/36 41/56/35 22/37/27 26/41/26
f 30/45/45 29/44/46 31/46/33 32/47/32
f 21/36/18 22/37/27 41/56/35 42/57/38 43/58/40 44/59/42 45/60/44 33/48/24 31/46/33 29/44/46 59/74/47 61/76/48 62/77/49 63/78/50 64/79/51 65/80/52 66/81/53 67/82/54 60/75/30 47/62/28 24/39/20 23/38/19
f 27/42/22 28/43/21 46/61/29 50/65/31 52/67/55 53/68/56 54/69/57 55/70/58 56/71/59 57/72/60 58/73/61 51/66/62 30/45/45 32/47/32 34/49/23 35/50/25 37/52/43 38/53/41 39/54/39 40/55/37 36/51/36 26/41/26 25/40/16
f 50/65/31 60/75/30 67/82/54 52/67/55
f 52/67/55 67/82/54 66/81/53 53/68/56
f 53/68/56 66/81/53 65/80/52 54/69/57
f 54/69/57 65/80/52 64/79/51 55/70/58
f 55/70/58 64/79/51 63/78/50 56/71/59
f 56/71/59 63/78/50 62/77/49 57/72/60
f 57/72/60 62/77/49 61/76/48 58/73/61
f 58/73/61 61/76/48 59/74/47 51/66/62
f 51/66/62 59/74/47 29/44/46 30/45/45
f 79/94/23 78/93/63 87/102/64 80/95/25
f 70/85/16 71/86/26 48/63/27 49/64/18
f 73/88/21 69/84/34 93/108/28 92/107/29
f 92/107/29 93/108/28 104/119/30 94/109/31
f 77/92/32 76/91/33 78/93/63 79/94/23
f 86/101/35 81/96/36 85/100/37 88/103/38
f 88/103/38 85/100/37 84/99/39 89/104/40
f 89/104/40 84/99/39 83/98/41 90/105/42
f 90/105/42 83/98/41 82/97/43 91/106/44
f 91/106/44 82/97/43 80/95/25 87/102/64
f 81/96/36 86/101/35 48/63/27 71/86/26
f 75/90/45 74/89/46 76/91/33 77/92/32
f 49/64/18 48/63/27 86/101/35 88/103/38 89/104/40 90/105/42 91/106/44 87/102/64 78/93/63 76/91/33 74/89/46 103/118/47 105/120/48 106/121/49 107/122/50 108/123/51 109/124/52 110/125/53 111/126/54 104/119/30 93/108/28 69/84/34 68/83/19
f 72/87/22 73/88/21 92/107/29 94/109/31 96/111/55 97/112/56 98/113/57 99/114/58 100/115/59 101/116/60 102/117/61 95/110/62 75/90/45 77/92/32 79/94/23 80/95/25 82/97/43 83/98/41 84/99/39 85/100/37 81/96/36 71/86/26 70/85/16
f 94/109/31 104/119/30 111/126/54 96/111/55
f 96/111/55 111/126/54 110/125/53 97/112/56
f 97/112/56 110/125/53 109/124/52 98/113/57
f 98/113/57 109/124/52 108/123/51 99/114/58
f 99/114/58 108/123/51 107/122/50 100/115/59
f 100/115/59 107/122/50 106/121/49 101/116/60
f 101/116/60 106/121/49 105/120/48 102/117/61
f 102/117/61 105/120/48 103/118/47 95/110/62
f 95/110/62 103/118/47 74/89/46 75/90/45
f 114/129/19 115/130/34 119/134/21 118/133/22
f 125/140/23 124/139/63 133/148/64 126/141/25
f 116/131/16 117/132/26 113/128/27 112/127/18
f 119/134/21 115/130/34 139/154/28 138/153/29
f 138/153/29 139/154/28 152/167/30 142/157/31
f 123/138/32 122/137/33 124/139/63 125/140/23
f 160/175/19 161/176/20 165/180/21 164/179/22
f 132/147/35 127/142/36 131/146/37 134/149/38
f 134/149/38 131/146/37 130/145/39 135/150/40
f 135/150/40 130/145/39 129/144/41 136/151/42
f 136/151/42 129/144/41 128/143/43 137/152/44
f 137/152/44 128/143/43 126/141/25 133/148/64
f 127/142/36 132/147/35 113/128/27 117/132/26
f 121/136/45 120/135/46 122/137/33 123/138/32
f 112/127/18 113/128/27 132/147/35 134/149/38 135/150/40 136/151/42 137/152/44 133/148/64 124/139/63 122/137/33 120/135/46 151/166/47 153/168/48 154/169/49 155/170/50 156/171/51 157/172/52 158/173/53 159/174/54 152/167/30 139/154/28 115/130/34 114/129/19
f 118/133/22 119/134/21 138/153/29 142/157/31 144/159/55 145/160/56 146/161/57 147/162/58 148/163/59 149/164/60 150/165/61 143/158/62 121/136/45 123/138/32 125/140/23 126/141/25 128/143/43 129/144/41 130/145/39 131/146/37 127/142/36 117/132/26 116/131/16
f 142/157/31 152/167/30 159/174/54 144/159/55
f 144/159/55 159/174/54 158/173/53 145/160/56
f 145/160/56 158/173/53 157/172/52 146/161/57
f 146/161/57 157/172/52 156/171/51 147/162/58
f 147/162/58 156/171/51 155/170/50 148/163/59
f 148/163/59 155/170/50 154/169/49 149/164/60
f 149/164/60 154/169/49 153/168/48 150/165/61
f 150/165/61 153/168/48 151/166/47 143/158/62
f 143/158/62 151/166/47 120/135/46 121/136/45
f 171/186/23 170/185/63 179/194/64 172/187/25
f 162/177/16 163/178/26 140/155/27 141/156/18
f 165/180/21 161/176/20 185/200/28 184/199/29
f 184/199/29 185/200/28 196/211/30 186/201/31
f 169/184/32 168/183/33 170/185/63 171/186/23
f 178/193/35 173/188/36 177/192/37 180/195/38
f 180/195/38 177/192/37 176/191/39 181/196/40
f 181/196/40 176/191/39 175/190/41 182/197/42
f 182/197/42 175/190/41 174/189/43 183/198/44
f 183/198/44 174/189/43 172/187/25 179/194/64
f 173/188/36 178/193/35 140/155/27 163/178/26
f 167/182/45 166/181/46 168/183/33 169/184/32
f 141/156/18 140/155/27 178/193/35 180/195/38 181/196/40 182/197/42 183/198/44 179/194/64 170/185/63 168/183/33 166/181/46 195/210/47 197/212/48 198/213/49 199/214/50 200/215/51 201/216/52 202/217/53 203/218/54 196/211/30 185/200/28 161/176/20 160/175/19
f 164/179/22 165/180/21 184/199/29 186/201/31 188/203/55 189/204/56 190/205/57 191/206/58 192/207/59 193/208/60 194/209/61 187/202/62 167/182/45 169/184/32 171/186/23 172/187/25 174/189/43 175/190/41 176/191/39 177/192/37 173/188/36 163/178/26 162/177/16
f 186/201/31 196/211/30 203/218/54 188/203/55
f 188/203/55 203/218/54 202/217/53 189/204/56
f 189/204/56 202/217/53 201/216/52 190/205/57
f 190/205/57 201/216/52 200/215/51 191/206/58
f 191/206/58 200/215/51 199/214/50 192/207/59
f 192/207/59 199/214/50 198/213/49 193/208/60
f 193/208/60 198/213/49 197/212/48 194/209/61
f 194/209/61 197/212/48 195/210/47 187/202/62
f 187/202/62 195/210/47 166/181/46 167/182/45
f 1/1/3 231/267/65 230/263/4 204/219/3
f 216/245/66 217/246/67 229/262/3 228/261/3
f 210/233/5 213/238/4 221/253/15 220/252/17
f 208/227/5 209/230/67 2/2/3 205/220/3
f 210/232/5 211/234/67 207/225/66 206/222/4
f 209/231/67 208/228/5 214/240/17 217/246/67
f 218/248/66 219/250/67 223/256/3 222/255/3
f 211/235/67 210/233/5 220/251/17 219/249/67
f 206/223/4 207/226/66 216/244/66 215/241/15
f 213/238/4 212/236/66 218/247/66 221/253/15
f 208/229/5 206/224/4 215/242/15 214/240/17
f 221/254/15 218/248/66 222/255/3 225/258/3
f 219/250/67 220/252/17 224/257/3 223/256/3
f 220/252/17 221/254/15 225/258/3 224/257/3
f 214/240/17 215/243/15 227/260/3 226/259/3
f 217/246/67 214/240/17 226/259/3 229/262/3
f 215/243/15 216/245/66 228/261/3 227/260/3
f 230/264/4 231/266/65 236/284/68 235/279/15
f 232/268/5 233/271/69 212/237/66 213/239/4
f 237/288/70 234/274/17 550/628/3 553/639/3
f 232/269/5 230/265/4 235/280/15 234/275/17
f 233/272/69 232/270/5 234/276/17 237/289/70
f 231/267/65 233/273/69 237/290/70 236/285/68
f 238/292/71 239/293/3 241/295/72 240/294/73
f 240/294/73 241/295/72 243/297/74 242/296/75
f 242/296/75 243/297/74 245/299/76 244/298/77
f 244/298/77 245/299/76 247/301/78 246/300/79
f 246/300/79 247/301/78 249/303/80 248/302/81
f 248/302/81 249/303/80 251/305/82 250/304/83
f 250/304/83 251/305/82 253/307/84 252/306/85
f 252/306/85 253/307/84 255/309/86 254/308/87
f 254/308/87 255/309/86 257/311/88 256/310/89
f 256/310/89 257/311/88 259/313/90 258/312/91
f 258/312/91 259/313/90 261/315/92 260/314/93
f 260/314/93 261/315/92 263/317/94 262/316/95
f 262/316/95 263/317/94 265/319/96 264/318/97
f 264/318/97 265/319/96 267/321/98 266/320/99
f 266/320/99 267/321/98 269/323/100 268/322/101
f 268/322/101 269/323/100 271/325/102 270/324/103
f 270/324/103 271/325/102 273/327/104 272/326/105
f 272/326/105 273/327/104 275/329/106 274/328/107
f 274/328/107 275/329/106 277/331/108 276/330/109
f 276/330/109 277/331/108 279/333/110 278/332/111
f 278/332/111 279/333/110 281/335/112 280/334/113
f 280/334/113 281/335/112 283/337/114 282/336/115
f 282/336/115 283/337/114 285/339/116 284/338/117
f 284/338/117 285/339/116 287/341/118 286/340/119
f 286/340/119 287/341/118 289/343/120 288/342/121
f 288/342/121 289/343/120 291/345/122 290/344/123
f 290/344/123 291/345/122 293/347/124 292/346/125
f 292/346/125 293/347/124 295/349/126 294/348/127
f 294/348/127 295/349/126 297/351/128 296/350/129
f 296/350/129 297/351/128 299/353/130 298/352/131
f 420/493/132 409/471/133 405/463/134 414/481/135
f 298/352/131 299/353/130 301/355/136 300/354/137
f 300/354/137 301/355/136 239/293/3 238/292/71
f 252/306/85 254/308/87 310/364/138 309/363/139
f 308/362/140 309/363/139 341/395/141 340/394/142
f 270/324/103 272/326/105 319/373/143 318/372/144
f 288/342/121 290/344/123 328/382/145 327/381/146
f 244/298/77 246/300/79 306/360/147 305/359/148
f 262/316/95 264/318/97 315/369/149 314/368/150
f 280/334/113 282/336/115 324/378/151 323/377/152
f 298/352/131 300/354/137 333/387/153 332/386/154
f 254/308/87 256/310/89 311/365/155 310/364/138
f 272/326/105 274/328/107 320/374/156 319/373/143
f 290/344/123 292/346/125 329/383/157 328/382/145
f 246/300/79 248/302/81 307/361/158 306/360/147
f 264/318/97 266/320/99 316/370/159 315/369/149
f 282/336/115 284/338/117 325/379/160 324/378/151
f 238/292/71 240/294/73 303/357/161 302/356/162
f 300/354/137 238/292/71 302/356/162 333/387/153
f 256/310/89 258/312/91 312/366/163 311/365/155
f 274/328/107 276/330/109 321/375/164 320/374/156
f 292/346/125 294/348/127 330/384/165 329/383/157
f 248/302/81 250/304/83 308/362/140 307/361/158
f 266/320/99 268/322/101 317/371/166 316/370/159
f 284/338/117 286/340/119 326/380/167 325/379/160
f 240/294/73 242/296/75 304/358/168 303/357/161
f 258/312/91 260/314/93 313/367/169 312/366/163
f 276/330/109 278/332/111 322/376/170 321/375/164
f 294/348/127 296/350/129 331/385/171 330/384/165
f 250/304/83 252/306/85 309/363/139 308/362/140
f 268/322/101 270/324/103 318/372/144 317/371/166
f 286/340/119 288/342/121 327/381/146 326/380/167
f 242/296/75 244/298/77 305/359/148 304/358/168
f 260/314/93 262/316/95 314/368/150 313/367/169
f 278/332/111 280/334/113 323/377/152 322/376/170
f 296/350/129 298/352/131 332/386/154 331/385/171
f 343/397/172 344/398/173 376/430/174 375/429/175
f 322/376/170 323/377/152 355/409/176 354/408/177
f 309/363/139 310/364/138 342/396/178 341/395/141
f 323/377/152 324/378/151 356/410/179 355/409/176
f 310/364/138 311/365/155 343/397/172 342/396/178
f 324/378/151 325/379/160 357/411/180 356/410/179
f 311/365/155 312/366/163 344/398/173 343/397/172
f 325/379/160 326/380/167 358/412/181 357/411/180
f 312/366/163 313/367/169 345/399/182 344/398/173
f 326/380/167 327/381/146 359/413/183 358/412/181
f 313/367/169 314/368/150 346/400/184 345/399/182
f 327/381/146 328/382/145 360/414/185 359/413/183
f 314/368/150 315/369/149 347/401/186 346/400/184
f 328/382/145 329/383/157 361/415/187 360/414/185
f 315/369/149 316/370/159 348/402/188 347/401/186
f 302/356/162 303/357/161 335/389/189 334/388/190
f 329/383/157 330/384/165 362/416/191 361/415/187
f 316/370/159 317/371/166 349/403/192 348/402/188
f 303/357/161 304/358/168 336/390/193 335/389/189
f 330/384/165 331/385/171 363/417/194 362/416/191
f 317/371/166 318/372/144 350/404/195 349/403/192
f 304/358/168 305/359/148 337/391/196 336/390/193
f 331/385/171 332/386/154 364/418/197 363/417/194
f 318/372/144 319/373/143 351/405/198 350/404/195
f 305/359/148 306/360/147 338/392/199 337/391/196
f 332/386/154 333/387/153 365/419/200 364/418/197
f 319/373/143 320/374/156 352/406/201 351/405/198
f 306/360/147 307/361/158 339/393/202 338/392/199
f 333/387/153 302/356/162 334/388/190 365/419/200
f 320/374/156 321/375/164 353/407/203 352/406/201
f 307/361/158 308/362/140 340/394/142 339/393/202
f 321/375/164 322/376/170 354/408/177 353/407/203
f 403/458/22 419/490/204 421/494/205 422/496/206 423/498/207 420/492/132 414/480/135 416/484/208 417/486/209 418/488/210 415/482/211 402/456/16
f 357/411/180 358/412/181 390/444/212 389/443/213
f 344/398/173 345/399/182 377/431/214 376/430/174
f 358/412/181 359/413/183 391/445/215 390/444/212
f 345/399/182 346/400/184 378/432/216 377/431/214
f 359/413/183 360/414/185 392/446/217 391/445/215
f 346/400/184 347/401/186 379/433/218 378/432/216
f 360/414/185 361/415/187 393/447/219 392/446/217
f 347/401/186 348/402/188 380/434/220 379/433/218
f 334/388/190 335/389/189 367/421/221 366/420/222
f 361/415/187 362/416/191 394/448/223 393/447/219
f 348/402/188 349/403/192 381/435/224 380/434/220
f 335/389/189 336/390/193 368/422/225 367/421/221
f 362/416/191 363/417/194 395/449/226 394/448/223
f 349/403/192 350/404/195 382/436/227 381/435/224
f 336/390/193 337/391/196 369/423/228 368/422/225
f 363/417/194 364/418/197 396/450/229 395/449/226
f 350/404/195 351/405/198 383/437/230 382/436/227
f 337/391/196 338/392/199 370/424/231 369/423/228
f 364/418/197 365/419/200 397/451/232 396/450/229
f 351/405/198 352/406/201 384/438/233 383/437/230
f 338/392/199 339/393/202 371/425/234 370/424/231
f 365/419/200 334/388/190 366/420/222 397/451/232
f 352/406/201 353/407/203 385/439/235 384/438/233
f 339/393/202 340/394/142 372/426/236 371/425/234
f 353/407/203 354/408/177 386/440/237 385/439/235
f 340/394/142 341/395/141 373/427/238 372/426/236
f 354/408/177 355/409/176 387/441/239 386/440/237
f 341/395/141 342/396/178 374/428/240 373/427/238
f 355/409/176 356/410/179 388/442/241 387/441/239
f 342/396/178 343/397/172 375/429/175 374/428/240
f 356/410/179 357/411/180 389/443/213 388/442/241
f 398/452/18 404/460/242 406/464/243 407/466/244 408/468/245 405/462/134 409/470/133 411/474/246 412/476/247 413/478/248 410/472/249 400/454/19
f 400/454/19 410/473/249 419/491/204 403/459/22
f 409/471/133 420/493/132 423/499/207 411/475/246
f 411/475/246 423/499/207 422/497/206 412/477/247
f 412/477/247 422/497/206 421/495/205 413/479/248
f 413/479/248 421/495/205 419/491/204 410/473/249
f 414/481/135 405/463/134 408/469/245 416/485/208
f 416/485/208 408/469/245 407/467/244 417/487/209
f 417/487/209 407/467/244 406/465/243 418/489/210
f 418/489/210 406/465/243 404/461/242 415/483/211
f 402/457/16 415/483/211 404/461/242 398/452/18
f 518/594/250 516/592/251 455/531/252 453/529/253
f 426/502/254 491/567/255 493/569/256 428/504/257
f 428/504/257 493/569/256 495/571/258 430/506/22
f 430/506/22 495/571/258 497/573/259 432/508/260
f 432/508/260 497/573/259 499/575/261 434/510/262
f 434/510/262 499/575/261 501/577/263 436/512/264
f 436/512/264 501/577/263 503/579/265 438/514/86
f 438/514/86 503/579/265 505/581/266 440/516/267
f 440/516/267 505/581/266 507/583/268 442/518/269
f 442/518/269 507/583/268 509/585/270 444/520/271
f 444/520/271 509/585/270 511/587/272 446/522/16
f 446/522/16 511/587/272 513/589/273 448/524/274
f 448/524/274 513/589/273 515/591/275 450/526/276
f 450/526/276 515/591/275 517/593/277 452/528/278
f 452/528/278 517/593/277 519/595/279 454/530/280
f 454/530/280 519/595/279 521/597/281 456/532/282
f 456/532/282 521/597/281 523/599/283 458/534/284
f 458/534/284 523/599/283 525/601/285 460/536/286
f 460/536/286 525/601/285 527/604/287 462/538/18
f 462/538/18 527/604/287 529/606/288 464/540/289
f 464/540/289 529/606/288 531/608/290 466/542/291
f 466/542/291 531/608/290 533/610/292 468/544/293
f 468/544/293 533/610/292 535/612/294 470/546/118
f 470/546/118 535/612/294 537/614/295 472/548/296
f 472/548/296 537/614/295 539/616/297 474/550/298
f 474/550/298 539/616/297 541/618/299 476/552/300
f 476/552/300 541/618/299 543/620/301 478/554/19
f 478/554/19 543/620/301 545/622/302 480/556/303
f 480/556/303 545/622/302 547/624/304 482/558/305
f 482/558/305 547/624/304 549/627/306 484/560/307
f 424/500/308 489/565/309 491/567/255 426/502/254
f 483/559/310 485/561/311 399/453/312 425/501/313 427/503/314 429/505/315 431/507/316 433/509/317 435/511/318 437/513/319 439/515/320 441/517/321 443/519/322 445/521/323 447/523/324 449/525/325 451/527/326 453/529/253 455/531/252 457/533/327 459/535/328 461/537/329 463/539/330 465/541/331 467/543/332 469/545/333 471/547/334 473/549/335 475/551/336 477/553/337 479/555/338 481/557/339
f 401/455/340 487/563/341 489/565/309 424/500/308
f 489/565/309 487/563/341 486/562/342 488/564/343
f 491/567/255 489/565/309 488/564/343 490/566/344
f 493/569/256 491/567/255 490/566/344 492/568/345
f 495/571/258 493/569/256 492/568/345 494/570/346
f 497/573/259 495/571/258 494/570/346 496/572/347
f 499/575/261 497/573/259 496/572/347 498/574/348
f 501/577/263 499/575/261 498/574/348 500/576/349
f 503/579/265 501/577/263 500/576/349 502/578/350
f 505/581/266 503/579/265 502/578/350 504/580/351
f 507/583/268 505/581/266 504/580/351 506/582/352
f 509/585/270 507/583/268 506/582/352 508/584/353
f 511/587/272 509/585/270 508/584/353 510/586/354
f 513/589/273 511/587/272 510/586/354 512/588/355
f 515/591/275 513/589/273 512/588/355 514/590/356
f 517/593/277 515/591/275 514/590/356 516/592/251
f 519/595/279 517/593/277 516/592/251 518/594/250
f 521/597/281 519/595/279 518/594/250 520/596/357
f 523/599/283 521/597/281 520/596/357 522/598/358
f 525/602/285 523/599/283 522/598/358 524/600/359
f 527/604/287 525/602/285 524/600/359 526/603/360
f 529/606/288 527/604/287 526/603/360 528/605/361
f 531/608/290 529/606/288 528/605/361 530/607/362
f 533/610/292 531/608/290 530/607/362 532/609/363
f 535/612/294 533/610/292 532/609/363 534/611/364
f 537/614/295 535/612/294 534/611/364 536/613/365
f 539/616/297 537/614/295 536/613/365 538/615/366
f 541/618/299 539/616/297 538/615/366 540/617/367
f 543/620/301 541/618/299 540/617/367 542/619/368
f 545/622/302 543/620/301 542/619/368 544/621/369
f 547/624/304 545/622/302 544/621/369 546/623/370
f 549/626/306 547/624/304 546/623/370 548/625/371
f 487/563/341 549/626/306 548/625/371 486/562/342
f 484/560/307 549/627/306 487/563/341 401/455/340
f 536/613/365 534/611/364 437/513/319 435/511/318
f 492/568/345 490/566/344 481/557/339 479/555/338
f 510/586/354 508/584/353 463/539/330 461/537/329
f 528/605/361 526/603/360 445/521/323 443/519/322
f 546/623/370 544/621/369 427/503/314 425/501/313
f 502/578/350 500/576/349 471/547/334 469/545/333
f 520/596/357 518/594/250 453/529/253 451/527/326
f 538/615/366 536/613/365 435/511/318 433/509/317
f 494/570/346 492/568/345 479/555/338 477/553/337
f 512/588/355 510/586/354 461/537/329 459/535/328
f 530/607/362 528/605/361 443/519/322 441/517/321
f 548/625/371 546/623/370 425/501/313 399/453/312
f 504/580/351 502/578/350 469/545/333 467/543/332
f 522/598/358 520/596/357 451/527/326 449/525/325
f 540/617/367 538/615/366 433/509/317 431/507/316
f 486/562/342 548/625/371 399/453/312 485/561/311
f 496/572/347 494/570/346 477/553/337 475/551/336
f 514/590/356 512/588/355 459/535/328 457/533/327
f 532/609/363 530/607/362 441/517/321 439/515/320
f 488/564/343 486/562/342 485/561/311 483/559/310
f 506/582/352 504/580/351 467/543/332 465/541/331
f 524/600/359 522/598/358 449/525/325 447/523/324
f 542/619/368 540/617/367 431/507/316 429/505/315
f 498/574/348 496/572/347 475/551/336 473/549/335
f 516/592/251 514/590/356 457/533/327 455/531/252
f 534/611/364 532/609/363 439/515/320 437/513/319
f 490/566/344 488/564/343 483/559/310 481/557/339
f 508/584/353 506/582/352 465/541/331 463/539/330
f 526/603/360 524/600/359 447/523/324 445/521/323
f 544/621/369 542/619/368 429/505/315 427/503/314
f 500/576/349 498/574/348 473/549/335 471/547/334
f 235/281/15 236/286/68 552/637/3 551/633/3
f 236/287/68 237/291/70 553/641/3 552/638/3
f 550/630/3 234/277/17 554/642/3 556/648/3
f 551/634/3 550/631/3 556/650/3 557/652/3
f 235/282/15 551/635/3 557/653/3 555/646/3
f 234/278/17 235/283/15 555/647/3 554/644/3
f 564/666/372 567/675/373 568/677/374 569/680/375
f 565/669/376 566/672/377 567/675/373 564/666/372
f 559/656/378 563/664/379 567/676/373 566/673/377
f 561/660/380 560/658/381 569/681/375 568/678/374
f 558/654/382 559/657/378 566/674/377 565/670/376
f 560/659/381 562/662/383 564/667/372 569/682/375
f 563/665/379 561/661/380 568/679/374 567/676/373
f 562/663/383 558/655/382 565/671/376 564/668/372
usemtl shop_front11.GLASS
f 225/258/3 222/255/3 223/256/3 224/257/3
f 227/260/3 228/261/3 229/262/3 226/259/3
f 551/632/3 552/636/3 553/640/3 550/629/3
f 554/643/3 555/645/3 557/651/3 556/649/3
