# Blender 3.3.1
# www.blender.org
mtllib shop_front16.mtl
o shop_front16
v -2.499990 0.000172 -0.000000
v 2.499990 0.000172 -0.000000
v -2.499990 4.184405 0.000000
v 2.499990 4.184405 0.000000
v -2.029335 2.469762 -0.004050
v -2.029335 2.469762 0.059501
v -2.029335 3.799953 -0.004050
v -2.029335 3.799953 0.059501
v 2.236949 2.469762 -0.004050
v 2.236949 2.469762 0.059501
v 2.236949 3.799953 -0.004050
v 2.236949 3.799953 0.059501
v -2.029335 0.000342 -0.004050
v -2.029335 0.000342 0.031143
v -2.029335 0.820092 -0.004050
v -2.029335 0.820092 0.031143
v 0.709332 0.000342 -0.004050
v 0.709332 0.000342 0.031143
v 0.709332 0.820092 -0.004050
v 0.709332 0.820092 0.031143
v -2.500022 3.799459 -0.004050
v -2.500022 3.945186 0.202593
v -2.500022 4.184152 -0.004050
v -2.500022 4.184152 0.202593
v 2.499502 3.799459 -0.004050
v 2.499502 3.945186 0.202593
v 2.499502 4.184152 -0.004050
v 2.499502 4.184152 0.202593
v 2.209682 2.421492 -0.001974
v 2.209682 2.421492 0.062222
v 2.209682 2.649050 -0.001974
v 2.209682 2.649050 0.062222
v 2.498407 2.421492 -0.001974
v 2.498407 2.421492 0.062222
v 2.498407 2.649050 -0.001974
v 2.498407 2.649050 0.062222
v -2.001002 3.362753 0.017870
v -2.001002 3.362753 -0.001974
v 2.315638 2.424319 0.022783
v 2.315638 1.372282 0.022783
v 2.320384 2.424319 0.021774
v 2.320384 1.372282 0.021774
v 2.324309 2.424319 0.018922
v 2.324309 1.372282 0.018922
v 2.326735 2.424319 0.014721
v 2.326735 1.372282 0.014721
v 2.327242 2.424319 0.009895
v 2.327242 1.372282 0.009895
v 2.325743 2.424319 0.005281
v 2.325743 1.372282 0.005281
v 2.322496 2.424319 0.001675
v 2.322496 1.372282 0.001675
v 2.318064 2.424319 -0.000298
v 2.318064 1.372282 -0.000298
v 2.313212 2.424319 -0.000298
v 2.313212 1.372282 -0.000298
v 2.308779 2.424319 0.001675
v 2.308779 1.372282 0.001675
v 2.305533 2.424319 0.005281
v 2.305533 1.372282 0.005281
v 2.304034 2.424319 0.009895
v 2.304034 1.372282 0.009895
v 2.304541 2.424319 0.014721
v 2.304541 1.372282 0.014721
v 2.306967 2.424319 0.018922
v 2.306967 1.372282 0.018922
v 2.310892 2.424319 0.021774
v 2.310892 1.372282 0.021774
v -2.001002 3.711429 -0.001974
v -2.001002 3.711429 0.017870
v 2.498407 3.362753 -0.001974
v 2.498407 3.362753 0.017870
v 2.498407 3.711429 -0.001974
v 2.498407 3.711429 0.017870
v 2.498407 3.847080 0.017870
v 2.498407 3.847080 -0.001974
v -2.001002 3.847080 0.017870
v -2.001002 3.847080 -0.001974
v -2.001002 3.711429 0.045283
v 2.498407 3.711429 0.045283
v -2.001002 3.847080 0.045283
v 2.498407 3.847080 0.045283
v 1.217361 0.097499 -0.001974
v 1.217361 0.097499 0.035813
v 1.217361 2.274859 -0.001974
v 1.217361 2.274859 0.035813
v 2.192134 0.097499 -0.001974
v 2.192134 0.097499 0.035813
v 2.192134 2.274859 -0.001974
v 2.192134 2.274859 0.035813
v 1.286373 0.102743 0.035813
v 1.286373 2.211572 0.035813
v 2.123122 2.211572 0.035813
v 2.123122 0.102743 0.035813
v 1.286373 0.102743 0.006099
v 1.286373 2.211572 0.006099
v 2.123122 2.211572 0.006099
v 2.123122 0.102743 0.006099
v 1.031659 0.000278 -0.001974
v 1.031659 0.000278 0.046691
v 1.031659 0.107924 -0.001974
v 1.031659 0.107924 0.046691
v 2.253684 0.000278 -0.001974
v 2.253684 0.000278 0.046691
v 2.253684 0.107924 -0.001974
v 2.253684 0.107924 0.046691
v 1.031659 0.054021 0.046691
v 1.031659 0.054025 -0.001974
v 0.906343 0.000278 -0.001974
v 0.906343 0.000278 0.046691
v 0.906343 0.054021 0.046691
v 0.906343 0.054025 -0.001974
v -2.135895 2.411393 0.018454
v -2.143974 1.370666 0.018454
v -2.131149 2.411393 0.017445
v -2.139228 1.370666 0.017445
v -2.127224 2.411393 0.014593
v -2.135303 1.370666 0.014593
v -2.124798 2.411393 0.010391
v -2.132877 1.370666 0.010391
v -2.124291 2.411393 0.005566
v -2.132370 1.370666 0.005566
v -2.125790 2.411393 0.000952
v -2.133869 1.370666 0.000952
v -2.129037 2.411393 -0.002654
v -2.137116 1.370666 -0.002654
v -2.133469 2.411393 -0.004627
v -2.141548 1.370666 -0.004628
v -2.138321 2.411393 -0.004627
v -2.146400 1.370666 -0.004628
v -2.142753 2.411393 -0.002654
v -2.150832 1.370666 -0.002654
v -2.146000 2.411393 0.000952
v -2.154079 1.370666 0.000952
v -2.147499 2.411393 0.005566
v -2.155578 1.370666 0.005566
v -2.146992 2.411393 0.010391
v -2.155071 1.370666 0.010391
v -2.144566 2.411393 0.014593
v -2.152645 1.370666 0.014593
v -2.140641 2.411393 0.017445
v -2.148720 1.370666 0.017445
v -2.131459 2.437132 -0.001024
v -2.126713 2.436129 -0.001129
v -2.122787 2.433292 -0.001424
v -2.120361 2.429113 -0.001860
v -2.119854 2.424314 -0.002359
v -2.121354 2.419724 -0.002838
v -2.124600 2.416138 -0.003211
v -2.129033 2.414175 -0.003416
v -2.133884 2.414175 -0.003416
v -2.138317 2.416138 -0.003211
v -2.141563 2.419724 -0.002838
v -2.143063 2.424314 -0.002359
v -2.142556 2.429113 -0.001860
v -2.140130 2.433292 -0.001424
v -2.136204 2.436129 -0.001129
v -2.403209 3.682403 -0.001974
v -2.403209 3.682403 0.121529
v -2.403209 4.184853 -0.001974
v -2.403209 4.184853 0.227990
v -2.117662 3.682403 -0.001974
v -2.117662 3.682403 0.121529
v -2.117662 4.184853 -0.001974
v -2.117662 4.184853 0.227990
v -2.403209 3.922250 0.227990
v -2.117662 3.922244 0.227990
v -2.358965 3.633851 -0.001974
v -2.358965 3.633851 0.076796
v -2.161905 3.633851 0.076796
v -2.161905 3.633851 -0.001974
v -2.358965 3.522392 -0.001974
v -2.358965 3.522392 0.076796
v -2.161905 3.522392 0.076796
v -2.161905 3.522392 -0.001974
v -2.358965 3.336760 -0.001974
v -2.161905 3.336760 -0.001974
v -2.358965 3.356214 0.016670
v -2.358965 3.505853 0.076796
v -2.358965 3.388314 0.016670
v -2.358965 3.420414 0.016670
v -2.358965 3.459501 0.032375
v -2.358965 3.482677 0.054585
v -2.161905 3.505853 0.076796
v -2.161905 3.356214 0.016670
v -2.161905 3.482677 0.054585
v -2.161905 3.459501 0.032375
v -2.161905 3.420414 0.016670
v -2.161905 3.388314 0.016670
v -2.356972 3.632319 0.083147
v -2.164758 3.632319 0.083147
v -2.356972 3.628258 0.064039
v -2.164758 3.628258 0.064039
v -2.356972 3.539386 0.073380
v -2.164758 3.539386 0.073380
v -2.356972 3.539386 0.092915
v -2.164758 3.539386 0.092915
v -2.356972 3.547331 0.110762
v -2.164758 3.547331 0.110762
v -2.356972 3.561849 0.123833
v -2.164758 3.561849 0.123833
v -2.356972 3.580429 0.129870
v -2.164758 3.580429 0.129870
v -2.356972 3.599857 0.127828
v -2.164758 3.599857 0.127828
v -2.356972 3.616775 0.118060
v -2.164758 3.616775 0.118060
v -2.356972 3.628258 0.102256
v -2.164758 3.628258 0.102256
v -2.420399 3.312176 -0.001974
v -2.420399 3.312176 0.006997
v -2.420399 3.335989 -0.001974
v -2.420399 3.335989 0.006997
v -2.149329 3.312176 -0.001974
v -2.149329 3.312176 0.006997
v -2.149329 3.335989 -0.001974
v -2.149329 3.335989 0.006997
v -2.096363 3.335989 0.006997
v -2.096363 3.335989 -0.001974
v -2.096363 3.312176 -0.001974
v -2.096363 3.312176 0.006997
v -2.149329 3.857171 0.006997
v -2.149329 3.857171 -0.001974
v -2.096363 3.857171 0.006997
v -2.096363 3.857171 -0.001974
v -2.061203 2.916957 0.058313
v -2.048125 2.916957 0.048811
v -2.040042 2.916957 0.034812
v -2.038352 2.916957 0.018735
v -2.054164 2.916957 -0.008652
v -2.043348 2.916957 0.003361
v -2.068932 2.916957 -0.015227
v -2.085097 2.916957 -0.015227
v -2.110681 2.916957 0.003361
v -2.099865 2.916957 -0.008652
v -2.115677 2.916957 0.018735
v -2.105905 2.916957 0.048811
v -2.113987 2.916957 0.034812
v -2.115448 -0.001682 0.064719
v -2.095679 2.916957 0.064719
v -2.130886 -0.001682 0.053503
v -2.111116 2.916957 0.053504
v -2.140426 -0.001682 0.036979
v -2.120657 2.916957 0.036979
v -2.142421 -0.001682 0.018002
v -2.122651 2.916957 0.018002
v -2.136524 -0.001682 -0.000146
v -2.116755 2.916957 -0.000146
v -2.123756 -0.001682 -0.014326
v -2.103987 2.916957 -0.014326
v -2.106325 -0.001682 -0.022087
v -2.086555 2.916957 -0.022087
v -2.087243 -0.001682 -0.022087
v -2.067474 2.916957 -0.022087
v -2.069812 -0.001682 -0.014326
v -2.050042 2.916957 -0.014326
v -2.057044 -0.001682 -0.000146
v -2.037274 2.916957 -0.000146
v -2.051147 -0.001682 0.018002
v -2.031378 2.916957 0.018002
v -2.053142 -0.001682 0.036979
v -2.033372 2.916957 0.036979
v -2.062682 -0.001682 0.053503
v -2.042913 2.916957 0.053504
v -2.078120 -0.001682 0.064719
v -2.058350 2.916957 0.064719
v -2.096784 -0.001682 0.068687
v -2.077015 2.916957 0.068687
v -2.092827 2.916957 0.058313
v -2.077015 2.916957 0.061674
v -2.084984 2.619855 0.040698
v -2.077015 2.619855 0.042392
v -2.095649 2.619855 0.028853
v -2.091576 2.619855 0.035909
v -2.096501 2.619855 0.020750
v -2.088531 2.619855 0.006947
v -2.093983 2.619855 0.013002
v -2.072941 2.619855 0.003633
v -2.081089 2.619855 0.003633
v -2.060046 2.619855 0.013002
v -2.065498 2.619855 0.006947
v -2.057528 2.619855 0.020750
v -2.062454 2.619855 0.035909
v -2.058380 2.619855 0.028853
v -2.069045 2.619855 0.040698
v -2.081323 3.333142 0.016046
v -2.084464 3.333142 0.016713
v -2.071895 2.993784 0.016713
v -2.076608 2.575050 0.016713
v -2.068755 2.993784 0.016046
v -2.073468 2.575050 0.016046
v -2.066158 2.993784 0.014159
v -2.070871 2.575050 0.014159
v -2.064552 2.993784 0.011378
v -2.069266 2.575050 0.011378
v -2.064217 2.993784 0.008186
v -2.068930 2.575050 0.008186
v -2.065209 2.993784 0.005132
v -2.069922 2.575050 0.005132
v -2.067357 2.993784 0.002747
v -2.072070 2.575050 0.002747
v -2.070290 2.993784 0.001441
v -2.075003 2.575050 0.001441
v -2.073500 2.993784 0.001441
v -2.078213 2.575050 0.001441
v -2.076433 2.993784 0.002747
v -2.081146 2.575050 0.002747
v -2.078581 2.993784 0.005132
v -2.083294 2.575050 0.005132
v -2.079573 2.993784 0.008186
v -2.084286 2.575050 0.008186
v -2.079237 2.993784 0.011378
v -2.083951 2.575050 0.011378
v -2.077632 2.993784 0.014159
v -2.082345 2.575050 0.014159
v -2.075035 2.993784 0.016046
v -2.079748 2.575050 0.016046
v -2.078726 3.333142 0.014159
v -2.077121 3.333142 0.011378
v -2.076785 3.333142 0.008186
v -2.077778 3.333142 0.005132
v -2.079926 3.333142 0.002747
v -2.082858 3.333142 0.001441
v -2.086069 3.333142 0.001441
v -2.089001 3.333142 0.002747
v -2.091150 3.333142 0.005132
v -2.092142 3.333142 0.008186
v -2.091806 3.333142 0.011378
v -2.090201 3.333142 0.014159
v -2.087604 3.333142 0.016046
v -2.093888 3.725918 0.016046
v -2.090748 3.725918 0.016713
v -2.096485 3.725918 0.014159
v -2.098090 3.725918 0.011378
v -2.098426 3.725918 0.008186
v -2.097434 3.725918 0.005132
v -2.095286 3.725918 0.002747
v -2.092353 3.725918 0.001441
v -2.089143 3.725918 0.001441
v -2.086210 3.725918 0.002747
v -2.084062 3.725918 0.005132
v -2.083070 3.725918 0.008186
v -2.083405 3.725918 0.011378
v -2.085011 3.725918 0.014159
v -2.087608 3.725918 0.016046
v -2.075724 3.784420 0.016046
v -2.073069 3.782743 0.016713
v -2.077920 3.785807 0.014159
v -2.079277 3.786664 0.011378
v -2.079561 3.786843 0.008186
v -2.078722 3.786313 0.005132
v -2.076906 3.785166 0.002747
v -2.074426 3.783600 0.001441
v -2.071712 3.781886 0.001441
v -2.069232 3.780320 0.002747
v -2.067416 3.779174 0.005132
v -2.066577 3.778644 0.008186
v -2.066861 3.778823 0.011378
v -2.068218 3.779680 0.014159
v -2.070414 3.781067 0.016046
v -2.035850 3.824357 0.046002
v -2.033973 3.821839 0.046670
v -2.037402 3.826439 0.044115
v -2.038361 3.827726 0.041335
v -2.038562 3.827995 0.038142
v -2.037969 3.827200 0.035089
v -2.036685 3.825478 0.032703
v -2.034933 3.823126 0.031398
v -2.033014 3.820552 0.031398
v -2.031262 3.818201 0.032703
v -2.029978 3.816478 0.035089
v -2.029385 3.815683 0.038142
v -2.029586 3.815952 0.041335
v -2.030545 3.817239 0.044115
v -2.032097 3.819321 0.046002
v -1.966519 3.846134 0.078042
v -1.966288 3.843002 0.078710
v -1.966710 3.848724 0.076155
v -1.966828 3.850325 0.073375
v -1.966852 3.850659 0.070183
v -1.966779 3.849670 0.067129
v -1.966621 3.847528 0.064744
v -1.966406 3.844603 0.063438
v -1.966170 3.841401 0.063438
v -1.965955 3.838476 0.064744
v -1.965797 3.836334 0.067129
v -1.965724 3.835345 0.070183
v -1.965748 3.835680 0.073375
v -1.965866 3.837280 0.076155
v -1.966057 3.839870 0.078042
v -1.839796 3.843794 0.072050
v -1.838638 3.840875 0.072718
v -1.840753 3.846209 0.070163
v -1.841344 3.847701 0.067383
v -1.841468 3.848013 0.064190
v -1.841103 3.847090 0.061137
v -1.840311 3.845093 0.058751
v -1.839230 3.842367 0.057445
v -1.838047 3.839383 0.057445
v -1.836966 3.836657 0.058751
v -1.836174 3.834660 0.061137
v -1.835808 3.833737 0.064190
v -1.835932 3.834050 0.067383
v -1.836524 3.835542 0.070163
v -1.837481 3.837956 0.072050
v -1.801858 3.858490 0.090688
v -1.799360 3.856586 0.091355
v -1.803923 3.860065 0.088801
v -1.805199 3.861038 0.086021
v -1.805466 3.861242 0.082828
v -1.804677 3.860640 0.079775
v -1.802969 3.859338 0.077389
v -1.800637 3.857559 0.076083
v -1.798084 3.855613 0.076083
v -1.795752 3.853835 0.077389
v -1.794044 3.852532 0.079775
v -1.793255 3.851931 0.082828
v -1.793522 3.852134 0.086021
v -1.794798 3.853108 0.088801
v -1.796863 3.854682 0.090688
v -1.779736 3.946699 0.216587
v -1.776614 3.946358 0.217254
v -1.782318 3.946982 0.214700
v -1.783913 3.947156 0.211919
v -1.784247 3.947193 0.208727
v -1.783261 3.947085 0.205673
v -1.781125 3.946851 0.203288
v -1.778210 3.946532 0.201982
v -1.775019 3.946183 0.201982
v -1.772103 3.945864 0.203288
v -1.769968 3.945631 0.205673
v -1.768981 3.945523 0.208727
v -1.769315 3.945560 0.211919
v -1.770911 3.945734 0.214700
v -1.773493 3.946017 0.216587
v -1.729635 4.018990 0.216585
v -1.726513 4.018648 0.217252
v -1.732216 4.019272 0.214698
v -1.733811 4.019446 0.211917
v -1.734145 4.019483 0.208725
v -1.733159 4.019375 0.205671
v -1.731024 4.019141 0.203286
v -1.728108 4.018823 0.201980
v -1.724917 4.018474 0.201980
v -1.722002 4.018154 0.203286
v -1.719867 4.017920 0.205671
v -1.718880 4.017813 0.208725
v -1.719214 4.017850 0.211917
v -1.720810 4.018024 0.214698
v -1.723391 4.018307 0.216585
v -1.724691 4.134608 0.250837
v -1.721570 4.134266 0.251504
v -1.727273 4.134890 0.248950
v -1.728868 4.135065 0.246170
v -1.729202 4.135101 0.242977
v -1.728216 4.134994 0.239924
v -1.726080 4.134760 0.237538
v -1.723165 4.134441 0.236232
v -1.719974 4.134092 0.236232
v -1.717059 4.133773 0.237538
v -1.714923 4.133539 0.239924
v -1.713937 4.133431 0.242977
v -1.714271 4.133468 0.246170
v -1.715867 4.133643 0.248950
v -1.718448 4.133925 0.250837
v -1.723498 4.154673 0.206934
v -1.720376 4.155317 0.207317
v -1.726079 4.152806 0.206535
v -1.727675 4.150043 0.206187
v -1.728009 4.146858 0.205951
v -1.727023 4.143805 0.205868
v -1.724887 4.141409 0.205952
v -1.721972 4.140086 0.206189
v -1.718781 4.140064 0.206538
v -1.715865 4.141347 0.206937
v -1.713730 4.143714 0.207320
v -1.712743 4.146754 0.207618
v -1.713077 4.149943 0.207780
v -1.714673 4.152729 0.207780
v -1.717255 4.154630 0.207616
v -1.724655 4.165224 0.236172
v -1.718687 4.163955 0.236172
v -1.724655 4.167510 0.201663
v -1.724655 4.167510 0.236172
v -1.717757 4.166043 0.201663
v -1.717757 4.166043 0.236172
v -1.712052 4.161899 0.201663
v -1.712052 4.161899 0.236172
v -1.708526 4.155791 0.201663
v -1.708526 4.155791 0.236172
v -1.707789 4.148778 0.201663
v -1.707789 4.148778 0.236172
v -1.709968 4.142072 0.201663
v -1.709968 4.142072 0.236172
v -1.714687 4.136831 0.201663
v -1.714687 4.136831 0.236172
v -1.721129 4.133963 0.201663
v -1.721129 4.133963 0.236172
v -1.728181 4.133963 0.201663
v -1.728181 4.133963 0.236172
v -1.734623 4.136831 0.201663
v -1.734623 4.136831 0.236172
v -1.739342 4.142072 0.201663
v -1.739342 4.142072 0.236172
v -1.741521 4.148778 0.201663
v -1.741521 4.148778 0.236172
v -1.740784 4.155791 0.201663
v -1.740784 4.155791 0.236172
v -1.737258 4.161899 0.201663
v -1.737258 4.161899 0.236172
v -1.731553 4.166043 0.201663
v -1.731553 4.166043 0.236172
v -1.713751 4.160369 0.236172
v -1.710701 4.155085 0.236172
v -1.710063 4.149017 0.236172
v -1.711948 4.143214 0.236172
v -1.716031 4.138680 0.236172
v -1.721604 4.134567 0.235357
v -1.727706 4.134567 0.235357
v -1.733279 4.138680 0.236172
v -1.737362 4.143214 0.236172
v -1.739247 4.149017 0.236172
v -1.738609 4.155085 0.236172
v -1.735559 4.160369 0.236172
v -1.730623 4.163955 0.236172
v -1.724655 4.163496 0.203744
v -1.729920 4.162377 0.203744
v -1.734275 4.159213 0.203744
v -1.736967 4.154551 0.203744
v -1.737529 4.149198 0.203744
v -1.735866 4.144078 0.203744
v -1.732264 4.140078 0.203744
v -1.727346 4.137889 0.203744
v -1.721964 4.137889 0.203744
v -1.717046 4.140078 0.203744
v -1.713444 4.144078 0.203744
v -1.711781 4.149198 0.203744
v -1.712343 4.154551 0.203744
v -1.715035 4.159213 0.203744
v -1.719390 4.162377 0.203744
v -1.715959 4.089116 0.209652
v -1.716293 4.089153 0.212844
v -1.731225 4.090786 0.209652
v -1.730239 4.090678 0.206598
v -1.717889 4.089327 0.215625
v -1.728103 4.090445 0.204213
v -1.720471 4.089610 0.217512
v -1.725188 4.090126 0.202907
v -1.723592 4.089951 0.218179
v -1.721997 4.089777 0.202907
v -1.726714 4.090292 0.217512
v -1.719081 4.089458 0.204213
v -1.729295 4.090575 0.215625
v -1.716946 4.089224 0.206598
v -1.730891 4.090750 0.212844
v -2.293239 0.078435 0.044143
v -2.278072 0.075211 0.044143
v -2.293239 0.084245 -0.003073
v -2.293239 0.084245 0.044143
v -2.275709 0.080518 -0.003073
v -2.275709 0.080518 0.044143
v -2.261210 0.069984 -0.003073
v -2.261210 0.069984 0.044143
v -2.252249 0.054464 -0.003073
v -2.252249 0.054464 0.044143
v -2.250376 0.036641 -0.003073
v -2.250376 0.036641 0.044143
v -2.255914 0.019596 -0.003073
v -2.255914 0.019596 0.044143
v -2.267906 0.006278 -0.003073
v -2.267906 0.006278 0.044143
v -2.284278 -0.001011 -0.003073
v -2.284278 -0.001011 0.044143
v -2.302200 -0.001011 -0.003073
v -2.302200 -0.001011 0.044143
v -2.318572 0.006278 -0.003073
v -2.318572 0.006278 0.044143
v -2.330564 0.019596 -0.003073
v -2.330564 0.019596 0.044143
v -2.336102 0.036641 -0.003073
v -2.336102 0.036641 0.044143
v -2.334228 0.054464 -0.003073
v -2.334228 0.054464 0.044143
v -2.325268 0.069984 -0.003073
v -2.325268 0.069984 0.044143
v -2.310769 0.080518 -0.003073
v -2.310769 0.080518 0.044143
v -2.265528 0.066097 0.044143
v -2.257775 0.052668 0.044143
v -2.256154 0.037248 0.044143
v -2.260945 0.022501 0.044143
v -2.271321 0.010978 0.044143
v -2.285486 0.000525 0.042070
v -2.300992 0.000525 0.042070
v -2.315157 0.010978 0.044143
v -2.325533 0.022501 0.044143
v -2.330324 0.037248 0.044143
v -2.328703 0.052668 0.044143
v -2.320950 0.066097 0.044143
v -2.308406 0.075211 0.044143
v -2.293239 0.074045 0.002216
v -2.306620 0.071200 0.002216
v -2.317688 0.063159 0.002216
v -2.324528 0.051312 0.002216
v -2.325958 0.037706 0.002216
v -2.321730 0.024696 0.002216
v -2.312577 0.014530 0.002216
v -2.300079 0.008966 0.002216
v -2.286399 0.008966 0.002216
v -2.273901 0.014530 0.002216
v -2.264747 0.024696 0.002216
v -2.260520 0.037706 0.002216
v -2.261950 0.051312 0.002216
v -2.268790 0.063159 0.002216
v -2.279858 0.071200 0.002216
v 1.305573 0.961220 0.005277
v 1.305573 0.961220 0.018543
v 1.305573 0.974486 0.005277
v 1.305573 0.974486 0.018543
v 1.318839 0.961220 0.005277
v 1.318839 0.961220 0.018543
v 1.318839 0.974486 0.005277
v 1.318839 0.974486 0.018543
v 1.334118 0.976876 0.013914
v 1.334118 0.976876 0.009907
v 1.334118 0.972870 0.009907
v 1.334118 0.972870 0.013914
v 1.357861 0.969031 0.013914
v 1.357861 0.969031 0.009907
v 1.357861 0.965024 0.009907
v 1.357861 0.965024 0.013914
v 1.374585 0.961391 0.013914
v 1.374585 0.961391 0.009907
v 1.374585 0.957385 0.009907
v 1.374585 0.957385 0.013914
v 1.389038 0.962630 0.013914
v 1.389038 0.962630 0.009907
v 1.389038 0.958623 0.009907
v 1.389038 0.958623 0.013914
v 1.399000 0.970325 0.013914
v 1.399000 0.970325 0.009907
v 1.401787 0.967446 0.009907
v 1.401787 0.967446 0.013914
vn -0.0000 -0.0000 1.0000
vn -1.0000 -0.0000 -0.0000
vn -0.0000 1.0000 -0.0000
vn 1.0000 -0.0000 -0.0000
vn -0.0000 -1.0000 -0.0000
vn -0.0000 -0.8172 0.5763
vn 0.4067 -0.0000 0.9135
vn 0.7431 -0.0000 0.6691
vn 0.9511 -0.0000 0.3090
vn 0.9945 -0.0000 -0.1045
vn 0.8660 -0.0000 -0.5000
vn 0.5878 -0.0000 -0.8090
vn 0.2079 -0.0000 -0.9781
vn -0.2079 -0.0000 -0.9781
vn -0.5878 -0.0000 -0.8090
vn -0.8660 -0.0000 -0.5000
vn -0.9945 -0.0000 -0.1045
vn -0.9511 -0.0000 0.3090
vn -0.7431 -0.0000 0.6691
vn -0.4067 -0.0000 0.9135
vn -0.0000 1.0000 0.0001
vn -0.0000 -0.0000 -1.0000
vn 0.0010 -0.0000 1.0000
vn -0.0010 -0.0000 1.0000
vn 0.4059 -0.0032 0.9139
vn 0.3588 0.2731 0.8926
vn 0.7427 -0.0058 0.6696
vn 0.6779 0.2005 0.7073
vn 0.9509 -0.0074 0.3093
vn 0.9094 0.0693 0.4101
vn 0.9945 -0.0077 -0.1046
vn 0.9925 -0.1213 0.0176
vn 0.8657 -0.0067 -0.5004
vn 0.8619 -0.2874 -0.4178
vn 0.5871 -0.0046 -0.8095
vn 0.4710 -0.1107 -0.8752
vn 0.2069 -0.0016 -0.9784
vn 0.1341 0.1452 -0.9803
vn -0.2089 0.0016 -0.9779
vn -0.1742 0.1516 -0.9730
vn -0.5885 0.0046 -0.8085
vn -0.5054 0.0615 -0.8607
vn -0.8663 0.0067 -0.4995
vn -0.8130 0.0299 -0.5815
vn -0.9945 0.0077 -0.1044
vn -0.9826 0.0993 -0.1568
vn -0.9511 0.0074 0.3087
vn -0.9344 0.2041 0.2921
vn -0.7436 0.0058 0.6686
vn -0.7073 0.2779 0.6500
vn -0.4076 0.0032 0.9132
vn -0.4059 0.0032 0.9139
vn 0.9574 -0.0986 0.2712
vn 0.8418 0.1586 0.5160
vn -0.0000 0.1036 -0.9946
vn 0.0385 0.0564 -0.9977
vn 0.1372 -0.0359 -0.9899
vn -0.0275 0.2552 -0.9665
vn -0.1879 0.1484 -0.9709
vn -0.3075 0.6064 0.7333
vn -0.2706 0.6091 0.7455
vn -0.5670 0.5600 0.6041
vn 0.5846 0.3982 0.7069
vn 0.2981 0.5359 0.7899
vn -0.9668 0.2518 -0.0428
vn 0.8601 -0.4734 -0.1902
vn 0.8888 -0.4407 -0.1262
vn -0.7342 0.0536 -0.6769
vn -0.0150 0.6036 0.7972
vn 0.0147 0.6003 0.7997
vn -0.7874 0.4651 0.4047
vn 0.6326 -0.5943 -0.4966
vn -0.8393 0.0521 -0.5412
vn -0.0000 -0.5167 0.8562
vn -0.0000 -0.6776 0.7354
vn -0.0000 -0.2074 0.9783
vn 0.7391 -0.6736 -0.0000
vn -0.7391 -0.6735 -0.0000
vn -0.0000 -0.6919 0.7220
vn -0.0000 -0.5422 0.8402
vn -0.0000 -0.1899 0.9818
vn -0.0000 0.9781 -0.2079
vn -0.0000 -0.9781 0.2079
vn -0.0000 -0.8090 0.5878
vn -0.0000 -0.5000 0.8660
vn -0.0000 -0.1045 0.9945
vn -0.0000 0.3090 0.9511
vn -0.0000 0.6691 0.7431
vn -0.0000 0.9135 0.4067
vn -0.7416 0.0648 -0.6677
vn -0.9491 0.0648 -0.3084
vn -0.2071 0.0014 -0.9783
vn -0.2088 0.0014 -0.9780
vn -0.5884 0.0040 -0.8086
vn -0.5872 0.0040 -0.8094
vn -0.5866 0.0648 0.8073
vn -0.2075 0.0648 0.9761
vn 0.5884 -0.0040 -0.8086
vn 0.5872 -0.0040 -0.8094
vn 0.2071 -0.0014 -0.9783
vn 0.2088 -0.0014 -0.9780
vn -0.4059 0.0648 -0.9116
vn 0.9945 -0.0067 -0.1044
vn 0.9945 -0.0067 -0.1046
vn 0.8658 -0.0059 -0.5004
vn 0.8662 -0.0059 -0.4996
vn 0.2075 0.0648 0.9761
vn 0.7435 -0.0050 0.6687
vn 0.7427 -0.0050 0.6696
vn 0.9510 -0.0064 0.3093
vn 0.9511 -0.0064 0.3087
vn 0.7416 0.0648 -0.6677
vn 0.4059 0.0648 -0.9116
vn 0.8642 0.0648 0.4989
vn 0.9924 0.0648 0.1043
vn 0.0009 -0.0000 1.0000
vn -0.0009 -0.0000 1.0000
vn 0.4060 -0.0027 0.9139
vn 0.4075 -0.0028 0.9132
vn -0.8662 0.0059 -0.4996
vn -0.8658 0.0059 -0.5004
vn -0.0000 0.0648 -0.9979
vn -0.9924 0.0648 0.1043
vn -0.8642 0.0648 0.4989
vn 0.9491 0.0648 -0.3084
vn 0.5866 0.0648 0.8073
vn -0.9945 0.0067 -0.1044
vn -0.9945 0.0067 -0.1046
vn -0.9511 0.0064 0.3087
vn -0.9510 0.0064 0.3093
vn -0.7435 0.0050 0.6687
vn -0.7427 0.0050 0.6696
vn -0.4075 0.0028 0.9132
vn -0.4060 0.0027 0.9139
vn 0.2066 0.0054 -0.9784
vn -0.2092 -0.0056 -0.9778
vn -0.2268 0.0360 -0.9733
vn 0.1870 -0.0247 -0.9821
vn 0.8668 0.0111 -0.4986
vn 0.5899 0.0076 -0.8075
vn 0.5868 0.0155 -0.8096
vn 0.8654 0.0230 -0.5005
vn 0.0032 0.0001 1.0000
vn -0.0015 -0.0000 1.0000
vn 0.4055 -0.0046 0.9141
vn 0.4094 0.0053 0.9123
vn 0.9942 0.0264 -0.1047
vn 0.8530 -0.1255 -0.5065
vn 0.9837 -0.1453 -0.1060
vn 0.7445 0.0096 0.6675
vn 0.9513 0.0122 0.3081
vn 0.9506 0.0252 0.3094
vn 0.7424 0.0197 0.6697
vn 0.7424 -0.0084 0.6699
vn -0.7436 -0.0197 0.6683
vn -0.4079 -0.0108 0.9130
vn -0.4218 0.0635 0.9045
vn -0.7467 0.1076 0.6565
vn -0.4041 -0.0052 0.9147
vn -0.0014 -0.0001 1.0000
vn 0.9508 -0.0107 0.3095
vn 0.4056 0.0107 0.9140
vn 0.3872 -0.0547 0.9204
vn -0.0209 0.0061 0.9998
vn -0.9507 -0.0123 0.3099
vn -0.7417 -0.0096 0.6707
vn -0.9509 -0.0252 0.3085
vn 0.9944 -0.0112 -0.1047
vn 0.9945 0.0128 -0.1042
vn 0.9395 -0.1386 0.3133
vn -0.5857 -0.0075 -0.8105
vn -0.8652 -0.0112 -0.5014
vn -0.8661 -0.0229 -0.4993
vn -0.5886 -0.0156 -0.8083
vn 0.8656 -0.0097 -0.5006
vn 0.5705 -0.0825 -0.8172
vn 0.2110 0.0028 -0.9775
vn 0.5868 -0.0066 -0.8097
vn 0.2065 -0.0023 -0.9784
vn -0.8637 0.1228 -0.4889
vn -0.5974 0.0876 -0.7971
vn -0.2093 0.0024 -0.9778
vn -0.2049 -0.0026 -0.9788
vn -0.9442 0.1330 0.3014
vn -0.9944 -0.0129 -0.1048
vn -0.9942 -0.0263 -0.1043
vn -0.5887 0.0066 -0.8083
vn 0.7282 -0.1065 0.6771
vn -0.8664 0.0098 -0.4993
vn -0.9945 0.0112 -0.1044
vn -0.9511 0.0107 0.3086
vn 0.3725 -0.1162 0.9207
vn -0.1979 -0.1722 0.9650
vn -0.7438 0.0084 0.6683
vn -0.9852 0.1382 -0.1018
vn -0.4080 0.0046 0.9130
vn -0.0407 0.2837 -0.9581
vn -0.1119 0.6632 -0.7400
vn -0.0214 0.6795 -0.7334
vn 0.2290 0.4270 -0.8748
vn 0.3040 0.0910 -0.9483
vn -0.5146 0.0546 0.8557
vn 0.5984 -0.1090 -0.7938
vn -0.7427 0.2716 0.6121
vn 0.8007 -0.3030 -0.5168
vn -0.8540 0.4471 0.2661
vn 0.8721 -0.4691 -0.1394
vn -0.8278 0.5448 -0.1340
vn 0.9080 -0.2839 0.3083
vn -0.8426 0.2611 -0.4709
vn 0.7068 -0.2208 0.6720
vn -0.5967 0.1851 -0.7808
vn -0.1682 -0.5295 0.8315
vn 0.0742 -0.7707 0.6329
vn -0.0342 -0.7479 0.6629
vn -0.1125 -0.4355 0.8931
vn -0.0412 -0.5895 0.8067
vn -0.3709 -0.2173 0.9029
vn 0.4450 0.1159 -0.8880
vn -0.5248 0.1300 0.8413
vn 0.5993 -0.2325 -0.7660
vn -0.6119 0.4684 0.6373
vn 0.6496 -0.5768 -0.4953
vn -0.6052 0.7354 0.3047
vn 0.5544 -0.8259 -0.1022
vn -0.4871 0.8682 -0.0944
vn 0.5780 -0.7780 0.2461
vn 0.3353 -0.8899 0.3092
vn -0.3975 0.7670 -0.5037
vn -0.2759 0.8413 -0.4649
vn 0.2811 -0.7542 0.5934
vn 0.0437 0.6519 -0.7570
vn -0.0507 0.8921 -0.4490
vn -0.0476 0.8690 -0.4925
vn 0.0282 0.6281 -0.7776
vn 0.1357 0.2963 -0.9454
vn -0.1732 -0.0463 0.9838
vn 0.2094 -0.1265 -0.9696
vn -0.4705 0.2503 0.8461
vn 0.5011 -0.4343 -0.7485
vn -0.2201 0.7047 0.6745
vn 0.2249 -0.8474 -0.4810
vn -0.1932 0.9254 0.3260
vn 0.1541 -0.9853 -0.0733
vn -0.1338 0.9885 -0.0699
vn 0.0587 -0.9428 0.3281
vn 0.0563 -0.8004 0.5969
vn 0.1517 -0.9536 0.2600
vn 0.3113 -0.8911 0.3301
vn 0.2806 -0.7954 0.5373
vn -0.0487 -0.5274 0.8482
vn 0.1047 0.2870 -0.9522
vn -0.1510 -0.1515 0.9768
vn 0.1806 -0.1153 -0.9768
vn 0.0507 0.4349 0.8990
vn 0.0507 0.3864 0.9210
vn -0.0455 -0.6022 -0.7970
vn -0.0446 -0.6374 -0.7692
vn 0.0466 0.7394 0.6717
vn -0.0330 -0.8843 -0.4657
vn -0.2069 0.9359 0.2852
vn 0.2241 -0.9659 -0.1298
vn -0.1280 0.9834 -0.1283
vn 0.7268 -0.6031 0.3288
vn 0.4728 -0.6239 0.6223
vn -0.1999 0.8658 -0.4586
vn 0.0225 0.7630 -0.6460
vn -0.0362 -0.7239 0.6889
vn 0.2501 0.5846 -0.7718
vn -0.3020 -0.5729 0.7620
vn 0.4289 -0.0207 -0.9031
vn -0.4847 0.1664 0.8587
vn -0.4543 0.0578 0.8890
vn 0.5021 -0.3321 -0.7985
vn 0.5163 -0.4391 -0.7353
vn -0.5298 0.5783 0.6204
vn -0.5304 0.4594 0.7124
vn 0.5193 -0.6746 -0.5246
vn 0.5057 -0.7554 -0.4166
vn -0.4833 0.7938 0.3692
vn 0.4085 -0.9117 -0.0444
vn -0.3248 0.9447 -0.0461
vn -0.6901 0.6069 -0.3942
vn -0.9177 0.3957 -0.0356
vn -0.8179 0.5669 -0.0983
vn -0.8133 0.2847 -0.5074
vn -0.3703 0.6502 -0.6634
vn -0.0456 -0.8053 0.5911
vn 0.1639 0.7916 -0.5887
vn -0.2902 -0.7535 0.5900
vn 0.4248 0.6962 -0.5786
vn 0.4364 0.6903 -0.5770
vn -0.5427 -0.6400 0.5440
vn -0.5016 -0.6635 0.5550
vn 0.6316 0.5655 -0.5303
vn 0.6924 0.5141 -0.5063
vn -0.7941 -0.4277 0.4318
vn -0.7071 -0.5178 0.4815
vn 0.8352 0.3548 -0.4201
vn 0.9242 0.2006 -0.3250
vn -0.8637 -0.3345 0.3770
vn 0.9577 0.1103 -0.2657
vn -0.9900 0.1026 0.0970
vn -0.8440 0.4819 0.2355
vn 0.9217 -0.3746 0.1008
vn 0.8718 -0.4897 -0.0131
vn -0.7448 0.6027 -0.2865
vn 0.9541 -0.1290 0.2703
vn 0.9895 0.0252 -0.1422
vn 0.9988 0.0404 0.0280
vn 0.8992 -0.2708 0.3435
vn 0.9075 -0.3010 0.2929
vn 0.7239 -0.2511 0.6425
vn -0.5393 0.1907 -0.8202
vn 0.3210 -0.2224 0.9206
vn 0.4187 -0.1581 0.8943
vn -0.2487 0.1724 -0.9531
vn -0.1658 0.0570 -0.9845
vn -0.0612 0.0425 0.9972
vn 0.0344 -0.0278 0.9990
vn 0.1338 -0.0928 -0.9867
vn 0.2341 -0.0840 -0.9686
vn -0.4159 0.2883 0.8625
vn -0.3632 0.1154 0.9245
vn 0.4862 -0.3370 -0.8063
vn 0.5855 -0.1998 -0.7857
vn -0.6639 0.4601 0.5895
vn -0.6954 0.2356 0.6789
vn 0.7204 -0.4993 -0.4813
vn 0.8338 -0.2753 -0.4786
vn -0.8986 0.3079 0.3125
vn 0.8188 -0.5675 -0.0866
vn -0.9933 0.1156 0.0046
vn -0.9271 -0.1853 0.3257
vn -0.9840 0.1755 0.0305
vn -0.8199 0.2371 -0.5210
vn -0.9828 0.1141 -0.1453
vn -0.8402 0.3499 -0.4144
vn 0.7276 -0.2599 0.6349
vn 0.5769 -0.5076 0.6400
vn -0.5269 0.3014 -0.7947
vn -0.5029 0.5341 -0.6796
vn 0.3138 -0.5798 0.7519
vn 0.2477 -0.5895 0.7689
vn -0.0867 0.6013 -0.7943
vn -0.1252 0.5999 -0.7902
vn -0.0593 -0.5982 0.7991
vn -0.0702 -0.5975 0.7988
vn 0.2236 0.5793 -0.7839
vn 0.2394 0.5765 -0.7812
vn -0.4328 -0.2882 0.8542
vn -0.3742 -0.5464 0.7493
vn 0.5743 0.2409 -0.7824
vn 0.5842 0.4706 -0.6613
vn -0.7609 -0.1913 0.6200
vn -0.6638 -0.4299 0.6120
vn 0.8461 0.1530 -0.5106
vn 0.8745 0.2653 -0.4059
vn -0.9629 -0.0466 0.2659
vn -0.6407 0.7652 0.0633
vn -0.8648 0.4993 0.0532
vn -0.6367 0.7685 0.0637
vn 0.9894 0.1208 0.0808
vn -0.8488 -0.5024 -0.1649
vn -0.8987 -0.4124 -0.1495
vn -0.7869 -0.5905 -0.1791
vn 0.5486 0.7514 0.3667
vn 0.7722 0.5711 0.2785
vn 0.5983 0.7201 0.3513
vn -0.5025 -0.8399 -0.2053
vn -0.4642 -0.8618 -0.2046
vn 0.2845 0.8627 0.4182
vn 0.3008 0.8581 0.4162
vn -0.1903 -0.9617 -0.1971
vn -0.1816 -0.9635 -0.1969
vn 0.0314 0.9035 0.4275
vn 0.0218 0.9039 0.4272
vn 0.1006 -0.9743 -0.2016
vn 0.0833 -0.9761 -0.2007
vn -0.2238 0.8886 0.4005
vn -0.2602 0.8817 0.3936
vn 0.4403 -0.8729 -0.2103
vn 0.3908 -0.8961 -0.2103
vn -0.4956 0.8021 0.3331
vn -0.5681 0.7631 0.3081
vn 0.8252 -0.5454 -0.1471
vn 0.7546 -0.6344 -0.1677
vn -0.7395 0.6323 0.2310
vn 0.8834 -0.4515 -0.1251
vn 0.4067 0.9135 -0.0000
vn -0.9497 -0.3086 0.0532
vn -0.7421 -0.6682 0.0532
vn 0.0889 0.0960 0.9914
vn 0.1762 0.1904 0.9658
vn 0.0831 0.0898 0.9925
vn 0.7431 0.6691 -0.0000
vn 0.9497 -0.3086 0.0532
vn 0.9931 0.1044 0.0532
vn -0.0889 0.0961 0.9914
vn -0.0831 0.0898 0.9925
vn 0.9511 0.3090 -0.0000
vn -0.4061 -0.9123 0.0532
vn 0.9945 -0.1045 -0.0000
vn -0.9931 0.1044 0.0532
vn 0.8660 -0.5000 -0.0000
vn -0.0000 0.9945 0.1045
vn 0.5878 -0.8090 -0.0000
vn 0.8648 0.4993 0.0532
vn 0.2079 -0.9781 -0.0000
vn 0.4062 -0.9123 0.0532
vn 0.7421 -0.6682 0.0532
vn -0.1762 0.1905 0.9657
vn -0.2079 -0.9781 -0.0000
vn -0.0000 -0.9986 0.0532
vn -0.5878 -0.8090 -0.0000
vn -0.8660 -0.5000 -0.0000
vn -0.5178 0.8523 0.0739
vn -0.9945 -0.1045 -0.0000
vn -0.9511 0.3090 -0.0000
vn 0.6407 0.7652 0.0633
vn 0.6367 0.7685 0.0637
vn -0.0000 0.8035 0.5953
vn -0.7431 0.6691 -0.0000
vn -0.4067 0.9135 -0.0000
vn 0.5177 0.8523 0.0739
vn -0.9934 0.0421 -0.1069
vn 0.9937 -0.0393 -0.1051
vn 0.2012 0.0045 -0.9795
vn -0.0104 -0.0126 0.9999
vn -0.2158 0.0215 -0.9762
vn 0.3978 -0.0282 0.9170
vn -0.6386 0.7594 0.1244
vn -0.8613 0.4973 0.1041
vn -0.6351 0.7622 0.1251
vn -0.9459 -0.3073 0.1041
vn -0.7391 -0.6655 0.1041
vn 0.9459 -0.3074 0.1041
vn 0.9891 0.1040 0.1041
vn -0.0889 0.0960 0.9914
vn -0.4045 -0.9086 0.1041
vn -0.9891 0.1039 0.1041
vn -0.0000 0.8998 0.4363
vn -0.0000 0.9783 0.2072
vn 0.8613 0.4973 0.1041
vn 0.4045 -0.9086 0.1041
vn 0.7391 -0.6655 0.1041
vn -0.1762 0.1904 0.9658
vn -0.0000 -0.9946 0.1041
vn -0.5178 0.8430 0.1457
vn 0.6386 0.7594 0.1244
vn 0.6351 0.7622 0.1251
vn -0.0000 0.8034 0.5954
vn 0.5177 0.8430 0.1457
vn -0.0696 0.9976 -0.0000
vn 0.1532 -0.0000 0.9882
vn 0.1097 -0.0000 0.9940
vn 0.1577 -0.0000 0.9875
vn 0.1559 -0.0000 0.9878
vn 0.1532 -0.0000 -0.9882
vn 0.1097 -0.0000 -0.9940
vn 0.0615 0.9981 -0.0000
vn 0.6063 -0.7952 -0.0000
vn 0.1559 -0.0000 -0.9878
vn 0.1577 -0.0000 -0.9875
vn -0.3652 -0.9309 -0.0000
vn -0.1707 -0.9853 -0.0000
vn 0.3652 0.9309 -0.0000
vn -0.3137 -0.9495 -0.0000
vn 0.1707 0.9853 -0.0000
vn -0.0854 0.9963 -0.0000
vn 0.3386 -0.9409 -0.0000
vn 0.7186 0.6955 -0.0000
vn -0.6113 0.7914 -0.0000
vn 0.5690 -0.8223 -0.0000
vt 0.000006 0.000443
vt 1.000000 0.000443
vt 0.000006 0.999893
vt 1.000000 0.999893
vt 0.094137 0.590332
vt 0.103980 0.601358
vt 0.094137 0.590332
vt 0.094137 0.908062
vt 0.103980 0.908062
vt 0.094137 0.908062
vt 0.947392 0.590332
vt 0.925860 0.601358
vt 0.947392 0.590332
vt 0.947392 0.908062
vt 0.925860 0.908062
vt 0.947392 0.908062
vt 0.094137 0.000483
vt 0.102926 0.000483
vt 0.094137 0.000483
vt 0.094137 0.196290
vt 0.094137 0.195555
vt 0.102926 0.196290
vt 0.094137 0.188939
vt 0.094137 0.195922
vt 0.641869 0.000483
vt 0.627221 0.000483
vt 0.641869 0.000483
vt 0.641869 0.195555
vt 0.641869 0.196290
vt 0.641869 0.188939
vt 0.627221 0.196290
vt 0.641869 0.193838
vt 0.000000 0.907944
vt 0.019686 0.942753
vt 0.000000 0.942753
vt 0.000000 0.999833
vt 0.000000 0.981746
vt 0.019686 0.999833
vt 0.000000 0.948491
vt 0.000000 0.999833
vt 0.999902 0.907944
vt 0.962304 0.942753
vt 0.999902 0.942753
vt 0.999902 0.981746
vt 0.999902 0.999833
vt 0.999902 0.948491
vt 0.962304 0.999833
vt 0.999902 0.999833
vt 0.941938 0.578802
vt 0.944136 0.581427
vt 0.941938 0.578802
vt 0.941938 0.633157
vt 0.944136 0.630531
vt 0.941938 0.633157
vt 0.999683 0.578802
vt 0.999683 0.581427
vt 0.998462 0.581427
vt 0.999683 0.578802
vt 0.999683 0.633157
vt 0.998462 0.630531
vt 0.999683 0.630531
vt 0.999683 0.633157
vt 0.099804 0.803632
vt 0.099804 0.803632
vt 0.963130 0.579477
vt 0.963130 0.328186
vt 0.964079 0.579477
vt 0.964079 0.328186
vt 0.964864 0.579477
vt 0.964864 0.328186
vt 0.965349 0.579477
vt 0.965349 0.328186
vt 0.965450 0.579477
vt 0.965450 0.328186
vt 0.965150 0.579477
vt 0.965150 0.328186
vt 0.964501 0.579477
vt 0.964501 0.328186
vt 0.963615 0.579477
vt 0.963615 0.328186
vt 0.962644 0.579477
vt 0.962644 0.328186
vt 0.961758 0.579477
vt 0.961758 0.328186
vt 0.961108 0.579477
vt 0.961108 0.328186
vt 0.960808 0.579477
vt 0.960808 0.328186
vt 0.960910 0.579477
vt 0.960910 0.328186
vt 0.961395 0.579477
vt 0.961395 0.328186
vt 0.962180 0.579477
vt 0.962180 0.328186
vt 0.099804 0.886918
vt 0.099804 0.897209
vt 0.099804 0.886918
vt 0.999683 0.803632
vt 0.999683 0.803632
vt 0.999683 0.886918
vt 0.999683 0.897209
vt 0.999683 0.886918
vt 0.999683 0.919319
vt 0.999683 0.919319
vt 0.099804 0.919319
vt 0.099804 0.919319
vt 0.099804 0.886918
vt 0.999683 0.886918
vt 0.099804 0.919319
vt 0.999683 0.919319
vt 0.743475 0.023690
vt 0.749627 0.023690
vt 0.743475 0.023690
vt 0.743475 0.543777
vt 0.749627 0.543777
vt 0.743475 0.534221
vt 0.743475 0.543777
vt 0.938429 0.023690
vt 0.932892 0.023690
vt 0.938429 0.023690
vt 0.938429 0.543777
vt 0.938429 0.534221
vt 0.932892 0.543777
vt 0.938429 0.543777
vt 0.752355 0.024943
vt 0.757277 0.024943
vt 0.757277 0.528660
vt 0.752355 0.536011
vt 0.924626 0.528660
vt 0.929548 0.536011
vt 0.929548 0.024943
vt 0.924626 0.024943
vt 0.757277 0.024943
vt 0.757277 0.528660
vt 0.924626 0.528660
vt 0.924626 0.024943
vt 0.706334 0.000468
vt 0.706334 0.000468
vt 0.706334 0.022321
vt 0.706334 0.026181
vt 0.706334 0.013500
vt 0.706334 0.023424
vt 0.713255 0.026181
vt 0.950739 0.000468
vt 0.939511 0.000468
vt 0.950739 0.000468
vt 0.950739 0.022321
vt 0.950739 0.026181
vt 0.950739 0.013500
vt 0.939511 0.026181
vt 0.950739 0.023424
vt 0.713255 0.009078
vt 0.706334 0.013305
vt 0.706334 0.013306
vt 0.681271 0.000468
vt 0.688039 0.000468
vt 0.681271 0.000468
vt 0.688039 0.009078
vt 0.681271 0.013305
vt 0.681271 0.013306
vt 0.072825 0.576390
vt 0.071209 0.327800
vt 0.073774 0.576390
vt 0.072159 0.327800
vt 0.074559 0.576390
vt 0.072944 0.327800
vt 0.075045 0.576390
vt 0.073429 0.327800
vt 0.075146 0.576390
vt 0.073530 0.327800
vt 0.074846 0.576390
vt 0.073230 0.327800
vt 0.074197 0.576390
vt 0.072581 0.327800
vt 0.073310 0.576390
vt 0.071695 0.327800
vt 0.072340 0.576390
vt 0.070724 0.327800
vt 0.071454 0.576390
vt 0.069838 0.327800
vt 0.070804 0.576390
vt 0.069188 0.327800
vt 0.070504 0.576390
vt 0.068889 0.327800
vt 0.070606 0.576390
vt 0.068990 0.327800
vt 0.071091 0.576390
vt 0.069475 0.327800
vt 0.071876 0.576390
vt 0.070260 0.327800
vt 0.073712 0.582538
vt 0.074662 0.582298
vt 0.075447 0.581620
vt 0.075932 0.580622
vt 0.076033 0.579476
vt 0.075733 0.578379
vt 0.075084 0.577523
vt 0.074198 0.577054
vt 0.073227 0.577054
vt 0.072341 0.577523
vt 0.071692 0.578379
vt 0.071392 0.579476
vt 0.071493 0.580622
vt 0.071978 0.581620
vt 0.072763 0.582298
vt -0.000790 0.879984
vt 0.032152 0.879984
vt 0.019363 0.879984
vt 0.013549 0.879984
vt 0.019363 0.879984
vt 0.001148 1.000000
vt 0.011062 1.000000
vt 0.010837 1.000000
vt 0.011062 0.953909
vt 0.019363 1.000000
vt 0.082820 0.879984
vt 0.076472 0.879984
vt 0.073054 0.879984
vt 0.075241 0.879984
vt 0.076472 0.879984
vt 0.068171 1.000000
vt 0.082820 1.000000
vt 0.068171 0.953909
vt 0.069705 1.000000
vt 0.068474 1.000000
vt 0.010837 0.937275
vt 0.019363 0.937275
vt 0.069705 0.937273
vt 0.068474 0.937273
vt 0.022398 0.868387
vt 0.041000 0.868387
vt 0.028211 0.868387
vt 0.016197 0.868387
vt 0.028211 0.868387
vt 0.067623 0.868387
vt 0.060647 0.868387
vt 0.067623 0.868387
vt 0.022398 0.841764
vt 0.028211 0.841764
vt 0.038675 0.841764
vt 0.016197 0.841764
vt 0.028211 0.841764
vt 0.068011 0.841764
vt 0.060647 0.841764
vt 0.067623 0.841764
vt 0.056772 0.841764
vt 0.067623 0.841764
vt 0.028211 0.797424
vt 0.038675 0.797424
vt 0.068011 0.797424
vt 0.067623 0.797424
vt 0.028211 0.802071
vt 0.028211 0.837813
vt 0.028211 0.809738
vt 0.028211 0.817406
vt 0.028211 0.826742
vt 0.028211 0.832278
vt 0.068011 0.837813
vt 0.067623 0.837813
vt 0.068011 0.802071
vt 0.067623 0.802071
vt 0.068011 0.832278
vt 0.067623 0.832278
vt 0.068011 0.826742
vt 0.067623 0.826742
vt 0.068011 0.817406
vt 0.067623 0.817406
vt 0.068011 0.809738
vt 0.067623 0.809738
vt 0.028610 0.868021
vt 0.067053 0.868021
vt 0.028610 0.867051
vt 0.022022 0.867051
vt 0.067053 0.867051
vt 0.060852 0.867051
vt 0.028610 0.845823
vt 0.022022 0.845823
vt 0.067053 0.845823
vt 0.060852 0.845823
vt 0.028610 0.845823
vt 0.067053 0.845823
vt 0.028610 0.847721
vt 0.067053 0.847721
vt 0.028610 0.851189
vt 0.067053 0.851189
vt 0.028610 0.855627
vt 0.067053 0.855627
vt 0.028610 0.860267
vt 0.067053 0.860267
vt 0.028610 0.864309
vt 0.067053 0.864309
vt 0.028610 0.867051
vt 0.067053 0.867051
vt 0.015925 0.791551
vt 0.015925 0.791551
vt 0.015925 0.797239
vt 0.015925 0.797239
vt 0.070138 0.791551
vt 0.070138 0.791551
vt 0.070138 0.797239
vt 0.070138 0.797239
vt 0.080732 0.797239
vt 0.080732 0.797239
vt 0.080732 0.791551
vt 0.080732 0.791551
vt 0.070138 0.921730
vt 0.070138 0.921730
vt 0.080732 0.921730
vt 0.080732 0.921730
vt 0.087764 0.697149
vt 0.090379 0.697149
vt 0.091996 0.697149
vt 0.092334 0.697149
vt 0.089171 0.697149
vt 0.091335 0.697149
vt 0.086218 0.697149
vt 0.082985 0.697149
vt 0.077868 0.697149
vt 0.080031 0.697149
vt 0.076869 0.697149
vt 0.078823 0.697149
vt 0.077207 0.697149
vt 0.076915 0.000000
vt 0.080868 0.697149
vt 0.073827 0.000000
vt 0.077781 0.697149
vt 0.071919 0.000000
vt 0.075873 0.697149
vt 0.071520 0.000000
vt 0.075474 0.697149
vt 0.072699 0.000000
vt 0.076653 0.697149
vt 0.075253 0.000000
vt 0.079207 0.697149
vt 0.078739 0.000000
vt 0.082693 0.697149
vt 0.082555 0.000000
vt 0.086509 0.697149
vt 0.086042 0.000000
vt 0.089996 0.697149
vt 0.088595 0.000000
vt 0.092549 0.697149
vt 0.089775 0.000000
vt 0.093729 0.697149
vt 0.089376 0.000000
vt 0.093330 0.697149
vt 0.087468 0.000000
vt 0.091422 0.697149
vt 0.084380 0.000000
vt 0.088334 0.697149
vt 0.080647 0.000000
vt 0.084601 0.697149
vt 0.081439 0.697149
vt 0.084601 0.697149
vt 0.083007 0.626183
vt 0.084601 0.626183
vt 0.080874 0.626183
vt 0.081689 0.626183
vt 0.080704 0.626183
vt 0.082298 0.626183
vt 0.081208 0.626183
vt 0.085416 0.626183
vt 0.083786 0.626183
vt 0.087995 0.626183
vt 0.086905 0.626183
vt 0.088498 0.626183
vt 0.087513 0.626183
vt 0.088328 0.626183
vt 0.086195 0.626183
vt 0.083740 0.796560
vt 0.083111 0.796560
vt 0.085625 0.715500
vt 0.084683 0.615481
vt 0.086253 0.715500
vt 0.085311 0.615481
vt 0.086773 0.715500
vt 0.085830 0.615481
vt 0.087094 0.715500
vt 0.086151 0.615481
vt 0.087161 0.715500
vt 0.086218 0.615481
vt 0.086962 0.715500
vt 0.086020 0.615481
vt 0.086533 0.715500
vt 0.085590 0.615481
vt 0.085946 0.715500
vt 0.085004 0.615481
vt 0.085304 0.715500
vt 0.084361 0.615481
vt 0.084718 0.715500
vt 0.083775 0.615481
vt 0.084288 0.715500
vt 0.083345 0.615481
vt 0.084090 0.715500
vt 0.083147 0.615481
vt 0.084157 0.715500
vt 0.083214 0.615481
vt 0.084478 0.715500
vt 0.083535 0.615481
vt 0.084997 0.715500
vt 0.084055 0.615481
vt 0.084259 0.796560
vt 0.084580 0.796560
vt 0.084647 0.796560
vt 0.084449 0.796560
vt 0.084019 0.796560
vt 0.083433 0.796560
vt 0.082790 0.796560
vt 0.082204 0.796560
vt 0.081774 0.796560
vt 0.081576 0.796560
vt 0.081643 0.796560
vt 0.081964 0.796560
vt 0.082483 0.796560
vt 0.081227 0.890378
vt 0.081855 0.890378
vt 0.080707 0.890378
vt 0.080386 0.890378
vt 0.080319 0.890378
vt 0.080517 0.890378
vt 0.080947 0.890378
vt 0.081534 0.890378
vt 0.082176 0.890378
vt 0.082762 0.890378
vt 0.083192 0.890378
vt 0.083390 0.890378
vt 0.083323 0.890378
vt 0.083002 0.890378
vt 0.082483 0.890378
vt 0.084859 0.904352
vt 0.085390 0.903952
vt 0.084420 0.904683
vt 0.084149 0.904888
vt 0.084092 0.904931
vt 0.084260 0.904804
vt 0.084623 0.904531
vt 0.085119 0.904157
vt 0.085662 0.903747
vt 0.086158 0.903373
vt 0.086521 0.903099
vt 0.086689 0.902973
vt 0.086632 0.903015
vt 0.086360 0.903220
vt 0.085921 0.903551
vt 0.092834 0.913892
vt 0.093210 0.913290
vt 0.092524 0.914389
vt 0.092332 0.914696
vt 0.092292 0.914761
vt 0.092410 0.914571
vt 0.092667 0.914159
vt 0.093018 0.913598
vt 0.093401 0.912983
vt 0.093752 0.912421
vt 0.094009 0.912010
vt 0.094127 0.911820
vt 0.094087 0.911884
vt 0.093895 0.912191
vt 0.093585 0.912689
vt 0.106700 0.919093
vt 0.106747 0.918345
vt 0.106662 0.919712
vt 0.106639 0.920094
vt 0.106634 0.920174
vt 0.106648 0.919938
vt 0.106680 0.919426
vt 0.106723 0.918728
vt 0.106770 0.917963
vt 0.106813 0.917264
vt 0.106845 0.916753
vt 0.106859 0.916516
vt 0.106854 0.916596
vt 0.106831 0.916978
vt 0.106793 0.917597
vt 0.132045 0.918535
vt 0.132276 0.917837
vt 0.131854 0.919111
vt 0.131735 0.919468
vt 0.131710 0.919542
vt 0.131784 0.919322
vt 0.131942 0.918845
vt 0.132158 0.918194
vt 0.132395 0.917481
vt 0.132611 0.916830
vt 0.132769 0.916353
vt 0.132842 0.916132
vt 0.132818 0.916207
vt 0.132699 0.916564
vt 0.132508 0.917140
vt 0.139632 0.922045
vt 0.140132 0.921590
vt 0.139219 0.922421
vt 0.138964 0.922653
vt 0.138911 0.922702
vt 0.139069 0.922558
vt 0.139410 0.922247
vt 0.139877 0.921822
vt 0.140387 0.921358
vt 0.140854 0.920933
vt 0.141195 0.920622
vt 0.141353 0.920478
vt 0.141300 0.920527
vt 0.141044 0.920759
vt 0.140631 0.921135
vt 0.144057 0.943115
vt 0.144681 0.943033
vt 0.143541 0.943182
vt 0.143221 0.943224
vt 0.143155 0.943232
vt 0.143352 0.943207
vt 0.143779 0.943151
vt 0.144362 0.943075
vt 0.145000 0.942991
vt 0.145583 0.942915
vt 0.146010 0.942860
vt 0.146208 0.942834
vt 0.146141 0.942842
vt 0.145822 0.942884
vt 0.145306 0.942952
vt 0.154077 0.960382
vt 0.154701 0.960300
vt 0.153561 0.960449
vt 0.153242 0.960491
vt 0.153175 0.960500
vt 0.153372 0.960474
vt 0.153799 0.960418
vt 0.154382 0.960342
vt 0.155021 0.960259
vt 0.155604 0.960182
vt 0.156031 0.960126
vt 0.156228 0.960101
vt 0.156161 0.960110
vt 0.155842 0.960151
vt 0.155326 0.960219
vt 0.155066 0.987999
vt 0.155690 0.987917
vt 0.154549 0.988066
vt 0.154230 0.988108
vt 0.154163 0.988116
vt 0.154361 0.988091
vt 0.154788 0.988035
vt 0.155371 0.987959
vt 0.156009 0.987875
vt 0.156592 0.987799
vt 0.157019 0.987743
vt 0.157217 0.987718
vt 0.157150 0.987726
vt 0.156831 0.987768
vt 0.156314 0.987835
vt 0.155304 0.992791
vt 0.155929 0.992945
vt 0.154788 0.992346
vt 0.154469 0.991685
vt 0.154402 0.990925
vt 0.154600 0.990195
vt 0.155027 0.989623
vt 0.155610 0.989307
vt 0.156248 0.989302
vt 0.156831 0.989608
vt 0.157258 0.990174
vt 0.157455 0.990900
vt 0.157389 0.991662
vt 0.157069 0.992327
vt 0.156553 0.992781
vt 0.155073 0.995312
vt 0.156266 0.995008
vt 0.155073 0.995858
vt 0.155073 0.995858
vt 0.156452 0.995507
vt 0.156452 0.995507
vt 0.157594 0.994517
vt 0.157594 0.994517
vt 0.158299 0.993059
vt 0.158299 0.993059
vt 0.158446 0.991383
vt 0.158446 0.991383
vt 0.158010 0.989781
vt 0.158010 0.989781
vt 0.157067 0.988530
vt 0.157067 0.988530
vt 0.155778 0.987845
vt 0.155778 0.987845
vt 0.154368 0.987845
vt 0.154368 0.987845
vt 0.153079 0.988530
vt 0.153079 0.988530
vt 0.152136 0.989781
vt 0.152136 0.989781
vt 0.151700 0.991383
vt 0.151700 0.991383
vt 0.151847 0.993059
vt 0.151847 0.993059
vt 0.152552 0.994517
vt 0.152552 0.994517
vt 0.153693 0.995507
vt 0.153693 0.995507
vt 0.157254 0.994152
vt 0.157864 0.992890
vt 0.157991 0.991440
vt 0.157614 0.990054
vt 0.156798 0.988971
vt 0.155683 0.987989
vt 0.154463 0.987989
vt 0.153348 0.988971
vt 0.152532 0.990054
vt 0.152155 0.991440
vt 0.152282 0.992890
vt 0.152892 0.994152
vt 0.153879 0.995008
vt 0.155073 0.994899
vt 0.154020 0.994632
vt 0.153149 0.993876
vt 0.152611 0.992762
vt 0.152498 0.991484
vt 0.152831 0.990261
vt 0.153551 0.989305
vt 0.154535 0.988782
vt 0.155611 0.988782
vt 0.156595 0.989305
vt 0.157315 0.990261
vt 0.157648 0.991484
vt 0.157535 0.992762
vt 0.156997 0.993876
vt 0.156126 0.994632
vt 0.156812 0.977132
vt 0.156745 0.977141
vt 0.153759 0.977531
vt 0.153956 0.977506
vt 0.156426 0.977183
vt 0.154383 0.977450
vt 0.155910 0.977250
vt 0.154966 0.977373
vt 0.155286 0.977332
vt 0.155605 0.977290
vt 0.154661 0.977413
vt 0.156188 0.977214
vt 0.154145 0.977481
vt 0.156615 0.977158
vt 0.153826 0.977523
vt 0.041357 0.019137
vt 0.044390 0.018367
vt 0.041357 0.020524
vt 0.041234 0.024135
vt 0.044201 0.019210
vt 0.045431 0.023069
vt 0.047672 0.016198
vt 0.048902 0.020058
vt 0.048663 0.014977
vt 0.051047 0.015620
vt 0.049112 0.009881
vt 0.051496 0.010524
vt 0.051496 0.010524
vt 0.048821 0.005082
vt 0.050170 0.005651
vt 0.046423 0.001901
vt 0.047299 0.001843
vt 0.043149 0.000160
vt 0.043380 -0.000241
vt 0.039564 0.000160
vt 0.039089 -0.000241
vt 0.036290 0.001901
vt 0.035170 0.001843
vt 0.033892 0.005082
vt 0.032299 0.005651
vt 0.032784 0.009154
vt 0.030973 0.010524
vt 0.033159 0.013411
vt 0.031422 0.015620
vt 0.034951 0.017118
vt 0.033567 0.020058
vt 0.037851 0.019634
vt 0.037038 0.023069
vt 0.046899 0.016190
vt 0.048449 0.012982
vt 0.048773 0.009299
vt 0.047815 0.005776
vt 0.045740 0.003024
vt 0.042907 0.000527
vt 0.039806 0.000527
vt 0.036973 0.003024
vt 0.034898 0.005776
vt 0.033939 0.009299
vt 0.034264 0.012982
vt 0.035814 0.016190
vt 0.038323 0.018367
vt 0.041357 0.018088
vt 0.038680 0.017409
vt 0.036467 0.015488
vt 0.035099 0.012658
vt 0.034813 0.009408
vt 0.035658 0.006301
vt 0.037489 0.003872
vt 0.039988 0.002543
vt 0.042725 0.002543
vt 0.045224 0.003872
vt 0.047055 0.006301
vt 0.047900 0.009408
vt 0.047614 0.012658
vt 0.046246 0.015488
vt 0.044033 0.017409
vt 0.762012 0.233955
vt 0.762012 0.233955
vt 0.764651 0.233642
vt 0.764651 0.233642
vt 0.761750 0.230800
vt 0.761750 0.230800
vt 0.764389 0.230488
vt 0.764389 0.230488
vt 0.764563 0.226798
vt 0.764563 0.226798
vt 0.763766 0.226892
vt 0.763766 0.226892
vt 0.762533 0.221336
vt 0.762533 0.221336
vt 0.761736 0.221431
vt 0.761736 0.221431
vt 0.760683 0.217540
vt 0.760683 0.217540
vt 0.759886 0.217634
vt 0.759886 0.217634
vt 0.760644 0.214073
vt 0.760644 0.214073
vt 0.759847 0.214168
vt 0.759847 0.214168
vt 0.761978 0.211523
vt 0.761978 0.211523
vt 0.761351 0.210928
vt 0.761351 0.210928
s 1
usemtl shop_front16
f 1/1/1 2/2/1 4/4/1 3/3/1
f 5/5/2 6/6/2 8/9/2 7/8/2
f 7/8/3 8/10/3 12/16/3 11/14/3
f 11/14/4 12/15/4 10/12/4 9/11/4
f 9/11/5 10/12/5 6/6/5 5/5/5
f 13/17/2 14/18/2 16/22/2 15/20/2
f 12/16/1 8/10/1 6/7/1 10/13/1
f 15/21/3 16/23/3 20/30/3 19/28/3
f 19/29/4 20/31/4 18/26/4 17/25/4
f 20/32/1 16/24/1 14/19/1 18/27/1
f 21/33/2 22/34/2 24/38/2 23/36/2
f 23/37/3 24/39/3 28/46/3 27/44/3
f 27/45/4 28/47/4 26/42/4 25/41/4
f 25/41/6 26/43/6 22/35/6 21/33/6
f 28/48/1 24/40/1 22/35/1 26/43/1
f 29/49/2 30/50/2 32/53/2 31/52/2
f 31/52/3 32/53/3 36/60/3 35/59/3
f 35/59/4 36/61/4 34/56/4 33/55/4
f 33/55/5 34/57/5 30/50/5 29/49/5
f 36/62/1 32/54/1 30/51/1 34/58/1
f 39/65/1 40/66/1 42/68/7 41/67/7
f 41/67/7 42/68/7 44/70/8 43/69/8
f 43/69/8 44/70/8 46/72/9 45/71/9
f 45/71/9 46/72/9 48/74/10 47/73/10
f 47/73/10 48/74/10 50/76/11 49/75/11
f 49/75/11 50/76/11 52/78/12 51/77/12
f 51/77/12 52/78/12 54/80/13 53/79/13
f 53/79/13 54/80/13 56/82/14 55/81/14
f 55/81/14 56/82/14 58/84/15 57/83/15
f 74/102/1 70/97/1 37/63/1 72/99/1
f 57/83/15 58/84/15 60/86/16 59/85/16
f 71/98/5 72/99/5 37/63/5 38/64/5
f 59/85/16 60/86/16 62/88/17 61/87/17
f 73/100/4 74/102/4 72/99/4 71/98/4
f 61/87/17 62/88/17 64/90/18 63/89/18
f 63/89/18 64/90/18 66/92/19 65/91/19
f 42/68/5 40/66/5 68/94/5 66/92/5 64/90/5 62/88/5 60/86/5 58/84/5 56/82/5 54/80/5 52/78/5 50/76/5 48/74/5 46/72/5 44/70/5
f 38/64/2 37/63/2 70/97/2 69/95/2
f 65/91/19 66/92/19 68/94/20 67/93/20
f 67/93/20 68/94/20 40/66/1 39/65/1
f 39/65/3 41/67/3 43/69/3 45/71/3 47/73/3 49/75/3 51/77/3 53/79/3 55/81/3 57/83/3 59/85/3 61/87/3 63/89/3 65/91/3 67/93/3
f 78/106/3 77/105/3 75/103/3 76/104/3
f 75/103/3 77/105/3 81/109/3 82/110/3
f 74/102/4 73/100/4 76/104/4 75/103/4
f 69/95/2 70/97/2 77/105/2 78/106/2
f 79/107/1 80/108/1 82/110/1 81/109/1
f 70/96/5 74/101/5 80/108/5 79/107/5
f 74/102/4 75/103/4 82/110/4 80/108/4
f 77/105/2 70/97/2 79/107/2 81/109/2
f 83/111/2 84/112/2 86/115/2 85/114/2
f 85/114/3 86/116/3 90/122/3 89/121/3
f 89/121/4 90/123/4 88/119/4 87/118/4
f 87/118/5 88/120/5 84/113/5 83/111/5
f 90/124/1 86/117/1 92/127/1 93/129/1
f 94/131/2 93/130/2 97/135/2 98/136/2
f 88/120/1 90/124/1 93/129/1 94/132/1
f 86/117/1 84/113/1 91/126/1 92/127/1
f 84/113/1 88/120/1 94/132/1 91/126/1
f 97/135/1 96/134/1 95/133/1 98/136/1
f 92/128/4 91/125/4 95/133/4 96/134/4
f 91/126/3 94/132/3 98/136/3 95/133/3
f 93/130/5 92/128/5 96/134/5 97/135/5
f 107/152/21 108/154/21 112/160/21 111/158/21
f 101/139/3 102/141/3 106/149/3 105/147/3
f 105/148/4 106/150/4 104/145/4 103/144/4
f 106/151/1 102/142/1 107/153/1 100/138/1 104/146/1
f 109/155/2 110/156/2 111/158/2 112/160/2
f 108/154/2 107/152/2 102/143/2 101/140/2
f 100/138/1 107/153/1 111/159/1 110/157/1
f 108/154/22 99/137/22 109/155/22 112/160/22
f 113/161/23 114/162/24 116/164/25 115/163/26
f 115/163/26 116/164/25 118/166/27 117/165/28
f 117/165/28 118/166/27 120/168/29 119/167/30
f 119/167/30 120/168/29 122/170/31 121/169/32
f 121/169/32 122/170/31 124/172/33 123/171/34
f 123/171/34 124/172/33 126/174/35 125/173/36
f 125/173/36 126/174/35 128/176/37 127/175/38
f 127/175/38 128/176/37 130/178/39 129/177/40
f 129/177/40 130/178/39 132/180/41 131/179/42
f 131/179/42 132/180/41 134/182/43 133/181/44
f 133/181/44 134/182/43 136/184/45 135/183/46
f 135/183/46 136/184/45 138/186/47 137/185/48
f 137/185/48 138/186/47 140/188/49 139/187/50
f 116/164/5 114/162/5 142/190/5 140/188/5 138/186/5 136/184/5 134/182/5 132/180/5 130/178/5 128/176/5 126/174/5 124/172/5 122/170/5 120/168/5 118/166/5
f 139/187/50 140/188/49 142/190/51 141/189/52
f 141/189/52 142/190/51 114/162/24 113/161/23
f 119/167/30 121/169/32 147/195/53 146/194/54
f 143/191/55 144/192/55 145/193/55 146/194/55 147/195/55 148/196/55 149/197/56 150/198/57 151/199/58 152/200/59 153/201/55 154/202/55 155/203/55 156/204/55 157/205/55
f 129/177/40 131/179/42 152/200/59 151/199/58
f 139/187/50 141/189/60 157/205/61 156/204/62
f 115/163/26 117/165/28 145/193/63 144/192/64
f 125/173/36 127/175/38 150/198/57 149/197/56
f 135/183/46 137/185/48 155/203/65 154/202/65
f 121/169/32 123/171/34 148/196/66 147/195/67
f 131/179/42 133/181/44 153/201/68 152/200/59
f 141/189/60 113/161/69 143/191/70 157/205/61
f 117/165/28 119/167/30 146/194/54 145/193/63
f 127/175/38 129/177/40 151/199/58 150/198/57
f 113/161/69 115/163/26 144/192/64 143/191/70
f 137/185/48 139/187/50 156/204/62 155/203/71
f 123/171/34 125/173/72 149/197/72 148/196/66
f 133/181/44 135/183/46 154/202/73 153/201/68
f 158/206/2 159/209/2 166/226/2 161/213/2 160/211/2
f 160/212/3 161/214/3 165/223/3 164/221/3
f 164/222/4 165/224/4 167/228/4 163/218/4 162/216/4
f 163/220/74 159/210/74 169/234/75 170/235/75
f 165/225/1 161/215/1 166/227/76 167/229/76
f 169/233/2 168/230/2 172/238/2 173/241/2
f 167/229/76 166/227/76 159/210/74 163/219/74
f 162/217/77 163/220/77 170/235/77 171/237/77
f 159/210/78 158/207/78 168/231/78 169/234/78
f 158/208/22 162/217/22 171/237/22 168/232/22
f 175/246/4 174/243/4 184/258/4 186/262/4 187/264/4 188/266/4 189/268/4 185/260/4 177/250/4
f 170/235/1 169/234/1 173/242/1 174/245/1
f 171/237/4 170/236/4 174/244/4 175/247/4
f 168/232/22 171/237/22 175/247/22 172/239/22
f 174/245/1 173/242/1 179/253/1 184/259/1
f 172/239/22 175/247/22 177/251/22 176/248/22
f 177/251/79 185/261/79 178/252/79 176/248/79
f 184/259/79 179/253/79 183/257/79 186/263/79
f 186/263/79 183/257/79 182/256/80 187/265/80
f 187/265/80 182/256/80 181/255/81 188/267/81
f 188/267/81 181/255/81 180/254/1 189/269/1
f 189/269/1 180/254/1 178/252/1 185/261/1
f 173/242/2 172/240/2 176/249/2 178/252/2 180/254/2 181/255/2 182/256/2 183/257/2 179/253/2
f 190/270/3 191/271/3 193/274/82 192/272/82
f 194/276/5 195/278/5 197/281/83 196/280/83
f 196/280/83 197/281/83 199/283/84 198/282/84
f 198/282/84 199/283/84 201/285/85 200/284/85
f 200/284/85 201/285/85 203/287/86 202/286/86
f 202/286/86 203/287/86 205/289/87 204/288/87
f 204/288/87 205/289/87 207/291/88 206/290/88
f 206/290/88 207/291/88 209/293/89 208/292/89
f 208/292/89 209/293/89 191/271/3 190/270/3
f 190/270/2 192/273/2 194/277/2 196/280/2 198/282/2 200/284/2 202/286/2 204/288/2 206/290/2 208/292/2
f 195/279/4 193/275/4 191/271/4 209/293/4 207/291/4 205/289/4 203/287/4 201/285/4 199/283/4 197/281/4
f 210/294/2 211/295/2 213/297/2 212/296/2
f 212/296/3 213/297/3 217/301/3 216/300/3
f 217/301/1 215/299/1 221/305/1 218/302/1
f 214/298/5 215/299/5 211/295/5 210/294/5
f 217/301/1 213/297/1 211/295/1 215/299/1
f 219/303/4 218/302/4 221/305/4 220/304/4
f 218/302/4 219/303/4 225/309/4 224/308/4
f 215/299/5 214/298/5 220/304/5 221/305/5
f 214/298/22 216/300/22 219/303/22 220/304/22
f 223/307/3 222/306/3 224/308/3 225/309/3
f 216/300/2 217/301/2 222/306/2 223/307/2
f 217/301/1 218/302/1 224/308/1 222/306/1
f 219/303/22 216/300/22 223/307/22 225/309/22
f 227/311/90 228/312/91 284/368/91 283/367/90
f 252/336/92 251/335/93 249/333/94 250/334/95
f 230/314/96 232/316/97 278/362/97 281/365/96
f 262/346/3 260/344/3 229/313/3 228/312/3
f 256/340/98 255/339/99 253/337/100 254/338/101
f 226/310/102 227/311/90 283/367/90 285/369/102
f 266/350/3 264/348/3 227/311/3 226/310/3
f 260/344/103 259/343/104 257/341/105 258/342/106
f 232/316/97 233/317/107 279/363/107 278/362/97
f 252/336/3 250/334/3 235/319/3 233/317/3
f 264/348/108 263/347/109 261/345/110 262/346/111
f 237/321/112 269/353/113 271/355/113 274/358/112
f 242/326/3 240/324/3 269/353/3 237/321/3
f 234/318/114 236/320/115 275/359/115 277/361/114
f 268/352/116 267/351/117 265/349/118 266/350/119
f 250/334/95 249/333/94 247/331/120 248/332/121
f 270/354/122 226/310/102 285/369/102 272/356/122
f 229/313/123 231/315/124 280/364/124 282/366/123
f 262/346/111 261/345/110 259/343/104 260/344/103
f 264/348/3 262/346/3 228/312/3 227/311/3
f 254/338/3 252/336/3 233/317/3 232/316/3
f 238/322/125 237/321/112 274/358/112 273/357/125
f 266/350/119 265/349/118 263/347/109 264/348/108
f 268/352/3 266/350/3 226/310/3 270/354/3
f 233/317/107 235/319/126 276/360/126 279/363/107
f 256/340/3 254/338/3 232/316/3 230/314/3
f 254/338/101 253/337/100 251/335/93 252/336/92
f 244/328/3 242/326/3 237/321/3 238/322/3
f 246/330/3 244/328/3 238/322/3 236/320/3
f 228/312/91 229/313/123 282/366/123 284/368/91
f 258/342/106 257/341/105 255/339/99 256/340/98
f 260/344/3 258/342/3 231/315/3 229/313/3
f 248/332/121 247/331/120 245/329/127 246/330/128
f 231/315/124 230/314/96 281/365/96 280/364/124
f 258/342/3 256/340/3 230/314/3 231/315/3
f 246/330/128 245/329/127 243/327/129 244/328/130
f 277/361/3 275/359/3 273/357/3 274/358/3 271/355/3 272/356/3 285/369/3 283/367/3 284/368/3 282/366/3 280/364/3 281/365/3 278/362/3 279/363/3 276/360/3
f 250/334/3 248/332/3 234/318/3 235/319/3
f 244/328/130 243/327/129 241/325/131 242/326/132
f 236/320/115 238/322/125 273/357/125 275/359/115
f 242/326/132 241/325/131 239/323/133 240/324/134
f 235/319/126 234/318/114 277/361/114 276/360/126
f 248/332/3 246/330/3 236/320/3 234/318/3
f 240/324/134 239/323/133 267/351/117 268/352/116
f 240/324/3 268/352/3 270/354/3 269/353/3
f 269/353/113 270/354/122 272/356/122 271/355/113
f 323/407/135 324/408/136 338/422/137 339/423/138
f 298/382/139 300/384/140 322/406/141 321/405/142
f 288/372/143 289/373/144 291/375/145 290/374/146
f 320/404/147 321/405/142 341/425/148 342/426/149
f 292/376/150 294/378/151 319/403/152 318/402/153
f 290/374/146 291/375/145 293/377/154 292/376/150
f 329/413/155 330/414/156 331/415/157 333/417/158
f 316/400/159 288/372/143 287/371/160 330/414/156
f 292/376/150 293/377/154 295/379/161 294/378/151
f 287/371/160 286/370/162 345/429/163 332/416/164
f 312/396/165 314/398/166 329/413/155 328/412/167
f 294/378/151 295/379/161 297/381/168 296/380/169
f 319/403/152 320/404/147 342/426/149 343/427/170
f 306/390/171 308/392/172 326/410/173 325/409/174
f 296/380/169 297/381/168 299/383/175 298/382/139
f 322/406/141 323/407/135 339/423/138 340/424/176
f 300/384/140 302/386/177 323/407/135 322/406/141
f 298/382/139 299/383/175 301/385/178 300/384/140
f 330/414/156 287/371/160 332/416/164 331/415/157
f 294/378/151 296/380/169 320/404/147 319/403/152
f 300/384/140 301/385/178 303/387/179 302/386/177
f 325/409/174 326/410/173 336/420/180 337/421/181
f 314/398/166 316/400/159 330/414/156 329/413/155
f 302/386/177 303/387/179 305/389/182 304/388/183
f 328/412/167 329/413/155 333/417/158 334/418/184
f 308/392/172 310/394/185 327/411/186 326/410/173
f 304/388/183 305/389/182 307/391/187 306/390/171
f 318/402/153 319/403/152 343/427/170 344/428/188
f 288/372/143 290/374/146 286/370/162 287/371/160
f 306/390/171 307/391/187 309/393/189 308/392/172
f 321/405/142 322/406/141 340/424/176 341/425/148
f 302/386/177 304/388/183 324/408/136 323/407/135
f 308/392/172 309/393/189 311/395/190 310/394/185
f 324/408/136 325/409/174 337/421/181 338/422/137
f 296/380/169 298/382/139 321/405/142 320/404/147
f 310/394/185 311/395/190 313/397/191 312/396/165
f 332/416/164 345/429/163 360/444/192 347/431/193
f 290/374/146 292/376/150 318/402/153 286/370/162
f 312/396/165 313/397/191 315/399/194 314/398/166
f 291/375/5 289/373/5 317/401/5 315/399/5 313/397/5 311/395/5 309/393/5 307/391/5 305/389/5 303/387/5 301/385/5 299/383/5 297/381/5 295/379/5 293/377/5
f 327/411/186 328/412/167 334/418/184 335/419/195
f 314/398/166 315/399/194 317/401/196 316/400/159
f 326/410/173 327/411/186 335/419/195 336/420/180
f 304/388/183 306/390/171 325/409/174 324/408/136
f 316/400/159 317/401/196 289/373/144 288/372/143
f 310/394/185 312/396/165 328/412/167 327/411/186
f 286/370/162 318/402/153 344/428/188 345/429/163
f 353/437/197 352/436/198 367/451/199 368/452/200
f 339/423/138 338/422/137 353/437/197 354/438/201
f 331/415/157 332/416/164 347/431/193 346/430/202
f 340/424/176 339/423/138 354/438/201 355/439/203
f 333/417/158 331/415/157 346/430/202 348/432/204
f 341/425/148 340/424/176 355/439/203 356/440/205
f 334/418/184 333/417/158 348/432/204 349/433/206
f 342/426/149 341/425/148 356/440/205 357/441/207
f 335/419/195 334/418/184 349/433/206 350/434/208
f 343/427/170 342/426/149 357/441/207 358/442/209
f 336/420/180 335/419/195 350/434/208 351/435/210
f 344/428/188 343/427/170 358/442/209 359/443/211
f 337/421/181 336/420/180 351/435/210 352/436/212
f 345/429/163 344/428/188 359/443/211 360/444/192
f 338/422/137 337/421/181 352/436/212 353/437/197
f 375/459/213 374/458/214 389/473/215 390/474/216
f 347/431/193 360/444/217 375/459/213 362/446/218
f 354/438/201 353/437/197 368/452/200 369/453/219
f 346/430/202 347/431/193 362/446/218 361/445/220
f 355/439/203 354/438/201 369/453/219 370/454/221
f 348/432/204 346/430/202 361/445/220 363/447/222
f 356/440/205 355/439/203 370/454/221 371/455/223
f 349/433/206 348/432/204 363/447/222 364/448/224
f 357/441/207 356/440/205 371/455/223 372/456/225
f 350/434/208 349/433/206 364/448/224 365/449/226
f 358/442/227 357/441/207 372/456/225 373/457/228
f 351/435/229 350/434/208 365/449/226 366/450/230
f 359/443/231 358/442/227 373/457/228 374/458/214
f 352/436/198 351/435/229 366/450/230 367/451/199
f 360/444/217 359/443/231 374/458/214 375/459/213
f 382/466/232 381/465/233 396/480/234 397/481/235
f 368/452/200 367/451/199 382/466/232 383/467/236
f 362/446/218 375/459/213 390/474/216 377/461/237
f 369/453/219 368/452/200 383/467/236 384/468/238
f 361/445/220 362/446/218 377/461/237 376/460/239
f 370/454/221 369/453/219 384/468/238 385/469/240
f 363/447/222 361/445/220 376/460/239 378/462/241
f 371/455/223 370/454/221 385/469/240 386/470/242
f 364/448/224 363/447/222 378/462/241 379/463/243
f 372/456/225 371/455/223 386/470/242 387/471/244
f 365/449/226 364/448/224 379/463/243 380/464/245
f 373/457/228 372/456/225 387/471/244 388/472/246
f 366/450/230 365/449/226 380/464/245 381/465/233
f 374/458/214 373/457/228 388/472/246 389/473/215
f 367/451/199 366/450/230 381/465/233 382/466/232
f 404/488/247 403/487/248 418/502/249 419/503/250
f 390/474/216 389/473/215 404/488/247 405/489/251
f 383/467/236 382/466/232 397/481/235 398/482/252
f 377/461/237 390/474/216 405/489/251 392/476/253
f 384/468/238 383/467/236 398/482/252 399/483/254
f 376/460/255 377/461/237 392/476/253 391/475/256
f 385/469/257 384/468/238 399/483/254 400/484/258
f 378/462/241 376/460/255 391/475/256 393/477/259
f 386/470/242 385/469/257 400/484/258 401/485/260
f 379/463/243 378/462/241 393/477/259 394/478/261
f 387/471/244 386/470/242 401/485/260 402/486/262
f 380/464/245 379/463/243 394/478/261 395/479/263
f 388/472/246 387/471/244 402/486/262 403/487/248
f 381/465/233 380/464/245 395/479/263 396/480/234
f 389/473/215 388/472/246 403/487/248 404/488/247
f 419/503/250 418/502/249 433/517/264 434/518/265
f 397/481/235 396/480/234 411/495/266 412/496/267
f 405/489/251 404/488/247 419/503/250 420/504/268
f 398/482/252 397/481/235 412/496/267 413/497/269
f 392/476/253 405/489/251 420/504/268 407/491/270
f 399/483/254 398/482/252 413/497/269 414/498/271
f 391/475/272 392/476/253 407/491/270 406/490/273
f 400/484/274 399/483/254 414/498/271 415/499/275
f 393/477/276 391/475/272 406/490/273 408/492/277
f 401/485/278 400/484/274 415/499/275 416/500/279
f 394/478/261 393/477/276 408/492/277 409/493/280
f 402/486/262 401/485/278 416/500/279 417/501/281
f 395/479/263 394/478/261 409/493/280 410/494/282
f 403/487/248 402/486/262 417/501/281 418/502/249
f 396/480/234 395/479/263 410/494/282 411/495/266
f 426/510/283 425/509/284 440/524/285 441/525/286
f 412/496/267 411/495/266 426/510/283 427/511/287
f 420/504/268 419/503/250 434/518/265 435/519/288
f 413/497/269 412/496/267 427/511/287 428/512/289
f 407/491/270 420/504/268 435/519/288 422/506/290
f 414/498/291 413/497/269 428/512/289 429/513/292
f 406/490/293 407/491/270 422/506/290 421/505/294
f 415/499/295 414/498/291 429/513/292 430/514/296
f 408/492/297 406/490/293 421/505/294 423/507/298
f 416/500/299 415/499/295 430/514/296 431/515/300
f 409/493/301 408/492/297 423/507/298 424/508/301
f 417/501/302 416/500/299 431/515/300 432/516/302
f 410/494/303 409/493/303 424/508/304 425/509/284
f 418/502/305 417/501/305 432/516/306 433/517/264
f 411/495/307 410/494/307 425/509/284 426/510/283
f 542/626/308 541/625/309 462/546/310 463/547/311
f 434/518/265 433/517/264 448/532/312 449/533/313
f 427/511/287 426/510/283 441/525/286 442/526/314
f 435/519/315 434/518/265 449/533/313 450/534/316
f 428/512/317 427/511/287 442/526/314 443/527/318
f 422/506/319 435/519/315 450/534/316 437/521/320
f 429/513/321 428/512/317 443/527/318 444/528/322
f 421/505/323 422/506/319 437/521/320 436/520/324
f 430/514/325 429/513/321 444/528/322 445/529/326
f 423/507/327 421/505/323 436/520/324 438/522/328
f 431/515/329 430/514/325 445/529/326 446/530/330
f 424/508/304 423/507/327 438/522/328 439/523/331
f 432/516/306 431/515/329 446/530/330 447/531/332
f 425/509/284 424/508/304 439/523/331 440/524/285
f 433/517/264 432/516/306 447/531/332 448/532/312
f 455/539/333 454/538/334 469/553/335 470/554/335
f 544/628/336 543/627/337 455/539/333 456/540/338
f 545/629/339 542/626/308 463/547/311 464/548/340
f 546/630/341 544/628/336 456/540/338 457/541/342
f 547/631/343 545/629/339 464/548/340 465/549/344
f 548/632/345 546/630/341 457/541/342 458/542/346
f 549/633/347 547/631/343 465/549/344 452/536/348
f 550/634/349 548/632/345 458/542/346 459/543/350
f 551/635/351 549/633/347 452/536/348 451/535/352
f 552/636/353 550/634/349 459/543/350 460/544/354
f 553/637/355 551/635/351 451/535/352 453/537/356
f 554/638/357 552/636/353 460/544/354 461/545/358
f 555/639/359 553/637/355 453/537/356 454/538/334
f 541/625/309 554/638/357 461/545/358 462/546/310
f 543/627/337 555/639/359 454/538/334 455/539/333
f 517/601/360 516/600/361 536/620/361 535/619/362
f 463/547/311 462/546/310 477/561/363 478/562/363
f 456/540/364 455/539/365 470/554/365 471/555/366
f 464/548/367 463/547/368 478/562/368 479/563/369
f 457/541/370 456/540/364 471/555/366 472/556/371
f 465/549/372 464/548/367 479/563/369 480/564/373
f 458/542/374 457/541/370 472/556/371 473/557/375
f 452/536/376 465/549/372 480/564/373 467/551/377
f 459/543/378 458/542/374 473/557/375 474/558/379
f 451/535/380 452/536/376 467/551/377 466/550/381
f 460/544/382 459/543/378 474/558/379 475/559/383
f 453/537/384 451/535/380 466/550/381 468/552/385
f 461/545/386 460/544/382 475/559/383 476/560/387
f 454/538/388 453/537/384 468/552/385 469/553/388
f 462/546/389 461/545/386 476/560/387 477/561/389
f 508/592/1 506/590/1 522/606/1 523/607/1
f 483/567/3 484/568/3 486/570/390 485/569/390
f 514/598/391 513/597/392 539/623/392 538/622/391
f 502/586/393 500/584/394 519/603/394 520/604/395
f 485/569/390 486/570/390 488/572/396 487/571/396
f 523/607/397 522/606/398 530/614/398 529/613/397
f 496/580/399 494/578/1 516/600/1 517/601/400
f 487/571/396 488/572/396 490/574/401 489/573/401
f 513/597/392 482/566/402 540/624/402 539/623/392
f 490/574/1 488/572/1 513/597/1 514/598/1
f 489/573/401 490/574/401 492/576/403 491/575/403
f 516/600/361 515/599/404 537/621/404 536/620/361
f 484/568/1 512/596/1 525/609/1 481/565/1
f 491/575/403 492/576/403 494/578/405 493/577/405
f 519/603/406 518/602/406 534/618/406 533/617/406
f 510/594/1 508/592/1 523/607/1 524/608/1
f 493/577/405 494/578/405 496/580/407 495/579/407
f 522/606/398 521/605/408 531/615/408 530/614/398
f 504/588/1 502/586/393 520/604/395 521/605/1
f 495/579/407 496/580/407 498/582/409 497/581/409
f 525/609/410 524/608/411 528/612/411 527/611/410
f 498/582/412 496/580/399 517/601/400 518/602/412
f 497/581/409 498/582/409 500/584/413 499/583/413
f 482/566/402 481/565/414 526/610/414 540/624/402
f 492/576/1 490/574/1 514/598/1 515/599/1
f 499/583/413 500/584/413 502/586/415 501/585/415
f 515/599/404 514/598/391 538/622/391 537/621/404
f 486/570/1 484/568/1 481/565/1 482/566/1
f 501/585/415 502/586/415 504/588/416 503/587/416
f 518/602/417 517/601/360 535/619/362 534/618/417
f 512/596/1 510/594/1 524/608/1 525/609/1
f 503/587/416 504/588/416 506/590/418 505/589/418
f 481/565/414 525/609/410 527/611/410 526/610/414
f 506/590/1 504/588/1 521/605/1 522/606/1
f 505/589/418 506/590/418 508/592/419 507/591/419
f 521/605/408 520/604/420 532/616/421 531/615/408
f 500/584/422 498/582/422 518/602/422 519/603/422
f 507/591/419 508/592/419 510/594/423 509/593/423
f 488/572/1 486/570/1 482/566/1 513/597/1
f 494/578/1 492/576/1 515/599/1 516/600/1
f 509/593/423 510/594/423 512/596/424 511/595/424
f 520/604/420 519/603/425 533/617/425 532/616/421
f 540/624/1 526/610/1 527/611/1 528/612/1 529/613/1 530/614/1 531/615/1 532/616/1 533/617/1 534/618/1 535/619/1 536/620/1 537/621/1 538/622/1 539/623/1
f 511/595/424 512/596/424 484/568/3 483/567/3
f 524/608/411 523/607/397 529/613/397 528/612/411
f 440/524/426 439/523/331 555/639/359 543/627/337
f 447/531/427 446/530/330 554/638/357 541/625/309
f 439/523/331 438/522/328 553/637/355 555/639/359
f 446/530/330 445/529/326 552/636/353 554/638/357
f 438/522/328 436/520/324 551/635/351 553/637/355
f 445/529/326 444/528/322 550/634/428 552/636/353
f 436/520/324 437/521/320 549/633/429 551/635/351
f 444/528/322 443/527/318 548/632/430 550/634/428
f 437/521/320 450/534/316 547/631/431 549/633/429
f 443/527/318 442/526/314 546/630/341 548/632/430
f 450/534/316 449/533/313 545/629/339 547/631/431
f 442/526/314 441/525/286 544/628/336 546/630/341
f 449/533/313 448/532/312 542/626/308 545/629/339
f 441/525/286 440/524/426 543/627/337 544/628/336
f 448/532/312 447/531/427 541/625/309 542/626/308
f 592/677/432 591/676/433 611/696/433 610/695/434
f 583/668/1 581/666/1 597/682/1 598/683/1
f 558/642/3 559/643/3 561/645/390 560/644/390
f 589/674/435 588/673/436 614/699/436 613/698/435
f 577/662/393 575/660/394 594/679/394 595/680/395
f 560/644/390 561/645/390 563/647/396 562/646/396
f 598/683/437 597/682/438 605/690/438 604/689/437
f 571/656/439 569/654/1 591/676/1 592/677/400
f 562/646/396 563/647/396 565/649/401 564/648/401
f 588/673/436 557/641/440 615/700/440 614/699/436
f 565/649/1 563/647/1 588/673/1 589/674/1
f 564/648/401 565/649/401 567/652/403 566/650/403
f 591/676/433 590/675/441 612/697/441 611/696/433
f 559/643/1 587/672/1 600/685/1 556/640/1
f 566/651/403 567/652/403 569/654/405 568/653/405
f 594/679/442 593/678/442 609/694/443 608/693/443
f 585/670/1 583/668/1 598/683/1 599/684/1
f 568/653/405 569/654/405 571/656/407 570/655/407
f 597/682/438 596/681/444 606/691/444 605/690/438
f 579/664/1 577/662/393 595/680/395 596/681/1
f 570/655/407 571/656/407 573/658/409 572/657/409
f 600/685/445 599/684/446 603/688/446 602/687/445
f 573/658/447 571/656/439 592/677/400 593/678/447
f 572/657/409 573/658/409 575/660/413 574/659/413
f 557/641/440 556/640/448 601/686/448 615/700/440
f 567/652/1 565/649/1 589/674/1 590/675/1
f 574/659/413 575/660/413 577/662/415 576/661/415
f 590/675/441 589/674/435 613/698/435 612/697/441
f 561/645/1 559/643/1 556/640/1 557/641/1
f 576/661/415 577/662/415 579/664/416 578/663/416
f 593/678/449 592/677/432 610/695/434 609/694/449
f 587/672/1 585/670/1 599/684/1 600/685/1
f 578/663/416 579/664/416 581/666/418 580/665/418
f 556/640/448 600/685/445 602/687/445 601/686/448
f 581/666/1 579/664/1 596/681/1 597/682/1
f 580/665/418 581/666/418 583/668/419 582/667/419
f 596/681/444 595/680/450 607/692/451 606/691/444
f 575/660/452 573/658/452 593/678/442 594/679/442
f 582/667/419 583/668/419 585/670/423 584/669/423
f 563/647/1 561/645/1 557/641/1 588/673/1
f 569/654/1 567/652/1 590/675/1 591/676/1
f 584/669/423 585/670/423 587/672/424 586/671/424
f 595/680/450 594/679/453 608/693/453 607/692/451
f 615/700/1 601/686/1 602/687/1 603/688/1 604/689/1 605/690/1 606/691/1 607/692/1 608/693/1 609/694/1 610/695/1 611/696/1 612/697/1 613/698/1 614/699/1
f 586/671/424 587/672/424 559/643/3 558/642/3
f 599/684/446 598/683/437 604/689/437 603/688/446
f 616/701/2 617/702/2 619/704/2 618/703/2
f 618/703/3 619/704/3 623/708/454 622/707/454
f 623/708/455 621/706/456 627/712/457 624/709/458
f 620/705/5 621/706/5 617/702/5 616/701/5
f 618/703/22 622/707/459 620/705/460 616/701/22
f 623/708/455 619/704/1 617/702/1 621/706/456
f 624/709/458 627/712/457 631/716/1 628/713/1
f 622/707/454 623/708/454 624/709/461 625/710/461
f 621/706/462 620/705/462 626/711/462 627/712/462
f 620/705/460 622/707/459 625/710/463 626/711/464
f 631/716/465 630/715/465 634/719/466 635/720/466
f 625/710/461 624/709/461 628/713/467 629/714/467
f 627/712/468 626/711/468 630/715/465 631/716/465
f 626/711/464 625/710/463 629/714/22 630/715/22
f 632/717/1 635/720/1 639/724/1 636/721/1
f 630/715/22 629/714/22 633/718/22 634/719/22
f 628/713/1 631/716/1 635/720/1 632/717/1
f 629/714/467 628/713/467 632/717/469 633/718/469
f 636/721/1 639/724/1 643/728/1 640/725/1
f 633/718/469 632/717/469 636/721/470 637/722/470
f 635/720/466 634/719/466 638/723/471 639/724/471
f 634/719/22 633/718/22 637/722/22 638/723/22
f 641/726/472 640/725/472 643/728/472 642/727/472
f 637/722/473 636/721/473 640/725/473 641/726/473
f 639/724/471 638/723/471 642/727/474 643/728/474
f 638/723/22 637/722/22 641/726/22 642/727/22
