# Blender 3.3.1
# www.blender.org
mtllib shop_front13.mtl
o shop_front13
v -2.500397 -1.601400 -0.000000
v 2.500397 -1.601400 -0.000000
v -2.500397 1.601400 0.000000
v 2.500397 1.601400 0.000000
v -2.428960 1.084654 -0.001445
v -2.428960 1.084654 0.226134
v -2.428960 1.493703 -0.001445
v -2.428960 1.493703 0.226134
v 2.368671 1.084654 -0.001445
v 2.368671 1.084654 0.226134
v 2.368671 1.493703 -0.001445
v 2.368671 1.493703 0.226134
v 1.211332 -1.601400 -0.000000
v 1.211332 1.601400 0.000000
v 2.245822 -1.601400 -0.000000
v 2.279043 1.601400 0.000000
v 1.211332 1.027417 0.000000
v 2.279043 1.049232 0.000000
v 1.211332 -1.601400 -0.094514
v 2.279043 -1.601400 -0.094514
v 1.211332 1.027417 -0.094514
v 2.279043 1.049232 -0.094514
v 1.239486 0.549369 -0.028787
v 1.239486 0.549369 -0.019828
v 1.208395 1.058133 -0.013312
v 1.208395 1.058133 -0.004354
v 2.315107 0.560966 -0.028787
v 2.315107 0.560966 -0.019828
v 2.284015 1.058133 -0.013312
v 2.284015 1.058133 -0.004354
v 1.207817 -1.600554 -0.100545
v 1.207817 -1.600554 -0.001399
v 1.207817 -1.501408 -0.100545
v 1.207817 -1.501408 -0.001399
v 2.279720 -1.600554 -0.100545
v 2.279720 -1.600554 -0.001399
v 2.279720 -1.501408 -0.100545
v 2.279720 -1.501408 -0.001399
v 2.383240 -1.370536 0.052691
v 2.393226 -1.371570 0.051968
v 2.401866 1.601348 0.051126
v 2.383142 -1.361779 0.051126
v 2.411852 1.601348 0.049865
v 2.393128 -1.361779 0.049865
v 2.421210 1.601348 0.046160
v 2.402486 -1.361779 0.046159
v 2.429353 1.601348 0.040243
v 2.410629 -1.361779 0.040243
v 2.435770 1.601348 0.032488
v 2.417045 -1.361779 0.032488
v 2.440055 1.601348 0.023380
v 2.421331 -1.361779 0.023380
v 2.441941 1.601348 0.013493
v 2.423217 -1.361779 0.013493
v 2.441309 1.601348 0.003447
v 2.422585 -1.361779 0.003447
v 2.438199 1.601348 -0.006125
v 2.419475 -1.361779 -0.006126
v 2.432806 1.601348 -0.014624
v 2.414081 -1.361779 -0.014624
v 2.406744 -1.361779 -0.021514
v 2.397923 -1.361779 -0.026364
v 2.388174 -1.361779 -0.028867
v 2.378109 -1.361779 -0.028867
v 2.368360 -1.361779 -0.026364
v 2.359539 -1.361779 -0.021514
v 2.370926 1.601348 -0.014624
v 2.352202 -1.361779 -0.014624
v 2.365533 1.601348 -0.006125
v 2.346808 -1.361779 -0.006126
v 2.362422 1.601348 0.003447
v 2.343698 -1.361779 0.003447
v 2.361790 1.601348 0.013493
v 2.343066 -1.361779 0.013493
v 2.363676 1.601348 0.023380
v 2.344952 -1.361779 0.023380
v 2.367962 1.601348 0.032488
v 2.349238 -1.361779 0.032488
v 2.374378 1.601348 0.040243
v 2.355654 -1.361779 0.040243
v 2.382521 1.601348 0.046160
v 2.363797 -1.361779 0.046159
v 2.391880 1.601348 0.049865
v 2.373155 -1.361779 0.049865
v 2.402585 -1.374608 0.049846
v 2.410728 -1.379458 0.046458
v 2.417144 -1.385816 0.042017
v 2.421430 -1.393283 0.036802
v 2.423316 -1.401388 0.031140
v 2.422684 -1.409624 0.025387
v 2.419573 -1.417471 0.019905
v 2.414180 -1.424438 0.015038
v 2.406843 -1.430087 0.011093
v 2.398022 -1.434062 0.008316
v 2.388273 -1.436114 0.006882
v 2.378207 -1.436114 0.006882
v 2.368458 -1.434062 0.008316
v 2.359638 -1.430087 0.011093
v 2.352300 -1.424438 0.015038
v 2.346907 -1.417471 0.019905
v 2.343797 -1.409624 0.025387
v 2.343164 -1.401388 0.031140
v 2.345051 -1.393283 0.036802
v 2.349336 -1.385816 0.042017
v 2.355752 -1.379458 0.046458
v 2.363896 -1.374608 0.049846
v 2.373254 -1.371570 0.051968
v 2.379849 -1.390648 0.056434
v 2.369863 -1.391908 0.056382
v 2.360504 -1.395610 0.056229
v 2.352361 -1.401522 0.055984
v 2.345945 -1.409271 0.055662
v 2.341660 -1.418370 0.055285
v 2.339773 -1.428249 0.054876
v 2.340405 -1.438286 0.054460
v 2.343516 -1.447851 0.054063
v 2.348909 -1.456342 0.053711
v 2.356246 -1.463226 0.053426
v 2.365067 -1.468071 0.053225
v 2.374816 -1.470572 0.053121
v 2.384882 -1.470572 0.053121
v 2.394631 -1.468071 0.053225
v 2.403451 -1.463226 0.053426
v 2.410789 -1.456342 0.053711
v 2.416182 -1.447851 0.054063
v 2.419293 -1.438286 0.054460
v 2.419925 -1.428249 0.054876
v 2.418038 -1.418370 0.055285
v 2.413753 -1.409271 0.055662
v 2.407337 -1.401522 0.055984
v 2.399194 -1.395610 0.056229
v 2.389835 -1.391908 0.056382
v 2.379849 -1.395494 0.056233
v 2.371069 -1.396602 0.056187
v 2.362841 -1.399857 0.056053
v 2.355681 -1.405054 0.055837
v 2.350040 -1.411867 0.055555
v 2.346272 -1.419868 0.055223
v 2.344614 -1.428553 0.054863
v 2.345170 -1.437378 0.054497
v 2.347905 -1.445787 0.054149
v 2.352646 -1.453253 0.053839
v 2.359097 -1.459306 0.053588
v 2.366853 -1.463565 0.053412
v 2.375424 -1.465764 0.053320
v 2.384274 -1.465764 0.053320
v 2.392845 -1.463565 0.053412
v 2.400600 -1.459306 0.053588
v 2.407052 -1.453253 0.053839
v 2.411793 -1.445787 0.054149
v 2.414528 -1.437378 0.054497
v 2.415084 -1.428553 0.054863
v 2.413425 -1.419868 0.055223
v 2.409657 -1.411867 0.055555
v 2.404016 -1.405054 0.055837
v 2.396857 -1.399857 0.056053
v 2.388629 -1.396602 0.056187
v 2.379849 -1.365910 0.041340
v 2.373120 -1.366466 0.040698
v 2.366814 -1.368102 0.038812
v 2.361327 -1.370714 0.035800
v 2.357004 -1.374137 0.031852
v 2.354116 -1.378157 0.027215
v 2.352845 -1.382522 0.022181
v 2.353271 -1.386956 0.017067
v 2.355367 -1.391182 0.012194
v 2.359001 -1.394933 0.007867
v 2.363945 -1.397975 0.004360
v 2.369889 -1.400115 0.001891
v 2.376458 -1.401221 0.000617
v 2.383240 -1.401221 0.000617
v 2.389809 -1.400115 0.001891
v 2.395753 -1.397975 0.004360
v 2.400697 -1.394933 0.007867
v 2.404331 -1.391182 0.012194
v 2.406427 -1.386956 0.017067
v 2.406853 -1.382522 0.022181
v 2.405582 -1.378157 0.027215
v 2.402694 -1.374137 0.031852
v 2.398371 -1.370714 0.035800
v 2.392884 -1.368102 0.038812
v 2.386578 -1.366466 0.040698
v 1.465337 -0.646880 -0.094600
v 1.206279 -1.600724 -0.020629
v 1.416478 -0.646880 -0.094600
v 1.206279 1.030751 -0.020629
v 1.241254 -1.600724 -0.100001
v 1.241254 -1.600724 -0.020629
v 1.241254 1.030751 -0.100001
v 1.241254 1.030751 -0.020629
v 1.416478 -0.552809 -0.094600
v 1.465337 -0.552809 -0.094600
v 1.450982 -0.589714 -0.089998
v 1.430834 -0.589714 -0.089998
v 1.430834 -0.616527 -0.089998
v 1.450982 -0.616527 -0.089998
v 1.450982 -0.589714 -0.074990
v 1.430834 -0.589714 -0.070257
v 1.430834 -0.616527 -0.070257
v 1.450982 -0.616527 -0.074990
v 1.536161 -0.581342 -0.073438
v 1.516013 -0.581342 -0.070162
v 1.516013 -0.608155 -0.070162
v 1.536161 -0.608155 -0.073438
vn -0.7679 0.0048 0.6406
vn -0.0000 -0.0000 1.0000
vn -0.3059 -0.3152 0.8984
vn -0.7071 -0.7071 -0.0000
vn -0.5774 -0.5774 0.5774
vn -0.5774 0.5774 0.5774
vn -0.7071 0.7071 -0.0000
vn 0.5774 0.5774 0.5774
vn 0.7071 0.7071 -0.0000
vn 0.5774 -0.5774 0.5774
vn 0.7071 -0.7071 -0.0000
vn 0.7071 -0.0000 0.7071
vn 0.3082 -0.3020 0.9021
vn -0.6005 -0.6186 0.5067
vn -0.7658 0.0048 0.6430
vn 0.5827 -0.5709 0.5784
vn -0.5537 -0.5879 -0.5898
vn -0.5563 -0.6046 0.5701
vn -0.7121 -0.0650 0.6990
vn -0.7269 -0.0233 -0.6863
vn -1.0000 -0.0000 -0.0000
vn -0.7071 -0.0000 0.7071
vn 0.6981 0.0656 -0.7130
vn 0.6854 0.0205 0.7279
vn 0.6014 -0.5648 0.5651
vn 0.5976 -0.5493 -0.5841
vn 1.0000 -0.0000 -0.0000
vn -0.9676 -0.1112 -0.2267
vn -0.8705 -0.2680 -0.4128
vn -0.7760 -0.3645 0.5148
vn -0.8002 -0.1764 0.5732
vn 0.2352 0.1097 0.9657
vn -0.0006 0.0982 0.9952
vn 0.0031 0.1953 0.9807
vn 0.1806 0.2120 0.9604
vn 0.0005 -0.0000 1.0000
vn 0.2492 -0.0016 0.9685
vn -0.5416 -0.5140 -0.6652
vn -0.3344 -0.5910 -0.7341
vn -0.3511 -0.8414 0.4107
vn -0.5458 -0.7174 0.4330
vn -0.4655 0.1276 0.8758
vn -0.6730 0.1287 0.7283
vn -0.5969 0.3182 0.7365
vn -0.3775 0.2814 0.8822
vn 0.4653 0.1275 0.8759
vn 0.4821 -0.0030 0.8761
vn -0.1773 0.2256 0.9580
vn -0.2031 0.1726 0.9638
vn -0.0857 0.1188 0.9892
vn -0.9521 0.0630 0.2993
vn -0.9988 0.0085 0.0472
vn -0.9986 0.0525 -0.0010
vn -0.9459 0.1993 0.2559
vn 0.6734 0.1276 0.7282
vn 0.6848 -0.0043 0.7287
vn 0.3710 0.2497 0.8944
vn 0.0711 0.0917 0.9932
vn 0.1671 0.1176 0.9789
vn -0.8919 -0.1031 -0.4404
vn -0.7683 -0.1994 -0.6083
vn -0.7240 -0.4048 -0.5585
vn 0.8408 0.1033 0.5313
vn 0.8445 -0.0053 0.5356
vn 0.9221 0.1531 0.3554
vn 0.7707 0.2401 0.5902
vn 0.4511 0.1318 0.8827
vn 0.5950 0.0672 0.8009
vn -0.3208 -0.4099 -0.8538
vn -0.1078 -0.4308 -0.8960
vn -0.1118 -0.6327 -0.7663
vn 0.9526 0.0595 0.2984
vn 0.9511 -0.0060 0.3089
vn 0.8895 -0.2946 -0.3493
vn 0.9800 -0.1400 -0.1416
vn 0.7452 -0.2082 0.6335
vn 0.7311 -0.3843 0.5637
vn 0.3206 -0.4092 -0.8542
vn 0.5256 -0.3659 -0.7680
vn 0.5549 -0.5340 -0.6379
vn 0.3426 -0.6042 -0.7194
vn 0.9989 0.0042 0.0462
vn 0.9980 -0.0063 0.0628
vn 0.5211 -0.7191 0.4598
vn 0.3356 -0.8398 0.4268
vn 0.8911 -0.1076 -0.4409
vn 0.9770 -0.0539 -0.2063
vn 0.9823 -0.0062 -0.1873
vn -0.1236 -0.9073 0.4020
vn 0.9049 -0.0057 -0.4256
vn -0.6905 -0.5516 0.4680
vn 0.7674 -0.2020 -0.6085
vn 0.8443 -0.0053 -0.5358
vn -0.0038 0.0887 0.9960
vn -0.2362 0.1094 0.9655
vn -0.7654 -0.0061 0.6435
vn -0.6747 0.1281 0.7269
vn -0.8402 0.1057 0.5319
vn -0.8033 0.2956 0.5170
vn -0.3628 0.2161 0.9064
vn -0.9774 -0.0493 -0.2054
vn -0.5258 -0.3671 -0.7673
vn 0.5744 0.2683 0.7734
vn 0.2977 0.1414 0.9441
vn 0.1076 -0.4306 -0.8961
vn 0.1170 -0.6373 -0.7617
vn 0.9948 0.0177 0.1002
vn 0.6982 -0.0514 0.7141
vn 0.7420 -0.4292 -0.5151
vn 0.6556 -0.5609 0.5056
vn 0.1136 -0.9062 0.4074
vn -0.8443 0.0053 -0.5358
vn -0.9047 0.0057 -0.4260
vn -0.9822 0.0062 -0.1875
vn -0.9980 0.0063 0.0628
vn -0.5339 0.2066 0.8199
vn -0.9510 0.0060 0.3092
vn -0.8442 0.0053 0.5360
vn -0.6843 0.0043 0.7292
vn 0.4324 0.1345 0.8916
vn 0.5267 0.0488 0.8487
vn -0.4814 0.0030 0.8765
vn -0.2482 0.0016 0.9687
vn -0.3362 0.1985 0.9206
vn -0.4324 0.1344 0.8916
vn -0.5811 -0.3030 0.7553
vn -0.4783 -0.2027 0.8545
vn -0.5826 -0.7344 0.3482
vn -0.6968 -0.5497 0.4607
vn 0.3497 -0.8976 0.2684
vn -0.0000 -0.9710 0.2389
vn -0.2398 0.2441 0.9396
vn 0.3362 0.1985 0.9206
vn -0.3497 -0.8976 0.2684
vn 0.5826 -0.7344 0.3482
vn 0.2398 0.2441 0.9396
vn 0.6968 -0.5497 0.4607
vn -0.5267 0.0488 0.8487
vn 0.1437 0.2734 0.9511
vn 0.7230 -0.3679 0.5847
vn -0.6151 -0.0624 0.7860
vn 0.0478 0.2877 0.9565
vn 0.6873 -0.2020 0.6978
vn -0.6873 -0.2020 0.6978
vn -0.0478 0.2877 0.9565
vn 0.6151 -0.0624 0.7860
vn -0.7230 -0.3679 0.5847
vn -0.1437 0.2734 0.9511
vn -0.1444 -0.9674 -0.2079
vn -0.0000 -0.9738 -0.2276
vn 0.1444 -0.9674 -0.2079
vn 0.2935 -0.9448 -0.1459
vn 0.4424 -0.8960 -0.0369
vn 0.5715 -0.8124 0.1156
vn 0.6560 -0.6955 0.2933
vn 0.6821 -0.5600 0.4702
vn 0.6532 -0.4245 0.6269
vn 0.5811 -0.3030 0.7553
vn 0.4783 -0.2027 0.8545
vn 0.3546 -0.1268 0.9264
vn 0.2177 -0.0761 0.9730
vn 0.0733 -0.0508 0.9960
vn -0.0733 -0.0508 0.9960
vn -0.2177 -0.0761 0.9731
vn -0.3546 -0.1268 0.9264
vn -0.6532 -0.4245 0.6269
vn -0.6821 -0.5600 0.4702
vn -0.6560 -0.6955 0.2933
vn -0.5715 -0.8124 0.1156
vn -0.4424 -0.8960 -0.0369
vn -0.2935 -0.9448 -0.1459
vn 0.0752 0.0945 0.9927
vn -0.0752 0.0945 0.9927
vn -0.4420 0.3319 0.8334
vn 0.4420 0.3319 0.8334
vn -0.4376 -0.3429 0.8312
vn 0.4376 -0.3429 0.8312
vn 0.3859 -0.9210 -0.0526
vn -0.5720 -0.5776 0.5824
vn 0.0893 -0.1079 0.9901
vn -0.0893 -0.1079 0.9901
vn -0.5846 0.5746 0.5729
vn 0.0955 -0.5088 0.8556
vn 0.0003 0.8328 0.5535
vn 0.2501 0.8088 -0.5322
vn 0.8489 -0.5211 -0.0886
vn 0.8177 0.5749 -0.0279
vt 0.000000 0.000000
vt 0.807284 0.000000
vt 0.000000 1.000000
vt 0.807284 1.000000
vt 0.000855 0.848035
vt 0.000855 0.838658
vt 0.011329 0.848186
vt 0.000855 0.848186
vt 0.011532 0.843940
vt 0.000855 0.955183
vt 0.031359 1.000465
vt 0.011329 0.955322
vt 0.031039 0.966366
vt 0.011532 0.969804
vt 0.786020 0.848501
vt 0.775466 0.838658
vt 0.775574 0.848186
vt 0.774845 0.843940
vt 0.786516 1.000465
vt 0.786020 0.966374
vt 0.786624 0.966366
vt 0.775574 0.966366
vt 0.774845 0.969804
vt 0.599189 0.000000
vt 0.591108 0.000000
vt 0.599189 1.000000
vt 0.766188 0.000000
vt 0.771551 1.000000
vt 0.599189 0.820787
vt 0.599189 0.835269
vt 0.591108 0.820787
vt 0.771551 0.827598
vt 0.771551 0.842080
vt 0.808747 0.000000
vt 0.599189 0.000000
vt 0.779040 0.000000
vt 0.993648 0.000000
vt 0.808747 0.883779
vt 0.599189 0.820787
vt 0.779040 0.827598
vt 0.993648 0.885069
vt 0.771551 0.827598
vt 0.598715 0.696606
vt 0.598715 0.698893
vt 0.598715 0.696606
vt 0.598715 0.830378
vt 0.598715 0.830378
vt 0.772353 0.700227
vt 0.772353 0.702513
vt 0.772353 0.700227
vt 0.772353 0.830378
vt 0.772353 0.830378
vt 0.598621 0.000264
vt 0.598621 0.000264
vt 0.598621 0.031220
vt 0.598621 0.001113
vt 0.598621 0.031220
vt 0.771660 0.000264
vt 0.771660 0.000264
vt 0.771660 0.031220
vt 0.771660 0.001113
vt 0.771660 0.031220
vt 0.787673 0.072082
vt 0.789285 0.071759
vt 0.791378 0.999983
vt 0.788355 0.074816
vt 0.792990 0.999983
vt 0.789968 0.074816
vt 0.794501 0.999983
vt 0.791478 0.074816
vt 0.795816 0.999983
vt 0.792793 0.074816
vt 0.796851 0.999983
vt 0.793829 0.074816
vt 0.797543 0.999983
vt 0.794520 0.074816
vt 0.797848 0.999983
vt 0.794825 0.074816
vt 0.797746 0.999983
vt 0.794723 0.074816
vt 0.797243 0.999983
vt 0.794221 0.074816
vt 0.796373 0.999983
vt 0.793350 0.074816
vt 0.792166 0.074816
vt 0.790742 0.074816
vt 0.789168 0.074816
vt 0.787543 0.074816
vt 0.785969 0.074816
vt 0.784545 0.074816
vt 0.786383 0.999983
vt 0.783361 0.074816
vt 0.785513 0.999983
vt 0.782490 0.074816
vt 0.785011 0.999983
vt 0.781988 0.074816
vt 0.784909 0.999983
vt 0.781886 0.074816
vt 0.785213 0.999983
vt 0.782191 0.074816
vt 0.785905 0.999983
vt 0.782882 0.074816
vt 0.786941 0.999983
vt 0.783918 0.074816
vt 0.788255 0.999983
vt 0.785233 0.074816
vt 0.789766 0.999983
vt 0.786743 0.074816
vt 0.790796 0.070810
vt 0.792110 0.069296
vt 0.793146 0.067311
vt 0.793838 0.064980
vt 0.794142 0.062449
vt 0.794040 0.059878
vt 0.793538 0.057427
vt 0.792668 0.055252
vt 0.791483 0.053488
vt 0.790059 0.052247
vt 0.788486 0.051606
vt 0.786860 0.051606
vt 0.785287 0.052247
vt 0.783863 0.053488
vt 0.782678 0.055252
vt 0.781808 0.057427
vt 0.781306 0.059878
vt 0.781204 0.062449
vt 0.781508 0.064980
vt 0.782200 0.067311
vt 0.783236 0.069296
vt 0.784550 0.070810
vt 0.786061 0.071759
vt 0.785723 0.065802
vt 0.784111 0.065409
vt 0.782600 0.064253
vt 0.781285 0.062407
vt 0.780250 0.059988
vt 0.779558 0.057147
vt 0.779254 0.054062
vt 0.779355 0.050928
vt 0.779858 0.047942
vt 0.780728 0.045291
vt 0.781913 0.043141
vt 0.783337 0.041629
vt 0.784910 0.040848
vt 0.786535 0.040848
vt 0.788109 0.041629
vt 0.789533 0.043141
vt 0.790717 0.045291
vt 0.791588 0.047942
vt 0.792090 0.050928
vt 0.792192 0.054062
vt 0.791888 0.057147
vt 0.791196 0.059988
vt 0.790160 0.062407
vt 0.788846 0.064253
vt 0.787335 0.065409
vt 0.785723 0.064289
vt 0.786818 0.057801
vt 0.784305 0.063943
vt 0.786127 0.057632
vt 0.782977 0.062927
vt 0.785479 0.057137
vt 0.781821 0.061304
vt 0.784916 0.056345
vt 0.780911 0.059177
vt 0.784472 0.055308
vt 0.780303 0.056679
vt 0.784175 0.054090
vt 0.780035 0.053967
vt 0.784044 0.052768
vt 0.780125 0.051212
vt 0.784088 0.051424
vt 0.780566 0.048586
vt 0.784303 0.050144
vt 0.781332 0.046255
vt 0.784075 0.046709
vt 0.784677 0.049008
vt 0.782373 0.044366
vt 0.785116 0.044819
vt 0.783625 0.043036
vt 0.786368 0.043489
vt 0.787751 0.042803
vt 0.785008 0.042349
vt 0.786437 0.042349
vt 0.787821 0.043036
vt 0.789073 0.044366
vt 0.790114 0.046255
vt 0.790880 0.048586
vt 0.789332 0.050144
vt 0.791321 0.051212
vt 0.789548 0.051424
vt 0.791411 0.053967
vt 0.789591 0.052768
vt 0.791143 0.056679
vt 0.789461 0.054090
vt 0.790535 0.059177
vt 0.789164 0.055308
vt 0.789624 0.061304
vt 0.788720 0.056345
vt 0.788468 0.062927
vt 0.788157 0.057137
vt 0.787140 0.063943
vt 0.787509 0.057632
vt 0.786505 0.062401
vt 0.786818 0.062305
vt 0.785557 0.062187
vt 0.786288 0.062220
vt 0.784668 0.061558
vt 0.785792 0.061971
vt 0.783894 0.060554
vt 0.785360 0.061573
vt 0.783284 0.059237
vt 0.785020 0.061052
vt 0.782878 0.057692
vt 0.784792 0.060440
vt 0.782698 0.056013
vt 0.784692 0.059776
vt 0.782758 0.054308
vt 0.784726 0.059101
vt 0.783054 0.052684
vt 0.784891 0.058457
vt 0.783566 0.051241
vt 0.785100 0.060532
vt 0.785177 0.057886
vt 0.784263 0.050071
vt 0.785899 0.059582
vt 0.785899 0.063968
vt 0.785101 0.049248
vt 0.786858 0.063300
vt 0.786027 0.048824
vt 0.787918 0.062955
vt 0.785175 0.062501
vt 0.786983 0.048824
vt 0.786270 0.062501
vt 0.787909 0.049248
vt 0.787331 0.062846
vt 0.788747 0.050071
vt 0.788290 0.063515
vt 0.788290 0.059129
vt 0.789444 0.051241
vt 0.789088 0.060078
vt 0.789675 0.061250
vt 0.789956 0.052684
vt 0.788745 0.058457
vt 0.790252 0.054308
vt 0.788910 0.059101
vt 0.790311 0.056013
vt 0.788943 0.059776
vt 0.790132 0.057692
vt 0.788843 0.060440
vt 0.789725 0.059237
vt 0.788616 0.061052
vt 0.789116 0.060554
vt 0.788276 0.061573
vt 0.788342 0.061558
vt 0.787844 0.061971
vt 0.787453 0.062187
vt 0.787347 0.062220
vt 0.635174 0.323105
vt 0.598373 0.000211
vt 0.627287 0.323105
vt 0.598373 0.821828
vt 0.587858 0.000211
vt 0.595347 0.000211
vt 0.604019 0.000211
vt 0.587858 0.821828
vt 0.595347 0.821828
vt 0.604019 0.821828
vt 0.627287 0.352476
vt 0.635174 0.352476
vt 0.632857 0.340953
vt 0.629604 0.340953
vt 0.629604 0.332582
vt 0.632857 0.332582
vt 0.632857 0.340953
vt 0.629604 0.340953
vt 0.629604 0.332582
vt 0.632857 0.332582
vt 0.646607 0.343568
vt 0.643355 0.343568
vt 0.643355 0.335196
vt 0.646607 0.335196
s 1
usemtl shop_front13
f 15/27/1 2/2/2 4/4/2 16/28/2 18/32/3
f 5/5/4 6/7/5 8/12/6 7/10/7
f 7/11/7 8/13/6 12/21/8 11/19/9
f 11/20/9 12/22/8 10/17/10 9/15/11
f 9/16/11 10/17/10 6/8/5 5/6/4
f 1/1/2 13/24/12 17/29/13 14/26/2 3/3/2
f 12/23/8 8/14/6 6/9/5 10/18/10
f 15/27/1 18/32/3 22/40/14 20/36/15
f 19/34/12 20/37/15 22/41/14 21/38/16
f 17/29/13 18/32/3 16/28/2 14/26/2
f 18/33/3 17/30/13 21/39/16 22/42/14
f 17/31/13 13/25/12 19/35/12 21/39/16
f 23/43/17 24/45/18 26/47/19 25/46/20
f 31/53/21 32/54/22 34/57/6 33/55/7
f 29/51/23 30/52/24 28/50/25 27/48/26
f 27/48/26 28/49/25 24/44/18 23/43/17
f 25/46/20 29/51/23 27/48/26 23/43/17
f 30/52/24 26/47/19 24/45/18 28/50/25
f 33/55/7 34/56/6 38/61/8 37/60/9
f 37/60/9 38/62/8 36/59/12 35/58/27
f 38/62/8 34/57/6 32/54/22 36/59/12
f 101/125/28 100/124/29 116/140/30 115/139/31
f 44/68/32 42/66/33 39/63/34 40/64/35
f 41/65/36 42/66/33 44/68/32 43/67/37
f 98/122/38 97/121/39 119/143/40 118/142/41
f 82/106/42 80/104/43 105/129/44 106/130/45
f 43/67/37 44/68/32 46/70/46 45/69/47
f 107/131/48 106/130/45 110/134/49 109/133/50
f 76/100/51 74/98/52 102/126/53 103/127/54
f 45/69/47 46/70/46 48/72/55 47/71/56
f 85/109/57 40/64/35 132/156/58 131/155/59
f 70/94/60 68/92/61 99/123/62 100/124/29
f 47/71/56 48/72/55 50/74/63 49/73/64
f 88/112/65 87/111/66 129/153/67 128/152/68
f 65/89/69 64/88/70 96/120/71 97/121/39
f 49/73/64 50/74/63 52/76/72 51/75/73
f 91/115/74 90/114/75 126/150/76 125/149/77
f 62/86/78 61/85/79 93/117/80 94/118/81
f 51/75/73 52/76/72 54/78/82 53/77/83
f 94/118/81 93/117/80 123/147/84 122/146/85
f 58/82/86 56/80/87 90/114/75 91/115/74
f 53/77/83 54/78/82 56/80/87 55/79/88
f 97/121/39 96/120/71 120/144/89 119/143/40
f 52/76/72 50/74/63 87/111/66 88/112/65
f 55/79/88 56/80/87 58/82/86 57/81/90
f 100/124/29 99/123/62 117/141/91 116/140/30
f 46/70/46 44/68/32 40/64/35 85/109/57
f 57/81/90 58/82/86 60/84/92 59/83/93
f 39/63/34 107/131/48 109/133/50 108/132/94
f 84/108/95 82/106/42 106/130/45 107/131/48
f 103/127/54 102/126/53 114/138/96 113/137/97
f 78/102/98 76/100/51 103/127/54 104/128/99
f 106/130/45 105/129/44 111/135/100 110/134/49
f 72/96/101 70/94/60 100/124/29 101/125/28
f 40/64/35 39/63/34 108/132/94 132/156/58
f 66/90/102 65/89/69 97/121/39 98/122/38
f 87/111/66 86/110/103 130/154/104 129/153/67
f 63/87/105 62/86/78 94/118/81 95/119/106
f 90/114/75 89/113/107 127/151/108 126/150/76
f 60/84/92 58/82/86 91/115/74 92/116/109
f 93/117/80 92/116/109 124/148/110 123/147/84
f 54/78/82 52/76/72 88/112/65 89/113/107
f 96/120/71 95/119/106 121/145/111 120/144/89
f 48/72/55 46/70/46 85/109/57 86/110/103
f 67/91/112 68/92/61 70/94/60 69/93/113
f 99/123/62 98/122/38 118/142/41 117/141/91
f 80/104/43 78/102/98 104/128/99 105/129/44
f 69/93/113 70/94/60 72/96/101 71/95/114
f 102/126/53 101/125/28 115/139/31 114/138/96
f 74/98/52 72/96/101 101/125/28 102/126/53
f 71/95/114 72/96/101 74/98/52 73/97/115
f 105/129/44 104/128/99 112/136/116 111/135/100
f 68/92/61 66/90/102 98/122/38 99/123/62
f 73/97/115 74/98/52 76/100/51 75/99/117
f 86/110/103 85/109/57 131/155/59 130/154/104
f 64/88/70 63/87/105 95/119/106 96/120/71
f 75/99/117 76/100/51 78/102/98 77/101/118
f 89/113/107 88/112/65 128/152/68 127/151/108
f 61/85/79 60/84/92 92/116/109 93/117/80
f 77/101/118 78/102/98 80/104/43 79/103/119
f 115/139/31 116/140/30 141/173/120 140/171/121
f 56/80/87 54/78/82 89/113/107 90/114/75
f 79/103/119 80/104/43 82/106/42 81/105/122
f 50/74/63 48/72/55 86/110/103 87/111/66
f 92/116/109 91/115/74 125/149/77 124/148/110
f 81/105/122 82/106/42 84/108/95 83/107/123
f 104/128/99 103/127/54 113/137/97 112/136/116
f 42/66/33 84/108/95 107/131/48 39/63/34
f 83/107/123 84/108/95 42/66/33 41/65/36
f 95/119/106 94/118/81 122/146/85 121/145/111
f 149/187/124 150/188/125 175/242/126 174/241/127
f 130/154/104 131/155/59 156/200/128 155/198/129
f 108/132/94 109/133/50 134/159/130 133/157/131
f 123/147/84 124/148/110 149/187/124 148/186/132
f 116/140/30 117/141/91 142/175/133 141/173/120
f 131/155/59 132/156/58 157/202/134 156/200/128
f 109/133/50 110/134/49 135/161/135 134/159/130
f 124/148/110 125/149/77 150/188/125 149/187/124
f 117/141/91 118/142/41 143/178/136 142/175/133
f 132/156/58 108/132/94 133/157/131 157/202/134
f 110/134/49 111/135/100 136/163/137 135/161/135
f 125/149/77 126/150/76 151/190/138 150/188/125
f 118/142/41 119/143/40 144/180/139 143/178/136
f 111/135/100 112/136/116 137/165/140 136/163/137
f 126/150/76 127/151/108 152/192/141 151/190/138
f 119/143/40 120/144/89 145/183/142 144/180/139
f 112/136/116 113/137/97 138/167/143 137/165/140
f 127/151/108 128/152/68 153/194/144 152/192/141
f 120/144/89 121/145/111 146/184/145 145/183/142
f 113/137/97 114/138/96 139/169/146 138/167/143
f 128/152/68 129/153/67 154/196/147 153/194/144
f 121/145/111 122/146/85 147/185/148 146/184/145
f 114/138/96 115/139/31 140/171/121 139/169/146
f 129/153/67 130/154/104 155/198/129 154/196/147
f 122/146/85 123/147/84 148/186/132 147/185/148
f 182/257/149 158/204/150 159/206/151 160/208/152 161/210/153 162/212/154 163/214/155 164/216/156 165/218/157 166/220/158 167/222/159 168/225/160 169/228/161 170/230/162 171/233/163 172/235/164 173/237/165 174/240/127 175/243/126 176/245/166 177/247/167 178/249/168 179/251/169 180/253/170 181/255/171
f 142/176/133 143/179/136 168/226/160 167/223/159
f 157/203/134 133/158/131 158/205/150 182/258/149
f 135/162/135 136/164/137 161/211/153 160/209/152
f 150/189/125 151/191/138 176/246/166 175/244/126
f 143/179/136 144/181/139 169/229/161 168/227/160
f 136/164/137 137/166/140 162/213/154 161/211/153
f 151/191/138 152/193/141 177/248/167 176/246/166
f 144/181/139 145/182/142 170/231/162 169/229/161
f 137/166/140 138/168/143 163/215/155 162/213/154
f 152/193/141 153/195/144 178/250/168 177/248/167
f 145/183/142 146/184/145 171/234/163 170/232/162
f 138/168/143 139/170/146 164/217/156 163/215/155
f 153/195/144 154/197/147 179/252/169 178/250/168
f 146/184/145 147/185/148 172/236/164 171/234/163
f 139/170/146 140/172/121 165/219/157 164/217/156
f 154/197/147 155/199/129 180/254/170 179/252/169
f 147/185/148 148/186/132 173/238/165 172/236/164
f 140/172/121 141/174/120 166/221/158 165/219/157
f 155/199/129 156/201/128 181/256/171 180/254/170
f 133/158/131 134/160/130 159/207/151 158/205/150
f 148/186/132 149/187/124 174/241/127 173/239/165
f 141/174/120 142/177/133 167/224/159 166/221/158
f 156/201/128 157/203/134 182/258/149 181/256/171
f 134/160/130 135/162/135 160/209/152 159/207/151
f 192/270/172 191/269/173 194/272/174 193/271/175
f 189/266/27 190/267/12 188/264/12 187/263/27
f 195/273/176 196/274/177 200/278/178 199/277/179
f 183/259/180 192/270/172 193/271/175 196/274/177
f 190/268/12 186/262/2 184/260/2 188/265/12
f 191/269/173 185/261/181 195/273/176 194/272/174
f 185/261/181 183/259/180 196/274/177 195/273/176
f 198/276/182 199/277/179 203/281/183 202/280/184
f 194/272/174 195/273/176 199/277/179 198/276/182
f 193/271/175 194/272/174 198/276/182 197/275/185
f 196/274/177 193/271/175 197/275/185 200/278/178
f 203/281/183 204/282/186 201/279/187 202/280/184
f 197/275/185 198/276/182 202/280/184 201/279/187
f 200/278/178 197/275/185 201/279/187 204/282/186
f 199/277/179 200/278/178 204/282/186 203/281/183
