# Blender 3.3.1
# www.blender.org
mtllib shop_front10.mtl
o shop_front10
v -2.500003 -0.001465 -0.000000
v 2.500003 -0.001465 -0.000000
v -2.500003 1.961084 0.000000
v 2.500003 1.961084 0.000000
v -2.362686 1.561852 -0.000872
v -2.362686 1.561852 0.135203
v -2.414809 1.838243 -0.000872
v -2.414809 1.838243 0.135203
v 2.155816 1.561852 -0.000872
v 2.155816 1.561852 0.135203
v 2.205457 1.838243 -0.000872
v 2.205457 1.838243 0.135203
v -2.434103 1.837356 -0.000574
v -2.434103 1.837356 0.163947
v -2.434103 1.957897 -0.000574
v -2.434103 1.957897 0.163947
v 2.231569 1.837356 -0.000574
v 2.231569 1.837356 0.163947
v 2.231569 1.957897 -0.000574
v 2.231569 1.957897 0.163947
v -2.381564 1.644535 0.030456
v -2.381564 1.644535 -0.000814
v -2.381564 1.583624 0.030456
v -2.381564 1.583624 -0.000814
v -2.498214 1.644535 0.030456
v -2.498214 1.644535 -0.000814
v -2.498214 1.583624 0.030456
v -2.498214 1.583624 -0.000814
v -2.500003 1.363398 0.000000
v 2.500003 1.363398 0.000000
v -0.805648 1.363398 0.000000
v -0.805648 -0.001465 -0.000000
v 0.622281 1.363398 0.000000
v 0.622281 -0.001465 -0.000000
v 0.705097 1.363398 0.000000
v 0.705097 -0.001465 -0.000000
v 1.345868 1.363398 -0.000682
v -0.805648 1.363398 -0.032060
v 1.389616 1.363398 -0.000682
v 0.622281 1.363398 -0.032060
v 2.066414 -0.001465 -0.000000
v 2.066414 1.363398 0.000000
v 1.345868 0.319957 -0.000447
v 1.389616 0.320991 -0.000447
v 2.066414 0.326162 -0.000000
v 0.705097 0.317077 -0.000000
v -0.805648 -0.001465 -0.032060
v 0.622281 -0.001465 -0.032060
v 1.345868 1.363398 -0.014903
v 0.705097 1.363398 -0.014903
v 2.066414 1.363398 -0.014903
v 1.389616 1.363398 -0.014903
v 1.345868 0.319957 -0.014903
v 1.389616 0.320991 -0.014903
v 2.066414 0.326162 -0.014903
v 0.705097 0.317077 -0.014903
v 0.705097 0.317077 -0.000447
v 0.705097 -0.001465 -0.000447
v 2.066414 -0.001465 -0.000447
v 2.066414 0.326162 -0.000447
v -0.536063 -0.000002 -0.023653
v -0.536063 -0.000002 -0.003833
v -0.536063 0.498876 -0.023653
v -0.536063 0.498876 -0.003833
v -0.091082 -0.000002 -0.023653
v -0.091082 -0.000002 -0.003833
v -0.091082 0.498876 -0.023653
v -0.091082 0.498876 -0.003833
v -0.580210 0.498876 -0.023653
v -0.580210 -0.000002 -0.023653
v -0.580210 0.498876 -0.003833
v -0.580210 -0.000002 -0.003833
v -0.497613 0.498876 -0.003833
v -0.497612 0.498876 -0.023653
v -0.147891 1.121577 -0.003833
v -0.147891 0.498876 -0.003833
v -0.147891 0.498876 -0.023653
v -0.091082 1.121577 -0.003833
v -0.497612 1.121577 -0.023653
v -0.536063 1.121577 -0.023653
v -0.536063 1.121577 -0.003833
v -0.091082 1.121577 -0.023653
v -0.497613 1.121577 -0.003833
v -0.147891 1.121577 -0.023653
v -0.497612 1.165076 -0.023653
v -0.536063 1.165076 -0.023653
v -0.536063 1.165076 -0.003833
v -0.497613 1.165076 -0.003833
v -0.148338 1.165076 -0.023634
v -0.148339 1.165076 -0.003814
v -0.092044 1.165076 -0.023631
v -0.092046 1.165076 -0.003811
v -0.536063 0.498876 -0.026448
v -0.536063 -0.000002 -0.026449
v -0.536063 -0.000002 -0.001037
v -0.536063 0.498876 -0.001037
v -0.580210 0.498876 -0.026448
v -0.580210 -0.000002 -0.026449
v -0.580210 -0.000002 -0.001037
v -0.580210 0.498876 -0.001037
v -0.580210 0.498876 -0.003833
v -0.580210 0.498876 -0.023653
v -0.580210 -0.000002 -0.023653
v -0.580210 -0.000002 -0.003833
v -0.580210 0.498876 -0.023585
v -0.580210 -0.000002 -0.023585
v -0.580210 -0.000002 -0.003901
v -0.580210 0.498876 -0.003901
v -0.757073 0.498876 -0.003833
v -0.757073 0.498876 -0.023653
v -0.757073 -0.000002 -0.023653
v -0.757073 -0.000002 -0.003833
v -0.757073 0.498876 -0.023585
v -0.757073 -0.000002 -0.023585
v -0.757073 -0.000002 -0.003901
v -0.757073 0.498876 -0.003901
v -0.757073 0.498876 -0.003833
v -0.757073 0.498876 -0.023653
v -0.757073 -0.000002 -0.023653
v -0.757073 -0.000002 -0.003833
v -0.757073 0.498876 -0.026448
v -0.757073 -0.000002 -0.026449
v -0.757073 -0.000002 -0.001037
v -0.757073 0.498876 -0.001037
v -0.804826 0.498876 -0.003833
v -0.804826 0.498876 -0.023653
v -0.804826 -0.000002 -0.023653
v -0.804826 -0.000002 -0.003833
v -0.804826 0.498876 -0.026448
v -0.804826 -0.000002 -0.026449
v -0.804826 -0.000002 -0.001037
v -0.804826 0.498876 -0.001037
v -0.536063 1.167268 -0.003833
v -0.536063 1.167268 -0.023653
v -0.580210 1.167268 -0.003833
v -0.580210 1.167268 -0.023653
v -0.536063 1.167268 -0.026448
v -0.580210 1.167268 -0.026448
v -0.580210 1.167268 -0.001037
v -0.536063 1.167268 -0.001037
v -0.757073 1.167268 -0.003833
v -0.757073 1.167268 -0.023653
v -0.757073 1.167268 -0.026448
v -0.757073 1.167268 -0.001037
v -0.804826 1.167268 -0.003833
v -0.804826 1.167268 -0.023653
v -0.804826 1.167268 -0.026448
v -0.804826 1.167268 -0.001037
v -0.757073 1.190190 -0.003833
v -0.757073 1.190190 -0.023653
v -0.757073 1.190190 -0.026448
v -0.757073 1.190190 -0.001037
v -0.804826 1.190190 -0.003833
v -0.804826 1.190190 -0.023653
v -0.804826 1.190190 -0.026448
v -0.804826 1.190190 -0.001037
v -0.757073 1.292807 -0.003833
v -0.757073 1.292807 -0.023653
v -0.757073 1.292807 -0.026448
v -0.757073 1.292807 -0.001037
v -0.804826 1.292807 -0.003833
v -0.804826 1.292807 -0.023653
v -0.804826 1.292807 -0.026448
v -0.804826 1.292807 -0.001037
v 0.380636 1.167268 -0.001037
v 0.380636 1.167268 -0.023653
v -0.579104 1.190190 -0.026448
v -0.579104 1.190190 -0.001037
v -0.535994 1.167268 -0.003833
v -0.535994 1.167268 -0.023653
v -0.535994 1.167268 -0.026448
v -0.535994 1.167268 -0.001037
v 0.380636 1.167268 -0.026448
v 0.380636 1.167268 -0.003833
v -0.535994 1.190190 -0.026448
v -0.535994 1.190190 -0.001037
v 0.347218 1.167268 -0.003833
v 0.347218 1.167268 -0.023653
v 0.347218 1.167268 -0.026448
v 0.347218 1.167268 -0.001037
v 0.347218 1.190190 -0.003833
v 0.347218 1.190190 -0.023653
v 0.347218 1.190190 -0.026448
v 0.347218 1.190190 -0.001037
v 0.383565 1.190190 -0.003833
v 0.383565 1.190190 -0.023653
v 0.383565 1.190190 -0.026448
v 0.383565 1.190190 -0.001037
v 0.380636 0.027383 -0.001037
v 0.347218 0.027383 -0.001037
v 0.347218 0.027383 -0.003833
v 0.563651 1.190190 -0.023653
v 0.380636 0.027383 -0.026449
v 0.563651 1.190190 -0.026448
v 0.347218 0.027383 -0.023653
v 0.347218 0.027383 -0.026449
v 0.380636 -0.001660 -0.001037
v 0.347218 -0.001660 -0.001037
v 0.347218 -0.001660 -0.003833
v 0.380636 -0.001660 -0.003833
v 0.380636 -0.001660 -0.026449
v 0.380636 -0.001660 -0.023653
v 0.347218 -0.001660 -0.023653
v 0.347218 -0.001660 -0.026449
v 0.563651 1.190190 -0.001037
v 0.563651 1.167267 -0.001037
v 0.622434 1.331797 -0.001104
v 0.563651 1.167267 -0.026448
v 0.563583 1.331949 -0.001037
v 0.563614 1.331794 -0.026576
v -0.535994 1.293061 -0.026448
v -0.535994 1.293061 -0.001037
v -0.579104 1.293061 -0.026448
v -0.579104 1.293061 -0.001037
v 0.382119 1.292807 -0.003833
v 0.347218 1.292904 -0.003833
v 0.382119 1.292807 -0.001037
v 0.347218 1.292904 -0.001037
v 0.347218 1.292904 -0.023653
v 0.382119 1.292807 -0.023653
v 0.382119 1.292807 -0.026448
v 0.346656 1.292807 -0.026448
v -0.757073 1.331949 -0.003833
v -0.757073 1.331949 -0.023653
v -0.757073 1.331949 -0.026448
v -0.757073 1.331949 -0.001037
v -0.804826 1.331949 -0.003833
v -0.804826 1.331949 -0.023653
v -0.804826 1.331949 -0.026448
v -0.804826 1.331949 -0.001037
v -0.577558 1.292807 -0.003833
v -0.577558 1.292807 -0.023653
v -0.577558 1.292807 -0.026448
v -0.577558 1.292807 -0.001037
v -0.577558 1.331949 -0.003833
v -0.577558 1.331949 -0.023653
v -0.577558 1.331949 -0.026448
v -0.577558 1.331949 -0.001037
v -0.537066 1.292807 -0.003833
v -0.537066 1.292807 -0.023653
v -0.537066 1.292807 -0.026448
v -0.537066 1.292807 -0.001037
v -0.537066 1.331949 -0.003833
v -0.537066 1.331949 -0.023653
v -0.537066 1.331949 -0.026448
v -0.537066 1.331949 -0.001037
v -0.129480 1.132368 -0.014910
v -0.129480 0.485174 -0.012120
v -0.129480 0.485174 -0.014910
v -0.129480 1.132368 -0.012120
v 0.346656 1.331949 -0.003833
v 0.346656 1.331949 -0.023653
v 0.346656 1.331949 -0.026448
v 0.346656 1.331949 -0.001037
v -0.511914 1.132368 -0.014910
v -0.511914 0.485174 -0.012120
v -0.511914 0.485174 -0.014910
v -0.511914 1.132368 -0.012120
v 0.387001 1.331949 -0.003833
v 0.387001 1.331949 -0.023653
v 0.387001 1.331949 -0.026448
v 0.387001 1.331949 -0.001037
v 0.563583 1.292807 -0.001037
v 0.563614 1.292992 -0.026571
v 0.563583 1.331949 -0.026448
v -0.564384 1.295968 -0.014910
v -0.564384 0.485174 -0.012120
v -0.564384 0.485174 -0.014910
v -0.564384 1.295968 -0.012120
v -0.774769 1.295968 -0.014910
v -0.774769 0.485174 -0.012120
v -0.774769 0.485174 -0.014910
v -0.774769 1.295968 -0.012120
v -0.090975 -0.000002 -0.023653
v -0.090975 -0.000002 -0.003833
v -0.090975 0.498876 -0.003833
v 0.354007 -0.000002 -0.023653
v 0.354007 -0.000002 -0.003833
v 0.354007 0.498876 -0.023653
v 0.354007 0.498876 -0.003833
v -0.052525 0.498876 -0.003833
v -0.052524 0.498876 -0.023653
v 0.297197 1.121577 -0.003833
v 0.297197 0.498876 -0.003833
v 0.297198 0.498876 -0.023653
v 0.354007 1.121577 -0.003833
v -0.052524 1.121577 -0.023653
v -0.090975 1.121577 -0.003833
v 0.354007 1.121577 -0.023653
v -0.052525 1.121577 -0.003833
v 0.297198 1.121577 -0.023653
v -0.090975 1.165076 -0.003833
v -0.052525 1.165076 -0.003833
v 0.296750 1.165076 -0.003814
v 0.353044 1.165076 -0.023631
v 0.353043 1.165076 -0.003811
v 0.315609 1.132368 -0.014910
v 0.315609 0.485174 -0.012120
v 0.315609 0.485174 -0.014910
v 0.315609 1.132368 -0.012120
v -0.066826 1.132368 -0.014910
v -0.066826 0.485174 -0.012120
v -0.066826 0.485174 -0.014910
v -0.066826 1.132368 -0.012120
v 0.380636 0.505373 -0.026448
v 0.380636 0.505377 -0.001037
v 0.380636 0.505373 -0.023810
v 0.380636 0.027383 -0.023810
v 0.380636 0.505377 -0.003676
v 0.380636 0.027383 -0.003676
v 0.380636 -0.001660 -0.023810
v 0.380636 -0.001660 -0.021595
v 0.380636 -0.001660 -0.003676
v 0.380636 -0.001660 -0.005891
v 0.560600 0.505373 -0.023810
v 0.560600 0.027383 -0.023810
v 0.560600 0.505377 -0.003676
v 0.560600 0.027383 -0.003676
v 0.560600 -0.001660 -0.023810
v 0.560600 -0.001660 -0.021595
v 0.560600 -0.001660 -0.003676
v 0.560600 -0.001660 -0.005891
v 0.563614 0.505373 -0.026479
v 0.560600 0.027383 -0.026479
v 0.563614 0.505377 -0.001007
v 0.560600 0.027383 -0.001007
v 0.560600 -0.001660 -0.026479
v 0.560600 -0.001660 -0.023676
v 0.560600 -0.001660 -0.001007
v 0.560600 -0.001660 -0.003809
v 0.622434 0.505373 -0.026479
v 0.622434 0.027383 -0.026479
v 0.622434 0.505377 -0.001007
v 0.622434 0.027383 -0.001007
v 0.622434 -0.001660 -0.026479
v 0.622434 -0.001660 -0.023676
v 0.622434 -0.001660 -0.001007
v 0.622434 -0.001660 -0.003809
v 0.563614 1.167363 -0.001090
v 0.563614 1.167360 -0.026562
v 0.622434 1.167363 -0.001090
v 0.622434 1.167360 -0.026562
v 0.563614 1.189816 -0.001093
v 0.563614 1.189813 -0.026565
v 0.622434 1.189816 -0.001093
v 0.622434 1.189813 -0.026565
v 0.622434 1.292995 -0.001099
v 0.622434 1.292992 -0.026571
v 0.622434 1.331794 -0.026576
v -2.329392 -0.002773 -0.001242
v -2.329392 -0.002773 0.010072
v -2.329392 1.570003 -0.001242
v -2.329392 1.570003 0.010072
v -0.804980 -0.002773 -0.001242
v -0.804980 -0.002773 0.010072
v -0.804980 1.570003 -0.001242
v -0.804980 1.570003 0.010072
v -2.351128 1.365618 -0.007978
v -2.351128 1.365618 0.161428
v -2.351128 1.561269 -0.007978
v -2.351128 1.561269 0.100502
v -2.330453 1.365618 -0.007978
v -2.330453 1.365618 0.161428
v -2.330453 1.561269 -0.007978
v -2.330453 1.561269 0.100502
v -0.858865 1.365618 -0.007978
v -0.858865 1.365618 0.161428
v -0.858865 1.561269 -0.007978
v -0.858865 1.561269 0.160567
v -0.849795 1.365618 -0.007978
v -0.849795 1.365618 0.161428
v -0.849795 1.561269 -0.007978
v -0.849795 1.561269 0.160567
v -0.848545 1.558856 0.000000
v 0.674324 1.558856 0.000000
v -0.856375 1.509388 0.000000
v -2.333827 1.509388 0.000000
v -0.856375 1.507024 -0.014931
v -2.333827 1.507024 -0.014931
v -0.856375 1.415118 -0.014931
v -2.333827 1.415118 -0.014931
v -0.856375 1.412754 0.000000
v -2.333827 1.412754 0.000000
v -0.856375 1.415118 0.014931
v -2.333827 1.415118 0.014931
v -0.856375 1.421981 0.028400
v -2.333827 1.421981 0.028400
v -0.856375 1.432671 0.039090
v -2.333827 1.432671 0.039090
v -0.856375 1.446140 0.045953
v -2.333827 1.446140 0.045953
v -0.856375 1.461071 0.048318
v -2.333827 1.461071 0.048318
v -0.856375 1.476002 0.045953
v -2.333827 1.476002 0.045953
v -0.856375 1.489471 0.039090
v -2.333827 1.489471 0.039090
v -0.856375 1.500161 0.028400
v -2.333827 1.500161 0.028400
v -0.856375 1.507024 0.014931
v -2.333827 1.507024 0.014931
v 0.674324 1.555034 -0.024128
v -0.848545 1.555034 -0.024128
v 0.674324 1.406520 -0.024128
v -0.848545 1.406520 -0.024128
v 0.674324 1.402698 0.005976
v -0.848545 1.402698 0.005976
v 0.674324 1.406494 0.007807
v -0.848545 1.406494 0.007807
v 0.674324 1.417610 0.045894
v -0.848545 1.417610 0.045894
v 0.674324 1.434884 0.063167
v -0.848545 1.434884 0.063167
v 0.674324 1.456650 0.074257
v -0.848545 1.456650 0.074257
v 0.674324 1.480777 0.078079
v -0.848545 1.480777 0.078079
v 0.674324 1.504905 0.074257
v -0.848545 1.504905 0.074257
v 0.674324 1.526671 0.063167
v -0.848545 1.526671 0.063167
v 0.674324 1.543944 0.045894
v -0.848545 1.543944 0.045894
v 0.674324 1.555034 0.024128
v -0.848545 1.555034 0.024128
v 0.673075 1.365618 -0.007978
v 0.673075 1.365618 0.161428
v 0.673075 1.561269 -0.007978
v 0.673075 1.561269 0.160567
v 0.682145 1.365618 -0.007978
v 0.682145 1.365618 0.161428
v 0.682145 1.561269 -0.007978
v 0.682145 1.561269 0.160567
v 0.680351 1.538922 0.000000
v 2.164878 1.556284 0.000000
v 2.164922 1.552463 -0.024128
v 0.680395 1.535101 -0.024128
v 2.166615 1.403958 -0.024128
v 0.682088 1.386596 -0.024128
v 2.166658 1.400136 0.000000
v 0.682132 1.382775 0.000000
v 2.166615 1.403958 0.024128
v 0.682088 1.386596 0.024128
v 2.166488 1.415047 0.045894
v 0.681962 1.397686 0.045894
v 2.166291 1.432320 0.063167
v 0.681765 1.414958 0.063167
v 2.166043 1.454084 0.074257
v 0.681516 1.436722 0.074257
v 2.165768 1.478210 0.078079
v 0.681241 1.460848 0.078079
v 2.165493 1.502336 0.074257
v 0.680966 1.484974 0.074257
v 2.165245 1.524101 0.063167
v 0.680718 1.506739 0.063167
v 2.165048 1.541373 0.045894
v 0.680521 1.524011 0.045894
v 2.164922 1.552463 0.024128
v 0.680395 1.535101 0.024128
v 2.164241 1.399466 -0.007978
v 2.164241 1.399466 0.095531
v 2.164241 1.582749 -0.007978
v 2.164241 1.582749 0.094671
v 2.186330 1.399466 -0.007978
v 2.186330 1.399466 0.095531
v 2.186330 1.582749 -0.007978
v 2.186330 1.582749 0.094671
v -0.848545 1.234360 0.008242
v 0.674324 1.234360 0.008242
v -0.848545 1.234310 0.006110
v 0.674324 1.234310 0.006110
v -0.871868 0.552153 0.010850
v -0.873395 0.558896 0.004117
v -0.869855 0.562435 0.004117
v -0.868749 0.559542 0.009695
v -0.869855 0.562435 -0.001396
v -0.873395 0.558896 -0.001396
v -0.868749 0.506926 0.009695
v -0.869855 0.504032 0.004117
v -0.873395 0.507572 0.004117
v -0.871868 0.514314 0.010850
v -0.873395 0.507572 -0.001396
v -0.869855 0.504032 -0.001396
v -2.311755 0.492986 -0.001396
v -2.315295 0.496526 -0.001396
v -2.313768 0.503269 0.010850
v -2.315295 0.496526 0.004117
v -2.311755 0.492986 0.004117
v -2.310649 0.495880 0.009695
v -2.315295 0.547850 -0.001396
v -2.311755 0.551389 -0.001396
v -2.310649 0.548496 0.009695
v -2.311755 0.551389 0.004117
v -2.315295 0.547850 0.004117
v -2.313768 0.541107 0.010850
v -2.295621 0.496526 -0.001396
v -2.299161 0.492986 -0.001396
v -2.297148 0.503269 0.010850
v -2.300267 0.495880 0.009695
v -2.299161 0.492986 0.004117
v -2.295621 0.496526 0.004117
v -2.299161 0.551389 -0.001396
v -2.295621 0.547850 -0.001396
v -2.300267 0.548496 0.009695
v -2.297148 0.541107 0.010850
v -2.295621 0.547850 0.004117
v -2.299161 0.551389 0.004117
v -2.308867 0.543206 0.013423
v -2.313090 0.539094 0.012268
v -2.308024 0.536773 0.015462
v -2.302049 0.543206 0.013423
v -2.302892 0.536773 0.015462
v -2.297826 0.539094 0.012268
v -2.313090 0.505282 0.012268
v -2.308867 0.501170 0.013423
v -2.308024 0.507603 0.015462
v -2.297826 0.505282 0.012268
v -2.302892 0.507603 0.015462
v -2.302049 0.501170 0.013423
v -0.853721 0.507572 -0.001396
v -0.857261 0.504032 -0.001396
v -0.855248 0.514314 0.010850
v -0.858367 0.506926 0.009695
v -0.857261 0.504032 0.004117
v -0.853721 0.507572 0.004117
v -0.857261 0.562435 -0.001396
v -0.853721 0.558896 -0.001396
v -0.858367 0.559542 0.009695
v -0.855248 0.552153 0.010850
v -0.853721 0.558896 0.004117
v -0.857261 0.562435 0.004117
v -0.866967 0.554252 0.013423
v -0.871190 0.550140 0.012268
v -0.866124 0.547819 0.015462
v -0.860149 0.554252 0.013423
v -0.860992 0.547819 0.015462
v -0.855926 0.550140 0.012268
v -0.871190 0.516328 0.012268
v -0.866967 0.512216 0.013423
v -0.866124 0.518649 0.015462
v -0.855926 0.516328 0.012268
v -0.860992 0.518649 0.015462
v -0.860149 0.512216 0.013423
v -0.832358 0.533035 0.010850
v -0.833884 0.539778 0.004117
v -0.830345 0.543317 0.004117
v -0.829239 0.540424 0.009695
v -0.830345 0.543317 -0.001396
v -0.833884 0.539778 -0.001396
v -0.829239 0.487808 0.009695
v -0.830345 0.484914 0.004117
v -0.833884 0.488454 0.004117
v -0.832358 0.495197 0.010850
v -0.833884 0.488454 -0.001396
v -0.830345 0.484914 -0.001396
v -0.814211 0.488454 -0.001396
v -0.817751 0.484914 -0.001396
v -0.815738 0.495197 0.010850
v -0.818857 0.487808 0.009695
v -0.817751 0.484914 0.004117
v -0.814211 0.488454 0.004117
v -0.817751 0.543317 -0.001396
v -0.814211 0.539778 -0.001396
v -0.818857 0.540424 0.009695
v -0.815738 0.533035 0.010850
v -0.814211 0.539778 0.004117
v -0.817751 0.543317 0.004117
v -0.827457 0.535134 0.013423
v -0.831680 0.531022 0.012268
v -0.826614 0.528701 0.015462
v -0.820639 0.535134 0.013423
v -0.821482 0.528701 0.015462
v -0.816416 0.531022 0.012268
v -0.831680 0.497210 0.012268
v -0.827457 0.493098 0.013423
v -0.826614 0.499531 0.015462
v -0.816416 0.497210 0.012268
v -0.821482 0.499531 0.015462
v -0.820639 0.493098 0.013423
v 0.636171 0.540470 0.010850
v 0.634645 0.547213 0.004117
v 0.638184 0.550752 0.004117
v 0.639291 0.547859 0.009695
v 0.638184 0.550752 -0.001396
v 0.634645 0.547213 -0.001396
v 0.639291 0.495242 0.009695
v 0.638184 0.492349 0.004117
v 0.634645 0.495889 0.004117
v 0.636171 0.502631 0.010850
v 0.634645 0.495889 -0.001396
v 0.638184 0.492349 -0.001396
v 0.654318 0.495889 -0.001396
v 0.650778 0.492349 -0.001396
v 0.652791 0.502631 0.010850
v 0.649672 0.495242 0.009695
v 0.650778 0.492349 0.004117
v 0.654318 0.495889 0.004117
v 0.650778 0.550752 -0.001396
v 0.654318 0.547213 -0.001396
v 0.649672 0.547859 0.009695
v 0.652791 0.540470 0.010850
v 0.654318 0.547213 0.004117
v 0.650778 0.550752 0.004117
v 0.641072 0.542569 0.013423
v 0.636849 0.538457 0.012268
v 0.641916 0.536136 0.015462
v 0.647890 0.542569 0.013423
v 0.647047 0.536136 0.015462
v 0.652113 0.538457 0.012268
v 0.636849 0.504645 0.012268
v 0.641072 0.500533 0.013423
v 0.641916 0.506966 0.015462
v 0.652113 0.504645 0.012268
v 0.647047 0.506966 0.015462
v 0.647890 0.500533 0.013423
v 0.677593 0.543656 0.010850
v 0.676067 0.550399 0.004117
v 0.679606 0.553939 0.004117
v 0.680712 0.551045 0.009695
v 0.679606 0.553939 -0.001396
v 0.676067 0.550399 -0.001396
v 0.680712 0.498429 0.009695
v 0.679606 0.495535 0.004117
v 0.676067 0.499075 0.004117
v 0.677593 0.505818 0.010850
v 0.676067 0.499075 -0.001396
v 0.679606 0.495535 -0.001396
v 0.695740 0.499075 -0.001396
v 0.692200 0.495535 -0.001396
v 0.694213 0.505818 0.010850
v 0.691094 0.498429 0.009695
v 0.692200 0.495535 0.004117
v 0.695740 0.499075 0.004117
v 0.692200 0.553939 -0.001396
v 0.695740 0.550399 -0.001396
v 0.691094 0.551045 0.009695
v 0.694213 0.543656 0.010850
v 0.695740 0.550399 0.004117
v 0.692200 0.553939 0.004117
v 0.682494 0.545755 0.013423
v 0.678271 0.541643 0.012268
v 0.683337 0.539322 0.015462
v 0.689312 0.545755 0.013423
v 0.688469 0.539322 0.015462
v 0.693535 0.541643 0.012268
v 0.678271 0.507831 0.012268
v 0.682494 0.503719 0.013423
v 0.683337 0.510152 0.015462
v 0.693535 0.507831 0.012268
v 0.688469 0.510152 0.015462
v 0.689312 0.503719 0.013423
v -2.434103 1.923003 -0.000574
v -2.434103 1.923003 0.163947
v 2.231569 1.923003 -0.000574
v 2.231569 1.923003 0.163947
v -2.434103 1.940450 0.163947
v 2.231569 1.940450 -0.000574
v -2.434103 1.940450 -0.000574
v 2.231569 1.940450 0.163947
v -2.444984 1.940409 0.177545
v -2.444984 1.957937 0.177545
v -2.444984 1.957937 -0.000617
v 2.242450 1.957937 0.177545
v 2.242450 1.957937 -0.000617
v 2.242450 1.940409 -0.000617
v -2.444984 1.940409 -0.000617
v 2.242450 1.940409 0.177545
v -2.333827 1.502338 -0.024128
v -2.333827 1.419804 -0.024128
v 2.195419 1.635135 0.006164
v 2.198310 1.783633 0.006164
v 2.217771 1.463523 0.006164
v 2.237933 0.035443 0.006164
v 2.220278 1.463523 0.005631
v 2.240440 0.035443 0.005631
v 2.222352 1.463523 0.004125
v 2.242514 0.035443 0.004125
v 2.223633 1.463523 0.001905
v 2.243796 0.035443 0.001905
v 2.223901 1.463523 -0.000644
v 2.244063 0.035443 -0.000644
v 2.223109 1.463523 -0.003082
v 2.221394 1.463523 -0.004987
v 2.219052 1.463523 -0.006029
v 2.216489 1.463523 -0.006029
v 2.214148 1.463523 -0.004987
v 2.212433 1.463523 -0.003082
v 2.211641 1.463523 -0.000644
v 2.231803 0.035443 -0.000644
v 2.211908 1.463523 0.001905
v 2.232071 0.035443 0.001905
v 2.213190 1.463523 0.004125
v 2.233352 0.035443 0.004125
v 2.215264 1.463523 0.005631
v 2.235426 0.035443 0.005631
v 2.200391 1.785033 0.005631
v 2.197926 1.635135 0.005631
v 2.202111 1.786191 0.004125
v 2.200000 1.635135 0.004125
v 2.203174 1.786906 0.001905
v 2.201282 1.635135 0.001905
v 2.203397 1.787056 -0.000644
v 2.201549 1.635135 -0.000644
v 2.193224 1.780211 -0.000644
v 2.189289 1.635135 -0.000644
v 2.193446 1.780361 0.001905
v 2.189557 1.635135 0.001905
v 2.194510 1.781076 0.004125
v 2.190838 1.635135 0.004125
v 2.196230 1.782234 0.005631
v 2.192912 1.635135 0.005631
v 2.203472 1.768159 -0.000644
v 2.203204 1.768159 0.001905
v 2.201922 1.768159 0.004125
v 2.199849 1.768159 0.005631
v 2.197341 1.768159 0.006164
v 2.191211 1.768159 -0.000644
v 2.191479 1.768159 0.001905
v 2.192760 1.768159 0.004125
v 2.194834 1.768159 0.005631
v 2.192104 1.783633 0.006164
v 2.192135 1.786140 0.005631
v 2.192161 1.788214 0.004125
v 2.192177 1.789495 0.001905
v 2.192181 1.789763 -0.000644
v 2.192027 1.777503 -0.000644
v 2.192031 1.777771 0.001905
v 2.192047 1.779053 0.004125
v 2.192073 1.781126 0.005631
v 2.202800 0.035184 -0.000643
v 2.202532 0.035184 0.001906
v 2.201250 0.035184 0.004126
v 2.199177 0.035184 0.005632
v 2.196669 0.035184 0.006165
v 2.190539 0.035184 -0.000643
v 2.190807 0.035184 0.001906
v 2.192088 0.035184 0.004126
v 2.194162 0.035184 0.005632
v 2.183499 1.241767 0.001905
v 2.184780 1.241767 0.004125
v 2.195491 1.241767 -0.000644
v 2.183231 1.241767 -0.000644
v 2.186854 1.241767 0.005632
v 2.189361 1.241767 0.006165
v 2.191868 1.241767 0.005632
v 2.195224 1.241767 0.001905
v 2.193942 1.241767 0.004125
v 2.240440 0.017748 -0.005365
v 2.237933 0.017215 -0.005359
v 2.242514 0.019255 -0.005382
v 2.243796 0.021474 -0.005407
v 2.244063 0.024023 -0.005436
v 2.231803 0.024023 -0.005436
v 2.232071 0.021474 -0.005407
v 2.233352 0.019255 -0.005382
v 2.235426 0.017748 -0.005365
v 2.202800 0.024019 -0.005695
v 2.202532 0.021470 -0.005666
v 2.201250 0.019250 -0.005641
v 2.199177 0.017744 -0.005624
v 2.196669 0.017211 -0.005618
v 2.190539 0.024019 -0.005695
v 2.190807 0.021470 -0.005666
v 2.192088 0.019250 -0.005641
v 2.194162 0.017744 -0.005624
v 2.230500 0.749483 0.006164
v 2.233007 0.749483 0.005631
v 2.235080 0.749483 0.004125
v 2.236362 0.749483 0.001905
v 2.236630 0.749483 -0.000644
v 2.224369 0.749483 -0.000644
v 2.224637 0.749483 0.001905
v 2.225919 0.749483 0.004125
v 2.227992 0.749483 0.005631
v 0.569816 1.297524 -0.014910
v 0.569816 0.501644 -0.012120
v 0.569816 0.501644 -0.014910
v 0.569816 1.297524 -0.012120
v 0.375623 1.297524 -0.014910
v 0.375623 0.501644 -0.012120
v 0.375623 0.501644 -0.014910
v 0.375623 1.297524 -0.012120
v 0.349079 1.188773 -0.014910
v -0.539032 1.188773 -0.012120
v -0.539032 1.188773 -0.014910
v 0.349079 1.188773 -0.012120
v 0.349079 1.294252 -0.014910
v -0.539032 1.294252 -0.012120
v -0.539032 1.294252 -0.014910
v 0.349079 1.294252 -0.012120
v -1.000000 0.006014 -0.031884
v -1.000000 1.392720 -0.031884
v -1.000000 0.006014 -2.031884
v -1.000000 1.392721 -2.031884
v 2.098077 0.006014 -0.031884
v 2.098077 1.392720 -0.031884
v 2.098077 0.006014 -2.031884
v 2.098077 1.392721 -2.031884
vn -0.0000 -0.0001 1.0000
vn 0.3015 -0.3016 0.9045
vn -0.3015 -0.3016 0.9045
vn 0.3016 -0.3015 0.9045
vn -0.3016 -0.3018 0.9044
vn 0.3016 -0.3018 0.9044
vn -0.3016 -0.3015 0.9045
vn -0.0000 -0.0002 1.0000
vn -0.6382 -0.7698 -0.0000
vn -0.5163 -0.6228 0.5878
vn -0.6335 0.5252 0.5682
vn -0.7698 0.6382 -0.0000
vn 0.6310 0.5278 0.5686
vn 0.7671 0.6416 -0.0000
vn 0.5193 -0.6209 0.5873
vn 0.6416 -0.7671 -0.0000
vn -0.0015 1.0000 -0.0011
vn 0.0015 1.0000 -0.0011
vn -0.5771 0.5780 0.5770
vn 0.5771 0.5780 0.5770
vn 0.0034 0.8942 -0.4476
vn -0.0034 0.8942 -0.4476
vn 1.0000 -0.0000 -0.0000
vn 0.7071 -0.0000 0.7071
vn 0.5774 -0.5774 0.5774
vn 0.7071 -0.7071 -0.0000
vn -0.5774 -0.5774 0.5774
vn -0.7071 -0.7071 -0.0000
vn -0.7071 -0.0000 0.7071
vn 0.5774 0.5774 0.5774
vn 0.7071 0.7071 -0.0000
vn -0.5774 0.5774 0.5774
vn -0.7071 0.7071 -0.0000
vn -0.0000 -0.0000 1.0000
vn 0.3015 -0.9045 0.3015
vn 0.3162 -0.9487 -0.0000
vn -0.3050 0.3037 0.9026
vn 0.2990 0.3014 0.9054
vn -0.3015 -0.3015 0.9045
vn -1.0000 -0.0000 -0.0000
vn 0.5762 0.5788 0.5771
vn -0.5785 0.5759 0.5776
vn 0.5753 0.5798 0.5769
vn -0.5793 0.5749 0.5778
vn 0.5751 0.5777 0.5793
vn -0.5812 0.5768 0.5740
vn -0.3015 0.3015 0.9045
vn 0.3015 0.3015 0.9045
vn -0.3162 -0.0002 0.9487
vn 0.6671 0.3408 0.6624
vn 0.8904 0.4552 -0.0000
vn -0.5773 0.5773 0.5774
vn -0.0000 0.7071 0.7071
vn -0.0000 1.0000 -0.0000
vn -0.0000 0.7070 0.7072
vn 0.5703 0.5830 0.5787
vn 0.6994 0.7148 -0.0000
vn -0.7072 0.7070 -0.0000
vn -0.7072 -0.7070 -0.0000
vn -0.0000 -0.7071 0.7071
vn -0.5774 -0.5774 -0.5774
vn 0.5774 -0.5774 -0.5774
vn -0.8165 0.4082 0.4082
vn -0.0000 -0.9487 0.3162
vn 0.7071 0.7071 0.0002
vn 0.7071 -0.7071 0.0002
vn 0.3015 -0.3015 0.9045
vn -0.0000 -1.0000 -0.0000
vn -0.3006 0.3005 0.9052
vn -0.7072 0.7070 0.0078
vn 0.3018 0.3061 0.9029
vn 0.5774 0.5774 0.5773
vn -0.7065 -0.7077 -0.0034
vn -0.3025 -0.3021 0.9040
vn 0.0022 0.7079 0.7063
vn -0.7077 0.7065 -0.0030
vn 0.5784 0.5775 0.5762
vn 0.7076 0.7066 -0.0022
vn 0.0001 -1.0000 0.0010
vn -0.6715 -0.7410 0.0088
vn -0.7069 -0.7072 0.0092
vn -0.3004 -0.3005 0.9052
vn -0.0000 -0.7068 0.7074
vn 0.3016 -0.2972 0.9059
vn 0.7021 0.7121 -0.0000
vn 0.7121 -0.7021 -0.0026
vn 0.7122 -0.7019 -0.0026
vn 0.7077 0.7065 0.0004
vn -0.0000 -0.0003 1.0000
vn 0.7018 0.0152 0.7122
vn 0.9998 0.0221 -0.0000
vn 0.8944 -0.0000 -0.4472
vn 0.3015 -0.9045 -0.3015
vn 0.9984 -0.0044 -0.0566
vn 0.9999 -0.0044 -0.0155
vn 0.4083 0.4083 0.8165
vn -0.7819 0.0011 -0.6234
vn -0.2894 0.8189 0.4956
vn -0.3274 0.9266 -0.1850
vn -0.6004 0.0009 0.7997
vn -0.9314 0.2699 -0.2444
vn -0.5907 0.1712 0.7886
vn -0.6010 0.0009 0.7992
vn 0.7071 0.0001 0.7071
vn -0.7071 0.0001 0.7071
vn 0.7072 -0.0000 0.7070
vn -0.7072 -0.0001 0.7071
vn -1.0000 -0.0001 -0.0003
vn 0.7074 -0.0001 0.7068
vn -0.5631 -0.4898 0.6656
vn -0.5949 0.6474 0.4764
vn 0.5949 0.6474 0.4764
vn 0.5631 -0.4898 0.6656
vn -0.5771 -0.5762 0.5787
vn -0.5776 0.5785 0.5760
vn 0.5776 0.5785 0.5760
vn 0.5771 -0.5762 0.5787
vn -0.7399 0.6644 -0.1052
vn -0.7339 -0.6739 -0.0855
vn -0.8893 -0.3025 -0.3430
vn -0.7392 -0.4033 0.5393
vn -0.6553 -0.6499 0.3849
vn -0.6735 -0.4345 0.5980
vn -0.6735 -0.2284 0.7030
vn -0.6735 -0.0000 0.7392
vn -0.6735 0.2284 0.7030
vn -0.6735 0.4345 0.5980
vn -0.6735 0.5980 0.4345
vn -0.6735 0.7030 0.2284
vn -0.6735 0.7392 -0.0000
vn -0.0000 0.9877 -0.1564
vn -0.8742 0.4797 -0.0760
vn -0.0000 0.5878 0.8090
vn -0.0000 0.8090 0.5878
vn 0.6820 -0.7313 -0.0000
vn 0.6816 -0.6952 0.2284
vn 0.0111 -0.9510 0.3090
vn 0.0117 -0.9999 -0.0000
vn -0.0000 0.3090 0.9511
vn 0.6804 -0.5902 0.4344
vn 0.0095 -0.8090 0.5878
vn 0.6785 -0.4267 0.5980
vn 0.0069 -0.5878 0.8090
vn -0.0000 -0.3090 0.9511
vn 0.6761 -0.2207 0.7030
vn 0.0036 -0.3090 0.9510
vn -0.0000 -0.5878 0.8090
vn 0.6735 0.0077 0.7392
vn -0.0000 -0.8604 0.5096
vn 0.6709 0.2361 0.7030
vn -0.0036 0.3090 0.9511
vn 0.1772 -0.5894 0.7881
vn 0.6685 0.4422 0.5980
vn -0.0069 0.5877 0.8090
vn 0.5785 -0.5693 0.5842
vn 0.5762 -0.5849 -0.5709
vn 0.7521 -0.4359 -0.4943
vn 0.6666 0.6057 0.4345
vn -0.0095 0.8090 0.5878
vn -0.0000 -0.9920 -0.1259
vn -0.0000 -0.9877 -0.1564
vn -0.6735 -0.7392 -0.0000
vn -0.8742 -0.4797 -0.0760
vn -0.0000 -0.9511 0.3090
vn -0.6735 -0.7030 0.2284
vn -0.0000 -0.8090 0.5878
vn -0.6735 -0.5980 0.4345
vn -0.0000 0.9511 0.3090
vn 0.7476 -0.6558 -0.1052
vn 0.0116 -0.9876 -0.1564
vn 0.6650 0.7469 -0.0000
vn 0.6654 0.7107 0.2284
vn 0.7322 0.6729 -0.1052
vn -0.0117 0.9999 -0.0000
vn -0.0111 0.9510 0.3090
vn -0.0116 0.9876 -0.1564
vn 0.5776 0.5786 0.5759
vn -0.5776 0.5786 0.5759
vn -0.5771 -0.5761 0.5788
vn 0.5771 -0.5761 0.5788
vn -0.5785 -0.5693 0.5842
vn -0.5762 -0.5849 -0.5709
vn 0.3495 0.6635 0.6615
vn -0.3495 0.6635 0.6615
vn -0.2497 0.4021 0.8809
vn 0.2497 0.4021 0.8809
vn 0.8248 -0.2118 0.5242
vn 0.8248 0.2118 0.5242
vn 0.7042 0.1219 0.6994
vn 0.7042 -0.1219 0.6994
vn -0.8248 0.2118 0.5242
vn -0.8248 -0.2118 0.5242
vn -0.7042 -0.1219 0.6994
vn -0.7042 0.1219 0.6994
vn -0.9239 -0.3827 -0.0000
vn -0.8966 -0.3816 0.2246
vn -0.8966 0.3816 0.2246
vn -0.9239 0.3827 -0.0000
vn -0.3495 -0.6635 0.6615
vn 0.3495 -0.6635 0.6615
vn 0.2497 -0.4021 0.8809
vn -0.2497 -0.4021 0.8809
vn 0.2479 0.1219 0.9611
vn -0.2479 0.1219 0.9611
vn -0.2479 -0.1219 0.9611
vn 0.2479 -0.1219 0.9611
vn 0.9239 0.3827 -0.0000
vn 0.8966 0.3816 0.2246
vn 0.8966 -0.3816 0.2246
vn 0.9239 -0.3827 -0.0000
vn -0.3827 0.9239 -0.0000
vn -0.3974 0.8794 0.2621
vn 0.3974 0.8794 0.2621
vn 0.3827 0.9239 -0.0000
vn -0.3974 -0.8794 0.2621
vn 0.3974 -0.8794 0.2621
vn -0.3827 -0.9239 -0.0000
vn 0.3827 -0.9239 -0.0000
vn 0.3000 -0.9054 0.3005
vn -0.3000 -0.9054 0.3005
vn 0.5734 -0.5793 -0.5793
vn 0.5753 0.5783 -0.5784
vn 0.5753 -0.5783 -0.5784
vn -0.5734 -0.5793 -0.5793
vn -0.5771 -0.5780 0.5770
vn -0.5753 -0.5783 -0.5784
vn -0.5753 0.5783 -0.5784
vn 0.5771 -0.5780 0.5770
vn -0.2497 -0.9270 0.2799
vn -0.9914 0.0876 0.0974
vn -0.9538 0.0811 0.2892
vn -0.1576 -0.7643 0.6254
vn -0.7641 0.0583 0.6424
vn -0.7431 0.0111 0.6691
vn -0.4067 0.0061 0.9136
vn -0.4307 0.0274 0.9021
vn 0.0005 -0.0000 1.0000
vn 0.0007 -0.2677 0.9635
vn 0.3582 -0.2521 0.8989
vn 0.4071 0.0058 0.9134
vn -0.1756 -0.4945 0.8513
vn -0.7438 0.0035 0.6684
vn -0.9512 0.0044 0.3086
vn -0.9213 -0.1238 0.3687
vn -0.6803 -0.2168 0.7001
vn 0.6806 -0.2042 0.7036
vn 0.7433 0.0105 0.6689
vn -0.9510 0.0142 0.3090
vn 0.9221 -0.1112 0.3705
vn 0.9510 0.0134 0.3088
vn -0.9944 0.0148 0.1044
vn 0.9918 -0.0324 0.1240
vn 0.9944 0.0140 0.1044
vn 0.7444 0.5870 0.3183
vn 0.9547 -0.0071 0.2974
vn 0.9950 -0.0058 0.1001
vn 0.7804 0.6141 0.1176
vn 0.5722 0.4677 0.6737
vn 0.7572 -0.0097 0.6531
vn 0.3222 0.2886 0.9016
vn 0.4211 -0.0090 0.9070
vn -0.1368 -0.1873 0.9727
vn -0.0042 0.0023 1.0000
vn 0.0585 0.0749 0.9955
vn 0.9510 -0.0142 0.3089
vn 0.9944 -0.0148 0.1044
vn -0.9944 -0.0140 0.1045
vn -0.9914 -0.0416 0.1240
vn -0.9210 -0.1211 0.3704
vn -0.9509 -0.0134 0.3091
vn 0.7431 -0.0111 0.6691
vn -0.6789 -0.2117 0.7031
vn -0.7429 -0.0105 0.6693
vn 0.4068 -0.0061 0.9135
vn -0.3566 -0.2562 0.8984
vn -0.4063 -0.0057 0.9137
vn 0.0001 -0.0000 1.0000
vn 0.0701 0.4751 0.8771
vn 0.0255 -0.0149 0.9996
vn 0.2258 -0.5735 0.7874
vn 0.6474 -0.7067 0.2854
vn 0.8495 -0.5260 0.0395
vn 0.8968 -0.4424 -0.0034
vn 0.2310 0.9688 0.0896
vn 0.2165 0.9404 0.2622
vn 0.1584 0.7857 0.5980
vn 0.0004 -0.2753 0.9614
vn -0.3580 -0.2627 0.8960
vn -0.2644 -0.5218 0.8111
vn -0.0000 -0.5454 0.8382
vn -0.4079 0.0019 0.9130
vn 0.4055 -0.0019 0.9141
vn -0.0014 -0.0000 1.0000
vn 0.3589 -0.2604 0.8963
vn -0.9945 0.0046 0.1045
vn -0.9916 -0.0415 0.1226
vn 0.9945 -0.0046 0.1045
vn 0.9509 -0.0044 0.3094
vn 0.9220 -0.1181 0.3687
vn 0.9918 -0.0362 0.1226
vn 0.7425 -0.0035 0.6698
vn 0.6814 -0.2124 0.7004
vn -0.5393 -0.4308 0.7236
vn -0.2629 -0.5079 0.8203
vn -0.0000 -0.5312 0.8473
vn 0.2629 -0.5079 0.8203
vn 0.8235 -0.2850 0.4905
vn 0.9882 -0.0694 0.1367
vn -0.9880 -0.0665 0.1395
vn -0.8200 -0.2773 0.5007
vn 0.5423 -0.4431 0.7139
vn 0.8200 -0.2773 0.5007
vn 0.9880 -0.0664 0.1395
vn 0.2644 -0.5218 0.8111
vn 0.5393 -0.4308 0.7236
vn -0.9882 -0.0694 0.1367
vn -0.8235 -0.2850 0.4905
vn -0.5423 -0.4430 0.7139
vn -0.4087 -0.0073 0.9127
vn -0.0024 -0.0000 1.0000
vn -0.7441 -0.0133 0.6679
vn -0.9512 -0.0170 0.3082
vn -0.9944 -0.0177 0.1045
vn 0.9507 0.0169 0.3096
vn 0.9944 0.0177 0.1044
vn 0.7420 0.0132 0.6703
vn 0.4047 0.0072 0.9144
vt 0.000000 0.000666
vt 0.600595 0.000666
vt 0.000000 1.000000
vt 0.600595 1.000000
vt 0.016494 0.796710
vt 0.028852 0.796710
vt 0.016494 0.807680
vt 0.016494 0.796710
vt 0.010233 0.937449
vt 0.022591 0.937449
vt 0.010233 0.937449
vt 0.559251 0.796710
vt 0.555550 0.796710
vt 0.559251 0.807680
vt 0.559251 0.796710
vt 0.565214 0.937449
vt 0.561513 0.937449
vt 0.565214 0.937449
vt 0.007916 0.936998
vt 0.007916 0.947967
vt 0.007916 0.936998
vt 0.020274 0.936998
vt 0.007916 0.998377
vt 0.007916 0.968603
vt 0.007916 0.998377
vt 0.568351 0.936998
vt 0.564649 0.936998
vt 0.568351 0.947967
vt 0.568351 0.936998
vt 0.568351 0.998377
vt 0.568351 0.968603
vt 0.568351 0.998377
vt 0.014227 0.838812
vt 0.014227 0.838812
vt 0.014227 0.807797
vt 0.014227 0.807797
vt 0.010474 0.838812
vt 0.000215 0.838812
vt 0.000215 0.838812
vt 0.010474 0.807797
vt 0.000215 0.807797
vt 0.000215 0.807797
vt 0.000000 0.695657
vt 0.600595 0.695657
vt 0.203524 0.695657
vt 0.203524 0.000666
vt 0.375045 0.695657
vt 0.375045 0.000666
vt 0.384993 0.695657
vt 0.384993 0.000666
vt 0.461961 0.695657
vt 0.203524 0.695657
vt 0.467216 0.695657
vt 0.375045 0.695657
vt 0.548513 0.000666
vt 0.548513 0.695657
vt 0.461961 0.164335
vt 0.467216 0.164861
vt 0.548513 0.167494
vt 0.384993 0.162868
vt 0.203524 0.000666
vt 0.375045 0.000666
vt 0.461961 0.695657
vt 0.384993 0.695657
vt 0.548513 0.695657
vt 0.467216 0.695657
vt 0.461961 0.164335
vt 0.467216 0.164861
vt 0.548513 0.167494
vt 0.384993 0.162868
vt 0.384993 0.162868
vt 0.384993 0.000666
vt 0.548513 0.000666
vt 0.548513 0.167494
vt 0.235906 0.001411
vt 0.235906 0.001411
vt 0.235906 0.255441
vt 0.235906 0.255441
vt 0.289357 0.001411
vt 0.289357 0.001411
vt 0.289357 0.255441
vt 0.289357 0.255441
vt 0.230603 0.255441
vt 0.230603 0.001411
vt 0.230603 0.255441
vt 0.230603 0.001411
vt 0.240525 0.255441
vt 0.240525 0.255441
vt 0.282533 0.572521
vt 0.282533 0.255441
vt 0.282533 0.255441
vt 0.289357 0.572521
vt 0.240525 0.572521
vt 0.235906 0.572521
vt 0.235906 0.572521
vt 0.289357 0.572521
vt 0.240525 0.572521
vt 0.282533 0.572521
vt 0.240525 0.594671
vt 0.235906 0.594671
vt 0.235906 0.594671
vt 0.240525 0.594671
vt 0.282479 0.594671
vt 0.282479 0.594671
vt 0.289241 0.594671
vt 0.289241 0.594671
vt 0.235906 0.255441
vt 0.235906 0.001411
vt 0.235906 0.001411
vt 0.235906 0.255441
vt 0.230603 0.255441
vt 0.230603 0.001411
vt 0.230603 0.001411
vt 0.230603 0.255441
vt 0.230603 0.255441
vt 0.230603 0.255441
vt 0.230603 0.001411
vt 0.230603 0.001411
vt 0.230603 0.255441
vt 0.230603 0.001411
vt 0.230603 0.001411
vt 0.230603 0.255441
vt 0.209359 0.255441
vt 0.209359 0.255441
vt 0.209359 0.001411
vt 0.209359 0.001411
vt 0.209359 0.255441
vt 0.209359 0.001411
vt 0.209359 0.001411
vt 0.209359 0.255441
vt 0.209359 0.255441
vt 0.209359 0.255441
vt 0.209359 0.001411
vt 0.209359 0.001411
vt 0.209359 0.255441
vt 0.209359 0.001411
vt 0.209359 0.001411
vt 0.209359 0.255441
vt 0.203623 0.255441
vt 0.203623 0.255441
vt 0.203623 0.001411
vt 0.203623 0.001411
vt 0.203623 0.255441
vt 0.203623 0.001411
vt 0.203623 0.001411
vt 0.203623 0.255441
vt 0.235906 0.595787
vt 0.235906 0.595787
vt 0.230603 0.595787
vt 0.230603 0.595787
vt 0.235906 0.595787
vt 0.230603 0.595787
vt 0.230603 0.595787
vt 0.235906 0.595787
vt 0.209359 0.595787
vt 0.209359 0.595787
vt 0.209359 0.595787
vt 0.209359 0.595787
vt 0.203623 0.595787
vt 0.203623 0.595787
vt 0.203623 0.595787
vt 0.203623 0.595787
vt 0.209359 0.607459
vt 0.209359 0.607459
vt 0.209359 0.607459
vt 0.209359 0.607459
vt 0.203623 0.607459
vt 0.203623 0.607459
vt 0.203623 0.607459
vt 0.203623 0.607459
vt 0.209359 0.659712
vt 0.209359 0.659712
vt 0.209359 0.659712
vt 0.209359 0.659712
vt 0.203623 0.659712
vt 0.203623 0.659712
vt 0.203623 0.659712
vt 0.203623 0.659712
vt 0.346019 0.595787
vt 0.346019 0.595787
vt 0.230736 0.607459
vt 0.230736 0.607459
vt 0.235914 0.595787
vt 0.235914 0.595787
vt 0.235914 0.595787
vt 0.235914 0.595787
vt 0.346019 0.595787
vt 0.346019 0.595787
vt 0.235914 0.607459
vt 0.235914 0.607459
vt 0.342005 0.595787
vt 0.342005 0.595787
vt 0.342005 0.595787
vt 0.342005 0.595787
vt 0.342005 0.607459
vt 0.342005 0.607459
vt 0.342005 0.607459
vt 0.342005 0.607459
vt 0.346371 0.607459
vt 0.346371 0.607459
vt 0.346371 0.607459
vt 0.346371 0.607459
vt 0.346019 0.015355
vt 0.342005 0.015355
vt 0.342005 0.015355
vt 0.368002 0.607459
vt 0.346019 0.015355
vt 0.368002 0.607459
vt 0.342005 0.015355
vt 0.342005 0.015355
vt 0.346019 0.000567
vt 0.342005 0.000567
vt 0.342005 0.000567
vt 0.346019 0.000567
vt 0.346019 0.000567
vt 0.346019 0.000567
vt 0.342005 0.000567
vt 0.342005 0.000567
vt 0.368002 0.607459
vt 0.368002 0.595787
vt 0.375064 0.679566
vt 0.368002 0.595787
vt 0.367994 0.679643
vt 0.367998 0.679564
vt 0.235914 0.659841
vt 0.235914 0.659841
vt 0.230736 0.659841
vt 0.230736 0.659841
vt 0.346197 0.659712
vt 0.342005 0.659761
vt 0.346197 0.659712
vt 0.342005 0.659761
vt 0.342005 0.659761
vt 0.346197 0.659712
vt 0.346197 0.659712
vt 0.341937 0.659712
vt 0.209359 0.679643
vt 0.209359 0.679643
vt 0.209359 0.679643
vt 0.209359 0.679643
vt 0.203623 0.679643
vt 0.203623 0.679643
vt 0.203623 0.679643
vt 0.203623 0.679643
vt 0.230922 0.659712
vt 0.230922 0.659712
vt 0.230922 0.659712
vt 0.230922 0.659712
vt 0.230922 0.679643
vt 0.230922 0.679643
vt 0.230922 0.679643
vt 0.230922 0.679643
vt 0.235786 0.659712
vt 0.235786 0.659712
vt 0.235786 0.659712
vt 0.235786 0.659712
vt 0.235786 0.679643
vt 0.235786 0.679643
vt 0.235786 0.679643
vt 0.235786 0.679643
vt 0.284744 0.578016
vt 0.284744 0.248464
vt 0.284744 0.248464
vt 0.284744 0.578016
vt 0.341937 0.679643
vt 0.341937 0.679643
vt 0.341937 0.679643
vt 0.341937 0.679643
vt 0.238807 0.578016
vt 0.238807 0.248464
vt 0.238807 0.248464
vt 0.238807 0.578016
vt 0.346783 0.679643
vt 0.346783 0.679643
vt 0.346783 0.679643
vt 0.346783 0.679643
vt 0.367994 0.659712
vt 0.367998 0.659806
vt 0.367994 0.679643
vt 0.232504 0.661322
vt 0.232504 0.248464
vt 0.232504 0.248464
vt 0.232504 0.661322
vt 0.207233 0.661322
vt 0.207233 0.248464
vt 0.207233 0.248464
vt 0.207233 0.661322
vt 0.289369 0.001411
vt 0.289369 0.001411
vt 0.289369 0.255441
vt 0.342820 0.001411
vt 0.342820 0.001411
vt 0.342820 0.255441
vt 0.342820 0.255441
vt 0.293988 0.255441
vt 0.293988 0.255441
vt 0.335996 0.572521
vt 0.335996 0.255441
vt 0.335996 0.255441
vt 0.342820 0.572521
vt 0.293988 0.572521
vt 0.289369 0.572521
vt 0.342820 0.572521
vt 0.293988 0.572521
vt 0.335996 0.572521
vt 0.289369 0.594671
vt 0.293988 0.594671
vt 0.335943 0.594671
vt 0.342705 0.594671
vt 0.342705 0.594671
vt 0.338208 0.578016
vt 0.338208 0.248464
vt 0.338208 0.248464
vt 0.338208 0.578016
vt 0.292270 0.578016
vt 0.292270 0.248464
vt 0.292270 0.248464
vt 0.292270 0.578016
vt 0.346019 0.258749
vt 0.346019 0.258751
vt 0.346019 0.258749
vt 0.346019 0.015355
vt 0.346019 0.258751
vt 0.346019 0.015355
vt 0.346019 0.000567
vt 0.346019 0.000567
vt 0.346019 0.000567
vt 0.346019 0.000567
vt 0.367636 0.258749
vt 0.367636 0.015355
vt 0.367636 0.258751
vt 0.367636 0.015355
vt 0.367636 0.000567
vt 0.367636 0.000567
vt 0.367636 0.000567
vt 0.367636 0.000567
vt 0.367998 0.258749
vt 0.367636 0.015355
vt 0.367998 0.258751
vt 0.367636 0.015355
vt 0.367636 0.000567
vt 0.367636 0.000567
vt 0.367636 0.000567
vt 0.367636 0.000567
vt 0.375064 0.258749
vt 0.375064 0.015355
vt 0.375064 0.258751
vt 0.375064 0.015355
vt 0.375064 0.000567
vt 0.375064 0.000567
vt 0.375064 0.000567
vt 0.375064 0.000567
vt 0.367998 0.595836
vt 0.367998 0.595834
vt 0.375064 0.595836
vt 0.375064 0.595834
vt 0.367998 0.607269
vt 0.367998 0.607267
vt 0.375064 0.607269
vt 0.375064 0.607267
vt 0.375064 0.659808
vt 0.375064 0.659806
vt 0.375064 0.679564
vt 0.020493 0.000000
vt 0.020493 0.000000
vt 0.020493 0.800861
vt 0.020493 0.800861
vt 0.203604 0.000000
vt 0.203604 0.000000
vt 0.203604 0.800861
vt 0.203604 0.800861
vt 0.017883 0.696788
vt 0.030240 0.696788
vt 0.017883 0.696788
vt 0.017883 0.796414
vt 0.030240 0.796414
vt 0.017883 0.796414
vt 0.020366 0.696788
vt 0.020366 0.696788
vt 0.020366 0.796414
vt 0.020366 0.796414
vt 0.200396 0.696788
vt 0.197131 0.696788
vt 0.198064 0.696788
vt 0.197131 0.696788
vt 0.200396 0.796414
vt 0.197131 0.796414
vt 0.198064 0.796414
vt 0.197131 0.796414
vt 0.197522 0.696788
vt 0.198221 0.696788
vt 0.199387 0.696788
vt 0.198221 0.696788
vt 0.198221 0.796414
vt 0.197522 0.796414
vt 0.199387 0.796414
vt 0.198221 0.796414
vt 0.198371 0.795185
vt 0.381296 0.795185
vt 0.197431 0.769996
vt 0.019961 0.769996
vt 0.197431 0.768792
vt 0.019961 0.768792
vt 0.197431 0.721993
vt 0.019961 0.721993
vt 0.197431 0.720789
vt 0.019961 0.720789
vt 0.197431 0.721993
vt 0.019961 0.721993
vt 0.197431 0.725488
vt 0.019961 0.725488
vt 0.197431 0.730931
vt 0.019961 0.730931
vt 0.197431 0.737790
vt 0.019961 0.737790
vt 0.197431 0.745393
vt 0.019961 0.745393
vt 0.197431 0.752995
vt 0.019961 0.752995
vt 0.197431 0.759854
vt 0.019961 0.759854
vt 0.197431 0.765297
vt 0.019961 0.765297
vt 0.197431 0.768792
vt 0.019961 0.768792
vt 0.381296 0.793239
vt 0.198371 0.793239
vt 0.381296 0.717615
vt 0.198371 0.717615
vt 0.381296 0.715669
vt 0.198371 0.715669
vt 0.381296 0.717602
vt 0.198371 0.717602
vt 0.381296 0.723262
vt 0.198371 0.723262
vt 0.381296 0.732058
vt 0.198371 0.732058
vt 0.381296 0.743141
vt 0.198371 0.743141
vt 0.381296 0.755427
vt 0.198371 0.755427
vt 0.381296 0.767713
vt 0.198371 0.767713
vt 0.381296 0.778796
vt 0.198371 0.778796
vt 0.381296 0.787592
vt 0.198371 0.787592
vt 0.381296 0.793239
vt 0.198371 0.793239
vt 0.381146 0.696788
vt 0.381146 0.696788
vt 0.383012 0.696788
vt 0.381146 0.796414
vt 0.381146 0.796414
vt 0.383012 0.796414
vt 0.382236 0.696788
vt 0.382236 0.696788
vt 0.383868 0.696788
vt 0.382236 0.796414
vt 0.383868 0.796414
vt 0.382236 0.796414
vt 0.382020 0.785034
vt 0.560340 0.793875
vt 0.560345 0.791929
vt 0.382026 0.783089
vt 0.560549 0.716310
vt 0.382229 0.707470
vt 0.560554 0.714365
vt 0.382234 0.705524
vt 0.560549 0.716310
vt 0.382229 0.707470
vt 0.560533 0.721957
vt 0.382214 0.713116
vt 0.560510 0.730752
vt 0.382190 0.721912
vt 0.560480 0.741835
vt 0.382160 0.732994
vt 0.560447 0.754120
vt 0.382127 0.745279
vt 0.560414 0.766405
vt 0.382094 0.757564
vt 0.560384 0.777487
vt 0.382064 0.768647
vt 0.560361 0.786283
vt 0.382041 0.777442
vt 0.560345 0.791929
vt 0.382026 0.783089
vt 0.560263 0.714023
vt 0.560263 0.714023
vt 0.560263 0.807351
vt 0.560263 0.807351
vt 0.562917 0.714023
vt 0.562917 0.714023
vt 0.561066 0.714023
vt 0.562917 0.807351
vt 0.561066 0.807351
vt 0.562917 0.807351
vt 0.198371 0.629951
vt 0.381296 0.629951
vt 0.198371 0.629926
vt 0.381296 0.629926
vt 0.195570 0.282570
vt 0.195386 0.286003
vt 0.195811 0.287805
vt 0.195944 0.286332
vt 0.195811 0.287805
vt 0.195386 0.286003
vt 0.195944 0.259540
vt 0.195811 0.258066
vt 0.195386 0.259869
vt 0.195570 0.263302
vt 0.195386 0.259869
vt 0.195811 0.258066
vt 0.022612 0.252442
vt 0.022187 0.254244
vt 0.022370 0.257678
vt 0.022187 0.254244
vt 0.022612 0.252442
vt 0.022745 0.253915
vt 0.022187 0.280378
vt 0.022612 0.282181
vt 0.022745 0.280708
vt 0.022612 0.282181
vt 0.022187 0.280378
vt 0.022370 0.276945
vt 0.024550 0.254244
vt 0.024125 0.252442
vt 0.024367 0.257678
vt 0.023992 0.253915
vt 0.024125 0.252442
vt 0.024550 0.254244
vt 0.024125 0.282181
vt 0.024550 0.280378
vt 0.023992 0.280708
vt 0.024367 0.276945
vt 0.024550 0.280378
vt 0.024125 0.282181
vt 0.022959 0.278014
vt 0.022452 0.275920
vt 0.023060 0.274738
vt 0.023778 0.278014
vt 0.023677 0.274738
vt 0.024285 0.275920
vt 0.022452 0.258703
vt 0.022959 0.256609
vt 0.023060 0.259885
vt 0.024285 0.258703
vt 0.023677 0.259885
vt 0.023778 0.256609
vt 0.197749 0.259869
vt 0.197324 0.258066
vt 0.197566 0.263302
vt 0.197191 0.259540
vt 0.197324 0.258066
vt 0.197749 0.259869
vt 0.197324 0.287805
vt 0.197749 0.286003
vt 0.197191 0.286332
vt 0.197566 0.282570
vt 0.197749 0.286003
vt 0.197324 0.287805
vt 0.196158 0.283638
vt 0.195651 0.281545
vt 0.196260 0.280363
vt 0.196977 0.283638
vt 0.196876 0.280363
vt 0.197485 0.281545
vt 0.195651 0.264327
vt 0.196158 0.262233
vt 0.196260 0.265509
vt 0.197485 0.264327
vt 0.196876 0.265509
vt 0.196977 0.262233
vt 0.200315 0.272835
vt 0.200132 0.276268
vt 0.200557 0.278071
vt 0.200690 0.276597
vt 0.200557 0.278071
vt 0.200132 0.276268
vt 0.200690 0.249805
vt 0.200557 0.248331
vt 0.200132 0.250134
vt 0.200315 0.253567
vt 0.200132 0.250134
vt 0.200557 0.248331
vt 0.202495 0.250134
vt 0.202070 0.248331
vt 0.202312 0.253567
vt 0.201937 0.249805
vt 0.202070 0.248331
vt 0.202495 0.250134
vt 0.202070 0.278071
vt 0.202495 0.276268
vt 0.201937 0.276597
vt 0.202312 0.272835
vt 0.202495 0.276268
vt 0.202070 0.278071
vt 0.200904 0.273903
vt 0.200397 0.271810
vt 0.201006 0.270628
vt 0.201723 0.273903
vt 0.201622 0.270628
vt 0.202231 0.271810
vt 0.200397 0.254592
vt 0.200904 0.252499
vt 0.201006 0.255774
vt 0.202231 0.254592
vt 0.201622 0.255774
vt 0.201723 0.252499
vt 0.376714 0.276620
vt 0.376530 0.280054
vt 0.376955 0.281856
vt 0.377088 0.280383
vt 0.376955 0.281856
vt 0.376530 0.280054
vt 0.377088 0.253591
vt 0.376955 0.252117
vt 0.376530 0.253920
vt 0.376714 0.257353
vt 0.376530 0.253920
vt 0.376955 0.252117
vt 0.378893 0.253920
vt 0.378468 0.252117
vt 0.378710 0.257353
vt 0.378335 0.253591
vt 0.378468 0.252117
vt 0.378893 0.253920
vt 0.378468 0.281856
vt 0.378893 0.280054
vt 0.378335 0.280383
vt 0.378710 0.276620
vt 0.378893 0.280054
vt 0.378468 0.281856
vt 0.377302 0.277689
vt 0.376795 0.275595
vt 0.377404 0.274413
vt 0.378121 0.277689
vt 0.378020 0.274413
vt 0.378628 0.275595
vt 0.376795 0.258378
vt 0.377302 0.256284
vt 0.377404 0.259560
vt 0.378628 0.258378
vt 0.378020 0.259560
vt 0.378121 0.256284
vt 0.381689 0.278243
vt 0.381506 0.281676
vt 0.381931 0.283479
vt 0.382064 0.282005
vt 0.381931 0.283479
vt 0.381506 0.281676
vt 0.382064 0.255213
vt 0.381931 0.253740
vt 0.381506 0.255542
vt 0.381689 0.258976
vt 0.381506 0.255542
vt 0.381931 0.253740
vt 0.383869 0.255542
vt 0.383444 0.253740
vt 0.383685 0.258976
vt 0.383311 0.255213
vt 0.383444 0.253740
vt 0.383869 0.255542
vt 0.383444 0.283479
vt 0.383869 0.281676
vt 0.383311 0.282005
vt 0.383685 0.278243
vt 0.383869 0.281676
vt 0.383444 0.283479
vt 0.382278 0.279312
vt 0.381770 0.277218
vt 0.382379 0.276036
vt 0.383097 0.279312
vt 0.382996 0.276036
vt 0.383604 0.277218
vt 0.381770 0.260001
vt 0.382278 0.257907
vt 0.382379 0.261183
vt 0.383604 0.260001
vt 0.382996 0.261183
vt 0.383097 0.257907
vt 0.008149 0.980610
vt 0.007916 0.980610
vt 0.015843 0.980610
vt 0.568351 0.980610
vt 0.564649 0.980610
vt 0.568351 0.980610
vt 0.017242 0.989493
vt 0.007916 0.989493
vt 0.568351 0.989493
vt 0.007216 0.989493
vt 0.007916 0.989493
vt 0.568351 0.989493
vt 0.016635 0.991447
vt 0.006609 0.989473
vt 0.006609 0.978613
vt 0.018967 0.998398
vt 0.006609 0.998398
vt 0.006609 0.998398
vt 0.538647 0.998398
vt 0.569658 0.998398
vt 0.569658 0.998398
vt 0.569658 0.989473
vt 0.006609 0.989473
vt 0.538647 0.989473
vt 0.569658 0.978613
vt 0.569658 0.989473
vt 0.019961 0.766406
vt 0.019961 0.724379
vt 0.564009 0.834026
vt 0.564356 0.909642
vt 0.566693 0.746641
vt 0.569115 0.019460
vt 0.566995 0.746641
vt 0.569416 0.019460
vt 0.567244 0.746641
vt 0.569666 0.019460
vt 0.567398 0.746641
vt 0.569820 0.019460
vt 0.567430 0.746641
vt 0.569852 0.019460
vt 0.565957 0.746641
vt 0.568379 0.019460
vt 0.565989 0.746641
vt 0.568411 0.019460
vt 0.566143 0.746641
vt 0.568565 0.019460
vt 0.566392 0.746641
vt 0.568814 0.019460
vt 0.564606 0.910355
vt 0.564310 0.834026
vt 0.564812 0.910944
vt 0.564559 0.834026
vt 0.564940 0.911308
vt 0.564713 0.834026
vt 0.564967 0.911385
vt 0.564745 0.834026
vt 0.563745 0.907899
vt 0.563272 0.834026
vt 0.563771 0.907976
vt 0.563304 0.834026
vt 0.563899 0.908340
vt 0.563458 0.834026
vt 0.564106 0.908929
vt 0.563707 0.834026
vt 0.564976 0.901763
vt 0.564944 0.901763
vt 0.564790 0.901763
vt 0.564541 0.901763
vt 0.564239 0.901763
vt 0.563503 0.901763
vt 0.563535 0.901763
vt 0.563689 0.901763
vt 0.563938 0.901763
vt 0.563610 0.909642
vt 0.563614 0.910918
vt 0.563617 0.911974
vt 0.563619 0.912627
vt 0.563620 0.912763
vt 0.563601 0.906521
vt 0.563601 0.906657
vt 0.563604 0.907309
vt 0.563607 0.908365
vt 0.564895 0.019328
vt 0.564863 0.019328
vt 0.564709 0.019328
vt 0.564460 0.019328
vt 0.564159 0.019328
vt 0.563422 0.019328
vt 0.563455 0.019328
vt 0.563609 0.019328
vt 0.563858 0.019328
vt 0.562577 0.633722
vt 0.562731 0.633722
vt 0.564017 0.633722
vt 0.562545 0.633722
vt 0.562980 0.633722
vt 0.563281 0.633722
vt 0.563582 0.633722
vt 0.563985 0.633722
vt 0.563831 0.633722
vt 0.569416 0.010449
vt 0.569115 0.010178
vt 0.569666 0.011217
vt 0.569820 0.012347
vt 0.569852 0.013645
vt 0.568379 0.013645
vt 0.568411 0.012347
vt 0.568565 0.011217
vt 0.568814 0.010449
vt 0.564895 0.013643
vt 0.564863 0.012345
vt 0.564709 0.011214
vt 0.564460 0.010447
vt 0.564159 0.010176
vt 0.563422 0.013643
vt 0.563455 0.012345
vt 0.563609 0.011214
vt 0.563858 0.010447
vt 0.568222 0.383050
vt 0.568524 0.383050
vt 0.568773 0.383050
vt 0.568927 0.383050
vt 0.568959 0.383050
vt 0.567486 0.383050
vt 0.567518 0.383050
vt 0.567672 0.383050
vt 0.567921 0.383050
vt 0.368743 0.662114
vt 0.368743 0.256850
vt 0.368743 0.256850
vt 0.368743 0.662114
vt 0.345417 0.662114
vt 0.345417 0.256850
vt 0.345417 0.256850
vt 0.345417 0.662114
vt 0.342228 0.606738
vt 0.235549 0.606738
vt 0.235549 0.606738
vt 0.342228 0.606738
vt 0.342228 0.660448
vt 0.235549 0.660448
vt 0.235549 0.660448
vt 0.342228 0.660448
vt 0.601638 0.000000
vt 0.804269 0.994455
vt 0.800341 0.000000
vt 0.800387 0.994823
vt 0.601638 0.996315
vt 0.602571 0.013075
vt 0.804269 0.002088
vt 0.800341 0.996315
vt 0.799409 0.013075
vt 0.800387 0.006405
vt 0.604436 0.998772
vt 0.999242 0.994455
vt 0.801274 0.998772
vt 0.603549 0.994823
vt 0.602571 1.001492
vt 0.604436 0.014303
vt 0.999242 0.002088
vt 0.799409 1.001492
vt 0.801274 0.014303
vt 0.603549 0.006405
s 1
usemtl shop_front10
f 29/43/1 31/45/2 33/47/3 35/49/4 37/51/5 39/53/6 42/56/7 30/44/1 4/4/8 3/3/8
f 5/5/9 6/6/10 8/10/11 7/9/12
f 7/9/12 8/11/11 12/18/13 11/16/14
f 11/16/14 12/17/13 10/13/15 9/12/16
f 9/12/16 10/14/15 6/7/10 5/5/9
f 12/18/13 8/11/11 6/8/10 10/15/15
f 20/32/17 16/25/18 661/698/19 663/701/20
f 15/23/21 16/24/18 20/31/17 19/30/22
f 654/685/23 655/686/24 18/27/25 17/26/26
f 17/26/26 18/28/25 14/20/27 13/19/28
f 655/687/24 653/683/29 14/21/27 18/29/25
f 21/33/30 23/35/25 24/36/26 22/34/31
f 23/35/25 27/41/27 28/42/28 24/36/26
f 27/40/27 25/37/32 26/39/33 28/42/28
f 25/38/32 21/33/30 22/34/31 26/39/33
f 1/1/34 32/46/24 31/45/2 29/43/1
f 31/45/2 32/46/24 47/61/23 38/52/26
f 65/79/26 66/80/25 62/76/35 61/75/36
f 33/47/3 34/48/29 36/50/24 46/60/24 35/49/4
f 42/56/7 39/53/6 52/66/25 51/65/27
f 37/51/5 43/57/37 44/58/38 39/53/6
f 42/56/7 45/59/29 41/55/29 2/2/34 30/44/1
f 100/114/29 96/110/24 140/154/30 139/153/39
f 33/47/3 31/45/2 38/52/26 40/54/28
f 34/48/29 33/47/3 40/54/28 48/62/40
f 35/49/4 46/60/24 56/70/41 50/64/25
f 39/53/6 44/58/38 54/68/43 52/66/25
f 37/51/5 35/49/4 50/64/25 49/63/27
f 53/67/42 56/70/41 57/71/45 43/57/37
f 45/59/29 42/56/7 51/65/27 55/69/44
f 43/57/37 37/51/5 49/63/27 53/67/42
f 44/58/38 43/57/37 57/71/45 58/72/24 59/73/29 60/74/46
f 67/81/23 68/82/24 66/80/25 65/79/26
f 46/60/24 36/50/24 58/72/24 57/71/45
f 41/55/29 45/59/29 60/74/46 59/73/29
f 63/77/23 64/78/24 81/95/29 80/94/40
f 55/69/44 54/68/43 44/58/38 60/74/46
f 68/82/24 76/90/47 73/87/48 64/78/24 62/76/35 66/80/25
f 100/114/29 71/85/29 101/115/34 108/122/27
f 62/76/35 64/78/24 96/110/24 95/109/25
f 84/98/40 75/89/49 78/92/50 82/96/51
f 74/88/31 73/87/48 76/90/47 77/91/33
f 73/87/48 74/88/31 79/93/26 83/97/2
f 64/78/24 73/87/48 83/97/2 81/95/29
f 77/91/33 76/90/47 75/89/49 84/98/40
f 68/82/24 67/81/23 82/96/51 78/92/50
f 76/90/47 68/82/24 78/92/50 75/89/49
f 86/100/33 87/101/52 88/102/53 85/99/54
f 81/95/29 83/97/2 88/102/53 87/101/52
f 80/94/40 81/95/29 87/101/52 86/100/33
f 90/104/55 75/89/49 78/92/50 92/106/56
f 83/97/2 79/93/26 84/98/40 75/89/49
f 88/102/53 83/97/2 75/89/49 90/104/55
f 85/99/54 88/102/53 90/104/55 89/103/54
f 78/92/50 82/96/51 91/105/57 92/106/56
f 89/103/54 90/104/55 92/106/56 91/105/57
f 95/109/25 96/110/24 100/114/29 99/113/27
f 64/78/24 63/77/23 134/148/31 133/147/31
f 97/111/40 98/112/28 106/120/58 105/119/59
f 107/121/32 108/122/27 116/130/25 115/129/30
f 329/343/27 330/344/54 328/342/60 327/341/61 335/349/62 336/350/26 338/352/26 337/351/25
f 63/77/23 61/75/36 94/108/26 93/107/23
f 71/85/29 69/83/63 102/116/53 101/115/34
f 72/86/60 99/113/27 107/121/32 104/118/34
f 98/112/28 70/84/64 103/117/60 106/120/58
f 99/113/27 100/114/29 108/122/27 107/121/32
f 69/83/63 97/111/40 105/119/59 102/116/53
f 70/84/64 72/86/60 104/118/34 103/117/60
f 114/128/65 111/125/34 119/133/60 122/136/26
f 108/122/27 101/115/34 109/123/34 116/130/25
f 104/118/34 107/121/32 115/129/30 112/126/34
f 103/117/60 104/118/34 112/126/34 111/125/34
f 101/115/34 102/116/53 110/124/34 109/123/34
f 106/120/58 103/117/60 111/125/34 114/128/65
f 102/116/53 105/119/59 113/127/66 110/124/34
f 110/124/34 113/127/66 121/135/23 118/132/24
f 115/129/30 116/130/25 124/138/24 123/137/25
f 111/125/34 112/126/34 120/134/60 119/133/60
f 116/130/25 109/123/34 117/131/24 124/138/24
f 112/126/34 115/129/30 123/137/25 120/134/60
f 113/127/66 114/128/65 122/136/26 121/135/23
f 109/123/34 110/124/34 118/132/24 117/131/24
f 127/141/28 128/142/28 131/145/27 132/146/29 125/139/40 126/140/40 129/143/40 130/144/28
f 133/147/31 134/148/31 137/151/31 138/152/28 136/150/28 135/149/28 139/153/39 140/154/30
f 123/137/25 124/138/24 132/146/29 131/145/27
f 152/166/48 144/158/67 139/153/39 168/182/47
f 63/77/23 93/107/23 137/151/31 134/148/31
f 176/190/48 175/189/31 211/225/31 212/226/30
f 255/269/33 258/272/32 250/264/30 247/261/31
f 97/111/40 69/83/63 71/85/29 100/114/29 139/153/39 135/149/28 136/150/28 138/152/28
f 129/143/40 126/140/40 146/160/40 147/161/40
f 125/139/40 132/146/29 148/162/29 145/159/40
f 198/212/27 199/213/28 203/217/28 204/218/28 201/215/26 202/216/68 200/214/68 197/211/25
f 96/110/24 64/78/24 133/147/31 140/154/30
f 126/140/40 125/139/40 145/159/40 146/160/40
f 167/181/33 168/182/47 214/228/32 213/227/33
f 132/146/29 124/138/24 144/158/67 148/162/29
f 147/161/40 146/160/40 154/168/40 155/169/40
f 247/261/31 250/264/30 248/262/25 249/263/26
f 148/162/29 144/158/67 152/166/48 156/170/29
f 145/159/40 148/162/29 156/170/29 153/167/40
f 146/160/40 145/159/40 153/167/40 154/168/40
f 155/169/40 154/168/40 162/176/40 163/177/40
f 167/181/33 151/165/31 150/164/31 149/163/31 152/166/48 168/182/47
f 175/189/31 176/190/48 184/198/69 181/195/70 182/196/70 183/197/70
f 156/170/29 152/166/48 160/174/67 164/178/29
f 153/167/40 156/170/29 164/178/29 161/175/40
f 154/168/40 153/167/40 161/175/40 162/176/40
f 214/228/32 212/226/30 211/225/31 213/227/33
f 184/198/69 180/194/39 165/179/67 188/202/71
f 168/182/47 139/153/39 172/186/60 176/190/48
f 135/149/28 136/150/28 170/184/68 169/183/68
f 266/280/31 269/283/30 267/281/25 268/282/26
f 118/132/24 121/135/23 143/157/26 142/156/26 141/155/26 144/158/67 124/138/24 117/131/24
f 152/166/48 149/163/31 150/164/31 151/165/31 159/173/26 158/172/26 157/171/26 160/174/67
f 249/263/26 248/262/25 256/270/27 257/271/28
f 206/220/25 208/222/26 194/208/31 192/206/31 205/219/72
f 195/209/40 196/210/40 204/218/28 203/217/28
f 136/150/28 138/152/28 171/185/68 170/184/68
f 264/278/73 263/277/74 209/223/75 210/224/76
f 139/153/39 135/149/28 169/183/68 172/186/60
f 306/320/24 189/203/24 310/324/24 309/323/48
f 176/190/48 172/186/60 180/194/39 184/198/69
f 172/186/60 169/183/68 170/184/68 171/185/68 179/193/28 178/192/28 177/191/28 180/194/39
f 257/271/28 256/270/27 258/272/32 255/269/33
f 180/194/39 177/191/28 178/192/28 179/193/28 196/210/40 195/209/40 191/205/40 190/204/29
f 142/156/26 143/157/26 138/152/28 136/150/28 135/149/28 139/153/39 144/158/67 141/155/26
f 210/224/76 209/223/75 207/221/77 349/363/78
f 168/182/47 176/190/48 212/226/30 214/228/32
f 190/204/29 191/205/40 199/213/28 198/212/27
f 191/205/40 195/209/40 203/217/28 199/213/28
f 270/284/33 273/287/32 269/283/30 266/280/31
f 188/202/71 165/179/67 206/220/25 205/219/72
f 190/204/29 198/212/27 197/211/25 189/203/24 306/320/24 165/179/67 180/194/39
f 174/188/26 166/180/26 173/187/26 208/222/26 206/220/25 165/179/67
f 239/253/79 240/254/79 241/255/79 222/236/80 219/233/81 216/230/81 218/232/82 242/256/83
f 184/198/69 188/202/71 217/231/84 218/232/82
f 223/237/54 224/238/54 225/239/54 229/243/33 228/242/33 227/241/33 230/244/32 226/240/53
f 160/174/67 157/171/26 231/245/68 234/248/60
f 164/178/29 160/174/67 226/240/53 230/244/32
f 161/175/40 164/178/29 230/244/32 227/241/33
f 162/176/40 161/175/40 227/241/33 228/242/33
f 163/177/40 162/176/40 228/242/33 229/243/33
f 235/249/54 238/252/53 246/260/53 243/257/54
f 238/252/53 234/248/60 242/256/83 246/260/53
f 157/171/26 158/172/26 232/246/68 231/245/68
f 223/237/54 226/240/53 238/252/53 235/249/54
f 158/172/26 159/173/26 233/247/68 232/246/68
f 224/238/54 223/237/54 235/249/54 236/250/54
f 226/240/53 160/174/67 234/248/60 238/252/53
f 272/286/28 271/285/27 273/287/32 270/284/33
f 245/259/54 244/258/54 252/266/54 253/267/54
f 236/250/54 235/249/54 243/257/54 244/258/54
f 232/246/68 233/247/68 241/255/79 240/254/79
f 237/251/54 236/250/54 244/258/54 245/259/54
f 234/248/60 231/245/68 239/253/79 242/256/83
f 231/245/68 232/246/68 240/254/79 239/253/79
f 185/199/85 186/200/85 187/201/85 221/235/86 220/234/87 215/229/87 217/231/84 188/202/71
f 246/260/53 242/256/83 218/232/82 254/268/53
f 243/257/54 246/260/53 254/268/53 251/265/54
f 244/258/54 243/257/54 251/265/54 252/266/54
f 254/268/53 218/232/82 217/231/84 262/276/53
f 268/282/26 267/281/25 271/285/27 272/286/28
f 260/274/54 259/273/54 262/276/53 209/223/75 265/279/88 261/275/54
f 220/234/87 221/235/86 264/278/73 263/277/74 217/231/84 215/229/87
f 253/267/54 252/266/54 251/265/54 254/268/53 262/276/53 259/273/54 260/274/54 261/275/54
f 262/276/53 217/231/84 263/277/74 209/223/75
f 182/196/70 181/195/70 184/198/69 218/232/82 216/230/81 219/233/81 222/236/80 183/197/70
f 263/277/74 264/278/73 265/279/88 209/223/75
f 277/291/26 278/292/25 275/289/60 274/288/68
f 279/293/23 280/294/24 278/292/25 277/291/26
f 280/294/24 284/298/47 281/295/48 276/290/34 275/289/60 278/292/25
f 291/305/40 283/297/49 286/300/50 289/303/51
f 282/296/31 281/295/48 284/298/47 285/299/33
f 281/295/48 282/296/31 287/301/26 290/304/2
f 276/290/34 281/295/48 290/304/2 288/302/34
f 285/299/33 284/298/47 283/297/49 291/305/40
f 280/294/24 279/293/23 289/303/51 286/300/50
f 284/298/47 280/294/24 286/300/50 283/297/49
f 288/302/34 290/304/2 293/307/1 292/306/34
f 294/308/89 283/297/49 286/300/50 296/310/90
f 290/304/2 287/301/26 291/305/40 283/297/49
f 293/307/1 290/304/2 283/297/49 294/308/89
f 286/300/50 289/303/51 295/309/91 296/310/90
f 301/315/33 304/318/32 300/314/30 297/311/31
f 297/311/31 300/314/30 298/312/25 299/313/26
f 299/313/26 298/312/25 302/316/27 303/317/28
f 303/317/28 302/316/27 304/318/32 301/315/33
f 306/320/24 305/319/23 173/187/26 166/180/26 174/188/26 165/179/67
f 201/215/26 193/207/23 308/322/92 311/325/93
f 202/216/68 201/215/26 311/325/93 312/326/94
f 189/203/24 197/211/25 313/327/35 310/324/24
f 200/214/68 202/216/68 312/326/94 314/328/95
f 305/319/23 306/320/24 309/323/48 307/321/96
f 193/207/23 305/319/23 307/321/96 308/322/92
f 197/211/25 200/214/68 314/328/95 313/327/35
f 319/333/27 316/330/97 324/338/97 327/341/61
f 307/321/96 309/323/48 317/331/98 315/329/99
f 310/324/24 313/327/35 321/335/32 318/332/100
f 309/323/48 310/324/24 318/332/100 317/331/98
f 311/325/93 308/322/92 316/330/97 319/333/27
f 322/336/60 320/334/60 328/342/60 330/344/54
f 320/334/60 319/333/27 327/341/61 328/342/60
f 316/330/97 315/329/99 323/337/101 324/338/97
f 315/329/99 317/331/98 325/339/102 323/337/101
f 318/332/100 321/335/32 329/343/27 326/340/103
f 321/335/32 322/336/60 330/344/54 329/343/27
f 317/331/98 318/332/100 326/340/103 325/339/102
f 334/348/24 337/351/25 338/352/26 336/350/26 335/349/62 332/346/92 331/345/23 333/347/24
f 325/339/102 326/340/103 334/348/24 333/347/24
f 327/341/61 324/338/97 332/346/92 335/349/62
f 312/326/94 311/325/93 319/333/27 320/334/60 322/336/60 321/335/32 313/327/35 314/328/95
f 333/347/24 331/345/23 342/356/23 341/355/104
f 326/340/103 329/343/27 337/351/25 334/348/24
f 339/353/105 341/355/104 345/359/106 343/357/107
f 323/337/101 325/339/102 339/353/105 340/354/40
f 325/339/102 333/347/24 341/355/104 339/353/105
f 340/354/40 339/353/105 343/357/107 344/358/108
f 341/355/104 342/356/23 346/360/23 345/359/106
f 263/277/74 347/361/109 207/221/77 209/223/75
f 345/359/106 346/360/23 348/362/23 347/361/109
f 343/357/107 345/359/106 347/361/109 263/277/74
f 344/358/108 343/357/107 263/277/74 264/278/73
f 187/201/85 186/200/85 185/199/85 188/202/71 205/219/72 192/206/31 194/208/31
f 347/361/109 348/362/23 349/363/78 207/221/77
f 350/364/28 351/365/27 353/367/29 352/366/40
f 358/372/28 359/373/110 361/376/111 360/375/33
f 356/370/23 357/371/24 355/369/25 354/368/26
f 354/368/26 355/369/25 351/365/27 350/364/28
f 360/375/33 361/377/111 365/381/112 364/380/31
f 357/371/24 353/367/29 351/365/27 355/369/25
f 364/380/31 365/381/112 363/379/113 362/378/26
f 362/378/26 363/379/113 359/374/110 358/372/28
f 366/382/28 367/384/114 369/388/115 368/386/33
f 365/381/112 361/377/111 359/374/110 363/379/113
f 368/387/33 369/389/115 373/397/116 372/394/31
f 372/395/31 373/396/116 371/392/117 370/390/26
f 370/391/26 371/393/117 367/385/114 366/383/28
f 373/397/116 369/389/115 367/385/114 371/393/117
f 403/427/118 405/429/119 407/431/120 409/433/121 411/435/122 413/437/123 415/439/124 417/441/125 419/443/126 421/445/127 423/447/128 425/449/129 374/398/130
f 376/400/54 378/402/131 379/403/132 377/401/130
f 420/444/133 422/446/134 423/447/128 421/445/127
f 440/468/135 442/470/136 443/471/137 441/469/138
f 418/442/139 420/444/133 421/445/127 419/443/126
f 442/470/136 444/472/140 445/473/141 443/471/137
f 416/440/34 418/442/139 419/443/126 417/441/125
f 444/472/140 446/474/142 447/475/143 445/473/141
f 414/438/144 416/440/34 417/441/125 415/439/124
f 446/474/142 448/476/145 449/477/146 447/475/143
f 412/436/147 414/438/144 415/439/124 413/437/123
f 448/476/145 450/478/148 451/479/34 449/477/146
f 410/434/149 412/436/147 413/437/123 411/435/122
f 450/478/148 452/480/150 453/481/151 451/479/34
f 408/432/152 410/434/149 411/435/122 409/433/121
f 452/480/150 454/482/153 455/483/154 453/481/151
f 408/432/152 469/499/155 471/501/156 406/430/157
f 454/482/153 456/484/158 457/485/159 455/483/154
f 404/428/160 406/430/157 407/431/120 405/429/119
f 380/404/161 382/406/68 383/407/162 381/405/163
f 120/134/60 123/137/25 131/145/27 128/142/28 127/141/28 130/144/28 122/136/26 119/133/60
f 382/406/68 384/408/164 385/409/165 383/407/162
f 433/461/116 429/454/115 427/451/114 431/457/117
f 384/408/164 386/410/166 387/411/167 385/409/165
f 430/456/26 431/457/117 427/451/114 426/450/28
f 386/410/166 388/412/147 389/413/123 387/411/167
f 432/459/31 433/460/116 431/458/117 430/456/26
f 388/412/147 390/414/144 391/415/124 389/413/123
f 428/453/33 429/454/115 433/461/116 432/459/31
f 390/414/144 392/416/34 393/417/125 391/415/124
f 426/450/28 427/452/114 429/455/115 428/453/33
f 392/416/34 394/418/139 395/419/126 393/417/125
f 394/418/139 396/420/133 397/421/127 395/419/126
f 424/448/168 375/399/54 374/398/130 425/449/129
f 396/420/133 398/422/134 399/423/128 397/421/127
f 379/403/132 668/708/40 669/709/40 381/405/163
f 375/399/54 402/426/131 403/427/118 374/398/130
f 398/422/134 400/424/168 401/425/129 399/423/128
f 438/466/169 440/468/135 441/469/138 439/467/170
f 422/446/134 424/448/168 425/449/129 423/447/128
f 400/424/168 376/400/54 377/401/130 401/425/129
f 435/463/171 458/486/172 456/484/158 454/482/153 452/480/150 450/478/148 448/476/145 446/474/142 444/472/140 442/470/136 440/468/135 438/466/169 436/464/173
f 458/486/172 435/463/171 434/462/174 459/487/175
f 435/463/171 436/464/173 437/465/176 434/462/174
f 456/484/158 458/486/172 459/487/175 457/485/159
f 467/497/177 463/491/178 461/489/179 465/493/180
f 464/492/26 465/493/180 461/489/179 460/488/28
f 466/495/31 467/496/177 465/494/180 464/492/26
f 462/490/33 463/491/178 467/497/177 466/495/31
f 460/488/28 461/489/179 463/491/178 462/490/33
f 471/501/156 469/499/155 468/498/181 470/500/182
f 406/430/157 471/501/156 470/500/182 407/431/120
f 504/534/183 492/522/184 508/538/185 511/541/186
f 407/431/120 470/500/182 468/498/181 409/433/121
f 409/433/121 468/498/181 469/499/155 408/432/152
f 498/528/187 505/535/188 513/543/189 517/547/190
f 495/525/191 486/516/192 514/544/193 509/539/194
f 485/515/195 487/517/196 494/524/197 490/520/198
f 528/558/183 475/505/184 532/562/185 535/565/186
f 489/519/199 499/529/200 519/549/201 515/545/202
f 512/542/203 510/540/204 516/546/205 518/548/206
f 503/533/207 506/536/208 501/531/209 496/526/210
f 491/521/211 493/523/212 507/537/213 502/532/214
f 486/516/192 487/517/196 488/518/215 489/519/199
f 492/522/184 493/523/212 494/524/197 495/525/191
f 498/528/187 499/529/200 500/530/216 501/531/209
f 504/534/183 505/535/188 506/536/208 507/537/213
f 508/538/185 509/539/194 510/540/204
f 511/541/186 512/542/203 513/543/189
f 514/544/193 515/545/202 516/546/205
f 517/547/190 518/548/206 519/549/201
f 492/522/184 504/534/183 507/537/213 493/523/212
f 486/516/192 495/525/191 494/524/197 487/517/196
f 484/514/217 488/518/215 487/517/196 485/515/195
f 493/523/212 491/521/211 490/520/198 494/524/197
f 506/536/208 503/533/207 502/532/214 507/537/213
f 505/535/188 498/528/187 501/531/209 506/536/208
f 500/530/216 497/527/218 496/526/210 501/531/209
f 499/529/200 489/519/199 488/518/215 500/530/216
f 510/540/204 512/542/203 511/541/186 508/538/185
f 516/546/205 510/540/204 509/539/194 514/544/193
f 512/542/203 518/548/206 517/547/190 513/543/189
f 518/548/206 516/546/205 515/545/202 519/549/201
f 489/519/199 515/545/202 514/544/193 486/516/192
f 508/538/185 492/522/184 495/525/191 509/539/194
f 504/534/183 511/541/186 513/543/189 505/535/188
f 519/549/201 499/529/200 498/528/187 517/547/190
f 497/527/218 500/530/216 488/518/215 484/514/217
f 522/552/187 529/559/188 537/567/189 541/571/190
f 472/502/191 481/511/192 538/568/193 533/563/194
f 482/512/195 480/510/196 473/503/197 477/507/198
f 478/508/199 523/553/200 543/573/201 539/569/202
f 536/566/203 534/564/204 540/570/205 542/572/206
f 527/557/207 530/560/208 525/555/209 520/550/210
f 476/506/211 474/504/212 531/561/213 526/556/214
f 481/511/192 480/510/196 479/509/215 478/508/199
f 475/505/184 474/504/212 473/503/197 472/502/191
f 522/552/187 523/553/200 524/554/216 525/555/209
f 528/558/183 529/559/188 530/560/208 531/561/213
f 532/562/185 533/563/194 534/564/204
f 535/565/186 536/566/203 537/567/189
f 538/568/193 539/569/202 540/570/205
f 541/571/190 542/572/206 543/573/201
f 475/505/184 528/558/183 531/561/213 474/504/212
f 481/511/192 472/502/191 473/503/197 480/510/196
f 483/513/217 479/509/215 480/510/196 482/512/195
f 474/504/212 476/506/211 477/507/198 473/503/197
f 530/560/208 527/557/207 526/556/214 531/561/213
f 529/559/188 522/552/187 525/555/209 530/560/208
f 524/554/216 521/551/218 520/550/210 525/555/209
f 523/553/200 478/508/199 479/509/215 524/554/216
f 534/564/204 536/566/203 535/565/186 532/562/185
f 540/570/205 534/564/204 533/563/194 538/568/193
f 536/566/203 542/572/206 541/571/190 537/567/189
f 542/572/206 540/570/205 539/569/202 543/573/201
f 478/508/199 539/569/202 538/568/193 481/511/192
f 532/562/185 475/505/184 472/502/191 533/563/194
f 528/558/183 535/565/186 537/567/189 529/559/188
f 543/573/201 523/553/200 522/552/187 541/571/190
f 521/551/218 524/554/216 479/509/215 483/513/217
f 564/594/183 547/577/184 568/598/185 571/601/186
f 558/588/187 565/595/188 573/603/189 577/607/190
f 544/574/191 553/583/192 574/604/193 569/599/194
f 554/584/195 552/582/196 545/575/197 549/579/198
f 550/580/199 559/589/200 579/609/201 575/605/202
f 572/602/203 570/600/204 576/606/205 578/608/206
f 563/593/207 566/596/208 561/591/209 556/586/210
f 548/578/211 546/576/212 567/597/213 562/592/214
f 553/583/192 552/582/196 551/581/215 550/580/199
f 547/577/184 546/576/212 545/575/197 544/574/191
f 558/588/187 559/589/200 560/590/216 561/591/209
f 564/594/183 565/595/188 566/596/208 567/597/213
f 568/598/185 569/599/194 570/600/204
f 571/601/186 572/602/203 573/603/189
f 574/604/193 575/605/202 576/606/205
f 577/607/190 578/608/206 579/609/201
f 547/577/184 564/594/183 567/597/213 546/576/212
f 553/583/192 544/574/191 545/575/197 552/582/196
f 555/585/217 551/581/215 552/582/196 554/584/195
f 546/576/212 548/578/211 549/579/198 545/575/197
f 566/596/208 563/593/207 562/592/214 567/597/213
f 565/595/188 558/588/187 561/591/209 566/596/208
f 560/590/216 557/587/218 556/586/210 561/591/209
f 559/589/200 550/580/199 551/581/215 560/590/216
f 570/600/204 572/602/203 571/601/186 568/598/185
f 576/606/205 570/600/204 569/599/194 574/604/193
f 572/602/203 578/608/206 577/607/190 573/603/189
f 578/608/206 576/606/205 575/605/202 579/609/201
f 550/580/199 575/605/202 574/604/193 553/583/192
f 568/598/185 547/577/184 544/574/191 569/599/194
f 564/594/183 571/601/186 573/603/189 565/595/188
f 579/609/201 559/589/200 558/588/187 577/607/190
f 557/587/218 560/590/216 551/581/215 555/585/217
f 600/630/183 583/613/184 604/634/185 607/637/186
f 594/624/187 601/631/188 609/639/189 613/643/190
f 580/610/191 589/619/192 610/640/193 605/635/194
f 590/620/195 588/618/196 581/611/197 585/615/198
f 586/616/199 595/625/200 615/645/201 611/641/202
f 608/638/203 606/636/204 612/642/205 614/644/206
f 599/629/207 602/632/208 597/627/209 592/622/210
f 584/614/211 582/612/212 603/633/213 598/628/214
f 589/619/192 588/618/196 587/617/215 586/616/199
f 583/613/184 582/612/212 581/611/197 580/610/191
f 594/624/187 595/625/200 596/626/216 597/627/209
f 600/630/183 601/631/188 602/632/208 603/633/213
f 604/634/185 605/635/194 606/636/204
f 607/637/186 608/638/203 609/639/189
f 610/640/193 611/641/202 612/642/205
f 613/643/190 614/644/206 615/645/201
f 583/613/184 600/630/183 603/633/213 582/612/212
f 589/619/192 580/610/191 581/611/197 588/618/196
f 591/621/217 587/617/215 588/618/196 590/620/195
f 582/612/212 584/614/211 585/615/198 581/611/197
f 602/632/208 599/629/207 598/628/214 603/633/213
f 601/631/188 594/624/187 597/627/209 602/632/208
f 596/626/216 593/623/218 592/622/210 597/627/209
f 595/625/200 586/616/199 587/617/215 596/626/216
f 606/636/204 608/638/203 607/637/186 604/634/185
f 612/642/205 606/636/204 605/635/194 610/640/193
f 608/638/203 614/644/206 613/643/190 609/639/189
f 614/644/206 612/642/205 611/641/202 615/645/201
f 586/616/199 611/641/202 610/640/193 589/619/192
f 604/634/185 583/613/184 580/610/191 605/635/194
f 600/630/183 607/637/186 609/639/189 601/631/188
f 615/645/201 595/625/200 594/624/187 613/643/190
f 593/623/218 596/626/216 587/617/215 591/621/217
f 636/666/183 619/649/184 640/670/185 643/673/186
f 630/660/187 637/667/188 645/675/189 649/679/190
f 616/646/191 625/655/192 646/676/193 641/671/194
f 626/656/195 624/654/196 617/647/197 621/651/198
f 622/652/199 631/661/200 651/681/201 647/677/202
f 644/674/203 642/672/204 648/678/205 650/680/206
f 635/665/207 638/668/208 633/663/209 628/658/210
f 620/650/211 618/648/212 639/669/213 634/664/214
f 625/655/192 624/654/196 623/653/215 622/652/199
f 619/649/184 618/648/212 617/647/197 616/646/191
f 630/660/187 631/661/200 632/662/216 633/663/209
f 636/666/183 637/667/188 638/668/208 639/669/213
f 640/670/185 641/671/194 642/672/204
f 643/673/186 644/674/203 645/675/189
f 646/676/193 647/677/202 648/678/205
f 649/679/190 650/680/206 651/681/201
f 619/649/184 636/666/183 639/669/213 618/648/212
f 625/655/192 616/646/191 617/647/197 624/654/196
f 627/657/217 623/653/215 624/654/196 626/656/195
f 618/648/212 620/650/211 621/651/198 617/647/197
f 638/668/208 635/665/207 634/664/214 639/669/213
f 637/667/188 630/660/187 633/663/209 638/668/208
f 632/662/216 629/659/218 628/658/210 633/663/209
f 631/661/200 622/652/199 623/653/215 632/662/216
f 642/672/204 644/674/203 643/673/186 640/670/185
f 648/678/205 642/672/204 641/671/194 646/676/193
f 644/674/203 650/680/206 649/679/190 645/675/189
f 650/680/206 648/678/205 647/677/202 651/681/201
f 622/652/199 647/677/202 646/676/193 625/655/192
f 640/670/185 619/649/184 616/646/191 641/671/194
f 636/666/183 643/673/186 645/675/189 637/667/188
f 651/681/201 631/661/200 630/660/187 649/679/190
f 629/659/218 632/662/216 623/653/215 627/657/217
f 659/693/219 656/689/220 653/683/29 655/687/24
f 657/690/221 659/693/219 655/687/24 654/685/23
f 13/19/28 14/22/27 653/684/29 652/682/40
f 657/690/221 19/30/22 664/702/222 665/703/223
f 658/692/224 656/689/220 660/695/225 666/704/226
f 652/682/40 653/684/29 656/688/220 658/691/224
f 666/704/226 660/694/225 661/697/19 662/699/227
f 664/702/222 663/700/20 667/705/228 665/703/223
f 663/701/20 661/698/19 660/695/225 667/707/228
f 16/25/18 15/23/21 662/699/227 661/698/19
f 656/689/220 659/693/219 667/706/228 660/696/225
f 659/693/219 657/690/221 665/703/223 667/707/228
f 19/30/22 20/32/17 663/701/20 664/702/222
f 15/23/21 658/692/224 666/704/226 662/699/227
f 25/38/32 27/41/27 23/35/25 21/33/30
f 381/405/163 383/407/162 385/409/165 387/411/167 389/413/123 391/415/124 393/417/125 395/419/126 397/421/127 399/423/128 401/425/129 377/401/130 379/403/132
f 61/75/36 62/76/35 95/109/25 99/113/27 72/86/60 70/84/64 98/112/28 94/108/26
f 704/738/229 717/751/230 718/752/231 706/740/232
f 719/753/233 709/743/234 711/745/235 720/754/236
f 766/800/237 673/713/238 675/715/239 767/801/240
f 706/740/232 718/752/231 719/753/233 708/742/241
f 740/774/242 739/773/243 736/770/244 737/771/245
f 767/801/240 675/715/239 677/717/246 768/802/247
f 718/752/231 707/741/248 709/743/234 719/753/233
f 768/802/247 677/717/246 679/719/249 769/803/250
f 717/751/230 705/739/251 707/741/248 718/752/231
f 769/803/250 679/719/249 681/721/252 770/804/253
f 700/734/254 713/747/255 712/746/256 702/736/257
f 698/732/258 714/748/259 713/747/255 700/734/254
f 696/730/260 715/749/261 714/748/259 698/732/258
f 710/744/262 720/754/236 716/750/263 671/711/264
f 713/747/255 701/735/265 703/737/266 712/746/256
f 771/805/267 689/723/268 691/725/269 772/806/270
f 671/711/264 716/750/263 715/749/261 696/730/260
f 714/748/259 699/733/271 701/735/265 713/747/255
f 772/806/270 691/725/269 693/727/272 773/807/273
f 715/749/261 697/731/274 699/733/271 714/748/259
f 773/807/273 693/727/272 695/729/275 774/808/276
f 720/754/236 711/745/235 670/710/277 716/750/263
f 774/808/276 695/729/275 673/713/238 766/800/237
f 716/750/263 670/710/277 697/731/274 715/749/261
f 708/742/241 719/753/233 720/754/236 710/744/262
f 671/711/264 696/730/260 722/756/278 721/755/279
f 708/742/241 710/744/262 729/763/280 728/762/281
f 704/738/229 706/740/232 727/761/282 726/760/283
f 700/734/254 702/736/257 725/759/284 724/758/285
f 698/732/258 700/734/254 724/758/285 723/757/286
f 696/730/260 698/732/258 723/757/286 722/756/278
f 710/744/262 671/711/264 721/755/279 729/763/280
f 706/740/232 708/742/241 728/762/281 727/761/282
f 734/768/287 738/772/288 765/799/289 761/795/290
f 743/777/291 740/774/242 737/771/245 738/772/288
f 745/779/292 744/778/293 734/768/287 733/767/294
f 739/773/243 742/776/295 735/769/296 736/770/244
f 744/778/293 743/777/291 738/772/288 734/768/287
f 741/775/297 746/780/298 731/765/299 730/764/300
f 746/780/298 747/781/301 732/766/302 731/765/299
f 747/781/301 745/779/292 733/767/294 732/766/302
f 699/733/271 697/731/274 745/779/292 747/781/301
f 701/735/265 699/733/271 747/781/301 746/780/298
f 703/737/266 701/735/265 746/780/298 741/775/297
f 670/710/277 711/745/235 743/777/291 744/778/293
f 707/741/248 705/739/251 742/776/295 739/773/243
f 697/731/274 670/710/277 744/778/293 745/779/292
f 711/745/235 709/743/234 740/774/242 743/777/291
f 709/743/234 707/741/248 739/773/243 740/774/242
f 695/729/275 693/727/272 755/789/303 756/790/304
f 675/715/239 673/713/238 749/783/305 748/782/306
f 730/764/300 731/765/299 758/792/307 757/791/308
f 673/713/238 695/729/275 756/790/304 749/783/305
f 691/725/269 689/723/268 753/787/309 754/788/310
f 731/765/299 732/766/302 759/793/311 758/792/307
f 681/721/252 679/719/249 751/785/312 752/786/313
f 732/766/302 733/767/294 760/794/314 759/793/311
f 677/717/246 675/715/239 748/782/306 750/784/315
f 733/767/294 734/768/287 761/795/290 760/794/314
f 693/727/272 691/725/269 754/788/310 755/789/303
f 736/770/244 735/769/296 762/796/316 763/797/317
f 737/771/245 736/770/244 763/797/317 764/798/318
f 738/772/288 737/771/245 764/798/318 765/799/289
f 679/719/249 677/717/246 750/784/315 751/785/312
f 694/728/319 774/808/276 766/800/237 672/712/320
f 692/726/321 773/807/273 774/808/276 694/728/319
f 690/724/322 772/806/270 773/807/273 692/726/321
f 688/722/323 771/805/267 772/806/270 690/724/322
f 678/718/324 769/803/250 770/804/253 680/720/325
f 676/716/326 768/802/247 769/803/250 678/718/324
f 674/714/327 767/801/240 768/802/247 676/716/326
f 672/712/320 766/800/237 767/801/240 674/714/327
f 779/813/33 782/816/32 778/812/30 775/809/31
f 775/809/31 778/812/30 776/810/25 777/811/26
f 777/811/26 776/810/25 780/814/27 781/815/28
f 781/815/28 780/814/27 782/816/32 779/813/33
f 787/821/31 790/824/30 786/820/25 783/817/26
f 783/817/26 786/820/25 784/818/27 785/819/28
f 786/820/25 790/824/30 788/822/32 784/818/27
f 785/819/28 784/818/27 788/822/32 789/823/33
f 789/823/33 788/822/32 790/824/30 787/821/31
s 0
f 791/825/23 793/829/23 794/832/23 792/827/23
f 793/830/34 797/839/34 798/842/34 794/833/34
f 797/840/40 795/835/40 796/837/40 798/843/40
f 793/831/54 791/826/54 795/836/54 797/841/54
f 798/844/68 796/838/68 792/828/68 794/834/68
s 1
usemtl shop_front10.GLASS
f 50/64/25 56/70/41 53/67/42 49/63/27
f 52/66/25 54/68/43 55/69/44 51/65/27
f 269/283/30 273/287/32 271/285/27 267/281/25
f 250/264/30 258/272/32 256/270/27 248/262/25
f 300/314/30 304/318/32 302/316/27 298/312/25
f 778/812/30 782/816/32 780/814/27 776/810/25
l 683 684
l 687 688
l 680 682
l 684 685
l 682 683
l 685 686
l 686 687
