# Blender 3.3.1
# www.blender.org
mtllib shop_front9.mtl
o shop_front9
v -2.499688 -0.000002 -0.000000
v 2.499688 -0.000002 -0.000000
v -2.499688 2.221489 0.082141
v 2.499688 2.221489 0.082141
v -2.359228 1.459774 -0.002142
v -2.359228 1.459774 0.110992
v -2.359228 2.017542 -0.002142
v -2.359228 2.017542 0.110992
v 2.284531 1.459774 -0.002142
v 2.284531 1.459774 0.110992
v 2.284531 2.017542 -0.002142
v 2.284531 2.017542 0.110992
v -2.499688 1.445101 0.000000
v 2.499688 1.445101 0.000000
v -0.110911 1.445101 0.000000
v -0.110910 -0.000002 -0.000000
v -0.615813 1.445101 0.000000
v -0.615813 -0.000002 -0.000000
v -2.223411 1.445101 0.000000
v -2.223411 -0.000002 -0.000000
v -0.695438 1.445101 0.000000
v -0.695438 -0.000002 -0.000000
v 2.201128 -0.000002 -0.000000
v 2.201128 1.445101 0.000000
v 0.324138 -0.000002 -0.000000
v 0.324138 1.445101 0.000000
v 2.201128 0.045214 -0.000000
v 0.324138 0.052044 -0.000000
v -0.096780 0.002042 -0.004194
v -0.096780 0.002042 0.105860
v -0.096780 2.222682 -0.004194
v -0.096780 2.222682 0.105860
v 0.314478 0.002042 -0.004194
v 0.314478 0.002042 0.105860
v 0.314478 2.222682 -0.004194
v 0.314478 2.222682 0.105860
v -2.499688 2.053032 0.082141
v 2.499688 2.053032 0.082141
v -2.499688 1.655532 -0.000115
v 2.499688 1.655532 -0.000115
v -2.425624 2.033484 0.076798
v -2.425624 2.033484 0.164626
v -2.425624 2.221929 0.076798
v -2.425624 2.221929 0.164626
v -2.400353 2.033484 0.076798
v -2.400353 2.033484 0.164626
v -2.400353 2.221929 0.076798
v -2.400353 2.221929 0.164626
v -2.425624 1.942561 0.057329
v -2.425624 1.942561 0.145157
v -2.400353 1.942561 0.145157
v -2.400353 1.942561 0.057329
v 2.307580 2.033484 0.076798
v 2.307580 2.033484 0.164626
v 2.307580 2.221929 0.076798
v 2.307580 2.221929 0.164626
v 2.332852 2.033484 0.076798
v 2.332852 2.033484 0.164626
v 2.332852 2.221929 0.076798
v 2.332852 2.221929 0.164626
v 2.307580 1.942561 0.057329
v 2.307580 1.942561 0.145157
v 2.332852 1.942561 0.145157
v 2.332852 1.942561 0.057329
v 0.017206 2.044781 0.098564
v 0.017206 2.044781 0.135722
v -0.015669 2.101439 0.098564
v -0.015669 2.101439 0.135722
v 0.151383 2.044781 0.098564
v 0.151383 2.044781 0.135722
v 0.184257 2.101439 0.098564
v 0.184257 2.101439 0.135722
v 0.053578 2.211365 0.135722
v 0.053578 2.211365 0.098564
v 0.115010 2.211365 0.098564
v 0.115010 2.211365 0.135722
v 2.344850 1.445159 -0.001755
v 2.344850 1.445159 0.018897
v 2.344850 1.639172 -0.001755
v 2.344850 1.639172 0.018897
v 2.407227 1.445159 -0.001755
v 2.407227 1.445159 0.018897
v 2.407227 1.639172 -0.001755
v 2.407227 1.639172 0.018897
v 2.441871 -0.000007 0.009257
v 2.441871 0.919865 0.009257
v 2.281488 1.512983 0.000000
v 2.499659 1.512983 0.000000
v 2.281488 1.512266 -0.003374
v 2.499659 1.512266 -0.003374
v 2.281488 1.510238 -0.006165
v 2.499659 1.510238 -0.006165
v 2.281488 1.507251 -0.007890
v 2.499659 1.507251 -0.007890
v 2.281488 1.503820 -0.008251
v 2.499659 1.503820 -0.008251
v 2.281488 1.500539 -0.007185
v 2.499659 1.500539 -0.007185
v 2.281488 1.497975 -0.004876
v 2.499659 1.497975 -0.004876
v 2.281488 1.496572 -0.001725
v 2.499659 1.496572 -0.001725
v 2.281488 1.496572 0.001725
v 2.499659 1.496572 0.001725
v 2.281488 1.497975 0.004877
v 2.499659 1.497975 0.004877
v 2.281488 1.500539 0.007185
v 2.499659 1.500539 0.007185
v 2.281488 1.503820 0.008251
v 2.499659 1.503820 0.008251
v 2.281488 1.507251 0.007891
v 2.499659 1.507251 0.007891
v 2.281488 1.510238 0.006166
v 2.499659 1.510238 0.006166
v 2.281488 1.512266 0.003375
v 2.499659 1.512266 0.003375
v 2.440126 0.919865 0.001044
v 2.440126 -0.000007 0.001044
v 2.435191 0.919865 -0.005749
v 2.435191 -0.000007 -0.005749
v 2.427918 0.919865 -0.009947
v 2.427918 -0.000007 -0.009947
v 2.419568 0.919865 -0.010825
v 2.419568 -0.000007 -0.010825
v 2.411582 0.919865 -0.008230
v 2.411582 -0.000007 -0.008230
v 2.405342 0.919865 -0.002612
v 2.405342 -0.000007 -0.002612
v 2.401927 0.919865 0.005059
v 2.401927 -0.000007 0.005059
v 2.401927 0.919865 0.013455
v 2.401927 -0.000007 0.013455
v 2.405342 0.919865 0.021126
v 2.405342 -0.000007 0.021126
v 2.411582 0.919865 0.026745
v 2.411582 -0.000007 0.026744
v 2.419568 0.919865 0.029339
v 2.419568 -0.000007 0.029339
v 2.427918 0.919865 0.028462
v 2.427918 -0.000007 0.028461
v 2.435191 0.919865 0.024263
v 2.435191 -0.000007 0.024263
v 2.440126 0.919865 0.017470
v 2.440126 -0.000007 0.017470
v 2.423326 0.918652 0.009257
v 2.499826 1.470686 0.009257
v 2.499828 1.470939 0.008067
v 2.423073 0.918652 0.008067
v 2.499831 1.471654 0.007082
v 2.422357 0.918652 0.007082
v 2.499837 1.472708 0.006474
v 2.421303 0.918652 0.006474
v 2.499844 1.473918 0.006346
v 2.420093 0.918652 0.006346
v 2.499851 1.475076 0.006723
v 2.418936 0.918652 0.006723
v 2.499856 1.475980 0.007537
v 2.418031 0.918652 0.007537
v 2.499858 1.476475 0.008649
v 2.417536 0.918652 0.008649
v 2.499858 1.476475 0.009866
v 2.417536 0.918652 0.009866
v 2.499856 1.475980 0.010977
v 2.418031 0.918652 0.010977
v 2.499851 1.475076 0.011792
v 2.418936 0.918652 0.011792
v 2.499844 1.473918 0.012168
v 2.420093 0.918652 0.012168
v 2.499837 1.472708 0.012041
v 2.421303 0.918652 0.012041
v 2.499831 1.471654 0.011432
v 2.422357 0.918652 0.011432
v 2.499828 1.470939 0.010447
v 2.423073 0.918652 0.010447
v 2.406612 1.295501 0.010977
v 2.408066 1.295492 0.006346
v 2.406263 1.295503 0.009866
v 2.408919 1.295487 0.006474
v 2.406263 1.295503 0.008649
v 2.409662 1.295483 0.007082
v 2.406612 1.295501 0.007537
v 2.410167 1.295480 0.008067
v 2.410345 1.295479 0.009257
v 2.407249 1.295497 0.006723
v 2.407249 1.295497 0.011792
v 2.408066 1.295492 0.012168
v 2.408919 1.295487 0.012041
v 2.409662 1.295483 0.011432
v 2.410167 1.295480 0.010447
v 2.416745 1.416934 0.010977
v 2.418286 1.416412 0.006346
v 2.416375 1.417059 0.009866
v 2.419191 1.416105 0.006474
v 2.416375 1.417059 0.008649
v 2.419979 1.415838 0.007082
v 2.416745 1.416934 0.007537
v 2.420513 1.415657 0.008067
v 2.417421 1.416705 0.006723
v 2.417421 1.416705 0.011792
v 2.418286 1.416412 0.012168
v 2.419191 1.416105 0.012041
v 2.419979 1.415838 0.011432
v 2.420513 1.415657 0.010447
v 2.420702 1.415593 0.009257
v 2.421079 1.057675 0.009257
v 2.416982 1.056852 0.010977
v 2.418578 1.057172 0.006346
v 2.416600 1.056775 0.009866
v 2.419514 1.057360 0.006474
v 2.416600 1.056775 0.008649
v 2.420330 1.057524 0.007082
v 2.416982 1.056852 0.007537
v 2.420883 1.057635 0.008067
v 2.417682 1.056993 0.006723
v 2.417682 1.056993 0.011792
v 2.418578 1.057172 0.012168
v 2.419514 1.057360 0.012041
v 2.420330 1.057524 0.011432
v 2.420883 1.057635 0.010447
v 2.454600 1.451504 0.010977
v 2.455564 1.450352 0.006346
v 2.454369 1.451780 0.009866
v 2.456129 1.449677 0.006474
v 2.454369 1.451780 0.008649
v 2.456622 1.449088 0.007082
v 2.454600 1.451504 0.007537
v 2.456956 1.448689 0.008067
v 2.455023 1.450999 0.006723
v 2.455023 1.450999 0.011792
v 2.455564 1.450352 0.012168
v 2.456129 1.449677 0.012041
v 2.456622 1.449088 0.011432
v 2.456956 1.448689 0.010447
v 2.457074 1.448547 0.009257
v -2.473628 1.512983 -0.001755
v -2.473628 1.512983 0.018897
v -2.473628 1.706996 -0.001755
v -2.473628 1.706996 0.018897
v -2.411251 1.512983 -0.001755
v -2.411251 1.512983 0.018897
v -2.411251 1.706996 -0.001755
v -2.411251 1.706996 0.018897
v -2.448508 1.533324 -0.001755
v -2.448508 1.533324 0.039966
v -2.448508 1.593439 -0.001755
v -2.448508 1.593439 0.039966
v -2.386131 1.533324 -0.001755
v -2.386131 1.533324 0.039966
v -2.386131 1.593439 -0.001755
v -2.386131 1.593439 0.039966
v -2.455617 1.649741 -0.001755
v -2.455617 1.649741 0.039966
v -2.455617 1.709856 -0.001755
v -2.455617 1.709856 0.039966
v -2.393240 1.649741 -0.001755
v -2.393240 1.649741 0.039966
v -2.393240 1.709856 -0.001755
v -2.393240 1.709856 0.039966
v -2.338433 1.360416 0.014833
v -2.338433 1.360416 0.002309
v -2.334854 1.408260 0.045023
v -2.277156 1.351094 0.073249
v -2.327652 1.411842 0.036859
v -2.268262 1.355919 0.062287
v -2.323399 1.412594 0.026243
v -2.262805 1.356478 0.048415
v -2.322831 1.410388 0.015011
v -2.261726 1.352674 0.034030
v -2.326045 1.405603 0.005105
v -2.265215 1.345165 0.021622
v -2.332486 1.399068 -0.001762
v -2.272667 1.335250 0.013333
v -2.341040 1.391913 -0.004403
v -2.282793 1.324642 0.010599
v -2.350228 1.385374 -0.002361
v -2.293844 1.315177 0.013890
v -2.358462 1.380582 0.004011
v -2.303906 1.308490 0.022641
v -2.364317 1.378367 0.013610
v -2.311243 1.305738 0.035335
v -2.366781 1.379110 0.024778
v -2.314584 1.307397 0.049779
v -2.365429 1.382684 0.035583
v -2.313351 1.313180 0.063474
v -2.360494 1.388470 0.044157
v -2.307759 1.322087 0.074054
v -2.352829 1.395468 0.049017
v -2.298774 1.332577 0.079689
v -2.343759 1.402468 0.049324
v -2.287949 1.342838 0.079404
v -2.295920 1.470127 0.002309
v -2.295920 1.470127 0.014833
v -2.303160 1.346748 0.002309
v -2.303160 1.346748 0.014833
v -2.260647 1.456459 0.002309
v -2.260647 1.456459 0.014833
v -0.543979 0.732816 0.005951
v -0.541411 0.736949 0.007532
v -0.591296 0.737378 0.007532
v -0.607855 0.737378 0.007532
v -0.591296 0.732512 0.005951
v -0.607855 0.732512 0.005951
v -0.591296 0.729504 0.001812
v -0.607855 0.729504 0.001812
v -0.591296 0.729504 -0.003305
v -0.607855 0.729504 -0.003305
v -0.591296 0.732512 -0.007445
v -0.607855 0.732512 -0.007445
v -0.591296 0.737378 -0.009026
v -0.607855 0.737378 -0.009026
v -0.591296 0.742244 -0.007445
v -0.607855 0.742244 -0.007445
v -0.591296 0.745252 -0.003305
v -0.607855 0.745252 -0.003305
v -0.591296 0.745252 0.001812
v -0.607855 0.745252 0.001812
v -0.591296 0.742244 0.005951
v -0.607855 0.742244 0.005951
v -0.545567 0.730261 0.001812
v -0.545567 0.730261 -0.003305
v -0.543979 0.732816 -0.007445
v -0.541411 0.736949 -0.009026
v -0.538843 0.741083 -0.007445
v -0.537255 0.743638 -0.003305
v -0.537255 0.743638 0.001812
v -0.538843 0.741083 0.005951
v -0.481374 0.697099 0.005951
v -0.484881 0.693725 0.007532
v -0.479206 0.699184 0.001812
v -0.479206 0.699184 -0.003305
v -0.481374 0.697099 -0.007445
v -0.484881 0.693725 -0.009026
v -0.488388 0.690352 -0.007445
v -0.490556 0.688267 -0.003305
v -0.490556 0.688267 0.001812
v -0.488388 0.690352 0.005951
v -0.475194 0.663217 0.005951
v -0.480060 0.663294 0.007532
v -0.472187 0.663170 0.001812
v -0.472187 0.663170 -0.003305
v -0.475194 0.663217 -0.007445
v -0.480060 0.663294 -0.009026
v -0.484926 0.663370 -0.007445
v -0.487933 0.663417 -0.003305
v -0.487933 0.663417 0.001812
v -0.484926 0.663370 0.005951
v -0.483056 0.624981 0.005951
v -0.487256 0.627439 0.007532
v -0.480461 0.623461 0.001812
v -0.480461 0.623461 -0.003305
v -0.483056 0.624981 -0.007445
v -0.487256 0.627439 -0.009026
v -0.491455 0.629898 -0.007445
v -0.494050 0.631418 -0.003305
v -0.494050 0.631418 0.001812
v -0.491455 0.629898 0.005951
v -0.538396 0.554460 0.005951
v -0.538201 0.559322 0.007532
v -0.538517 0.551454 0.001812
v -0.538517 0.551454 -0.003305
v -0.538396 0.554460 -0.007445
v -0.538201 0.559322 -0.009026
v -0.538005 0.564185 -0.007445
v -0.537884 0.567190 -0.003305
v -0.537884 0.567190 0.001812
v -0.538005 0.564185 0.005951
v -0.606004 0.547984 0.005951
v -0.605809 0.552847 0.007532
v -0.606125 0.544979 0.001812
v -0.606125 0.544979 -0.003305
v -0.606004 0.547984 -0.007445
v -0.605809 0.552847 -0.009026
v -0.605613 0.557709 -0.007445
v -0.605492 0.560715 -0.003305
v -0.605492 0.560715 0.001812
v -0.605613 0.557709 0.005951
v -0.501096 0.584454 -0.003305
v -0.502924 0.586272 -0.007445
v -0.505883 0.589214 0.007532
v -0.502924 0.586272 0.005951
v -0.510670 0.593974 -0.003305
v -0.510670 0.593974 0.001812
v -0.505883 0.589214 -0.009026
v -0.501096 0.584454 0.001812
v -0.508842 0.592156 0.005951
v -0.508842 0.592156 -0.007445
v -1.194325 0.363429 0.020275
v -1.197831 0.369746 0.022623
v -1.219308 0.346048 0.022623
v -1.219308 0.000929 0.022623
v -1.212083 0.346048 0.020275
v -1.212083 0.000929 0.020275
v -1.207618 0.346048 0.014129
v -1.207618 0.000929 0.014129
v -1.207618 0.346048 0.006533
v -1.207618 0.000929 0.006533
v -1.212083 0.346048 0.000387
v -1.212083 0.000929 0.000387
v -1.219308 0.346048 -0.001961
v -1.219308 0.000929 -0.001961
v -1.226533 0.346048 0.000387
v -1.226533 0.000929 0.000387
v -1.230998 0.346048 0.006533
v -1.230998 0.000929 0.006533
v -1.230998 0.346048 0.014129
v -1.230998 0.000929 0.014129
v -1.226533 0.346048 0.020275
v -1.226533 0.000929 0.020275
v -1.192159 0.359524 0.014130
v -1.192159 0.359524 0.006533
v -1.194325 0.363429 0.000387
v -1.197831 0.369746 -0.001961
v -1.201337 0.376064 0.000387
v -1.203504 0.379968 0.006533
v -1.203504 0.379968 0.014130
v -1.201337 0.376064 0.020275
v -0.997950 0.379639 0.020276
v -0.997902 0.372414 0.022623
v -0.997980 0.384104 0.014130
v -0.997980 0.384104 0.006533
v -0.997950 0.379639 0.000387
v -0.997902 0.372414 -0.001961
v -0.997854 0.365189 0.000387
v -0.997824 0.360724 0.006533
v -0.997824 0.360724 0.014130
v -0.997854 0.365189 0.020276
v -0.965612 0.354449 0.020276
v -0.972835 0.354254 0.022623
v -0.961148 0.354569 0.014130
v -0.961148 0.354569 0.006533
v -0.965612 0.354449 0.000387
v -0.972835 0.354254 -0.001961
v -0.980057 0.354060 0.000387
v -0.984521 0.353940 0.006533
v -0.984521 0.353940 0.014130
v -0.980057 0.354060 0.020276
v -0.970420 -0.000172 0.020276
v -0.977644 -0.000088 0.022623
v -0.965955 -0.000223 0.014130
v -0.965955 -0.000223 0.006533
v -0.970420 -0.000172 0.000387
v -0.977644 -0.000088 -0.001960
v -0.984869 -0.000005 0.000387
v -0.989334 0.000047 0.006533
v -0.989334 0.000047 0.014130
v -0.984869 -0.000005 0.020276
v -1.216767 0.018342 0.013571
v -0.979633 0.018342 0.013571
v -1.216767 0.362858 0.013571
v -0.979633 0.362858 0.013571
v 1.232237 1.445101 0.000000
v 1.232238 0.048718 -0.000000
v 1.259409 1.445101 0.000000
v 1.259409 0.048620 -0.000000
v -0.615813 -0.000002 -0.010714
v -0.110910 -0.000002 -0.010714
v -0.110911 1.445101 -0.010714
v -0.615813 1.445101 -0.010714
v -0.695438 1.445101 -0.010714
v -2.223411 1.445101 -0.010714
v -2.223411 -0.000002 -0.010714
v -0.695438 -0.000002 -0.010714
v 1.232237 1.445101 -0.010714
v 0.324138 1.445101 -0.010714
v 2.201128 1.445101 -0.010714
v 2.201128 0.045214 -0.010714
v 0.324138 0.052044 -0.010714
v 1.259409 0.048620 -0.010714
v 1.232238 0.048718 -0.010714
v 1.259409 1.445101 -0.010714
v -0.625756 1.169433 0.002999
v -0.625756 1.169433 0.014143
v -0.105682 1.169433 0.002999
v -0.105682 1.169433 0.014143
v -0.625756 1.135773 0.002999
v -0.625756 1.135773 0.014143
v -0.105682 1.135773 0.002999
v -0.105682 1.135773 0.014143
v -0.110911 1.094003 -0.010714
v -0.615813 1.094003 -0.010714
v -0.110910 0.118411 -0.010714
v -0.615813 0.118411 -0.010714
v -0.161170 0.118411 -0.010714
v -0.161170 1.094003 -0.010714
v -0.573950 1.094003 -0.010714
v -0.573950 -0.000002 -0.010714
v -0.573949 0.118411 -0.010714
v -2.376823 2.095898 0.075072
v -2.376823 2.095898 0.102492
v -2.376823 2.221224 0.075072
v -2.376823 2.221224 0.102492
v 2.302127 2.095898 0.075072
v 2.302127 2.095898 0.102492
v 2.302127 2.221224 0.075072
v 2.302127 2.221224 0.102492
v -2.334947 2.179371 0.075072
v -2.334947 2.179371 0.102492
v 2.260251 2.179371 0.075072
v 2.260251 2.179371 0.102492
vn -0.0000 0.0003 1.0000
vn 0.3015 -0.3012 0.9046
vn -0.3015 -0.3012 0.9046
vn -0.0000 -0.1016 0.9948
vn -0.7071 -0.7071 -0.0000
vn -0.5774 -0.5774 0.5774
vn -0.5774 0.5774 0.5774
vn -0.7071 0.7071 -0.0000
vn 0.5774 0.5774 0.5774
vn 0.7071 0.7071 -0.0000
vn 0.5774 -0.5774 0.5774
vn 0.7071 -0.7071 -0.0000
vn -0.0000 -0.0000 1.0000
vn -1.0000 -0.0000 -0.0000
vn -0.7071 -0.0000 0.7071
vn 0.3027 0.3016 0.9041
vn -0.0000 0.7071 0.7071
vn -0.3003 0.3014 0.9050
vn 1.0000 -0.0000 -0.0000
vn 0.7071 -0.0000 0.7071
vn -0.9055 0.0888 -0.4149
vn -0.6842 -0.0768 0.7253
vn -0.0000 -0.1018 0.9948
vn 0.6842 -0.0768 0.7253
vn 0.9055 0.0888 -0.4149
vn -0.5671 -0.5179 -0.6405
vn -0.5893 -0.6283 0.5080
vn 0.5671 -0.5179 -0.6405
vn 0.5893 -0.6283 0.5080
vn -0.4991 -0.8666 -0.0000
vn -0.3954 -0.6866 0.6101
vn -0.7945 0.0145 0.6071
vn -0.9361 0.0170 -0.3513
vn 0.7945 0.0145 0.6071
vn 0.3819 0.6918 0.6128
vn -0.3819 0.6918 0.6128
vn 0.9361 0.0170 -0.3513
vn 0.3954 -0.6866 0.6101
vn 0.4991 -0.8666 -0.0000
vn -0.3819 0.6918 -0.6128
vn 0.3819 0.6918 -0.6128
vn 0.9385 0.0288 -0.3440
vn 0.9289 0.0145 -0.3700
vn 0.7093 0.0104 -0.7048
vn 0.7376 0.0224 -0.6749
vn 0.9385 0.0288 0.3440
vn 0.9289 0.0145 0.3700
vn 0.9999 0.0160 -0.0000
vn 0.9995 0.0308 -0.0000
vn -0.0000 1.0000 -0.0000
vn -0.0000 0.9135 -0.4067
vn 0.6507 -0.3257 0.6859
vn 0.7607 -0.0156 0.6489
vn 0.9469 -0.0195 0.3210
vn 0.8387 -0.4213 0.3451
vn 0.9136 -0.0000 0.4067
vn -0.0000 0.6691 -0.7432
vn 0.6691 -0.0000 0.7431
vn -0.0000 0.3090 -0.9511
vn 0.3661 0.0107 -0.9305
vn 0.3419 0.0046 -0.9397
vn -0.1146 -0.0010 -0.9934
vn -0.1253 -0.0039 -0.9921
vn 0.3090 -0.0000 0.9511
vn -0.0000 -0.1045 -0.9945
vn -0.5402 -0.0048 -0.8415
vn -0.5705 -0.0157 -0.8212
vn -0.1045 -0.0000 0.9945
vn -0.0000 -0.5000 -0.8660
vn -0.8377 -0.0064 -0.5461
vn -0.8560 -0.0221 -0.5165
vn -0.5000 -0.0000 0.8660
vn -0.0000 -0.8090 -0.5878
vn -0.9823 -0.0069 -0.1871
vn -0.9845 -0.0245 -0.1738
vn -0.8090 -0.0000 0.5878
vn -0.0000 -0.9781 -0.2079
vn -0.9823 -0.0069 0.1871
vn -0.9845 -0.0245 0.1738
vn -0.9782 -0.0000 0.2079
vn -0.0000 -0.9781 0.2079
vn -0.8377 -0.0064 0.5461
vn -0.8560 -0.0221 0.5165
vn -0.9782 -0.0000 -0.2079
vn -0.0000 -0.8090 0.5878
vn -0.5402 -0.0048 0.8415
vn -0.5705 -0.0157 0.8212
vn -0.8090 -0.0000 -0.5878
vn -0.0000 -0.5000 0.8660
vn -0.1146 -0.0010 0.9934
vn -0.1253 -0.0039 0.9921
vn -0.5000 -0.0000 -0.8660
vn -0.0000 -0.1045 0.9945
vn 0.3419 0.0046 0.9397
vn 0.3661 0.0107 0.9305
vn -0.1045 -0.0000 -0.9945
vn -0.0000 0.3090 0.9511
vn 0.7093 0.0104 0.7048
vn 0.7376 0.0224 0.6749
vn 0.3090 -0.0000 -0.9511
vn -0.0000 0.6691 0.7432
vn 0.9136 -0.0000 -0.4067
vn 0.6691 -0.0000 -0.7431
vn -0.0000 0.9135 0.4067
vn 0.6507 -0.3257 -0.6859
vn 0.7607 -0.0156 -0.6489
vn 0.3821 -0.0077 -0.9241
vn 0.2926 -0.1404 -0.9459
vn 0.2926 -0.1404 0.9459
vn 0.3821 -0.0077 0.9241
vn -0.1674 0.0929 0.9815
vn -0.1468 0.0031 0.9892
vn -0.5555 0.2780 0.7837
vn -0.6097 0.0123 0.7926
vn -0.7881 0.3852 0.4802
vn -0.8777 0.0175 0.4790
vn -0.8881 0.4312 0.1594
vn -0.9873 0.0196 0.1574
vn -0.8881 0.4312 -0.1594
vn -0.9873 0.0196 -0.1574
vn -0.7881 0.3852 -0.4802
vn -0.8777 0.0175 -0.4790
vn -0.5555 0.2780 -0.7837
vn -0.6097 0.0123 -0.7926
vn -0.1674 0.0929 -0.9815
vn -0.1468 0.0031 -0.9892
vn 0.8937 -0.4487 -0.0000
vn 0.9998 -0.0205 -0.0000
vn 0.9469 -0.0195 -0.3210
vn 0.8387 -0.4213 -0.3451
vn 0.5389 -0.7749 -0.3304
vn 0.4307 -0.6138 -0.6616
vn 0.5389 -0.7748 0.3304
vn 0.5699 -0.8217 -0.0000
vn 0.2132 -0.2991 -0.9301
vn -0.0880 0.1257 -0.9882
vn -0.3528 0.4945 -0.7943
vn -0.5086 0.7122 -0.4838
vn -0.5735 0.8035 -0.1598
vn -0.5735 0.8035 0.1598
vn -0.5086 0.7122 0.4838
vn -0.3528 0.4945 0.7943
vn -0.0880 0.1257 0.9882
vn 0.2132 -0.2991 0.9301
vn 0.4307 -0.6138 0.6616
vn 0.3294 -0.6302 0.7031
vn 0.4303 -0.8283 0.3589
vn 0.3294 -0.6302 -0.7031
vn 0.1409 -0.2679 -0.9531
vn 0.1409 -0.2679 0.9531
vn -0.0983 0.1835 0.9781
vn -0.2986 0.5550 0.7764
vn -0.4186 0.7740 0.4751
vn -0.4708 0.8680 0.1578
vn -0.4708 0.8680 -0.1578
vn -0.4186 0.7740 -0.4751
vn -0.2986 0.5550 -0.7764
vn -0.0983 0.1835 -0.9781
vn 0.4603 -0.8878 0.0001
vn 0.4303 -0.8283 -0.3588
vn -0.1927 0.8901 0.4131
vn 0.6541 -0.0149 0.7562
vn 0.8493 0.0834 0.5213
vn -0.0112 0.9784 0.2063
vn 0.9700 0.0915 0.2254
vn 0.1026 0.9929 -0.0604
vn 0.9966 0.0089 -0.0821
vn 0.1287 0.9297 -0.3452
vn 0.9246 -0.1506 -0.3499
vn 0.0595 0.7970 -0.6010
vn 0.7656 -0.3604 -0.5329
vn -0.0968 0.6155 -0.7822
vn 0.5458 -0.5857 -0.5993
vn -0.3148 0.4161 -0.8531
vn 0.3021 -0.7881 -0.5364
vn -0.5557 0.2350 -0.7975
vn 0.0766 -0.9324 -0.3531
vn -0.7743 0.1064 -0.6238
vn -0.0911 -0.9926 -0.0799
vn -0.9297 0.0542 -0.3644
vn 0.7470 0.3297 0.5774
vn -0.3297 0.7470 0.5774
vn -0.7470 -0.3297 0.5773
vn 0.3297 -0.7470 0.5774
vn -0.1703 -0.9567 0.2361
vn -0.9938 0.0875 -0.0685
vn 0.4038 -0.9148 -0.0000
vn -0.9148 -0.4038 -0.0000
vn -0.1461 -0.8300 0.5383
vn -0.9575 0.1983 0.2094
vn 0.9148 0.4038 -0.0000
vn -0.0228 -0.6351 0.7721
vn -0.8305 0.3650 0.4207
vn -0.4038 0.9148 -0.0000
vn 0.1769 -0.4075 0.8959
vn -0.6378 0.5571 0.5319
vn 0.4166 -0.1881 0.8894
vn -0.4130 0.7420 0.5281
vn 0.3288 0.8969 0.2957
vn 0.2002 0.5888 0.7831
vn 0.5379 0.3196 0.7801
vn 0.8069 0.5118 0.2949
vn 0.0071 0.6004 0.7997
vn 0.0012 0.0006 1.0000
vn 0.0076 0.0647 0.9979
vn -0.6437 -0.0000 0.7653
vn -0.6437 -0.4498 0.6191
vn 0.0024 -0.6006 0.7995
vn -0.1716 -0.5113 0.8421
vn -0.4567 -0.2621 0.8501
vn 0.0730 0.0244 0.9970
vn 0.0024 -0.6006 -0.7995
vn 0.0012 0.0006 -1.0000
vn 0.0076 0.0647 -0.9979
vn -0.1716 -0.5113 -0.8421
vn -0.6437 -0.7278 0.2365
vn 0.0068 -0.9541 0.2994
vn 0.0071 0.6004 -0.7997
vn 0.0135 0.9538 -0.3003
vn 0.3288 0.8969 -0.2957
vn 0.2002 0.5888 -0.7831
vn -0.6437 -0.7278 -0.2365
vn 0.0068 -0.9541 -0.2994
vn 0.5379 0.3196 -0.7801
vn 0.0730 0.0244 -0.9970
vn 0.0135 0.9538 0.3003
vn -0.6437 -0.4498 -0.6191
vn -0.2828 -0.9000 -0.3317
vn -0.4567 -0.2621 -0.8501
vn -0.8277 -0.4472 -0.3391
vn -0.2828 -0.9000 0.3317
vn -0.6437 -0.0000 -0.7653
vn -0.8277 -0.4472 0.3391
vn -0.6437 0.4498 -0.6191
vn 0.8069 0.5118 -0.2949
vn -0.6437 0.7278 -0.2365
vn -0.5848 0.0178 0.8110
vn 0.0359 0.0011 0.9994
vn -0.6437 0.7278 0.2365
vn -0.6437 0.4498 0.6191
vn -0.9521 0.0375 -0.3034
vn -0.5848 0.0178 -0.8110
vn -0.5626 0.1836 -0.8061
vn -0.9104 0.2832 -0.3015
vn 0.9576 -0.0067 -0.2881
vn 0.6261 -0.0048 -0.7797
vn 0.6261 -0.0048 0.7797
vn -0.9521 0.0375 0.3034
vn 0.0359 0.0011 -0.9994
vn 0.9576 -0.0067 0.2881
vn 0.5168 -0.4035 -0.7551
vn 0.7553 -0.5984 -0.2673
vn 0.3645 -0.8873 -0.2827
vn 0.2748 -0.5850 -0.7631
vn 0.8996 -0.3277 -0.2886
vn 0.5869 -0.2069 -0.7828
vn 0.0245 -0.0050 0.9997
vn 0.5869 -0.2069 0.7828
vn -0.9104 0.2832 0.3015
vn 0.0245 -0.0050 -0.9997
vn 0.8996 -0.3277 0.2886
vn -0.5626 0.1836 0.8061
vn 0.2748 -0.5850 0.7631
vn 0.0623 -0.0576 0.9964
vn -0.6426 0.0054 0.7662
vn -0.6313 -0.4530 0.6295
vn 0.5167 -0.4035 0.7551
vn 0.0325 -0.0216 0.9992
vn -0.7886 0.5461 0.2827
vn -0.7886 0.5461 -0.2827
vn -0.4278 0.8502 -0.3068
vn -0.4278 0.8502 0.3068
vn 0.0325 -0.0216 -0.9992
vn 0.0623 -0.0576 -0.9964
vn 0.7553 -0.5984 0.2673
vn 0.3645 -0.8873 0.2827
vn -0.4970 0.3596 0.7897
vn -0.2409 0.5138 0.8234
vn -0.4970 0.3596 -0.7897
vn -0.2409 0.5138 -0.8234
vn -0.6549 0.4484 0.6083
vn -0.6630 0.7127 0.2292
vn -0.6630 0.7127 -0.2292
vn -0.6549 0.4484 -0.6083
vn -0.6426 0.0054 -0.7662
vn -0.6313 -0.4530 -0.6295
vn -0.6249 -0.7421 -0.2424
vn -0.6249 -0.7421 0.2424
vn -0.4256 0.8592 0.2839
vn -0.2821 0.5770 0.7665
vn 0.2304 0.6284 0.7430
vn 0.2955 0.9174 0.2667
vn -0.5913 0.2290 0.7732
vn -0.0644 0.0526 0.9965
vn -0.0314 0.0730 0.9968
vn 0.5878 -0.0000 0.8090
vn 0.4941 -0.2111 0.8434
vn 0.2165 -0.5050 0.8355
vn -0.1713 -0.5777 0.7981
vn 0.0534 0.0664 0.9964
vn 0.4941 -0.2111 -0.8434
vn -0.0644 0.0526 -0.9965
vn -0.0314 0.0730 -0.9968
vn 0.2165 -0.5050 -0.8355
vn 0.9511 -0.0000 0.3090
vn 0.8489 -0.4127 0.3302
vn -0.2821 0.5770 -0.7665
vn 0.2304 0.6284 -0.7430
vn 0.0534 0.0664 -0.9964
vn -0.5913 0.2290 -0.7732
vn -0.9068 0.3058 -0.2902
vn -0.4256 0.8592 -0.2839
vn 0.9511 -0.0000 -0.3090
vn 0.8489 -0.4127 -0.3302
vn -0.9068 0.3058 0.2902
vn 0.5878 -0.0000 -0.8090
vn 0.3380 -0.8860 -0.3174
vn -0.1713 -0.5777 -0.7981
vn -0.2471 -0.9279 -0.2793
vn 0.3380 -0.8860 0.3174
vn -0.0000 -0.0000 -1.0000
vn -0.2471 -0.9279 0.2793
vn -0.5878 -0.0000 -0.8090
vn 0.2955 0.9174 -0.2667
vn -0.9511 -0.0000 -0.3090
vn -0.4594 -0.2708 0.8460
vn 0.0788 0.0949 0.9924
vn -0.9511 -0.0000 0.3090
vn -0.5878 -0.0000 0.8090
vn -0.7870 -0.5221 -0.3288
vn -0.4594 -0.2708 -0.8460
vn -0.5881 0.0080 -0.8087
vn -0.9510 0.0129 -0.3088
vn 0.8772 0.3890 -0.2814
vn 0.5788 0.3098 -0.7543
vn 0.5788 0.3098 0.7543
vn -0.7870 -0.5221 0.3288
vn 0.0788 0.0949 -0.9924
vn 0.8772 0.3890 0.2814
vn 0.9510 -0.0129 -0.3090
vn 0.5876 -0.0080 -0.8091
vn -0.0004 -0.0000 1.0000
vn 0.5876 -0.0080 0.8091
vn -0.9510 0.0129 0.3088
vn -0.0004 -0.0000 -1.0000
vn 0.9510 -0.0129 0.3090
vn -0.5881 0.0080 0.8087
vn 0.5783 0.5762 0.5775
vn -0.5764 0.5785 0.5772
vn -0.9872 -0.1597 -0.0000
vn -0.4952 -0.0801 0.8651
vn -0.7735 0.3203 0.5469
vn -0.9239 0.3826 -0.0000
vn 0.7735 0.3203 0.5469
vn 0.9239 0.3826 -0.0000
vn 0.9872 -0.1597 -0.0000
vn 0.4952 -0.0801 0.8651
vn 0.7069 -0.4362 0.5568
vn 0.8510 -0.5252 -0.0000
vn -0.7069 -0.4362 0.5568
vn -0.8510 -0.5252 -0.0000
vt 0.000000 0.000100
vt 0.999966 0.000100
vt 0.000000 0.999464
vt 0.999966 0.999464
vt 0.028095 0.656797
vt 0.028095 0.676181
vt 0.028095 0.656797
vt 0.028095 0.907716
vt 0.028095 0.885563
vt 0.028095 0.907716
vt 0.956931 0.656797
vt 0.956931 0.676181
vt 0.956931 0.656797
vt 0.956931 0.907716
vt 0.956931 0.885563
vt 0.956931 0.907716
vt 0.000000 0.650196
vt 0.999966 0.650196
vt 0.477799 0.650196
vt 0.477799 0.000100
vt 0.376809 0.650196
vt 0.376809 0.000100
vt 0.055260 0.650196
vt 0.055261 0.000100
vt 0.360883 0.650196
vt 0.360883 0.000100
vt 0.940248 0.000100
vt 0.940248 0.650196
vt 0.564817 0.000100
vt 0.564817 0.650196
vt 0.940248 0.020440
vt 0.564817 0.023513
vt 0.497851 0.001019
vt 0.480625 0.001019
vt 0.497851 1.000000
vt 0.480625 1.000000
vt 0.509977 0.001019
vt 0.562884 0.001019
vt 0.509977 1.000000
vt 0.562884 1.000000
vt 0.000000 0.923681
vt 0.999966 0.923681
vt 0.000000 0.744861
vt 0.999966 0.744861
vt 0.001280 0.914887
vt 0.014814 0.914887
vt 0.001280 0.914887
vt 0.014814 0.914887
vt 0.014814 0.999662
vt 0.001280 0.999662
vt 0.014814 0.999662
vt 0.019869 0.914887
vt 0.019869 0.914887
vt 0.000798 0.914887
vt 0.019869 0.999662
vt 0.000798 0.999662
vt 0.019869 0.999662
vt 0.001280 0.873985
vt 0.014814 0.873985
vt 0.014814 0.873985
vt 0.019869 0.873985
vt 0.000798 0.873985
vt 0.019869 0.873985
vt 0.989861 0.914887
vt 0.961541 0.914887
vt 0.989861 0.914887
vt 0.961541 0.914887
vt 0.961541 0.999662
vt 0.989861 0.999662
vt 0.961541 0.999662
vt 0.966596 0.914887
vt 0.966596 0.914887
vt 0.993939 0.914887
vt 0.966596 0.999662
vt 0.993939 0.999662
vt 0.966596 0.999662
vt 0.989861 0.873985
vt 0.961541 0.873985
vt 0.961541 0.873985
vt 0.966596 0.873985
vt 0.993939 0.873985
vt 0.966596 0.873985
vt 0.503424 0.919969
vt 0.508034 0.937227
vt 0.503424 0.919969
vt 0.496849 0.945458
vt 0.496849 0.945458
vt 0.504379 0.950290
vt 0.530262 0.919969
vt 0.524786 0.937842
vt 0.530262 0.919969
vt 0.536838 0.945458
vt 0.536838 0.945458
vt 0.528758 0.954940
vt 0.510700 0.994909
vt 0.510932 0.982028
vt 0.510700 0.994909
vt 0.522987 0.994909
vt 0.522987 0.994909
vt 0.519864 0.983267
vt 0.968996 0.650222
vt 0.968996 0.650222
vt 0.968996 0.737502
vt 0.968996 0.737502
vt 0.981472 0.650222
vt 0.981472 0.650222
vt 0.981472 0.737502
vt 0.981472 0.737502
vt 0.988402 0.000097
vt 0.988402 0.413913
vt 0.956322 0.680734
vt 0.999960 0.680734
vt 0.956322 0.680411
vt 0.999960 0.680411
vt 0.956322 0.679499
vt 0.999960 0.679499
vt 0.956322 0.678155
vt 0.999960 0.678155
vt 0.956322 0.676612
vt 0.999960 0.676612
vt 0.956322 0.675136
vt 0.999960 0.675136
vt 0.956322 0.673982
vt 0.999960 0.673982
vt 0.956322 0.673351
vt 0.999960 0.673351
vt 0.956322 0.673351
vt 0.999960 0.673351
vt 0.956322 0.673982
vt 0.999960 0.673982
vt 0.956322 0.675136
vt 0.999960 0.675136
vt 0.956322 0.676612
vt 0.999960 0.676612
vt 0.956322 0.678155
vt 0.999960 0.678155
vt 0.956322 0.679499
vt 0.999960 0.679499
vt 0.956322 0.680411
vt 0.999960 0.680411
vt 0.988052 0.413913
vt 0.988052 0.000097
vt 0.987065 0.413913
vt 0.987065 0.000097
vt 0.985611 0.413913
vt 0.985611 0.000097
vt 0.983941 0.413913
vt 0.983941 0.000097
vt 0.982343 0.413913
vt 0.982343 0.000097
vt 0.981095 0.413913
vt 0.981095 0.000097
vt 0.980412 0.413913
vt 0.980412 0.000097
vt 0.980412 0.413913
vt 0.980412 0.000097
vt 0.981095 0.413913
vt 0.981095 0.000097
vt 0.982343 0.413913
vt 0.982343 0.000097
vt 0.983941 0.413913
vt 0.983941 0.000097
vt 0.985611 0.413913
vt 0.985611 0.000097
vt 0.987065 0.413913
vt 0.987065 0.000097
vt 0.988052 0.413913
vt 0.988052 0.000097
vt 0.984692 0.413367
vt 0.999994 0.661706
vt 0.999994 0.661820
vt 0.984641 0.413367
vt 0.999995 0.662142
vt 0.984498 0.413367
vt 0.999996 0.662616
vt 0.984288 0.413367
vt 0.999997 0.663160
vt 0.984046 0.413367
vt 0.999999 0.663681
vt 0.983814 0.413367
vt 1.000000 0.664087
vt 0.983633 0.413367
vt 1.000000 0.664310
vt 0.983534 0.413367
vt 1.000000 0.664310
vt 0.983534 0.413367
vt 1.000000 0.664087
vt 0.983633 0.413367
vt 0.999999 0.663681
vt 0.983814 0.413367
vt 0.999997 0.663160
vt 0.984046 0.413367
vt 0.999996 0.662616
vt 0.984288 0.413367
vt 0.999995 0.662142
vt 0.984498 0.413367
vt 0.999994 0.661820
vt 0.984641 0.413367
vt 0.981349 0.582897
vt 0.981640 0.582893
vt 0.981279 0.582898
vt 0.981811 0.582891
vt 0.981279 0.582898
vt 0.981959 0.582889
vt 0.981349 0.582897
vt 0.982060 0.582888
vt 0.982096 0.582887
vt 0.981477 0.582895
vt 0.981477 0.582895
vt 0.981640 0.582893
vt 0.981811 0.582891
vt 0.981959 0.582889
vt 0.982060 0.582888
vt 0.983376 0.637525
vt 0.983684 0.637290
vt 0.983302 0.637581
vt 0.983865 0.637152
vt 0.983302 0.637581
vt 0.984023 0.637032
vt 0.983376 0.637525
vt 0.984130 0.636951
vt 0.983511 0.637422
vt 0.983511 0.637422
vt 0.983684 0.637290
vt 0.983865 0.637152
vt 0.984023 0.637032
vt 0.984130 0.636951
vt 0.984168 0.636922
vt 0.984243 0.475908
vt 0.983424 0.475538
vt 0.983743 0.475682
vt 0.983347 0.475503
vt 0.983930 0.475767
vt 0.983347 0.475503
vt 0.984093 0.475840
vt 0.983424 0.475538
vt 0.984204 0.475890
vt 0.983563 0.475601
vt 0.983563 0.475601
vt 0.983743 0.475682
vt 0.983930 0.475767
vt 0.984093 0.475840
vt 0.984204 0.475890
vt 0.990947 0.653077
vt 0.991140 0.652559
vt 0.990901 0.653201
vt 0.991253 0.652255
vt 0.990901 0.653201
vt 0.991352 0.651990
vt 0.990947 0.653077
vt 0.991419 0.651810
vt 0.991032 0.652849
vt 0.991032 0.652849
vt 0.991140 0.652559
vt 0.991253 0.652255
vt 0.991352 0.651990
vt 0.991419 0.651810
vt 0.991442 0.651747
vt 0.005213 0.680734
vt 0.005213 0.680734
vt 0.005213 0.768013
vt 0.005213 0.768013
vt 0.017689 0.680734
vt 0.017689 0.680734
vt 0.017689 0.768013
vt 0.017689 0.768013
vt 0.010237 0.689885
vt 0.010237 0.689885
vt 0.010237 0.716928
vt 0.010237 0.716928
vt 0.022713 0.689885
vt 0.022713 0.689885
vt 0.022713 0.716928
vt 0.022713 0.716928
vt 0.008815 0.742256
vt 0.008815 0.742256
vt 0.008815 0.769299
vt 0.008815 0.769299
vt 0.021291 0.742256
vt 0.021291 0.742256
vt 0.021291 0.769299
vt 0.021291 0.769299
vt 0.032254 0.612100
vt 0.032254 0.612100
vt 0.032970 0.633623
vt 0.044511 0.607906
vt 0.034410 0.635234
vt 0.046289 0.610077
vt 0.035261 0.635573
vt 0.047381 0.610328
vt 0.035375 0.634580
vt 0.047597 0.608617
vt 0.034732 0.632428
vt 0.046899 0.605239
vt 0.033443 0.629488
vt 0.045408 0.600778
vt 0.031732 0.626269
vt 0.043383 0.596007
vt 0.029895 0.623327
vt 0.041173 0.591748
vt 0.028248 0.621172
vt 0.039160 0.588740
vt 0.027077 0.620175
vt 0.037693 0.587502
vt 0.026584 0.620510
vt 0.037024 0.588249
vt 0.026854 0.622117
vt 0.037271 0.590850
vt 0.027841 0.624720
vt 0.038389 0.594857
vt 0.029375 0.627868
vt 0.040187 0.599576
vt 0.031189 0.631017
vt 0.042352 0.604192
vt 0.040757 0.661454
vt 0.040757 0.661454
vt 0.039309 0.605951
vt 0.039309 0.605951
vt 0.047813 0.655306
vt 0.047813 0.655306
vt 0.391177 0.329766
vt 0.391691 0.331626
vt 0.381713 0.331819
vt 0.378401 0.331819
vt 0.381713 0.329629
vt 0.378401 0.329629
vt 0.381713 0.328276
vt 0.378401 0.328276
vt 0.381713 0.328276
vt 0.378401 0.328276
vt 0.381713 0.329629
vt 0.378401 0.329629
vt 0.381713 0.331819
vt 0.378401 0.331819
vt 0.381713 0.334008
vt 0.378401 0.334008
vt 0.381713 0.335361
vt 0.378401 0.335361
vt 0.381713 0.335361
vt 0.378401 0.335361
vt 0.381713 0.334008
vt 0.378401 0.334008
vt 0.390860 0.328617
vt 0.390860 0.328617
vt 0.391177 0.329766
vt 0.391691 0.331626
vt 0.392205 0.333485
vt 0.392522 0.334635
vt 0.392522 0.334635
vt 0.392205 0.333485
vt 0.403699 0.313699
vt 0.402998 0.312181
vt 0.404133 0.314636
vt 0.404133 0.314636
vt 0.403699 0.313699
vt 0.402998 0.312181
vt 0.402297 0.310663
vt 0.401863 0.309725
vt 0.401863 0.309725
vt 0.402297 0.310663
vt 0.404936 0.298457
vt 0.403962 0.298491
vt 0.405537 0.298435
vt 0.405537 0.298435
vt 0.404936 0.298457
vt 0.403962 0.298491
vt 0.402989 0.298525
vt 0.402388 0.298547
vt 0.402388 0.298547
vt 0.402989 0.298525
vt 0.403363 0.281255
vt 0.402523 0.282361
vt 0.403882 0.280572
vt 0.403882 0.280572
vt 0.403363 0.281255
vt 0.402523 0.282361
vt 0.401683 0.283468
vt 0.401164 0.284151
vt 0.401164 0.284151
vt 0.401683 0.283468
vt 0.392294 0.249531
vt 0.392333 0.251718
vt 0.392270 0.248179
vt 0.392270 0.248179
vt 0.392294 0.249531
vt 0.392333 0.251718
vt 0.392372 0.253906
vt 0.392396 0.255257
vt 0.392396 0.255257
vt 0.392372 0.253906
vt 0.378771 0.246618
vt 0.378810 0.248805
vt 0.378747 0.245266
vt 0.378747 0.245266
vt 0.378771 0.246618
vt 0.378810 0.248805
vt 0.378849 0.250993
vt 0.378874 0.252345
vt 0.378874 0.252345
vt 0.378849 0.250993
vt 0.399755 0.263024
vt 0.399389 0.263842
vt 0.398797 0.265165
vt 0.399389 0.263842
vt 0.397840 0.267307
vt 0.397840 0.267307
vt 0.398797 0.265165
vt 0.399755 0.263024
vt 0.398205 0.266489
vt 0.398205 0.266489
vt 0.261096 0.163593
vt 0.260395 0.166435
vt 0.256099 0.155774
vt 0.256099 0.000518
vt 0.257544 0.155774
vt 0.257544 0.000518
vt 0.258438 0.155774
vt 0.258438 0.000518
vt 0.258438 0.155774
vt 0.258438 0.000518
vt 0.257544 0.155774
vt 0.257544 0.000518
vt 0.256099 0.155774
vt 0.256099 0.000518
vt 0.254654 0.155774
vt 0.254654 0.000518
vt 0.253761 0.155774
vt 0.253761 0.000518
vt 0.253761 0.155774
vt 0.253761 0.000518
vt 0.254654 0.155774
vt 0.254654 0.000518
vt 0.261530 0.161837
vt 0.261530 0.161837
vt 0.261096 0.163593
vt 0.260395 0.166435
vt 0.259694 0.169277
vt 0.259261 0.171034
vt 0.259261 0.171034
vt 0.259694 0.169277
vt 0.300375 0.170886
vt 0.300384 0.167635
vt 0.300369 0.172894
vt 0.300369 0.172894
vt 0.300375 0.170886
vt 0.300384 0.167635
vt 0.300394 0.164385
vt 0.300400 0.162376
vt 0.300400 0.162376
vt 0.300394 0.164385
vt 0.306843 0.159553
vt 0.305398 0.159466
vt 0.307736 0.159607
vt 0.307736 0.159607
vt 0.306843 0.159553
vt 0.305398 0.159466
vt 0.303954 0.159379
vt 0.303061 0.159325
vt 0.303061 0.159325
vt 0.303954 0.159379
vt 0.305881 0.000023
vt 0.304436 0.000061
vt 0.306775 0.000000
vt 0.306775 0.000000
vt 0.305881 0.000023
vt 0.304436 0.000061
vt 0.302991 0.000098
vt 0.302098 0.000121
vt 0.302098 0.000121
vt 0.302991 0.000098
vt 0.256607 0.008352
vt 0.304039 0.008352
vt 0.256607 0.163337
vt 0.304039 0.163337
vt 0.746453 0.650196
vt 0.746453 0.022017
vt 0.751888 0.650196
vt 0.751888 0.021973
vt 0.376809 0.000100
vt 0.477799 0.000100
vt 0.477799 0.650196
vt 0.376809 0.650196
vt 0.360883 0.650196
vt 0.055260 0.650196
vt 0.055261 0.000100
vt 0.360883 0.000100
vt 0.746453 0.650196
vt 0.564817 0.650196
vt 0.940248 0.650196
vt 0.940248 0.020440
vt 0.564817 0.023513
vt 0.751888 0.021973
vt 0.746453 0.022017
vt 0.751888 0.650196
vt 0.374820 0.526184
vt 0.374820 0.526184
vt 0.478845 0.526184
vt 0.478845 0.526184
vt 0.374820 0.511041
vt 0.374820 0.511041
vt 0.478845 0.511041
vt 0.478845 0.511041
vt 0.477799 0.492251
vt 0.376809 0.492251
vt 0.477799 0.053369
vt 0.376809 0.053369
vt 0.467746 0.053369
vt 0.467746 0.492251
vt 0.385183 0.492251
vt 0.385183 0.000100
vt 0.385183 0.053369
vt 0.024575 0.942965
vt 0.024575 0.926482
vt 0.024575 0.942965
vt 0.024575 0.999344
vt 0.024575 0.979564
vt 0.024575 0.999344
vt 0.960450 0.942965
vt 0.952150 0.942965
vt 0.960450 0.926482
vt 0.960450 0.942965
vt 0.960450 0.999344
vt 0.960450 0.979564
vt 0.960450 0.999344
vt 0.032951 0.980516
vt 0.032951 0.980516
vt 0.952074 0.980516
vt 0.943774 0.980516
vt 0.952074 0.980516
s 1
usemtl shop_front9
f 13/17/1 19/23/2 21/25/3 17/21/2 15/19/3 26/30/2 451/475/3 453/477/2 24/28/3 14/18/1 40/44/4 39/43/4
f 5/5/5 6/7/6 8/10/7 7/8/8
f 7/8/8 8/9/7 12/15/9 11/14/10
f 11/14/10 12/16/9 10/13/11 9/11/12
f 9/11/12 10/12/11 6/6/6 5/5/5
f 1/1/13 20/24/9 19/23/2 13/17/1
f 12/16/9 8/10/7 6/7/6 10/13/11
f 29/33/14 30/34/15 32/36/15 31/35/14
f 15/19/3 16/20/7 25/29/13 28/32/16 26/30/2
f 451/475/3 26/30/2 464/488/11 463/487/6
f 18/22/9 16/20/7 456/480/7 486/510/17 455/479/9
f 21/25/3 22/26/7 18/22/9 17/21/2
f 24/28/3 27/31/18 23/27/13 2/2/13 14/18/1
f 19/23/2 20/24/9 461/485/9 460/484/11
f 27/31/18 454/478/16 452/476/18 28/32/16 25/29/13 23/27/13
f 35/39/19 36/40/20 34/38/20 33/37/19
f 36/40/20 32/36/15 30/34/15 34/38/20
f 41/45/21 42/47/22 44/50/7 43/49/8
f 37/41/23 38/42/23 4/4/13 3/3/13
f 39/43/4 40/44/4 38/42/23 37/41/23
f 43/49/8 44/51/7 48/57/9 47/55/10
f 47/55/10 48/56/9 46/54/24 45/52/25
f 42/47/22 41/45/21 49/58/26 50/60/27
f 52/63/28 51/61/29 50/60/27 49/59/26
f 48/57/9 44/51/7 42/48/22 46/53/24
f 41/46/21 45/52/25 52/63/28 49/59/26
f 46/53/24 42/48/22 50/60/27 51/61/29
f 45/52/25 46/54/24 51/62/29 52/63/28
f 53/64/21 54/66/22 56/69/7 55/68/8
f 55/68/8 56/70/7 60/76/9 59/74/10
f 59/74/10 60/75/9 58/73/24 57/71/25
f 54/66/22 53/64/21 61/77/26 62/79/27
f 64/82/28 63/80/29 62/79/27 61/78/26
f 60/76/9 56/70/7 54/67/22 58/72/24
f 53/65/21 57/71/25 64/82/28 61/78/26
f 58/72/24 54/67/22 62/79/27 63/80/29
f 57/71/25 58/73/24 63/81/29 64/82/28
f 65/83/30 66/84/31 68/88/32 67/86/33
f 68/87/32 72/93/34 76/99/35 73/95/36
f 71/92/37 72/94/34 70/90/38 69/89/39
f 69/89/39 70/90/38 66/84/31 65/83/30
f 74/97/40 73/96/36 76/100/35 75/98/41
f 72/93/34 68/87/32 66/85/31 70/91/38
f 67/86/33 68/88/32 73/96/36 74/97/40
f 72/94/34 71/92/37 75/98/41 76/100/35
f 71/92/37 67/86/33 74/97/40 75/98/41
f 77/101/5 78/102/6 80/104/7 79/103/8
f 79/103/8 80/104/7 84/108/9 83/107/10
f 83/107/10 84/108/9 82/106/11 81/105/12
f 81/105/12 82/106/11 78/102/6 77/101/5
f 84/108/9 80/104/7 78/102/6 82/106/11
f 213/237/42 148/172/43 150/174/44 211/235/45
f 219/243/46 174/198/47 145/169/48 205/229/49
f 87/111/50 88/112/50 90/114/51 89/113/51
f 202/226/52 188/212/53 189/213/54 203/227/55
f 143/167/56 144/168/56 85/109/19 86/110/19
f 89/113/51 90/114/51 92/116/57 91/115/57
f 205/229/49 145/169/48 148/172/43 213/237/42
f 141/165/58 142/166/58 144/168/56 143/167/56
f 91/115/57 92/116/57 94/118/59 93/117/59
f 209/233/60 152/176/61 154/178/62 207/231/63
f 139/163/64 140/164/64 142/166/58 141/165/58
f 93/117/59 94/118/59 96/120/65 95/119/65
f 207/231/63 154/178/62 156/180/66 214/238/67
f 137/161/68 138/162/68 140/164/64 139/163/64
f 95/119/65 96/120/65 98/122/69 97/121/69
f 214/238/67 156/180/66 158/182/70 212/236/71
f 135/159/72 136/160/72 138/162/68 137/161/68
f 97/121/69 98/122/69 100/124/73 99/123/73
f 212/236/71 158/182/70 160/184/74 210/234/75
f 133/157/76 134/158/76 136/160/72 135/159/72
f 99/123/73 100/124/73 102/126/77 101/125/77
f 210/234/75 160/184/74 162/186/78 208/232/79
f 131/155/80 132/156/80 134/158/76 133/157/76
f 101/125/77 102/126/77 104/128/81 103/127/81
f 208/232/79 162/186/78 164/188/82 206/230/83
f 129/153/84 130/154/84 132/156/80 131/155/80
f 103/127/81 104/128/81 106/130/85 105/129/85
f 206/230/83 164/188/82 166/190/86 215/239/87
f 127/151/88 128/152/88 130/154/84 129/153/84
f 105/129/85 106/130/85 108/132/89 107/131/89
f 215/239/87 166/190/86 168/192/90 216/240/91
f 125/149/92 126/150/92 128/152/88 127/151/88
f 107/131/89 108/132/89 110/134/93 109/133/93
f 216/240/91 168/192/90 170/194/94 217/241/95
f 123/147/96 124/148/96 126/150/92 125/149/92
f 109/133/93 110/134/93 112/136/97 111/135/97
f 217/241/95 170/194/94 172/196/98 218/242/99
f 121/145/100 122/146/100 124/148/96 123/147/96
f 111/135/97 112/136/97 114/138/101 113/137/101
f 86/110/19 85/109/19 118/142/102 117/141/102
f 119/143/103 120/144/103 122/146/100 121/145/100
f 113/137/101 114/138/101 116/140/104 115/139/104
f 211/235/45 150/174/44 152/176/61 209/233/60
f 218/242/99 172/196/98 174/198/47 219/243/46
f 115/139/104 116/140/104 88/112/50 87/111/50
f 117/141/102 118/142/102 120/144/103 119/143/103
f 195/219/105 180/204/106 178/202/107 193/217/108
f 201/225/109 187/211/110 188/212/53 202/226/52
f 200/224/111 186/210/112 187/211/110 201/225/109
f 199/223/113 185/209/114 186/210/112 200/224/111
f 190/214/115 175/199/116 185/209/114 199/223/113
f 192/216/117 177/201/118 175/199/116 190/214/115
f 194/218/119 179/203/120 177/201/118 192/216/117
f 196/220/121 181/205/122 179/203/120 194/218/119
f 198/222/123 184/208/124 181/205/122 196/220/121
f 191/215/125 176/200/126 184/208/124 198/222/123
f 193/217/108 178/202/107 176/200/126 191/215/125
f 204/228/127 183/207/128 182/206/129 197/221/130
f 203/227/55 189/213/54 183/207/128 204/228/127
f 197/221/130 182/206/129 180/204/106 195/219/105
f 227/251/131 197/221/130 195/219/105 225/249/132
f 233/257/133 203/227/55 204/228/127 234/258/134
f 234/258/134 204/228/127 197/221/130 227/251/131
f 223/247/135 193/217/108 191/215/125 221/245/136
f 221/245/136 191/215/125 198/222/123 228/252/137
f 228/252/137 198/222/123 196/220/121 226/250/138
f 226/250/138 196/220/121 194/218/119 224/248/139
f 224/248/139 194/218/119 192/216/117 222/246/140
f 222/246/140 192/216/117 190/214/115 220/244/141
f 220/244/141 190/214/115 199/223/113 229/253/142
f 229/253/142 199/223/113 200/224/111 230/254/143
f 230/254/143 200/224/111 201/225/109 231/255/144
f 231/255/144 201/225/109 202/226/52 232/256/145
f 225/249/132 195/219/105 193/217/108 223/247/135
f 232/256/145 202/226/52 203/227/55 233/257/133
f 188/212/53 218/242/99 219/243/46 189/213/54
f 180/204/106 211/235/45 209/233/60 178/202/107
f 187/211/110 217/241/95 218/242/99 188/212/53
f 186/210/112 216/240/91 217/241/95 187/211/110
f 185/209/114 215/239/87 216/240/91 186/210/112
f 175/199/116 206/230/83 215/239/87 185/209/114
f 177/201/118 208/232/79 206/230/83 175/199/116
f 179/203/120 210/234/75 208/232/79 177/201/118
f 181/205/122 212/236/71 210/234/75 179/203/120
f 184/208/124 214/238/67 212/236/71 181/205/122
f 176/200/126 207/231/63 214/238/67 184/208/124
f 178/202/107 209/233/60 207/231/63 176/200/126
f 183/207/128 205/229/49 213/237/42 182/206/129
f 189/213/54 219/243/46 205/229/49 183/207/128
f 182/206/129 213/237/42 211/235/45 180/204/106
f 171/195/146 232/256/145 233/257/133 173/197/147
f 149/173/148 225/249/132 223/247/135 151/175/149
f 169/193/150 231/255/144 232/256/145 171/195/146
f 167/191/151 230/254/143 231/255/144 169/193/150
f 165/189/152 229/253/142 230/254/143 167/191/151
f 163/187/153 220/244/141 229/253/142 165/189/152
f 161/185/154 222/246/140 220/244/141 163/187/153
f 159/183/155 224/248/139 222/246/140 161/185/154
f 157/181/156 226/250/138 224/248/139 159/183/155
f 155/179/157 228/252/137 226/250/138 157/181/156
f 153/177/158 221/245/136 228/252/137 155/179/157
f 151/175/149 223/247/135 221/245/136 153/177/158
f 146/170/159 234/258/134 227/251/131 147/171/160
f 173/197/147 233/257/133 234/258/134 146/170/159
f 147/171/160 227/251/131 225/249/132 149/173/148
f 235/259/5 236/260/6 238/262/7 237/261/8
f 237/261/8 238/262/7 242/266/9 241/265/10
f 241/265/10 242/266/9 240/264/11 239/263/12
f 239/263/12 240/264/11 236/260/6 235/259/5
f 242/266/9 238/262/7 236/260/6 240/264/11
f 243/267/5 244/268/6 246/270/7 245/269/8
f 245/269/8 246/270/7 250/274/9 249/273/10
f 249/273/10 250/274/9 248/272/11 247/271/12
f 247/271/12 248/272/11 244/268/6 243/267/5
f 250/274/9 246/270/7 244/268/6 248/272/11
f 251/275/5 252/276/6 254/278/7 253/277/8
f 253/277/8 254/278/7 258/282/9 257/281/10
f 257/281/10 258/282/9 256/280/11 255/279/12
f 255/279/12 256/280/11 252/276/6 251/275/5
f 258/282/9 254/278/7 252/276/6 256/280/11
f 261/285/161 262/286/162 264/288/163 263/287/164
f 263/287/164 264/288/163 266/290/165 265/289/166
f 265/289/166 266/290/165 268/292/167 267/291/168
f 267/291/168 268/292/167 270/294/169 269/293/170
f 269/293/170 270/294/169 272/296/171 271/295/172
f 271/295/172 272/296/171 274/298/173 273/297/174
f 273/297/174 274/298/173 276/300/175 275/299/176
f 275/299/176 276/300/175 278/302/177 277/301/178
f 277/301/178 278/302/177 280/304/179 279/303/180
f 296/320/181 292/316/182 259/283/183 294/318/184
f 279/303/180 280/304/179 282/306/185 281/305/186
f 293/317/187 294/318/184 259/283/183 260/284/188
f 281/305/186 282/306/185 284/308/189 283/307/190
f 295/319/191 296/320/181 294/318/184 293/317/187
f 283/307/190 284/308/189 286/310/192 285/309/193
f 291/315/194 292/316/182 296/320/181 295/319/191
f 285/309/193 286/310/192 288/312/195 287/311/196
f 264/288/163 262/286/162 290/314/197 288/312/195 286/310/192 284/308/189 282/306/185 280/304/179 278/302/177 276/300/175 274/298/173 272/296/171 270/294/169 268/292/167 266/290/165
f 260/284/188 259/283/183 292/316/182 291/315/194
f 287/311/196 288/312/195 290/314/197 289/313/198
f 289/313/198 290/314/197 262/286/162 261/285/161
f 261/285/161 263/287/164 265/289/166 267/291/168 269/293/170 271/295/172 273/297/174 275/299/176 277/301/178 279/303/180 281/305/186 283/307/190 285/309/193 287/311/196 289/313/198
f 325/349/199 326/350/200 327/351/201 329/353/202
f 317/341/203 299/323/204 298/322/205 326/350/200
f 299/323/204 300/324/206 302/326/207 301/325/208
f 298/322/205 297/321/209 336/360/210 328/352/211
f 307/331/212 309/333/213 322/346/214 321/345/215
f 301/325/208 302/326/207 304/328/216 303/327/217
f 326/350/200 298/322/205 328/352/211 327/351/201
f 311/335/218 313/337/219 324/348/220 323/347/221
f 303/327/217 304/328/216 306/330/222 305/329/223
f 322/346/214 323/347/221 331/355/224 332/356/225
f 315/339/226 317/341/203 326/350/200 325/349/199
f 305/329/223 306/330/222 308/332/227 307/331/212
f 320/344/228 321/345/215 333/357/229 334/358/230
f 301/325/208 303/327/217 319/343/231 297/321/209
f 307/331/212 308/332/227 310/334/232 309/333/213
f 297/321/209 319/343/231 335/359/233 336/360/210
f 305/329/223 307/331/212 321/345/215 320/344/228
f 309/333/213 310/334/232 312/336/234 311/335/218
f 323/347/221 324/348/220 330/354/235 331/355/224
f 299/323/204 301/325/208 297/321/209 298/322/205
f 311/335/218 312/336/234 314/338/236 313/337/219
f 328/352/211 336/360/210 346/370/237 338/362/238
f 309/333/213 311/335/218 323/347/221 322/346/214
f 313/337/219 314/338/236 316/340/239 315/339/226
f 302/326/207 300/324/206 318/342/240 316/340/239 314/338/236 312/336/234 310/334/232 308/332/227 306/330/222 304/328/216
f 321/345/215 322/346/214 332/356/225 333/357/229
f 315/339/226 316/340/239 318/342/240 317/341/203
f 324/348/220 325/349/199 329/353/202 330/354/235
f 303/327/217 305/329/223 320/344/228 319/343/231
f 317/341/203 318/342/240 300/324/206 299/323/204
f 313/337/219 315/339/226 325/349/199 324/348/220
f 319/343/231 320/344/228 334/358/230 335/359/233
f 344/368/241 343/367/242 353/377/243 354/378/244
f 334/358/230 333/357/229 343/367/242 344/368/241
f 331/355/224 330/354/235 340/364/245 341/365/246
f 327/351/201 328/352/211 338/362/238 337/361/247
f 335/359/233 334/358/230 344/368/241 345/369/248
f 332/356/225 331/355/224 341/365/246 342/366/249
f 329/353/202 327/351/201 337/361/247 339/363/250
f 336/360/210 335/359/233 345/369/248 346/370/237
f 333/357/229 332/356/225 342/366/249 343/367/242
f 330/354/235 329/353/202 339/363/250 340/364/245
f 378/402/251 377/401/252 360/384/253 361/385/254
f 341/365/246 340/364/245 350/374/255 351/375/256
f 337/361/247 338/362/238 348/372/257 347/371/258
f 345/369/248 344/368/241 354/378/244 355/379/259
f 342/366/249 341/365/246 351/375/256 352/376/260
f 339/363/250 337/361/247 347/371/258 349/373/261
f 346/370/237 345/369/248 355/379/259 356/380/262
f 343/367/242 342/366/249 352/376/260 353/377/243
f 340/364/245 339/363/250 349/373/261 350/374/255
f 338/362/238 346/370/237 356/380/262 348/372/257
f 357/381/263 358/382/264 368/392/265 367/391/266
f 380/404/267 379/403/268 358/382/264 357/381/263
f 382/406/269 381/405/270 364/388/271 365/389/272
f 383/407/273 378/402/251 361/385/254 362/386/274
f 384/408/275 380/404/267 357/381/263 359/383/276
f 385/409/277 382/406/269 365/389/272 366/390/278
f 386/410/279 383/407/273 362/386/274 363/387/280
f 377/401/252 384/408/275 359/383/276 360/384/253
f 379/403/268 385/409/277 366/390/278 358/382/264
f 381/405/270 386/410/279 363/387/280 364/388/271
f 368/392/265 376/400/281 375/399/282 374/398/283 373/397/284 372/396/285 371/395/286 370/394/287 369/393/288 367/391/266
f 365/389/272 364/388/271 374/398/283 375/399/282
f 362/386/274 361/385/254 371/395/286 372/396/285
f 359/383/276 357/381/263 367/391/266 369/393/288
f 366/390/278 365/389/272 375/399/282 376/400/281
f 363/387/280 362/386/274 372/396/285 373/397/284
f 360/384/253 359/383/276 369/393/288 370/394/287
f 358/382/264 366/390/278 376/400/281 368/392/265
f 364/388/271 363/387/280 373/397/284 374/398/283
f 361/385/254 360/384/253 370/394/287 371/395/286
f 354/378/244 353/377/243 386/410/279 381/405/270
f 348/372/257 356/380/262 385/409/277 379/403/268
f 350/374/255 349/373/261 384/408/275 377/401/252
f 353/377/243 352/376/260 383/407/273 386/410/279
f 356/380/262 355/379/259 382/406/269 385/409/277
f 349/373/261 347/371/258 380/404/267 384/408/275
f 352/376/260 351/375/256 378/402/251 383/407/273
f 355/379/259 354/378/244 381/405/270 382/406/269
f 347/371/258 348/372/257 379/403/268 380/404/267
f 351/375/256 350/374/255 377/401/252 378/402/251
f 415/439/289 416/440/290 417/441/291 419/443/292
f 407/431/293 389/413/294 388/412/295 416/440/290
f 389/413/294 390/414/13 392/416/296 391/415/297
f 388/412/295 387/411/298 426/450/299 418/442/300
f 397/421/301 399/423/302 412/436/303 411/435/304
f 391/415/297 392/416/296 394/418/305 393/417/306
f 412/436/303 413/437/307 421/445/308 422/446/309
f 401/425/310 403/427/311 414/438/312 413/437/307
f 393/417/306 394/418/305 396/420/313 395/419/314
f 416/440/290 388/412/295 418/442/300 417/441/291
f 405/429/315 407/431/293 416/440/290 415/439/289
f 395/419/314 396/420/313 398/422/316 397/421/301
f 410/434/317 411/435/304 423/447/318 424/448/319
f 391/415/297 393/417/306 409/433/320 387/411/298
f 397/421/301 398/422/316 400/424/321 399/423/302
f 387/411/298 409/433/320 425/449/322 426/450/299
f 395/419/314 397/421/301 411/435/304 410/434/317
f 399/423/302 400/424/321 402/426/323 401/425/310
f 413/437/307 414/438/312 420/444/324 421/445/308
f 389/413/294 391/415/297 387/411/298 388/412/295
f 401/425/310 402/426/323 404/428/325 403/427/311
f 418/442/300 426/450/299 436/460/326 428/452/327
f 399/423/302 401/425/310 413/437/307 412/436/303
f 403/427/311 404/428/325 406/430/328 405/429/315
f 447/471/13 448/472/13 450/474/13 449/473/13
f 411/435/304 412/436/303 422/446/309 423/447/318
f 405/429/315 406/430/328 408/432/329 407/431/293
f 414/438/312 415/439/289 419/443/292 420/444/324
f 393/417/306 395/419/314 410/434/317 409/433/320
f 407/431/293 408/432/329 390/414/13 389/413/294
f 403/427/311 405/429/315 415/439/289 414/438/312
f 409/433/320 410/434/317 424/448/319 425/449/322
f 434/458/330 433/457/331 443/467/332 444/468/333
f 424/448/319 423/447/318 433/457/331 434/458/330
f 421/445/308 420/444/324 430/454/334 431/455/335
f 417/441/291 418/442/300 428/452/327 427/451/336
f 425/449/322 424/448/319 434/458/330 435/459/337
f 422/446/309 421/445/308 431/455/335 432/456/338
f 419/443/292 417/441/291 427/451/336 429/453/339
f 426/450/299 425/449/322 435/459/337 436/460/326
f 423/447/318 422/446/309 432/456/338 433/457/331
f 420/444/324 419/443/292 429/453/339 430/454/334
f 458/482/11 480/504/20 485/509/13 484/508/13 479/503/15 457/481/6
f 431/455/335 430/454/334 440/464/340 441/465/341
f 427/451/336 428/452/327 438/462/342 437/461/343
f 435/459/337 434/458/330 444/468/333 445/469/344
f 432/456/338 431/455/335 441/465/341 442/466/345
f 429/453/339 427/451/336 437/461/343 439/463/346
f 436/460/326 435/459/337 445/469/344 446/470/347
f 433/457/331 432/456/338 442/466/345 443/467/332
f 430/454/334 429/453/339 439/463/346 440/464/340
f 428/452/327 436/460/326 446/470/347 438/462/342
f 451/475/3 452/476/18 454/478/16 453/477/2
f 453/477/2 454/478/16 468/492/348 470/494/11
f 16/20/7 15/19/3 457/481/6 479/503/15 481/505/15 456/480/7
f 20/24/9 22/26/7 462/486/7 461/485/9
f 15/19/3 17/21/2 458/482/11 457/481/6
f 27/31/18 24/28/3 465/489/6 466/490/349
f 22/26/7 21/25/3 459/483/6 462/486/7
f 28/32/16 452/476/18 469/493/349 467/491/348
f 26/30/2 28/32/16 467/491/348 464/488/11
f 452/476/18 451/475/3 463/487/6 469/493/349
f 17/21/2 18/22/9 455/479/9 482/506/20 480/504/20 458/482/11
f 454/478/16 27/31/18 466/490/349 468/492/348
f 24/28/3 453/477/2 470/494/11 465/489/6
f 21/25/3 19/23/2 460/484/11 459/483/6
f 471/495/8 472/496/7 474/498/9 473/497/10
f 473/497/10 474/498/9 478/502/11 477/501/12
f 477/501/12 478/502/11 476/500/6 475/499/5
f 475/499/5 476/500/6 472/496/7 471/495/8
f 478/502/11 474/498/9 472/496/7 476/500/6
f 496/525/350 497/526/351 491/517/352 490/515/353
f 479/503/15 484/508/13 483/507/13 481/505/15
f 481/505/15 483/507/13 487/511/13 486/510/17 456/480/7
f 487/511/13 485/509/13 480/504/20 482/506/20
f 486/510/17 487/511/13 482/506/20 455/479/9
f 490/515/353 491/516/352 495/523/354 494/522/355
f 498/527/356 499/528/357 493/519/358 492/518/359
f 492/518/359 493/520/358 489/513/360 488/512/361
f 499/529/357 497/526/351 489/514/360 493/521/358
f 495/524/354 491/517/352 497/526/351 499/529/357
f 494/522/355 495/524/354 499/529/357 498/527/356
f 488/512/361 489/514/360 497/526/351 496/525/350
usemtl shop_front9.GLASS
f 460/484/11 461/485/9 462/486/7 459/483/6
f 464/488/11 467/491/348 469/493/349 463/487/6
f 470/494/11 468/492/348 466/490/349 465/489/6
f 483/507/13 484/508/13 485/509/13 487/511/13
