# Blender 3.3.1
# www.blender.org
mtllib shop_front15.mtl
o shop_front15
v -2.499855 0.005219 -0.000000
v 2.499855 0.005219 -0.000000
v -2.499855 4.018626 0.000000
v 2.499855 4.018626 0.000000
v -2.137626 2.899052 -0.009324
v -2.137626 2.899052 0.102617
v -2.137626 3.839089 -0.009324
v -2.137626 3.839089 0.102617
v 2.255887 2.876345 -0.009324
v 2.255887 2.876345 0.102617
v 2.255887 3.810160 -0.009324
v 2.255887 3.810160 0.102617
v 2.284134 3.730515 -0.009324
v 2.284134 3.730515 0.102617
v 2.499959 3.730515 -0.009324
v 2.499959 3.730515 0.102617
v 2.244106 0.007613 -0.009324
v 2.244106 0.007613 0.102617
v 2.500441 0.007613 -0.009324
v 2.500441 0.007613 0.102617
v -2.499855 2.860816 0.000000
v 2.499855 2.860816 0.000000
v -0.507835 2.860816 0.000000
v -0.507835 0.005219 -0.000000
v 2.077697 2.860816 0.000000
v 2.077697 0.005219 -0.000000
v -0.507835 0.868042 -0.000000
v 2.077697 0.859473 -0.000000
v -0.507835 2.812285 0.000000
v 2.077697 2.812285 0.000000
v -0.966694 2.860816 0.000000
v -0.955981 0.005219 -0.000000
v -1.877702 0.005219 -0.000000
v -1.883273 2.860816 0.000000
v -1.877542 0.094155 -0.000000
v -0.956593 0.094155 -0.000000
v -0.966556 2.823122 0.000000
v -1.883195 2.823122 0.000000
v -0.507835 2.812285 -0.034080
v -0.507835 0.868042 -0.034080
v 2.077697 2.812285 -0.034080
v 2.077697 0.859473 -0.034080
v -1.883195 2.823122 -0.040706
v -1.877542 0.094155 -0.040706
v -0.966556 2.823122 -0.040706
v -0.967953 0.094155 -0.040706
v -2.499963 2.883584 0.102617
v 2.381536 4.019157 0.061653
v 2.381536 3.729663 0.061653
v 2.396198 4.019157 0.058536
v 2.396198 3.729663 0.058536
v 2.408324 4.019157 0.049725
v 2.408324 3.729663 0.049725
v 2.415819 4.019157 0.036744
v 2.415819 3.729663 0.036744
v 2.417386 4.019157 0.021837
v 2.417386 3.729663 0.021837
v 2.412754 4.019157 0.007581
v 2.412754 3.729663 0.007581
v 2.402724 4.019157 -0.003558
v 2.402724 3.729663 -0.003558
v 2.389030 4.019157 -0.009655
v 2.389030 3.729663 -0.009655
v 2.374041 4.019157 -0.009655
v 2.374041 3.729663 -0.009655
v 2.360348 4.019157 -0.003558
v 2.360348 3.729663 -0.003558
v 2.350318 4.019157 0.007581
v 2.350318 3.729663 0.007581
v 2.345685 4.019157 0.021837
v 2.345685 3.729663 0.021837
v 2.347252 4.019157 0.036744
v 2.347252 3.729663 0.036744
v 2.354747 4.019157 0.049725
v 2.354747 3.729663 0.049725
v 2.366874 4.019157 0.058536
v 2.366874 3.729663 0.058536
v -2.226208 2.883584 -0.009324
v -2.226208 2.883584 0.102617
v -2.208542 3.370672 -0.009324
v -2.500057 0.005114 0.102617
v -2.225726 0.005114 -0.009324
v -2.225726 0.005114 0.102617
v -2.218315 2.907002 0.115177
v -2.218315 2.907002 -0.009324
v -2.499907 2.907002 0.115177
v -2.499901 2.932832 0.119415
v -2.203248 2.932832 0.119415
v -2.203248 2.932832 -0.009324
v -2.225490 2.950769 -0.009324
v -2.225490 2.950769 0.102617
v -2.499969 2.950769 0.102617
v -2.225490 3.308250 0.102617
v -2.225490 3.308250 -0.009324
v -2.499846 3.308250 0.102617
v -2.217225 3.329947 0.114361
v -2.217225 3.329947 -0.009324
v -2.500056 3.329947 0.114361
v -2.205860 3.339246 0.123954
v -2.205860 3.339246 -0.009324
v -2.500038 3.339246 0.123954
v -2.205860 3.375408 0.123954
v -2.205860 3.375408 -0.009324
v -2.500038 3.375408 -0.009324
v -2.500038 3.375408 0.123954
v -2.208542 3.370672 0.085245
v -2.103265 3.370672 -0.009324
v -1.876611 2.202861 -0.000985
v -2.248570 0.007613 0.085244
v -2.102783 0.007613 -0.009324
v -1.876611 2.202861 -0.040088
v -2.160716 3.370672 0.085245
v -2.134842 3.370672 0.067873
v -2.134360 0.007613 0.067873
v -2.160234 0.007613 0.085244
v -1.851176 2.202861 -0.040088
v -1.851176 2.202861 -0.000985
v -1.878612 0.091129 -0.040088
v -1.878612 0.091129 -0.000985
v -1.842324 0.091129 -0.040088
v -1.842324 0.091129 -0.000985
v -1.876611 2.268631 -0.040088
v -1.876611 2.268631 -0.000985
v -1.842806 2.268631 -0.000985
v -1.842806 2.268631 -0.040088
v -0.981331 2.202861 -0.000985
v -0.981331 2.202861 -0.040088
v -0.981331 2.268631 -0.000985
v -0.981331 2.268631 -0.040088
v -0.952815 2.202861 -0.000985
v -0.952815 2.202861 -0.040088
v -0.952815 2.268631 -0.000985
v -0.952815 2.268631 -0.040088
v -0.981331 0.089585 -0.000985
v -0.981331 0.089585 -0.040088
v -0.952815 0.089585 -0.000985
v -0.952815 0.089585 -0.040088
v -1.876611 2.767039 -0.040088
v -1.876611 2.767039 -0.000984
v -1.842806 2.767039 -0.000984
v -1.842806 2.767039 -0.040088
v -0.981331 2.767039 -0.000984
v -0.981331 2.767039 -0.040088
v -0.952815 2.767039 -0.000984
v -0.952815 2.767039 -0.040088
v -1.876611 2.828038 -0.040088
v -1.876611 2.828038 -0.000984
v -1.842806 2.828038 -0.000984
v -1.842806 2.828038 -0.040088
v -0.981331 2.828038 -0.000984
v -0.981331 2.828038 -0.040088
v -0.952815 2.828038 -0.000984
v -0.952815 2.828038 -0.040088
v 0.369795 2.345116 -0.015713
v 0.369795 2.345116 -0.040307
v 0.303742 2.345116 -0.015713
v 0.303742 2.345116 -0.040307
v 0.291491 0.862408 -0.040307
v 0.291491 0.862408 -0.015713
v 0.369943 0.862408 -0.040307
v 0.369943 0.862408 -0.015713
v 0.273408 2.347201 -0.040307
v 0.400129 2.347201 -0.040307
v 0.273408 2.347201 -0.015713
v 0.400129 2.347201 -0.015713
v 0.273408 2.433988 -0.040307
v 0.400129 2.433988 -0.040307
v 0.273408 2.433988 -0.015713
v 0.400129 2.433988 -0.015713
v -0.485364 2.347201 -0.040307
v -0.485364 2.347201 -0.015713
v -0.471081 2.433988 -0.040307
v -0.471081 2.433988 -0.015713
v -0.510359 2.347201 -0.040307
v -0.510359 2.347201 -0.015713
v -0.510359 2.433988 -0.040307
v -0.510359 2.433988 -0.015713
v 0.273408 2.746038 -0.040307
v 0.400129 2.746038 -0.040307
v 0.273408 2.746038 -0.015713
v 0.400129 2.746038 -0.015713
v -0.471081 2.753565 -0.040307
v -0.471081 2.753565 -0.015713
v -0.510359 2.753565 -0.040307
v -0.510359 2.753565 -0.015713
v -0.471081 2.816052 -0.040307
v -0.471081 2.816052 -0.015713
v -0.510359 2.816052 -0.040307
v -0.510359 2.816052 -0.015713
v 0.273006 2.753911 -0.040307
v 0.273006 2.753911 -0.015713
v 0.273006 2.816398 -0.040307
v 0.273006 2.816398 -0.015713
v 0.273408 2.815932 -0.040307
v 0.400129 2.815932 -0.040307
v 0.273408 2.815932 -0.015713
v 0.400129 2.815932 -0.015713
v 1.159241 2.746038 -0.015713
v 1.159241 2.746038 -0.040307
v 1.159241 2.815932 -0.015713
v 1.159241 2.815932 -0.040307
v 1.279421 2.746038 -0.015713
v 1.279421 2.746038 -0.040307
v 1.279421 2.815932 -0.015713
v 1.279421 2.815932 -0.040307
v 2.037487 2.746038 -0.016014
v 2.037487 2.746038 -0.040307
v 2.037487 2.815932 -0.015713
v 2.037487 2.815932 -0.040307
v 2.079424 2.746038 -0.016014
v 2.079424 2.746038 -0.040307
v 2.079424 2.815932 -0.015713
v 2.079424 2.815932 -0.040307
v 1.158901 2.347201 -0.015713
v 1.158901 2.347201 -0.040307
v 1.158901 2.433988 -0.015713
v 1.158901 2.433988 -0.040307
v 1.272552 2.347201 -0.015713
v 1.272552 2.347201 -0.040307
v 1.272552 2.433988 -0.015713
v 1.272552 2.433988 -0.040307
v 2.078934 2.347201 -0.015713
v 2.078934 2.347201 -0.040307
v 2.078934 2.433988 -0.015713
v 2.078934 2.433988 -0.040307
v 1.159241 2.433245 -0.015713
v 1.159241 2.433245 -0.040307
v 1.279421 2.433245 -0.015713
v 1.279421 2.433245 -0.040307
v 1.186089 2.344045 -0.015713
v 1.186089 2.344045 -0.040307
v 1.242873 2.344045 -0.015713
v 1.242873 2.344045 -0.040307
v 1.173633 0.861785 -0.015713
v 1.173633 0.861785 -0.040307
v 1.230417 0.861785 -0.015713
v 1.230417 0.861785 -0.040307
v 2.037487 2.351176 -0.016014
v 2.037487 2.351176 -0.040307
v 2.079424 2.351176 -0.016014
v 2.079424 2.351176 -0.040307
v 2.045128 2.344719 -0.016115
v 2.045128 2.344719 -0.040307
v 2.083263 2.344719 -0.016115
v 2.083263 2.344719 -0.040307
v 2.045128 0.858738 -0.016115
v 2.045128 0.858738 -0.040307
v 2.083263 0.858738 -0.016115
v 2.083263 0.858738 -0.040307
v -0.485364 0.858957 -0.040307
v -0.485364 0.858957 -0.015713
v -0.510359 0.858957 -0.040307
v -0.510359 0.858957 -0.015713
v -1.845639 0.097193 -0.054153
v -1.845639 0.097193 -0.023882
v -1.845639 0.954778 -0.054153
v -1.845639 0.954778 -0.023882
v -0.979376 0.097193 -0.054153
v -0.979376 0.097193 -0.023882
v -0.979376 0.954778 -0.054153
v -0.979376 0.954778 -0.023882
v -1.358980 0.954778 -0.054153
v -1.358974 0.954778 -0.023882
v -1.459635 0.954778 -0.054153
v -1.459630 0.954778 -0.023882
v -1.759587 0.954778 -0.054153
v -1.759583 0.954778 -0.023882
v -1.067293 0.954778 -0.054153
v -1.067291 0.954778 -0.023882
v -1.853591 2.032769 -0.023882
v -1.853591 2.032769 -0.054153
v -1.746853 2.032769 -0.054153
v -1.064900 2.019131 -0.023882
v -0.979376 2.019131 -0.023882
v -0.979376 2.019131 -0.054153
v -1.459630 2.091041 -0.023882
v -1.358974 2.091041 -0.023882
v -1.358980 2.091041 -0.054153
v -1.459635 2.091041 -0.054153
v -1.746848 2.032769 -0.023882
v -1.064901 2.019131 -0.054153
v -1.853591 2.203865 -0.023882
v -1.853591 2.203865 -0.054153
v -1.746853 2.203865 -0.054153
v -1.064900 2.203658 -0.023882
v -0.979376 2.203658 -0.023882
v -0.979376 2.203658 -0.054153
v -1.746848 2.203865 -0.023882
v -1.064901 2.203658 -0.054153
v -1.459635 2.202152 -0.054153
v -1.358980 2.202152 -0.054153
v -1.358974 2.202152 -0.023882
v -1.459630 2.202152 -0.023882
v -1.045599 0.954778 -0.023882
v -1.045600 0.097193 -0.023882
v -0.979376 0.848492 -0.023882
v -1.045599 0.848492 -0.023882
v -1.014002 0.954778 -0.023882
v -1.014002 0.848492 -0.023882
v -1.045599 0.921279 -0.023882
v -1.014002 0.921279 -0.023882
v -1.045599 0.905501 -0.023882
v -1.014002 0.905501 -0.023882
v -1.029987 0.905469 -0.023850
v -1.029987 0.921311 -0.023850
v -1.045002 0.905469 -0.023850
v -1.045002 0.921311 -0.023850
v -1.044997 0.921300 -0.014538
v -1.029992 0.921300 -0.014538
v -1.029992 0.905480 -0.014538
v -1.044997 0.905480 -0.014538
v -1.067291 0.954778 -0.038399
v -1.759587 0.954778 -0.039636
v -1.459635 0.954778 -0.039636
v -1.459630 0.954778 -0.038399
v -1.759583 0.954778 -0.038399
v -1.050001 0.927555 0.002974
v -1.024988 0.927555 0.002974
v -1.358974 0.954778 -0.038399
v -1.024987 0.899224 0.002974
v -1.358980 0.954778 -0.039636
v -1.050001 0.899224 0.002974
v -1.067293 0.954778 -0.039636
v -1.062564 0.927695 -0.008943
v -1.050436 0.939822 -0.008943
v -1.054585 0.931410 -0.012498
v -1.024552 0.939822 -0.008943
v -1.012424 0.927694 -0.008943
v -1.020404 0.931409 -0.012498
v -1.012424 0.899085 -0.008943
v -1.024552 0.886957 -0.008943
v -1.020403 0.895370 -0.012498
v -1.050436 0.886957 -0.008943
v -1.062564 0.899085 -0.008943
v -1.054585 0.895370 -0.012498
v -1.050436 0.939822 -0.001523
v -1.062564 0.927695 -0.001523
v -1.050029 0.927577 0.002952
v -1.012424 0.927694 -0.001523
v -1.024552 0.939822 -0.001523
v -1.024960 0.927576 0.002952
v -1.024552 0.886957 -0.001523
v -1.012424 0.899085 -0.001523
v -1.024960 0.899203 0.002952
v -1.062564 0.899085 -0.001523
v -1.050436 0.886957 -0.001523
v -1.050029 0.899203 0.002952
v -1.067291 2.097262 -0.038399
v -1.067293 2.097262 -0.039636
v -1.459635 2.097262 -0.039636
v -1.759587 2.097262 -0.039636
v -1.358974 2.097262 -0.038399
v -1.759583 2.097262 -0.038399
v -1.459630 2.097262 -0.038399
v -1.358980 2.097262 -0.039636
v -0.507835 2.811974 -0.035582
v 2.077697 2.811974 -0.035582
v -0.503042 0.846579 -0.035582
v 2.082491 0.846579 -0.035582
v -1.816985 2.739600 -0.030981
v -1.816985 2.741240 -0.004701
v -1.816985 2.816174 -0.035760
v -1.816985 2.817814 -0.009480
v -1.024270 2.739600 -0.030981
v -1.024270 2.741240 -0.004701
v -1.024270 2.816174 -0.035760
v -1.024270 2.817814 -0.009480
v -1.874352 2.816174 -0.035760
v -1.874352 2.739600 -0.030981
v -1.874352 2.741240 -0.004701
v -1.874352 2.817814 -0.009480
v -0.982924 2.817814 -0.009480
v -0.982924 2.816174 -0.035760
v -0.982924 2.739600 -0.030981
v -0.982924 2.741240 -0.004701
v -1.817308 2.327806 -0.005279
v -1.817308 2.329446 0.021001
v -1.024270 2.329446 0.021001
v -1.024270 2.327806 -0.005279
v -1.874565 2.327806 -0.005279
v -1.874565 2.329446 0.021001
v -0.982924 2.329446 0.021001
v -0.982924 2.327806 -0.005279
v -1.024270 2.265270 0.025006
v -1.024270 2.263630 -0.001274
v -0.982924 2.265270 0.025006
v -0.982924 2.263630 -0.001274
v -1.024270 2.328701 0.009060
v -1.817308 2.328701 0.009060
v -1.817632 2.265270 0.025006
v -1.817632 2.263630 -0.001274
v -1.024270 2.328551 0.006661
v -1.817308 2.328551 0.006661
v -1.874778 2.265270 0.025006
v -1.874778 2.263630 -0.001274
v -1.024270 2.749563 -0.019615
v -1.817308 2.749563 -0.019615
v -1.024270 2.749713 -0.017217
v -1.817308 2.749713 -0.017217
v -1.045580 0.905469 -0.052759
v -1.045580 0.921311 -0.052759
v -1.030565 0.905469 -0.052759
v -1.030565 0.921311 -0.052759
v -1.030570 0.921300 -0.062071
v -1.045575 0.921300 -0.062071
v -1.045575 0.905480 -0.062071
v -1.030570 0.905480 -0.062071
v -1.025565 0.927555 -0.079583
v -1.050579 0.927555 -0.079583
v -1.050579 0.899224 -0.079583
v -1.025565 0.899224 -0.079583
v -1.013002 0.927695 -0.067667
v -1.025130 0.939822 -0.067667
v -1.020981 0.931410 -0.064111
v -1.051014 0.939822 -0.067667
v -1.063142 0.927694 -0.067667
v -1.055163 0.931409 -0.064111
v -1.063142 0.899085 -0.067667
v -1.051015 0.886957 -0.067667
v -1.055163 0.895370 -0.064111
v -1.025130 0.886957 -0.067667
v -1.013002 0.899085 -0.067667
v -1.020981 0.895370 -0.064111
v -1.025130 0.939822 -0.075086
v -1.013002 0.927695 -0.075086
v -1.025538 0.927577 -0.079561
v -1.063142 0.927694 -0.075086
v -1.051014 0.939822 -0.075086
v -1.050606 0.927576 -0.079561
v -1.051015 0.886957 -0.075086
v -1.063142 0.899085 -0.075086
v -1.050607 0.899203 -0.079561
v -1.013002 0.899085 -0.075086
v -1.025130 0.886957 -0.075086
v -1.025538 0.899203 -0.079561
v -0.273029 0.092432 -1.725415
v -0.273029 1.288727 -1.725415
v -0.273029 0.092432 -2.283278
v -0.273029 1.288727 -2.283278
v 2.352994 0.092432 -1.725415
v 2.352994 1.288727 -1.725415
v 2.352994 1.288727 -2.283278
v -0.476982 1.412715 -1.652729
v -0.476982 1.282958 -1.652729
v -0.476982 1.412715 -2.283351
v -0.476982 1.282958 -2.283351
v 2.353632 1.412715 -1.652729
v 2.353632 1.282958 -1.652729
v 2.353632 1.412715 -2.283351
v 2.353632 1.282958 -2.283351
v 0.356291 0.094785 -3.136799
v 0.356291 1.291080 -3.136799
v -2.059919 1.291080 -3.694663
v -2.269732 0.094785 -3.136799
v -2.269732 1.291080 -3.136799
v 0.356291 0.094785 -3.666000
v 0.566104 1.291080 -3.694663
v -2.263872 1.412715 -3.064114
v -2.263872 1.282958 -3.064114
v -2.263872 1.412715 -3.694735
v -2.263872 1.282958 -3.694735
v 0.566741 1.412715 -3.064114
v 0.566741 1.282958 -3.064114
v 0.566741 1.412715 -3.694735
v 0.566741 1.282958 -3.694735
v -2.270806 0.087679 0.034974
v -2.270806 3.475735 0.034974
v -2.270806 0.079006 -3.676794
v -2.270806 3.467062 -3.676793
v 2.358145 0.087679 0.034974
v 2.358145 3.475735 0.034974
v 2.358145 0.079006 -3.676794
v 2.358145 3.467062 -3.676793
v 0.356291 1.291080 -3.666000
vn -0.0000 -0.0000 1.0000
vn -1.0000 -0.0000 -0.0000
vn 0.0066 1.0000 -0.0000
vn 1.0000 -0.0000 -0.0000
vn -0.0052 -1.0000 -0.0000
vn -0.0000 1.0000 -0.0000
vn 1.0000 0.0001 -0.0000
vn -0.9999 0.0108 -0.0000
vn 0.0033 1.0000 -0.0000
vn -0.0000 -1.0000 -0.0000
vn 1.0000 0.0021 -0.0000
vn -0.9904 -0.0016 0.1382
vn -0.0000 -0.7180 0.6960
vn 0.2079 -0.0000 0.9781
vn 0.6332 -0.7740 -0.0000
vn 0.5878 -0.0000 0.8090
vn 0.8660 -0.0000 0.5000
vn -0.0000 -0.1619 0.9868
vn 0.9945 -0.0000 0.1045
vn 0.9511 -0.0000 -0.3090
vn 0.9345 -0.3560 -0.0000
vn -0.0000 -0.4727 0.8812
vn 0.7431 -0.0000 -0.6691
vn 0.9256 0.0001 0.3786
vn 0.9476 -0.3194 -0.0000
vn 0.4067 -0.0000 -0.9135
vn -0.0000 -0.0000 -1.0000
vn 0.8638 -0.5039 -0.0000
vn -0.4067 -0.0000 -0.9135
vn -0.7431 -0.0000 -0.6691
vn -0.0000 -0.4760 0.8794
vn -0.9511 -0.0000 -0.3090
vn -0.0000 0.6836 0.7299
vn -0.9945 -0.0000 0.1045
vn 0.6278 0.7784 -0.0000
vn 1.0000 0.0002 -0.0000
vn -0.8660 -0.0000 0.5000
vn -0.5878 -0.0000 0.8090
vn -0.2079 -0.0000 0.9781
vn 0.5574 0.0001 0.8302
vn 1.0000 0.0042 -0.0000
vn -1.0000 0.0009 -0.0000
vn 0.0686 -0.9976 -0.0000
vn -1.0000 0.0083 -0.0000
vn -0.0686 -0.9976 -0.0000
vn 0.0005 -1.0000 -0.0000
vn -0.0005 1.0000 -0.0000
vn -0.0000 -0.0043 1.0000
vn 0.0002 -0.0022 1.0000
vn 0.1057 -0.9944 -0.0000
vn -0.1153 -0.9933 -0.0000
vn -1.0000 0.0084 -0.0000
vn 1.0000 -0.0084 -0.0000
vn 0.8595 0.5111 -0.0000
vn -0.0000 -0.0156 0.9999
vn -0.6455 -0.7638 -0.0000
vn -1.0000 -0.0074 -0.0000
vn 0.9999 -0.0118 -0.0002
vn 1.0000 -0.0000 -0.0002
vn -1.0000 -0.0000 0.0002
vn -1.0000 0.0022 -0.0000
vn -0.2375 -0.9714 -0.0000
vn 0.1988 -0.9800 -0.0000
vn -0.0051 1.0000 -0.0000
vn 0.0060 1.0000 -0.0000
vn -0.0000 -0.0004 1.0000
vn -0.0000 0.0007 1.0000
vn -0.0534 -0.0000 0.9986
vn 0.0020 -0.0000 1.0000
vn 1.0000 -0.0000 0.0005
vn -1.0000 -0.0000 0.0005
vn -0.0000 -1.0000 0.0011
vn -0.0000 1.0000 0.0011
vn -0.3370 -0.0000 0.9415
vn -0.3145 -0.0000 -0.9493
vn 0.3145 -0.0000 -0.9493
vn -0.0000 -0.2988 -0.9543
vn 0.3370 -0.0000 0.9415
vn -0.0000 -0.3442 0.9389
vn -0.0000 0.3442 0.9389
vn -0.0000 0.2988 -0.9543
vn -0.5393 0.5393 -0.6468
vn 0.5393 0.5393 -0.6468
vn 0.5393 -0.5393 -0.6468
vn -0.5393 -0.5393 -0.6468
vn -0.3163 0.3163 0.8944
vn 0.3163 0.3163 0.8944
vn 0.3163 -0.3163 0.8944
vn -0.3163 -0.3163 0.8944
vn 0.7071 0.7071 -0.0000
vn -0.7071 0.7071 -0.0000
vn -0.7071 -0.7071 -0.0000
vn 0.7071 -0.7071 -0.0000
vn -1.0000 -0.0000 0.0034
vn 1.0000 -0.0000 -0.0011
vn -1.0000 -0.0000 0.0052
vn 1.0000 -0.0000 -0.0043
vn -0.0000 -0.9792 0.2029
vn -0.0000 0.0623 0.9981
vn -0.0000 0.9981 -0.0623
vn -0.0000 -0.9981 0.0623
vn -0.0000 -0.0623 -0.9981
vn -1.0000 0.0005 -0.0000
vn 1.0000 -0.0008 -0.0000
vn 0.0621 -0.9981 -0.0000
vn -1.0000 0.0033 -0.0002
vn -0.0247 0.9997 -0.0000
vn -1.0000 -0.0000 -0.0005
vn 1.0000 -0.0000 -0.0005
vn -0.0000 -1.0000 -0.0011
vn -0.0000 1.0000 -0.0011
vn 0.3370 -0.0000 -0.9415
vn 0.3145 -0.0000 0.9493
vn -0.3145 -0.0000 0.9493
vn -0.0000 -0.2988 0.9543
vn -0.3370 -0.0000 -0.9415
vn -0.0000 -0.3442 -0.9389
vn -0.0000 0.3442 -0.9389
vn -0.0000 0.2988 0.9543
vn 0.5393 0.5393 0.6468
vn -0.5393 0.5393 0.6468
vn -0.5393 -0.5393 0.6468
vn 0.5393 -0.5393 0.6468
vn 0.3163 0.3163 -0.8944
vn -0.3163 0.3163 -0.8944
vn -0.3163 -0.3163 -0.8944
vn 0.3163 -0.3163 -0.8944
vn -0.0000 0.3511 0.9363
vn -0.0000 1.0000 -0.0023
vn -0.0000 -1.0000 0.0023
vt 0.000041 0.000026
vt 0.999883 0.000026
vt 0.000041 0.999868
vt 0.999883 0.999868
vt 0.072479 0.720954
vt 0.078016 0.720954
vt 0.072479 0.727954
vt 0.072479 0.720954
vt 0.072479 0.955141
vt 0.072479 0.953225
vt 0.078016 0.947899
vt 0.078016 0.945600
vt 0.072479 0.950542
vt 0.951094 0.715297
vt 0.945862 0.715297
vt 0.951094 0.722297
vt 0.951094 0.715297
vt 0.951094 0.946018
vt 0.951094 0.947934
vt 0.945862 0.938393
vt 0.945862 0.940692
vt 0.951094 0.943336
vt 0.956743 0.928092
vt 0.956743 0.903761
vt 0.972662 0.928092
vt 0.956743 0.928092
vt 0.999904 0.928092
vt 0.999904 0.903761
vt 0.956498 0.928092
vt 0.998353 0.928092
vt 0.948738 0.000623
vt 0.964657 0.000623
vt 0.948738 0.000623
vt 1.000000 0.000623
vt 0.956595 0.000623
vt 0.998450 0.000623
vt 0.000041 0.711428
vt 0.999883 0.711428
vt 0.398405 0.711428
vt 0.398405 0.000026
vt 0.915460 0.711428
vt 0.915460 0.000026
vt 0.398405 0.214978
vt 0.396467 0.214978
vt 0.915460 0.212843
vt 0.396467 0.699338
vt 0.398405 0.699338
vt 0.915460 0.699338
vt 0.306642 0.711428
vt 0.308785 0.000026
vt 0.122017 0.000026
vt 0.124458 0.000026
vt 0.120903 0.711428
vt 0.123345 0.711428
vt 0.122049 0.022183
vt 0.124491 0.022183
vt 0.308662 0.022183
vt 0.306670 0.702037
vt 0.120919 0.702037
vt 0.123360 0.702037
vt 0.399955 0.699338
vt 0.398405 0.699338
vt 0.398405 0.214978
vt 0.399955 0.214978
vt 0.915460 0.699338
vt 0.915460 0.212843
vt 0.123360 0.702037
vt 0.124491 0.022183
vt 0.306670 0.702037
vt 0.306390 0.022183
vt 0.000019 0.717100
vt 0.976221 1.000000
vt 0.976221 0.927880
vt 0.979154 1.000000
vt 0.979154 0.927880
vt 0.981578 1.000000
vt 0.981578 0.927880
vt 0.983077 1.000000
vt 0.983077 0.927880
vt 0.983391 1.000000
vt 0.983391 0.927880
vt 0.982464 1.000000
vt 0.982464 0.927880
vt 0.980458 1.000000
vt 0.980458 0.927880
vt 0.977720 1.000000
vt 0.977720 0.927880
vt 0.974723 1.000000
vt 0.974723 0.927880
vt 0.971984 1.000000
vt 0.971984 0.927880
vt 0.969978 1.000000
vt 0.969978 0.927880
vt 0.969052 1.000000
vt 0.969052 0.927880
vt 0.969365 1.000000
vt 0.969365 0.927880
vt 0.970864 1.000000
vt 0.970864 0.927880
vt 0.973289 1.000000
vt 0.973289 0.927880
vt 0.050612 0.717100
vt 0.054765 0.717100
vt 0.055355 0.717100
vt 0.058297 0.821414
vt 0.000000 0.000000
vt 0.050708 0.000000
vt 0.054861 0.000000
vt 0.055451 0.000000
vt 0.056343 0.722934
vt 0.046945 0.722934
vt 0.000030 0.722934
vt 0.000031 0.729369
vt 0.059356 0.729369
vt 0.049958 0.729369
vt 0.046363 0.733838
vt 0.054908 0.733838
vt 0.000018 0.733838
vt 0.053370 0.822895
vt 0.054908 0.822895
vt 0.046363 0.822895
vt 0.000042 0.822895
vt 0.055484 0.828301
vt 0.056561 0.828301
vt 0.051178 0.828301
vt 0.000000 0.828301
vt 0.058834 0.830617
vt 0.057757 0.830617
vt 0.049556 0.830617
vt 0.000004 0.830617
vt 0.058834 0.822898
vt 0.058834 0.839626
vt 0.058834 0.839626
vt 0.049556 0.839626
vt 0.000004 0.839626
vt 0.000004 0.822898
vt 0.000004 0.839626
vt 0.058297 0.838446
vt 0.079351 0.838446
vt 0.079351 0.821414
vt 0.124677 0.547515
vt 0.050292 0.000623
vt 0.079447 0.000623
vt 0.124677 0.547515
vt 0.067861 0.838446
vt 0.068385 0.838446
vt 0.073036 0.838446
vt 0.068482 0.000623
vt 0.073132 0.000623
vt 0.067958 0.000623
vt 0.129763 0.547515
vt 0.129763 0.547515
vt 0.124277 0.021429
vt 0.124277 0.021429
vt 0.131534 0.021429
vt 0.131534 0.021429
vt 0.124677 0.563900
vt 0.124677 0.563900
vt 0.131437 0.563900
vt 0.131437 0.563900
vt 0.303715 0.547515
vt 0.305253 0.547515
vt 0.303715 0.547515
vt 0.307714 0.547515
vt 0.303715 0.563900
vt 0.303715 0.563900
vt 0.309418 0.547515
vt 0.309418 0.547515
vt 0.309418 0.563900
vt 0.309418 0.563900
vt 0.303715 0.021044
vt 0.305253 0.021044
vt 0.303715 0.021044
vt 0.307714 0.021044
vt 0.309418 0.021044
vt 0.309418 0.021044
vt 0.124677 0.688066
vt 0.124677 0.688066
vt 0.131437 0.688066
vt 0.131437 0.688066
vt 0.303715 0.688066
vt 0.303715 0.688066
vt 0.309418 0.688066
vt 0.309418 0.688066
vt 0.124677 0.703262
vt 0.124677 0.703262
vt 0.131437 0.703262
vt 0.131437 0.703262
vt 0.303715 0.703262
vt 0.303715 0.703262
vt 0.309418 0.703262
vt 0.309418 0.703262
vt 0.567932 0.582954
vt 0.573913 0.582954
vt 0.573913 0.582954
vt 0.560704 0.582954
vt 0.565709 0.582954
vt 0.560704 0.582954
vt 0.558254 0.213574
vt 0.563259 0.213574
vt 0.558254 0.213574
vt 0.573943 0.213574
vt 0.567961 0.213574
vt 0.573943 0.213574
vt 0.571230 0.213574
vt 0.554638 0.583473
vt 0.579979 0.583473
vt 0.554638 0.583473
vt 0.579979 0.583473
vt 0.554638 0.599316
vt 0.554638 0.605094
vt 0.558300 0.605094
vt 0.573632 0.605094
vt 0.579979 0.599620
vt 0.579979 0.605094
vt 0.563671 0.605094
vt 0.554638 0.605094
vt 0.578026 0.605094
vt 0.579979 0.605094
vt 0.579979 0.593233
vt 0.402898 0.583473
vt 0.570388 0.583473
vt 0.402898 0.583473
vt 0.569514 0.583473
vt 0.564851 0.583473
vt 0.405755 0.599316
vt 0.401849 0.605094
vt 0.405755 0.605094
vt 0.405755 0.605094
vt 0.397900 0.583473
vt 0.397900 0.583473
vt 0.562772 0.583473
vt 0.397900 0.605094
vt 0.397900 0.605094
vt 0.558300 0.682834
vt 0.554638 0.682834
vt 0.573632 0.682834
vt 0.579979 0.696520
vt 0.579979 0.682834
vt 0.563671 0.682834
vt 0.554638 0.682834
vt 0.578026 0.682834
vt 0.579979 0.682834
vt 0.579979 0.688004
vt 0.405755 0.691704
vt 0.401849 0.684709
vt 0.405755 0.684709
vt 0.405755 0.684709
vt 0.397900 0.684709
vt 0.397900 0.684709
vt 0.405755 0.700276
vt 0.405755 0.700276
vt 0.397900 0.700276
vt 0.397900 0.700276
vt 0.554557 0.691790
vt 0.554557 0.684795
vt 0.554557 0.684795
vt 0.554557 0.700362
vt 0.554557 0.700362
vt 0.554638 0.700246
vt 0.579979 0.700246
vt 0.554638 0.700246
vt 0.579979 0.700246
vt 0.731787 0.688004
vt 0.733984 0.682834
vt 0.731787 0.682834
vt 0.731787 0.696520
vt 0.731787 0.682834
vt 0.738867 0.682834
vt 0.731787 0.700246
vt 0.731787 0.700246
vt 0.755820 0.687092
vt 0.749426 0.682834
vt 0.755820 0.682834
vt 0.755820 0.694695
vt 0.753883 0.682834
vt 0.755820 0.682834
vt 0.755820 0.700246
vt 0.755820 0.700246
vt 0.907418 0.687092
vt 0.907418 0.682834
vt 0.907418 0.694695
vt 0.907418 0.682834
vt 0.912545 0.682834
vt 0.907418 0.700246
vt 0.907418 0.700246
vt 0.915805 0.682834
vt 0.915805 0.682834
vt 0.915805 0.700246
vt 0.915805 0.700246
vt 0.731719 0.583473
vt 0.731719 0.583473
vt 0.731719 0.593233
vt 0.731719 0.605094
vt 0.731719 0.599620
vt 0.731719 0.605094
vt 0.754447 0.583473
vt 0.754447 0.583473
vt 0.754447 0.595666
vt 0.754447 0.605094
vt 0.754447 0.601140
vt 0.754447 0.605094
vt 0.915707 0.583473
vt 0.915707 0.583473
vt 0.915707 0.595666
vt 0.915707 0.605094
vt 0.915707 0.601140
vt 0.915707 0.605094
vt 0.733984 0.604909
vt 0.731787 0.604909
vt 0.731787 0.604909
vt 0.738867 0.604909
vt 0.749426 0.604909
vt 0.755820 0.604909
vt 0.753883 0.604909
vt 0.755820 0.604909
vt 0.742194 0.582687
vt 0.737156 0.582687
vt 0.737156 0.582687
vt 0.748511 0.582687
vt 0.748511 0.582687
vt 0.743667 0.582687
vt 0.739703 0.213419
vt 0.734665 0.213419
vt 0.734665 0.213419
vt 0.746021 0.213419
vt 0.746021 0.213419
vt 0.741176 0.213419
vt 0.907418 0.584464
vt 0.912545 0.584464
vt 0.907418 0.584464
vt 0.915805 0.584464
vt 0.915805 0.584464
vt 0.908946 0.582855
vt 0.912484 0.582855
vt 0.908946 0.582855
vt 0.916573 0.582855
vt 0.916573 0.582855
vt 0.908946 0.212659
vt 0.912484 0.212659
vt 0.908946 0.212659
vt 0.916573 0.212659
vt 0.916573 0.212659
vt 0.402898 0.212714
vt 0.570388 0.212714
vt 0.402898 0.212714
vt 0.569514 0.212714
vt 0.564851 0.212714
vt 0.397900 0.212714
vt 0.397900 0.212714
vt 0.562772 0.212714
vt 0.130871 0.022939
vt 0.130871 0.022939
vt 0.130871 0.236585
vt 0.130871 0.236585
vt 0.304106 0.022939
vt 0.304106 0.022939
vt 0.304106 0.236585
vt 0.304106 0.236585
vt 0.228193 0.236585
vt 0.228194 0.236585
vt 0.208064 0.236585
vt 0.208065 0.236585
vt 0.148079 0.236585
vt 0.148080 0.236585
vt 0.286524 0.236585
vt 0.286525 0.236585
vt 0.129280 0.505140
vt 0.129280 0.505140
vt 0.150626 0.505140
vt 0.287003 0.501743
vt 0.304106 0.501743
vt 0.304106 0.501743
vt 0.208065 0.519657
vt 0.228194 0.519657
vt 0.228193 0.519657
vt 0.208064 0.519657
vt 0.150627 0.505140
vt 0.287003 0.501743
vt 0.129280 0.547765
vt 0.129280 0.547765
vt 0.150626 0.547765
vt 0.287003 0.547713
vt 0.304106 0.547713
vt 0.304106 0.547713
vt 0.150627 0.547765
vt 0.287003 0.547713
vt 0.208064 0.547338
vt 0.228193 0.547338
vt 0.228194 0.547338
vt 0.208065 0.547338
vt 0.290863 0.236585
vt 0.290863 0.022939
vt 0.304106 0.210107
vt 0.290863 0.210107
vt 0.297182 0.236585
vt 0.297182 0.210107
vt 0.290863 0.228240
vt 0.297182 0.228240
vt 0.290863 0.224309
vt 0.297182 0.224309
vt 0.293985 0.224301
vt 0.293985 0.228248
vt 0.290982 0.224301
vt 0.290982 0.228248
vt 0.290983 0.228245
vt 0.291395 0.227705
vt 0.293984 0.228245
vt 0.293572 0.227705
vt 0.293984 0.224304
vt 0.293572 0.224844
vt 0.290983 0.224304
vt 0.291395 0.224844
vt 0.286525 0.236585
vt 0.148079 0.236585
vt 0.208064 0.236585
vt 0.208065 0.236585
vt 0.148080 0.236585
vt 0.290434 0.229167
vt 0.294533 0.229167
vt 0.228194 0.236585
vt 0.294533 0.223383
vt 0.228193 0.236585
vt 0.290434 0.223383
vt 0.286524 0.236585
vt 0.288845 0.228861
vt 0.288375 0.229195
vt 0.290605 0.231054
vt 0.290362 0.231383
vt 0.290003 0.229533
vt 0.294362 0.231054
vt 0.294604 0.231383
vt 0.296122 0.228861
vt 0.296746 0.229195
vt 0.294964 0.229533
vt 0.296122 0.223688
vt 0.296746 0.223354
vt 0.295072 0.222899
vt 0.294362 0.221496
vt 0.294604 0.221501
vt 0.294964 0.223017
vt 0.289895 0.222899
vt 0.290605 0.221496
vt 0.290362 0.221501
vt 0.288845 0.223688
vt 0.288375 0.223354
vt 0.290003 0.223017
vt 0.290362 0.231671
vt 0.290362 0.229994
vt 0.288375 0.229195
vt 0.289682 0.229195
vt 0.290429 0.229171
vt 0.296592 0.229195
vt 0.295323 0.229195
vt 0.294604 0.231671
vt 0.294604 0.229994
vt 0.294538 0.229171
vt 0.295072 0.221701
vt 0.294604 0.220878
vt 0.294604 0.221501
vt 0.296592 0.223354
vt 0.295323 0.223354
vt 0.294538 0.223378
vt 0.288375 0.223354
vt 0.289682 0.223354
vt 0.289895 0.221701
vt 0.290362 0.220878
vt 0.290362 0.221501
vt 0.290429 0.223378
vt 0.286525 0.521207
vt 0.286524 0.521207
vt 0.208064 0.521207
vt 0.148079 0.521207
vt 0.228194 0.521207
vt 0.148080 0.521207
vt 0.208065 0.521207
vt 0.228193 0.521207
vt 0.398405 0.699260
vt 0.915460 0.699260
vt 0.399363 0.209630
vt 0.916418 0.209631
vt 0.136601 0.681533
vt 0.126128 0.683661
vt 0.136601 0.681533
vt 0.136601 0.684429
vt 0.135632 0.681533
vt 0.133217 0.691873
vt 0.136601 0.700646
vt 0.136601 0.700646
vt 0.300987 0.683661
vt 0.295128 0.681533
vt 0.295128 0.684429
vt 0.295128 0.681533
vt 0.295128 0.691873
vt 0.295128 0.700646
vt 0.295128 0.700646
vt 0.125129 0.700646
vt 0.125129 0.681533
vt 0.126291 0.681533
vt 0.125129 0.681533
vt 0.125129 0.700646
vt 0.303396 0.700646
vt 0.303396 0.700646
vt 0.303396 0.681533
vt 0.303396 0.681533
vt 0.126063 0.578744
vt 0.136536 0.578744
vt 0.133048 0.578744
vt 0.136536 0.578744
vt 0.136536 0.578118
vt 0.133153 0.573675
vt 0.295128 0.578118
vt 0.295128 0.578744
vt 0.295128 0.573675
vt 0.300987 0.573675
vt 0.295128 0.578744
vt 0.125086 0.578744
vt 0.123730 0.578744
vt 0.125086 0.578744
vt 0.125086 0.578118
vt 0.303396 0.578744
vt 0.303396 0.578118
vt 0.303396 0.578744
vt 0.295128 0.568393
vt 0.295128 0.577965
vt 0.295128 0.568811
vt 0.295128 0.569057
vt 0.295128 0.579889
vt 0.295128 0.572896
vt 0.295128 0.568393
vt 0.303396 0.568393
vt 0.303396 0.568811
vt 0.303396 0.579889
vt 0.303396 0.568393
vt 0.295128 0.578744
vt 0.136536 0.578744
vt 0.136471 0.577965
vt 0.136471 0.569057
vt 0.136471 0.568811
vt 0.136471 0.579889
vt 0.136471 0.572896
vt 0.136471 0.568393
vt 0.295128 0.578744
vt 0.136536 0.578744
vt 0.125043 0.568393
vt 0.125043 0.568811
vt 0.125043 0.579889
vt 0.125043 0.568393
vt 0.295128 0.683833
vt 0.136536 0.683833
vt 0.295128 0.683833
vt 0.136536 0.683833
vt 0.293985 0.224301
vt 0.293985 0.228248
vt 0.290982 0.224301
vt 0.290982 0.228248
vt 0.290983 0.228245
vt 0.291395 0.227705
vt 0.293984 0.228245
vt 0.293572 0.227705
vt 0.293984 0.224304
vt 0.293572 0.224844
vt 0.290983 0.224304
vt 0.291395 0.224844
vt 0.290434 0.229167
vt 0.294533 0.229167
vt 0.294533 0.223383
vt 0.290434 0.223383
vt 0.288845 0.228861
vt 0.288375 0.229195
vt 0.290605 0.231054
vt 0.290362 0.231383
vt 0.290003 0.229533
vt 0.294362 0.231054
vt 0.294604 0.231383
vt 0.296122 0.228861
vt 0.296746 0.229195
vt 0.294964 0.229533
vt 0.296122 0.223688
vt 0.296746 0.223354
vt 0.295072 0.222899
vt 0.294362 0.221496
vt 0.294604 0.221501
vt 0.294964 0.223017
vt 0.289895 0.222899
vt 0.290605 0.221496
vt 0.290362 0.221501
vt 0.288845 0.223688
vt 0.288375 0.223354
vt 0.290003 0.223017
vt 0.290362 0.231671
vt 0.290362 0.229994
vt 0.288375 0.229195
vt 0.289682 0.229195
vt 0.290429 0.229171
vt 0.296592 0.229195
vt 0.295323 0.229195
vt 0.294604 0.231671
vt 0.294604 0.229994
vt 0.294538 0.229171
vt 0.295072 0.221701
vt 0.294604 0.220878
vt 0.294604 0.221501
vt 0.296592 0.223354
vt 0.295323 0.223354
vt 0.294538 0.223378
vt 0.288375 0.223354
vt 0.289682 0.223354
vt 0.289895 0.221701
vt 0.290362 0.220878
vt 0.290362 0.221501
vt 0.290429 0.223378
vt 0.713614 0.234792
vt 0.770696 0.000000
vt 0.713614 0.341752
vt 0.663736 0.000000
vt 0.352803 0.981241
vt 0.663736 0.234792
vt 0.663736 0.341752
vt 0.402681 0.981241
vt 0.770696 0.234792
vt 0.663736 0.234792
vt 0.352803 0.746449
vt 0.402681 0.746449
vt 0.663736 0.398136
vt 0.965156 0.666957
vt 0.877656 0.253084
vt 0.976758 0.666957
vt 0.675337 0.398136
vt 0.908772 0.666957
vt 0.934040 0.253084
vt 0.663736 0.341752
vt 0.675337 0.341752
vt 0.965156 0.666957
vt 0.965156 0.920041
vt 0.877656 0.000000
vt 0.976758 0.920041
vt 0.908772 0.920041
vt 0.934040 0.000000
vt 0.965156 0.920041
vt 0.877656 0.234792
vt 0.713614 0.234792
vt 0.770696 0.234792
vt 0.713614 0.341752
vt 0.352803 0.981241
vt 0.302925 0.765208
vt 0.877656 0.000000
vt 0.770696 0.000000
vt 0.352803 0.746449
vt 0.760930 0.234792
vt 0.302925 1.000000
vt 0.686939 0.398136
vt 0.965156 0.413873
vt 0.908772 0.666957
vt 0.976758 0.413873
vt 0.698540 0.398136
vt 0.934040 0.000000
vt 0.965156 0.666957
vt 0.686939 0.341752
vt 0.698540 0.341752
vt 0.990423 0.000000
vt 0.965156 0.666957
vt 0.908772 0.413873
vt 0.675337 0.341752
vt 0.976758 0.666957
vt 0.934040 0.253084
vt 0.686939 0.341752
vt 0.675337 0.398136
vt 0.965156 0.413873
vt 0.990423 0.253084
vt 0.686939 0.398136
vt 0.605849 0.745741
vt 0.331868 0.413873
vt 0.908772 0.746449
vt 0.000000 0.000000
vt 0.605849 0.413873
vt 0.302925 0.413873
vt 0.663736 0.413873
vt 0.908772 0.414581
vt 0.000000 0.413873
vt 0.331868 0.000000
vt 0.302925 0.414581
vt 0.331868 0.000000
vt 0.605849 0.413873
vt 0.000000 0.413873
vt 0.302925 0.827745
vt 0.302925 0.746449
vt 0.663736 0.000000
vt 0.000000 0.827745
vt 0.605849 0.745741
vt 0.331868 0.413873
vt 0.760930 0.341752
s 0
usemtl shop_front15
f 21/37/1 34/54/1 31/49/1 23/39/1 25/41/1 22/38/1 4/4/1 3/3/1
f 5/5/2 6/6/2 8/11/2 7/9/2
f 7/10/3 8/12/3 12/20/3 11/18/3
f 11/19/4 12/21/4 10/15/4 9/14/4
f 9/14/5 10/16/5 6/7/5 5/5/5
f 12/22/1 8/13/1 6/8/1 10/17/1
f 13/23/6 14/24/6 16/28/6 15/27/6
f 15/27/7 16/29/7 20/35/7 19/34/7
f 17/31/8 18/32/8 14/25/8 13/23/8
f 20/36/1 16/30/1 14/26/1 18/33/1
f 1/1/1 33/51/1 35/55/1 38/59/1 34/53/1 21/37/1
f 23/39/1 29/47/1 30/48/1 25/41/1
f 25/41/1 30/48/1 28/45/1 26/42/1 2/2/1 22/38/1
f 28/45/1 27/43/1 24/40/1 26/42/1
f 27/43/9 28/45/9 42/66/9 40/63/9
f 31/49/1 37/58/1 36/57/1 32/50/1 24/40/1 27/43/1 29/47/1 23/39/1
f 34/54/1 38/60/1 37/58/1 31/49/1
f 36/57/1 35/56/1 33/52/1 32/50/1
f 35/56/6 36/57/6 46/70/6 44/68/6
f 29/46/4 27/44/4 40/64/4 39/61/4
f 30/48/10 29/47/10 39/62/10 41/65/10
f 28/45/2 30/48/2 41/65/2 42/66/2
f 38/60/11 35/56/11 44/68/11 43/67/11
f 37/58/10 38/60/10 43/67/10 45/69/10
f 36/57/12 37/58/12 45/69/12 46/70/12
f 98/126/13 96/124/13 99/127/13 101/130/13
f 48/72/14 49/73/14 51/75/14 50/74/14
f 96/123/15 97/125/15 100/129/15 99/128/15
f 50/74/16 51/75/16 53/77/16 52/76/16
f 52/76/17 53/77/17 55/79/17 54/78/17
f 86/112/18 84/110/18 88/114/18 87/113/18
f 54/78/19 55/79/19 57/81/19 56/80/19
f 56/80/20 57/81/20 59/83/20 58/82/20
f 93/119/21 94/121/21 97/125/21 96/123/21
f 47/71/22 79/103/22 84/110/22 86/112/22
f 58/82/23 59/83/23 61/85/23 60/84/23
f 107/139/24 113/146/24 114/148/24 110/143/24
f 79/104/25 78/102/25 85/111/25 84/110/25
f 60/84/26 61/85/26 63/87/26 62/86/26
f 62/86/27 63/87/27 65/89/27 64/88/27
f 92/118/1 91/117/1 93/120/1 95/122/1
f 84/110/28 85/111/28 89/115/28 88/114/28
f 64/88/29 65/89/29 67/91/29 66/90/29
f 91/117/4 90/116/4 94/121/4 93/119/4
f 83/108/1 79/103/1 47/71/1 81/106/1
f 66/90/30 67/91/30 69/93/30 68/92/30
f 95/122/31 93/120/31 96/124/31 98/126/31
f 68/92/32 69/93/32 71/95/32 70/94/32
f 87/113/33 88/114/33 91/117/33 92/118/33
f 115/150/1 112/145/1 106/138/1 109/142/1
f 70/94/34 71/95/34 73/97/34 72/96/34
f 88/114/35 89/115/35 90/116/35 91/117/35
f 78/102/36 79/104/36 83/109/36 82/107/36
f 72/96/37 73/97/37 75/99/37 74/98/37
f 51/75/10 49/73/10 77/101/10 75/99/10 73/97/10 71/95/10 69/93/10 67/91/10 65/89/10 63/87/10 61/85/10 59/83/10 57/81/10 55/79/10 53/77/10
f 74/98/38 75/99/38 77/101/38 76/100/38
f 76/100/39 77/101/39 49/73/39 48/72/39
f 104/135/6 105/136/6 102/131/6 103/133/6
f 101/130/1 99/127/1 102/132/1 105/137/1
f 99/128/4 100/129/4 103/134/4 102/132/4
f 108/141/1 117/152/1 124/159/1 123/158/1
f 112/145/40 115/150/40 114/149/40 113/147/40
f 80/105/6 106/138/6 112/145/6 113/147/6 107/140/6
f 116/151/41 117/152/41 121/156/41 120/155/41
f 120/155/10 121/156/10 119/154/10 118/153/10
f 118/153/42 119/154/42 108/141/42 111/144/42
f 121/156/1 117/152/1 108/141/1 119/154/1
f 125/160/27 122/157/27 138/177/27 141/180/27
f 116/151/27 111/144/27 122/157/27 125/160/27
f 111/144/2 108/141/2 123/158/2 122/157/2
f 124/159/1 117/152/1 126/161/1 128/165/1
f 127/163/27 129/166/27 133/170/27 131/168/27
f 116/151/27 125/160/27 129/166/27 127/163/27
f 117/152/10 116/151/10 127/163/10 126/161/10
f 125/160/6 124/159/6 128/165/6 129/166/6
f 130/167/4 131/168/4 133/170/4 132/169/4
f 132/169/4 133/170/4 145/184/4 144/183/4
f 128/165/1 126/161/1 130/167/1 132/169/1
f 131/168/4 130/167/4 136/175/4 137/176/4
f 134/171/10 135/173/10 137/176/10 136/175/10
f 130/167/1 126/162/1 134/172/1 136/175/1
f 127/163/27 131/168/27 137/176/27 135/173/27
f 126/162/2 127/164/2 135/174/2 134/172/2
f 144/183/4 145/184/4 153/192/4 152/191/4
f 142/181/1 144/183/1 152/191/1 150/189/1
f 128/165/1 132/169/1 144/183/1 142/181/1
f 122/157/2 123/158/2 139/178/2 138/177/2
f 133/170/27 129/166/27 143/182/27 145/184/27
f 129/166/2 128/165/2 142/181/2 143/182/2
f 123/158/1 124/159/1 140/179/1 139/178/1
f 124/159/4 125/160/4 141/180/4 140/179/4
f 146/185/6 147/186/6 148/187/6 149/188/6
f 151/190/6 150/189/6 152/191/6 153/192/6
f 139/178/1 140/179/1 148/187/1 147/186/1
f 141/180/27 149/188/27 151/190/27 143/182/27
f 145/184/27 143/182/27 151/190/27 153/192/27
f 143/182/2 142/181/2 150/189/2 151/190/2
f 141/180/27 138/177/27 146/185/27 149/188/27
f 138/177/2 139/178/2 147/186/2 146/185/2
f 154/194/43 155/195/43 163/207/43 165/209/43
f 148/187/1 140/179/1 142/181/1 150/189/1
f 140/179/10 141/180/10 143/182/10 142/181/10
f 149/188/6 148/187/6 150/189/6 151/190/6
f 155/195/7 154/193/7 161/203/7 160/202/7
f 160/202/10 161/204/10 159/201/10 158/199/10
f 158/200/44 159/201/44 156/196/44 157/197/44
f 161/205/1 154/194/1 156/196/1 159/201/1
f 162/206/10 164/208/10 171/223/10 170/221/10
f 155/195/27 157/198/27 162/206/27 163/207/27
f 157/198/45 156/196/45 164/208/45 162/206/45
f 156/196/1 154/194/1 165/209/1 164/208/1
f 169/218/4 167/213/4 179/237/4 181/242/4
f 164/208/1 165/209/1 169/219/1 168/217/1
f 169/219/1 165/209/1 214/291/1 216/294/1
f 163/207/27 162/206/27 166/211/27 167/215/27
f 172/228/27 170/221/27 174/230/27 176/233/27
f 164/208/1 168/217/1 173/229/1 171/223/1
f 166/211/27 162/206/27 170/221/27 172/228/27
f 168/217/6 166/210/6 172/226/6 173/229/6
f 174/230/2 175/231/2 177/234/2 176/233/2
f 176/233/2 177/234/2 185/250/2 184/249/2
f 171/223/1 173/229/1 177/234/1 175/231/1
f 174/230/27 170/221/27 250/344/27 252/349/27
f 197/263/1 181/243/1 198/266/1 200/270/1
f 183/248/46 182/245/46 190/255/46 191/257/46
f 177/234/1 173/229/1 183/248/1 185/250/1
f 167/215/27 166/211/27 178/236/27 179/239/27
f 173/229/4 172/227/4 182/246/4 183/248/4
f 166/212/2 168/216/2 180/240/2 178/235/2
f 168/217/1 169/219/1 181/243/1 180/241/1
f 172/228/27 176/233/27 184/249/27 182/247/27
f 187/252/6 186/251/6 188/253/6 189/254/6
f 185/250/1 183/248/1 187/252/1 189/254/1
f 184/249/2 185/250/2 189/254/2 188/253/2
f 182/247/27 184/249/27 188/253/27 186/251/27
f 191/257/4 190/256/4 192/258/4 193/259/4
f 182/247/27 186/251/27 192/258/27 190/256/27
f 186/251/47 187/252/47 193/259/47 192/258/47
f 187/252/1 183/248/1 191/257/1 193/259/1
f 194/260/6 196/262/6 197/263/6 195/261/6
f 179/239/27 178/236/27 194/260/27 195/261/27
f 178/236/2 180/241/2 196/262/2 194/260/2
f 180/241/1 181/243/1 197/263/1 196/262/1
f 199/268/27 201/271/27 205/279/27 203/277/27
f 181/244/10 179/238/10 199/267/10 198/264/10
f 179/239/27 195/261/27 201/271/27 199/268/27
f 195/261/6 197/263/6 200/270/6 201/271/6
f 202/272/10 203/275/10 207/282/10 206/280/10
f 203/276/4 202/273/4 228/313/4 229/315/4
f 200/270/1 198/266/1 202/274/1 204/278/1
f 201/271/6 200/270/6 204/278/6 205/279/6
f 208/285/48 206/281/48 210/287/48 212/289/48
f 204/278/49 202/274/49 206/281/49 208/285/49
f 205/279/6 204/278/6 208/285/6 209/286/6
f 203/277/27 205/279/27 209/286/27 207/283/27
f 210/287/4 211/288/4 213/290/4 212/289/4
f 209/286/6 208/285/6 212/289/6 213/290/6
f 207/283/27 209/286/27 213/290/27 211/288/27
f 210/287/1 206/281/1 238/329/1 240/332/1
f 215/292/27 217/296/27 221/302/27 219/298/27
f 167/214/6 169/220/6 216/293/6 217/295/6
f 163/207/27 167/215/27 217/296/27 215/292/27
f 165/209/10 163/207/10 215/292/10 214/291/10
f 221/301/6 220/299/6 224/305/6 225/307/6
f 217/296/6 216/294/6 220/300/6 221/302/6
f 216/294/1 214/291/1 218/297/1 220/300/1
f 219/298/50 218/297/50 232/320/50 233/321/50
f 222/303/4 223/304/4 225/308/4 224/306/4
f 220/300/1 218/297/1 222/303/1 224/306/1
f 218/297/10 219/298/10 223/304/10 222/303/10
f 219/298/27 221/302/27 225/308/27 223/304/27
f 226/310/10 227/311/10 229/316/10 228/314/10
f 199/268/27 203/277/27 229/316/27 227/311/27
f 198/265/2 199/269/2 227/312/2 226/309/2
f 202/274/1 198/266/1 226/310/1 228/314/1
f 231/319/27 233/321/27 237/327/27 235/325/27
f 218/297/1 214/291/1 230/318/1 232/320/1
f 215/292/27 219/298/27 233/321/27 231/319/27
f 214/291/51 215/292/51 231/319/51 230/318/51
f 234/324/10 235/325/10 237/327/10 236/326/10
f 230/317/52 231/319/52 235/325/52 234/323/52
f 232/320/1 230/318/1 234/324/1 236/326/1
f 233/322/53 232/320/53 236/326/53 237/328/53
f 239/331/27 241/333/27 245/338/27 243/336/27
f 211/288/4 210/287/4 240/332/4 241/333/4
f 207/283/27 211/288/27 241/333/27 239/331/27
f 206/281/2 207/284/2 239/330/2 238/329/2
f 244/337/1 242/334/1 246/339/1 248/342/1
f 241/333/54 240/332/54 244/337/54 245/338/54
f 240/332/55 238/329/55 242/334/55 244/337/55
f 238/329/56 239/331/56 243/336/56 242/334/56
f 246/339/10 247/341/10 249/343/10 248/342/10
f 242/334/2 243/335/2 247/340/2 246/339/2
f 243/336/27 245/338/27 249/343/27 247/341/27
f 245/338/4 244/337/4 248/342/4 249/343/4
f 250/344/10 251/346/10 253/350/10 252/349/10
f 175/231/2 174/230/2 252/349/2 253/350/2
f 171/224/1 175/232/1 253/351/1 251/347/1
f 170/222/4 171/225/4 251/348/4 250/345/4
f 254/352/2 255/353/2 257/355/2 256/354/2
f 256/354/57 257/355/57 270/368/57 271/369/57
f 260/358/4 261/359/4 296/394/4 259/357/4 258/356/4
f 258/356/10 259/357/10 295/393/10 255/353/10 254/352/10
f 256/354/27 266/364/27 264/362/27 262/360/27 268/366/27 260/358/27 258/356/27 254/352/27
f 261/359/1 298/396/1 301/399/1 303/401/1 299/397/1 296/394/1
f 263/361/6 269/367/6 312/414/6 319/421/6
f 267/365/58 266/364/58 272/370/58 280/378/58
f 265/363/10 264/362/10 314/416/10 315/417/10
f 265/363/1 263/361/1 277/375/1 276/374/1
f 272/370/27 271/369/27 283/381/27 284/382/27
f 277/375/59 278/376/59 291/389/59 292/390/59
f 274/372/4 275/373/4 287/385/4 286/384/4
f 264/362/60 265/363/60 276/374/60 279/377/60
f 263/361/59 262/360/59 278/376/59 277/375/59
f 260/358/27 268/366/27 281/379/27 275/373/27
f 266/364/27 256/354/27 271/369/27 272/370/27
f 262/360/27 264/362/27 279/377/27 278/376/27
f 269/367/1 294/392/1 298/396/1 261/359/1 274/372/1 273/371/1
f 257/355/1 267/365/1 280/378/1 270/368/1
f 268/366/61 269/367/61 273/371/61 281/379/61
f 261/359/4 260/358/4 275/373/4 274/372/4
f 283/381/6 282/380/6 288/386/6 284/382/6
f 289/387/6 285/383/6 286/384/6 287/385/6
f 275/373/27 281/379/27 289/387/27 287/385/27
f 270/368/1 280/378/1 288/386/1 282/380/1
f 273/371/1 274/372/1 286/384/1 285/383/1
f 273/371/1 285/383/1 292/390/1 277/375/1
f 271/369/2 270/368/2 282/380/2 283/381/2
f 289/387/27 281/379/27 278/376/27 291/389/27
f 288/386/1 280/378/1 276/374/1 293/391/1
f 272/370/27 284/382/27 290/388/27 279/377/27
f 281/379/62 273/371/62 277/375/62 278/376/62
f 280/378/63 272/370/63 279/377/63 276/374/63
f 285/383/64 289/387/64 291/389/64 292/390/64
f 284/382/65 288/386/65 293/391/65 290/388/65
f 290/388/6 293/391/6 292/390/6 291/389/6
f 278/376/27 279/377/27 290/388/27 291/389/27
f 276/374/1 277/375/1 292/390/1 293/391/1
f 279/377/60 276/374/60 293/391/60 290/388/60
f 330/437/4 328/434/4 339/454/4 343/462/4
f 295/393/1 297/395/1 302/400/1 300/398/1 294/392/1 269/367/1 263/361/1 265/363/1 267/365/1 257/355/1 255/353/1
f 296/394/1 299/397/1 297/395/1 295/393/1 259/357/1
f 299/397/66 303/401/66 304/402/66 306/404/66 302/400/66 297/395/66
f 300/398/67 307/405/67 305/403/67 301/399/67 298/396/67 294/392/67
f 302/400/68 306/404/68 307/405/68 300/398/68
f 305/403/69 304/402/69 303/401/69 301/399/69
f 304/402/70 305/403/70 309/408/70 310/410/70
f 307/405/71 306/404/71 311/412/71 308/406/71
f 306/404/72 304/402/72 310/410/72 311/412/72
f 305/403/73 307/405/73 308/406/73 309/408/73
f 333/442/10 331/438/10 342/458/10 346/466/10
f 322/424/74 317/419/74 338/452/74 337/450/74 345/464/74 347/469/74
f 324/427/2 334/446/2 345/465/2 337/451/2
f 308/407/75 311/413/75 335/447/75 334/445/75 324/426/75 326/430/75
f 317/419/1 322/424/1 320/422/1 318/420/1
f 310/411/76 309/409/76 329/435/76 328/433/76 330/436/76 332/441/76
f 311/413/77 310/411/77 332/441/77 331/439/77 333/443/77 335/447/77
f 344/463/78 343/461/78 339/453/78 341/457/78 318/420/78 320/422/78
f 320/422/79 322/424/79 347/469/79 346/467/79 342/459/79 344/463/79
f 317/419/80 318/420/80 341/457/80 340/455/80 336/448/80 338/452/80
f 309/409/81 308/407/81 326/430/81 325/428/81 327/431/81 329/435/81
f 324/426/82 325/428/82 326/430/82
f 327/431/83 328/433/83 329/435/83
f 330/436/84 331/439/84 332/441/84
f 333/443/85 334/445/85 335/447/85
f 336/448/86 337/450/86 338/452/86
f 339/453/87 340/455/87 341/457/87
f 342/459/88 343/461/88 344/463/88
f 345/464/89 346/467/89 347/469/89
f 339/454/90 328/434/90 327/432/90 340/456/90
f 324/427/91 337/451/91 336/449/91 325/429/91
f 333/444/92 346/468/92 345/465/92 334/446/92
f 342/460/93 331/440/93 330/437/93 343/462/93
f 327/432/6 325/429/6 336/449/6 340/456/6
f 266/364/6 267/365/6 316/418/6 313/415/6
f 264/362/6 266/364/6 313/415/6 314/416/6
f 267/365/6 265/363/6 315/417/6 316/418/6
f 262/360/10 263/361/10 319/421/10 321/423/10
f 269/367/10 268/366/10 323/425/10 312/414/10
f 268/366/6 262/360/6 321/423/6 323/425/6
f 355/477/6 352/474/6 348/470/6 349/471/6
f 351/473/6 353/475/6 354/476/6 350/472/6
f 313/415/94 316/418/94 353/475/94 351/473/94
f 312/414/95 323/425/95 349/471/95 348/470/95
f 321/423/96 319/421/96 352/474/96 355/477/96
f 315/417/97 314/416/97 350/472/97 354/476/97
f 41/65/98 39/62/98 356/478/98 357/479/98
f 361/484/99 363/489/99 371/501/99 370/500/99
f 362/488/100 363/489/100 367/496/100 366/495/100
f 367/496/99 365/493/99 375/505/99 372/502/99
f 364/490/101 365/494/101 361/487/101 360/483/101
f 362/488/102 366/495/102 364/491/102 360/482/102
f 367/496/99 363/489/99 361/485/99 365/492/99
f 369/498/2 370/500/2 371/501/2 368/497/2
f 362/488/102 360/482/102 369/498/102 368/497/102
f 363/489/100 362/488/100 368/497/100 371/501/100
f 375/505/99 365/493/99 378/513/99 382/521/99
f 373/503/4 372/502/4 375/505/4 374/504/4
f 366/495/100 367/496/100 372/502/100 373/503/100
f 361/486/99 370/499/99 381/518/99 377/508/99
f 364/491/102 366/495/102 373/503/102 374/504/102
f 376/507/101 377/509/101 381/519/101 380/517/101
f 379/516/102 383/523/102 387/534/102 385/530/102
f 370/500/103 369/498/103 380/517/103 381/519/103
f 365/494/2 364/490/2 379/515/2 378/514/2
f 369/498/102 360/482/102 376/507/102 380/517/102
f 364/491/102 374/504/102 383/523/102 379/516/102
f 374/504/4 375/505/4 382/521/4 383/523/4
f 360/483/104 361/487/104 377/511/104 376/506/104
f 384/524/101 385/528/101 387/533/101 386/531/101
f 383/523/4 382/521/4 386/531/4 387/534/4
f 385/529/101 384/525/101 390/537/101 391/541/101
f 382/522/99 378/512/99 384/526/99 386/532/99
f 393/544/2 389/536/2 399/552/2 397/550/2
f 376/507/105 377/509/105 389/536/105 393/544/105
f 384/527/99 378/512/99 377/510/99 390/538/99
f 379/516/102 385/530/102 391/542/102 376/507/102
f 381/519/106 380/517/106 395/548/106 394/545/106
f 390/539/99 377/510/99 381/520/99 394/546/99
f 391/542/101 390/540/101 394/547/101 395/548/101
f 376/507/102 391/542/102 395/548/102 380/517/102
f 379/516/100 376/507/100 393/544/100 392/543/100
f 378/513/107 379/516/107 392/543/107 388/535/107
f 377/511/100 378/514/100 388/535/100 389/536/100
f 398/551/100 396/549/100 397/550/100 399/552/100
f 388/535/4 392/543/4 396/549/4 398/551/4
f 418/580/2 416/577/2 427/597/2 431/605/2
f 400/553/108 401/554/108 405/559/108 406/561/108
f 403/556/109 402/555/109 407/563/109 404/557/109
f 402/555/110 400/553/110 406/561/110 407/563/110
f 401/554/111 403/556/111 404/557/111 405/559/111
f 421/585/10 419/581/10 430/601/10 434/609/10
f 411/568/112 408/565/112 426/595/112 425/593/112 433/607/112 435/612/112
f 412/570/4 422/589/4 433/608/4 425/594/4
f 404/558/113 407/564/113 423/590/113 422/588/113 412/569/113 414/573/113
f 408/565/27 411/568/27 410/567/27 409/566/27
f 406/562/114 405/560/114 417/578/114 416/576/114 418/579/114 420/584/114
f 407/564/115 406/562/115 420/584/115 419/582/115 421/586/115 423/590/115
f 432/606/116 431/604/116 427/596/116 429/600/116 409/566/116 410/567/116
f 410/567/117 411/568/117 435/612/117 434/610/117 430/602/117 432/606/117
f 408/565/118 409/566/118 429/600/118 428/598/118 424/591/118 426/595/118
f 405/560/119 404/558/119 414/573/119 413/571/119 415/574/119 417/578/119
f 412/569/120 413/571/120 414/573/120
f 415/574/121 416/576/121 417/578/121
f 418/579/122 419/582/122 420/584/122
f 421/586/123 422/588/123 423/590/123
f 424/591/124 425/593/124 426/595/124
f 427/596/125 428/598/125 429/600/125
f 430/602/126 431/604/126 432/606/126
f 433/607/127 434/610/127 435/612/127
f 427/597/91 416/577/91 415/575/91 428/599/91
f 412/570/90 425/594/90 424/592/90 413/572/90
f 421/587/93 434/611/93 433/608/93 422/589/93
f 430/603/92 419/583/92 418/580/92 431/605/92
f 415/575/6 413/572/6 424/592/6 428/599/6
usemtl TRANSPARENT-GLASS
f 41/65/1 39/62/1 40/63/1 42/66/1
f 316/418/1 315/417/1 354/476/1 353/475/1
f 323/425/27 321/423/27 355/477/27 349/471/27
f 314/416/27 313/415/27 351/473/27 350/472/27
f 319/421/1 312/414/1 348/470/1 352/474/1
f 357/479/1 356/478/1 358/480/1 359/481/1
f 392/543/102 393/544/102 397/550/102 396/549/102
f 389/536/99 388/535/99 398/551/99 399/552/99
usemtl room1
f 436/613/2 437/615/2 439/619/2 438/618/2
f 443/626/1 448/637/1 447/635/1
f 445/632/2 444/629/2 443/625/2
f 440/621/1 441/622/1 437/616/1 436/614/1
f 442/624/6 439/620/6 437/617/6 441/623/6
f 443/627/6 449/639/6 445/631/6
f 448/638/10 446/634/10 450/640/10
f 458/653/1 463/665/1 462/662/1
f 460/659/2 459/656/2 458/652/2
f 454/647/1 451/641/1 452/643/1 455/648/1
f 452/644/4 451/642/4 456/650/4 474/692/4
f 457/651/128 455/649/128 452/645/128 453/646/128
f 458/654/6 464/669/6 460/658/6
f 463/666/10 461/661/10 465/670/10
f 466/672/4 468/676/4 469/679/4 467/674/4
f 468/677/1 472/686/1 473/689/1 469/680/1
f 472/687/2 470/682/2 471/684/2 473/690/2
f 468/678/129 466/673/129 470/683/129 472/688/129
f 473/691/130 471/685/130 467/675/130 469/681/130
f 462/664/4 465/671/4 464/668/4
f 443/626/1 444/628/1 448/637/1
f 445/632/2 446/633/2 444/629/2
f 443/627/6 447/636/6 449/639/6
f 448/638/10 444/630/10 446/634/10
f 458/653/1 459/655/1 463/665/1
f 460/659/2 461/660/2 459/656/2
f 458/654/6 462/663/6 464/669/6
f 463/666/10 459/657/10 461/661/10
f 462/664/4 463/667/4 465/671/4
