# Blender 3.3.1
# www.blender.org
mtllib shop_front8.mtl
o shop_front8
v -2.499999 0.000694 -0.000000
v 2.499999 0.000694 -0.000000
v -2.499999 4.805378 0.000000
v 2.499999 4.805378 0.000000
v -2.159503 2.940069 -0.004513
v -2.159503 2.940069 0.226141
v -2.159503 3.794079 -0.004513
v -2.159503 3.794079 0.226141
v 2.113434 2.940069 -0.004513
v 2.113434 2.940069 0.226141
v 2.113434 3.794079 -0.004513
v 2.113434 3.794079 0.226141
v -2.374457 3.813953 -0.003590
v -2.374457 3.813953 0.172456
v -2.374457 4.160266 -0.003590
v -2.374457 4.160266 0.172456
v -2.147646 3.813953 -0.003590
v -2.147646 3.813953 0.172456
v -2.147646 4.160266 -0.003590
v -2.147646 4.160266 0.172456
v -2.159503 2.373911 -0.004513
v -2.159503 2.373911 0.101754
v -2.159503 2.513454 -0.004513
v -2.159503 2.513454 0.101754
v 2.113434 2.373911 -0.004513
v 2.113434 2.373911 0.101754
v 2.113434 2.513454 -0.004513
v 2.113434 2.513454 0.101754
v -2.499999 2.375486 -0.000000
v 2.499999 2.375486 -0.000000
v 1.999918 2.375486 -0.000000
v 1.999918 0.000694 -0.000000
v 1.014053 2.375486 -0.000000
v 1.014053 0.000694 -0.000000
v -2.059857 2.375486 -0.000000
v -2.059857 0.000694 -0.000000
v 1.014053 0.874444 -0.000000
v -2.059857 0.874444 -0.000000
v 1.013542 0.000694 -0.040524
v 1.999918 0.000694 -0.040524
v 1.999918 2.375486 -0.040524
v -2.059857 2.375486 -0.040524
v -2.059857 0.874444 -0.040524
v -2.499999 4.744898 0.000000
v 2.499999 4.744899 0.000000
v 2.499999 4.744899 0.199020
v 2.499999 4.805378 0.199020
v -2.499999 4.805378 0.199020
v -2.499999 4.744898 0.199020
v -2.033701 0.873524 -0.042894
v -2.033701 0.873524 -0.006676
v -2.033701 1.880517 -0.042894
v -2.033701 1.880517 -0.006676
v 1.013542 2.375486 -0.040524
v -1.561445 2.377993 -0.006676
v -1.561445 2.280522 -0.042894
v -1.561445 2.280522 -0.006676
v -1.990660 1.884939 -0.006676
v -1.990660 1.884939 -0.042894
v -1.535069 2.254723 -0.042894
v -1.535069 2.254723 -0.006676
v -1.968216 2.003184 -0.006676
v -1.968216 2.003184 -0.042894
v -1.470395 2.244281 -0.042894
v -1.470395 2.244281 -0.006676
v -1.337665 2.222782 -0.042894
v -1.337665 2.222782 -0.006676
v -1.977252 1.940991 -0.042894
v -1.977252 1.940991 -0.006676
v -1.926443 2.099930 -0.006676
v -1.926443 2.099930 -0.042894
v -1.245882 2.150606 -0.042894
v -1.245882 2.150606 -0.006676
v -1.877010 2.150606 -0.006676
v -1.877010 2.150606 -0.042894
v -1.196448 2.099930 -0.042894
v -1.196448 2.099930 -0.006676
v -1.785226 2.222782 -0.006676
v -1.785226 2.222782 -0.042894
v -1.145639 1.940991 -0.006676
v -1.145639 1.940991 -0.042894
v -1.652496 2.244281 -0.006676
v -1.652496 2.244281 -0.042894
v -1.154675 2.003184 -0.042894
v -1.154675 2.003184 -0.006676
v -1.587823 2.254723 -0.006676
v -1.587823 2.254723 -0.042894
v -1.132231 1.884939 -0.042894
v -1.132231 1.884939 -0.006676
v -1.089190 1.880517 -0.006676
v -1.089190 1.880517 -0.042894
v -1.089190 0.873524 -0.006676
v -1.089190 0.873524 -0.042894
v -2.068520 1.880517 -0.042894
v -2.068520 1.882728 -0.006676
v -2.068520 0.873524 -0.006676
v -2.068520 1.884939 -0.042894
v -2.060842 2.377993 -0.006676
v -1.055140 1.880517 -0.006676
v -1.055140 0.873524 -0.006676
v -0.556794 2.377993 -0.006676
v -0.556794 2.280522 -0.042894
v -0.556794 2.280522 -0.006676
v -0.575211 2.254723 -0.042894
v -0.575211 2.254723 -0.006676
v -0.639884 2.244281 -0.042894
v -0.639884 2.244281 -0.006676
v -0.772614 2.222782 -0.042894
v -0.772614 2.222782 -0.006676
v -0.864398 2.150606 -0.042894
v -0.864398 2.150606 -0.006676
v -0.913831 2.099930 -0.042894
v -0.913831 2.099930 -0.006676
v -0.964640 1.940991 -0.006676
v -0.964640 1.940991 -0.042894
v -0.955604 2.003184 -0.042894
v -0.955604 2.003184 -0.006676
v -0.978048 1.884939 -0.042894
v -0.978048 1.884939 -0.006676
v -1.021089 1.880517 -0.006676
v -1.021089 1.880517 -0.042894
v -1.021089 0.873524 -0.006676
v -1.021089 0.873524 -0.042894
v -0.538377 2.254723 -0.042894
v -0.538377 2.254723 -0.006676
v -0.473703 2.244281 -0.042894
v -0.473703 2.244281 -0.006676
v -0.340974 2.222782 -0.042894
v -0.340974 2.222782 -0.006676
v -0.249190 2.150606 -0.042894
v -0.249190 2.150606 -0.006676
v -0.199757 2.099930 -0.042894
v -0.199757 2.099930 -0.006676
v -0.148947 1.940991 -0.006676
v -0.148947 1.940991 -0.042894
v -0.157984 2.003184 -0.042894
v -0.157984 2.003184 -0.006676
v -0.135539 1.884939 -0.042894
v -0.135539 1.884939 -0.006676
v -0.092498 1.880517 -0.006676
v -0.092498 1.880517 -0.042894
v -0.092498 0.873524 -0.006676
v -0.092498 0.873524 -0.042894
v -0.056856 1.880517 -0.006676
v -0.057680 0.873524 -0.006676
v 1.014053 0.874444 0.000207
v 0.908277 2.375486 0.000207
v 0.908276 0.874444 0.000207
v 0.441225 2.377993 -0.006676
v 0.442431 2.280522 -0.042894
v 0.441225 2.280522 -0.006676
v 0.424666 2.254723 -0.042894
v 0.424666 2.254723 -0.006676
v 0.359992 2.244281 -0.042894
v 0.359992 2.244281 -0.006676
v 0.227262 2.222782 -0.042894
v 0.227262 2.222782 -0.006676
v 0.135479 2.150606 -0.042894
v 0.135479 2.150606 -0.006676
v 0.086045 2.099930 -0.042894
v 0.086045 2.099930 -0.006676
v 0.035236 1.940991 -0.006676
v 0.035236 1.940991 -0.042894
v 0.044273 2.003184 -0.042894
v 0.044273 2.003184 -0.006676
v 0.021828 1.884939 -0.042894
v 0.021828 1.884939 -0.006676
v -0.021213 1.880517 -0.006676
v -0.021213 1.880517 -0.042894
v -0.021213 0.873524 -0.006676
v -0.021213 0.873524 -0.042894
v -0.056032 0.873524 -0.006676
v 0.908276 0.874444 -0.040524
v 0.440019 2.280522 -0.042894
v 0.930803 2.377993 -0.006676
v 0.457784 2.254723 -0.042894
v 0.457784 2.254723 -0.006676
v 0.522458 2.244281 -0.042894
v 0.522458 2.244281 -0.006676
v 0.655187 2.222782 -0.042894
v 0.655187 2.222782 -0.006676
v 0.746971 2.150606 -0.042894
v 0.746971 2.150606 -0.006676
v 0.796404 2.099930 -0.042894
v 0.796404 2.099930 -0.006676
v 0.847214 1.940991 -0.006676
v 0.847214 1.940991 -0.042894
v 0.838177 2.003184 -0.042894
v 0.838177 2.003184 -0.006676
v 0.860622 1.884939 -0.042894
v 0.860622 1.884939 -0.006676
v 0.903663 1.880517 -0.006676
v 0.903663 1.880517 -0.042894
v 0.903663 0.873524 -0.006676
v 0.903663 0.873524 -0.042894
v 0.938481 0.873524 -0.006676
v 0.938481 1.882728 -0.006676
vn -0.0000 -0.0000 1.0000
vn -1.0000 -0.0000 -0.0000
vn -0.0000 1.0000 -0.0000
vn 1.0000 -0.0000 -0.0000
vn -0.0000 -1.0000 -0.0000
vn -0.0034 -0.0067 1.0000
vn -0.0080 -0.0157 0.9998
vn -0.0113 -0.0223 0.9997
vn 0.1022 -0.9948 -0.0000
vn -0.6992 -0.7149 -0.0000
vn 0.9622 -0.2725 -0.0000
vn 0.9821 -0.1884 -0.0000
vn 0.9726 -0.2326 -0.0000
vn -0.1596 -0.9872 -0.0000
vn -0.1594 -0.9872 -0.0000
vn 0.8308 -0.5566 -0.0000
vn -0.6684 -0.7438 -0.0000
vn -0.4018 -0.9157 -0.0000
vn 0.6684 -0.7438 -0.0000
vn -0.9622 -0.2725 -0.0000
vn -0.8308 -0.5566 -0.0000
vn 0.4018 -0.9157 -0.0000
vn 0.1596 -0.9872 -0.0000
vn -0.1022 -0.9948 -0.0000
vn -0.9821 -0.1884 -0.0000
vn 0.1594 -0.9872 -0.0000
vn 0.6992 -0.7149 -0.0000
vn 0.9999 -0.0000 -0.0126
vn -0.9726 -0.2326 -0.0000
vn 0.8139 -0.5810 -0.0000
vn -0.8139 -0.5810 -0.0000
vn 0.0001 0.0001 1.0000
vn 0.0019 -0.0000 1.0000
vn 0.0020 -0.0000 1.0000
vn -0.2948 0.0259 -0.9552
vn 0.8317 -0.5551 0.0152
vn 0.8335 -0.5524 0.0124
vn 0.8416 -0.5402 -0.0000
vn -0.8317 -0.5551 0.0152
vn -0.8335 -0.5524 0.0124
vn -0.8233 -0.5669 0.0274
vn -0.0000 0.0001 1.0000
vn 0.8233 -0.5669 0.0274
vn -0.8416 -0.5402 -0.0000
vt 0.000000 0.000000
vt 1.000000 0.000000
vt 0.000000 0.982255
vt 1.000000 0.982255
vt 0.065169 0.611773
vt 0.068099 0.611773
vt 0.071858 0.621935
vt 0.074300 0.620726
vt 0.068099 0.611773
vt 0.068099 0.789518
vt 0.065169 0.789518
vt 0.071858 0.781566
vt 0.074300 0.782582
vt 0.068099 0.789518
vt 0.922687 0.611773
vt 0.921222 0.611773
vt 0.916382 0.621935
vt 0.915851 0.620726
vt 0.922687 0.611773
vt 0.921222 0.789518
vt 0.922687 0.789518
vt 0.922687 0.789518
vt 0.915851 0.782582
vt 0.916382 0.781566
vt 0.024813 0.796053
vt 0.027953 0.793654
vt 0.041724 0.796902
vt 0.038584 0.807367
vt 0.031448 0.793654
vt 0.024333 0.865733
vt 0.035960 0.853633
vt 0.025108 0.865733
vt 0.068401 0.793654
vt 0.063755 0.801814
vt 0.059315 0.799207
vt 0.060870 0.807367
vt 0.064131 0.793654
vt 0.072021 0.865733
vt 0.070471 0.865733
vt 0.063495 0.853633
vt 0.057294 0.853633
vt 0.068099 0.493938
vt 0.068099 0.504101
vt 0.097553 0.493938
vt 0.068099 0.521377
vt 0.078175 0.493938
vt 0.068099 0.522981
vt 0.097553 0.522981
vt 0.068099 0.504180
vt 0.078175 0.522981
vt 0.922687 0.504101
vt 0.922687 0.493938
vt 0.880694 0.493938
vt 0.922687 0.521377
vt 0.919586 0.493938
vt 0.922687 0.522981
vt 0.919586 0.522981
vt 0.922687 0.504180
vt 0.880694 0.522981
vt 0.000000 0.494266
vt 1.000000 0.494266
vt 0.899984 0.494266
vt 0.899984 0.000000
vt 0.702810 0.494266
vt 0.702810 0.000000
vt 0.088028 0.494266
vt 0.088028 0.000000
vt 0.702810 0.181854
vt 0.088028 0.181854
vt 0.702810 0.000000
vt 0.702708 0.000000
vt 0.899984 0.000000
vt 0.899984 0.494266
vt 0.088028 0.494266
vt 0.088028 0.181854
vt 0.000000 0.999915
vt 0.000000 0.987412
vt 1.000000 0.987413
vt 1.000000 0.999915
vt 1.000000 0.987413
vt 1.000000 1.000000
vt 0.000000 1.000000
vt 0.000000 0.987412
vt 0.093259 0.181662
vt 0.093259 0.181662
vt 0.093259 0.391248
vt 0.093259 0.391248
vt 0.702708 0.494266
vt 0.187711 0.494788
vt 0.187711 0.474501
vt 0.187711 0.474501
vt 0.101868 0.392168
vt 0.101868 0.392168
vt 0.192986 0.469132
vt 0.192986 0.469132
vt 0.106357 0.416779
vt 0.106357 0.416779
vt 0.205921 0.466958
vt 0.205921 0.466958
vt 0.232467 0.462484
vt 0.232467 0.462484
vt 0.104549 0.403834
vt 0.104549 0.403834
vt 0.114711 0.436914
vt 0.114711 0.436914
vt 0.250823 0.447462
vt 0.250823 0.447462
vt 0.124598 0.447462
vt 0.124598 0.447462
vt 0.260710 0.436914
vt 0.260710 0.436914
vt 0.142955 0.462484
vt 0.142955 0.462484
vt 0.270872 0.403834
vt 0.270872 0.403834
vt 0.169501 0.466958
vt 0.169501 0.466958
vt 0.269065 0.416779
vt 0.269065 0.416779
vt 0.182435 0.469132
vt 0.182435 0.469132
vt 0.273554 0.392168
vt 0.273554 0.392168
vt 0.282162 0.391248
vt 0.282162 0.391248
vt 0.282162 0.181662
vt 0.282162 0.181662
vt 0.086296 0.391248
vt 0.086296 0.391708
vt 0.086296 0.181662
vt 0.086296 0.392168
vt 0.087831 0.494788
vt 0.288972 0.391248
vt 0.288972 0.181662
vt 0.388641 0.494788
vt 0.388641 0.474501
vt 0.388641 0.474501
vt 0.384958 0.469132
vt 0.384958 0.469132
vt 0.372023 0.466958
vt 0.372023 0.466958
vt 0.345477 0.462484
vt 0.345477 0.462484
vt 0.327120 0.447462
vt 0.327120 0.447462
vt 0.317234 0.436914
vt 0.317234 0.436914
vt 0.307072 0.403834
vt 0.307072 0.403834
vt 0.308879 0.416779
vt 0.308879 0.416779
vt 0.304390 0.392168
vt 0.304390 0.392168
vt 0.295782 0.391248
vt 0.295782 0.391248
vt 0.295782 0.181662
vt 0.295782 0.181662
vt 0.392324 0.469132
vt 0.392324 0.469132
vt 0.405259 0.466958
vt 0.405259 0.466958
vt 0.431805 0.462484
vt 0.431805 0.462484
vt 0.450162 0.447462
vt 0.450162 0.447462
vt 0.460049 0.436914
vt 0.460049 0.436914
vt 0.470210 0.403834
vt 0.470210 0.403834
vt 0.468403 0.416779
vt 0.468403 0.416779
vt 0.472892 0.392168
vt 0.472892 0.392168
vt 0.481500 0.391248
vt 0.481500 0.391248
vt 0.481500 0.181662
vt 0.481500 0.181662
vt 0.484366 0.391248
vt 0.488629 0.391248
vt 0.488464 0.181662
vt 0.702810 0.181854
vt 0.681655 0.494266
vt 0.681655 0.181854
vt 0.588245 0.494788
vt 0.588486 0.474501
vt 0.588245 0.474501
vt 0.584933 0.469132
vt 0.584933 0.469132
vt 0.571998 0.466958
vt 0.571998 0.466958
vt 0.545452 0.462484
vt 0.545452 0.462484
vt 0.527096 0.447462
vt 0.527096 0.447462
vt 0.517209 0.436914
vt 0.517209 0.436914
vt 0.507047 0.403834
vt 0.507047 0.403834
vt 0.508854 0.416779
vt 0.508854 0.416779
vt 0.504365 0.392168
vt 0.504365 0.392168
vt 0.495757 0.391248
vt 0.491494 0.391248
vt 0.495757 0.391248
vt 0.491494 0.391248
vt 0.491494 0.181662
vt 0.491494 0.181662
vt 0.484530 0.181662
vt 0.681655 0.181854
vt 0.588004 0.474501
vt 0.681655 0.494266
vt 0.686161 0.494788
vt 0.591557 0.469132
vt 0.591557 0.469132
vt 0.604491 0.466958
vt 0.604491 0.466958
vt 0.631037 0.462484
vt 0.631037 0.462484
vt 0.649394 0.447462
vt 0.649394 0.447462
vt 0.659281 0.436914
vt 0.659281 0.436914
vt 0.669443 0.403834
vt 0.669443 0.403834
vt 0.667635 0.416779
vt 0.667635 0.416779
vt 0.672124 0.392168
vt 0.672124 0.392168
vt 0.680732 0.391248
vt 0.680732 0.391248
vt 0.680732 0.181662
vt 0.680732 0.181662
vt 0.687696 0.181662
vt 0.687696 0.391708
s 1
usemtl shop_front8
f 44/77/1 35/66/1 33/64/1
f 6/7/2 7/11/2 5/5/2
f 8/13/3 11/21/3 7/10/3
f 12/24/4 9/16/4 11/20/4
f 10/18/5 5/6/5 9/15/5
f 14/27/2 15/30/2 13/25/2
f 8/14/1 10/19/1 12/22/1
f 16/31/3 19/38/3 15/30/3
f 20/41/4 17/34/4 19/38/4
f 18/36/5 13/26/5 17/33/5
f 16/32/1 18/37/1 20/39/1
f 22/44/2 23/47/2 21/42/2
f 24/49/3 27/56/3 23/47/3
f 28/59/4 25/52/4 27/56/4
f 26/54/5 21/43/5 25/51/5
f 24/50/1 26/55/1 28/57/1
f 38/69/1 35/66/1 29/60/1
f 32/63/1 30/61/1 31/62/1
f 34/65/3 40/72/3 39/70/3
f 38/69/1 34/65/1 37/68/1
f 38/69/4 42/74/4 35/66/4
f 31/62/2 40/72/2 32/63/2
f 46/80/1 48/82/1 49/83/1
f 45/79/5 49/83/5 44/76/5
f 3/3/3 47/81/3 4/4/3
f 52/86/4 51/85/4 50/84/4
f 55/89/1 57/91/1 65/99/1
f 96/130/1 53/87/1 95/129/1
f 52/86/1 97/131/1 94/128/1
f 59/93/9 53/87/9 52/86/9
f 61/95/10 56/90/10 60/94/10
f 63/97/11 69/103/12 68/102/12
f 68/102/12 58/92/13 59/93/13
f 65/99/14 60/94/15 64/98/14
f 41/73/1 39/71/1 40/72/1
f 71/105/16 62/96/11 63/97/11
f 73/107/17 66/100/18 72/106/17
f 75/109/19 70/104/16 71/105/16
f 85/119/20 76/110/21 84/118/20
f 79/113/22 74/108/19 75/109/19
f 67/101/18 64/98/14 66/100/18
f 83/117/23 78/112/22 79/113/22
f 77/111/21 72/106/17 76/110/21
f 90/124/24 88/122/24 91/125/24
f 80/114/25 84/118/20 81/115/25
f 87/121/26 82/116/23 83/117/23
f 56/90/27 86/120/27 87/121/27
f 92/126/2 91/125/2 93/127/2
f 90/124/1 100/134/1 99/133/1
f 54/88/28 34/65/28 39/71/28
f 89/123/29 81/115/25 88/122/29
f 74/108/1 78/112/1 98/132/1
f 53/87/1 58/92/1 95/129/1
f 102/136/30 105/139/30 104/138/30
f 104/138/26 107/141/23 106/140/23
f 108/142/22 111/145/19 110/144/19
f 112/146/16 117/151/11 116/150/11
f 106/140/23 109/143/22 108/142/22
f 110/144/19 113/147/16 112/146/16
f 118/152/9 120/154/9 121/155/9
f 116/150/11 114/148/12 115/149/12
f 121/155/4 122/156/4 123/157/4
f 100/134/1 120/154/1 99/133/1
f 115/149/12 119/153/13 118/152/13
f 149/184/1 101/135/1 129/163/1
f 125/159/31 102/136/31 124/158/31
f 127/161/14 124/158/15 126/160/14
f 131/165/17 128/162/18 130/164/17
f 137/171/20 132/166/21 136/170/20
f 129/163/18 126/160/14 128/162/18
f 133/167/21 130/164/17 132/166/21
f 140/174/24 138/172/24 141/175/24
f 134/168/25 136/170/20 135/169/25
f 142/176/2 141/175/2 143/177/2
f 140/174/1 145/180/1 144/179/1
f 139/173/29 135/169/25 138/172/29
f 148/183/32 33/64/33 147/182/34
f 173/210/35 147/182/35 175/212/35
f 152/187/36 151/186/37 153/188/38
f 152/187/26 155/190/23 154/189/23
f 156/191/22 159/194/19 158/193/19
f 160/195/16 165/200/11 164/199/11
f 154/189/23 157/192/22 156/191/22
f 158/193/19 161/196/16 160/195/16
f 166/201/9 168/203/9 169/205/9
f 164/199/11 162/197/12 163/198/12
f 169/206/4 170/207/4 171/208/4
f 172/209/1 168/204/1 144/178/1
f 163/198/12 167/202/13 166/201/13
f 192/230/1 197/235/1 191/229/1
f 176/214/39 151/186/40 174/211/41
f 179/217/14 176/214/15 178/216/14
f 183/221/17 180/218/18 182/220/17
f 189/227/20 184/222/21 188/226/20
f 181/219/18 178/216/14 180/218/18
f 185/223/21 182/220/17 184/222/21
f 192/230/24 190/228/24 193/231/24
f 186/224/25 188/226/20 187/225/25
f 194/232/2 193/231/2 195/233/2
f 192/230/1 196/234/1 197/235/1
f 191/229/29 187/225/25 190/228/29
f 175/213/1 183/221/1 185/223/1
f 41/73/5 33/64/5 54/88/5
f 173/210/3 38/69/3 148/183/3
f 44/77/1 29/60/1 35/66/1
f 33/64/1 31/62/1 45/78/1
f 31/62/1 30/61/1 45/78/1
f 33/64/1 45/78/1 44/77/1
f 6/7/2 8/12/2 7/11/2
f 8/13/3 12/23/3 11/21/3
f 12/24/4 10/17/4 9/16/4
f 10/18/5 6/8/5 5/6/5
f 14/27/2 16/31/2 15/30/2
f 8/14/1 6/9/1 10/19/1
f 16/31/3 20/40/3 19/38/3
f 20/41/4 18/35/4 17/34/4
f 18/36/5 14/28/5 13/26/5
f 16/32/1 14/29/1 18/37/1
f 22/44/2 24/48/2 23/47/2
f 24/49/3 28/58/3 27/56/3
f 28/59/4 26/53/4 25/52/4
f 26/54/5 22/45/5 21/43/5
f 24/50/1 22/46/1 26/55/1
f 29/60/1 1/1/1 38/69/1
f 1/1/1 36/67/1 38/69/1
f 32/63/1 2/2/1 30/61/1
f 34/65/3 32/63/3 40/72/3
f 38/69/1 36/67/1 34/65/1
f 38/69/4 43/75/4 42/74/4
f 31/62/2 41/73/2 40/72/2
f 46/80/1 47/81/1 48/82/1
f 45/79/5 46/80/5 49/83/5
f 3/3/3 48/82/3 47/81/3
f 52/86/4 53/87/4 51/85/4
f 119/153/1 114/148/1 120/154/1
f 114/148/1 117/151/1 85/119/1
f 120/154/1 114/148/1 99/133/1
f 99/133/1 114/148/1 80/114/1
f 89/123/1 90/124/1 80/114/1
f 90/124/1 99/133/1 80/114/1
f 114/148/1 85/119/1 80/114/1
f 117/151/1 113/147/1 85/119/1
f 77/111/1 85/119/1 113/147/1
f 77/111/1 113/147/1 111/145/1
f 73/107/1 77/111/1 111/145/1
f 73/107/1 111/145/1 109/143/1
f 67/101/1 73/107/1 109/143/1
f 107/141/1 105/139/1 103/137/1
f 67/101/1 109/143/1 101/135/1
f 109/143/1 107/141/1 101/135/1
f 57/91/1 61/95/1 65/99/1
f 65/99/1 67/101/1 55/89/1
f 107/141/1 103/137/1 101/135/1
f 101/135/1 55/89/1 67/101/1
f 96/130/1 51/85/1 53/87/1
f 52/86/1 59/93/1 97/131/1
f 59/93/9 58/92/9 53/87/9
f 61/95/10 57/91/10 56/90/10
f 63/97/11 62/96/11 69/103/12
f 68/102/12 69/103/12 58/92/13
f 65/99/14 61/95/15 60/94/15
f 41/73/1 54/88/1 39/71/1
f 71/105/16 70/104/16 62/96/11
f 73/107/17 67/101/18 66/100/18
f 75/109/19 74/108/19 70/104/16
f 85/119/20 77/111/21 76/110/21
f 79/113/22 78/112/22 74/108/19
f 67/101/18 65/99/14 64/98/14
f 83/117/23 82/116/23 78/112/22
f 77/111/21 73/107/17 72/106/17
f 90/124/24 89/123/24 88/122/24
f 80/114/25 85/119/20 84/118/20
f 87/121/26 86/120/26 82/116/23
f 56/90/27 57/91/27 86/120/27
f 92/126/2 90/124/2 91/125/2
f 90/124/1 92/126/1 100/134/1
f 54/88/28 33/64/28 34/65/28
f 89/123/29 80/114/25 81/115/25
f 58/92/1 69/103/1 95/129/1
f 69/103/1 62/96/1 95/129/1
f 57/91/1 55/89/1 82/116/1
f 55/89/1 98/132/1 78/112/1
f 82/116/1 86/120/1 57/91/1
f 78/112/1 82/116/1 55/89/1
f 98/132/1 95/129/1 62/96/1
f 98/132/1 62/96/1 70/104/1
f 98/132/1 70/104/1 74/108/1
f 102/136/30 103/137/30 105/139/30
f 104/138/26 105/139/26 107/141/23
f 108/142/22 109/143/22 111/145/19
f 112/146/16 113/147/16 117/151/11
f 106/140/23 107/141/23 109/143/22
f 110/144/19 111/145/19 113/147/16
f 118/152/9 119/153/9 120/154/9
f 116/150/11 117/151/11 114/148/12
f 121/155/4 120/154/4 122/156/4
f 100/134/1 122/156/1 120/154/1
f 115/149/12 114/148/12 119/153/13
f 167/202/1 162/197/1 168/203/1
f 162/197/1 165/200/1 134/168/1
f 168/203/1 162/197/1 144/179/1
f 144/179/1 162/197/1 134/168/1
f 139/173/1 140/174/1 134/168/1
f 140/174/1 144/179/1 134/168/1
f 165/200/1 161/196/1 137/171/1
f 137/171/1 134/168/1 165/200/1
f 133/167/1 137/171/1 161/196/1
f 133/167/1 161/196/1 159/194/1
f 131/165/1 133/167/1 159/194/1
f 131/165/1 159/194/1 157/192/1
f 129/163/1 131/165/1 157/192/1
f 155/190/1 153/188/1 151/186/1
f 129/163/1 157/192/1 149/184/1
f 157/192/1 155/190/1 149/184/1
f 103/137/1 125/159/1 127/161/1
f 127/161/1 129/163/1 101/135/1
f 127/161/1 101/135/1 103/137/1
f 155/190/1 151/186/1 149/184/1
f 125/159/31 103/137/31 102/136/31
f 127/161/14 125/159/15 124/158/15
f 131/165/17 129/163/18 128/162/18
f 137/171/20 133/167/21 132/166/21
f 129/163/18 127/161/14 126/160/14
f 133/167/21 131/165/17 130/164/17
f 140/174/24 139/173/24 138/172/24
f 134/168/25 137/171/20 136/170/20
f 142/176/2 140/174/2 141/175/2
f 140/174/1 142/176/1 145/180/1
f 139/173/29 134/168/25 135/169/25
f 148/183/32 146/181/42 33/64/33
f 173/210/2 148/183/2 147/182/2
f 152/187/36 150/185/43 151/186/37
f 152/187/26 153/188/26 155/190/23
f 156/191/22 157/192/22 159/194/19
f 160/195/16 161/196/16 165/200/11
f 154/189/23 155/190/23 157/192/22
f 158/193/19 159/194/19 161/196/16
f 166/201/9 167/202/9 168/203/9
f 164/199/11 165/200/11 162/197/12
f 169/206/4 168/204/4 170/207/4
f 172/209/1 170/207/1 168/204/1
f 163/198/12 162/197/12 167/202/13
f 176/214/39 177/215/44 151/186/40
f 179/217/14 177/215/15 176/214/15
f 183/221/17 181/219/18 180/218/18
f 189/227/20 185/223/21 184/222/21
f 181/219/18 179/217/14 178/216/14
f 185/223/21 183/221/17 182/220/17
f 192/230/24 191/229/24 190/228/24
f 186/224/25 189/227/20 188/226/20
f 194/232/2 192/230/2 193/231/2
f 192/230/1 194/232/1 196/234/1
f 191/229/29 186/224/25 187/225/25
f 191/229/1 197/235/1 186/224/1
f 197/235/1 175/213/1 189/227/1
f 186/224/1 197/235/1 189/227/1
f 175/213/1 149/184/1 181/219/1
f 149/184/1 151/186/1 179/217/1
f 181/219/1 149/184/1 179/217/1
f 151/186/1 177/215/1 179/217/1
f 175/213/1 181/219/1 183/221/1
f 185/223/1 189/227/1 175/213/1
f 41/73/5 31/62/5 33/64/5
f 173/210/3 43/75/3 38/69/3
usemtl shop_front8.GLASS
f 42/74/6 173/210/7 175/212/8
f 42/74/6 43/75/1 173/210/7
