# Blender 3.3.1
# www.blender.org
mtllib shop_front7.mtl
o shop_front7
v -2.496820 -0.000003 -0.000000
v 2.496820 -0.000003 -0.000000
v -2.496820 3.581056 0.000000
v 2.496820 3.584213 0.000000
v 2.260528 -0.000003 -0.000000
v 2.260528 3.584213 0.000000
v -2.063618 3.581056 0.000000
v -2.052708 -0.000003 -0.000000
v 2.260528 2.501196 0.000000
v -2.063618 2.501196 0.000000
v 2.260528 2.459604 0.000000
v -2.063618 2.459604 0.000000
v 0.042051 2.459604 0.000000
v 0.042051 -0.000003 -0.000000
v -2.052708 -0.000003 -0.028189
v -2.063618 2.459604 -0.028189
v 0.042051 2.459604 -0.028189
v 0.042051 -0.000003 -0.028189
v 0.042051 -0.000003 -0.056891
v 2.260528 -0.000003 -0.056891
v 2.260528 2.459604 -0.056891
v 0.042051 2.459604 -0.056891
v -1.031239 1.206477 -0.020999
v -0.172302 1.206477 -0.020999
v -1.031239 2.054453 -0.020999
v -0.172302 2.054453 -0.020999
v -1.900037 1.206477 -0.020999
v -1.066674 1.206477 -0.020999
v -1.900037 2.054453 -0.020999
v -1.066674 2.054453 -0.020999
v -0.980583 2.141768 -0.020999
v -0.207674 2.141768 -0.020999
v -0.980583 2.367893 -0.020999
v -0.207674 2.367893 -0.020999
v -1.865185 2.141768 -0.020999
v -1.116810 2.141768 -0.020999
v -1.865185 2.367893 -0.020999
v -1.116810 2.367893 -0.020999
vn -0.0000 -0.0000 1.0000
vn -1.0000 -0.0000 -0.0000
vn 1.0000 -0.0000 -0.0000
vn 1.0000 0.0044 -0.0000
vn -0.0000 1.0000 -0.0000
vn -0.0000 -1.0000 -0.0000
vt 0.000000 0.000000
vt 1.000000 0.000000
vt 0.000000 0.999119
vt 1.000000 1.000000
vt 0.952681 0.000000
vt 0.950649 0.000998
vt 0.952681 1.000000
vt 0.086751 0.999119
vt 0.089192 0.002201
vt 0.088935 0.000000
vt 0.952681 0.697837
vt 0.086751 0.697837
vt 0.952681 0.686233
vt 0.952681 0.699965
vt 0.952681 0.689422
vt 0.086751 0.686233
vt 0.086751 0.683191
vt 0.086751 0.694815
vt 0.508421 0.686233
vt 0.498578 0.686233
vt 0.498578 0.699965
vt 0.498578 0.000000
vt 0.508421 0.000000
vt 0.070838 0.002665
vt 0.088935 0.000000
vt 0.086751 0.686233
vt 0.068910 0.678925
vt 0.068910 0.684516
vt 0.508421 0.686233
vt 0.508421 0.000000
vt 0.508421 0.000000
vt 0.952681 0.000000
vt 0.965171 0.000797
vt 0.952681 0.686233
vt 0.963140 0.686233
vt 0.963140 0.689747
vt 0.508421 0.686233
vt 0.293489 0.336609
vt 0.465496 0.336609
vt 0.293489 0.573195
vt 0.465496 0.573195
vt 0.119509 0.336609
vt 0.286393 0.336609
vt 0.119509 0.573195
vt 0.286393 0.573195
vt 0.303634 0.597556
vt 0.458412 0.597556
vt 0.303634 0.660645
vt 0.458412 0.660645
vt 0.126488 0.597556
vt 0.276354 0.597556
vt 0.126488 0.660645
vt 0.276354 0.660645
s 0
usemtl shop_front7
f 5/5/1 2/2/1 4/4/1 6/7/1 9/11/1 11/13/1
f 14/22/2 13/21/2 17/29/2 18/30/2
f 1/1/1 8/10/1 12/16/1 10/12/1 7/8/1 3/3/1
f 10/12/1 9/11/1 6/7/1 7/8/1
f 15/25/1 18/30/1 17/29/1 16/26/1
f 12/16/1 13/19/1 11/13/1 9/11/1 10/12/1
f 13/20/3 14/22/3 19/31/3 22/37/3
f 12/17/4 8/9/4 15/24/4 16/27/4
f 8/10/5 14/23/5 18/30/5 15/25/5
f 13/21/6 12/18/6 16/28/6 17/29/6
f 22/37/1 19/31/1 20/32/1 21/34/1
f 11/14/6 13/21/6 22/37/6 21/35/6
f 5/6/2 11/15/2 21/36/2 20/33/2
usemtl shop_front7.GLASS
f 23/38/1 24/39/1 26/41/1 25/40/1
f 27/42/1 28/43/1 30/45/1 29/44/1
f 31/46/1 32/47/1 34/49/1 33/48/1
f 35/50/1 36/51/1 38/53/1 37/52/1
