# Blender 3.3.1
# www.blender.org
mtllib shop_front5.mtl
o shop_front5
v -2.487454 0.000515 -0.000000
v 2.487454 0.000515 -0.000000
v -2.487454 2.728341 0.000000
v 2.487454 2.728341 0.000000
v -1.728126 0.000515 -0.000000
v -1.728126 2.728341 0.000000
v 1.623391 0.000515 -0.000000
v 1.726557 2.216874 0.000000
v 2.487454 2.216874 0.000000
v -1.728126 2.218770 0.000000
v 1.610948 2.216874 0.000000
v 1.726557 2.728341 0.000000
v -1.728126 0.000515 -0.068318
v 1.623391 0.000515 -0.068318
v -1.728126 2.216874 -0.068317
v 1.612079 2.216874 -0.068317
v 1.726557 2.728341 -0.019548
v 1.726557 2.218770 -0.019548
v -1.728410 2.218770 -0.050147
v -1.728410 2.728341 -0.050147
v 1.726274 2.728341 -0.069695
v 1.726274 2.218770 -0.069695
vn -0.0000 -0.0000 1.0000
vn -1.0000 -0.0054 -0.0083
vn 1.0000 -0.0000 -0.0000
vn -1.0000 -0.0000 -0.0000
vn 0.0057 -0.0000 1.0000
vn -1.0000 -0.0000 0.0057
vn 1.0000 -0.0000 -0.0057
vn -0.0082 0.9999 0.0137
vt 0.000000 0.000000
vt 1.000000 0.000000
vt 0.000000 1.000000
vt 1.000000 1.000000
vt 0.152632 0.000000
vt 0.155041 0.000000
vt 0.152632 1.000000
vt 0.155732 1.000000
vt 0.823386 0.000000
vt 0.826316 0.000000
vt 0.847053 0.812500
vt 0.841516 0.812500
vt 0.842402 0.789742
vt 1.000000 0.812500
vt 0.152632 0.812500
vt 0.155041 0.812500
vt 0.155732 0.812500
vt 0.823386 0.812500
vt 0.826316 0.812500
vt 0.823215 0.789742
vt 0.847053 1.000000
vt 0.841516 1.000000
vt 0.173452 0.000000
vt 0.173559 0.000000
vt 0.809401 0.000000
vt 0.809226 0.000000
vt 0.173452 0.812500
vt 0.173559 0.812500
vt 0.809401 0.812500
vt 0.809226 0.812500
vt 0.823215 0.814634
vt 0.847053 1.000000
vt 0.847053 0.812500
vt 0.164935 0.812500
vt 0.165808 0.812500
vt 0.164935 1.000000
vt 0.165808 1.000000
vt 0.847053 1.000000
vt 0.840077 1.000000
vt 0.847053 0.812500
vt 0.840077 0.812500
vt 0.842402 0.814634
s 0
usemtl shop_front5
f 13/23/1 14/25/1 16/29/1 15/27/1
f 12/21/1 8/11/1 9/14/1 4/4/1
f 7/9/2 11/18/2 16/30/2 14/26/2
f 7/10/1 2/2/1 9/14/1 8/11/1 11/19/1
f 1/1/1 5/5/1 10/15/1 6/7/1 3/3/1
f 10/16/3 5/6/3 13/24/3 15/28/3
f 8/12/4 12/22/4 17/32/4 18/33/4
f 19/34/5 22/40/5 21/38/5 20/36/5
f 18/33/6 17/32/6 21/39/6 22/41/6
f 6/8/7 10/17/7 19/35/7 20/37/7
f 11/20/8 8/13/8 22/42/8 16/31/8
