# Blender 3.3.1
# www.blender.org
mtllib shop_front14.mtl
o shop_front14
v -2.500000 4.254992 0.039296
v 2.500000 4.254992 0.042882
v -2.500000 2.722946 0.039296
v 2.500000 2.722946 0.042882
v 2.161295 2.722946 0.000000
v 2.161294 0.006958 -0.000000
v 0.875932 2.722946 0.000000
v 0.875932 0.006958 -0.000000
v 0.735279 2.668392 0.000000
v 0.735279 0.006958 -0.000000
v -2.046799 2.702010 0.000000
v -2.046799 0.006958 -0.000000
v 0.735279 1.023180 -0.000000
v -2.046799 1.023180 -0.000000
v 2.161294 0.078664 -0.000000
v 0.875932 0.078664 -0.000000
v 2.161295 2.722946 -0.040916
v 0.875932 2.722946 -0.040916
v 0.735279 2.668392 -0.158525
v -2.046799 2.702010 -0.158525
v 0.735279 1.023180 -0.158525
v -2.046799 1.023180 -0.158525
v 2.161294 0.078664 -0.040916
v 0.875932 0.078664 -0.040916
v 0.875932 2.722946 -0.018291
v 0.875932 0.078664 -0.018291
v 0.875932 2.722946 -0.041087
v 0.875932 0.078664 -0.041087
v 0.927374 2.722946 -0.018291
v 0.927373 0.078664 -0.018291
v 0.927374 2.722946 -0.041087
v 0.927373 0.078664 -0.041087
v 0.927374 2.333619 -0.041087
v 0.927374 2.333619 -0.018291
v 0.927374 2.292454 -0.041087
v 0.927374 2.292455 -0.018291
v 2.061929 2.333619 -0.018291
v 2.061929 2.333619 -0.041087
v 2.061929 2.292454 -0.041087
v 2.061929 2.292455 -0.018291
v 2.161295 2.722946 -0.018277
v 2.161294 0.078664 -0.018277
v 2.161295 2.722946 -0.040919
v 2.161294 0.078664 -0.040919
v 2.061547 2.722946 -0.018277
v 2.061546 0.078664 -0.018277
v 2.061546 0.078664 -0.040919
v 2.061547 2.722946 -0.040919
v -2.202013 2.709180 0.000000
v -2.202013 0.006958 -0.000000
v -2.500000 0.006958 0.039296
v 2.161294 0.006958 0.039296
v 2.500000 0.006958 0.039296
v 2.500000 2.722946 0.039296
v -2.202013 2.709180 0.039296
v 2.161295 2.722946 0.039296
v 2.161294 0.078664 0.039296
v 0.875932 2.722946 0.039292
v 0.735279 2.668392 0.039292
v -2.046799 2.702010 0.039296
v -2.202013 0.006958 0.039296
v 0.735279 0.006958 0.039289
v 0.875932 0.006958 0.039289
v 0.875932 0.078664 0.039289
v -2.384949 3.227150 0.275084
v -2.384949 3.227150 0.029682
v 0.735279 1.023180 0.039289
v -2.384949 4.153751 0.029682
v -2.384949 4.153751 0.275084
v 2.320621 3.244311 0.029682
v 2.320621 3.244311 0.275084
v 2.320621 4.170912 0.029682
v 2.320621 4.170912 0.275084
v -2.346448 3.227468 0.275084
v -2.346448 3.227468 0.029682
v -2.346448 2.848549 0.029682
v -2.346448 2.848549 0.275084
v 2.316908 2.865370 0.029682
v 2.316908 2.865370 0.275084
v 2.316908 3.244289 0.029682
v 2.316908 3.244289 0.275084
v 2.235776 2.009089 0.072928
v 2.218919 1.991234 0.072928
v 2.223856 2.003458 0.072928
v 2.218919 1.991234 0.035461
v 2.235776 2.009089 0.035461
v 2.223856 2.003458 0.035461
v 2.235776 1.845931 0.035461
v 2.218919 1.861847 0.035461
v 2.223856 1.850191 0.035461
v 2.218919 1.861847 0.072928
v 2.235776 1.845931 0.072928
v 2.223856 1.850191 0.072928
v 2.344824 1.869090 0.035461
v 2.327967 1.851235 0.035461
v 2.339887 1.856866 0.035461
v 2.327967 1.851235 0.072928
v 2.344824 1.869090 0.072928
v 2.339887 1.856866 0.072928
v 2.327967 2.014393 0.035461
v 2.344824 1.998478 0.035461
v 2.339887 2.010133 0.035461
v 2.344824 1.998478 0.072928
v 2.327967 2.014393 0.072928
v 2.339887 2.010133 0.072928
v -2.421788 4.173652 0.027749
v -2.435012 4.175650 0.028377
v -2.435012 3.820393 0.085842
v -2.435012 0.385375 0.085842
v -2.421788 3.820393 0.083747
v -2.421788 0.385375 0.083747
v -2.409857 3.820393 0.077669
v -2.409857 0.385375 0.077668
v -2.400390 3.820393 0.068201
v -2.400390 0.385375 0.068201
v -2.394311 3.820393 0.056271
v -2.394311 0.385375 0.056271
v -2.392216 3.820393 0.043046
v -2.392216 0.385375 0.043046
v -2.394311 3.820393 0.029821
v -2.394311 0.385375 0.029821
v -2.475713 3.820393 0.029821
v -2.475713 0.385375 0.029821
v -2.477808 3.820393 0.043046
v -2.477808 0.385375 0.043046
v -2.475713 3.820393 0.056271
v -2.475713 0.385375 0.056271
v -2.469635 3.820393 0.068201
v -2.469635 0.385375 0.068201
v -2.460167 3.820393 0.077669
v -2.460167 0.385375 0.077668
v -2.448237 3.820393 0.083747
v -2.448237 0.385375 0.083747
v -2.409857 4.167853 0.025926
v -2.400390 4.158821 0.023087
v -2.394311 4.147440 0.019510
v -2.392216 4.134824 0.015544
v -2.394311 4.122208 0.011579
v -2.475713 4.122208 0.011579
v -2.477808 4.134824 0.015544
v -2.475713 4.147440 0.019510
v -2.469635 4.158821 0.023087
v -2.460167 4.167853 0.025926
v -2.448237 4.173652 0.027749
v -2.433668 0.295611 0.083747
v -2.446893 0.295611 0.085842
v -2.421738 0.295611 0.077668
v -2.412270 0.295611 0.068201
v -2.406192 0.295611 0.056270
v -2.404097 0.295611 0.043046
v -2.406192 0.295611 0.029821
v -2.487594 0.295611 0.029821
v -2.489689 0.295611 0.043046
v -2.487594 0.295611 0.056270
v -2.481515 0.295611 0.068201
v -2.472048 0.295611 0.077668
v -2.460118 0.295611 0.083747
v -2.433668 0.279629 0.083708
v -2.446893 0.281724 0.083710
v -2.421738 0.273551 0.083701
v -2.412270 0.264083 0.083690
v -2.406192 0.252153 0.083676
v -2.404097 0.238928 0.083661
v -2.406192 0.225703 0.083646
v -2.412270 0.213773 0.083632
v -2.421738 0.204305 0.083621
v -2.433668 0.198227 0.083614
v -2.446893 0.196132 0.083611
v -2.460118 0.198227 0.083614
v -2.472048 0.204305 0.083621
v -2.481515 0.213773 0.083632
v -2.487594 0.225703 0.083646
v -2.489689 0.238928 0.083661
v -2.487594 0.252153 0.083676
v -2.481515 0.264083 0.083690
v -2.472048 0.273551 0.083701
v -2.460118 0.279629 0.083708
v -2.433668 0.279602 0.107267
v -2.446893 0.281696 0.107270
v -2.421738 0.273523 0.107260
v -2.412270 0.264055 0.107249
v -2.406192 0.252125 0.107236
v -2.404097 0.238901 0.107220
v -2.406192 0.225676 0.107205
v -2.412270 0.213746 0.107191
v -2.421738 0.204278 0.107180
v -2.433668 0.198199 0.107173
v -2.446893 0.196105 0.107171
v -2.460118 0.198199 0.107173
v -2.472048 0.204278 0.107180
v -2.481515 0.213746 0.107191
v -2.487594 0.225676 0.107205
v -2.489689 0.238901 0.107220
v -2.487594 0.252125 0.107236
v -2.481515 0.264055 0.107249
v -2.472048 0.273523 0.107260
v -2.460118 0.279602 0.107267
v -2.435969 0.272521 0.107097
v -2.446893 0.274251 0.107099
v -2.426114 0.267500 0.107091
v -2.418294 0.259679 0.107082
v -2.413273 0.249825 0.107071
v -2.411543 0.238901 0.107058
v -2.413273 0.227977 0.107046
v -2.418294 0.218122 0.107034
v -2.426114 0.210302 0.107025
v -2.435969 0.205281 0.107019
v -2.446893 0.203551 0.107017
v -2.457817 0.205281 0.107019
v -2.467671 0.210302 0.107025
v -2.475492 0.218122 0.107034
v -2.480513 0.227977 0.107046
v -2.482243 0.238901 0.107058
v -2.480513 0.249825 0.107071
v -2.475492 0.259679 0.107082
v -2.467671 0.267500 0.107091
v -2.457817 0.272521 0.107097
v -2.437413 0.265998 0.083554
v -2.446892 0.267499 0.083556
v -2.428863 0.261641 0.083549
v -2.422077 0.254855 0.083541
v -2.417720 0.246304 0.083531
v -2.416219 0.236826 0.083520
v -2.417720 0.227348 0.083509
v -2.422077 0.218797 0.083499
v -2.428863 0.212011 0.083491
v -2.437413 0.207654 0.083486
v -2.446892 0.206153 0.083484
v -2.456370 0.207654 0.083486
v -2.464921 0.212011 0.083491
v -2.471707 0.218797 0.083499
v -2.476063 0.227348 0.083509
v -2.477565 0.236826 0.083520
v -2.476063 0.246304 0.083531
v -2.471707 0.254855 0.083541
v -2.464921 0.261641 0.083549
v -2.456370 0.265998 0.083554
v -2.433901 0.296197 0.049513
v -2.433232 0.295740 0.045317
v -2.433901 0.295283 0.041121
v -2.435841 0.294871 0.037335
v -2.438863 0.294544 0.034331
v -2.442671 0.294335 0.032402
v -2.446892 0.294262 0.031738
v -2.451113 0.294335 0.032402
v -2.454921 0.294544 0.034331
v -2.457943 0.294871 0.037335
v -2.459883 0.295283 0.041121
v -2.460552 0.295740 0.045317
v -0.766025 2.708028 -0.040183
v -0.766025 1.021000 -0.040183
v -0.748974 2.708028 -0.042884
v -0.748974 1.021000 -0.042884
v -0.733592 2.708028 -0.050721
v -0.733592 1.021000 -0.050721
v -0.721385 2.708028 -0.062928
v -0.721385 1.021000 -0.062928
v -0.713547 2.708028 -0.078310
v -0.713547 1.021000 -0.078310
v -0.710847 2.708028 -0.095361
v -0.710847 1.021000 -0.095361
v -0.713547 2.708028 -0.112412
v -0.713547 1.021000 -0.112412
v -0.721385 2.708028 -0.127794
v -0.721385 1.021000 -0.127794
v -0.733592 2.708028 -0.140001
v -0.733592 1.021000 -0.140001
v -0.748974 2.708028 -0.147839
v -0.748974 1.021000 -0.147839
v -0.766025 2.708028 -0.150539
v -0.766025 1.021000 -0.150539
v -0.783076 2.708028 -0.147839
v -0.783076 1.021000 -0.147839
v -0.798458 2.708028 -0.140001
v -0.798458 1.021000 -0.140001
v -0.810665 2.708028 -0.127794
v -0.810665 1.021000 -0.127794
v -0.818502 2.708028 -0.112412
v -0.818502 1.021000 -0.112412
v -0.821203 2.708028 -0.095361
v -0.821203 1.021000 -0.095361
v -0.818502 2.708028 -0.078310
v -0.818502 1.021000 -0.078310
v -0.810665 2.708028 -0.062928
v -0.810665 1.021000 -0.062928
v -0.798458 2.708028 -0.050721
v -0.798458 1.021000 -0.050721
v -0.783076 2.708028 -0.042884
v -0.783076 1.021000 -0.042884
v 0.735279 1.013109 -0.033908
v -2.046799 1.013109 -0.033908
v 0.735279 2.705569 -0.033908
v -2.046799 2.705570 -0.033908
v 0.927332 0.082046 -0.053745
v 0.927332 0.082046 -0.026661
v 0.927332 1.403429 -0.053745
v 0.927332 1.403429 -0.026661
v 2.063259 0.082046 -0.053745
v 2.063259 0.082046 -0.026661
v 2.063259 1.403429 -0.053745
v 2.063259 1.403429 -0.026661
v 1.054338 1.403429 -0.026661
v 1.054350 1.403429 -0.053745
v 1.944210 1.403429 -0.053745
v 1.944229 1.403429 -0.026661
v 0.927332 2.133370 -0.026661
v 0.927332 2.133370 -0.053745
v 1.054350 2.133370 -0.053745
v 1.944091 2.133370 -0.026457
v 2.063259 2.133370 -0.026661
v 2.063259 2.133370 -0.053745
v 1.054338 2.133370 -0.026661
v 1.944088 2.133370 -0.053541
v 0.927332 2.292298 -0.026661
v 0.927332 2.292298 -0.053745
v 1.054350 2.292298 -0.053745
v 1.944091 2.292298 -0.026457
v 2.063259 2.292298 -0.026661
v 2.063259 2.292298 -0.053745
v 1.054338 2.292298 -0.026661
v 1.944088 2.292298 -0.053541
v 2.063259 1.240499 -0.026661
v 0.927332 1.240499 -0.026661
v 1.034768 1.403429 -0.026661
v 1.034768 1.240499 -0.026661
v 1.104071 1.403429 -0.026661
v 1.104071 1.240499 -0.026661
v 1.049435 1.349030 -0.026661
v 1.118739 1.349030 -0.026661
v 1.049435 1.276427 -0.026661
v 1.118739 1.276427 -0.026661
v 1.073714 1.349030 -0.026661
v 1.049435 1.325411 -0.026661
v 1.098146 1.349030 -0.026661
v 1.118739 1.328196 -0.026661
v 1.094590 1.276427 -0.026661
v 1.118739 1.296860 -0.026661
v 1.065117 1.276427 -0.026661
v 1.049435 1.295938 -0.026661
v 1.065725 1.319075 -0.020190
v 1.078390 1.331396 -0.020190
v 1.091134 1.331396 -0.020190
v 1.101878 1.304181 -0.020190
v 1.101877 1.320527 -0.020190
v 1.073906 1.293522 -0.020190
v 1.089280 1.293522 -0.020190
v 1.065725 1.303700 -0.020190
v 1.065725 1.319075 -0.010271
v 1.078390 1.331396 -0.010271
v 1.091134 1.331396 -0.010271
v 1.101878 1.304181 -0.010271
v 1.101877 1.320527 -0.010271
v 1.073906 1.293522 -0.010271
v 1.089280 1.293522 -0.010271
v 1.065725 1.303700 -0.010271
v 1.053667 1.323765 -0.008565
v 1.074929 1.344449 -0.008565
v 1.096324 1.344449 -0.008565
v 1.114359 1.298762 -0.008565
v 1.114359 1.326203 -0.008565
v 1.067401 1.280868 -0.008565
v 1.093211 1.280868 -0.008565
v 1.053667 1.297955 -0.008565
v 1.053667 1.323765 0.004866
v 1.074929 1.344449 0.004866
v 1.096324 1.344449 0.004866
v 1.114359 1.298762 0.004866
v 1.114359 1.326203 0.004866
v 1.067401 1.280868 0.004866
v 1.093211 1.280868 0.004866
v 1.053667 1.297955 0.004866
v 1.071505 1.316827 0.009308
v 1.080049 1.325139 0.009308
v 1.088647 1.325139 0.009308
v 1.095896 1.306778 0.009308
v 1.095895 1.317807 0.009308
v 1.077024 1.299588 0.009308
v 1.087397 1.299588 0.009308
v 1.071505 1.306454 0.009308
v 1.944210 1.403429 -0.040386
v 1.054350 1.403429 -0.040386
v 1.054338 1.403429 -0.035566
v 1.104071 1.403429 -0.035566
v 1.944229 1.403429 -0.035566
v 1.944210 2.146007 -0.040375
v 1.054350 2.146007 -0.040375
v 1.054338 2.146007 -0.035555
v 0.976518 2.332823 -0.075028
v 1.944229 2.146007 -0.035555
v 0.976518 2.332823 -0.021552
v 0.976518 2.383842 -0.075028
v 0.976518 2.383842 -0.021552
v 2.000300 2.332823 -0.075028
v 2.000300 2.332823 -0.021552
v 2.000300 2.383842 -0.075028
v 2.000300 2.383842 -0.021552
v 2.065510 2.383842 -0.021552
v 2.065510 2.383842 -0.075028
v 2.065510 2.332823 -0.075028
v 2.065510 2.332823 -0.021552
v 0.925915 2.383842 -0.075028
v 0.925915 2.332823 -0.075028
v 0.925915 2.332823 -0.021552
v 0.925915 2.383842 -0.021552
v 0.976518 2.681901 -0.021552
v 0.976518 2.681901 -0.075028
v 2.000056 2.681901 -0.021552
v 2.000056 2.681901 -0.075028
v 2.065510 2.681901 -0.021552
v 2.065510 2.681901 -0.075028
v 0.925915 2.681901 -0.021552
v 0.925915 2.681901 -0.075028
v 0.976518 2.724216 -0.021552
v 0.976518 2.724216 -0.075028
v 2.000056 2.724216 -0.021552
v 2.000056 2.724216 -0.075028
v 2.065510 2.724216 -0.021552
v 2.065510 2.724216 -0.075028
v 0.925915 2.724216 -0.021552
v 0.925915 2.724216 -0.075028
v 0.976518 2.681901 -0.053701
v 0.976518 2.681901 -0.042879
v 2.000056 2.681901 -0.053701
v 2.000056 2.681901 -0.042879
v 0.976518 2.380694 -0.042879
v 2.000056 2.380694 -0.042879
v 2.000056 2.380694 -0.053701
v 0.976518 2.380694 -0.053701
v -0.273029 0.088094 -1.736164
v -0.273029 1.284389 -1.736164
v -0.273029 0.088094 -2.294027
v -0.273029 1.284389 -2.294028
v 2.352994 0.088094 -1.736164
v 2.352994 1.284389 -1.736164
v 2.352994 1.284389 -2.294028
v -0.476982 1.408377 -1.663479
v -0.476982 1.278620 -1.663479
v -0.476982 1.408377 -2.294100
v -0.476982 1.278620 -2.294100
v 2.353632 1.408377 -1.663479
v 2.353632 1.278620 -1.663479
v 2.353632 1.408377 -2.294100
v 2.353632 1.278620 -2.294100
v 0.356291 0.090447 -3.147549
v 0.356291 1.286742 -3.147549
v -2.059919 1.286742 -3.705412
v -2.269732 0.090447 -3.147549
v -2.269732 1.286742 -3.147549
v 0.356291 0.090447 -3.676749
v 0.566104 1.286742 -3.705412
v -2.263872 1.408377 -3.074863
v -2.263872 1.278620 -3.074863
v -2.263872 1.408377 -3.705485
v -2.263872 1.278620 -3.705485
v 0.566741 1.408377 -3.074863
v 0.566741 1.278620 -3.074863
v 0.566741 1.408377 -3.705485
v 0.566741 1.278620 -3.705485
v -2.270806 0.083341 0.024225
v -2.270806 3.471397 0.024225
v -2.270806 0.074668 -3.687543
v -2.270806 3.462724 -3.687543
v 2.358145 0.083341 0.024225
v 2.358145 3.471397 0.024225
v 2.358145 0.074668 -3.687543
v 2.358145 3.462724 -3.687543
v 0.356291 1.286742 -3.676749
vn 1.0000 -0.0000 -0.0000
vn -1.0000 -0.0000 -0.0000
vn -0.0000 1.0000 -0.0000
vn -0.0000 -0.0000 1.0000
vn -0.0000 -1.0000 -0.0000
vn -0.0121 -0.9999 -0.0000
vn -0.0234 -0.9997 -0.0000
vn -0.0000 -0.0000 -1.0000
vn -0.0002 -0.0008 1.0000
vn -0.0002 -0.0006 1.0000
vn -0.0004 -0.0012 1.0000
vn -0.0002 -0.0007 1.0000
vn -0.0291 -0.9996 -0.0000
vn -0.0461 -0.9989 -0.0000
vn -0.0036 1.0000 -0.0000
vn 0.0036 -1.0000 -0.0000
vn -0.9800 -0.1990 -0.0000
vn -0.9816 0.1908 -0.0000
vn 0.2468 -0.9691 -0.0000
vn -0.1424 -0.9898 -0.0000
vn 0.9800 0.1990 -0.0000
vn 0.9816 -0.1908 -0.0000
vn -0.3365 -0.9417 -0.0000
vn -0.9208 -0.3901 -0.0000
vn -0.2468 0.9691 -0.0000
vn -0.4272 0.9042 -0.0000
vn -0.9272 0.3745 -0.0000
vn 0.9208 0.3901 -0.0000
vn 0.3365 0.9417 -0.0000
vn 0.1424 0.9898 -0.0000
vn 0.4272 -0.9042 -0.0000
vn 0.9272 -0.3745 -0.0000
vn -0.9302 0.0247 0.3662
vn -0.7562 0.0478 0.6526
vn -0.6351 0.1057 0.7652
vn -0.8431 0.0649 0.5338
vn -0.0000 0.0789 0.9969
vn 0.0066 -0.0009 1.0000
vn 0.3148 -0.0212 0.9489
vn 0.2685 0.0755 0.9603
vn 0.5915 -0.0392 0.8053
vn 0.5258 0.0652 0.8481
vn 0.8101 -0.0533 0.5839
vn 0.7562 0.0478 0.6526
vn 0.9498 -0.0623 0.3066
vn 0.9302 0.0247 0.3662
vn 0.2065 0.1524 0.9665
vn -0.0000 0.1581 0.9874
vn 0.9979 -0.0653 -0.0000
vn 1.0000 0.0019 0.0053
vn 0.9864 0.0172 0.1635
vn 0.8431 0.0649 0.5338
vn 0.9856 -0.0654 -0.1561
vn 0.9814 -0.0085 -0.1916
vn -0.2685 0.0755 0.9603
vn -0.2065 0.1524 0.9665
vn 0.4181 0.1350 0.8983
vn -0.5258 0.0652 0.8481
vn -0.4181 0.1350 0.8983
vn -0.9814 -0.0085 -0.1916
vn -1.0000 0.0019 0.0053
vn -0.9864 0.0172 0.1635
vn -0.9742 -0.0167 -0.2252
vn 0.9742 -0.0167 -0.2252
vn 0.6351 0.1057 0.7652
vn -0.9856 0.0645 -0.1561
vn -0.9978 0.0662 -0.0000
vn -0.9485 0.0629 0.3104
vn -0.8056 0.0533 0.5901
vn -0.5830 0.0384 0.8116
vn -0.3030 0.0197 0.9528
vn -0.9987 0.0382 -0.0344
vn -0.9402 0.1561 0.3027
vn -0.5160 0.1628 0.8410
vn -0.2501 0.0408 0.9674
vn 0.5126 0.0852 0.8544
vn 0.7740 0.1047 0.6245
vn 0.9950 -0.0935 -0.0338
vn 0.9779 -0.1305 -0.1632
vn -0.9858 0.0338 -0.1644
vn -0.7652 0.2105 0.6083
vn -0.0066 -0.0353 0.9994
vn 0.2385 -0.0002 0.9712
vn 0.9502 0.0311 0.3102
vn 0.5878 -0.8090 -0.0009
vn 0.8090 -0.5878 -0.0007
vn 0.7441 0.3049 0.5944
vn 0.9618 0.2383 0.1348
vn -0.4657 0.2631 0.8450
vn -0.1976 0.0594 0.9785
vn 0.9978 -0.0405 -0.0526
vn -0.0000 -0.0725 0.9974
vn 0.9598 -0.2787 -0.0320
vn -0.9598 -0.2787 -0.0320
vn -0.9978 -0.0405 -0.0526
vn 0.1976 0.0594 0.9785
vn -0.9618 0.2382 0.1348
vn 0.4657 0.2631 0.8450
vn -0.7441 0.3049 0.5944
vn -0.0218 -0.0012 0.9998
vn -0.0207 -0.0079 0.9998
vn 0.3090 0.9511 0.0011
vn -0.0000 1.0000 0.0012
vn -0.9511 0.3090 0.0004
vn 0.3090 -0.9511 -0.0011
vn 0.5878 0.8090 0.0009
vn -0.8090 0.5878 0.0007
vn -0.0000 -1.0000 -0.0012
vn 0.8090 0.5878 0.0007
vn -0.5878 0.8090 0.0009
vn -0.3090 -0.9511 -0.0011
vn 0.9511 0.3090 0.0004
vn -0.3090 0.9511 0.0011
vn -0.5878 -0.8090 -0.0009
vn -0.8090 -0.5878 -0.0007
vn 0.9511 -0.3090 -0.0004
vn -0.9511 -0.3090 -0.0004
vn -0.5635 -0.7839 0.2609
vn -0.2949 -0.9160 0.2719
vn -0.2998 -0.9145 0.2718
vn -0.5715 -0.7782 0.2604
vn -0.0000 -0.0229 0.9997
vn 0.0067 -0.0219 0.9997
vn 0.0176 0.0116 0.9998
vn 0.0128 0.0164 0.9998
vn -0.0207 0.0056 0.9998
vn 0.0207 0.0056 0.9998
vn -0.0176 0.0116 0.9998
vn 0.0218 -0.0012 0.9998
vn -0.0128 0.0164 0.9998
vn -0.0067 -0.0219 0.9997
vn 0.0207 -0.0079 0.9998
vn -0.0067 0.0195 0.9998
vn -0.0128 -0.0188 0.9997
vn 0.0176 -0.0140 0.9997
vn -0.0000 0.0206 0.9998
vn -0.0176 -0.0140 0.9997
vn 0.0128 -0.0188 0.9997
vn 0.0067 0.0195 0.9998
vn 0.8850 0.2635 0.3839
vn 0.5798 0.3467 0.7373
vn 0.5972 0.3361 0.7283
vn 0.8048 0.1683 0.5692
vn 0.7807 -0.5755 0.2435
vn 0.9250 -0.3090 0.2210
vn 0.9303 -0.2938 0.2198
vn 0.7888 -0.5647 0.2426
vn -0.0000 0.9939 0.1099
vn -0.3096 0.9440 0.1142
vn -0.3044 0.9457 0.1141
vn -0.7807 -0.5756 0.2434
vn -0.7888 -0.5647 0.2425
vn 0.5635 -0.7838 0.2609
vn 0.5714 -0.7782 0.2604
vn 0.3096 0.9440 0.1142
vn 0.3044 0.9457 0.1141
vn -0.9250 -0.3090 0.2210
vn -0.9494 -0.2723 0.1567
vn 0.2950 -0.9160 0.2719
vn 0.2998 -0.9145 0.2718
vn 0.5872 0.7995 0.1267
vn 0.5789 0.8056 0.1261
vn -0.9807 -0.0085 0.1956
vn -0.9620 -0.0087 0.2728
vn -0.0000 -0.9612 0.2757
vn 0.8045 0.5758 0.1459
vn 0.7963 0.5873 0.1449
vn -0.9398 0.2967 0.1696
vn -0.8850 0.2635 0.3839
vn 0.9398 0.2967 0.1697
vn -0.8045 0.5758 0.1458
vn -0.7963 0.5873 0.1448
vn 0.9806 -0.0085 0.1957
vn 0.9565 0.0154 0.2914
vn -0.5872 0.7995 0.1266
vn -0.5789 0.8056 0.1261
vn -0.5798 0.3467 0.7373
vn -0.8048 0.1683 0.5692
vn -0.5972 0.3361 0.7283
vn 0.9105 0.0240 0.4128
vn -0.3789 0.4397 0.8143
vn -0.3878 0.4365 0.8118
vn -0.1865 0.4893 0.8519
vn -0.1901 0.4887 0.8515
vn -0.0000 0.5048 0.8632
vn 0.1865 0.4893 0.8519
vn 0.1901 0.4887 0.8515
vn 0.3789 0.4397 0.8143
vn 0.3878 0.4365 0.8118
vn -0.9668 -0.2438 0.0771
vn -0.9516 -0.0744 0.2981
vn 0.3090 -0.0000 0.9511
vn 0.5878 -0.0000 0.8090
vn 0.8090 -0.0000 0.5878
vn 0.9511 -0.0000 0.3090
vn 0.9511 -0.0000 -0.3090
vn 0.8090 -0.0000 -0.5878
vn 0.5878 -0.0000 -0.8090
vn 0.3090 -0.0000 -0.9511
vn -0.3090 -0.0000 -0.9511
vn -0.5878 -0.0000 -0.8090
vn -0.8090 -0.0000 -0.5878
vn -0.9511 -0.0000 -0.3090
vn -0.9511 -0.0000 0.3090
vn -0.8090 -0.0000 0.5878
vn -0.5878 -0.0000 0.8090
vn -0.3090 -0.0000 0.9511
vn 0.0001 -0.0000 -1.0000
vn -0.0003 -0.0000 -1.0000
vn -0.0004 0.0001 -1.0000
vn 0.0004 -0.0001 1.0000
vn 0.0003 -0.0000 1.0000
vn 0.1167 0.0488 0.9920
vn 0.1115 -0.0511 0.9925
vn -0.0001 -0.0000 1.0000
vn -0.0013 0.0001 -1.0000
vn -0.0017 -0.0000 -1.0000
vn 0.0013 -0.0001 1.0000
vn 1.0000 -0.0000 0.0005
vn -1.0000 -0.0002 0.0004
vn 0.0017 -0.0000 1.0000
vn -1.0000 -0.0000 0.0001
vn -0.0002 -0.0000 1.0000
vn 0.0002 -0.0000 -1.0000
vn -0.1271 -0.0471 0.9908
vn -0.1222 0.0509 0.9912
vn 0.0454 -0.1270 0.9909
vn -0.0508 -0.1046 0.9932
vn -0.0461 0.1208 0.9916
vn 0.0471 0.1137 0.9924
vn -0.3187 0.1384 0.9377
vn -0.1408 0.3079 0.9409
vn -0.1345 -0.2895 0.9477
vn -0.3243 -0.1034 0.9403
vn 0.1262 0.2971 0.9465
vn 0.3070 0.1215 0.9439
vn 0.3000 -0.1428 0.9432
vn 0.1219 -0.3180 0.9402
vn -0.1219 -0.0385 -0.9918
vn -0.0501 -0.1081 -0.9929
vn -0.0520 -0.1071 -0.9929
vn -0.1192 -0.0443 -0.9919
vn -0.6973 0.7168 -0.0000
vn -0.7794 -0.6265 -0.0000
vn 0.6459 -0.7634 -0.0000
vn 0.7112 0.7030 -0.0000
vn 0.0459 -0.1194 -0.9918
vn 0.1123 -0.0536 -0.9922
vn 0.1131 -0.0518 -0.9922
vn 0.0430 -0.1203 -0.9918
vn 0.1150 0.0454 -0.9923
vn 0.0472 0.1109 -0.9927
vn 0.0461 0.1114 -0.9927
vn 0.1139 0.0477 -0.9923
vn -0.0533 0.1155 -0.9919
vn -0.0448 0.1177 -0.9920
vn -0.1199 0.0522 -0.9914
vn -0.1207 0.0502 -0.9914
vn -0.2087 0.0869 0.9741
vn -0.2064 -0.0766 0.9755
vn -0.1286 -0.0408 0.9909
vn -0.1304 0.0567 0.9898
vn -0.0559 -0.1206 0.9911
vn 0.0487 -0.1268 0.9907
vn 0.1244 -0.0593 0.9905
vn 0.1246 0.0492 0.9910
vn 0.0513 0.1207 0.9914
vn -0.0574 0.1248 0.9905
vn -0.0903 -0.1858 0.9784
vn 0.0744 -0.2083 0.9752
vn 0.1959 -0.0898 0.9765
vn 0.1974 0.0826 0.9768
vn -0.0776 0.2039 0.9759
vn 0.0800 0.1931 0.9779
vn 1.0000 -0.0000 -0.0039
vn -1.0000 -0.0000 -0.0026
vn -1.0000 -0.0008 -0.0000
vn -0.0000 1.0000 -0.0023
vn -0.0000 -1.0000 0.0023
vt 0.000000 1.000000
vt 1.000000 1.000000
vt 0.000000 0.639352
vt 1.000000 0.639352
vt 0.932259 0.634283
vt 0.932259 0.000000
vt 0.675186 0.639352
vt 0.675186 0.634283
vt 0.675186 0.000000
vt 0.647056 0.645879
vt 0.658631 0.626509
vt 0.647056 0.000000
vt 0.072574 0.634423
vt 0.378977 0.651228
vt 0.090640 0.634423
vt 0.090640 0.000000
vt 0.647056 0.232266
vt 0.658631 0.239222
vt 0.647056 0.239222
vt 0.090640 0.232266
vt 0.072574 0.239222
vt 0.090640 0.239222
vt 0.932259 0.016880
vt 0.675186 0.016880
vt 0.940872 0.639352
vt 0.681822 0.639352
vt 0.675186 0.639352
vt 0.646554 0.626509
vt 0.647056 0.628612
vt 0.090640 0.634423
vt 0.378977 0.633961
vt 0.647056 0.239906
vt 0.646554 0.239222
vt 0.090640 0.239906
vt 0.090640 0.239222
vt 0.932259 0.016880
vt 0.940872 0.016880
vt 0.681822 0.016880
vt 0.675186 0.016880
vt 0.675186 0.639352
vt 0.675186 0.016880
vt 0.675186 0.639352
vt 0.675186 0.016880
vt 0.685475 0.639352
vt 0.685475 0.016880
vt 0.685475 0.639352
vt 0.685475 0.016880
vt 0.685475 0.547703
vt 0.685475 0.547703
vt 0.685475 0.538013
vt 0.685475 0.538013
vt 0.912386 0.547703
vt 0.912386 0.547703
vt 0.912386 0.538013
vt 0.912386 0.538013
vt 0.932259 0.639352
vt 0.932259 0.016880
vt 0.932259 0.639352
vt 0.932259 0.016880
vt 0.919145 0.639352
vt 0.912309 0.639352
vt 0.919145 0.016880
vt 0.912309 0.016880
vt 0.912309 0.016880
vt 0.912309 0.639352
vt 0.045926 0.636111
vt 0.059598 0.636111
vt 0.045926 0.000000
vt 0.059598 0.000000
vt 0.000000 0.000000
vt 0.932259 0.000000
vt 1.000000 0.000000
vt 1.000000 0.639352
vt 0.059598 0.636111
vt 0.943001 0.639352
vt 0.932259 0.639352
vt 0.943001 0.016880
vt 0.932259 0.016880
vt 0.685602 0.639352
vt 0.675186 0.639352
vt 0.647056 0.637245
vt 0.647056 0.626509
vt 0.648063 0.626509
vt 0.378977 0.642595
vt 0.090640 0.634423
vt 0.059598 0.000000
vt 0.647056 0.000000
vt 0.675186 0.000000
vt 0.685601 0.016880
vt 0.675186 0.016880
vt 0.028823 0.762604
vt 0.023010 0.758043
vt 0.029986 0.762604
vt 0.023010 0.758043
vt 0.648063 0.239222
vt 0.647056 0.239222
vt 0.023010 0.971248
vt 0.028630 0.967547
vt 0.029986 0.967547
vt 0.023010 0.971606
vt 0.964124 0.762082
vt 0.964124 0.762082
vt 0.959241 0.766644
vt 0.964124 0.979632
vt 0.959241 0.971586
vt 0.964124 0.975646
vt 0.061714 0.758118
vt 0.030711 0.758118
vt 0.030711 0.758118
vt 0.030711 0.668919
vt 0.061714 0.668919
vt 0.030711 0.668919
vt 0.030711 0.728689
vt 0.963382 0.672879
vt 0.927727 0.672879
vt 0.963382 0.672879
vt 0.963382 0.732649
vt 0.963382 0.762077
vt 0.927727 0.762077
vt 0.963382 0.762077
vt 0.947155 0.471308
vt 0.943784 0.467105
vt 0.944771 0.469982
vt 0.943784 0.467105
vt 0.947155 0.471308
vt 0.944771 0.469982
vt 0.947155 0.432900
vt 0.943784 0.436646
vt 0.944771 0.433903
vt 0.943784 0.436646
vt 0.947155 0.432900
vt 0.944771 0.433903
vt 0.968965 0.438351
vt 0.965593 0.434148
vt 0.967977 0.435474
vt 0.965593 0.434148
vt 0.968965 0.438351
vt 0.967977 0.435474
vt 0.965593 0.472556
vt 0.968965 0.468810
vt 0.967977 0.471553
vt 0.968965 0.468810
vt 0.965593 0.472556
vt 0.967977 0.471553
vt 0.015643 0.980852
vt 0.012998 0.981322
vt 0.012998 0.897694
vt 0.012998 0.089081
vt 0.015643 0.897694
vt 0.015643 0.089081
vt 0.018028 0.897694
vt 0.018028 0.089081
vt 0.019922 0.897694
vt 0.019922 0.089081
vt 0.021138 0.897694
vt 0.021138 0.089081
vt 0.021557 0.897694
vt 0.021557 0.089081
vt 0.021138 0.897694
vt 0.021138 0.089081
vt 0.004857 0.897694
vt 0.004857 0.089081
vt 0.004438 0.897694
vt 0.004438 0.089081
vt 0.004857 0.897694
vt 0.004857 0.089081
vt 0.006073 0.897694
vt 0.006073 0.089081
vt 0.007966 0.897694
vt 0.007966 0.089081
vt 0.010353 0.897694
vt 0.010353 0.089081
vt 0.018028 0.979487
vt 0.019922 0.977361
vt 0.021138 0.974682
vt 0.021557 0.971712
vt 0.021138 0.968742
vt 0.004857 0.968742
vt 0.004438 0.971712
vt 0.004857 0.974682
vt 0.006073 0.977361
vt 0.007966 0.979487
vt 0.010353 0.980852
vt 0.013266 0.067950
vt 0.010621 0.067950
vt 0.015653 0.067950
vt 0.017546 0.067950
vt 0.018762 0.067950
vt 0.019181 0.067950
vt 0.018762 0.067950
vt 0.002481 0.067950
vt 0.002062 0.067950
vt 0.002481 0.067950
vt 0.003697 0.067950
vt 0.005590 0.067950
vt 0.007976 0.067950
vt 0.013266 0.064188
vt 0.010621 0.064681
vt 0.015653 0.062757
vt 0.017546 0.060528
vt 0.018762 0.057720
vt 0.019181 0.054606
vt 0.018762 0.051493
vt 0.017546 0.048685
vt 0.015653 0.046456
vt 0.013266 0.045025
vt 0.010621 0.044532
vt 0.007976 0.045025
vt 0.005590 0.046456
vt 0.003697 0.048685
vt 0.002481 0.051493
vt 0.002062 0.054606
vt 0.002481 0.057720
vt 0.003697 0.060528
vt 0.005590 0.062757
vt 0.007976 0.064188
vt 0.013266 0.064181
vt 0.010621 0.064674
vt 0.015653 0.062750
vt 0.017546 0.060522
vt 0.018762 0.057713
vt 0.019181 0.054600
vt 0.018762 0.051487
vt 0.017546 0.048679
vt 0.015653 0.046450
vt 0.013266 0.045019
vt 0.010621 0.044526
vt 0.007976 0.045019
vt 0.005590 0.046450
vt 0.003697 0.048679
vt 0.002481 0.051487
vt 0.002062 0.054600
vt 0.002481 0.057713
vt 0.003697 0.060522
vt 0.005590 0.062750
vt 0.007976 0.064181
vt 0.012806 0.062514
vt 0.010621 0.062922
vt 0.014777 0.061332
vt 0.016341 0.059491
vt 0.017345 0.057172
vt 0.017691 0.054600
vt 0.017345 0.052029
vt 0.016341 0.049709
vt 0.014777 0.047868
vt 0.012806 0.046686
vt 0.010621 0.046279
vt 0.008437 0.046686
vt 0.006466 0.047868
vt 0.004902 0.049709
vt 0.003897 0.052029
vt 0.003551 0.054600
vt 0.003897 0.057172
vt 0.004902 0.059491
vt 0.006466 0.061332
vt 0.008437 0.062514
vt 0.012517 0.060979
vt 0.010622 0.061332
vt 0.014227 0.059953
vt 0.015585 0.058356
vt 0.016456 0.056343
vt 0.016756 0.054112
vt 0.016456 0.051880
vt 0.015585 0.049868
vt 0.014227 0.048270
vt 0.012517 0.047245
vt 0.010622 0.046891
vt 0.008726 0.047245
vt 0.007016 0.048270
vt 0.005659 0.049868
vt 0.004787 0.051880
vt 0.004487 0.054112
vt 0.004787 0.056343
vt 0.005659 0.058356
vt 0.007016 0.059953
vt 0.008726 0.060979
vt 0.013220 0.068088
vt 0.013354 0.067980
vt 0.013220 0.067873
vt 0.012832 0.067776
vt 0.012227 0.067699
vt 0.011466 0.067649
vt 0.010622 0.067632
vt 0.009777 0.067649
vt 0.009016 0.067699
vt 0.008411 0.067776
vt 0.008023 0.067873
vt 0.007890 0.067980
vt 0.346795 0.635840
vt 0.346795 0.238708
vt 0.350205 0.635840
vt 0.350205 0.238708
vt 0.353282 0.635840
vt 0.353282 0.238708
vt 0.355723 0.635840
vt 0.355723 0.238708
vt 0.357291 0.635840
vt 0.357291 0.238708
vt 0.357831 0.635840
vt 0.357831 0.238708
vt 0.357291 0.635840
vt 0.357291 0.238708
vt 0.355723 0.635840
vt 0.355723 0.238708
vt 0.353282 0.635840
vt 0.353282 0.238708
vt 0.350205 0.635840
vt 0.350205 0.238708
vt 0.346795 0.635840
vt 0.346795 0.238708
vt 0.343385 0.635840
vt 0.343385 0.238708
vt 0.340308 0.635840
vt 0.340308 0.238708
vt 0.337867 0.635840
vt 0.337867 0.238708
vt 0.336300 0.635840
vt 0.336300 0.238708
vt 0.335759 0.635840
vt 0.335759 0.238708
vt 0.336300 0.635840
vt 0.336300 0.238708
vt 0.337867 0.635840
vt 0.337867 0.238708
vt 0.340308 0.635840
vt 0.340308 0.238708
vt 0.343385 0.635840
vt 0.343385 0.238708
vt 0.647056 0.236851
vt 0.090640 0.236851
vt 0.647056 0.635261
vt 0.090640 0.635261
vt 0.685466 0.017676
vt 0.685466 0.017676
vt 0.685466 0.328733
vt 0.685466 0.328733
vt 0.912652 0.017676
vt 0.912652 0.017676
vt 0.912652 0.328733
vt 0.912652 0.328733
vt 0.710868 0.328733
vt 0.710870 0.328733
vt 0.899693 0.328733
vt 0.888842 0.328733
vt 0.888846 0.328733
vt 0.685466 0.500564
vt 0.685466 0.500564
vt 0.710870 0.500564
vt 0.710870 0.532494
vt 0.888818 0.500564
vt 0.888818 0.504184
vt 0.888818 0.525196
vt 0.912652 0.500564
vt 0.912652 0.500564
vt 0.710868 0.500564
vt 0.710868 0.501533
vt 0.710868 0.525196
vt 0.899669 0.500564
vt 0.888818 0.500564
vt 0.888818 0.532494
vt 0.685466 0.531362
vt 0.685466 0.537976
vt 0.685466 0.537976
vt 0.710870 0.537976
vt 0.888818 0.530373
vt 0.888818 0.537976
vt 0.912652 0.530393
vt 0.912652 0.537976
vt 0.912652 0.537976
vt 0.710868 0.531362
vt 0.710868 0.537976
vt 0.888818 0.537976
vt 0.912652 0.290379
vt 0.685466 0.290379
vt 0.706954 0.328733
vt 0.706954 0.290379
vt 0.720814 0.328733
vt 0.720814 0.290379
vt 0.709887 0.315928
vt 0.723748 0.315928
vt 0.709887 0.298837
vt 0.723748 0.298837
vt 0.714743 0.315928
vt 0.709887 0.310368
vt 0.719629 0.315928
vt 0.723748 0.311023
vt 0.718918 0.298837
vt 0.723748 0.303647
vt 0.713023 0.298837
vt 0.709887 0.303430
vt 0.713145 0.308876
vt 0.715678 0.311777
vt 0.718227 0.311777
vt 0.720376 0.305370
vt 0.720375 0.309218
vt 0.714781 0.302861
vt 0.717856 0.302861
vt 0.713145 0.305257
vt 0.713145 0.308876
vt 0.715678 0.311777
vt 0.718227 0.311777
vt 0.720376 0.305370
vt 0.720375 0.309218
vt 0.714781 0.302861
vt 0.717856 0.302861
vt 0.713145 0.305257
vt 0.710733 0.309980
vt 0.714986 0.314849
vt 0.719265 0.314849
vt 0.722872 0.304094
vt 0.722872 0.310554
vt 0.713480 0.299882
vt 0.718642 0.299882
vt 0.710733 0.303905
vt 0.710733 0.309980
vt 0.714986 0.314849
vt 0.719265 0.314849
vt 0.722872 0.304094
vt 0.722872 0.310554
vt 0.713480 0.299882
vt 0.718642 0.299882
vt 0.710733 0.303905
vt 0.714301 0.308347
vt 0.716010 0.310304
vt 0.717729 0.310304
vt 0.719179 0.305982
vt 0.719179 0.308578
vt 0.715405 0.304289
vt 0.717479 0.304289
vt 0.714301 0.305905
vt 0.888842 0.328733
vt 0.710870 0.328733
vt 0.710868 0.328733
vt 0.720814 0.328733
vt 0.888846 0.328733
vt 0.888842 0.503538
vt 0.710870 0.503538
vt 0.710868 0.503538
vt 0.695786 0.547516
vt 0.888846 0.503538
vt 0.697006 0.552688
vt 0.695786 0.547516
vt 0.695786 0.559525
vt 0.695786 0.564232
vt 0.695786 0.559525
vt 0.899583 0.547516
vt 0.899583 0.547516
vt 0.900804 0.552688
vt 0.899583 0.559525
vt 0.905397 0.559525
vt 0.909349 0.559525
vt 0.899583 0.559525
vt 0.904428 0.564232
vt 0.909349 0.559525
vt 0.912565 0.559525
vt 0.912565 0.564232
vt 0.912565 0.559525
vt 0.912565 0.547516
vt 0.912565 0.547516
vt 0.913785 0.552688
vt 0.685712 0.559525
vt 0.685712 0.547516
vt 0.686933 0.552688
vt 0.685712 0.547516
vt 0.685712 0.564232
vt 0.685712 0.559525
vt 0.695786 0.629689
vt 0.695786 0.629689
vt 0.904379 0.629689
vt 0.909300 0.629689
vt 0.899535 0.629689
vt 0.905348 0.629689
vt 0.909300 0.629689
vt 0.899535 0.629689
vt 0.912565 0.629689
vt 0.912565 0.629689
vt 0.685712 0.629689
vt 0.685712 0.629689
vt 0.695786 0.639651
vt 0.695786 0.639651
vt 0.899535 0.639651
vt 0.899535 0.639651
vt 0.912565 0.639651
vt 0.912565 0.639651
vt 0.685712 0.639651
vt 0.685712 0.639651
vt 0.695786 0.629689
vt 0.695786 0.629689
vt 0.899535 0.629689
vt 0.899535 0.629689
vt 0.695786 0.558784
vt 0.899535 0.558784
vt 0.899535 0.558784
vt 0.695786 0.558784
vt 0.713614 0.234792
vt 0.770696 0.000000
vt 0.713614 0.341752
vt 0.663736 0.000000
vt 0.352803 0.981241
vt 0.663736 0.234792
vt 0.663736 0.341752
vt 0.402681 0.981241
vt 0.770696 0.234792
vt 0.663736 0.234792
vt 0.352803 0.746449
vt 0.402681 0.746449
vt 0.663736 0.398136
vt 0.965156 0.666957
vt 0.877656 0.253084
vt 0.976758 0.666957
vt 0.675337 0.398136
vt 0.908772 0.666957
vt 0.934040 0.253084
vt 0.663736 0.341752
vt 0.675337 0.341752
vt 0.965156 0.666957
vt 0.965156 0.920041
vt 0.877656 0.000000
vt 0.976758 0.920041
vt 0.908772 0.920041
vt 0.934040 0.000000
vt 0.965156 0.920041
vt 0.877656 0.234792
vt 0.713614 0.234792
vt 0.770696 0.234792
vt 0.713614 0.341752
vt 0.352803 0.981241
vt 0.302925 0.765208
vt 0.877656 0.000000
vt 0.770696 0.000000
vt 0.352803 0.746449
vt 0.760930 0.234792
vt 0.302925 1.000000
vt 0.686939 0.398136
vt 0.965156 0.413873
vt 0.908772 0.666957
vt 0.976758 0.413873
vt 0.698540 0.398136
vt 0.934040 0.000000
vt 0.965156 0.666957
vt 0.686939 0.341752
vt 0.698540 0.341752
vt 0.990423 0.000000
vt 0.965156 0.666957
vt 0.908772 0.413873
vt 0.675337 0.341752
vt 0.976758 0.666957
vt 0.934040 0.253084
vt 0.686939 0.341752
vt 0.675337 0.398136
vt 0.965156 0.413873
vt 0.990423 0.253084
vt 0.686939 0.398136
vt 0.605849 0.745741
vt 0.331868 0.413873
vt 0.908772 0.746449
vt 0.000000 0.000000
vt 0.605849 0.413873
vt 0.302925 0.413873
vt 0.663736 0.413873
vt 0.908772 0.414581
vt 0.000000 0.413873
vt 0.331868 0.000000
vt 0.302925 0.414581
vt 0.331868 0.000000
vt 0.605849 0.413873
vt 0.000000 0.413873
vt 0.302925 0.827745
vt 0.302925 0.746449
vt 0.663736 0.000000
vt 0.000000 0.827745
vt 0.605849 0.745741
vt 0.331868 0.413873
vt 0.760930 0.341752
s 1
usemtl shop_front14
f 50/68/1 49/66/1 55/74/1 61/86/1
f 66/94/2 65/91/2 69/98/2 68/97/2
f 14/20/3 13/17/3 21/32/3 22/34/3
f 16/24/1 7/7/1 58/79/1 64/89/1
f 7/7/1 16/24/1 24/38/1 18/26/1
f 13/19/4 14/22/4 12/16/4 10/12/4
f 15/23/4 16/24/4 8/9/4 6/6/4
f 5/5/5 7/8/5 18/27/5 17/25/5
f 13/18/2 9/11/2 19/28/2 21/33/2
f 16/24/3 15/23/3 23/36/3 24/39/3
f 15/23/2 5/5/2 17/25/2 23/37/2
f 11/13/1 14/21/1 22/35/1 20/30/1
f 9/10/6 11/14/7 20/31/6 19/29/6
f 25/40/2 27/42/2 28/43/2 26/41/2
f 29/44/1 34/49/1 33/48/1 31/46/1
f 26/41/5 28/43/5 32/47/5 30/45/5
f 25/40/4 26/41/4 30/45/4 36/51/4 34/49/4 29/44/4
f 27/42/3 25/40/3 29/44/3 31/46/3
f 28/43/8 27/42/8 31/46/8 33/48/8 35/50/8 32/47/8
f 38/53/1 37/52/1 40/55/1 39/54/1
f 34/49/4 36/51/4 40/55/4 37/52/4
f 35/50/1 36/51/1 30/45/1 32/47/1
f 33/48/3 34/49/3 37/52/3 38/53/3
f 36/51/5 35/50/5 39/54/5 40/55/5
f 35/50/8 33/48/8 38/53/8 39/54/8
f 42/57/1 44/59/1 43/58/1 41/56/1
f 46/62/2 45/60/2 48/65/2 47/64/2
f 44/59/5 42/57/5 46/63/5 47/64/5
f 43/58/8 44/59/8 47/64/8 48/65/8
f 41/56/3 43/58/3 48/65/3 45/61/3
f 42/57/4 41/56/4 45/61/4 46/63/4
f 51/70/4 61/86/4 55/74/9 3/3/10
f 49/67/4 50/69/4 12/16/4 14/22/4 11/15/4
f 3/3/10 55/74/9 60/85/11 59/82/12 58/80/9 56/76/9 54/73/10 2/2/11 1/1/11
f 56/76/9 57/78/4 52/71/4 53/72/4 54/73/10
f 5/5/2 15/23/2 57/77/2 56/75/2
f 11/14/7 9/10/6 59/81/6 60/84/13
f 15/23/2 6/6/2 52/71/2 57/78/2
f 4/4/2 2/2/2 54/73/2
f 7/8/5 5/5/5 56/76/5 58/80/5
f 49/67/14 11/15/7 60/85/13 55/74/14
f 59/82/12 67/96/4 62/87/4 63/88/4 64/90/4 58/80/9
f 8/9/1 16/24/1 64/90/1 63/88/1
f 9/11/2 13/18/2 67/95/2 59/83/2
f 13/19/2 10/12/2 62/87/2 67/96/2
f 68/97/15 69/99/15 73/105/15 72/104/15
f 10/12/5 8/9/5 63/88/5 62/87/5
f 72/104/1 73/105/1 71/103/1 70/101/1
f 73/106/4 69/100/4 65/92/4 71/102/4
f 80/118/1 81/119/1 79/115/1 78/114/1
f 76/110/2 77/111/2 74/107/2 75/109/2
f 71/103/16 65/93/16 66/94/16 70/101/16
f 75/109/15 74/108/15 81/120/15 80/118/15
f 81/120/4 74/108/4 77/112/4 79/116/4
f 79/117/16 77/113/16 76/110/16 78/114/16
f 103/142/4 105/144/4 104/143/4 82/121/4 84/123/4 83/122/4 91/130/4 93/132/4 92/131/4 97/136/4 99/138/4 98/137/4
f 89/128/17 91/130/17 83/122/18 85/124/18
f 97/136/19 92/131/20 88/127/20 95/134/19
f 101/140/21 103/142/21 98/137/22 94/133/22
f 88/127/20 92/131/20 93/132/23 90/129/23
f 90/129/24 93/132/24 91/130/17 89/128/17
f 82/121/25 86/125/25 87/126/26 84/123/26
f 84/123/27 87/126/27 85/124/18 83/122/18
f 103/142/21 101/140/21 102/141/28 105/144/28
f 105/144/29 102/141/29 100/139/30 104/143/30
f 97/136/19 95/134/19 96/135/31 99/138/31
f 99/138/32 96/135/32 94/133/22 98/137/22
f 86/125/25 82/121/25 104/143/30 100/139/30
f 126/165/33 128/167/34 142/181/35 141/180/36
f 108/147/37 109/148/38 111/150/39 110/149/40
f 110/149/40 111/150/39 113/152/41 112/151/42
f 112/151/42 113/152/41 115/154/43 114/153/44
f 114/153/44 115/154/43 117/156/45 116/155/46
f 108/147/37 110/149/40 106/145/47 107/146/48
f 116/155/46 117/156/45 119/158/49 118/157/50
f 116/155/46 118/157/50 137/176/51 136/175/52
f 118/157/50 119/158/49 121/160/53 120/159/54
f 132/171/55 108/147/37 107/146/48 144/183/56
f 110/149/40 112/151/42 134/173/57 106/145/47
f 128/167/34 130/169/58 143/182/59 142/181/35
f 122/161/60 124/163/61 140/179/62 139/178/63
f 118/157/50 120/159/54 138/177/64 137/176/51
f 112/151/42 114/153/44 135/174/65 134/173/57
f 130/169/58 132/171/55 144/183/56 143/182/59
f 122/161/60 123/162/66 125/164/67 124/163/61
f 124/163/61 126/165/33 141/180/36 140/179/62
f 124/163/61 125/164/67 127/166/68 126/165/33
f 126/165/33 127/166/68 129/168/69 128/167/34
f 128/167/34 129/168/69 131/170/70 130/169/58
f 130/169/58 131/170/70 133/172/71 132/171/55
f 114/153/44 116/155/46 136/175/52 135/174/65
f 132/171/55 133/172/71 109/148/38 108/147/37
f 127/166/68 125/164/67 153/192/72 154/193/73
f 133/172/71 131/170/70 156/195/74 157/196/75
f 115/154/43 113/152/41 147/186/76 148/187/77
f 121/160/53 119/158/49 150/189/78 151/190/79
f 125/164/67 123/162/66 152/191/80 153/192/72
f 131/170/70 129/168/69 155/194/81 156/195/74
f 109/148/38 133/172/71 157/196/75 146/185/82
f 113/152/41 111/150/39 145/184/83 147/186/76
f 119/158/49 117/156/45 149/188/84 150/189/78
f 129/168/69 127/166/68 154/193/73 155/194/81
f 111/150/39 109/148/38 146/185/82 145/184/83
f 117/156/45 115/154/43 148/187/77 149/188/84
f 166/205/85 165/204/86 185/224/86 186/225/85
f 149/188/84 148/187/77 161/200/87 162/201/88
f 157/196/75 156/195/74 176/215/89 177/216/90
f 150/189/78 149/188/84 162/201/88 163/202/91
f 146/185/82 157/196/75 177/216/90 159/198/92
f 151/190/79 150/189/78 163/202/91 164/203/93
f 153/192/72 152/191/80 172/211/94 173/212/95
f 145/184/83 146/185/82 159/198/92 158/197/96
f 154/193/73 153/192/72 173/212/95 174/213/97
f 147/186/76 145/184/83 158/197/96 160/199/98
f 155/194/81 154/193/73 174/213/97 175/214/99
f 148/187/77 147/186/76 160/199/98 161/200/87
f 156/195/74 155/194/81 175/214/99 176/215/89
f 183/222/100 182/221/101 202/241/101 203/242/100
f 158/197/102 159/198/103 179/218/103 178/217/102
f 174/213/97 173/212/95 193/232/2 194/233/104
f 167/206/105 166/205/85 186/225/85 187/226/105
f 160/199/106 158/197/102 178/217/102 180/219/106
f 175/214/107 174/213/97 194/233/104 195/234/107
f 168/207/108 167/206/105 187/226/105 188/227/108
f 161/200/109 160/199/106 180/219/106 181/220/109
f 176/215/110 175/214/107 195/234/107 196/235/110
f 169/208/111 168/207/108 188/227/108 189/228/111
f 162/201/88 161/200/109 181/220/109 182/221/112
f 177/216/113 176/215/110 196/235/110 197/236/113
f 170/209/114 169/208/111 189/228/111 190/229/114
f 163/202/91 162/201/88 182/221/112 183/222/1
f 159/198/103 177/216/113 197/236/113 179/218/103
f 171/210/115 170/209/114 190/229/114 191/230/115
f 164/203/93 163/202/91 183/222/1 184/223/116
f 172/211/94 171/210/115 191/230/115 192/231/117
f 165/204/86 164/203/93 184/223/116 185/224/86
f 173/212/95 172/211/94 192/231/117 193/232/2
f 200/239/118 198/237/119 218/257/120 220/259/121
f 179/218/122 197/236/123 217/256/123 199/238/122
f 191/230/124 190/229/125 210/249/125 211/250/124
f 184/223/126 183/222/100 203/242/100 204/243/126
f 192/231/127 191/230/124 211/250/124 212/251/127
f 185/224/128 184/223/126 204/243/126 205/244/128
f 193/232/129 192/231/127 212/251/127 213/252/129
f 186/225/130 185/224/128 205/244/128 206/245/130
f 178/217/131 179/218/122 199/238/122 198/237/131
f 194/233/132 193/232/129 213/252/129 214/253/132
f 187/226/133 186/225/130 206/245/130 207/246/133
f 180/219/134 178/217/131 198/237/131 200/239/134
f 195/234/135 194/233/132 214/253/132 215/254/135
f 188/227/136 187/226/133 207/246/133 208/247/136
f 181/220/137 180/219/134 200/239/134 201/240/137
f 196/235/138 195/234/135 215/254/135 216/255/138
f 189/228/139 188/227/136 208/247/136 209/248/139
f 182/221/101 181/220/137 201/240/137 202/241/101
f 197/236/123 196/235/138 216/255/138 217/256/123
f 190/229/125 189/228/139 209/248/139 210/249/125
f 232/271/140 231/270/141 247/286/142 248/287/143
f 215/254/144 214/253/145 234/273/146 235/274/147
f 208/247/148 207/246/149 227/266/150 228/267/148
f 201/240/151 200/239/118 220/259/121 221/260/152
f 216/255/153 215/254/144 235/274/147 236/275/154
f 209/248/155 208/247/148 228/267/148 229/268/156
f 202/241/157 201/240/151 221/260/152 222/261/158
f 217/256/159 216/255/153 236/275/154 237/276/160
f 210/249/161 209/248/155 229/268/156 230/269/162
f 203/242/163 202/241/157 222/261/158 223/262/164
f 199/238/165 217/256/159 237/276/160 219/258/165
f 211/250/166 210/249/161 230/269/162 231/270/167
f 204/243/168 203/242/163 223/262/164 224/263/169
f 212/251/170 211/250/166 231/270/167 232/271/140
f 205/244/171 204/243/168 224/263/169 225/264/172
f 213/252/173 212/251/170 232/271/140 233/272/174
f 206/245/175 205/244/171 225/264/172 226/265/176
f 198/237/119 199/238/165 219/258/165 218/257/120
f 214/253/145 213/252/173 233/272/174 234/273/146
f 207/246/149 206/245/175 226/265/176 227/266/150
f 225/264/177 224/263/169 240/279/178 241/280/179
f 233/272/174 232/271/140 248/287/143 249/288/180
f 226/265/181 225/264/177 241/280/179 242/281/182
f 227/266/183 226/265/181 242/281/182 243/282/184
f 228/267/185 227/266/183 243/282/184 244/283/185
f 229/268/186 228/267/185 244/283/185 245/284/187
f 230/269/188 229/268/186 245/284/187 246/285/189
f 223/262/164 222/261/158 238/277/190 239/278/191
f 231/270/141 230/269/188 246/285/189 247/286/142
f 224/263/169 223/262/164 239/278/191 240/279/178
f 250/289/4 251/290/4 253/292/192 252/291/192
f 252/291/192 253/292/192 255/294/193 254/293/193
f 254/293/193 255/294/193 257/296/194 256/295/194
f 256/295/194 257/296/194 259/298/195 258/297/195
f 258/297/195 259/298/195 261/300/1 260/299/1
f 260/299/1 261/300/1 263/302/196 262/301/196
f 262/301/196 263/302/196 265/304/197 264/303/197
f 264/303/197 265/304/197 267/306/198 266/305/198
f 266/305/198 267/306/198 269/308/199 268/307/199
f 268/307/199 269/308/199 271/310/8 270/309/8
f 270/309/8 271/310/8 273/312/200 272/311/200
f 272/311/200 273/312/200 275/314/201 274/313/201
f 274/313/201 275/314/201 277/316/202 276/315/202
f 276/315/202 277/316/202 279/318/203 278/317/203
f 278/317/203 279/318/203 281/320/2 280/319/2
f 280/319/2 281/320/2 283/322/204 282/321/204
f 282/321/204 283/322/204 285/324/205 284/323/205
f 284/323/205 285/324/205 287/326/206 286/325/206
f 286/325/206 287/326/206 289/328/207 288/327/207
f 288/327/207 289/328/207 251/290/4 250/289/4
f 294/333/2 295/334/2 323/374/2 297/336/2 296/335/2
f 303/342/8 296/335/8 307/347/8 308/348/208
f 300/339/1 301/340/1 322/373/1 299/338/1 298/337/1
f 298/337/5 299/338/5 295/334/5 294/333/5
f 296/335/8 303/342/8 304/344/209 300/339/210 298/337/8 294/333/8
f 301/340/211 305/345/212 326/377/4 329/380/4 335/386/213 337/388/214 331/382/4 327/378/4 322/373/4
f 306/346/4 312/355/215 320/370/215 314/361/4
f 302/341/3 326/377/3 383/434/3 382/433/3
f 300/339/210 304/344/209 313/359/216 311/354/216
f 311/354/216 313/359/216 321/372/217 319/369/217
f 305/345/212 301/340/211 310/353/218 309/350/218
f 302/341/219 303/342/219 308/348/219 312/355/219
f 296/335/2 297/336/2 306/346/2 307/347/2
f 297/336/4 324/375/4 302/341/4 312/355/215 306/346/4
f 304/343/220 305/345/220 309/350/220 313/358/220
f 301/340/1 300/339/1 311/354/1 310/353/1
f 315/363/3 314/362/3 320/371/3 316/364/3
f 321/372/3 317/366/3 318/368/3 319/369/3
f 309/350/218 310/353/218 318/367/221 317/365/221
f 307/347/2 306/346/2 314/362/2 315/363/2
f 313/359/222 309/350/222 317/366/222 321/372/222
f 320/370/215 312/356/215 309/351/223 317/365/223
f 310/353/1 311/354/1 319/369/1 318/368/1
f 308/348/208 307/347/8 315/363/8 316/364/208
f 308/348/208 316/364/208 321/372/224 313/359/224
f 312/357/5 308/349/5 313/360/5 309/352/5
f 316/364/3 320/371/3 317/366/3 321/372/3
f 322/373/4 327/378/4 325/376/4 323/374/4 295/334/4 299/338/4
f 325/376/4 330/381/4 339/390/225 333/384/226 328/379/4 324/375/4 297/336/4 323/374/4
f 327/378/4 331/382/4 336/387/227 338/389/228 330/381/4 325/376/4
f 328/379/4 332/383/229 334/385/230 329/380/4 326/377/4 302/341/4 324/375/4
f 330/381/4 338/389/228 339/390/225
f 342/393/3 341/392/3 349/400/3 350/401/3
f 333/384/226 332/383/229 328/379/4
f 334/385/230 335/386/213 329/380/4
f 337/388/214 336/387/227 331/382/4
f 332/383/229 333/384/226 340/391/231 341/392/232
f 339/390/225 338/389/228 345/396/233 347/398/234
f 335/386/213 334/385/230 342/393/235 344/395/236
f 334/385/230 332/383/229 341/392/232 342/393/235
f 333/384/226 339/390/225 347/398/234 340/391/231
f 336/387/227 337/388/214 343/394/237 346/397/238
f 338/389/228 336/387/227 346/397/238 345/396/233
f 337/388/214 335/386/213 344/395/236 343/394/237
f 355/406/239 353/404/240 361/412/241 363/414/242
f 340/391/2 347/398/2 355/406/2 348/399/2
f 345/396/5 346/397/5 354/405/5 353/404/5
f 343/394/1 344/395/1 352/403/1 351/402/1
f 341/392/243 340/391/243 348/399/243 349/400/243
f 347/398/244 345/396/244 353/404/244 355/406/244
f 346/397/245 343/394/245 351/402/245 354/405/245
f 344/395/246 342/393/246 350/401/246 352/403/246
f 359/410/1 360/411/1 368/419/1 367/418/1
f 354/405/247 351/402/248 359/410/249 362/413/250
f 352/403/251 350/401/252 358/409/253 360/411/254
f 350/401/252 349/400/255 357/408/256 358/409/253
f 348/399/257 355/406/239 363/414/242 356/407/258
f 353/404/240 354/405/247 362/413/250 361/412/241
f 351/402/248 352/403/251 360/411/254 359/410/249
f 349/400/255 348/399/257 356/407/258 357/408/256
f 364/415/259 371/422/260 379/430/261 372/423/262
f 357/408/243 356/407/243 364/415/243 365/416/243
f 363/414/244 361/412/244 369/420/244 371/422/244
f 362/413/245 359/410/245 367/418/245 370/421/245
f 360/411/246 358/409/246 366/417/246 368/419/246
f 358/409/3 357/408/3 365/416/3 366/417/3
f 356/407/2 363/414/2 371/422/2 364/415/2
f 361/412/5 362/413/5 370/421/5 369/420/5
f 379/430/261 377/428/263 378/429/264 375/426/265 376/427/266 374/425/267 373/424/268 372/423/262
f 369/420/269 370/421/270 378/429/264 377/428/263
f 367/418/271 368/419/272 376/427/266 375/426/265
f 365/416/273 364/415/259 372/423/262 373/424/268
f 371/422/260 369/420/269 377/428/263 379/430/261
f 370/421/270 367/418/271 375/426/265 378/429/264
f 368/419/272 366/417/274 374/425/267 376/427/266
f 366/417/274 365/416/273 373/424/268 374/425/267
f 326/377/3 305/345/3 384/435/3 383/434/3
f 303/342/3 302/341/3 382/433/3 381/432/3
f 305/345/3 304/344/3 380/431/3 384/435/3
f 304/344/3 303/342/3 381/432/3 380/431/3
f 386/437/3 387/438/3 389/440/3 385/436/3
f 384/435/275 380/431/275 385/436/275 389/440/275
f 381/432/276 382/433/276 387/438/276 386/437/276
f 390/441/4 392/444/4 404/465/4 403/463/4
f 391/443/3 392/445/3 396/452/3 395/449/3
f 394/447/5 393/446/5 399/458/5 400/459/5
f 393/446/5 394/447/5 390/442/5 388/439/5
f 391/443/8 395/449/8 393/446/8 388/439/8
f 396/453/4 392/444/4 390/441/4 394/448/4
f 398/457/1 397/455/1 400/459/1 399/458/1
f 393/446/8 395/449/8 398/457/8 399/458/8
f 396/453/4 394/448/4 400/460/4 397/456/4
f 398/457/8 395/450/8 408/472/8 410/476/8
f 402/462/2 403/464/2 404/466/2 401/461/2
f 391/443/8 388/439/8 402/462/8 401/461/8
f 404/465/4 392/444/4 405/467/4 411/477/4
f 388/439/5 390/442/5 403/464/5 402/462/5
f 412/478/2 411/477/2 419/485/2 420/486/2
f 406/468/8 412/478/8 420/486/8 414/480/8
f 391/443/8 401/461/8 412/478/8 406/468/8
f 392/445/1 391/443/1 406/468/1 405/467/1
f 401/461/2 404/466/2 411/477/2 412/478/2
f 397/455/1 398/457/1 410/476/1 409/475/1
f 396/453/4 397/456/4 409/475/4 407/469/4
f 395/451/277 396/454/277 407/470/277 408/473/277
f 416/482/3 415/481/3 417/483/3 418/484/3
f 413/479/3 414/480/3 420/486/3 419/485/3
f 410/476/8 408/474/8 416/482/8 418/484/8
f 408/474/2 407/471/2 415/481/2 416/482/2
f 411/477/4 405/467/4 413/479/4 419/485/4
f 407/471/4 409/475/4 417/483/4 415/481/4
f 409/475/1 410/476/1 418/484/1 417/483/1
f 414/480/3 413/479/3 415/481/3 416/482/3
f 422/488/2 421/487/2 428/494/2 425/491/2
f 406/468/8 414/480/8 416/482/8 408/474/8
f 413/479/4 405/467/4 407/471/4 415/481/4
f 408/474/4 407/471/4 424/490/4 423/489/4
f 406/468/5 408/474/5 423/489/5 421/487/5
f 407/471/5 405/467/5 422/488/5 424/490/5
f 405/467/3 406/468/3 421/487/3 422/488/3
f 425/491/5 428/494/5 427/493/5 426/492/5
f 423/489/1 424/490/1 426/492/1 427/493/1
usemtl TRANSPARENT-GLASS
f 292/331/4 293/332/4 291/330/4 290/329/4
f 380/431/8 381/432/8 386/437/8 385/436/8
f 383/434/4 384/435/4 389/440/4 387/438/4 382/433/4
f 424/490/4 422/488/4 425/491/4 426/492/4
f 421/487/8 423/489/8 427/493/8 428/494/8
s 0
usemtl room1
f 429/495/2 430/497/2 432/501/2 431/500/2
f 436/508/4 441/519/4 440/517/4
f 438/514/2 437/511/2 436/507/2
f 433/503/4 434/504/4 430/498/4 429/496/4
f 435/506/3 432/502/3 430/499/3 434/505/3
f 436/509/3 442/521/3 438/513/3
f 441/520/5 439/516/5 443/522/5
f 451/535/4 456/547/4 455/544/4
f 453/541/2 452/538/2 451/534/2
f 447/529/4 444/523/4 445/525/4 448/530/4
f 445/526/1 444/524/1 449/532/1 467/574/1
f 450/533/3 448/531/3 445/527/3 446/528/3
f 451/536/3 457/551/3 453/540/3
f 456/548/5 454/543/5 458/552/5
f 459/554/1 461/558/1 462/561/1 460/556/1
f 461/559/4 465/568/4 466/571/4 462/562/4
f 465/569/2 463/564/2 464/566/2 466/572/2
f 461/560/278 459/555/278 463/565/278 465/570/278
f 466/573/279 464/567/279 460/557/279 462/563/279
f 455/546/1 458/553/1 457/550/1
f 436/508/4 437/510/4 441/519/4
f 438/514/2 439/515/2 437/511/2
f 436/509/3 440/518/3 442/521/3
f 441/520/5 437/512/5 439/516/5
f 451/535/4 452/537/4 456/547/4
f 453/541/2 454/542/2 452/538/2
f 451/536/3 455/545/3 457/551/3
f 456/548/5 452/539/5 454/543/5
f 455/546/1 456/549/1 458/553/1
