# Blender 3.3.1
# www.blender.org
mtllib shop_front17_derelict.mtl
o shop_front17_derelict
v -2.499188 4.090593 0.000589
v 2.499993 4.090593 0.000000
v -0.370732 4.090593 0.000589
v 2.349409 4.090593 0.000000
v -0.369531 3.665479 0.000000
v 2.349409 3.665479 0.000000
v 2.349409 3.219640 0.000000
v -0.369531 3.219640 0.000000
v -0.309536 3.219640 -0.010416
v -0.309536 3.610483 -0.010416
v 2.278664 3.219640 -0.010416
v 2.278664 3.610483 -0.010416
v 1.603598 3.610483 -0.010416
v 1.603598 3.219640 -0.010416
v 1.640679 3.610483 -0.010416
v 1.640679 3.219640 -0.010416
v 0.953612 3.219640 -0.010416
v 0.953612 3.610483 -0.010416
v 0.986595 3.219640 -0.010416
v 0.986595 3.610483 -0.010416
v 0.310043 3.610483 -0.010416
v 0.310043 3.219640 -0.010416
v 0.339380 3.219640 -0.010416
v 0.339380 3.610483 -0.010416
v 1.630972 3.617780 -0.009001
v 1.613304 3.617780 -0.009001
v 1.613304 3.219640 -0.009001
v 1.630972 3.219640 -0.009001
v 0.977961 3.617780 -0.009001
v 0.962245 3.617780 -0.009001
v 0.962246 3.219640 -0.009001
v 0.977961 3.219640 -0.009001
v 0.331701 3.617780 -0.009001
v 0.317722 3.617780 -0.009001
v 0.317722 3.219640 -0.009001
v 0.331701 3.219640 -0.009001
v -0.370476 3.617305 0.000000
v -2.500418 3.617305 0.000000
v -2.499665 3.716294 -0.033795
v -2.059808 4.090593 -0.000011
v -2.033065 3.716294 -0.033517
v -0.968594 4.090593 0.001767
v 2.499993 4.312816 0.100506
v 2.499993 4.435163 0.100506
v -2.498573 4.435163 0.100506
v -2.498573 4.312816 0.100506
v 2.499993 4.301400 0.092360
v 2.499993 4.223409 0.067387
v 2.499993 4.278141 0.079874
v 2.499993 4.249594 0.070733
v -2.498573 4.223409 0.067387
v -2.498573 4.301400 0.092360
v -2.498573 4.249594 0.070733
v -2.498573 4.278141 0.079874
v -0.958337 -0.002484 -0.033240
v -0.958337 -0.002484 0.033240
v -0.958337 3.617301 -0.033240
v -0.958337 3.617301 0.033240
v 2.500026 -0.002246 -0.000000
v -0.369871 -0.002126 -0.000000
v -0.370211 3.617301 -0.033240
v -0.370211 3.617301 0.033240
v -1.001835 3.650299 0.050821
v -1.001835 3.650299 -0.033240
v -0.326713 3.650299 -0.033240
v -0.326713 3.650299 0.050821
v -1.029440 3.716294 0.050821
v -1.029440 3.716294 -0.033240
v -0.299108 3.716294 -0.033240
v -0.299108 3.716294 0.050821
v -2.500087 -0.002484 0.033240
v -2.499807 3.617301 0.033240
v -2.076670 -0.002484 -0.033240
v -2.076670 -0.002484 0.033240
v -2.076670 3.617301 -0.033240
v -2.076670 3.617301 0.033240
v -2.499558 3.650299 0.050821
v -2.060670 3.650299 -0.033240
v -2.060670 3.650299 0.050821
v -2.499665 3.716294 0.050821
v -2.033065 3.716294 0.050821
v 2.349409 -0.001768 -0.000000
v 2.500026 3.219162 0.000000
v -2.079288 -0.001543 -0.000000
v -0.955032 -0.001543 -0.000000
v -2.079288 2.812158 0.000000
v -0.955032 2.812158 0.000000
v -1.988182 2.737918 0.000000
v -1.988182 0.152541 -0.000000
v -1.015540 0.152541 -0.000000
v -1.015540 2.737918 0.000000
v -1.988182 2.737918 -0.030618
v -1.988182 0.152541 -0.030618
v -1.015540 0.152541 -0.030618
v -1.015540 2.737918 -0.030618
v -2.079288 3.615194 0.000000
v -0.955032 3.615194 0.000000
v -0.986724 2.813197 0.000000
v -1.984960 2.813197 0.000000
v -0.986724 3.592557 0.000000
v -1.984960 3.592557 0.000000
v -0.986724 2.813197 -0.028123
v -1.984960 2.813197 -0.028123
v -0.986724 3.592557 -0.028123
v -1.984960 3.592557 -0.028123
v -1.027774 2.864303 -0.028123
v -1.924111 2.864303 -0.028123
v -1.027774 3.543251 -0.028123
v -1.924111 3.543251 -0.028123
v -0.955032 2.246945 0.000000
v -2.079288 2.221517 0.000000
v -2.079288 2.221517 0.011999
v -2.079288 -0.001543 0.011999
v -0.955032 -0.001543 0.011999
v -0.955032 2.246945 0.011999
v -2.421898 0.674811 -3.520494
v -2.421898 0.674811 -0.032971
v -2.421898 4.162334 -3.520494
v -2.421898 4.162334 -0.032971
v 2.421898 0.674811 -3.520494
v 2.421898 0.674811 -0.032971
v 2.421898 4.162334 -3.520494
v 2.421898 4.162334 -0.032971
vn -0.0000 1.0000 -0.0000
vn -0.0000 -0.0000 1.0000
vn 0.0001 -0.0007 1.0000
vn -0.1457 -0.0000 0.9893
vn -0.0000 -0.1861 0.9825
vn 0.1711 -0.0000 0.9853
vn -0.0000 0.1904 -0.9817
vn 0.1812 -0.0000 0.9834
vn -0.1812 -0.0000 0.9834
vn -0.0000 -1.0000 -0.0000
vn 0.1618 -0.0000 0.9868
vn -0.1618 -0.0000 0.9868
vn -0.0000 -1.0000 -0.0001
vn 0.1443 -0.0000 0.9895
vn -0.1443 -0.0000 0.9895
vn -0.0000 -1.0000 0.0001
vn -0.0000 -0.0012 1.0000
vn -0.0000 -1.0000 -0.0027
vn 0.0001 -0.4497 0.8932
vn -0.0000 -0.5809 0.8140
vn -0.0000 -0.4730 0.8811
vn -0.0000 -0.3049 0.9524
vn -0.0000 -0.1267 0.9919
vn -1.0000 -0.0000 -0.0000
vn -0.0000 -0.4702 0.8826
vn 1.0000 0.0001 -0.0000
vn 0.0006 -1.0000 -0.0000
vn 0.0282 -0.0046 0.9996
vn -0.6044 -0.7967 -0.0000
vn 0.6044 -0.7967 -0.0000
vn -0.9225 -0.3859 -0.0000
vn 0.9225 -0.3859 -0.0000
vn 1.0000 -0.0000 -0.0000
vn 0.8998 -0.4363 -0.0000
vn -0.0000 -0.0000 -1.0000
vn -0.0226 0.9997 -0.0000
vt 0.000165 0.922353
vt 0.671883 0.922353
vt 0.286156 0.922353
vt 0.651650 0.922353
vt 0.286318 0.826556
vt 0.651650 0.826556
vt 0.651650 0.720313
vt 0.651650 0.726088
vt 0.286318 0.720313
vt 0.286318 0.726088
vt 0.294379 0.726088
vt 0.294379 0.814163
vt 0.642144 0.726088
vt 0.642144 0.814163
vt 0.551438 0.814163
vt 0.551438 0.726088
vt 0.556421 0.814163
vt 0.556421 0.726088
vt 0.464103 0.726088
vt 0.464103 0.814163
vt 0.468534 0.726088
vt 0.468534 0.814163
vt 0.377629 0.814163
vt 0.377629 0.726088
vt 0.381571 0.726088
vt 0.381571 0.814163
vt 0.555116 0.815807
vt 0.552742 0.815807
vt 0.552742 0.726088
vt 0.555116 0.726088
vt 0.467374 0.815807
vt 0.465263 0.815807
vt 0.465263 0.726088
vt 0.467374 0.726088
vt 0.380539 0.815807
vt 0.378661 0.815807
vt 0.378661 0.726088
vt 0.380539 0.726088
vt 0.286191 0.815700
vt 0.000000 0.815700
vt 0.000101 0.838007
vt 0.059203 0.922353
vt 0.062796 0.838007
vt 0.057009 0.838007
vt 0.205824 0.922353
vt 0.671883 0.972430
vt 0.671883 1.000000
vt 0.000248 1.000000
vt 0.000248 0.972430
vt 0.671883 0.969857
vt 0.671883 0.952282
vt 0.671883 0.964616
vt 0.671883 0.958183
vt 0.000248 0.952282
vt 0.000248 0.969857
vt 0.000248 0.958183
vt 0.000248 0.964616
vt 0.207203 0.000000
vt 0.212124 0.000000
vt 0.207203 0.000000
vt 0.207203 0.815699
vt 0.206875 0.815699
vt 0.212124 0.815699
vt 0.207203 0.815699
vt 0.212780 0.815699
vt 0.671887 0.000054
vt 0.287314 0.000081
vt 0.286272 0.000081
vt 0.282581 0.815699
vt 0.286226 0.815699
vt 0.286487 0.815699
vt 0.201358 0.823135
vt 0.206935 0.823135
vt 0.207920 0.823135
vt 0.201030 0.823135
vt 0.287644 0.823135
vt 0.292071 0.823135
vt 0.197649 0.838007
vt 0.197649 0.848458
vt 0.204210 0.838007
vt 0.197649 0.838007
vt 0.295780 0.838007
vt 0.290312 0.838007
vt 0.295780 0.848458
vt 0.295780 0.838007
vt 0.000045 0.000000
vt 0.000082 0.815699
vt 0.056937 0.000000
vt 0.052344 0.000000
vt 0.056937 0.000000
vt 0.056937 0.815699
vt 0.051150 0.815699
vt 0.052344 0.815699
vt 0.056937 0.815699
vt 0.000116 0.823135
vt 0.053300 0.823135
vt 0.059087 0.823135
vt 0.000101 0.852907
vt 0.000101 0.838007
vt 0.062796 0.852907
vt 0.062796 0.838007
vt 0.651650 0.000161
vt 0.671887 0.725981
vt 0.056585 0.000212
vt 0.207647 0.000212
vt 0.056585 0.634264
vt 0.207647 0.634264
vt 0.068827 0.617535
vt 0.068827 0.612860
vt 0.068827 0.034934
vt 0.199516 0.034934
vt 0.199516 0.617535
vt 0.199516 0.612860
vt 0.068827 0.617535
vt 0.064562 0.617535
vt 0.064562 0.034934
vt 0.068827 0.034934
vt 0.202633 0.034934
vt 0.199516 0.034934
vt 0.199516 0.617535
vt 0.202633 0.617535
vt 0.056585 0.815224
vt 0.207647 0.815224
vt 0.203388 0.634499
vt 0.203388 0.640274
vt 0.208310 0.634499
vt 0.069260 0.634499
vt 0.069260 0.640274
vt 0.203388 0.799672
vt 0.203388 0.810123
vt 0.208310 0.810123
vt 0.069260 0.799672
vt 0.069260 0.810123
vt 0.203388 0.634499
vt 0.064667 0.634499
vt 0.069260 0.634499
vt 0.203388 0.810123
vt 0.064667 0.810123
vt 0.069260 0.810123
vt 0.197873 0.646015
vt 0.077436 0.646015
vt 0.197873 0.799012
vt 0.077436 0.799012
vt 0.207647 0.506897
vt 0.820777 0.506897
vt 0.056585 0.501167
vt 0.675435 0.501167
vt 0.674814 0.505671
vt 0.056585 0.501167
vt 0.675435 0.494704
vt 0.674814 0.004845
vt 0.056585 0.000212
vt 0.820763 0.004845
vt 0.207647 0.000212
vt 0.207647 0.506897
vt 0.820763 0.511401
vt 0.820777 0.500434
vt 0.817681 0.605127
vt 0.817681 0.995605
vt 0.991074 0.603291
vt 0.915300 0.605127
vt 0.915300 0.995605
vt 0.817681 0.702747
vt 0.683823 0.607037
vt 0.991074 0.914294
vt 0.915300 0.702747
vt 0.781442 0.607037
vt 0.683823 0.802276
vt 0.817681 0.897986
vt 0.680071 0.603291
vt 0.781442 0.802276
vt 0.915300 0.897986
vt 0.683823 0.704657
vt 0.680071 0.914294
vt 0.781442 0.704657
s 0
usemtl Material
f 80/98/1 81/100/1 41/43/1 39/41/1
f 12/14/2 15/17/2 16/18/2 11/13/2
f 3/3/3 5/5/3 6/6/3 4/4/3
f 8/9/1 7/7/1 11/13/1 16/18/1 14/16/1 19/21/1 17/19/1 23/25/1 22/24/1 9/11/1
f 7/8/4 6/6/4 12/14/4 11/13/4
f 6/6/5 5/5/5 10/12/5 21/23/5 24/26/5 18/20/5 20/22/5 13/15/5 15/17/5 12/14/5
f 5/5/6 8/10/6 9/11/6 10/12/6
f 28/30/2 25/27/2 26/28/2 27/29/2
f 14/16/2 13/15/2 20/22/2 19/21/2
f 20/22/7 18/20/7 30/32/7 29/31/7
f 17/19/2 18/20/2 24/26/2 23/25/2
f 15/17/7 13/15/7 26/28/7 25/27/7
f 22/24/2 21/23/2 10/12/2 9/11/2
f 23/25/8 24/26/8 33/35/8 36/38/8
f 32/34/2 29/31/2 30/32/2 31/33/2
f 36/38/2 33/35/2 34/36/2 35/37/2
f 21/23/9 22/24/9 35/37/9 34/36/9
f 14/16/10 16/18/10 28/30/10 27/29/10
f 19/21/11 20/22/11 29/31/11 32/34/11
f 18/20/12 17/19/12 31/33/12 30/32/12
f 22/24/13 23/25/13 36/38/13 35/37/13
f 16/18/14 15/17/14 25/27/14 28/30/14
f 24/26/7 21/23/7 34/36/7 33/35/7
f 13/15/15 14/16/15 27/29/15 26/28/15
f 17/19/16 19/21/16 32/34/16 31/33/16
f 1/1/17 38/40/17 37/39/17 3/3/17
f 1/1/18 3/3/18 42/45/18 40/42/18
f 1/1/19 40/42/19 42/45/19 3/3/19 4/4/19 2/2/19 48/51/19 51/54/19
f 52/55/20 47/50/20 43/46/20 46/49/20
f 46/49/2 43/46/2 44/47/2 45/48/2
f 47/50/21 52/55/21 54/57/21 49/52/21
f 49/52/22 54/57/22 53/56/22 50/53/22
f 50/53/23 53/56/23 51/54/23 48/51/23
f 55/58/24 56/59/24 58/63/24 57/61/24
f 58/64/25 62/70/25 66/77/25 63/72/25
f 61/69/26 62/71/26 60/67/26
f 60/68/27 56/60/27 55/58/27
f 62/70/28 58/64/28 56/60/28 60/68/28
f 63/72/2 66/77/2 70/85/2 67/78/2
f 57/62/29 58/65/29 63/73/29 64/75/29
f 62/71/30 61/69/30 65/76/30 66/77/30
f 68/81/1 67/79/1 70/84/1 69/82/1
f 64/75/31 63/74/31 67/80/31 68/81/31
f 66/77/32 65/76/32 69/83/32 70/85/32
f 72/87/25 76/94/25 79/97/25 77/95/25
f 75/91/33 76/93/33 74/89/33 73/88/33
f 76/94/2 72/87/2 71/86/2 74/90/2
f 77/95/2 79/97/2 81/101/2 80/99/2
f 76/94/34 75/92/34 78/96/34 79/97/34
f 79/97/32 78/96/32 41/44/32 81/101/32
f 7/8/2 8/10/2 60/68/2 82/102/2
f 7/8/2 82/102/2 59/66/2 83/103/2
f 7/8/2 83/103/2 2/2/2 4/4/2
f 110/144/33 115/155/33 114/154/33 85/105/33
f 90/111/24 91/113/24 95/121/24 94/118/24
f 85/105/2 110/144/2 87/107/2 91/112/2 90/111/2
f 86/106/2 111/146/2 84/104/2 89/110/2 88/108/2
f 87/107/2 86/106/2 88/108/2 91/112/2
f 84/104/35 89/110/35 90/111/35 85/105/35
f 93/117/2 94/119/2 95/120/2 92/114/2
f 88/109/33 89/110/33 93/116/33 92/115/33
f 91/113/10 88/109/10 92/115/10 95/121/10
f 89/110/10 93/117/10 94/119/10 90/111/10
f 87/107/2 97/123/2 100/130/2 98/124/2
f 100/129/10 101/132/10 105/139/10 104/137/10
f 97/123/2 96/122/2 101/133/2 100/130/2
f 86/106/35 99/127/35 98/124/35 87/107/35
f 96/122/2 86/106/2 99/127/2 101/133/2
f 105/139/2 103/136/2 107/141/2 109/143/2
f 101/133/33 99/127/33 103/135/33 105/138/33
f 99/128/1 98/125/1 102/134/1 103/136/1
f 98/126/24 100/131/24 104/137/24 102/134/24
f 103/136/2 102/134/2 106/140/2 107/141/2
f 102/134/2 104/137/2 108/142/2 106/140/2
f 104/137/2 105/139/2 109/143/2 108/142/2
f 113/151/2 114/153/2 115/156/2 112/148/2
f 85/105/10 114/154/10 113/152/10 84/104/10
f 84/104/24 113/152/24 112/149/24 111/146/24
f 111/147/36 112/150/36 115/157/36 110/145/36
f 116/158/33 118/163/33 119/166/33 117/161/33
f 118/164/10 122/173/10 123/175/10 119/167/10
f 122/173/24 120/168/24 121/171/24 123/175/24
f 120/169/1 116/159/1 117/162/1 121/172/1
f 118/165/2 116/160/2 120/170/2 122/174/2
