# Blender 3.3.1
# www.blender.org
mtllib shutters_1.mtl
o shutters_1
v -2.499873 0.005969 -0.000000
v 2.499873 0.005969 -0.000000
v -2.499873 3.541222 0.000000
v 2.499873 3.541222 0.000000
v 1.951028 0.005969 -0.000000
v 1.951028 3.541222 0.000000
v -1.917669 0.005969 -0.000000
v -1.917668 3.541222 0.000000
v -2.035103 3.054583 -0.038300
v -2.035103 3.054583 0.328408
v -2.035103 3.540350 -0.038300
v -2.035103 3.540350 0.328408
v 2.111156 3.054583 -0.038300
v 2.111156 3.054583 0.328408
v 2.111156 3.540350 -0.038300
v 2.111156 3.540350 0.328408
v -1.917669 0.005969 -0.031087
v 1.951028 0.005969 -0.031087
v 1.951028 3.541222 -0.031087
v -1.917668 3.541222 -0.031087
v -1.931225 0.006221 -0.026193
v 1.955441 0.006221 -0.026193
v -1.931225 3.074061 -0.026192
v 1.955441 3.074061 -0.026192
vn -0.0000 -0.0000 1.0000
vn -1.0000 -0.0000 -0.0000
vn -0.0000 1.0000 -0.0000
vn 1.0000 -0.0000 -0.0000
vn -0.0000 -1.0000 -0.0000
vt 0.000000 0.000000
vt 1.000000 0.000000
vt 0.000000 1.000000
vt 1.000000 1.000000
vt 0.890225 0.000000
vt 0.893301 0.000000
vt 0.890225 1.000000
vt 0.893301 1.000000
vt 0.113254 0.000000
vt 0.111258 0.000000
vt 0.113254 1.000000
vt 0.111258 1.000000
vt 0.116447 1.000000
vt 0.101700 0.892734
vt 0.101700 0.878921
vt 0.126894 0.890769
vt 0.092959 0.888576
vt 0.092959 0.890769
vt 0.100771 0.999753
vt 0.095369 0.991189
vt 0.126894 0.999265
vt 0.095369 0.968464
vt 0.092959 0.999265
vt 0.913511 0.890662
vt 0.913511 0.878921
vt 0.896374 0.890769
vt 0.922253 0.888576
vt 0.922253 0.890769
vt 0.919842 0.991189
vt 0.916393 0.999753
vt 0.919842 0.968464
vt 0.902477 0.999265
vt 0.922253 0.999265
vt 0.113629 0.000000
vt 0.890379 0.000000
vt 0.890225 1.000000
vt 0.890379 1.000000
vt 0.113629 1.000000
vt 0.116447 1.000000
vt 0.116920 0.000000
vt 0.883080 0.000000
vt 0.116920 0.853821
vt 0.883080 0.853821
s 0
usemtl shutters_1
f 1/1/1 7/9/1 8/11/1 3/3/1
f 9/14/2 10/16/2 12/21/2 11/19/2
f 6/7/1 5/5/1 2/2/1 4/4/1
f 11/20/3 12/22/3 16/31/3 15/29/3
f 15/30/4 16/32/4 14/26/4 13/24/4
f 13/25/5 14/27/5 10/17/5 9/15/5
f 16/33/1 12/23/1 10/18/1 14/28/1
f 8/12/4 7/10/4 17/34/4 20/38/4
f 6/7/5 8/13/5 20/39/5 19/36/5
f 5/6/2 6/8/2 19/37/2 18/35/2
f 21/40/1 22/41/1 24/43/1 23/42/1
