# Blender 3.3.1
# www.blender.org
mtllib Street2Sidewalks.mtl
o Calle2Veredas
v -2.000001 0.017426 1.502054
v -2.000001 -0.034853 1.502054
v -2.000001 0.017426 3.502054
v -4.000001 0.017426 1.502054
v -4.000001 -0.034853 1.502054
v -4.000001 0.017426 3.502054
v -2.000001 -0.034853 -1.502861
v -4.000001 -0.034853 -1.502860
v -4.000001 0.017426 -1.501651
v -4.000001 0.017426 -3.501651
v -2.000001 0.017426 -1.501652
v -2.000002 0.017426 -3.501652
v -0.000001 0.017426 1.502054
v -0.000001 -0.034853 1.502054
v -0.000001 0.017426 3.502054
v -2.000001 0.017426 1.502054
v -2.000001 -0.034853 1.502054
v -2.000001 0.017426 3.502054
v -0.000001 -0.034853 -1.502861
v -2.000001 -0.034853 -1.502860
v -2.000001 0.017426 -1.501651
v -2.000001 0.017426 -3.501651
v -0.000001 0.017426 -1.501652
v -0.000001 0.017426 -3.501652
v 1.999999 0.017426 1.502054
v 1.999999 -0.034853 1.502054
v 1.999999 0.017426 3.502054
v -0.000001 0.017426 1.502054
v -0.000001 -0.034853 1.502054
v -0.000001 0.017426 3.502054
v 1.999999 -0.034853 -1.502861
v -0.000001 -0.034853 -1.502860
v -0.000001 0.017426 -1.501651
v -0.000001 0.017426 -3.501651
v 1.999999 0.017426 -1.501652
v 1.999999 0.017426 -3.501652
v 3.999999 0.017426 1.502054
v 3.999999 -0.034853 1.502054
v 3.999999 0.017426 3.502054
v 1.999999 0.017426 1.502054
v 1.999999 -0.034853 1.502054
v 1.999999 0.017426 3.502054
v 3.999999 -0.034853 -1.502861
v 1.999999 -0.034853 -1.502860
v 1.999999 0.017426 -1.501651
v 1.999999 0.017426 -3.501651
v 3.999999 0.017426 -1.501652
v 3.999999 0.017426 -3.501652
vn -0.0000 1.0000 -0.0000
vn -0.0000 -0.0000 -1.0000
vn -0.0000 -0.0231 0.9997
vt 0.986835 0.001569
vt 0.965123 0.001569
vt 0.991257 0.001569
vt 0.000055 0.000055
vt -0.012970 0.001569
vt 0.986835 0.997643
vt 0.965123 0.997643
vt 0.991257 0.997643
vt 0.000055 0.999945
vt -0.012969 0.997643
vt 0.999634 0.000055
vt 0.991257 0.997643
vt 0.999634 0.999945
vt 0.991257 0.001569
vt 0.986835 0.001569
vt 0.965123 0.001569
vt -0.012970 0.001569
vt 0.986835 0.997643
vt 0.965123 0.997643
vt -0.012969 0.997643
vt 0.986835 0.001569
vt 0.965123 0.001569
vt 0.991257 0.001569
vt 0.000055 0.000055
vt -0.012970 0.001569
vt 0.986835 0.997643
vt 0.965123 0.997643
vt 0.991257 0.997643
vt 0.000055 0.999945
vt -0.012969 0.997643
vt 0.999634 0.000055
vt 0.991257 0.997643
vt 0.999634 0.999945
vt 0.991257 0.001569
vt 0.986835 0.001569
vt 0.965123 0.001569
vt -0.012970 0.001569
vt 0.986835 0.997643
vt 0.965123 0.997643
vt -0.012969 0.997643
vt 0.986835 0.001569
vt 0.965123 0.001569
vt 0.991257 0.001569
vt 0.000055 0.000055
vt -0.012970 0.001569
vt 0.986835 0.997643
vt 0.965123 0.997643
vt 0.991257 0.997643
vt 0.000055 0.999945
vt -0.012969 0.997643
vt 0.999634 0.000055
vt 0.991257 0.997643
vt 0.999634 0.999945
vt 0.991257 0.001569
vt 0.986835 0.001569
vt 0.965123 0.001569
vt -0.012970 0.001569
vt 0.986835 0.997643
vt 0.965123 0.997643
vt -0.012969 0.997643
vt 0.986835 0.001569
vt 0.965123 0.001569
vt 0.991257 0.001569
vt 0.000055 0.000055
vt -0.012970 0.001569
vt 0.986835 0.997643
vt 0.965123 0.997643
vt 0.991257 0.997643
vt 0.000055 0.999945
vt -0.012969 0.997643
vt 0.999634 0.000055
vt 0.991257 0.997643
vt 0.999634 0.999945
vt 0.991257 0.001569
vt 0.986835 0.001569
vt 0.965123 0.001569
vt -0.012970 0.001569
vt 0.986835 0.997643
vt 0.965123 0.997643
vt -0.012969 0.997643
s 0
usemtl Calle
f 5/9/1 2/4/1 7/11/1 8/13/1
f 17/29/1 14/24/1 19/31/1 20/33/1
f 29/49/1 26/44/1 31/51/1 32/53/1
f 41/69/1 38/64/1 43/71/1 44/73/1
usemtl Vereda
f 1/1/1 4/6/1 6/10/1 3/5/1
f 5/8/2 4/7/2 1/2/2 2/3/2
f 9/15/1 11/18/1 12/20/1 10/17/1
f 7/12/3 11/19/3 9/16/3 8/14/3
f 13/21/1 16/26/1 18/30/1 15/25/1
f 17/28/2 16/27/2 13/22/2 14/23/2
f 21/35/1 23/38/1 24/40/1 22/37/1
f 19/32/3 23/39/3 21/36/3 20/34/3
f 25/41/1 28/46/1 30/50/1 27/45/1
f 29/48/2 28/47/2 25/42/2 26/43/2
f 33/55/1 35/58/1 36/60/1 34/57/1
f 31/52/3 35/59/3 33/56/3 32/54/3
f 37/61/1 40/66/1 42/70/1 39/65/1
f 41/68/2 40/67/2 37/62/2 38/63/2
f 45/75/1 47/78/1 48/80/1 46/77/1
f 43/72/3 47/79/3 45/76/3 44/74/3
