# Blender 3.3.1
# www.blender.org
mtllib Street2SidewalksLowPoly.mtl
o Calle2VeredasLowPoly
v 4.028726 0.017426 1.502054
v 4.028726 -0.034853 1.502054
v 4.028726 0.017426 3.502054
v -4.028726 0.017426 1.502054
v -4.028726 -0.034853 1.502054
v -4.028726 0.017426 3.502054
v 4.028726 -0.034853 -1.502861
v -4.028726 -0.034853 -1.502860
v -4.028726 0.017426 -1.501651
v -4.028726 0.017426 -3.501651
v 4.028726 0.017426 -1.501652
v 4.028726 0.017426 -3.501652
vn -0.0000 1.0000 -0.0000
vn -0.0000 -0.0000 -1.0000
vn -0.0000 -0.0231 0.9997
vt 0.986835 -0.975630
vt 0.965123 -0.975630
vt 0.991257 -0.975630
vt 0.000055 -0.946583
vt -0.012970 -0.975630
vt 0.986835 1.974843
vt 0.965123 1.974843
vt 0.991257 1.974843
vt 0.000055 1.946584
vt -0.012969 1.974843
vt 0.999634 -0.946584
vt 0.991257 1.974843
vt 0.999634 1.946584
vt 0.991257 -0.975630
vt 0.986835 -0.975630
vt 0.965123 -0.975630
vt -0.012970 -0.975630
vt 0.986835 1.974843
vt 0.965123 1.974843
vt -0.012969 1.974843
s 0
usemtl Calle
f 5/9/1 2/4/1 7/11/1 8/13/1
usemtl Vereda
f 1/1/1 4/6/1 6/10/1 3/5/1
f 5/8/2 4/7/2 1/2/2 2/3/2
f 9/15/1 11/18/1 12/20/1 10/17/1
f 7/12/3 11/19/3 9/16/3 8/14/3
