# Blender 3.3.1
# www.blender.org
mtllib TCross.mtl
o CruzeT
v 7.576187 0.016856 -5.970645
v 3.568146 -0.035423 -3.971854
v 7.576187 0.016856 -3.970645
v 5.576187 0.016856 -5.970644
v 5.576187 -0.035423 -3.971854
v 5.576187 0.016856 -3.970644
v 7.576187 0.016856 1.033061
v 7.576187 -0.035423 -0.966939
v 9.576187 0.016856 -5.970644
v 9.576187 0.016856 -5.970645
v 9.576187 0.016856 -3.970644
v 9.576187 -0.035423 -3.971854
v 5.576187 -0.035423 -3.971854
v 3.576187 0.016856 1.033061
v 7.576187 -0.035423 -3.971854
v 5.576187 0.016856 1.033061
v 3.570894 -0.035423 -0.955579
v 5.576187 -0.035423 -0.966939
v 7.576187 0.016856 -0.966939
v 9.576187 0.016856 -3.970645
v 11.576187 -0.035423 -3.971854
v 9.576187 0.016856 1.033061
v 5.576187 0.016856 -0.966939
v 3.576187 0.016856 -0.966939
v 7.576187 0.016856 1.033061
v 7.576187 -0.035423 -0.966939
v 5.576187 0.016856 1.033061
v 7.576187 0.016856 -0.966939
v 9.576187 -0.035423 -0.966939
v 7.576187 0.016856 -5.970644
v 7.576187 0.016856 -3.970644
v 9.576187 -0.035423 -0.966939
v 5.576187 0.016856 -5.970645
v 5.576187 -0.035423 -0.966939
v 5.576187 0.016856 -3.970645
v 3.568146 0.016856 -5.970644
v 5.576187 0.016856 -0.966939
v 3.568146 0.016856 -3.970645
v 7.576187 -0.035423 -3.971854
v 9.576187 0.016856 1.033061
v 9.576187 0.016856 -0.966939
v 11.576187 0.016856 1.033061
v 11.576187 -0.035423 -0.966939
v -3.427280 0.016856 -5.970526
v -9.427267 0.016856 -0.966939
v -9.427267 -0.035423 -0.966939
v -9.427267 0.016856 1.033061
v -11.427267 0.016856 -0.966939
v -11.427267 -0.035423 -0.966939
v -11.427267 0.016856 1.033061
v -9.427267 -0.035423 -3.971854
v -11.427267 -0.035423 -3.971854
v -11.427267 0.016856 -3.970644
v -11.427267 0.016856 -5.970644
v -9.427267 0.016856 -3.970645
v -9.427267 0.016856 -5.970645
v -7.427267 0.016856 -0.966939
v -7.427267 -0.035423 -0.966939
v -7.427267 0.016856 1.033061
v -9.427267 0.016856 -0.966939
v -9.427267 -0.035423 -0.966939
v -9.427267 0.016856 1.033061
v -7.427267 -0.035423 -3.971854
v -9.427267 -0.035423 -3.971854
v -9.427267 0.016856 -3.970644
v -9.427267 0.016856 -5.970644
v -7.427267 0.016856 -3.970645
v -7.427267 0.016856 -5.970645
v -5.427267 0.016856 -0.966939
v -5.427267 -0.035423 -0.966939
v -5.427267 0.016856 1.033061
v -7.427267 0.016856 -0.966939
v -7.427267 -0.035423 -0.966939
v -7.427267 0.016856 1.033061
v -5.427267 -0.035423 -3.971854
v -7.427267 -0.035423 -3.971854
v -7.427267 0.016856 -3.970644
v -7.427267 0.016856 -5.970644
v -5.427267 0.016856 -3.970645
v -5.427267 0.016856 -5.970645
v -3.427267 0.016856 -0.966939
v -3.427267 -0.035423 -0.956272
v -3.427267 0.016856 1.033061
v -5.427267 0.016856 -0.966939
v -5.427267 -0.035423 -0.966939
v -5.427267 0.016856 1.033061
v -3.427267 -0.035423 -3.971854
v -5.427267 -0.035423 -3.971854
v -5.427267 0.016856 -3.970644
v -5.427267 0.016856 -5.970644
v -3.427267 0.016856 -3.970645
v -3.427267 0.016856 -5.970644
v 1.576426 0.016856 7.032930
v 1.576426 -0.035423 7.032930
v 3.576425 0.016856 7.032930
v 1.576426 0.016856 9.032930
v 1.576426 -0.035423 9.032930
v 3.576426 0.016856 9.032930
v -1.428489 -0.035423 7.032930
v -1.428489 -0.035423 9.032930
v -1.427280 0.016856 9.032930
v -3.427280 0.016856 9.032930
v -1.427280 0.016856 7.032930
v -3.427280 0.016856 7.032930
v 1.576425 0.016856 5.032929
v 1.576425 -0.035423 5.032929
v 3.576425 0.016856 5.032929
v 1.576426 0.016856 7.032930
v 1.576426 -0.035423 7.032930
v 3.576425 0.016856 7.032930
v -1.428489 -0.035423 5.032930
v -1.428489 -0.035423 7.032930
v -1.427280 0.016856 7.032930
v -3.427280 0.016856 7.032930
v -1.427280 0.016856 5.032930
v -3.427280 0.016856 5.032930
v 1.576425 0.016856 3.032929
v 1.576425 -0.035423 3.032929
v 3.576425 0.016856 3.032930
v 1.576425 0.016856 5.032929
v 1.576425 -0.035423 5.032929
v 3.576425 0.016856 5.032929
v -1.428490 -0.035423 3.032930
v -1.428489 -0.035423 5.032930
v -1.427280 0.016856 5.032930
v -3.427280 0.016856 5.032930
v -1.427281 0.016856 3.032930
v -3.427281 0.016856 3.032930
v 1.576425 0.016856 1.032930
v 1.576425 -0.035423 1.032930
v 3.576425 0.016856 1.032929
v 1.576425 0.016856 3.032929
v 1.576425 -0.035423 3.032929
v 3.576425 0.016856 3.032930
v -1.428490 -0.035423 1.032930
v -1.428489 -0.035423 3.032930
v -1.427280 0.016856 3.032930
v -3.427280 0.016856 3.032930
v -1.427281 0.016856 1.032930
v -3.427281 0.016856 1.032930
v 9.576187 0.016856 -0.966939
v 11.576187 0.016856 -0.966939
v 11.576187 0.016856 -5.970644
v 11.576187 0.016856 -3.970645
v 9.576187 -0.035423 -3.971854
v 1.577612 -0.035423 1.033811
v 1.576402 0.016856 1.033811
v 3.576390 0.016856 -0.966071
v 3.576390 0.016856 1.033928
v 3.213258 -0.035423 -0.938161
v 3.213258 0.016856 -0.939370
v 3.213258 0.016856 1.033928
v 2.826094 -0.035423 -0.829529
v 2.826094 0.016856 -0.830646
v 2.826094 0.016856 1.033928
v 2.461182 -0.035423 -0.639816
v 2.461182 0.016856 -0.640831
v 2.461182 0.016856 1.033928
v 2.154122 -0.035423 -0.381707
v 2.154122 0.016856 -0.382722
v 2.154122 0.016856 1.033928
v 1.904914 -0.035423 -0.080967
v 1.904914 0.016856 -0.081735
v 1.904914 0.016856 1.033928
v 1.713309 -0.035423 0.274426
v 1.713309 0.016856 0.273659
v 1.713309 0.016856 1.033928
v 1.713309 -0.035423 0.274426
v 1.713309 0.016856 0.273659
v 1.713309 0.016856 1.033928
v 1.605763 -0.035423 0.616528
v 1.605763 0.016856 0.616057
v 3.576390 0.016856 -0.668448
v 3.213258 0.016856 -0.631364
v 2.461182 0.016856 -0.245064
v 1.904914 0.016856 0.591444
v 2.826094 0.016856 -0.492295
v 2.154122 0.016856 0.088698
v -2.482321 0.016856 -0.389167
v -1.901327 0.016856 0.282805
v -2.985066 0.016856 -0.638376
v -2.148559 0.016856 -0.082107
v -1.762259 0.016856 0.669968
v -1.725175 0.016856 1.033101
v -3.009680 0.016856 -0.937526
v -3.010150 -0.035423 -0.937526
v -3.427551 0.016856 -0.829980
v -2.667281 0.016856 -0.829980
v -2.668049 -0.035423 -0.829980
v -3.427551 0.016856 -0.829980
v -2.667281 0.016856 -0.829980
v -2.668049 -0.035423 -0.829980
v -3.427551 0.016856 -0.638376
v -2.311888 0.016856 -0.638376
v -2.312655 -0.035423 -0.638376
v -3.427551 0.016856 -0.389167
v -2.010901 0.016856 -0.389167
v -2.011915 -0.035423 -0.389167
v -3.427551 0.016856 -0.082107
v -1.752792 0.016856 -0.082107
v -1.753806 -0.035423 -0.082107
v -3.427551 0.016856 0.282805
v -1.562976 0.016856 0.282805
v -1.564093 -0.035423 0.282805
v -3.427551 0.016856 0.669968
v -1.454252 0.016856 0.669969
v -1.455462 -0.035423 0.669969
v -3.427551 0.016856 1.033101
v -1.427552 0.016856 1.033101
v -1.428761 -0.035423 1.033101
v -3.427433 0.016856 -0.966887
v -3.427433 -0.035423 -0.965678
v -3.427267 -0.035423 1.036963
v 3.570894 -0.035423 1.037656
vn -0.0000 1.0000 -0.0000
vn -0.0000 -0.0231 0.9997
vn -0.0028 -0.1079 -0.9942
vn -0.0000 -0.0000 -1.0000
vn 0.0027 -0.1015 -0.9948
vn -1.0000 -0.0000 -0.0000
vn 0.9997 -0.0231 -0.0000
vn -0.0607 -0.1079 -0.9923
vn -0.2702 -0.0214 -0.9626
vn -0.4613 -0.0181 -0.8871
vn -0.6434 -0.0149 -0.7654
vn -0.7701 -0.0109 -0.6379
vn -0.8802 -0.0070 -0.4745
vn -0.9540 -0.0035 -0.2998
vn -0.9976 -0.0118 -0.0687
vn 0.2998 -0.0035 -0.9540
vn 0.6379 -0.0109 -0.7701
vn 0.7654 -0.0149 -0.6434
vn 0.9626 -0.0214 -0.2702
vn 0.9970 -0.0231 -0.0733
vn 0.4745 -0.0070 -0.8802
vn 0.8871 -0.0181 -0.4613
vn 0.0687 -0.0118 -0.9976
vt -0.012969 0.997643
vt 0.999634 0.999945
vt 0.991257 0.001569
vt 0.969466 0.004188
vt 1.000067 1.000000
vt 0.986835 0.997643
vt 0.965123 0.997643
vt -0.012970 0.001569
vt 0.999634 0.000055
vt 0.991257 0.997643
vt 0.986835 0.001569
vt 0.965123 0.001569
vt -0.012969 0.997643
vt 0.991257 0.997643
vt 0.000055 0.999945
vt -0.012970 0.001569
vt -0.012969 0.997643
vt 0.986835 0.001569
vt 0.965123 0.001569
vt 0.999634 0.999945
vt 0.991257 0.001569
vt 0.999634 0.999945
vt 0.991257 0.001569
vt -0.012969 0.997643
vt 0.999634 0.000055
vt 0.991257 0.997643
vt -0.012969 0.997643
vt 0.000055 0.999945
vt 0.991257 0.997643
vt 0.085028 0.003799
vt 1.000000 0.034195
vt 0.273449 1.168641
vt 0.000055 0.999945
vt 0.991257 0.997643
vt 0.965123 0.997643
vt 0.986835 0.997643
vt 0.986835 0.997643
vt 0.965123 0.997643
vt 0.999634 0.000055
vt 0.991257 0.997643
vt -0.012969 0.997643
vt 0.965123 0.997643
vt 0.986835 0.997643
vt 0.965123 0.997643
vt 0.986835 0.997643
vt -0.012970 0.001569
vt 0.000055 0.000055
vt 0.991257 0.001569
vt -0.012970 0.001569
vt 0.965123 0.001569
vt 0.986835 0.001569
vt 0.991257 0.001569
vt 0.000055 0.000055
vt -0.012970 0.001569
vt 0.986835 0.001569
vt 0.965123 0.001569
vt 0.000055 0.999945
vt 0.991257 0.997643
vt -0.012969 0.997643
vt 0.000055 0.000055
vt 0.991257 0.001569
vt 0.986835 0.997643
vt 0.965123 0.997643
vt -0.012970 0.001569
vt -0.000091 2.351079
vt 0.965123 0.001569
vt 0.986835 0.001569
vt 0.986835 0.001569
vt 0.965123 0.001569
vt 0.998079 2.351079
vt 0.836599 0.999826
vt 0.991257 0.001569
vt 0.999634 0.999945
vt -0.012970 0.001569
vt 0.986835 0.997643
vt 0.965123 0.997643
vt -0.012970 0.001569
vt 0.000055 0.000055
vt 0.991257 0.001569
vt 0.986835 0.001569
vt 0.965123 0.001569
vt 0.991257 0.001569
vt 0.000055 0.000055
vt -0.012970 0.001569
vt 0.986835 0.997643
vt 0.965123 0.997643
vt 0.991257 0.997643
vt 0.000055 0.999945
vt -0.012969 0.997643
vt 0.999634 0.000055
vt 0.991257 0.997643
vt 0.999634 0.999945
vt 0.991257 0.001569
vt 0.986835 0.001569
vt 0.965123 0.001569
vt -0.012970 0.001569
vt 0.986835 0.997643
vt 0.965123 0.997643
vt -0.012969 0.997643
vt 0.986835 0.001569
vt 0.965123 0.001569
vt 0.991257 0.001569
vt 0.000055 0.000055
vt -0.012970 0.001569
vt 0.986835 0.997643
vt 0.965123 0.997643
vt 0.991257 0.997643
vt 0.000055 0.999945
vt -0.012969 0.997643
vt 0.999634 0.000055
vt 0.991257 0.997643
vt 0.999634 0.999945
vt 0.991257 0.001569
vt 0.986835 0.001569
vt 0.965123 0.001569
vt -0.012970 0.001569
vt 0.986835 0.997643
vt 0.965123 0.997643
vt -0.012969 0.997643
vt 0.986835 0.001569
vt 0.965123 0.001569
vt 0.991257 0.001569
vt 0.000055 0.000055
vt -0.012970 0.001569
vt 0.986835 0.997643
vt 0.965123 0.997643
vt 0.991257 0.997643
vt 0.000055 0.999945
vt -0.012969 0.997643
vt 0.999634 0.000055
vt 0.991257 0.997643
vt 0.999634 0.999945
vt 0.991257 0.001569
vt 0.986835 0.001569
vt 0.965123 0.001569
vt -0.012970 0.001569
vt 0.986835 0.997643
vt 0.965123 0.997643
vt -0.012969 0.997643
vt 0.986835 0.001569
vt 0.965123 0.001569
vt 0.991257 0.001569
vt 0.000055 0.000055
vt 0.085068 0.996201
vt 0.273449 -0.168678
vt -0.012970 0.001569
vt 0.986835 0.997643
vt 0.965123 0.997643
vt 0.991257 0.997643
vt 0.000055 0.999945
vt -0.012969 0.997643
vt 0.999634 0.000055
vt 0.991257 0.997643
vt 0.969466 0.996201
vt 1.000067 0.000174
vt 0.999634 0.999945
vt 0.991257 0.001569
vt 0.986835 0.001569
vt 0.965123 0.001569
vt -0.012970 0.001569
vt 0.986835 0.997643
vt 0.965123 0.997643
vt 0.998079 -1.351079
vt 0.836599 0.000000
vt -0.012969 0.997643
vt -0.000091 -1.351079
vt 0.986835 0.001569
vt 0.965123 0.001569
vt 0.991257 0.001569
vt 0.000055 0.000055
vt -0.012970 0.001569
vt 0.986835 0.997643
vt 0.965123 0.997643
vt 0.991257 0.997643
vt 0.000055 0.999945
vt -0.012969 0.997643
vt 0.999634 0.000055
vt 0.991257 0.997643
vt 0.999634 0.999945
vt 0.991257 0.001569
vt 0.986835 0.001569
vt 0.965123 0.001569
vt -0.012970 0.001569
vt 0.986835 0.997643
vt 0.965123 0.997643
vt -0.012969 0.997643
vt 0.986835 0.001569
vt 0.965123 0.001569
vt 0.991257 0.001569
vt 0.000055 0.000055
vt -0.012970 0.001569
vt 0.986835 0.997643
vt 0.965123 0.997643
vt 0.991257 0.997643
vt 0.000055 0.999945
vt -0.012969 0.997643
vt 0.999634 0.000055
vt 0.991257 0.997643
vt 0.999634 0.999945
vt 0.991257 0.001569
vt 0.986835 0.001569
vt 0.965123 0.001569
vt -0.012970 0.001569
vt 0.986835 0.997643
vt 0.965123 0.997643
vt -0.012969 0.997643
vt 0.986835 0.001569
vt 0.965123 0.001569
vt 0.991257 0.001569
vt 0.000055 0.000055
vt -0.012970 0.001569
vt 0.986835 0.997643
vt 0.965123 0.997643
vt 0.991257 0.997643
vt 0.000055 0.999945
vt -0.012969 0.997643
vt 0.999634 0.000055
vt 0.991257 0.997643
vt 0.999634 0.999945
vt 0.991257 0.001569
vt 0.986835 0.001569
vt 0.965123 0.001569
vt -0.012970 0.001569
vt 0.986835 0.997643
vt 0.965123 0.997643
vt -0.012969 0.997643
vt 0.986835 0.001569
vt 0.965123 0.001569
vt 0.991257 0.001569
vt 0.000055 0.000055
vt -0.012970 0.001569
vt 0.986835 0.997643
vt 0.965123 0.997643
vt 0.991257 0.997643
vt 0.000055 0.999945
vt -0.012969 0.997643
vt 0.999634 0.000055
vt 0.991257 0.997643
vt 0.999634 0.999945
vt 0.991257 0.001569
vt 0.986835 0.001569
vt 0.965123 0.001569
vt -0.012970 0.001569
vt 0.986835 0.997643
vt 0.965123 0.997643
vt -0.012969 0.997643
vt 0.965123 0.001569
vt 0.986835 0.001569
vt 0.986835 0.001569
vt 0.965123 0.001569
vt -0.012969 0.997643
vt 0.986835 0.997643
vt 0.965123 0.997643
vt 0.991257 0.997643
vt 0.999634 0.000055
vt 0.931940 0.701610
vt 0.999997 0.965951
vt 0.904703 0.701734
vt 0.972761 0.033994
vt 0.999243 -0.000183
vt -0.010930 0.831804
vt 0.998747 0.184622
vt 0.971507 0.184422
vt 0.999184 0.174034
vt 0.171513 0.831804
vt 0.998233 0.354204
vt 0.970994 0.354015
vt 0.998094 0.368414
vt 0.366028 0.831804
vt 0.998644 0.524061
vt 0.971407 0.523883
vt 0.997413 0.564931
vt 0.549365 0.831804
vt 1.000000 0.678289
vt 0.959336 0.378360
vt 0.972763 0.678111
vt 0.932101 0.378010
vt 0.999458 0.769140
vt 0.703636 0.831804
vt 0.959174 0.529906
vt 0.931940 0.529656
vt 0.998320 0.998365
vt 0.974450 0.331069
vt 0.828841 0.831804
vt 0.834336 0.959987
vt 0.959336 0.696611
vt 0.932102 0.696361
vt 0.978446 0.674202
vt 0.930126 0.961436
vt 0.931940 0.378342
vt 0.904707 0.378010
vt 0.931544 0.611716
vt 0.931544 0.966006
vt 0.931759 0.529559
vt 0.985317 0.771276
vt 0.904526 0.529347
vt -0.010930 0.144422
vt 0.833712 0.001653
vt 0.171513 0.159395
vt 0.833712 0.176181
vt 0.549365 0.315375
vt 0.833712 0.574871
vt 0.828841 0.653138
vt 0.833712 0.998368
vt 0.837926 0.753813
vt 0.366028 0.215548
vt 0.833712 0.370908
vt 0.703636 0.450141
vt 0.833712 0.769629
vt 0.833712 0.769629
vt 0.703636 0.450141
vt 0.366028 0.215548
vt 0.833712 0.370908
vt 0.833712 0.998368
vt 0.828841 0.653138
vt 0.837926 0.753813
vt 0.833712 0.574871
vt 0.549365 0.315375
vt 0.171513 0.159395
vt 0.833712 0.176181
vt 0.833712 0.001653
vt -0.010930 0.144422
vt 0.985317 0.771276
vt 0.904526 0.529347
vt 0.931759 0.529559
vt 0.931544 0.966006
vt 0.931544 0.611716
vt 0.904707 0.378010
vt 0.931940 0.378342
vt 0.930126 0.961436
vt 0.978446 0.674202
vt 0.932102 0.696361
vt 0.959336 0.696611
vt 0.828841 0.831804
vt 0.834336 0.959987
vt 0.998320 0.998365
vt 0.974450 0.331069
vt 0.931940 0.529656
vt 0.959174 0.529906
vt 0.703636 0.831804
vt 0.999458 0.769140
vt 0.932101 0.378010
vt 0.972763 0.678111
vt 0.959336 0.378360
vt 1.000000 0.678289
vt 0.549365 0.831804
vt 0.997413 0.564931
vt 0.971407 0.523883
vt 0.998644 0.524061
vt 0.366028 0.831804
vt 0.970994 0.354015
vt 0.998094 0.368414
vt 0.998233 0.354204
vt 0.171513 0.831804
vt 0.971507 0.184422
vt 0.999184 0.174034
vt 0.998747 0.184622
vt -0.010930 0.831804
vt 0.972761 0.033994
vt 0.999243 -0.000183
vt 1.000000 0.034195
vt 0.999997 0.965951
vt 0.904703 0.701734
vt 0.931940 0.701610
vt 0.792602 -0.168641
vt 0.792602 1.168678
s 0
usemtl Calle
f 17/28/1 34/60/1 5/9/1 2/2/1
f 18/33/1 26/47/1 15/25/1 13/22/1
f 32/57/1 43/78/1 21/39/1 12/20/1
f 8/15/1 29/53/1 145/255/1 39/73/1
f 49/88/1 46/83/1 51/90/1 52/92/1
f 61/108/1 58/103/1 63/110/1 64/112/1
f 73/128/1 70/123/1 75/130/1 76/132/1
f 85/150/1 82/143/1 87/152/1 88/156/1
f 97/175/1 94/170/1 99/177/1 100/179/1
f 109/195/1 106/190/1 111/197/1 112/199/1
f 121/215/1 118/210/1 123/217/1 124/219/1
f 133/235/1 130/230/1 135/237/1 136/239/1
f 87/154/1 82/144/1 17/30/1 2/4/1
f 17/32/1 82/145/1 213/365/1 214/366/1
usemtl Vereda
f 6/11/1 3/6/1 1/1/1 4/8/1
f 38/68/1 35/62/1 33/59/1 36/64/1
f 31/55/1 20/37/1 10/17/1 30/54/1
f 145/254/2 20/38/2 31/56/2 39/72/2
f 17/29/3 24/44/3 37/66/3 34/61/3
f 8/14/4 19/35/4 141/247/4 29/52/4
f 11/18/1 144/252/1 143/251/1 9/16/1
f 37/67/1 24/45/1 14/24/1 27/49/1
f 18/34/4 23/42/4 28/50/4 26/48/4
f 141/248/1 19/36/1 7/13/1 40/74/1
f 142/249/1 41/75/1 22/41/1 42/77/1
f 32/58/4 41/76/4 142/250/4 43/79/4
f 5/10/2 35/63/2 38/69/2 2/3/2
f 28/51/1 23/43/1 16/27/1 25/46/1
f 15/26/2 3/7/2 6/12/2 13/23/2
f 21/40/2 144/253/2 11/19/2 12/21/2
f 45/80/1 48/85/1 50/89/1 47/84/1
f 49/87/4 48/86/4 45/81/4 46/82/4
f 53/94/1 55/97/1 56/99/1 54/96/1
f 51/91/2 55/98/2 53/95/2 52/93/2
f 57/100/1 60/105/1 62/109/1 59/104/1
f 61/107/4 60/106/4 57/101/4 58/102/4
f 65/114/1 67/117/1 68/119/1 66/116/1
f 63/111/2 67/118/2 65/115/2 64/113/2
f 69/120/1 72/125/1 74/129/1 71/124/1
f 73/127/4 72/126/4 69/121/4 70/122/4
f 77/134/1 79/137/1 80/139/1 78/136/1
f 75/131/2 79/138/2 77/135/2 76/133/2
f 81/140/1 84/147/1 86/151/1 83/146/1
f 85/149/5 84/148/5 81/141/5 82/142/5
f 89/158/1 91/161/1 92/165/1 90/160/1
f 87/153/2 91/162/2 89/159/2 88/157/2
f 93/167/1 96/172/1 98/176/1 95/171/1
f 97/174/6 96/173/6 93/168/6 94/169/6
f 101/181/1 103/184/1 104/186/1 102/183/1
f 99/178/7 103/185/7 101/182/7 100/180/7
f 105/187/1 108/192/1 110/196/1 107/191/1
f 109/194/6 108/193/6 105/188/6 106/189/6
f 113/201/1 115/204/1 116/206/1 114/203/1
f 111/198/7 115/205/7 113/202/7 112/200/7
f 117/207/1 120/212/1 122/216/1 119/211/1
f 121/214/6 120/213/6 117/208/6 118/209/6
f 125/221/1 127/224/1 128/226/1 126/223/1
f 123/218/7 127/225/7 125/222/7 124/220/7
f 129/227/1 132/232/1 134/236/1 131/231/1
f 133/234/6 132/233/6 129/228/6 130/229/6
f 137/241/1 139/244/1 140/246/1 138/243/1
f 135/238/7 139/245/7 137/242/7 136/240/7
f 92/166/1 91/163/1 38/70/1 36/65/1
f 91/164/2 87/155/2 2/5/2 38/71/2
f 148/259/8 17/31/8 150/262/8 151/263/8
f 149/261/1 173/297/1 174/299/1 152/265/1
f 151/263/9 150/262/9 153/266/9 154/267/9
f 152/265/1 174/299/1 177/306/1 155/269/1
f 154/267/10 153/266/10 156/270/10 157/271/10
f 155/269/1 177/306/1 175/301/1 158/273/1
f 157/271/11 156/270/11 159/274/11 160/276/11
f 158/273/1 175/301/1 178/308/1 161/279/1
f 160/277/12 159/275/12 162/280/12 163/281/12
f 161/279/1 178/308/1 176/303/1 164/284/1
f 163/281/13 162/280/13 165/286/13 166/287/13
f 169/291/14 168/290/14 171/294/14 172/296/14
f 170/293/1 169/292/1 172/295/1 147/257/1
f 172/296/15 171/294/15 146/256/15 147/258/15
f 175/302/1 177/307/1 154/268/1 157/272/1
f 176/304/1 178/309/1 160/278/1 163/282/1
f 177/307/1 174/300/1 151/264/1 154/268/1
f 178/309/1 175/302/1 157/272/1 160/278/1
f 164/285/1 176/305/1 163/283/1 166/288/1 167/289/1
f 174/300/1 173/298/1 148/260/1 151/264/1
f 179/310/1 182/317/1 200/347/1 197/341/1
f 181/314/1 179/310/1 197/341/1 194/336/1
f 182/317/1 180/313/1 203/352/1 200/347/1
f 187/326/1 188/327/1 185/323/1 211/362/1
f 188/328/16 189/329/16 186/325/16 185/324/16
f 196/340/1 179/311/1 181/315/1 193/334/1
f 197/342/17 198/344/17 195/339/17 194/338/17
f 200/348/18 201/349/18 198/345/18 197/343/18
f 202/350/1 180/312/1 182/318/1 199/346/1
f 205/354/1 183/319/1 180/312/1 202/350/1
f 206/355/19 207/357/19 204/353/19 203/351/19
f 209/359/20 210/361/20 207/357/20 206/355/20
f 193/335/1 181/316/1 194/337/1 191/331/1 190/330/1
f 183/320/1 184/321/1 209/360/1 206/356/1
f 194/338/21 195/339/21 192/333/21 191/332/21
f 203/351/22 204/353/22 201/349/22 200/348/22
f 185/324/23 186/325/23 212/364/23 211/363/23
f 199/346/1 182/318/1 179/311/1 196/340/1
f 208/358/1 184/322/1 183/319/1 205/354/1
f 180/313/1 183/320/1 206/356/1 203/352/1
