# Blender 3.3.1
# www.blender.org
mtllib wall_shutter3.mtl
o wall_shutter3
v -2.499967 -0.006293 -0.000000
v 2.499967 -0.006293 -0.000000
v -2.499967 3.387209 0.000000
v 2.499967 3.387209 0.000000
v -2.499967 2.735973 0.000000
v 2.499967 2.735973 0.000000
v -1.165861 2.735973 0.000000
v -1.165861 -0.006293 -0.000000
v 1.204806 -0.006293 -0.000000
v 1.204806 2.735973 0.000000
v 1.204806 2.735973 -0.040265
v -1.165861 2.735973 -0.040265
v -1.165861 -0.006293 -0.040265
v 1.204806 -0.006293 -0.040265
v -1.174073 -0.003839 -0.038828
v 1.206956 -0.003839 -0.038828
v -1.174073 2.752991 -0.038828
v 1.206956 2.752991 -0.038828
vn -0.0000 -0.0000 1.0000
vn 1.0000 -0.0000 -0.0000
vn -0.0000 -1.0000 -0.0000
vn -1.0000 -0.0000 -0.0000
vt 0.000000 0.000000
vt 1.000000 0.000000
vt 0.000000 1.000000
vt 1.000000 1.000000
vt 0.000000 0.808093
vt 1.000000 0.808093
vt 0.266825 0.808093
vt 0.272361 0.808093
vt 0.266825 0.000000
vt 0.733396 0.000000
vt 0.733396 0.808093
vt 0.733201 0.802655
vt 0.742429 0.802655
vt 0.272669 0.802655
vt 0.272669 0.000000
vt 0.742429 0.000000
vt 0.279984 0.000000
vt 0.729859 0.000000
vt 0.279984 0.791524
vt 0.729859 0.791524
s 0
usemtl wall_shutter3
f 5/5/1 7/7/1 10/11/1 6/6/1 4/4/1 3/3/1
f 1/1/1 8/9/1 7/7/1 5/5/1
f 10/11/1 9/10/1 2/2/1 6/6/1
f 7/7/2 8/9/2 13/15/2 12/14/2
f 10/11/3 7/8/3 12/14/3 11/12/3
f 9/10/4 10/11/4 11/13/4 14/16/4
f 15/17/1 16/18/1 18/20/1 17/19/1
