# Blender 3.3.1
# www.blender.org
mtllib wall_steel_corrugated_door.mtl
o wall_steel_corrugated_door
v -2.497019 0.001259 -0.000000
v 2.497019 0.001259 -0.000000
v -2.497019 3.724931 0.000000
v 2.497019 3.724931 0.000000
v -2.497019 1.594536 -0.000000
v 2.497019 1.594536 -0.000000
v -0.507859 1.594536 -0.000000
v -0.507859 0.001259 -0.000000
v 0.525530 0.001259 -0.000000
v 0.525530 1.594536 -0.000000
v 2.497019 3.474143 0.000000
v -2.497019 3.474143 0.000000
v 2.497019 3.474143 0.243446
v 2.497019 3.724931 0.243446
v -2.497019 3.724931 0.243446
v -2.497019 3.474143 0.243446
v 0.525530 1.594536 -0.020888
v -0.507859 1.594536 -0.020888
v -0.507859 0.001259 -0.020888
v 0.525530 0.001259 -0.020888
v 0.016511 1.378985 -0.020257
v 0.016511 1.378985 -0.008966
v 0.063717 1.376894 -0.020257
v 0.063717 1.376894 -0.008966
v 0.011563 1.334923 -0.020257
v 0.011563 1.334923 -0.008966
v 0.061626 1.329688 -0.020257
v 0.061626 1.329688 -0.008966
v 0.035810 1.378072 -0.020257
v 0.035810 1.378072 -0.008966
v 0.051378 1.377440 -0.020257
v 0.051378 1.377440 -0.008966
v 0.035805 1.387943 -0.020257
v 0.026392 1.390736 -0.020257
v 0.026392 1.390736 -0.008966
v 0.035805 1.387943 -0.008966
v 0.039119 1.390403 -0.020257
v 0.035594 1.399567 -0.020257
v 0.035594 1.399567 -0.008966
v 0.039119 1.390403 -0.008966
v 0.048080 1.390862 -0.020257
v 0.048626 1.400666 -0.020257
v 0.048626 1.400666 -0.008966
v 0.048080 1.390862 -0.008966
v 0.053072 1.385136 -0.020257
v 0.060535 1.391516 -0.020257
v 0.060535 1.391516 -0.008966
v 0.053072 1.385136 -0.008966
v 0.020208 0.241376 -0.008966
v 0.020208 0.241376 -0.020257
v 0.064454 0.239712 -0.008966
v 0.064454 0.239712 -0.020257
v 0.020222 0.197271 -0.020257
v 0.019696 0.197271 -0.008966
v 0.062790 0.197054 -0.020257
v 0.062790 0.197054 -0.008966
v 0.032172 0.240638 -0.020257
v 0.032172 0.240638 -0.008966
v 0.052110 0.240147 -0.020257
v 0.052110 0.240147 -0.008966
v 0.031922 0.256461 -0.020257
v 0.025815 0.259169 -0.020257
v 0.025815 0.259169 -0.008966
v 0.031922 0.256461 -0.008966
v 0.038544 0.260903 -0.020257
v 0.034937 0.268083 -0.020257
v 0.034937 0.268083 -0.008966
v 0.038544 0.260903 -0.008966
v 0.047500 0.261444 -0.020257
v 0.047958 0.269299 -0.020257
v 0.047958 0.269299 -0.008966
v 0.047500 0.261444 -0.008966
v 0.052544 0.253810 -0.020257
v 0.057964 0.258472 -0.020257
v 0.057964 0.258472 -0.008966
v 0.052544 0.253810 -0.008966
vn -0.0000 -0.0000 1.0000
vn 1.0000 -0.0000 -0.0000
vn -0.0000 -1.0000 -0.0000
vn -0.0000 1.0000 -0.0000
vn -1.0000 -0.0000 -0.0000
vn 1.0000 0.0005 -0.0000
vn 0.9990 -0.0442 -0.0000
vn -0.1040 -0.9946 -0.0000
vn -0.9938 0.1116 -0.0000
vn -0.0000 -0.0000 -1.0000
vn -0.0473 -0.9989 -0.0000
vn 0.0405 0.9992 -0.0000
vn 0.0442 0.9990 -0.0000
vn -0.7654 0.6436 -0.0000
vn 0.0512 -0.9987 -0.0000
vn 0.5961 -0.8029 -0.0000
vn -0.6924 0.7215 -0.0000
vn -0.0840 0.9965 -0.0000
vn -0.9766 0.2150 -0.0000
vn -0.7538 -0.6571 -0.0000
vn 0.6092 0.7930 -0.0000
vn 0.9999 0.0158 -0.0000
vn 0.9771 0.2127 -0.0000
vn 0.9992 -0.0390 -0.0000
vn -0.0051 -1.0000 -0.0000
vn -0.9989 -0.0003 -0.0466
vn -0.0050 -1.0000 -0.0000
vn 0.0246 0.9997 -0.0000
vn 0.0352 0.9994 -0.0000
vn -0.9538 0.3006 -0.0000
vn 0.0603 -0.9982 -0.0000
vn 0.5571 -0.8304 -0.0000
vn -0.6989 0.7152 -0.0000
vn -0.0930 0.9957 -0.0000
vn -0.9995 0.0317 -0.0000
vn -0.8343 -0.5513 -0.0000
vn 0.7344 0.6787 -0.0000
vn 0.9451 0.3269 -0.0000
vn -0.5022 0.0564 0.8629
vn -0.0251 -0.2399 0.9705
vn -0.9990 0.0442 -0.0000
vn 0.6741 -0.0299 0.7381
vn -0.0094 -0.2320 0.9727
vn -0.0442 -0.9990 -0.0000
vn -0.0050 -1.0000 -0.0002
vn -0.9999 0.0116 -0.0000
vn -0.0051 -1.0000 -0.0002
vt 0.000000 0.000000
vt 1.000000 0.000000
vt -0.000488 0.980996
vt 0.042480 1.000000
vt 0.941868 1.000000
vt 0.999512 0.980996
vt 0.000000 0.427878
vt 1.000000 0.427878
vt 0.394157 0.427878
vt 0.398307 0.427878
vt 0.398307 0.000000
vt 0.394157 0.000000
vt 0.398307 0.010142
vt 0.605232 0.000000
vt 0.605232 0.010142
vt 0.605232 0.427878
vt 1.000000 0.932650
vt 0.941868 0.964377
vt 0.000000 0.932650
vt 0.042480 0.960173
vt 1.000000 0.964105
vt 0.970159 0.964377
vt 0.970159 1.000000
vt 1.000000 1.000000
vt 0.000000 1.000000
vt 0.012695 1.000000
vt 0.000000 0.964105
vt 0.012695 0.960173
vt 0.605232 0.427878
vt 0.398307 0.427878
vt 0.398307 0.000000
vt 0.605232 0.000000
vt 0.503306 0.369991
vt 0.503306 0.369991
vt 0.504151 0.368670
vt 0.512759 0.369430
vt 0.511716 0.368220
vt 0.512759 0.369430
vt 0.502315 0.358158
vt 0.503358 0.359199
vt 0.502315 0.358158
vt 0.512340 0.356753
vt 0.512340 0.356753
vt 0.511381 0.358074
vt 0.507170 0.369746
vt 0.507244 0.368474
vt 0.507170 0.369746
vt 0.510288 0.369576
vt 0.509739 0.368338
vt 0.510288 0.369576
vt 0.507170 0.372397
vt 0.505285 0.373147
vt 0.505285 0.373147
vt 0.506727 0.373710
vt 0.507170 0.372397
vt 0.507833 0.373057
vt 0.507127 0.375518
vt 0.507127 0.375518
vt 0.507792 0.375080
vt 0.507833 0.373057
vt 0.509628 0.373181
vt 0.509737 0.375814
vt 0.509737 0.375814
vt 0.509301 0.375251
vt 0.509628 0.373181
vt 0.510627 0.371643
vt 0.512121 0.373356
vt 0.512121 0.373356
vt 0.510679 0.373831
vt 0.510627 0.371643
vt 0.505406 0.063755
vt 0.504046 0.064484
vt 0.504437 0.064275
vt 0.504046 0.064484
vt 0.512225 0.063767
vt 0.512906 0.064037
vt 0.512678 0.063714
vt 0.512906 0.064037
vt 0.504256 0.052562
vt 0.504049 0.052639
vt 0.504730 0.054123
vt 0.504049 0.052639
vt 0.512573 0.052581
vt 0.511943 0.054073
vt 0.512573 0.052581
vt 0.506442 0.064286
vt 0.506442 0.064286
vt 0.510435 0.064154
vt 0.510435 0.064154
vt 0.506392 0.068535
vt 0.505387 0.068319
vt 0.505169 0.069262
vt 0.505169 0.069262
vt 0.506356 0.067799
vt 0.506392 0.068535
vt 0.507718 0.069728
vt 0.506996 0.071656
vt 0.506996 0.071656
vt 0.507224 0.070214
vt 0.507718 0.069728
vt 0.509511 0.069873
vt 0.509603 0.071983
vt 0.509603 0.071983
vt 0.509430 0.070491
vt 0.509511 0.069873
vt 0.510522 0.067823
vt 0.512140 0.069010
vt 0.511607 0.069075
vt 0.511607 0.069075
vt 0.511125 0.068030
vt 0.510522 0.067823
s 0
usemtl wall_steel_corrugated_door
f 5/7/1 7/10/1 10/16/1 6/8/1 11/17/1 12/19/1
f 1/1/1 8/11/1 7/10/1 5/7/1
f 16/27/1 13/21/1 14/24/1 15/25/1
f 7/9/2 8/12/2 19/31/2 18/30/2
f 10/16/1 9/14/1 2/2/1 6/8/1
f 12/19/3 11/17/3 13/21/3 16/27/3
f 11/18/2 4/5/2 14/23/2 13/22/2
f 4/6/4 3/3/4 15/25/4 14/24/4
f 3/4/5 12/20/5 16/28/5 15/26/5
f 18/30/1 19/31/1 20/32/1 17/29/1
f 10/16/3 7/10/3 18/30/3 17/29/3
f 9/14/5 10/16/5 17/29/5 20/32/5
f 8/13/4 9/15/4 20/32/4 19/31/4
f 29/45/6 36/55/6 30/47/6
f 24/37/7 27/42/7 23/36/7
f 28/44/8 25/39/8 27/42/8
f 26/40/9 21/33/9 25/39/9
f 29/45/10 31/48/10 27/42/10
f 30/47/1 22/34/1 26/41/1
f 30/46/11 22/35/11 21/33/11
f 33/51/10 38/57/10 37/56/10
f 30/47/12 31/48/12 29/45/12
f 32/50/13 23/36/13 31/48/13
f 22/35/14 34/52/14 21/33/14
f 30/47/1 35/53/1 22/34/1
f 29/45/10 34/52/10 33/51/10
f 37/56/15 44/65/15 40/60/15
f 36/55/16 37/56/16 40/60/16
f 35/54/17 38/57/17 34/52/17
f 36/55/1 39/58/1 35/53/1
f 44/65/1 47/68/1 43/63/1
f 39/59/18 42/62/18 38/57/18
f 40/60/1 43/63/1 39/58/1
f 37/56/10 42/62/10 41/61/10
f 45/66/19 32/50/19 48/70/19
f 41/61/10 46/67/10 45/66/10
f 41/61/20 48/70/20 44/65/20
f 43/64/21 46/67/21 42/62/21
f 57/86/22 64/95/22 58/87/22
f 46/67/23 24/37/23 23/36/23
f 48/70/1 24/38/1 47/68/1
f 45/66/10 23/36/10 31/48/10
f 51/75/24 55/83/24 52/77/24
f 56/84/25 53/79/25 55/83/25
f 54/81/26 50/73/26 53/79/26
f 57/86/10 59/88/10 53/80/10
f 58/87/1 49/72/1 54/82/1
f 55/83/27 56/85/27 54/82/27
f 61/90/10 66/97/10 65/96/10
f 58/87/28 59/88/28 57/86/28
f 60/89/29 52/78/29 59/88/29
f 49/71/30 62/91/30 50/73/30
f 49/72/1 64/95/1 63/93/1
f 50/74/10 61/90/10 57/86/10
f 65/96/31 72/105/31 68/100/31
f 64/95/32 65/96/32 68/100/32
f 63/94/33 66/97/33 62/91/33
f 64/95/1 67/98/1 63/93/1
f 72/105/1 75/109/1 71/103/1
f 67/99/34 70/102/34 66/97/34
f 68/100/1 71/103/1 67/98/1
f 65/96/10 70/102/10 69/101/10
f 73/106/35 60/89/35 76/111/35
f 69/101/10 74/108/10 73/106/10
f 69/101/36 76/111/36 72/105/36
f 71/104/37 74/107/37 70/102/37
f 75/110/38 52/77/38 74/107/38
f 76/111/1 51/76/1 75/109/1
f 73/106/10 52/78/10 59/88/10
f 29/45/6 33/51/6 36/55/6
f 24/37/7 28/44/7 27/42/7
f 28/44/8 26/40/8 25/39/8
f 26/40/9 22/35/9 21/33/9
f 31/48/10 23/36/10 27/42/10
f 27/42/10 25/39/10 29/45/10
f 25/39/10 21/33/10 29/45/10
f 26/41/1 28/43/1 30/47/1
f 28/43/1 24/38/1 32/50/1
f 30/47/1 28/43/1 32/50/1
f 21/33/39 25/39/39 30/46/39
f 25/39/40 27/42/40 30/46/40
f 23/36/41 28/44/41 24/37/41
f 27/42/42 23/36/42 32/49/42
f 30/46/43 27/42/43 32/49/43
f 24/37/44 32/49/44 23/36/44
f 33/51/10 34/52/10 38/57/10
f 30/47/12 32/50/12 31/48/12
f 22/35/14 35/54/14 34/52/14
f 30/47/1 36/55/1 35/53/1
f 29/45/10 21/33/10 34/52/10
f 37/56/15 41/61/15 44/65/15
f 36/55/16 33/51/16 37/56/16
f 35/54/17 39/59/17 38/57/17
f 36/55/1 40/60/1 39/58/1
f 44/65/1 48/70/1 47/68/1
f 39/59/18 43/64/18 42/62/18
f 40/60/1 44/65/1 43/63/1
f 37/56/10 38/57/10 42/62/10
f 45/66/19 31/48/19 32/50/19
f 41/61/10 42/62/10 46/67/10
f 41/61/20 45/66/20 48/70/20
f 43/64/21 47/69/21 46/67/21
f 46/67/23 47/69/23 24/37/23
f 48/70/1 32/50/1 24/38/1
f 45/66/10 46/67/10 23/36/10
f 57/86/22 61/90/22 64/95/22
f 51/75/24 56/84/24 55/83/24
f 56/84/45 54/81/45 53/79/45
f 54/81/46 49/71/46 50/73/46
f 59/88/10 52/78/10 55/83/10
f 55/83/10 53/80/10 59/88/10
f 53/80/10 50/74/10 57/86/10
f 54/82/1 56/85/1 60/89/1
f 56/85/1 51/76/1 60/89/1
f 60/89/1 58/87/1 54/82/1
f 55/83/24 52/78/24 56/85/24
f 53/80/47 55/83/47 54/82/47
f 61/90/10 62/92/10 66/97/10
f 58/87/28 60/89/28 59/88/28
f 60/89/29 51/76/29 52/78/29
f 49/71/30 63/94/30 62/91/30
f 49/72/1 58/87/1 64/95/1
f 50/74/10 62/92/10 61/90/10
f 65/96/31 69/101/31 72/105/31
f 64/95/32 61/90/32 65/96/32
f 63/94/33 67/99/33 66/97/33
f 64/95/1 68/100/1 67/98/1
f 72/105/1 76/111/1 75/109/1
f 67/99/34 71/104/34 70/102/34
f 68/100/1 72/105/1 71/103/1
f 65/96/10 66/97/10 70/102/10
f 73/106/35 59/88/35 60/89/35
f 69/101/10 70/102/10 74/108/10
f 69/101/36 73/106/36 76/111/36
f 71/104/37 75/110/37 74/107/37
f 75/110/38 51/75/38 52/77/38
f 76/111/1 60/89/1 51/76/1
f 73/106/10 74/108/10 52/78/10
