# Blender 3.3.1
# www.blender.org
mtllib wall_steel_corrugated_2tone.mtl
o wall_steel_corrugated_2tone
v -2.497022 0.000726 -0.097177
v 2.497022 0.000726 -0.097177
v -2.497022 3.724787 -0.097177
v 2.497022 3.724787 -0.097177
v -2.497022 3.473836 -0.097177
v 2.497022 3.473836 -0.097177
v 2.497022 3.473836 0.145766
v 2.497022 3.724787 0.145766
v -2.497022 3.724787 0.145766
v -2.497022 3.473836 0.145766
vn -0.0000 -0.0000 1.0000
vn -0.0000 1.0000 -0.0000
vn -0.0000 -1.0000 -0.0000
vn -1.0000 -0.0000 -0.0000
vn 1.0000 -0.0000 -0.0000
vt 0.000000 0.000000
vt 1.000000 0.000000
vt 0.000000 0.974612
vt 0.049805 1.000000
vt 1.000000 0.974612
vt 0.980929 1.000000
vt 0.000000 0.934710
vt 0.049805 0.960267
vt 1.000000 0.934710
vt 0.980929 0.961131
vt 1.000000 0.960716
vt 1.000000 1.000000
vt 0.000000 1.000000
vt 0.017090 1.000000
vt 0.000000 0.960716
vt 0.017090 0.960716
s 0
usemtl wall_steel_corrugated_2tone
f 1/1/1 2/2/1 6/9/1 5/7/1
f 10/15/1 7/11/1 8/12/1 9/13/1
f 4/5/2 3/3/2 9/13/2 8/12/2
f 5/7/3 6/9/3 7/11/3 10/15/3
f 3/4/4 5/8/4 10/16/4 9/14/4
f 6/10/5 4/6/5 8/12/5 7/11/5
