# Blender 3.3.1
# www.blender.org
mtllib wall_shutter2.mtl
o wall_shutter2
v -2.499265 -0.001184 -0.000000
v 2.499265 -0.001184 -0.000000
v -2.499265 3.050675 0.000000
v 2.499265 3.050675 0.000000
v -1.486570 3.010154 0.000000
v -1.486570 -0.001184 -0.000000
v 1.398662 -0.001184 -0.000000
v 1.398662 3.010154 0.000000
v 1.623431 3.647605 0.542359
v 1.623431 3.647605 -0.003938
v 1.623431 3.054494 -0.003938
v -1.704372 3.647605 0.542359
v -1.704372 3.647605 -0.003938
v -1.704372 3.054494 -0.003938
v 1.623431 3.190407 0.542359
v 1.623431 3.054494 0.406446
v -1.704372 3.054494 0.406446
v -1.704372 3.190407 0.542359
v 1.398662 3.010154 -0.031869
v -1.486570 3.010154 -0.031869
v -1.486570 -0.001184 -0.031869
v 1.398662 -0.001184 -0.031869
v -2.499265 3.826409 0.000000
v 2.499265 3.826409 0.000000
v -1.543320 0.001193 -0.032073
v 1.452346 0.001193 -0.032073
v -1.543320 3.094905 -0.032073
v 1.452346 3.094905 -0.032073
vn -0.0000 -0.0000 1.0000
vn -1.0000 -0.0000 -0.0000
vn -0.0000 1.0000 -0.0000
vn 1.0000 -0.0000 -0.0000
vn -0.0000 -1.0000 -0.0000
vn -0.0000 -0.7071 0.7071
vt 0.000000 0.000000
vt 1.000000 0.000000
vt 0.000000 0.797331
vt 1.000000 0.797331
vt 0.194786 0.786745
vt 0.202599 0.786745
vt 0.202599 0.000000
vt 0.194786 0.000000
vt 0.779814 0.000000
vt 0.779814 0.786745
vt 0.822069 0.873308
vt 0.822069 0.951514
vt 0.795493 0.949403
vt 0.822069 0.951514
vt 0.795493 0.876137
vt 0.819694 0.807187
vt 0.734593 0.876137
vt 0.160871 0.873308
vt 0.245331 0.946547
vt 0.160871 0.951514
vt 0.160871 0.951514
vt 0.245331 0.839679
vt 0.165396 0.805415
vt 0.334164 0.839679
vt 0.823619 0.833837
vt 0.822069 0.833837
vt 0.748548 0.949403
vt 0.814273 0.797468
vt 0.821100 0.806677
vt 0.734593 0.931175
vt 0.173584 0.795949
vt 0.164488 0.805159
vt 0.334164 0.919960
vt 0.161179 0.833837
vt 0.160871 0.833837
vt 0.313808 0.946547
vt 0.779814 0.786745
vt 0.202599 0.786745
vt 0.202599 0.000000
vt 0.779814 0.000000
vt 0.000000 1.000000
vt 1.000000 1.000000
vt 0.211294 -0.000971
vt 0.772595 -0.000971
vt 0.211294 0.791191
vt 0.772595 0.791191
s 0
usemtl wall_shutter2
f 1/1/1 6/7/1 5/6/1 3/3/1
f 7/9/2 8/10/2 19/37/2 22/40/2
f 8/10/1 7/9/1 2/2/1 4/4/1
f 13/21/3 12/18/3 9/11/3 10/14/3
f 18/36/2 12/19/2 13/22/2
f 16/30/4 10/15/4 15/27/4
f 11/16/5 16/28/5 17/31/5 14/23/5
f 15/25/6 18/34/6 17/32/6 16/29/6
f 9/12/1 12/20/1 18/35/1 15/26/1
f 5/5/4 6/8/4 21/39/4 20/38/4
f 8/10/5 5/6/5 20/38/5 19/37/5
f 3/3/1 5/6/1 8/10/1 4/4/1 24/42/1 23/41/1
f 11/17/4 10/15/4 16/30/4
f 10/15/4 9/13/4 15/27/4
f 13/22/2 14/24/2 17/33/2
f 17/33/2 18/36/2 13/22/2
f 25/43/1 26/44/1 28/46/1 27/45/1
