# Blender 3.3.1
# www.blender.org
mtllib wall_shutter1.mtl
o wall_shutter1
v -1.614113 -0.005558 -0.000004
v 1.610572 -0.005558 -0.000004
v -1.614113 3.829948 -0.000003
v 1.610572 3.829948 -0.000003
v -1.614113 0.971726 -0.000004
v 1.610572 0.971726 -0.000004
v -0.195233 -0.005558 -0.000004
v -0.195233 0.911129 -0.000004
v 0.217165 0.911129 -0.000004
v 0.217165 -0.005558 -0.000004
v 1.056998 3.829948 -0.157071
v -1.081440 3.829948 -0.157071
v 1.056998 0.969778 -0.157072
v -1.081440 0.969778 -0.157072
v -1.138474 3.829948 -0.000003
v -1.081922 3.829948 -0.059055
v -1.025370 3.829948 -0.000003
v -1.120999 3.829948 -0.002894
v -1.105234 3.829948 -0.011281
v -1.092723 3.829948 -0.024345
v -1.084690 3.829948 -0.040807
v -1.081922 0.933911 -0.059055
v -1.138474 0.918515 -0.000004
v -1.025370 0.911129 -0.000004
v -1.084690 0.927233 -0.040807
v -1.092723 0.921931 -0.024345
v -1.105234 0.918525 -0.011281
v -1.120999 0.917348 -0.002894
v 1.113662 0.918191 -0.000004
v 1.057110 0.933911 -0.059055
v 1.000558 0.911129 -0.000004
v 1.096187 0.917124 -0.002894
v 1.080422 0.918391 -0.011281
v 1.067911 0.921869 -0.024345
v 1.059878 0.927217 -0.040807
v 1.057110 3.829948 -0.059055
v 1.113662 3.829948 -0.000003
v 1.000558 3.829948 -0.000003
v 1.059878 3.829948 -0.040807
v 1.067911 3.829948 -0.024345
v 1.080422 3.829948 -0.011281
v 1.096187 3.829948 -0.002894
v 0.217165 0.499476 -0.000004
v -0.195233 0.499476 -0.000004
v -1.148047 3.285054 -0.155771
v -1.148047 3.829888 -0.155771
v -1.148047 3.829888 0.190561
v 1.144130 3.285054 -0.155771
v 1.144130 3.829888 -0.155771
v 1.144130 3.829888 0.190561
v -1.148047 3.285054 0.072306
v -1.148047 3.403309 0.190561
v 1.144130 3.403309 0.190561
v 1.144130 3.285054 0.072306
v 0.217165 0.911129 -0.019486
v -0.195233 0.911129 -0.019486
v 0.217165 0.499476 -0.019487
v -0.195233 0.499476 -0.019487
v -1.026026 0.965233 -0.160445
v 0.998977 0.965233 -0.160445
v -1.026026 3.318734 -0.160445
v 0.998977 3.318734 -0.160445
v 0.992750 3.829948 -0.157071
v -1.017192 3.829948 -0.157071
v 0.992750 0.969778 -0.157072
v -1.017192 0.969778 -0.157072
vn 0.6879 -0.7239 0.0536
vn 0.6783 0.6656 0.3113
vn 0.5955 0.4574 0.6604
vn 0.5758 -0.5776 0.5786
vn 0.0061 0.5800 0.8146
vn 0.4637 0.4051 0.7880
vn -0.4637 0.4051 0.7880
vn -0.0058 0.5795 0.8150
vn -0.6781 0.6661 0.3106
vn -0.5968 0.4574 0.6593
vn -0.6875 -0.7243 0.0522
vn -0.0000 -1.0000 -0.0000
vn -0.5770 -0.5774 0.5777
vn -0.0000 -0.0000 1.0000
vn 0.3015 0.3015 0.9045
vn 0.0450 0.0264 0.9986
vn -0.0817 -0.0523 0.9953
vn -0.0447 0.0264 0.9987
vn 0.0817 -0.0523 0.9953
vn 0.2138 -0.7454 0.6314
vn 0.4029 -0.7445 0.5323
vn 0.5485 -0.7435 0.3825
vn 0.6392 -0.7428 0.1993
vn 0.6058 0.6624 0.4407
vn 0.5096 0.6512 0.5624
vn 0.3839 0.6591 0.6467
vn 0.2512 0.7402 0.6237
vn -0.2471 0.7352 0.6312
vn -0.3817 0.6575 0.6496
vn -0.5084 0.6505 0.5643
vn -0.6054 0.6622 0.4416
vn -0.6392 -0.7428 0.1993
vn -0.5485 -0.7435 0.3825
vn -0.4029 -0.7446 0.5323
vn -0.2138 -0.7454 0.6314
vn -0.3015 0.3015 0.9045
vn -0.5774 0.5774 0.5774
vn 0.5774 0.5774 0.5774
vn -0.6303 -0.2971 0.7173
vn 0.6303 -0.2971 0.7173
vn -0.7071 0.7071 -0.0000
vn 0.7071 0.7071 -0.0000
vn -0.7071 -0.7071 -0.0000
vn -0.6303 -0.7173 0.2971
vn 0.6303 -0.7173 0.2971
vn 0.7071 -0.7071 -0.0000
vn 0.5774 -0.5774 0.5774
vn -0.5774 -0.5774 0.5774
vt 0.000000 0.000000
vt 1.000000 0.000000
vt 0.000000 1.000000
vt 1.000000 1.000000
vt 0.000000 0.254799
vt 1.000000 0.254799
vt 0.440006 0.000000
vt 0.440006 0.239000
vt 0.434580 0.243236
vt 0.567894 0.239000
vt 0.572544 0.243236
vt 0.567894 0.000000
vt 0.842878 1.000000
vt 0.802696 1.000000
vt 0.150234 1.000000
vt 0.190760 1.000000
vt 0.842878 0.254291
vt 0.802696 0.254291
vt 0.150234 0.254291
vt 0.190760 0.254291
vt 0.147499 1.000000
vt 0.165036 1.000000
vt 0.182574 1.000000
vt 0.152918 1.000000
vt 0.157807 1.000000
vt 0.161687 1.000000
vt 0.164178 1.000000
vt 0.165036 0.244940
vt 0.147499 0.240926
vt 0.182574 0.239000
vt 0.164178 0.243199
vt 0.161687 0.241817
vt 0.157807 0.240929
vt 0.152918 0.240622
vt 0.845904 0.240842
vt 0.828367 0.244940
vt 0.810830 0.239000
vt 0.840485 0.240563
vt 0.835596 0.240894
vt 0.831716 0.241800
vt 0.829225 0.243195
vt 0.828367 1.000000
vt 0.845904 1.000000
vt 0.810830 1.000000
vt 0.829225 1.000000
vt 0.831716 1.000000
vt 0.835596 1.000000
vt 0.840485 1.000000
vt 0.567894 0.131673
vt 0.572544 0.126460
vt 0.440006 0.131673
vt 0.434580 0.126460
vt 0.295344 0.915976
vt 0.180590 0.865102
vt 0.150401 0.978524
vt 0.295344 0.991006
vt 0.150401 0.993006
vt 0.150401 0.931975
vt 0.402308 0.991006
vt 0.765772 0.919282
vt 0.819293 0.865102
vt 0.849482 0.978524
vt 0.765772 0.991609
vt 0.849482 0.993006
vt 0.849482 0.931975
vt 0.683611 0.991609
vt 0.402308 0.915976
vt 0.154637 0.886898
vt 0.155590 0.886607
vt 0.150401 0.916786
vt 0.402308 0.933102
vt 0.150401 0.917729
vt 0.849482 0.916786
vt 0.683611 0.935792
vt 0.852656 0.917729
vt 0.683611 0.919282
vt 0.845246 0.886898
vt 0.844293 0.886607
vt 0.567894 0.239000
vt 0.567894 0.239652
vt 0.440006 0.239000
vt 0.440006 0.239652
vt 0.567894 0.131673
vt 0.567894 0.130370
vt 0.440006 0.131673
vt 0.440006 0.130370
vt 0.192711 0.255608
vt 0.801088 0.255608
vt 0.192711 0.859015
vt 0.801088 0.859015
vt 0.827499 1.000000
vt 0.165613 1.000000
vt 0.827499 0.254291
vt 0.165613 0.254291
s 1
usemtl wall_shutter1
f 16/22/1 22/28/2 14/19/3 12/15/4
f 22/28/2 24/30/5 8/8/6 9/10/7 31/37/8 30/36/9 13/17/10 14/19/3
f 36/42/11 38/44/12 17/23/12 16/22/1 12/15/4 11/13/13
f 30/36/9 36/42/11 11/13/13 13/17/10
f 1/1/14 7/7/14 44/51/15 8/8/6 24/30/5 23/29/16 5/5/14
f 37/43/17 29/35/18 6/6/14 4/4/14
f 15/21/19 18/24/20 17/23/12
f 18/24/20 19/25/21 17/23/12
f 19/25/21 20/26/22 17/23/12
f 20/26/22 21/27/23 17/23/12
f 21/27/23 16/22/1 17/23/12
f 22/28/2 25/31/24 24/30/5
f 25/31/24 26/32/25 24/30/5
f 26/32/25 27/33/26 24/30/5
f 27/33/26 28/34/27 24/30/5
f 28/34/27 23/29/16 24/30/5
f 29/35/18 32/38/28 31/37/8
f 32/38/28 33/39/29 31/37/8
f 33/39/29 34/40/30 31/37/8
f 34/40/30 35/41/31 31/37/8
f 35/41/31 30/36/9 31/37/8
f 36/42/11 39/45/32 38/44/12
f 39/45/32 40/46/33 38/44/12
f 40/46/33 41/47/34 38/44/12
f 41/47/34 42/48/35 38/44/12
f 42/48/35 37/43/17 38/44/12
f 22/28/2 16/22/1 21/27/23 25/31/24
f 25/31/24 21/27/23 20/26/22 26/32/25
f 26/32/25 20/26/22 19/25/21 27/33/26
f 27/33/26 19/25/21 18/24/20 28/34/27
f 28/34/27 18/24/20 15/21/19 23/29/16
f 29/35/18 37/43/17 42/48/35 32/38/28
f 32/38/28 42/48/35 41/47/34 33/39/29
f 33/39/29 41/47/34 40/46/33 34/40/30
f 34/40/30 40/46/33 39/45/32 35/41/31
f 35/41/31 39/45/32 36/42/11 30/36/9
f 5/5/14 23/29/16 15/21/19 3/3/14
f 9/10/7 43/49/36 10/12/14 2/2/14 6/6/14 29/35/18 31/37/8
f 44/52/15 43/50/36 57/84/37 58/86/38
f 50/64/38 47/57/37 52/70/39 53/73/40
f 43/49/36 44/51/15 7/7/14 10/12/14
f 46/55/41 47/58/37 50/65/38 49/62/42
f 45/53/43 51/67/44 52/71/39 47/59/37 46/56/41
f 49/63/42 50/66/38 53/74/40 54/76/45 48/60/46
f 53/75/40 52/72/39 51/68/44 54/77/45
f 48/61/46 54/78/45 51/69/44 45/54/43
f 56/81/47 58/85/38 57/83/37 55/79/48
f 43/50/36 9/11/7 55/80/48 57/84/37
f 9/11/7 8/9/6 56/82/47 55/80/48
f 8/9/6 44/52/15 58/86/38 56/82/47
f 59/87/14 60/88/14 62/90/14 61/89/14
f 13/18/10 11/14/13 63/91/14 65/93/14
f 12/16/4 14/20/3 66/94/14 64/92/14
