# Blender 3.3.1
# www.blender.org
mtllib warehouse_front.mtl
o warehouse_front
v -11.245695 -0.000111 0.059011
v 11.245695 -0.000111 0.059011
v -11.245695 6.114416 0.059012
v 11.245695 6.114416 0.059012
v -11.245695 4.988175 0.059012
v 11.245695 4.988175 0.059012
v -8.225679 -0.000111 0.059011
v -8.225679 4.988175 0.059012
v -2.353785 4.988175 0.059012
v -2.353784 -0.000111 0.059011
v 2.749950 -0.000111 0.059011
v 2.749951 4.988175 0.059012
v 8.611363 -0.000111 0.059011
v 8.611363 4.988175 0.059012
v 5.678504 -0.000111 0.059011
v 5.678504 4.988175 0.059012
v 5.699549 -0.000111 0.059011
v 5.699550 4.988175 0.059012
v -5.283965 4.988175 0.059012
v -5.283965 -0.000111 0.059011
v -5.309137 -0.000111 0.059011
v -5.309137 4.988175 0.059012
v 11.245695 4.988175 0.102761
v 11.245695 6.114416 0.102761
v -11.245695 6.114416 0.102761
v -11.245695 4.988175 0.102761
v -8.225679 4.988175 0.102761
v -5.309137 4.988175 0.102761
v 2.749951 4.988175 0.102761
v -2.353785 4.988175 0.102761
v 5.678504 4.988175 0.102761
v 8.611363 4.988175 0.102761
v 5.699550 4.988175 0.102761
v -5.283965 4.988175 0.102761
v -5.309137 4.988175 0.076739
v -8.225679 4.988175 0.076739
v -8.225679 -0.000111 0.076738
v -5.283965 -0.000111 0.076738
v -2.353784 -0.000111 0.076738
v -2.353785 4.988175 0.076739
v 5.678504 4.988175 0.076739
v 2.749951 4.988175 0.076739
v 2.749950 -0.000111 0.076738
v 5.699549 -0.000111 0.076738
v 8.611363 -0.000111 0.076738
v 8.611363 4.988175 0.076739
v 5.678504 -0.000111 0.076738
v 5.699550 4.988175 0.076739
v -5.283965 4.988175 0.076739
v -5.309137 -0.000111 0.076738
v -3.882759 5.890651 0.109314
v -3.882759 5.890651 0.236731
v -3.882759 5.928975 0.109314
v -3.882759 5.928975 0.236731
v -3.592779 5.890651 0.109314
v -3.592779 5.890651 0.236731
v -3.592779 5.928975 0.109314
v -3.592779 5.928975 0.236731
v -3.889305 5.889802 0.102732
v -3.889305 5.929086 0.102732
v -3.882759 5.939899 0.233689
v -3.882759 5.939899 0.112353
v -3.882759 5.988881 0.215920
v -3.882759 6.019671 0.195231
v -3.882759 6.030174 0.173020
v -3.882759 6.019671 0.150814
v -3.882759 5.988881 0.130121
v -3.592779 5.939899 0.112353
v -3.592779 5.939899 0.233689
v -3.592779 5.988881 0.130121
v -3.592779 6.019671 0.150814
v -3.592779 6.030174 0.173020
v -3.592779 6.019671 0.195231
v -3.592779 5.988881 0.215920
v -3.889305 5.889802 0.243309
v -3.889305 5.929086 0.243309
v -3.586233 5.929086 0.102732
v -3.586233 5.929086 0.243309
v -3.586233 5.889802 0.102732
v -3.586233 5.889802 0.243309
v -8.444112 0.358480 0.091225
v -8.520126 0.358480 0.091225
v -8.415733 0.482406 0.123028
v -8.415733 -0.000565 0.123028
v -8.405904 0.482406 0.121473
v -8.405904 -0.000565 0.121473
v -8.397038 0.482406 0.116953
v -8.397038 -0.000565 0.116953
v -8.390001 0.482406 0.109919
v -8.390001 -0.000565 0.109919
v -8.385484 0.482406 0.101053
v -8.385484 -0.000565 0.101053
v -8.383924 0.482406 0.091225
v -8.383924 -0.000565 0.091225
v -8.385484 0.482406 0.081394
v -8.385484 -0.000565 0.081394
v -8.390001 0.482406 0.072527
v -8.390001 -0.000565 0.072527
v -8.397038 0.482406 0.065491
v -8.397038 -0.000565 0.065491
v -8.405904 0.482406 0.060974
v -8.405904 -0.000565 0.060974
v -8.415733 0.482406 0.059416
v -8.415733 -0.000565 0.059416
v -8.425562 0.482406 0.060974
v -8.425562 -0.000565 0.060974
v -8.434428 0.482406 0.065491
v -8.434428 -0.000565 0.065491
v -8.441464 0.482406 0.072527
v -8.441464 -0.000565 0.072527
v -8.445983 0.482406 0.081394
v -8.445983 -0.000565 0.081394
v -8.447539 0.482406 0.091225
v -8.447539 -0.000565 0.091225
v -8.445983 0.482406 0.101053
v -8.445983 -0.000565 0.101053
v -8.441464 0.482406 0.109919
v -8.441464 -0.000565 0.109919
v -8.434428 0.482406 0.116953
v -8.434428 -0.000565 0.116953
v -8.425562 0.482406 0.121473
v -8.425562 -0.000565 0.121473
v -8.520126 0.481031 0.091225
v -8.444112 0.481031 0.091225
v -10.860412 3.791006 0.082894
v -10.860412 3.791006 0.199526
v -10.618517 3.987144 0.082894
v -10.618517 3.987144 0.199526
v -10.772868 3.774180 0.082894
v -10.772868 3.774180 0.199526
v -10.573163 3.938826 0.082894
v -10.573163 3.938826 0.199526
v -10.776568 3.778122 0.190010
v -10.855139 3.792203 0.190010
v -10.855139 3.792203 0.092407
v -10.776568 3.778122 0.092407
v -10.639876 3.831955 0.067413
v -10.636356 3.830812 0.067413
v -10.636356 3.802399 0.064657
v -10.636356 3.802399 0.058235
v -10.656577 3.808969 0.064657
v -10.656577 3.808969 0.058235
v -10.669068 3.826169 0.064657
v -10.669068 3.826169 0.058235
v -10.669068 3.847429 0.064657
v -10.669068 3.847429 0.058235
v -10.656577 3.864630 0.064657
v -10.656577 3.864630 0.058235
v -10.636356 3.871200 0.064657
v -10.636356 3.871200 0.058235
v -10.616139 3.864630 0.064657
v -10.616139 3.864630 0.058235
v -10.603644 3.847429 0.064657
v -10.603644 3.847429 0.058235
v -10.603644 3.826169 0.064657
v -10.603644 3.826169 0.058235
v -10.616139 3.808969 0.064657
v -10.616139 3.808969 0.058235
v -10.642051 3.834949 0.067413
v -10.642051 3.838649 0.067414
v -10.639876 3.841643 0.067414
v -10.636356 3.842786 0.067414
v -10.632839 3.841643 0.067414
v -10.630666 3.838649 0.067414
v -10.630666 3.834949 0.067413
v -10.632839 3.831955 0.067413
v -10.632839 3.831955 0.135681
v -10.636356 3.830812 0.135681
v -10.630666 3.834949 0.135681
v -10.630666 3.838649 0.135681
v -10.632839 3.841643 0.135681
v -10.636356 3.842786 0.135681
v -10.639876 3.841643 0.135681
v -10.642051 3.838649 0.135681
v -10.642051 3.834949 0.135681
v -10.639876 3.831955 0.135681
v -10.643208 3.841557 0.147837
v -10.645493 3.839272 0.146036
v -10.640733 3.844273 0.147398
v -10.639019 3.846385 0.144888
v -10.638715 3.847085 0.141274
v -10.639942 3.846106 0.137921
v -10.642229 3.843822 0.136120
v -10.644702 3.841106 0.136557
v -10.646420 3.838995 0.139067
v -10.646720 3.838294 0.142683
v -10.665718 3.858243 0.146944
v -10.668003 3.855960 0.145142
v -10.663243 3.860960 0.146509
v -10.661529 3.863071 0.143999
v -10.661226 3.863772 0.140375
v -10.662453 3.862793 0.137026
v -10.664738 3.860508 0.135229
v -10.667213 3.857792 0.135664
v -10.668929 3.855681 0.138168
v -10.669230 3.854981 0.141792
v -10.671192 3.858952 0.160166
v -10.678888 3.852816 0.154698
v -10.662476 3.865944 0.158800
v -10.656067 3.871123 0.151125
v -10.654415 3.872511 0.140080
v -10.658151 3.869576 0.129873
v -10.665846 3.863439 0.124409
v -10.674563 3.856447 0.125771
v -10.680969 3.851268 0.133448
v -10.682626 3.849880 0.144491
v -10.810536 3.753527 0.082894
v -10.810536 3.753527 0.199526
v -10.513679 3.847640 0.082894
v -10.513679 3.847640 0.199526
v -10.744751 3.694999 0.190010
v -10.805192 3.752714 0.190010
v -10.805192 3.752714 0.092407
v -10.744751 3.694999 0.092407
v -10.627543 3.663476 0.067413
v -10.624686 3.661126 0.067413
v -10.635076 3.634679 0.064657
v -10.635076 3.634679 0.058235
v -10.651492 3.648188 0.064657
v -10.651492 3.648188 0.058235
v -10.656832 3.668765 0.064657
v -10.656832 3.668765 0.058235
v -10.649057 3.688553 0.064657
v -10.649057 3.688553 0.058235
v -10.631139 3.699994 0.064657
v -10.631139 3.699994 0.058235
v -10.609919 3.698717 0.064657
v -10.609919 3.698717 0.058235
v -10.593502 3.685208 0.064657
v -10.593502 3.685208 0.058235
v -10.588162 3.664631 0.064657
v -10.588162 3.664631 0.058235
v -10.595937 3.644843 0.064657
v -10.595937 3.644843 0.058235
v -10.613853 3.633402 0.064657
v -10.613853 3.633402 0.058235
v -10.628470 3.667057 0.067413
v -10.627118 3.670501 0.067413
v -10.624001 3.672493 0.067413
v -10.620306 3.672270 0.067413
v -10.617449 3.669919 0.067413
v -10.616520 3.666338 0.067413
v -10.617873 3.662894 0.067413
v -10.620993 3.660903 0.067413
v -10.615828 3.664009 0.131033
v -10.619187 3.664528 0.132494
v -10.613054 3.665674 0.129238
v -10.611922 3.668890 0.127800
v -10.612866 3.672426 0.127262
v -10.615528 3.674932 0.127829
v -10.618888 3.675453 0.129294
v -10.621664 3.673786 0.131083
v -10.622793 3.670571 0.132523
v -10.621850 3.667036 0.133064
v -10.594020 3.695197 0.147837
v -10.597007 3.696426 0.146036
v -10.590557 3.693960 0.147398
v -10.587950 3.693192 0.144888
v -10.587188 3.693183 0.141274
v -10.588564 3.693938 0.137921
v -10.591553 3.695167 0.136120
v -10.595014 3.696403 0.136557
v -10.597621 3.697172 0.139067
v -10.598386 3.697181 0.142683
v -10.574432 3.714932 0.146944
v -10.577611 3.715513 0.145142
v -10.570791 3.714442 0.146509
v -10.568081 3.714233 0.143999
v -10.567330 3.714382 0.140375
v -10.568835 3.714835 0.137026
v -10.572014 3.715416 0.135229
v -10.575656 3.715906 0.135664
v -10.578367 3.716115 0.138168
v -10.579116 3.715965 0.141792
v -10.576715 3.723289 0.160166
v -10.586120 3.720393 0.154698
v -10.566045 3.726612 0.158800
v -10.558187 3.729089 0.151125
v -10.556139 3.729776 0.140080
v -10.560691 3.728409 0.129873
v -10.570096 3.725512 0.124409
v -10.580770 3.722191 0.125771
v -10.588625 3.719713 0.133448
v -10.590672 3.719027 0.144491
v -10.744436 3.691782 0.082894
v -10.725408 3.674008 0.105688
v -10.739953 3.687404 0.092211
v -10.725408 3.674008 0.176731
v -10.744436 3.691782 0.199526
v -10.739953 3.687404 0.190205
v -10.479330 3.754233 0.105688
v -10.487203 3.775644 0.082894
v -10.487203 3.775644 0.199526
v -10.479330 3.754233 0.176731
v -3.884125 5.969058 0.103833
v -3.591052 5.969058 0.103833
v -3.884125 5.997006 0.103833
v -3.591052 5.997006 0.103833
v -3.884395 5.975548 0.161391
v -3.590783 5.975548 0.161391
v -3.884395 5.990516 0.161391
v -3.590783 5.990516 0.161391
v -3.884395 5.970088 0.170180
v -3.590783 5.970088 0.170180
v -3.884395 5.995976 0.170180
v -3.590783 5.995976 0.170180
v -3.884395 5.979143 0.178421
v -3.590783 5.979143 0.178421
v -3.884395 5.986921 0.178421
v -3.590783 5.986921 0.178421
vn -0.5774 -0.5774 0.5774
vn -0.0000 -0.7071 0.7071
vn 0.5774 -0.5774 0.5773
vn -0.0000 -0.0000 1.0000
vn 0.5774 0.5774 0.5773
vn 0.5774 0.5774 0.5774
vn 0.5773 -0.5774 0.5773
vn -0.5774 0.5774 0.5774
vn -0.5774 -0.5773 0.5774
vn 0.5774 -0.5774 0.5774
vn 0.5774 -0.5773 0.5773
vn -0.5773 -0.5774 0.5773
vn -0.5774 -0.5774 0.5773
vn 0.7071 0.7071 -0.0000
vn -0.7071 0.7071 -0.0000
vn -0.5774 0.5774 0.5773
vn 0.5773 0.5774 0.5773
vn 0.5774 0.5773 0.5774
vn -0.2295 0.9355 0.2685
vn -0.2295 0.9355 -0.2686
vn -0.5757 0.5806 -0.5757
vn -0.5757 0.5806 0.5757
vn 0.2295 0.9355 -0.2686
vn -0.6986 0.2180 -0.6815
vn 0.6986 0.2180 -0.6815
vn 0.2295 0.9355 0.2685
vn 0.5757 0.5806 0.5757
vn -0.0484 -0.9977 0.0481
vn -0.0484 -0.9977 -0.0481
vn 0.0484 -0.9977 -0.0481
vn 0.0484 -0.9977 0.0481
vn 0.5648 -0.6018 -0.5647
vn 0.5648 -0.6018 0.5647
vn -0.5648 -0.6018 0.5647
vn -0.5648 -0.6018 -0.5647
vn 0.6807 0.3317 -0.6531
vn 0.6520 0.5748 -0.4945
vn 0.6224 0.7827 -0.0000
vn 0.6519 0.5748 0.4945
vn 0.6808 0.3316 0.6531
vn 0.6986 0.2181 0.6814
vn -0.6986 0.2181 0.6814
vn -0.6808 0.3316 0.6531
vn -0.6519 0.5748 0.4945
vn -0.6224 0.7827 -0.0000
vn -0.6520 0.5748 -0.4945
vn -0.6807 0.3317 -0.6531
vn 0.5757 0.5806 -0.5757
vn -0.0000 0.6736 0.7391
vn 0.3090 -0.0000 0.9511
vn 0.2284 0.6735 0.7030
vn 0.5878 -0.0000 0.8090
vn 0.4345 0.6736 0.5979
vn 0.8090 -0.0000 0.5879
vn 0.5980 0.6735 0.4345
vn 0.9510 -0.0000 0.3092
vn 0.7029 0.6736 0.2285
vn 1.0000 -0.0000 -0.0000
vn 0.7392 0.6735 -0.0000
vn 0.9510 -0.0000 -0.3091
vn 0.7029 0.6736 -0.2285
vn 0.8090 -0.0000 -0.5878
vn 0.5980 0.6735 -0.4345
vn 0.5877 -0.0000 -0.8090
vn 0.4344 0.6735 -0.5980
vn 0.3090 -0.0000 -0.9510
vn 0.2284 0.6736 -0.7030
vn 0.1258 -0.8006 -0.5859
vn 0.1258 -0.8006 0.5859
vn -0.4359 -0.8953 -0.0918
vn -0.4359 -0.8953 0.0918
vn -0.0000 -0.0000 -1.0000
vn -0.0000 0.6735 -0.7392
vn -0.8509 -0.2597 -0.4567
vn -0.0091 -0.9958 0.0910
vn -0.3091 -0.0000 -0.9510
vn -0.2284 0.6736 -0.7030
vn -0.8509 -0.2597 0.4567
vn -0.0091 -0.9958 -0.0910
vn -0.5877 -0.0000 -0.8090
vn -0.4344 0.6735 -0.5980
vn -0.8090 -0.0000 -0.5878
vn -0.5980 0.6735 -0.4345
vn 0.8172 -0.0522 0.5740
vn 0.0552 0.8118 0.5813
vn -0.9511 -0.0000 -0.3090
vn -0.7030 0.6735 -0.2284
vn 0.0552 0.8118 -0.5813
vn 0.8172 -0.0522 -0.5740
vn -1.0000 -0.0000 -0.0000
vn -0.7391 0.6735 -0.0000
vn -0.9510 -0.0000 0.3091
vn -0.7030 0.6735 0.2284
vn -0.8089 -0.0000 0.5879
vn -0.5979 0.6735 0.4345
vn -0.5878 -0.0000 0.8090
vn -0.4345 0.6736 0.5979
vn -0.3090 -0.0000 0.9511
vn -0.2284 0.6735 0.7030
vn -0.0001 0.6666 -0.7454
vn 0.3918 0.5393 -0.7454
vn 0.5269 0.8370 -0.1479
vn -0.0188 0.9455 -0.3251
vn 0.7518 0.2442 -0.6125
vn 0.7518 -0.2442 -0.6125
vn 0.6340 -0.2059 -0.7454
vn 0.6340 0.2059 -0.7454
vn -0.0000 0.7905 -0.6125
vn -0.0000 1.0000 -0.0000
vn 0.5879 0.8090 -0.0000
vn 0.4647 0.6395 -0.6125
vn 0.8097 -0.1223 0.5739
vn 0.8784 0.4286 0.2117
vn -0.4646 0.6395 -0.6125
vn -0.3919 0.5392 -0.7454
vn 0.9511 0.3089 -0.0000
vn -0.6341 -0.2059 -0.7454
vn -0.6341 0.2059 -0.7454
vn -0.8808 0.2922 -0.3725
vn -0.9234 -0.2660 -0.2767
vn 0.4647 -0.6395 -0.6125
vn -0.0000 -0.7905 -0.6125
vn -0.0001 -0.6666 -0.7454
vn 0.3918 -0.5393 -0.7454
vn 0.9511 -0.3089 -0.0000
vn -0.3919 -0.5392 -0.7454
vn -0.6596 -0.7510 -0.0310
vn -0.1539 -0.9192 0.3626
vn -0.4647 -0.6395 -0.6125
vn -0.7518 -0.2443 -0.6125
vn 0.5879 -0.8090 -0.0000
vn -0.5441 0.7450 -0.3860
vn -0.7518 0.2443 -0.6125
vn -0.0000 -1.0000 -0.0000
vn 0.3825 -0.6504 0.6563
vn -0.5878 -0.8090 -0.0000
vn -0.9511 -0.3090 -0.0000
vn -0.9511 0.3090 -0.0000
vn -0.5878 0.8090 -0.0000
vn 0.5534 0.8132 -0.1802
vn 0.2369 0.6848 -0.6892
vn 0.3284 0.1980 0.9236
vn -0.0317 -0.2155 0.9760
vn -0.5342 0.4285 0.7287
vn -0.2298 0.7202 0.6546
vn -0.6833 -0.4998 -0.5322
vn -0.6424 -0.7643 0.0558
vn -0.1264 0.3360 -0.9333
vn 0.6416 0.5953 0.4837
vn -0.3456 -0.6500 0.6769
vn -0.4672 -0.0943 -0.8791
vn -0.9923 -0.0284 0.1206
vn -0.9264 0.0189 -0.3761
vn -0.6344 -0.6474 -0.4224
vn -0.7027 -0.6974 0.1410
vn -0.0401 0.8801 -0.4731
vn -0.3097 0.6080 -0.7311
vn -0.0061 0.9316 0.3634
vn -0.8279 0.1420 0.5426
vn -0.6533 0.2728 -0.7062
vn 0.0680 0.9961 -0.0569
vn 0.6265 0.3446 -0.6991
vn 0.8498 0.5165 -0.1055
vn 0.7384 0.4217 0.5262
vn 0.3576 0.1180 0.9264
vn -0.1226 -0.2549 0.9592
vn -0.5167 -0.5550 0.6519
vn -0.3144 -0.3981 -0.8618
vn 0.1686 -0.0165 -0.9855
vn 0.8305 -0.4701 -0.2987
vn 0.8305 -0.4701 0.2987
vn -0.1674 -0.9398 0.2980
vn -0.1674 -0.9398 -0.2980
vn 0.6916 -0.0703 0.7189
vn 0.3586 0.7316 0.5798
vn -0.8609 0.1217 0.4941
vn -0.3670 -0.6751 0.6399
vn 0.3586 0.7316 -0.5798
vn 0.6916 -0.0703 -0.7189
vn -0.7010 -0.7021 0.1248
vn -0.7010 -0.7021 -0.1247
vn -0.4805 -0.8726 -0.0878
vn -0.4805 -0.8726 0.0878
vn -0.6981 -0.7155 -0.0264
vn -0.6982 -0.7155 0.0263
vn -0.8609 0.1217 -0.4941
vn -0.3670 -0.6751 -0.6399
vn 0.2543 0.5845 -0.7705
vn 0.5361 0.3322 -0.7760
vn 0.8630 0.1791 -0.4724
vn 0.4821 0.6461 -0.5917
vn 0.7890 -0.0476 -0.6125
vn 0.6104 -0.5022 -0.6125
vn 0.5097 -0.4081 -0.7574
vn 0.6359 -0.0317 -0.7712
vn 0.2890 0.7357 -0.6125
vn 0.3656 0.9308 -0.0000
vn 0.8429 0.5380 -0.0000
vn 0.6663 0.4253 -0.6125
vn 0.7281 -0.6717 0.1372
vn 0.9281 -0.3093 -0.2073
vn -0.1987 0.7651 -0.6125
vn -0.1411 0.6391 -0.7561
vn 0.9982 -0.0602 -0.0000
vn -0.6917 0.0464 -0.7207
vn -0.5140 0.4392 -0.7368
vn -0.6131 0.7371 -0.2840
vn -0.9101 0.4102 0.0585
vn 0.1987 -0.7651 -0.6125
vn -0.2890 -0.7357 -0.6125
vn -0.2640 -0.6400 -0.7216
vn 0.1668 -0.6535 -0.7383
vn 0.7722 -0.6353 -0.0000
vn -0.5939 -0.3689 -0.7150
vn -0.8842 -0.0977 0.4567
vn -0.3960 -0.6349 0.6634
vn -0.6663 -0.4253 -0.6125
vn -0.7890 0.0476 -0.6125
vn 0.2513 -0.9679 -0.0000
vn -0.0983 0.8538 -0.5112
vn -0.6104 0.5022 -0.6125
vn -0.3656 -0.9308 -0.0000
vn 0.2762 -0.8230 0.4964
vn -0.8429 -0.5380 -0.0000
vn -0.9982 0.0602 -0.0000
vn -0.7723 0.6353 -0.0000
vn -0.2514 0.9679 -0.0000
vn 0.7153 -0.5108 -0.4769
vn 0.4659 -0.1990 -0.8622
vn 0.4472 -0.5492 0.7060
vn -0.0350 -0.1315 0.9907
vn -0.2760 0.5419 0.7939
vn 0.1819 0.4420 0.8784
vn -0.7246 0.6535 -0.2190
vn -0.7324 0.5692 0.3736
vn 0.0434 0.1624 -0.9858
vn 0.7256 -0.6805 0.1020
vn -0.4797 0.2938 0.8268
vn -0.4278 0.4976 -0.7546
vn -0.7637 0.6358 0.1114
vn -0.7037 0.6339 -0.3208
vn -0.7095 -0.4948 -0.5018
vn -0.8316 -0.5418 0.1221
vn 0.5212 0.3642 -0.7718
vn -0.0150 0.4733 -0.8808
vn 0.7098 0.3443 0.6145
vn -0.6088 0.6034 0.5151
vn -0.4424 0.5828 -0.6816
vn 0.9340 0.3215 -0.1559
vn 0.7993 -0.0152 -0.6007
vn 0.9939 0.0536 -0.0962
vn 0.9024 0.0131 0.4306
vn 0.5335 -0.1281 0.8360
vn -0.0228 -0.3130 0.9495
vn -0.5564 -0.4708 0.6846
vn -0.2438 -0.3485 -0.9050
vn 0.3417 -0.1654 -0.9251
vn 1.0000 -0.0000 -0.0047
vn -1.0000 -0.0000 -0.0047
vt 0.000000 0.000000
vt 1.000000 0.000000
vt 0.000000 0.960422
vt 1.000000 0.960422
vt 0.000000 0.783520
vt 1.000000 0.783520
vt 0.135879 0.000000
vt 0.134274 0.000000
vt 0.135007 0.000000
vt 0.134648 0.783520
vt 0.134274 0.783520
vt 0.395347 0.783520
vt 0.395347 0.000000
vt 0.622267 0.000000
vt 0.622267 0.783520
vt 0.882874 0.000000
vt 0.882874 0.783520
vt 0.752475 0.000000
vt 0.752475 0.783520
vt 0.753410 0.000000
vt 0.753410 0.783520
vt 0.265067 0.783520
vt 0.265067 0.000000
vt 0.263948 0.000000
vt 0.263948 0.783520
vt 1.000000 0.783520
vt 1.000000 0.960422
vt 0.000000 0.960422
vt 0.000000 0.783520
vt 0.134274 0.783520
vt 0.263948 0.783520
vt 0.622267 0.783520
vt 0.395347 0.783520
vt 0.752475 0.783520
vt 0.882874 0.783520
vt 0.753410 0.783520
vt 0.265067 0.783520
vt 0.263948 0.783520
vt 0.135879 0.783520
vt 0.135007 0.783520
vt 0.134274 0.783520
vt 0.133776 0.000000
vt 0.134274 0.000000
vt 0.265067 0.000000
vt 0.395347 0.000000
vt 0.395347 0.783520
vt 0.752475 0.783520
vt 0.622267 0.783520
vt 0.622267 0.000000
vt 0.753410 0.000000
vt 0.882874 0.000000
vt 0.882874 0.783520
vt 0.752475 0.000000
vt 0.753410 0.783520
vt 0.265067 0.783520
vt 0.263948 0.000000
vt 0.014860 0.978397
vt 0.008373 0.980700
vt 0.014860 0.998097
vt 0.008373 0.994768
vt 0.000670 0.982758
vt 0.000670 0.982758
vt 0.021785 0.978397
vt 0.012971 0.980700
vt 0.021785 0.998097
vt 0.012971 0.994768
vt 0.014058 0.982758
vt 0.014058 0.982758
vt 0.000368 0.976108
vt 0.007053 0.976046
vt 0.000368 0.982776
vt 0.000670 0.984612
vt 0.000670 0.984612
vt 0.000670 0.992927
vt 0.000670 0.998154
vt 0.000670 0.999937
vt 0.000670 0.998154
vt 0.000670 0.992927
vt 0.014058 0.984612
vt 0.014058 0.984612
vt 0.014058 0.992927
vt 0.014058 0.998154
vt 0.014058 0.999937
vt 0.014058 0.998154
vt 0.014058 0.992927
vt 0.000368 0.976108
vt 0.007053 0.999422
vt 0.000368 0.982776
vt 0.014361 0.982776
vt 0.014361 0.982776
vt 0.014291 0.976046
vt 0.014291 0.999422
vt 0.014361 0.976108
vt 0.039839 0.975420
vt 0.039839 0.987549
vt 0.044457 0.971480
vt 0.024044 0.971480
vt 0.044457 0.970146
vt 0.024044 0.970146
vt 0.044457 0.968942
vt 0.024044 0.968942
vt 0.044457 0.967986
vt 0.024044 0.967986
vt 0.044457 0.967373
vt 0.024044 0.967373
vt 0.044457 0.967162
vt 0.024044 0.967162
vt 0.044457 0.967373
vt 0.024044 0.967373
vt 0.044457 0.967986
vt 0.024044 0.967986
vt 0.044457 0.968942
vt 0.024044 0.968942
vt 0.044457 0.970146
vt 0.024044 0.970146
vt 0.044457 0.971480
vt 0.024044 0.971480
vt 0.044457 0.972814
vt 0.024044 0.972814
vt 0.044457 0.974018
vt 0.024044 0.974018
vt 0.044457 0.974973
vt 0.024044 0.974973
vt 0.044457 0.975587
vt 0.024044 0.975587
vt 0.044457 0.975798
vt 0.024044 0.975798
vt 0.044457 0.975587
vt 0.024044 0.975587
vt 0.044457 0.974973
vt 0.024044 0.974973
vt 0.044457 0.974018
vt 0.024044 0.974018
vt 0.044457 0.972814
vt 0.024044 0.972814
vt 0.044792 0.987549
vt 0.044792 0.975420
vt 0.000507 0.998721
vt 0.000507 0.978085
vt 0.000507 0.998721
vt 0.000507 0.990983
vt 0.013641 0.998385
vt 0.013641 0.978291
vt 0.013641 0.998385
vt 0.013641 0.991189
vt 0.002786 0.976760
vt 0.002786 0.976760
vt 0.002786 0.996989
vt 0.013706 0.977157
vt 0.013706 0.997387
vt 0.013706 0.977157
vt 0.002781 0.978492
vt 0.089334 0.961665
vt 0.089334 0.999025
vt 0.000706 0.997948
vt 0.075816 0.999025
vt 0.000706 0.997948
vt 0.002781 0.978492
vt 0.075816 0.961665
vt 0.090115 0.966351
vt 0.090115 0.998099
vt 0.090115 0.962823
vt 0.090115 0.962823
vt 0.090115 0.998099
vt 0.099517 0.962823
vt 0.099517 0.998099
vt 0.090115 0.966351
vt 0.099517 0.966351
vt 0.090115 0.969878
vt 0.099517 0.969878
vt 0.090115 0.973406
vt 0.099517 0.973406
vt 0.090115 0.976934
vt 0.099517 0.976934
vt 0.090115 0.980461
vt 0.099517 0.980461
vt 0.090115 0.983989
vt 0.099517 0.983989
vt 0.090115 0.987516
vt 0.099517 0.987516
vt 0.090115 0.991044
vt 0.099517 0.991044
vt 0.090115 0.994572
vt 0.099517 0.994572
vt 0.090115 0.969878
vt 0.090115 0.973406
vt 0.090115 0.976934
vt 0.090115 0.980461
vt 0.090115 0.983989
vt 0.090115 0.987516
vt 0.090115 0.991044
vt 0.090115 0.994572
vt 0.090115 0.994572
vt 0.090115 0.962823
vt 0.090115 0.998099
vt 0.090115 0.991044
vt 0.090115 0.987516
vt 0.090115 0.983989
vt 0.090115 0.980461
vt 0.090115 0.976934
vt 0.090115 0.973406
vt 0.090115 0.969878
vt 0.090115 0.966351
vt 0.090115 0.994572
vt 0.090115 0.998099
vt 0.090115 0.962823
vt 0.090115 0.991044
vt 0.090115 0.987516
vt 0.090115 0.983989
vt 0.090115 0.980461
vt 0.090115 0.976934
vt 0.090115 0.973406
vt 0.090115 0.969878
vt 0.090115 0.966351
vt 0.090115 0.994572
vt 0.090115 0.998099
vt 0.090115 0.962823
vt 0.090115 0.991044
vt 0.090115 0.987516
vt 0.090115 0.983989
vt 0.090115 0.980461
vt 0.090115 0.976934
vt 0.090115 0.973406
vt 0.090115 0.969878
vt 0.090115 0.966351
vt 0.092130 0.994173
vt 0.090115 0.994572
vt 0.094783 0.997002
vt 0.090115 0.998099
vt 0.090115 0.962823
vt 0.090491 0.986767
vt 0.090115 0.991044
vt 0.090491 0.977611
vt 0.090115 0.987516
vt 0.092130 0.970205
vt 0.090115 0.983989
vt 0.094783 0.967376
vt 0.090115 0.980461
vt 0.097435 0.970205
vt 0.090115 0.976934
vt 0.099074 0.977611
vt 0.090115 0.973406
vt 0.099074 0.986767
vt 0.090115 0.969878
vt 0.097435 0.994173
vt 0.090115 0.966351
vt 0.000913 0.978899
vt 0.000913 0.998721
vt 0.000913 0.998721
vt 0.000913 0.991797
vt 0.013975 0.978715
vt 0.013975 0.998808
vt 0.013975 0.998808
vt 0.013975 0.991613
vt 0.089164 0.961983
vt 0.002747 0.982307
vt 0.089164 0.998706
vt 0.001114 0.998203
vt 0.075826 0.998706
vt 0.001114 0.998203
vt 0.075826 0.961983
vt 0.002747 0.982307
vt 0.090011 0.966128
vt 0.090011 0.998303
vt 0.090011 0.962553
vt 0.090011 0.962553
vt 0.090011 0.998303
vt 0.099564 0.962553
vt 0.099564 0.998303
vt 0.090011 0.966128
vt 0.099564 0.966128
vt 0.090011 0.969703
vt 0.099564 0.969703
vt 0.090011 0.973278
vt 0.099564 0.973278
vt 0.090011 0.976853
vt 0.099564 0.976853
vt 0.090011 0.980428
vt 0.099564 0.980428
vt 0.090011 0.984003
vt 0.099564 0.984003
vt 0.090011 0.987578
vt 0.099564 0.987578
vt 0.090011 0.991153
vt 0.099564 0.991153
vt 0.090011 0.994728
vt 0.099564 0.994728
vt 0.090011 0.969703
vt 0.090011 0.973278
vt 0.090011 0.976853
vt 0.090011 0.980428
vt 0.090011 0.984003
vt 0.090011 0.987578
vt 0.090011 0.991153
vt 0.090011 0.994728
vt 0.090011 0.994728
vt 0.090011 0.962553
vt 0.090011 0.998303
vt 0.090011 0.991153
vt 0.090011 0.987578
vt 0.090011 0.984003
vt 0.090011 0.980428
vt 0.090011 0.976853
vt 0.090011 0.973278
vt 0.090011 0.969703
vt 0.090011 0.966128
vt 0.090011 0.994728
vt 0.090011 0.998303
vt 0.090011 0.962553
vt 0.090011 0.991153
vt 0.090011 0.987578
vt 0.090011 0.984003
vt 0.090011 0.980428
vt 0.090011 0.976853
vt 0.090011 0.973278
vt 0.090011 0.969703
vt 0.090011 0.966128
vt 0.090011 0.994728
vt 0.090011 0.998303
vt 0.090011 0.962553
vt 0.090011 0.991153
vt 0.090011 0.987578
vt 0.090011 0.984003
vt 0.090011 0.980428
vt 0.090011 0.976853
vt 0.090011 0.973278
vt 0.090011 0.969703
vt 0.090011 0.966128
vt 0.091710 0.994467
vt 0.090011 0.994728
vt 0.094694 0.997327
vt 0.090011 0.998303
vt 0.090011 0.962553
vt 0.089865 0.986980
vt 0.090011 0.991153
vt 0.089865 0.977724
vt 0.090011 0.987578
vt 0.091710 0.970236
vt 0.090011 0.984003
vt 0.094694 0.967376
vt 0.090011 0.980428
vt 0.097679 0.970236
vt 0.090011 0.976853
vt 0.099523 0.977724
vt 0.090011 0.973278
vt 0.099523 0.986980
vt 0.090011 0.969703
vt 0.097679 0.994467
vt 0.090011 0.966128
vt 0.002716 0.981621
vt 0.003235 0.976698
vt 0.002836 0.980422
vt 0.003235 0.995299
vt 0.003235 0.976698
vt 0.002716 0.981621
vt 0.002836 0.980422
vt 0.014093 0.977228
vt 0.014066 0.982175
vt 0.014066 0.982175
vt 0.014093 0.995829
vt 0.014093 0.977228
vt 0.099447 0.967232
vt 0.099447 0.992880
vt 0.089938 0.967232
vt 0.089938 0.992880
vt 0.097239 0.962195
vt 0.097239 0.997918
vt 0.092146 0.962195
vt 0.092146 0.997918
vt 0.099097 0.961425
vt 0.099097 0.998687
vt 0.090288 0.961425
vt 0.090288 0.998687
vt 0.096016 0.960704
vt 0.096016 0.999408
vt 0.093369 0.960704
vt 0.093369 0.999408
s 1
usemtl warehouse_front.png
f 19/22/1 28/31/2 22/25/3
f 7/8/1 5/5/1 1/1/4
f 29/32/2 24/27/5 30/33/2
f 19/22/1 40/46/6 9/12/7
f 10/13/7 12/15/1 9/12/7
f 17/20/1 48/54/8 18/21/9
f 13/16/7 6/6/10 14/17/3
f 15/18/11 18/21/9 16/19/3
f 7/7/1 36/39/8 8/10/9
f 13/16/7 44/50/12 17/20/1
f 22/25/3 20/23/13 19/22/1
f 4/4/14 23/26/10 6/6/10
f 14/17/3 33/36/2 18/21/9
f 8/11/9 26/29/1 5/5/1
f 3/3/15 24/27/5 4/4/14
f 18/21/9 31/34/2 16/19/3
f 12/15/1 30/33/2 9/12/7
f 6/6/10 32/35/2 14/17/3
f 16/19/3 29/32/2 12/15/1
f 5/5/1 25/28/16 3/3/15
f 9/12/7 34/37/2 19/22/1
f 22/25/3 27/30/2 8/11/9
f 36/41/8 50/56/10 35/38/17
f 43/49/9 41/47/18 42/48/8
f 48/54/8 45/51/10 46/52/17
f 38/44/12 40/46/6 49/55/8
f 14/17/3 45/51/10 13/16/7
f 10/13/7 38/44/12 20/23/13
f 15/18/11 43/49/9 11/14/1
f 9/12/7 39/45/10 10/13/7
f 20/23/13 49/55/8 19/22/1
f 21/24/7 37/43/12 7/8/1
f 16/19/3 47/53/10 15/18/11
f 12/15/1 41/47/18 16/19/3
f 11/14/1 42/48/8 12/15/1
f 22/25/3 50/56/10 21/24/7
f 8/11/9 35/38/17 22/25/3
f 18/21/9 46/52/17 14/17/3
f 54/62/19 53/61/20 60/71/21 76/88/22
f 57/67/23 53/61/20 62/73/24 68/79/25
f 58/68/26 54/62/19 76/88/22 78/90/27
f 55/63/28 56/65/29 52/59/30 51/57/31
f 56/66/29 55/64/28 79/91/32 80/92/33
f 52/60/30 56/66/29 80/92/33 75/87/34
f 59/69/35 75/86/34 76/88/22 60/71/21
f 58/68/26 57/67/23 68/79/25 70/81/36 71/82/37 72/83/38 73/84/39 74/85/40 69/80/41
f 53/61/20 54/62/19 61/72/42 63/74/43 64/75/44 65/76/45 66/77/46 67/78/47 62/73/24
f 61/72/42 69/80/41 74/85/40 63/74/43
f 63/74/43 74/85/40 73/84/39 64/75/44
f 64/75/44 73/84/39 72/83/38 65/76/45
f 65/76/45 72/83/38 71/82/37 66/77/46
f 66/77/46 71/82/37 70/81/36 67/78/47
f 67/78/47 70/81/36 68/79/25 62/73/24
f 54/62/19 58/68/26 69/80/41 61/72/42
f 77/89/48 78/90/27 80/93/33 79/91/32
f 60/71/21 77/89/48 79/91/32 59/69/35
f 78/90/27 76/88/22 75/86/34 80/93/33
f 51/58/31 52/60/30 75/87/34 59/70/35
f 55/64/28 51/58/31 59/70/35 79/91/32
f 57/67/23 58/68/26 78/90/27 77/89/48
f 53/61/20 57/67/23 77/89/48 60/71/21
f 83/96/49 84/97/4 86/99/50 85/98/51
f 85/98/51 86/99/50 88/101/52 87/100/53
f 87/100/53 88/101/52 90/103/54 89/102/55
f 89/102/55 90/103/54 92/105/56 91/104/57
f 91/104/57 92/105/56 94/107/58 93/106/59
f 93/106/59 94/107/58 96/109/60 95/108/61
f 95/108/61 96/109/60 98/111/62 97/110/63
f 97/110/63 98/111/62 100/113/64 99/112/65
f 99/112/65 100/113/64 102/115/66 101/114/67
f 129/146/68 130/147/69 133/152/70 136/158/71
f 101/114/67 102/115/66 104/117/72 103/116/73
f 125/138/74 129/146/68 136/158/71 135/157/75
f 103/116/73 104/117/72 106/119/76 105/118/77
f 130/147/69 126/140/78 134/155/79 133/152/70
f 105/118/77 106/119/76 108/121/80 107/120/81
f 136/159/71 133/153/70 134/154/79 135/156/75
f 107/120/81 108/121/80 110/123/82 109/122/83
f 132/151/84 128/144/85 126/140/78 130/147/69
f 109/122/83 110/123/82 112/125/86 111/124/87
f 127/142/88 131/149/89 129/146/68 125/138/74
f 111/124/87 112/125/86 114/127/90 113/126/91
f 126/140/78 125/138/74 135/157/75 134/155/79
f 113/126/91 114/127/90 116/129/92 115/128/93
f 131/149/89 132/150/84 130/148/69 129/146/68
f 115/128/93 116/129/92 118/131/94 117/130/95
f 127/142/88 128/144/85 132/151/84 131/149/89
f 117/130/95 118/131/94 120/133/96 119/132/97
f 125/139/74 126/141/78 128/145/85 127/143/88
f 82/95/4 81/94/4 124/137/4 123/136/4
f 119/132/97 120/133/96 122/135/98 121/134/99
f 121/134/99 122/135/98 84/97/4 83/96/49
f 83/96/49 85/98/51 87/100/53 89/102/55 91/104/57 93/106/59 95/108/61 97/110/63 99/112/65 101/114/67 103/116/73 105/118/77 107/120/81 109/122/83 111/124/87 113/126/91 115/128/93 117/130/95 119/132/97 121/134/99
f 138/162/100 137/160/101 176/203/102 168/194/103
f 143/169/104 145/171/105 160/186/106 159/185/107
f 139/163/108 140/165/109 142/168/110 141/167/111
f 159/185/107 160/186/106 174/201/112 175/202/113
f 157/183/114 139/164/108 138/161/100 166/192/115
f 141/167/111 142/168/110 144/170/116 143/169/104
f 164/190/117 165/191/118 169/196/119 170/197/120
f 147/173/121 149/175/122 162/188/123 161/187/124
f 143/169/104 144/170/116 146/172/125 145/171/105
f 162/188/123 163/189/126 171/198/127 172/199/128
f 151/177/129 153/179/130 164/190/117 163/189/126
f 145/171/105 146/172/125 148/174/131 147/173/121
f 166/192/115 138/161/100 168/195/103 167/193/132
f 155/181/133 157/183/114 166/192/115 165/191/118
f 147/173/121 148/174/131 150/176/134 149/175/122
f 160/186/106 161/187/124 173/200/135 174/201/112
f 141/167/111 143/169/104 159/185/107 137/160/101
f 149/175/122 150/176/134 152/178/136 151/177/129
f 137/160/101 159/185/107 175/202/113 176/203/102
f 139/163/108 141/167/111 137/160/101 138/162/100
f 151/177/129 152/178/136 154/180/137 153/179/130
f 163/189/126 164/190/117 170/197/120 171/198/127
f 145/171/105 147/173/121 161/187/124 160/186/106
f 153/179/130 154/180/137 156/182/138 155/181/133
f 161/187/124 162/188/123 172/199/128 173/200/135
f 149/175/122 151/177/129 163/189/126 162/188/123
f 155/181/133 156/182/138 158/184/139 157/183/114
f 165/191/118 166/192/115 167/193/132 169/196/119
f 168/194/103 176/203/102 186/214/140 178/206/141
f 157/183/114 158/184/139 140/166/109 139/164/108
f 153/179/130 155/181/133 165/191/118 164/190/117
f 184/212/142 183/211/143 193/222/144 194/223/145
f 174/201/112 173/200/135 183/211/143 184/212/142
f 171/198/127 170/197/120 180/208/146 181/209/147
f 167/193/132 168/195/103 178/205/141 177/204/148
f 175/202/113 174/201/112 184/212/142 185/213/149
f 172/199/128 171/198/127 181/209/147 182/210/150
f 169/196/119 167/193/132 177/204/148 179/207/151
f 176/203/102 175/202/113 185/213/149 186/214/140
f 173/200/135 172/199/128 182/210/150 183/211/143
f 170/197/120 169/196/119 179/207/151 180/208/146
f 191/220/152 190/219/153 200/234/154 201/236/155
f 181/209/147 180/208/146 190/219/153 191/220/152
f 177/204/148 178/205/141 188/216/156 187/215/157
f 185/213/149 184/212/142 194/223/145 195/224/158
f 182/210/150 181/209/147 191/220/152 192/221/159
f 179/207/151 177/204/148 187/215/157 189/218/160
f 186/214/140 185/213/149 195/224/158 196/225/161
f 183/211/143 182/210/150 192/221/159 193/222/144
f 180/208/146 179/207/151 189/218/160 190/219/153
f 178/206/141 186/214/140 196/225/161 188/217/156
f 198/228/162 206/245/163 205/243/164 204/241/165 203/239/166 202/237/167 201/235/155 200/233/154 199/231/168 197/226/169
f 187/215/157 188/216/156 198/229/162 197/227/169
f 195/224/158 194/223/145 204/242/165 205/244/164
f 192/221/159 191/220/152 201/236/155 202/238/167
f 189/218/160 187/215/157 197/227/169 199/232/168
f 196/225/161 195/224/158 205/244/164 206/246/163
f 193/222/144 192/221/159 202/238/167 203/240/166
f 190/219/153 189/218/160 199/232/168 200/234/154
f 188/217/156 196/225/161 206/246/163 198/230/162
f 194/223/145 193/222/144 203/240/166 204/242/165
f 291/357/170 294/360/171 288/353/172 286/351/173
f 293/359/174 210/253/175 208/249/176 289/355/177
f 209/252/178 210/253/175 293/359/174 294/361/171 291/357/170 292/358/179
f 214/261/180 211/255/181 212/257/182 213/259/183
f 290/356/184 289/355/177 208/249/176 212/258/182 211/256/181
f 287/352/185 286/351/173 288/354/172 290/356/184 211/256/181 214/262/180
f 208/249/176 207/248/186 213/260/183 212/258/182
f 207/248/186 285/350/187 287/352/185 214/262/180 213/260/183
f 207/247/186 208/250/176 210/254/175 209/251/178
f 216/265/188 215/263/189 254/306/190 246/297/191
f 221/272/192 223/274/193 238/289/194 237/288/195
f 217/266/196 218/268/197 220/271/198 219/270/199
f 237/288/195 238/289/194 252/304/200 253/305/201
f 235/286/202 217/267/196 216/264/188 244/295/203
f 219/270/199 220/271/198 222/273/204 221/272/192
f 242/293/205 243/294/206 247/299/207 248/300/208
f 225/276/209 227/278/210 240/291/211 239/290/212
f 221/272/192 222/273/204 224/275/213 223/274/193
f 240/291/211 241/292/214 249/301/215 250/302/216
f 229/280/217 231/282/218 242/293/205 241/292/214
f 223/274/193 224/275/213 226/277/219 225/276/209
f 244/295/203 216/264/188 246/298/191 245/296/220
f 233/284/221 235/286/202 244/295/203 243/294/206
f 225/276/209 226/277/219 228/279/222 227/278/210
f 238/289/194 239/290/212 251/303/223 252/304/200
f 219/270/199 221/272/192 237/288/195 215/263/189
f 227/278/210 228/279/222 230/281/224 229/280/217
f 215/263/189 237/288/195 253/305/201 254/306/190
f 217/266/196 219/270/199 215/263/189 216/265/188
f 229/280/217 230/281/224 232/283/225 231/282/218
f 241/292/214 242/293/205 248/300/208 249/301/215
f 223/274/193 225/276/209 239/290/212 238/289/194
f 231/282/218 232/283/225 234/285/226 233/284/221
f 239/290/212 240/291/211 250/302/216 251/303/223
f 227/278/210 229/280/217 241/292/214 240/291/211
f 233/284/221 234/285/226 236/287/227 235/286/202
f 243/294/206 244/295/203 245/296/220 247/299/207
f 246/297/191 254/306/190 264/317/228 256/309/229
f 235/286/202 236/287/227 218/269/197 217/267/196
f 231/282/218 233/284/221 243/294/206 242/293/205
f 262/315/230 261/314/231 271/325/232 272/326/233
f 252/304/200 251/303/223 261/314/231 262/315/230
f 249/301/215 248/300/208 258/311/234 259/312/235
f 245/296/220 246/298/191 256/308/229 255/307/236
f 253/305/201 252/304/200 262/315/230 263/316/237
f 250/302/216 249/301/215 259/312/235 260/313/238
f 247/299/207 245/296/220 255/307/236 257/310/239
f 254/306/190 253/305/201 263/316/237 264/317/228
f 251/303/223 250/302/216 260/313/238 261/314/231
f 248/300/208 247/299/207 257/310/239 258/311/234
f 269/323/240 268/322/241 278/337/242 279/339/243
f 259/312/235 258/311/234 268/322/241 269/323/240
f 255/307/236 256/308/229 266/319/244 265/318/245
f 263/316/237 262/315/230 272/326/233 273/327/246
f 260/313/238 259/312/235 269/323/240 270/324/247
f 257/310/239 255/307/236 265/318/245 267/321/248
f 264/317/228 263/316/237 273/327/246 274/328/249
f 261/314/231 260/313/238 270/324/247 271/325/232
f 258/311/234 257/310/239 267/321/248 268/322/241
f 256/309/229 264/317/228 274/328/249 266/320/244
f 276/331/250 284/348/251 283/346/252 282/344/253 281/342/254 280/340/255 279/338/243 278/336/242 277/334/256 275/329/257
f 265/318/245 266/319/244 276/332/250 275/330/257
f 273/327/246 272/326/233 282/345/253 283/347/252
f 270/324/247 269/323/240 279/339/243 280/341/255
f 267/321/248 265/318/245 275/330/257 277/335/256
f 274/328/249 273/327/246 283/347/252 284/349/251
f 271/325/232 270/324/247 280/341/255 281/343/254
f 268/322/241 267/321/248 277/335/256 278/337/242
f 266/320/244 274/328/249 284/349/251 276/333/250
f 272/326/233 271/325/232 281/343/254 282/345/253
f 285/350/187 286/351/173 287/352/185
f 288/354/172 289/355/177 290/356/184
f 293/359/174 289/355/177 288/354/172 294/361/171
f 285/350/187 292/358/179 291/357/170 286/351/173
f 209/252/178 292/358/179 285/350/187 207/248/186
f 19/22/1 34/37/2 28/31/2
f 7/8/1 8/11/9 5/5/1
f 25/28/16 26/29/1 27/30/2
f 28/31/2 34/37/2 25/28/16
f 34/37/2 30/33/2 25/28/16
f 25/28/16 27/30/2 28/31/2
f 23/26/10 24/27/5 32/35/2
f 24/27/5 25/28/16 30/33/2
f 32/35/2 24/27/5 33/36/2
f 31/34/2 33/36/2 24/27/5
f 31/34/2 24/27/5 29/32/2
f 19/22/1 49/55/8 40/46/6
f 10/13/7 11/14/1 12/15/1
f 17/20/1 44/50/12 48/54/8
f 13/16/7 2/2/4 6/6/10
f 15/18/11 17/20/1 18/21/9
f 7/9/1 37/42/12 36/40/8
f 13/16/7 45/51/10 44/50/12
f 22/25/3 21/24/7 20/23/13
f 4/4/14 24/27/5 23/26/10
f 14/17/3 32/35/2 33/36/2
f 8/11/9 27/30/2 26/29/1
f 3/3/15 25/28/16 24/27/5
f 18/21/9 33/36/2 31/34/2
f 12/15/1 29/32/2 30/33/2
f 6/6/10 23/26/10 32/35/2
f 16/19/3 31/34/2 29/32/2
f 5/5/1 26/29/1 25/28/16
f 9/12/7 30/33/2 34/37/2
f 22/25/3 28/31/2 27/30/2
f 36/41/8 37/43/12 50/56/10
f 43/49/9 47/53/10 41/47/18
f 48/54/8 44/50/12 45/51/10
f 38/44/12 39/45/10 40/46/6
f 14/17/3 46/52/17 45/51/10
f 10/13/7 39/45/10 38/44/12
f 15/18/11 47/53/10 43/49/9
f 9/12/7 40/46/6 39/45/10
f 20/23/13 38/44/12 49/55/8
f 21/24/7 50/56/10 37/43/12
f 16/19/3 41/47/18 47/53/10
f 12/15/1 42/48/8 41/47/18
f 11/14/1 43/49/9 42/48/8
f 22/25/3 35/38/17 50/56/10
f 8/11/9 36/41/8 35/38/17
f 18/21/9 48/54/8 46/52/17
s 0
f 295/362/72 297/364/72 298/365/72 296/363/72
f 298/365/258 302/369/258 300/367/258 296/363/258
f 295/362/259 299/366/259 301/368/259 297/364/259
f 302/369/58 306/373/58 304/371/58 300/367/58
f 299/366/90 303/370/90 305/372/90 301/368/90
f 306/373/58 310/377/58 308/375/58 304/371/58
f 303/370/90 307/374/90 309/376/90 305/372/90
